<svg xmlns="http://www.w3.org/2000/svg" viewBox="0 0 16.16 16.16"><defs><style>.cls-1{stroke:#000;stroke-miterlimit:10;stroke-width:0.05px;}.cls-2{fill:#fff;}.cls-3{fill:#ff0;}.cls-4{fill:aqua;}.cls-5{fill:#4d4d4d;}.cls-6{fill:#ed1c24;}.cls-7{fill:#fbb03b;}.cls-8{fill:#0071bc;}.cls-9{fill:gray;}.cls-10{font-size:2.35px;}.cls-10,.cls-11{font-family:Phosphate-Inline, Phosphate;}.cls-11{font-size:1.98px;}</style></defs><title>favicon</title><g id="Layer_6" data-name="Layer 6"><path class="cls-1" d="M15.88,7.91a4.17,4.17,0,0,1-.29,1.8c-.3.61-.68,1.55-.68,1.55a1.11,1.11,0,0,1,0,.39,1.33,1.33,0,0,1-.79.87,1.93,1.93,0,0,1-1.6-.12c-.25-.1-.44-.19-.53-.39a1.11,1.11,0,0,1,.18-.92c.14-.3.21-.45.37-.54.35-.2.63.14,1-.05A1.18,1.18,0,0,0,14,9.64a1.25,1.25,0,0,0-.17-1c-.16-.15-.32-.16-1-.24-.87-.1-1-.26-1.2-.14s-.15.21-.5.86c-.26.5-.26.39-.54.9s-.35.78-.61.9a1.36,1.36,0,0,1-.51.08,3.85,3.85,0,0,1-.67-.05c-.29,0-.24,0-.91,0H7.09a2,2,0,0,1-1,0c-.14-.06-.22-.16-.38-.42-.57-.91-.57-1.33-1-1.79a1.79,1.79,0,0,0-.58-.44c-.71-.31-2,.46-2,.46a3.21,3.21,0,0,0,0,.82c0,.2.17.87.62,1s.67-.2.93,0,.07.18.27.58.32.46.3.64-.2.32-.4.46a1.79,1.79,0,0,1-1.15.39,1.89,1.89,0,0,1-1.08-.41,1,1,0,0,1-.45-.5,1.11,1.11,0,0,1,0-.52C1,10.68.61,10,.61,10A9.93,9.93,0,0,1,.19,7.36a9.6,9.6,0,0,1,.27-2s0-1,.2-1.16c.06,0,.33,0,.33,0a2.61,2.61,0,0,1,.39-.56,5.24,5.24,0,0,1,1.91-.43C4,3.08,4.69,3,4.69,3,6,2.91,7.11,2.9,8.13,2.9s1.77,0,2.36,0a23.13,23.13,0,0,1,4.23.66l.39.59a.7.7,0,0,1,.31,0c.21.1.14.55.19,1.16,0,.4.08.37.17.9A9,9,0,0,1,15.88,7.91Z"/><path class="cls-2" d="M4.77,5.51a1.17,1.17,0,0,1-.41.64,2.56,2.56,0,0,1-1,.43c-.83.27-1,.26-1.15.19A.65.65,0,0,1,1.9,6.4,1.11,1.11,0,0,1,2,5.84c.06-.21.08-.22.17-.56s.07-.29.11-.34.33-.16.69-.2c.77-.09.85-.26,1.22-.16a.8.8,0,0,1,.5.3A.87.87,0,0,1,4.77,5.51Z"/><path class="cls-2" d="M14.11,5.66c0,.23.14.78-.11,1-.51.5-2.54-.26-2.65-1.2a.87.87,0,0,1,.25-.77A.78.78,0,0,1,12,4.58a3.06,3.06,0,0,1,.74.1c.29.05.29,0,.47.07a1.34,1.34,0,0,1,.56.2A1,1,0,0,1,14.11,5.66Z"/><circle class="cls-3" cx="13.14" cy="4.01" r="0.51"/><circle class="cls-3" cx="1.81" cy="4.24" r="0.51"/><circle class="cls-3" cx="2.96" cy="4.01" r="0.51"/><circle class="cls-3" cx="4.11" cy="3.86" r="0.51"/><circle class="cls-4" cx="7.02" cy="9.92" r="0.51"/><circle class="cls-4" cx="9.08" cy="9.9" r="0.51"/><circle class="cls-4" cx="8.06" cy="8.9" r="0.51"/><circle class="cls-3" cx="14.27" cy="4.24" r="0.51"/><circle class="cls-3" cx="11.99" cy="3.89" r="0.51"/><circle cx="4.11" cy="3.86" r="0.25"/><circle cx="7.02" cy="9.92" r="0.25"/><circle cx="9.08" cy="9.92" r="0.25"/><circle cx="8.06" cy="8.9" r="0.25"/><circle cx="14.27" cy="4.23" r="0.25"/><circle cx="13.14" cy="4.01" r="0.25"/><circle cx="11.99" cy="3.89" r="0.25"/><circle cx="1.81" cy="4.24" r="0.25"/><circle cx="2.96" cy="4.01" r="0.25"/><circle class="cls-5" cx="4.05" cy="7.35" r="0.25"/><circle class="cls-5" cx="12.02" cy="7.32" r="0.25"/><circle class="cls-6" cx="10.81" cy="6.4" r="0.25"/><circle class="cls-6" cx="5.3" cy="6.37" r="0.25"/><circle class="cls-7" cx="6.32" cy="3.68" r="0.14"/><circle class="cls-6" cx="7.62" cy="3.63" r="0.14"/><circle class="cls-7" cx="7.18" cy="3.64" r="0.14"/><circle class="cls-7" cx="6.75" cy="3.66" r="0.14"/><circle class="cls-6" cx="8.48" cy="3.63" r="0.14"/><circle class="cls-6" cx="8.05" cy="3.63" r="0.14"/><circle class="cls-8" cx="9.78" cy="3.68" r="0.14"/><circle class="cls-8" cx="9.35" cy="3.66" r="0.14"/><circle class="cls-8" cx="8.92" cy="3.64" r="0.14"/><rect class="cls-9" x="5.82" y="4.11" width="4.47" height="4.08" rx="0.14"/><text class="cls-10" transform="translate(7.1 6.12) scale(1.02 1)">F1</text><text class="cls-11" transform="translate(5.87 7.72)">GRID</text></g></svg>
