<svg xmlns="http://www.w3.org/2000/svg" viewBox="0 0 261.82 167.66"><defs><style>.cls-1{stroke:#000;stroke-miterlimit:10;stroke-width:0.85px;}.cls-2{fill:#fff;}.cls-3{fill:#ff0;}.cls-4{fill:aqua;}.cls-5{fill:#4d4d4d;}.cls-6{fill:#ed1c24;}.cls-7{fill:#fbb03b;}.cls-8{fill:#0071bc;}.cls-9{fill:gray;}.cls-10{font-size:39.07px;}.cls-10,.cls-11{font-family:Phosphate-Inline, Phosphate;}.cls-11{font-size:32.94px;}</style></defs><title>Lille_logo</title><g id="Layer_6" data-name="Layer 6"><path class="cls-1" d="M261.29,86.14c-.58,14.37-.86,21.55-4.87,29.93-4.91,10.27-11.22,25.81-11.22,25.81a21.41,21.41,0,0,1,.38,6.61C244,157.75,234,162.26,232.48,163c-10.54,4.74-20.76.45-26.7-2-4.16-1.75-7.34-3.14-8.83-6.44-2.09-4.6.45-10,3-15.36,2.35-5,3.53-7.53,6.26-9.08,5.74-3.25,10.43,2.32,16.09-.74,5.81-3.14,7.22-10.86,7.85-14.34.58-3.16,2.23-12.18-2.86-17.33-2.54-2.56-5.33-2.76-16.09-4-14.51-1.68-16.54-4.34-20.07-2.37-3,1.67-2.48,3.57-8.21,14.29-4.46,8.33-4.46,6.57-9.08,15.08-5.12,9.43-5.86,12.92-10.14,14.89-2.29,1-4.49,1.16-8.46,1.37-4.55.24-6.47-.37-11.26-.76s-4,0-15.07.14c-7.56.06-9.17-.25-11.39-.19-1.29,0-2.24.15-2.58.19-6.53.7-12.24,1.31-16.26-.53-2.19-1-3.55-2.57-6.31-7-9.53-15.14-9.45-22.18-17-29.93a29.54,29.54,0,0,0-9.73-7.23c-11.71-5.14-33.91,7.73-33.91,7.73s-1.26,9.19-.38,13.59c.66,3.31,2.9,14.52,10.35,17.21,6.3,2.27,11.17-3.41,15.59-.25,2.13,1.53,1.18,3,4.36,9.6s5.43,7.72,5.11,10.72c-.34,3.28-3.32,5.35-6.73,7.73-3.21,2.25-9.69,6.77-19.2,6.49-8.33-.25-13.82-4-18-6.86-3.21-2.21-6.38-4.45-7.48-8.35-1-3.44.33-5.8.75-8.61-3.24-8.35-9.23-19.82-9.23-19.82S-.61,96.5-.06,76.92A163.88,163.88,0,0,1,4.43,43.25S3.88,27.1,7.67,24.05c1.1-.88,5.61-.25,5.61-.25s4.17-7.71,6.49-9.35c6.63-4.7,20-5.51,31.72-7.14C63.88,5.58,74.88,4.6,74.88,4.6c22.13-1.77,40.39-2,57.35-2,18.83,0,29.48-.16,39.28.5,17.79,1.21,62.84,7,70.45,11.1l6.48,9.85s3.41-.58,5.12.25c3.55,1.73,2.32,9.14,3.24,19.33.6,6.65,1.36,6.15,2.74,15.08A139.21,139.21,0,0,1,261.29,86.14Z"/><path class="cls-2" d="M76.19,46.08c-1,5.43-4.59,8.74-6.77,10.68-1.74,1.54-4,3.15-15.88,7.12C39.81,68.49,37,68.32,34.42,67.18c-.62-.28-4.67-2.18-6-6.17-.69-2.08-.11-4.48,1-9.29.87-3.61,1.2-3.68,2.78-9.38,1.27-4.57,1.16-4.86,1.78-5.7,2-2.74,5.48-2.58,11.6-3.33C58.35,31.75,59.69,29,65.86,30.62c2.19.57,5.86,1.57,8.33,4.95C77.29,39.79,76.41,44.83,76.19,46.08Z"/><path class="cls-2" d="M231.8,48.68c.66,3.75,2.28,12.87-1.82,16.93-8.51,8.43-42.26-4.33-44.2-20-.37-3,0-9.59,4.25-12.85,2.22-1.69,4.82-2,6.86-2.17,3.64-.38,4.67.56,12.25,1.74,4.8.74,4.89.45,7.9,1.12,4.24,1,6.94,1.57,9.29,3.39C230.25,39.91,231.1,44.71,231.8,48.68Z"/><circle class="cls-3" cx="215.71" cy="21.21" r="8.48"/><circle class="cls-3" cx="26.94" cy="25.03" r="8.48"/><circle class="cls-3" cx="46.05" cy="21.21" r="8.48"/><circle class="cls-3" cx="65.2" cy="18.65" r="8.48"/><circle class="cls-4" cx="113.7" cy="119.54" r="8.48"/><circle class="cls-4" cx="147.95" cy="119.18" r="8.48"/><circle class="cls-4" cx="130.99" cy="102.58" r="8.48"/><circle class="cls-3" cx="234.49" cy="25.03" r="8.48"/><circle class="cls-3" cx="196.45" cy="19.08" r="8.48"/><circle cx="65.2" cy="18.65" r="4.24"/><circle cx="113.7" cy="119.54" r="4.24"/><circle cx="147.95" cy="119.54" r="4.24"/><circle cx="130.99" cy="102.58" r="4.24"/><circle cx="234.49" cy="24.82" r="4.24"/><circle cx="215.71" cy="21.21" r="4.24"/><circle cx="196.45" cy="19.08" r="4.24"/><circle cx="26.94" cy="25.03" r="4.24"/><circle cx="46.05" cy="21.21" r="4.24"/><circle class="cls-5" cx="64.14" cy="76.78" r="4.24"/><circle class="cls-5" cx="196.97" cy="76.26" r="4.24"/><circle class="cls-6" cx="176.75" cy="60.9" r="4.24"/><circle class="cls-6" cx="85.05" cy="60.49" r="4.24"/><circle class="cls-7" cx="101.99" cy="15.57" r="2.33"/><circle class="cls-6" cx="123.69" cy="14.85" r="2.33"/><circle class="cls-7" cx="116.44" cy="15.06" r="2.33"/><circle class="cls-7" cx="109.2" cy="15.31" r="2.33"/><circle class="cls-6" cx="137.96" cy="14.85" r="2.33"/><circle class="cls-6" cx="130.94" cy="14.85" r="2.33"/><circle class="cls-8" cx="159.63" cy="15.72" r="2.33"/><circle class="cls-8" cx="152.44" cy="15.34" r="2.33"/><circle class="cls-8" cx="145.28" cy="15.06" r="2.33"/><rect class="cls-9" x="93.65" y="22.89" width="74.5" height="68.04" rx="2.36"/><text class="cls-10" transform="translate(115.12 56.3) scale(1.02 1)">F1</text><text class="cls-11" transform="translate(94.52 82.87)">GRID</text></g></svg>
