<svg xmlns="http://www.w3.org/2000/svg" viewBox="0 0 463.59 288"><defs><style>.cls-1{stroke:#000;stroke-miterlimit:10;stroke-width:1.47px;}.cls-2{fill:#fff;}.cls-3{fill:#ff0;}.cls-4{fill:aqua;}.cls-5{fill:#4d4d4d;}.cls-6{fill:#ed1c24;}.cls-7{fill:#fbb03b;}.cls-8{fill:#0071bc;}.cls-9{fill:gray;}.cls-10{font-size:67.6px;}.cls-10,.cls-11{font-family:Phosphate-Inline, Phosphate;}.cls-11{font-size:57px;}</style></defs><title>Logo</title><g id="Layer_6" data-name="Layer 6"><path class="cls-1" d="M458.5,146.69c-1,24.85-1.49,37.28-8.42,51.77-8.49,17.77-19.42,44.66-19.42,44.66s1.47,6.77.65,11.44c-2.82,16-20,23.82-22.65,25-18.24,8.19-35.93.77-46.2-3.53-7.2-3-12.7-5.43-15.29-11.14-3.6-8,.78-17.31,5.13-26.58,4.07-8.68,6.1-13,10.84-15.7,9.93-5.63,18,4,27.83-1.3,10-5.43,12.49-18.78,13.59-24.81,1-5.46,3.86-21.07-5-30-4.38-4.42-9.22-4.76-27.83-6.9-25.11-2.89-28.63-7.5-34.74-4.1-5.21,2.91-4.28,6.18-14.2,24.73-7.71,14.41-7.71,11.37-15.71,26.1-8.86,16.3-10.14,22.36-17.55,25.76-3.95,1.81-7.76,2-14.64,2.37-7.86.41-11.19-.65-19.48-1.32-8.11-.66-6.9.08-26.07.24-13.08.12-15.87-.42-19.71-.33-2.23.06-3.88.27-4.45.33-11.31,1.22-21.19,2.28-28.15-.91-3.78-1.73-6.13-4.45-10.9-12-16.5-26.2-16.36-38.38-29.34-51.78-3.72-3.83-8.65-8.92-16.83-12.51-20.27-8.89-58.68,13.38-58.68,13.38s-2.17,15.9-.65,23.51c1.14,5.72,5,25.12,17.91,29.77,10.89,3.94,19.32-5.89,27-.43,3.7,2.65,2,5.17,7.55,16.61,5.59,11.6,9.4,13.37,8.85,18.56-.6,5.66-5.75,9.25-11.65,13.37-5.56,3.89-16.77,11.71-33.22,11.22-14.41-.42-23.91-6.95-31.07-11.86-5.57-3.82-11-7.69-13-14.46-1.67-5.94.57-10,1.3-14.88-5.61-14.46-16-34.31-16-34.31S5.34,164.6,6.3,130.72a283.76,283.76,0,0,1,7.77-58.25s-1-27.94,5.61-33.22c1.89-1.53,9.71-.43,9.71-.43s7.2-13.34,11.22-16.18c11.47-8.14,34.53-9.53,54.88-12.36C116.93,7.29,136,5.59,136,5.59c38.3-3.06,69.89-3.43,99.24-3.45,32.58,0,51-.29,68,.86,30.78,2.09,108.74,12.08,121.9,19.2l11.21,17.05s5.89-1,8.85.43c6.14,3,4,15.81,5.61,33.44,1,11.52,2.35,10.66,4.75,26.1A242.59,242.59,0,0,1,458.5,146.69Z"/><path class="cls-2" d="M138.23,77.36c-1.65,9.4-7.94,15.14-11.71,18.48-3,2.67-7,5.45-27.47,12.33-23.76,8-28.7,7.67-33.08,5.7-1.08-.49-8.09-3.77-10.37-10.67-1.19-3.6-.19-7.76,1.8-16.08,1.5-6.23,2.07-6.37,4.81-16.22,2.2-7.9,2-8.42,3.07-9.87,3.51-4.75,9.49-4.46,20.07-5.76,22-2.7,24.34-7.42,35-4.66,3.8,1,10.14,2.73,14.43,8.57C140.14,66.48,138.61,75.2,138.23,77.36Z"/><path class="cls-2" d="M407.48,81.87c1.15,6.48,3.93,22.27-3.16,29.29-14.72,14.59-73.12-7.5-76.47-34.55-.64-5.18,0-16.61,7.36-22.24,3.84-2.93,8.33-3.39,11.87-3.76,6.29-.64,8.07,1,21.18,3,8.32,1.29,8.47.78,13.68,2,7.33,1.66,12,2.71,16.07,5.86C404.8,66.69,406.27,75,407.48,81.87Z"/><circle class="cls-3" cx="379.63" cy="34.34" r="14.67"/><circle class="cls-3" cx="53.02" cy="40.94" r="14.67"/><circle class="cls-3" cx="86.08" cy="34.34" r="14.67"/><circle class="cls-3" cx="119.22" cy="29.9" r="14.67"/><circle class="cls-4" cx="203.13" cy="204.47" r="14.67"/><circle class="cls-4" cx="262.39" cy="203.86" r="14.67"/><circle class="cls-4" cx="233.06" cy="175.13" r="14.67"/><circle class="cls-3" cx="412.14" cy="40.94" r="14.67"/><circle class="cls-3" cx="346.31" cy="30.65" r="14.67"/><circle cx="119.22" cy="29.9" r="7.33"/><circle cx="203.13" cy="204.47" r="7.33"/><circle cx="262.39" cy="204.47" r="7.33"/><circle cx="233.06" cy="175.13" r="7.33"/><circle cx="412.14" cy="40.58" r="7.33"/><circle cx="379.63" cy="34.34" r="7.33"/><circle cx="346.31" cy="30.65" r="7.33"/><circle cx="53.02" cy="40.94" r="7.33"/><circle cx="86.08" cy="34.34" r="7.33"/><circle class="cls-5" cx="117.39" cy="130.48" r="7.33"/><circle class="cls-5" cx="347.22" cy="129.59" r="7.33"/><circle class="cls-6" cx="312.22" cy="103.01" r="7.33"/><circle class="cls-6" cx="153.57" cy="102.3" r="7.33"/><circle class="cls-7" cx="182.87" cy="24.58" r="4.04"/><circle class="cls-6" cx="220.41" cy="23.33" r="4.04"/><circle class="cls-7" cx="207.88" cy="23.7" r="4.04"/><circle class="cls-7" cx="195.35" cy="24.13" r="4.04"/><circle class="cls-6" cx="245.1" cy="23.33" r="4.04"/><circle class="cls-6" cx="232.96" cy="23.33" r="4.04"/><circle class="cls-8" cx="282.61" cy="24.83" r="4.04"/><circle class="cls-8" cx="270.16" cy="24.18" r="4.04"/><circle class="cls-8" cx="257.78" cy="23.69" r="4.04"/><rect class="cls-9" x="168.44" y="37.24" width="128.9" height="117.72" rx="4.09"/><text class="cls-10" transform="translate(205.59 95.05) scale(1.02 1)">F1</text><text class="cls-11" transform="translate(169.95 141.03)">GRID</text></g></svg>
