<svg id="Layer_1" data-name="Layer 1" xmlns="http://www.w3.org/2000/svg" width="145.34mm" height="145.34mm" viewBox="0 0 412 412"><defs><style>.cls-1{fill:#fff;}.cls-2{fill:#10141e;}.cls-3{fill:#1b2334;}.cls-4{fill:#090a11;}.cls-5{fill:#1c4082;}.cls-6{fill:#b21a28;}.cls-7{fill:#313037;}.cls-8{fill:#c5917e;}.cls-9{fill:#293560;}.cls-10{fill:#9b9ca4;}.cls-11{fill:#68463f;}.cls-12{fill:#767984;}.cls-13{fill:#5d606b;}.cls-14{fill:#a2746a;}.cls-15{fill:#434957;}.cls-16{fill:#d7a693;}</style></defs><title>kvyat</title><path class="cls-1" d="M411.9,206.5q0,100.71.1,201.42c0,3.41-.67,4.08-4.09,4.08Q206,411.84,4.09,412C.67,412,0,411.33,0,407.92Q.17,206,0,4.08C0,.67.67,0,4.09,0Q206,.17,407.91,0c3.42,0,4.1.67,4.09,4.08Q411.81,105.29,411.9,206.5ZM89,271.27h0c-1.4.09-2.18,1.07-3,2a8,8,0,0,0-3.86,4.14l0,0a.9.9,0,0,0-.91,1C74,288,71.27,299,71.15,310.78c-.31,3.82-4.45,6.26-3.78,10.44l0,3.06-.12,4.8L67,330.13c-3,7.46-9,13.59-10,22l-.25.18.07.3L56,354.05l0-.05a25.7,25.7,0,0,0-3,8.06c-2.63,6.75-3.08,14.3-7.74,20.32a23.44,23.44,0,0,0-4.54,9.17A2.32,2.32,0,0,0,40,394c-.17.46-.34.91-.5,1.37-1.08,1.84.28,4.31-1.55,6-3.89,2.15-7.64,4.43-8.59,9.5h6.69l3.07,0,22.9,0H91.15l22.82,0h4.11l5.87,0,7.12-.06,11,.07H174c9-.22,18-.75,27,0H325.93l67.95,0c1.09.09,2.39.67,3.08-.6s-.15-2.23-1-3c-1.26-1.21-2.64-2.31-4-3.45-.87-2.56-4-3.21-4.91-5.71,1-.25.81-1.2,1-1.9,1.16-.7,2.11-1.31,1-2.93-1.76-2.55-3.29-5.27-4.92-7.91l-.87-.78c-1.84-3.55-.35-8.46-4.55-11.05-1.72-.1-2.71-1.4-3.92-2.35-3-1.92-.71-6.89-4.76-8.19h0c-.74-2.18-3-3-4.21-4.79a16.35,16.35,0,0,0-4.33-6c-2.44-9.13-5.76-17.82-12.11-25.08-.55-.63-.4-1.87-.58-2.83.68-1,1.89-1.73,1.55-3.22l.29-2.75.18-2a13.25,13.25,0,0,0,.86-7c.06-1,.11-2,.16-3l.21-2c1.27-3.37.49-6.66-.39-9.95l-.61-1.46,0-.33-.28-.19-.73-1.54a30.77,30.77,0,0,0-9.36-12c-5.56-4.09-9.5-10-15.43-13.62l-11.16-5.75c-2.13-3.92-6.19-4.62-9.91-5.8-4.85-1.55-9.94-2.33-14.62-4.46l-8.48-4.8c-2.65-3.4-5.3-6.79-10.21-6.83-2.15-.79-4.29-.82-6.59-2.16-5.26-3.07-6.91-9.37-12.29-11.93-3.45-8.88-10.4-15.95-13.07-25.23l-1-2.71c-2.22-2.53-5-1.74-7.76-1.38-.42-3.22-.84-6.46.76-9.5a8.18,8.18,0,0,0,0-7.83c3.52-1.22,4.75-3.66,4.21-7.29a44.1,44.1,0,0,1-.14-5.87c.93-.29.87-1.12,1-1.85a16.59,16.59,0,0,0,4.39-3.73c5.66-6.41,3.11-14.74,5.44-21.89,1.49-1.51,1.16-3.51.87-5.16a53.59,53.59,0,0,1,.31-19.07l0-1.23a.45.45,0,0,0,.15-.65c1.18-1.65.72-3.46.56-5.25l-.83-1.36.16-.31-.23-.26c0-6.15.39-12.37-3-17.95-.18-2.61-.66-5.11-2.47-7.16q-1-4.5-2-9c-3.52-6.11-6.86-12.35-12.53-16.91-.64-.51-2.8-.66-1.11-2.73,2.16-2.66,1.69-2.72-1.49-4.44-5.65-3.07-13-3.19-16.89-9.41-.49-.77-1.52-.08-2.31-.08-1.82,0-3.8.25-5.43-.36a36.35,36.35,0,0,0-19.87-2c-3.06.56-6.4.24-9.25.85-3.56.76-7.71-1.59-10.3,1-1.92,1.91-3.38,1.24-5.19,1.22-1.35-1.16-1.11,1.26-2.09.91l-2-.65c-1.92,0-4.28-3.16-5.63.8l-2.4-.68c-1-.36-2.36-1.74-2.55.75l-.28,1.18c-1.41,1.91-5.77,2-4.22,5.58,1.27,2.92,1.22,4-2.2,3.62-1.62-.19-2.35.85-2.94,2.12-.38.82,0,1.1.69,1.4,5.07,2.1-.19,3.5-.46,5.23-.07.49-1.24.81-3.17,2,4.82-1,5.2,1.24,5.25,3.79L132,62.8c-2,.73-1.19,2.79-2,4.09-1.17.51-1.06,1.61-1.2,2.59-1.72,1.42-1.85,3.38-1.81,5.39l-2,3.95c-.52.17-.86.47-.71,1.08-.71,1-1.22,2-.41,3.2-.45.5-1.22,1-.07,1.55-.42,2.24-.83,4.48-1.25,6.73-4.77,6.11-1.72,13.19-2.46,19.8-.91,2.23-1.16,4.42.35,6.53l.06,4c-.63,2.43.49,4.71.64,7.07-.51.63-1.27,1.24-.12,2l.09,2c-.09,1.11-.51,2.33.89,3l1.31,1.88,1,2.92c1.69,3.53-.52,7.74,2,11.13l.09,2.85c-.39,1.13-.7,2.25.47,3.15,1.2,6.69,2.15,13.43,4.29,19.92l.3,1.95c-.2.81-.39,1.62.57,2.13l.31,1.91.52,1.4.47,1.6.49,1.44c1.4,5.46,3.16,10.77,6.35,15.49a25.14,25.14,0,0,0,5.83,9.09l.88,1.05c1.74,4.09,1.26,8.56,2.16,12.8a.68.68,0,0,0-.35.83l-.11-.05c-1.27,4.27-2.77,8.49-3.74,12.82-.76,3.41-2.64,4.67-5.91,4.51-1.07-.05-2.33-.71-3.11.68-3.42-1.93-4.82-1.64-6,1.21.17.82.24,1.7,1.14,2.14h-.12c1.08,3.91-2.07,4.72-4.51,5.76-3,1.28-6.42,1.41-9.26,3.2l-2.08.95-1.23.79,0-.15a44.51,44.51,0,0,0-14.64,6.29c-1.31-.27-2.2.45-3,1.29L90.86,270A1.86,1.86,0,0,0,89,271.27Z"/><path class="cls-2" d="M252.09,223.39c5.38,2.56,7,8.86,12.29,11.93,2.3,1.34,4.44,1.37,6.59,2.16.4,1.69-1.09,4.24,1.81,4.8s5.36,2.37,8.4,2l8.49,4.8-3,.34c-11.46-2.88-20.6,1.31-27.66,10-9.44,11.58-15.58,24.79-17.34,39.8-5.72.6-7.44,2.74-6.79,8.67,1.6-.58,1.78-3,3.83-2.86.69,1.37-.37,3.46,1.64,4.34-.88,5.84,1.21,10.68,5.17,14.81,5.72,6,6.53,5.81,9.07-1.66a20.41,20.41,0,0,0,.57-2.82c4.45-5.66,7.16-12.34,10.88-18.43l0,0c1.82-.78,2.48-2.57,3.45-4a82,82,0,0,1,16-17.47c5-4.19,11-6.31,16.44-9.48l1.23-.25,14-.7a3.39,3.39,0,0,0,.71,0c1.46,0,3-.29,4.38.13,5.71,1.77,4.83-1,3.19-4.39,5.95,3.64,9.89,9.53,15.45,13.62a30.77,30.77,0,0,1,9.36,12l.73,1.54.28.19,0,.33c.2.49.41,1,.61,1.46.88,3.29,1.66,6.58.39,9.95l-1.13.05c-1.23-.93-3.08-.65-4.07-2.06,1.42-2,.54-4.05-1.34-4.34-3.5-.55-4.74-3-5.55-5.59-1.7-5.54-5.49-9.22-9.94-12.51-2.32-1.71-3.42-6-6.73-5.21-7.26,1.7-14.5-1.8-22,1.37a43.94,43.94,0,0,0-13.06,8.36c-6,5.52-7.69,14-13,19.63-6.59,7-3.12,17.88.27,24.21.93,1.73,2.25,3.25,3.34,4.9a92.68,92.68,0,0,0,32,29.65c4.36,2.5,8.79,5.31,10.43,10.52s5.32,8.61,9.67,11.53c3.29,2.2,6.34,4.81,9.79,6.71,5.28,2.91,9,8.39,15.37,9.41l.37,0,.35.12c.34,2,.81,3.85,3.37,4.07a2.74,2.74,0,0,1,2.64,2.94h0c-7.52.53-14.11-2.89-20.62-5.65-4.17-1.76-9.6-1.66-12.36-6.31,1.87-.35,4.52,1.07,5.49-1,1.17-2.46-1.73-3.6-3.11-5-4.91-5.11-9.69-10.34-16.53-13.15a11.89,11.89,0,0,1-5-4.67c-2.89-4.67-6.74-7.53-12.24-8-1.07-.1-2.31-1.48-3.16-.19s.41,2.42,1.32,3.36c1.15,1.19,2.8,2.14,3.43,3.56,2.68,6.06,8.94,11.49,3.85,19.12l-2.42-2.08a62.09,62.09,0,0,0-4.38-5.29c-6.31-6.14-12.37-12.5-18.29-19-5.67-6.24-11.87-12-16.94-18.77-.6-.81-1.86-4.71-3.86-.7a6.56,6.56,0,0,0-1.29,6,53.65,53.65,0,0,0,4.32,22.77l.88,4.12c-1.69,2.05-2.55,4.07-.8,6.67.94,1.4,2.41,3,1.29,5-1.47,2.54-3.53.44-5.34.47a1.44,1.44,0,0,0-1.7,1.2c3.82,2.05,8.65,3.26,10.17,8.16,1.27,4.06,2.25,8.22,3.36,12.33h-6c.53-4.83-3-8.24-4.46-12.35-.67-1.84-2.8-1.66-4.42-1.26-6.5,1.61-13.18.74-19.76,1.61-4.72.62-8.83,1.54-11.77,5.33-1.21,1.57-1.87,1.36-3.57.6-7-3.11-14.19-5.9-21.35-8.72-1.14-.45-2.26-.77-2.42-2.12-.22-1.8,1.29-2.24,2.51-2.55a14.46,14.46,0,0,1,3.95-.3c5.84.15,11.73-1.19,17.89,1.36-.36-2.57-2.49-4.07-.44-6,4.85-4.66,11.66-5.07,17.19-8.21.55-.31,1.65.09,2.37.42,1.85.85,3.94,3.71,5.5,1.75s-1.7-3.85-2.65-5.86c-.47-1-1.54-1.72-2.28-2.61a9.94,9.94,0,0,1-2.59-7.55c2.91,1.06,2.24,3.89,3.65,5.41.78.82,1.36,2.24,2.66,1.87,1.49-.42,1.89-2.58,1.55-3.26-2.28-4.55-1.39-9.75-3.2-14.34-.48-1.24-1.06-2.53-2.65-2.66s-1.82,1.21-2.39,2.17c-1.75,3-3.18,6.35-7.67,5.78-.42-.05-1.42.87-1.35,1.1,1.29,4.43-3.82,7.49-2.45,12.1.57,1.91-.54,4.23-2.56,5.91V364.14C218,369,218,366,218,363c0-1.66,0-3.32,0-5,0-1,.78-2.63,1.34-2.33,3.72,2,5-3.13,9.11-1.68-2.65-3.22-7-4.63-3.73-8.7.2-.26-.66-1.4-1.09-2.1-1-1.71-2.18-3.37-1-5.52a1.54,1.54,0,0,0-.47-2.19c-1.11-.58-1.71.3-2.43,1.07-1.81,1.89-1.76,4.16-1.81,6.5,0,1.5-.42,3.09-2,3.72s-2.56-.62-3.32-1.63c-2-2.65-5.45-3.81-7.15-6.82-.71-1.27-1.87-1-3-.4a1.66,1.66,0,0,0-.79,2.45c1.73,4.12,2.6,8.84,5.2,12.28,6.33,8.39,6.73,18,7.1,27.67.07,2-.26,4.29-2.87,4.49-2.85.23-3.77-2.22-3.88-4.28a18.64,18.64,0,0,0-2.15-7c-1.69-3.67-4.17-3.34-6.08-.78-3.23,4.31-5.05,4.69-6.33-1.11a3.19,3.19,0,0,0-3.35-2.49,3.59,3.59,0,0,0-2.72,2,2.28,2.28,0,0,0,.81,3.44c2,1.22,1.57,3.1,1.62,4.88.08,2.39-.52,4.81,2.57,6.26,1.56.73,1.62,2.76,0,4.19-1.5,1.3-2.9,2.73-4.42,4s-1.34,2.42.26,3.06c6.93,2.78,11.71,9.29,19.27,10.95a5.36,5.36,0,0,1,3.34,2.79h-9c-5.94-4.16-12-8.06-19.14-10-1.57-.43-3-1.5-3.94,1-1.12,3-2.59,6-3.92,8.94H142.05c-3.1-3.38-7.13-2.89-11.1-2.61-2.59.19-6.91-4.25-7,2.6l-5.87,0c0-1.14,0-2.29,0-3.44s1.51-2.7-.57-3.29c-1.55-.44-3.41-.72-4.77.33s-.1,2.41.22,3.6c.25.95.65,1.86,1,2.79l-22.82,0L95,403.92c3.31.39,4.06-3.54,7-4,3.1-.54,2.43-2.43.57-3.57-4.22-2.58-9.67-2.66-13.38-6.38l-.08-2a5.63,5.63,0,0,0,2-4c2.14.07,3.82-.47,4-3,1.46-1.94,3.15-3.8,2.49-6.54a1.41,1.41,0,0,1-.1-.88c2,.14,4.16.91,5.87.31,4.48-1.58,4.56,1.11,4.68,4.09h0c-1.42-.27-2.54,3.52-4.29.25-.27-.51-1.46.33-1.56,1.27-.26,2.34,3.17,5.06,5.51,4.45,1.41-.38,2.85-.63,4.27-.94.89,2.6,1.39,5.42,4.09,7l0-.05,0,1c2.19,5.08,5.35,6.54,10.91,5.06,4.12.42,7.25-2.54,11.06-3.19-.19.79-.34,1.59-.59,2.36-.77,2.45-1.79,4.85-2.31,7.34-.36,1.72.55,3.59,2.42,3.63,1.64,0,1.55-1.88,1.44-3.12-.34-3.8,1.71-7.37.94-11.18,0-1.86.13-3.52-2.56-1.75A21.37,21.37,0,0,1,127,394l-3-.05c-1.86-3-1.54-6.18-.65-9.33.48-1.72,1.19-3.28-1.47-3.62-.27-3.61,2.13-7.12,1-10.6-1.32-4,.89-3,3-2.6l.65,3.57c.75-2.66,1.26-4.15,1.58-5.67,1.73-8.19,3.4-16.39,5.13-24.57.29-1.39,1.67-2.95.35-4.1-1.64-1.43-2.79,1.08-4.35,1.16a5.47,5.47,0,0,0-5.41,3.74c-.11.24-.21.49-.32.73l.72-.33,3.82-2.23c2.32,5-.4,9.9-.18,14.86.06,1.43-1.38,2.07-2.83,2.15l-1-1.92c-1-2.65-2-5.31-3.08-7.94-.4-1-1.09-1-1.82-.26-3.25.28-5.5,2.52-8.06,4.14l-12,8c-3.27,1.22-3.4,6.67-8.09,6q.12-3.93.22-7.85c3.2-2.5,3.16-5.63,1.78-9,.15-1.71,1.35-1.83,2.75-2.16,5.7-1.34,11.36-8.61,11.5-14.48-2-.42-4.08,3.13-6.06-.18-1.67-2.82-1.41-5.25,1-7.5a9,9,0,0,0,2.17-2.68c.82-1.89,2.1-4.11-1.29-5l-1-1,.11-2.7h-1.3l.14,2.7,0,0c-1-.14-2.67.48-2.69-1.07,0-2.88-2-1.6-3.29-1.81,4.54-8.51,10.35-16.19,15.87-24.05,0,1,.06,2,.08,3-1.54.91-.91,2.51-1.21,3.81a16.52,16.52,0,0,0-1.45,10,25.8,25.8,0,0,0,1.79-9.77c1.3-1.15.85-2.67.85-4.1,2.06-1.67,2.14-5,5-6l.11.11c.49,4.46-2.3,8.43-1.94,12.88-2.42,2-2.33,5-3.68,7.79,5.89-1,5.89-1,5.52,2.18-3.31,2.28-7.42,2.38-11,4-.41.36-1.31.58-.37,1.31l.36-1.31c2.54-.06,1.69,6.68,6,3a4.11,4.11,0,0,1,.1-.85,1.82,1.82,0,0,1,1.84.87c0,2.72-2.78,4.66-2.38,8.29,3.56-2.64,6.32-5,6.51-9.19l3.79-.85c2.49,1.54,5.54-2.06,8,.95.75.93,2.35,2.05,3.48,1.12s.9-2.86,0-4.14c-2.25-3.39-1.72-7-.76-10.49,1.55-5.69,3.32-11.32,5-17,.86-3,1-6.24,3.34-8.63.54,1.37,1.78,1.9,3,2.48,3.54,1.73,5.66,3.73,1.84,7.39a5.55,5.55,0,0,0-1.75,4.52c.28,2.8-.73,4.43-3.32,5.88-3.21,1.78-5.5,5.42-4.44,8.73,1.38,4.33.48,8.42.71,12.6.09,1.61,0,3.24,1.67,4.53,3.38-10,6.76-19.78,10-29.64,1.36-4.13,3.61-7.81,5.47-11.69.88-1.84,2.57-2.05,4.27-1.67,2.93.67-1.08,2.41.74,3.56,2.37-.93,4.93-2.18,7.82-1.69-2.47,2.47-4.51,5.35-4.87,8.81-.93,8.77-3.61,17.07-6.35,25.34-.83,2.53,1.87,5.55-.43,7a6.54,6.54,0,0,0-2.89,6.75c.54,4.19-2.78,7.13-2.48,11-3.47-2.3-5.72-7-11.52-5.69l5.56,3.69c0,1.46-.37,3.22.75,4.24,4.39,4,2.16,8.53,1.4,13a2.29,2.29,0,0,1-.19.63,7.92,7.92,0,0,0-4.94,4.08l-.54,1c-2,.75-2.23,2.73-3,4.29-1.55,3.23-2.47,6.87-4.49,9.75-1.88,2.69-2.58,4.27.72,6.09,3,1.65,5.08,1.41,6.13-2.14.28,1.07-.06,2.36,1.09,3.13-.21,3.9,2.3,1.86,3.91,1.78a22.25,22.25,0,0,0,3,3.17c1.22.88,2.7,2.54,4.29.8a2.82,2.82,0,0,0-.6-4.64c-2.08-1.35-.78-2.26.07-3.51,2.86-4.24,6.94-1.08,10.36-1.83,2.65-.48,5.07-.94,3.14,3.23-.75,1.63.1,3.92,1.66,4.25,5,1,8.61,4.16,12.39,7.15a1.52,1.52,0,0,0,2.24-.12c.34-.45.59-1.56.36-1.76-3.3-2.81-1.56-8.09-5.54-10.7-2.3-1.51.15-3.56.4-5.36.22-1.53.83-2.41,2.85-2.61,6.31-.65,8.47-4.45,6.19-10.38-.87-2.26-2.93-4.5,1.77-4.92a2.87,2.87,0,0,0,2.21-3.86c-.71-1.57-2.36-.27-3.54.06-4.14,1.14-5.16,3.73-3.46,7.59a18.75,18.75,0,0,1,1.37,4.22c.26,1.5.05,3.07-1.49,3.93-1.72,1-3.18.33-4.5-.93-1.67-1.59-3.37-3.16-5.06-4.74-3.83-2.74-7.26-5.95-10.87-8.91-2.72-2.24-4.62-6.31-9.12-6l-.15-2.29,0-1.59c3.33-14.77,6.68-29.5,11.88-43.8,2.71-7.46,7.87-13.61,10.22-21.16l.23-.42-.23.42-5,1c-.12-1.36.48-2.9-1-3.94q0-3,.1-6c1.7.14,2.52-1.44,3.87-2-.4,6.72,2.36,8.71,9,6.45.31-.11.6-.3.91-.4,4.88-1.61,9.73-3.36,13.84-6.47,3.42-2.58,7.77-1.06,11.23-3.07,4.26-2.47,8.73-4.63,12.74-7.44,7.92-5.53,17.35-9.06,23.27-17.28.61-.85,2.38-1.23,1.23-2.68a2.87,2.87,0,0,0-4.06-.46c-2.51,1.61-5,3.29-7.34,5.12-3.37,2.63-6.61,5.41-9.91,8.13,2.39-5.62,7-8.81,11.51-12.05,1-.71,1.92-1.62,1.19-2.88s-2-.95-3.11-.51a43.21,43.21,0,0,0-15,9.35c-6.12,6-11,13.31-18.11,18.4-4.36,3.11-7.62,5-11,4.73,0-1,.71-1.44,1.42-1.84,8.6-4.89,15.53-11.73,22.36-18.73,5-5.1,9.91-10.19,16-14.16,2.62-1.71,6.13-1.7,9.12-5.06-15.08,3.08-24,13.22-33.74,22.32a65.48,65.48,0,0,1,31.51-26.22c-4.52,1.15-8.43,1.57-10.12-3.81-.08-.26-1.23-.19-1.89-.27L238,202.6a3.34,3.34,0,0,1,.27,4.88c-2.3,2.79-1,6.27-1.45,9.16-.53,3.45,4.88,3.14,7.85,4.18ZM209,287.26l.42.49c0-.11,0-.25,0-.3a1.16,1.16,0,0,0-.37-.18c-.79-1.14,2.52-2.07.11-3.39-1.38-.76-2.38-2.21-4.31-1.09a7.18,7.18,0,0,0-3.35,3.36l-1.42.12c-.13-5.78-.25-5.81-8.06-1.9l5,2.82c1,2.61,3.34,1.94,5.32,2.14-.92,2.11-1.84,4.21-2.75,6.32-.31.73-.84,1.77.37,2,4,.59,8.06,1.08,12.12,1.38a3.1,3.1,0,0,0,2.42-1.42c.65-1.3-.74-2.12-1.59-2.69-2.73-1.83-5.93-3-7.88-5.88l0-1.77C206.33,285.42,207.65,287.84,209,287.26Zm-36.91,5.11c2.29-.08,4.7-1.29,5.07,1.79,2.7-1,4.48,4.17,7.48,1.1,1.92,2,3.94-2,5.21-.25,1.13,1.58,1.92,2.83,3.78,1.82,1.35-.73,3.12-1.77,2.7-3.66-.55-2.41-2.82-1.5-4.5-1.94-3-.79-7.56,2-9-3.45-.07-.28-4.29-2.36-4.34,1.52,0,1.74-.57,1.42-1.61,1.33C175.46,290.51,173.91,290.15,172.09,292.37Zm58.57,27.54c-3.53,2.7-6.21,6-10.35,7.56-1.11.42-1.91,1.79-2.74,2.81a1.57,1.57,0,0,0,0,2.24c1,.87,1.88.46,2.41-.54,1.11-2.11,2.24-3.85,4.86-1.74.14.11.79-.24,1.07-.51,3-2.9,3-2.91,4.76,1.6C233.86,327.53,228.27,323.81,230.66,319.91Zm-99.6,6.58a11,11,0,0,0,0,2.52c.55,1.9.1,4.87,2.93,4.89,3.17,0,1.57-2.93,2-4.59.17-.63.2-1.3.41-1.91.54-1.61,1.08-3.19-.79-4.34-1-.61-2.06-1.12-3.22-.43C130.69,323.67,131.12,325.45,131.06,326.49Zm102-44.11c-.17-1.23.08-2.35-1.11-2.79a1.93,1.93,0,0,0-2.49,1.05,8,8,0,0,1-4,3.46c-1.34.66-2.93,1.35-1.68,3.26,1,1.5,2.68,2.57,4.22,1.62A12.34,12.34,0,0,0,233,282.38Zm-11.88,11.91c-.89,1.65-4.8-.08-4.74,3.12,0,1.32,2.59,3,4.55,3.16,2.32.12,3.58-1.78,3.83-3.85C225,294.83,223.5,294.27,221.16,294.29Zm-50.5,108.16c-.06-1.57-1.16-1.58-2.11-1.41-1.74.32-3.21,1.27-3.14,3.18.05,1.12,1.2,2.37,2.29,2.23C169.88,406.17,169.75,403.8,170.66,402.45Zm101.69-156.8c.28.12.62.4.81.32s.26-.51.39-.78c-.28-.12-.62-.4-.82-.32S272.47,245.38,272.35,245.65Zm-144,134.86c-.06-.1-.1-.26-.18-.29s-.26,0-.39,0l.25.45Z"/><path class="cls-3" d="M356.19,400.81c-6.41-1-10.09-6.5-15.37-9.41-3.45-1.9-6.5-4.51-9.79-6.71-4.35-2.92-8-6.29-9.67-11.53s-6.07-8-10.43-10.52a92.68,92.68,0,0,1-32-29.65c-1.09-1.65-2.41-3.17-3.34-4.9-3.39-6.33-6.86-17.2-.27-24.21,5.32-5.67,7-14.11,13-19.63a43.94,43.94,0,0,1,13.06-8.36c7.48-3.17,14.72.33,22-1.37,3.31-.78,4.41,3.5,6.73,5.21,4.45,3.29,8.24,7,9.94,12.51.81,2.61,2.05,5,5.55,5.59,1.88.29,2.76,2.3,1.34,4.34-1.93.21-3.06.94-2,3.08a6,6,0,0,1,.82,4.08c-1.55-.72-1.67-3.14-3.79-3.17,0-.31-.07-.62-.09-.93,1.86-3.22-1.23-5.1-2.25-7.38-4.42-9.88-12-15.31-23-16.89-4.78-.68-9.13.58-13.68.32a5.24,5.24,0,0,0-1,0c-2.22.43-6.21-1.16-6.2,1.66,0,2.59,4,.79,6.17,1.34,2.65,2.23,5.31.37,8,0-.32,2.51-2.29,1.81-3.83,2-3.75.39-7.6.17-11.45,1.43,2,2,4.24,1.44,6.34,1.57.12.8.21,1.66,1.24,1.79,1.33.16,1.58-.77,1.71-1.79l2,0c1,3.16,2,1.56,3,0,2,.28,4.4-3,6,.74a35.63,35.63,0,0,1-3.27,1.9c-3.14,1.4-1.29,2.37.24,3.39-1.51,6.48,3.49-.28,4.05,2-.11,1.54.08,3.66,1.3,4,4.75,1.46,8.43,5.74,13.87,5.32,3.77-.3,2,1.19.83,2.51-2.17.64-4.14,1.43-3.21,4.34l-1.92-.25c-2-3.29-4.21-5.94-8.06-2-1.63,1.43.41,2.7.18,4.07-3.24-.28-4.44-1.85-3.14-5-.19-3.84-2.34-5.21-6-4.72-5.59,1-6.08,1.62-3.5,6.29a38.39,38.39,0,0,1,2,5.36c.45,1.19,2.28,3,2.62,2,1.68-5,4-1,6-.79,1.56.17,3-.15,3-2.21,3.36,1.64,6.57,2.33,9.14-1.35a2,2,0,0,0,.89.28c3.94,4.12,7.31,4.16,9.66.1l1.23,0c.48,3.82,1.85,6.95,6.06,7.92a2,2,0,0,0,1.95,1c.18,1,0,2.2.58,2.83,6.35,7.26,9.67,15.95,12.11,25.08-3,.52,2.12,4.15-1.47,4.11-3.39-.05-4.14,1.84-4,5.18-.92-1-1.54-1.43-1.71-2-.52-1.62-1.25-2.7-3.18-2-1.41.47-1.41,1.65-1.44,2.82-.06,2,1.44,1.61,2.69,1.93,3.74,1,7.42,2,11.27.61l6.42.18h0c1.35,2.86-.42,7.53,4.76,8.19,1.21.95,2.2,2.25,3.92,2.35-.47,1.49,1.79,4-1.66,4.37l-1-1.48A3.1,3.1,0,0,0,374,374c-1.45-1.22-3.4-1.39-4.46-.18s.78,2.51,1.49,3.68a10.35,10.35,0,0,0,1.71,1.73c1.47,2.54,2.33,5.9,6.48,5,2.88,1.75,5.48,3.71,5.92,7.4a17.56,17.56,0,0,1-4.38-2.83c-5.56-4.4-9.51-4.32-13.06-.12-2.44,3.55-1.89,6.91.65,10.14,2.51,4.66,6.84,6.7,11.66,8l3,.41c1.46,1,3.28.76,3.35-.8.08-1.72-2-1.38-3.41-1.43l0-1.08c2.77-.55,5.51-.93,7.77,1.38l3.2,5.48-67.95,0c-.82-3.53-1.36-7.4-4.62-9.48-2.82-1.8-4.43-4.45-6.27-6.93s-2.19-5.64.17-7.64,4,.89,5.74,2.27a3,3,0,0,0,3,2l6,5c2.76,4.65,8.19,4.55,12.36,6.31,6.51,2.76,13.1,6.18,20.62,5.65l.41.24-.42-.23a2.74,2.74,0,0,0-2.64-2.94c-2.56-.22-3-2.07-3.37-4.07,3.11-1.13.54-3.26.86-4.88,1-.46,1.57.05,2.05.78.79,1.23,1.87,3.33,3.21,1.71a9.16,9.16,0,0,0,1.56-7c-.1-.75-.7-1.88-1.61-1.42-1.85,1-.63,3-1.18,4.45-.08.22-.33.37-.62.68-1.38-1.41-1.49-3.89-3.79-4.36,0-.59.57-1.53-.32-1.64-3.5-.42-7-.5-10.52,2.26,7-1.68,7.19,3.76,9,7.45A14.75,14.75,0,0,1,356.19,400.81Zm-16.05-47.18a.92.92,0,0,0,1.55-.38,1.57,1.57,0,0,0-.87-2.34l-.56-3.77.72-.85c1.12-.24,2.31-.83,3.07.64a19.79,19.79,0,0,1-.37,2.43c-.27,1.08-1.08,2.64.42,2.85a2.43,2.43,0,0,0,2.51-2.74,15.44,15.44,0,0,0-.66-2.34c.18-2.84-1.71-3.47-3.86-3.08-1.59.3-4.33.05-4.15,2.51S335.93,352.41,340.14,353.63Zm1,24.29c1,7,8.16,4.65,11.74,7.72l1.07-1.45c3.51,1,7,2.08,8-3.83,2.79,3.48,6,3.65,9.41,2.13-.93-3.94-6.22-2.12-7.45-5.65-1.71-2.87-4.61-3.76-7.51-5-7.78-3.2-16.59-3.38-23.84-8-5.82-3.73-13.67-4.57-17.69-10.62-2.94-4.44-7.6-4.73-11.44-6.93a2.22,2.22,0,0,0-3.1.7c-.62,1.16.34,1.74,1.15,2.37A112.51,112.51,0,0,0,318,360.15c10.6,5.59,22.07,9,33.42,12.58,1.82.58,4.1.6,4.56,3.17-3.06.9-3.77,3.32-4,6.08-2-.13-2.36-1.35-2.13-3,1-2.36.34-4.1-2-5.17-2.5-1.13-4.85-.14-7,.89C339,375.59,340.74,376.84,341.16,377.92Zm-11-27.57c-.21-.22-.42-.44-.64-.65,1.33-2.34,5-.46,6.2-3.45a10.22,10.22,0,0,0-8,2c-2.42,1.75-1.83,4.4-1.77,6.84,0,.89.56,1.94,1.38,1.68,2.91-.9,6.37-.51,9.05-3.24-2.67-1.25-5,1.59-7.53-.27,2.26-1.82,5.54-.74,7.44-3.9Zm-24.81-13.26c-2.07-6.63-6.79-10-10.32-14.11-.86-1-1.83-.31-2.3.74-1.09,2.43-1.49,4.61,1.27,6.47A72.15,72.15,0,0,0,305.38,337.09ZM350,334.26a8.21,8.21,0,0,1-3.92,3.08c-1.73.6-3.54,2.3-2.56,4.11a6.5,6.5,0,0,0,6.19,3.44c1.14-.08,1.43-1.35.66-1.68-4.83-2.12-3-3.41.31-5C351.09,337.93,351.43,335.71,350,334.26Zm-8.41,6.33c.61-3.6-.37-7.63,4.91-8-2.79-2.72-5.09-3.1-7.24-.37C336.63,335.47,338.05,338,341.54,340.59Zm6,19.45c-1.37-2.86-3.68-1.53-5.77-1.06a2,2,0,0,0-1.64,3c.54,1.49.71,3.6,2.82,3.61s4.21-.21,4.77-2.78c-1.88-1.75-4.07,3.33-4.86-.14C342.07,359,346.41,362.25,347.59,360Z"/><path class="cls-4" d="M102.08,315.2l1,1a4.58,4.58,0,0,1-.87,3.27c-5,5.62-11.35,9.6-17.68,13.5-1.17.72-3.26-.55-4.23,1.66-1.65,3.76-4.15,7.18-4.27,11.51-1.53,2.26-1.74,4.14,1.37,5.23a2.71,2.71,0,0,1,1.68,2.72,1.53,1.53,0,0,0-.78,1.92c0,.12.25.17.38.26.14-.73.28-1.45.41-2.17,3.66.47,5-1.53,5.06-4.79,5.3.4,3.3,4.12,1.92,5.88-2,2.54-2,5.09-2.06,7.87-1.48-.6-2.31,3.15-4.09.6-2.87-4.11-3.73-.95-4.68,1.36a13.46,13.46,0,0,0-.82,9.22c.6,1.93-.4,2.7-1.33,3.79-2.48,1.52-3.11,4.19-4,6.65-3.09,8.49-2.18,18.06-7,26.08l-22.9,0c-1.05-5.17,2.25-10.24.37-15.43L40,394a1.86,1.86,0,0,0,.78-2.43,23.44,23.44,0,0,1,4.54-9.17c4.66-6,5.11-13.57,7.74-20.32,2-2.3,3.37-4.86,3-8.06l0,.05.89-1.48-.07-.3.25-.18c1.84,1.11.24,3.52,1.78,5.08.72-2.94-1-6.41,1.92-8.11,4.17-2.44,5.6-6.87,8.18-10.39,1.76-2.4,4.41-6.26-.89-8.55l-.76-1,.12-4.8,3.89.94a.34.34,0,0,1-.12.47c.43,1.17-1.27,2.81.8,3.62a8,8,0,0,0,5.07-7.37,3.69,3.69,0,0,0,.27-.79H78c1,.52,1-.54,1.35-1,5.59-7,10.15-14.53,12.77-23.14.21-.25.61-.48.62-.74.72-14.1,9-23.53,19.35-31.88,2.18-1.77,5.17-3.33,5-6.94,2.84-1.79,6.27-1.92,9.26-3.2,2.44-1,5.59-1.85,4.51-5.76,6.69,0,13.72-1.68,19.24,4,.89.91,2.12.71,3.21.08l8.73.1c-1.8,2.61,1.31,8.74-6,7.21,4.36,5.51,13.05,5.74,16.65.93,1.57-2.09,1.57-2.09,3.3-.54l-4,7c-1.35.53-2.17,2.11-3.87,2-.74-3-2.81-.29-4.09-1-3-2.87-6.46-2.13-9.92-1-2.23.87-4.46,3.36-6.53-.39-.52-.93-1.78-.69-2.42.32-.82,1.29-1.67,2.68.74,3.27-.91,1.94.74,2.16,1.85,2.56,1.4.5,2.12-.27,2.3-1.64l1-.09c1,.68,1.42,2.2,3,1.95,3-.13,5.61,3.71,8.93,1a7.35,7.35,0,0,0,5,1c1.45,1,.85,2.58,1,3.94-1.09.08-2.28-.14-3,1-2.89-.49-5.45.76-7.82,1.69-1.82-1.15,2.19-2.89-.74-3.56-1.7-.38-3.39-.17-4.27,1.67-1.86,3.88-4.11,7.56-5.47,11.69-3.25,9.86-6.63,19.68-10,29.64-1.69-1.29-1.58-2.92-1.67-4.53-.23-4.18.67-8.27-.71-12.6-1.06-3.31,1.23-6.95,4.44-8.73,2.59-1.45,3.6-3.08,3.32-5.88a5.55,5.55,0,0,1,1.75-4.52c3.82-3.66,1.7-5.66-1.84-7.39-1.2-.58-2.44-1.11-3-2.48l0-1c.49-2-1.67-3.75-.5-5.72.84-1.41,2.29-2.89,1-4.43-1.67-2-3.65.24-5.52.16a7.74,7.74,0,0,0-.09-1.45c-.1-.41-.47-1.11-.8-.28-1.41,3.5-5.67,4.33-7.15,7.72-6.07,2.64-9,8.38-12.91,13.11L111,288.24c-5.52,7.86-11.33,15.54-15.87,24.05,1,2.46.83,5.14,1.59,8,.82-2.5,4.07-2.44,4.39-5.14l0,0Zm-2-18.25c4.21-5.15,7.48-11,11.57-16.19a2.55,2.55,0,0,0-.89-3.88c-1.8-.93-2.86.79-3.54,1.89C103.76,284.3,100.54,290,100.06,297ZM49.17,379.84c-3.19,5.7-3.82,10.84-2.31,16.07Zm10.13-15.7c.51-1,1.28-2.06,0-3.33Zm1.29,4.16c.14-.28.36-.54.35-.78s-.25-.49-.38-.74c-.14.25-.37.5-.37.75S60.43,368,60.59,368.3Z"/><path class="cls-4" d="M143,36.29l2.4.68c2.2,2,3.7-.93,5.63-.8l2,.65c1.64,1.85,1.88.5,2.09-.91,1.81,0,3.27.69,5.19-1.22,2.59-2.59,6.74-.24,10.3-1,2.85-.61,6.19-.29,9.25-.85a36.35,36.35,0,0,1,19.87,2c1.63.61,3.61.36,5.43.36.79,0,1.82-.69,2.31.08,3.92,6.22,11.24,6.34,16.89,9.41,3.18,1.72,3.65,1.78,1.49,4.44-1.69,2.07.47,2.22,1.11,2.73,5.67,4.56,9,10.8,12.53,16.91-3,1.74-5.53,3.88-6.86,7.22-.45,1.15-.21,2,.89,2.4s1.38-.52,1.51-1.38.17-2,1.5-2.38c1,2.1,2.5,3.4,5,3.12,1.81,2.05,2.29,4.55,2.47,7.16A3,3,0,0,0,242,87.51c-.1,3.38-2.41,5-5.06,6.32l-1-3c1.75-.17,2.2-1.24,1.77-2.75-.1-.34-.75-.83-1-.77-1.91.48-1.71,2.09-1.74,3.55a2.91,2.91,0,0,1-.13.93l-1.84-1,0,0c-.76-3.86-.24-8.12-3.44-11.35.38,4.55,1.92,9,.4,13.5l-2-.17c.2-2.21-3.27-1.71-3-4,.64-4.69-2.78-5.21-6.07-5.85v0c-.41-4.48,0-9.42-5.87-11L213,70.84c-.07-3,.06-5.89-4.33-6-3.18-.07-4,1.36-3.64,4.09l-2,.11-6-4.13A6.65,6.65,0,0,1,196,61c.06-5-1.57-9.62-2.93-14.32-.31-1.06,0-2.66-1.67-2.38s-2.74,2.17-1.77,3.28c2.51,2.87.34,5.61.41,8.39-2.2-1-2-5.19-5.77-3.68.42-1.93,1.75-1.93,2.69-2.51,1.7-1,.35-2-.4-2.68s-1.57-2.59-2.43-.61c-1.23,2.88-6.49,4-4.19,8.09,1,1.76,1.8,2.41.52,4.38a3.91,3.91,0,0,0,.58,5,5.37,5.37,0,0,1,.84,4c-5.2.67-3.61,4.63-3.78,7.74l-3,.19c-.71-1.15-2.08-.66-3-1.22.49-2.92-5-3.14-3-6.7,1.15.17,2.28-3,3.35-.19,1,2.56,3.33,1.07,3.72.7,1.77-1.69-1.51-2.76-.95-4.52a2.79,2.79,0,0,0-.7-4.2c-1.73-1-1,2-2.34,2.23l-4-1.2c-.83-.84-.85-2.83-2.64-2.26-1.36.43-.68,1.83-.89,2.84-.64,3,.17,5.71.5,8.54l-2-.06c-1.19-3.37-4.08-4.51-7.34-5.66,1.85,2.48,1,4.15-.68,6.11-1.43,1.7-3.77,2.86-4,5.48-3,.51-6.18-.44-9,1.26-8.44.39-12.67,5-13.86,15.11a.82.82,0,0,1-.21.73c-2.36.38-1.94,2-1.58,3.57-.16,1.13-.33,2.26-.5,3.39l-1.8,0c-2.08-2.52-.09-5.77-1.52-8.4.42-2.25.83-4.49,1.25-6.73.65-.49.65-1,.07-1.55-.81-1.18-.3-2.21.41-3.2a.83.83,0,0,0,.71-1.08l2-3.95c4.11.63.32,3.43,1.35,4.91,5.25-3.31,5.33-3.88,1.36-8.58a8.76,8.76,0,0,1-.9-1.72c.14-1,0-2.08,1.2-2.59,2.88-.29,1.79-2.5,2-4.09l1.09-.87c2.31-3.79,1.41-8.49,4.05-12.55,1.28-.49,1.34,3.15,3.81,1.58-4.24-4-1.48-8.4-.81-12.74.09-.39.18-.79.28-1.18C141.33,37.06,142.32,37.3,143,36.29Zm34.58,12.87c-.54-.8-.45-2.28-1.95-2.31-.17,0-.51,1-.52,1.61,0,1.16,0,2.45,1.74,2.24C177.55,50.61,177.82,50,177.53,49.16ZM187.7,40c.32-.38.81-.72.78-1a1.22,1.22,0,0,0-.87-.79c-.64-.09-1.29.22-1.08,1C186.61,39.51,187.21,39.67,187.7,40Zm37.23,34.4-.44-.75c-.14.25-.39.5-.39.75s.25.5.39.75Z"/><path class="cls-3" d="M210,410.75a5.36,5.36,0,0,0-3.34-2.79c-7.56-1.66-12.34-8.17-19.27-10.95-1.6-.64-1.69-1.85-.26-3.06s2.92-2.71,4.42-4c1.66-1.43,1.6-3.46,0-4.19-3.09-1.45-2.49-3.87-2.57-6.26-.05-1.78.38-3.66-1.62-4.88a2.28,2.28,0,0,1-.81-3.44,3.59,3.59,0,0,1,2.72-2,3.19,3.19,0,0,1,3.35,2.49c1.28,5.8,3.1,5.42,6.33,1.11,1.91-2.56,4.39-2.89,6.08.78a18.64,18.64,0,0,1,2.15,7c.11,2.06,1,4.51,3.88,4.28,2.61-.2,2.94-2.5,2.87-4.49-.37-9.7-.77-19.28-7.1-27.67-2.6-3.44-3.47-8.16-5.2-12.28a1.66,1.66,0,0,1,.79-2.45c1.16-.65,2.32-.87,3,.4,1.7,3,5.12,4.17,7.15,6.82.76,1,1.79,2.25,3.32,1.63s2-2.22,2-3.72c0-2.34,0-4.61,1.81-6.5.72-.77,1.32-1.65,2.43-1.07a1.54,1.54,0,0,1,.47,2.19c-1.15,2.15,0,3.81,1,5.52.43.7,1.29,1.84,1.09,2.1-3.25,4.07,1.08,5.48,3.73,8.7-4.15-1.45-5.39,3.71-9.11,1.68-.56-.3-1.32,1.28-1.34,2.33,0,1.66,0,3.32,0,5,0,3,0,6,4.27,1.14v14.17c2-1.68,3.13-4,2.56-5.91-1.37-4.61,3.74-7.67,2.45-12.1-.07-.23.93-1.15,1.35-1.1,4.49.57,5.92-2.78,7.67-5.78.57-1,.89-2.29,2.39-2.17s2.17,1.42,2.65,2.66c1.81,4.59.92,9.79,3.2,14.34.34.68-.06,2.84-1.55,3.26-1.3.37-1.88-1.05-2.66-1.87-1.41-1.52-.74-4.35-3.65-5.41a9.94,9.94,0,0,0,2.59,7.55c.74.89,1.81,1.6,2.28,2.61.95,2,4.17,3.95,2.65,5.86s-3.65-.9-5.5-1.75c-.72-.33-1.82-.73-2.37-.42-5.53,3.14-12.34,3.55-17.19,8.21-2,2,.08,3.48.44,6-6.16-2.55-12.05-1.21-17.89-1.36a14.46,14.46,0,0,0-3.95.3c-1.22.31-2.73.75-2.51,2.55.16,1.35,1.28,1.67,2.42,2.12,7.16,2.82,14.33,5.61,21.35,8.72,1.7.76,2.36,1,3.57-.6,2.94-3.79,7.05-4.71,11.77-5.33,6.58-.87,13.26,0,19.76-1.61,1.62-.4,3.75-.58,4.42,1.26,1.5,4.11,5,7.52,4.46,12.35Zm22.64-5.64c13.57,4.63,17.84,4.7,23.13,1.09Z"/><path class="cls-5" d="M258.08,344.07c2-4,3.26-.11,3.86.7,5.07,6.8,11.27,12.53,16.94,18.77,5.92,6.52,12,12.88,18.29,19a60.15,60.15,0,0,1,4.37,5.29c.85,7.78,3.16,15.26,4.74,22.89H294.7c-.83-3.95-4.09-6.85-4.67-10.9-.4-7-3.91-12.33-8.47-17.66-1.08,1.94.21,4.5-2.58,4.78-.08-.28-.14-.56-.2-.85a1.74,1.74,0,0,0-1.49-2.33L276.9,382c.18-1.42.19-2.75-1.57-3.24-.65-1.86,0-4-1.44-5.72-2.64-11.65-1.59-10.59-8.69-10.18a1.92,1.92,0,0,1-.9-1.87c1.19-1.45.11-1.81-1-2.15Q260.66,351.48,258.08,344.07Z"/><path class="cls-2" d="M73.06,378c.93-1.09,1.93-1.86,1.33-3.79a13.46,13.46,0,0,1,.82-9.22c1-2.31,1.81-5.47,4.68-1.36,1.78,2.55,2.61-1.2,4.09-.6,3.07.53,1.35-4.08,4.15-3.85,0,2.56.08,5.06,2.79,6.45,4,1.61,1.83,5.05,2.32,7.7l-.36,1.41c-1.49.62-2.9,1.31-2.65,3.32a1.27,1.27,0,0,0-.08.9c-1.57,1.33-3.19,2.62-3.06,5-1.37,2.35-1.25,5.26-3.38,7.46-1.15,1.2-1.72,3.82,1.31,4.65,1.26,4,6,2.39,8.15,5-2.11.54.77,6.68-4.44,3.9-.83-.44-.61.86-.65,1.36-.1,1.47-.07,2.94-.09,4.42H65.09c-.2-2.85-.5-5.28,4-3.94,4.8,1.42,6.62-.81,6-6.08-.32-2.58-4.61-6.09,1.44-7.55a5.93,5.93,0,0,0-.19-1.82C75.14,386.93,74.86,382.28,73.06,378Z"/><path class="cls-4" d="M321,389c-1.71-1.38-3.36-4.28-5.74-2.27s-1.94,5.25-.17,7.64,3.45,5.13,6.27,6.93c3.26,2.08,3.8,6,4.62,9.48H312c-.45-7.78-5.17-13.94-8-20.82,5.09-7.63-1.17-13.06-3.85-19.12-.63-1.42-2.28-2.37-3.43-3.56-.91-.94-2.25-2-1.32-3.36s2.09.09,3.16.19c5.5.51,9.35,3.37,12.24,8a11.89,11.89,0,0,0,5,4.67c6.84,2.81,11.62,8,16.53,13.15,1.38,1.43,4.28,2.57,3.11,5-1,2-3.62.63-5.49,1l-6-5C323.84,388.94,322.4,389,321,389Z"/><path class="cls-6" d="M162,252.75l-8.73-.09c-1.31-1.64-1.14-3,.74-4.09l4.3-.4c1.88-.4,4-.25,5.36-2l3.51-.92a70.15,70.15,0,0,0,28.12-12.72c1.89-1.66,4.46-1.89,6.55-3.33,9.4-6.5,17.18-14.7,24.95-22.93,1.62-.21,2.24-1.55,3.06-2.66,3.44-2,5-5.86,8.17-8.18l1,2.7c.55,1.68-.47,3-1,4.45l-14.9,15.89-.07.06-1,.91A171.12,171.12,0,0,1,186,244c-5.53,2.87-11.8,4-17,7.53C166.49,250.82,164.3,252.07,162,252.75Z"/><path class="cls-4" d="M269,410.74c-1.11-4.11-2.09-8.27-3.36-12.33-1.52-4.9-6.35-6.11-10.17-8.16a1.44,1.44,0,0,1,1.7-1.2c1.81,0,3.87,2.07,5.34-.47,1.12-1.93-.35-3.57-1.29-5-1.75-2.6-.89-4.62.8-6.67,4.31,4.46,8.58,9,12.93,13.38,1.69,1.71,3.07,4,6.06,3.61,2.52,3.92,3.64,8.65,6.95,12.12l2,4.7Z"/><path class="cls-3" d="M286.65,249.45l3-.34c4.67,2.13,9.76,2.91,14.61,4.46,3.72,1.18,7.78,1.88,9.91,5.8.41,3.61,4.45,5.94,3.57,10a3.39,3.39,0,0,1-.71,0c-1.15-2.3-3.3-1.92-5.22-1.81-3,.19-5.91.61-8.86.93-1.36-2.83-6.82-3-5.05-7.87l4.39-1.9c-7.06-1.65-12.69.94-18.44,2.63-2,.59-4,1.93-6,0,1.6-3-.76-3.48-2.69-3.95-1.39-.34-3.06.07-3.2-2.07C276.43,252.26,282,251.91,286.65,249.45Z"/><path class="cls-7" d="M146.83,213.62l-.88-1.05c.49-4.36-1.17-8.2-3-12-2.63-3.63-2.12-8.52-4.88-12.09-.05-.29-.1-.59-.14-.88a2.41,2.41,0,0,0,.09-.84,3.74,3.74,0,0,1,.8-.33c1.68-.75,4.76,6.55,5.27-.91l4.89.08c-.31,2.24,1.2,5-2.12,6.37-1,.41-.31,1.46.24,2.05,2.42,2.59,2.09,6.06,3.08,9.1,1.17,3.57-1.42,9.11,4.83,10.34l1,.32c.93,3.56,3.87,3.72,6.68,3.63,5.75-.19,11.49-.66,17.23-.93,1.74-.09,3.82-.5,4.18,2.19l-1,1.08c-3.33-1-4.9,3.26-8.08,2.67-4.32-.54-8.12,1.18-11.78,3s-5.9,4.59-5.23,9l-.21.15c-1.7-1.29-1.22-3.7-2.65-5.13-.6-3.29.81-6.81-1.14-10-2,.54-2.94-.47-3.71-2.13S148.74,214.16,146.83,213.62Z"/><path class="cls-3" d="M99.09,265.39a44.51,44.51,0,0,1,14.64-6.29c.12,1.2-.73,1.71-1.57,2.29a65,65,0,0,0-24.89,31.89c-2.56,6-4.49,12.27-7.94,17.88-3.06.43-2.66,3.63-4.23,5.26,0,1.63-1.32,2.41-2.25,3.44l-1.13-.29.29-7.24c.82-3.87-.54-8.44,3.73-11.62-.76,5.38-.76,5.38,2.05,7.52,2.77-4.56.46-10.56,4.22-14.83,4.13-4.2,3.37-10.73,7.21-15.07a3.25,3.25,0,0,0,1.89-2.57c.62-.71,1.46-1.32,1-2.46l0,0c1.94.49,3.17-.43,4-2l0,0C98.75,270.22,99,267.84,99.09,265.39Z"/><path class="cls-8" d="M245.93,136.11c-2.33,7.15.22,15.48-5.44,21.89a16.59,16.59,0,0,1-4.39,3.73l-.12-.11c0-6.39-.83-7.24-6.8-7.22-2.82,0-2.43-1.88-1.73-3.33a13.18,13.18,0,0,0,1.52-7.54l1-2.81a4.11,4.11,0,0,1,4.17,1.71c0,.39-.09.78-.14,1.17-3.55,1.83-1.86,6.25-4.77,8.39,6.38-.39,4.47-4.93,4.81-8.34,4.26,1.35,2.71,4.27,1.91,7l-.2.43.23-.4c2.59-.17,2.9-2.07,3.08-4.06,3.57-1.34,2.1-4.24,1.3-6.13-.5-1.17-1.27.59-1.65,1.37l-3.23-1.18-.11-1.47c3.54-.3,4.39-2,2.47-5l2-1.7,1-.87,0-.15c2.8.1,1.66,2.94,2.69,4.75l2.36-4.48Z"/><path class="cls-3" d="M73.06,378c1.8,4.27,2.08,8.92,3.25,13.35a5.93,5.93,0,0,1,.19,1.82c-6,1.46-1.76,5-1.44,7.55.65,5.27-1.17,7.5-6,6.08-4.5-1.34-4.2,1.09-4,3.94H62c4.84-8,3.93-17.59,7-26.08C70,382.2,70.58,379.53,73.06,378Z"/><path class="cls-9" d="M82,293.4c-3.76,4.27-1.45,10.27-4.22,14.83-2.81-2.14-2.81-2.14-2.05-7.52-4.27,3.18-2.91,7.75-3.72,11.62l-.87-1.55C71.27,299,74,288,81.26,278.45l.91-1,0,0,1.86.64c-.29,2.17-3.81,3.42-1.79,6.25C82.18,287.36,82.09,290.38,82,293.4Z"/><path class="cls-10" d="M128,92.8a.82.82,0,0,0,.21-.73c4.05-1.12,2.39,2,2.76,3.67a17.75,17.75,0,0,0-.59,8v3c-.45,1.77-2.4,3-1.74,5.2a47.66,47.66,0,0,0-.79,10.73c-.09.12-.28.28-.25.35a5.06,5.06,0,0,0,.43.7h0q-.22,7-.47,14a11,11,0,0,0,1.63,10c-.09.94-.18,1.88-.26,2.83l-2.63,1.07c-2.48-3.39-.27-7.6-2-11.13.86-.86.66-1.9.51-2.94l.24-10.83q-.08-8.52-.14-17c.31-3.32,1.36-6.57,1-10,.17-1.13.34-2.26.5-3.4A3.07,3.07,0,0,0,128,92.8Z"/><path class="cls-7" d="M135.77,245.21c.78-1.39,2-.73,3.11-.68,3.27.16,5.15-1.1,5.91-4.51,1-4.33,2.47-8.55,3.74-12.81,1.16,3.47.78,7.49,3.59,10.39,1.67-.31.16-2.74,2.16-2.79,1.15,1.11,1.5,3.13,3.54,3.64v-3.89l.21-.15,1.77.09a10.24,10.24,0,0,0,2.34,4.74c-.47,2.13,2.4,3.26,1.67,5.47-5.53.78-9.66-2.9-15.38-6l3.74,7.47-2.12.13-3.77-5c-.18,3.46.69,5.14,3.66,5.14.87,3.83-1.85,1.65-2.75,1.4C143.41,246.84,139.73,245.47,135.77,245.21Z"/><path class="cls-7" d="M238,202.6c.57-1.44,1.59-2.77,1-4.45,2.67,9.29,9.62,16.36,13.07,25.24l-7.44-2.57c-3-1-8.38-.73-7.85-4.18.45-2.89-.85-6.37,1.45-9.16A3.34,3.34,0,0,0,238,202.6Z"/><path class="cls-7" d="M174,410.74c1.33-3,2.8-5.9,3.92-8.94.93-2.53,2.37-1.46,3.94-1,7.12,1.93,13.2,5.83,19.14,10C192,410,183,410.52,174,410.74Z"/><path class="cls-11" d="M87.27,293.28a65,65,0,0,1,24.89-31.89c.84-.58,1.69-1.09,1.57-2.29l0,.15,1.23-.79,2.08-.95c.15,3.61-2.84,5.17-5,6.94-10.3,8.35-18.63,17.78-19.35,31.88,0,.26-.41.49-.62.74C91.26,294.81,89.43,293.84,87.27,293.28Z"/><path class="cls-12" d="M367.65,388.65c3.55-4.2,7.5-4.28,13.06.12a17.25,17.25,0,0,0,4.38,2.82c1.11,1.43,1.31,3.48,3,4.5-.22.7,0,1.65-1,1.9-2.09.14-3.39,2.76-5.82,1.85-.47-2.3-.93-4.6-1.4-6.91a1.17,1.17,0,0,0,.38-.08c.07,0,.08-.17.12-.26l-.45.4c-3-.71-5,2.87-8,1.92A8.31,8.31,0,0,0,367.65,388.65Z"/><path class="cls-13" d="M138.11,188.48c2.76,3.57,2.25,8.46,4.88,12.09a6,6,0,0,1-2.87,2.91c-3.19-4.72-5-10-6.35-15.49-.17-.48-.33-1-.49-1.44l-.47-1.61c-.17-.46-.34-.92-.52-1.39l-.31-1.91c.34-.85,1.39-1.89-.57-2.13l-.3-1.95c1.54-1.46,1.26-3.45.69-5-.78-2,.31-2.95,1.39-4.1,1.32,1.44.88,3.9,2.87,4.95,0,1.66.41,3.53-.21,4.93-1.64,3.69-1.29,5.36,2.25,7.15l0,0v1.26a2.41,2.41,0,0,1-.09.84c-.61.27-1.05.61-.52,1.32C137.46,188.93,137.88,188.63,138.11,188.48Z"/><path class="cls-3" d="M68.05,330.12c5.3,2.29,2.65,6.15.89,8.55-2.58,3.52-4,7.95-8.18,10.39-2.9,1.7-1.2,5.17-1.92,8.11-1.54-1.56.06-4-1.78-5.08,1-8.37,7-14.5,10-22Z"/><path class="cls-13" d="M157.82,234.56v3.89c-2-.51-2.39-2.53-3.54-3.64-2,.05-.49,2.48-2.16,2.79-2.81-2.9-2.43-6.92-3.59-10.39l.11,0c.88,0,1.09-.21.35-.83-.9-4.24-.42-8.71-2.16-12.8,1.91.54,2.75,2.15,3.49,3.73s1.75,2.67,3.71,2.13c-.14,3.38-2,7,1.14,10C156.6,230.86,156.12,233.27,157.82,234.56Z"/><path class="cls-2" d="M237,93.83c2.65-1.34,5-2.94,5.06-6.32a3,3,0,0,1,1.89-2.64c3.41,5.58,3.05,11.8,3,17.95-.56-.28-1.62-.62-1.6-.84.41-4-4-.94-4.66-3.22-.5,1.06-.94,2.15-1.53,3.15-.22.38-.76.58-1.15.86l0,0a5.73,5.73,0,0,1-.23-.7c.15-.93.13-1.79-.86-2.29Q236.95,96.82,237,93.83Z"/><path class="cls-3" d="M304,389.93c2.82,6.88,7.54,13,8,20.82h-5.69c-1.57-7.63-3.88-15.11-4.73-22.89Z"/><path class="cls-14" d="M245.93,136.11V131.8l-2.36,4.48c-1-1.81.11-4.65-2.69-4.75-.1-1.44,2.37-1.9,1.66-3.22-1.88-3.49.07-7.08-.65-10.54,1.77-2,2.1-4.64,2.91-7,.63-1.85,1.45-1.2,2.48-.74a.47.47,0,0,1-.15.66c-.72.4-.81.8,0,1.22A53.59,53.59,0,0,0,246.8,131C247.09,132.6,247.42,134.6,245.93,136.11Z"/><path class="cls-7" d="M140.12,38.22c-.67,4.34-3.43,8.75.81,12.74-2.47,1.57-2.53-2.07-3.81-1.58-2.64,4.06-1.74,8.76-4.05,12.55,0-2.55-.43-4.8-5.25-3.79,1.93-1.16,3.1-1.48,3.17-2,.27-1.73,5.53-3.13.46-5.23-.7-.3-1.07-.58-.69-1.4.59-1.27,1.32-2.31,2.94-2.12,3.42.39,3.47-.7,2.2-3.62C134.35,40.23,138.71,40.13,140.12,38.22Z"/><path class="cls-13" d="M247.28,110c-1-.46-1.85-1.11-2.48.74-.81,2.39-1.14,5-2.91,7l-.93-1c.77-1.88,2.55-4-1-5-.27-2.46,1.13-5.38-1.95-7.07v-1.92c.39-.28.93-.48,1.15-.86.59-1,1-2.09,1.53-3.15.68,2.28,5.07-.77,4.66,3.22,0,.22,1,.56,1.6.84l.23.26-.16.31.83,1.36C248,106.54,248.46,108.35,247.28,110Z"/><path class="cls-4" d="M345.77,309.33a6,6,0,0,0-.82-4.08c-1.1-2.14,0-2.87,2-3.08,1,1.41,2.84,1.13,4.07,2.06a2,2,0,0,0,.92,2l-.16,3c-.76,2.26-2.48,4.4-.86,7l-.18,2a2.09,2.09,0,0,0-.29,2.75c.34,1.49-.87,2.23-1.55,3.22a2,2,0,0,1-1.95-1c0-1.91-.09-3.82-.14-5.73C346.44,314.71,346.1,312,345.77,309.33Z"/><path class="cls-10" d="M363.67,362.69c-3.85,1.43-7.53.35-11.27-.61-1.25-.32-2.75.08-2.69-1.93,0-1.17,0-2.35,1.44-2.82,1.93-.66,2.66.42,3.18,2,.17.55.79,1,1.71,2-.1-3.34.65-5.23,4-5.18,3.59,0-1.52-3.59,1.47-4.11a16.35,16.35,0,0,1,4.33,6C361.1,357.69,365.41,361.64,363.67,362.69Z"/><path class="cls-11" d="M135.77,245.21c4,.26,7.64,1.63,11.42,2.67.9.25,3.62,2.43,2.75-1.4l.11-.14,2.12-.13-.1.12,2,2.24c-1.88,1.07-2.05,2.45-.74,4.09-1.09.62-2.32.82-3.21-.09-5.52-5.7-12.55-4-19.24-4H131c0-.9,0-1.82-1.14-2.14C131,243.57,132.35,243.28,135.77,245.21Z"/><path class="cls-13" d="M388.13,396.09c-1.73-1-1.93-3.07-3-4.5-.44-3.68-3-5.64-5.92-7.39.71-2.59-5.28-3-2.06-6.41,3.45-.36,1.19-2.88,1.66-4.37,4.2,2.59,2.71,7.5,4.55,11.05-.67.51-.5,1,.05,1.49.05,0,.54-.46.82-.71,1.63,2.64,3.16,5.36,4.92,7.91C390.24,394.78,389.29,395.39,388.13,396.09Z"/><path class="cls-12" d="M133.19,168.49c-1.08,1.16-2.17,2.08-1.39,4.11.57,1.51.85,3.5-.69,5-2.14-6.49-3.09-13.23-4.29-19.92h1.46c3.28-.65,3.37,2.4,4.69,4C133,163.93,133.12,166.21,133.19,168.49Z"/><path class="cls-6" d="M317.76,269.38c.88-4.07-3.16-6.4-3.57-10l11.15,5.75c1.63,3.4,2.51,6.16-3.2,4.39C320.8,269.09,319.22,269.4,317.76,269.38Z"/><path class="cls-13" d="M122.56,91.38c1.43,2.63-.56,5.88,1.52,8.4l-1.26,8a3.14,3.14,0,0,0-1.8,3l-.92.39C120.84,104.57,117.79,97.49,122.56,91.38Z"/><path class="cls-7" d="M235.1,163.58a44.1,44.1,0,0,0,.14,5.87c.54,3.63-.69,6.07-4.21,7.29-1.63-1.36-.61-3.37-1.24-5,.18-1.44.37-2.88.55-4.32,1.07-1,.46-2.38.73-3.56C232.43,164,233.66,162.37,235.1,163.58Z"/><path class="cls-12" d="M82,293.4c.08-3,.17-6,.25-9.07,2.92-1.15,3.11-4.05,3.34-6.36.19-1.81-1-.31-1.55.11l-1.86-.64a8,8,0,0,1,3.86-4.14c.7,1.24,1.92.91,3,1h0c-.43,1.36-1.87,2.77.17,4C85.38,282.67,86.14,289.2,82,293.4Z"/><path class="cls-15" d="M121,110.79a3.14,3.14,0,0,1,1.8-3l2.09,2q.06,8.5.14,17c-1.89-1.35-.91-5.27-4.54-5.06l-.06-4,.77-.85c2.66-2.1,2.23-4.11-.19-6.06Z"/><path class="cls-7" d="M36.06,410.81H29.37c.95-5.07,4.7-7.35,8.59-9.5C38.76,404.76,36.74,407.65,36.06,410.81Z"/><path class="cls-13" d="M120.51,121.68c3.63-.21,2.65,3.71,4.54,5.06q-.12,5.42-.23,10.83l-1.5,0L122,135.71c1.54-1.55,1.28-2.56-.89-3l-.09-2c1-.6,1.09-1.26.12-2C121,126.39,119.88,124.11,120.51,121.68Z"/><path class="cls-2" d="M238.05,195.45c-3.13,2.32-4.73,6.17-8.17,8.18a9.64,9.64,0,0,0-.29-5.19l.21-1.89V195.5l.54-1.24-.05-.19C233,193.71,235.83,192.92,238.05,195.45Z"/><path class="cls-2" d="M241.45,77.71c-2.49.28-4-1-5-3.12-1.33.35-1.35,1.4-1.5,2.38s-.39,1.77-1.51,1.38-1.34-1.25-.89-2.4c1.33-3.34,3.87-5.48,6.86-7.22Q240.44,73.22,241.45,77.71Z"/><path class="cls-10" d="M229.79,171.76c.63,1.61-.39,3.62,1.24,5a8.18,8.18,0,0,1,0,7.83c-1.6,3-1.18,6.28-.76,9.5l.05.18c-1.85-1.64-1.15-3.87-1.4-5.9-.37-2.95,1.09-6.1-1-8.86C226.17,176.35,227.41,173.92,229.79,171.76Z"/><path class="cls-13" d="M381.28,399.84c2.43.91,3.73-1.71,5.82-1.85.94,2.5,4,3.15,4.91,5.71-.45.53-.89,1.07-1.33,1.6-2.26-2.31-5-1.93-7.77-1.38-.32-1.1-2.33-.8-2-2.42Z"/><path class="cls-3" d="M281.18,244.31c-3,.34-5.56-1.48-8.4-2s-1.41-3.11-1.81-4.8C275.88,237.52,278.53,240.91,281.18,244.31Z"/><path class="cls-15" d="M114,410.77c-.33-.93-.73-1.84-1-2.79-.32-1.19-1.58-2.55-.22-3.6s3.22-.77,4.77-.33c2.08.59.57,2.15.57,3.29s0,2.3,0,3.44Z"/><path class="cls-3" d="M289.94,410.75l-2-4.7c1.37-1.15,1.11-2.57.57-4-.61-1.56.25-2,1.53-2.23.58,4,3.84,6.95,4.67,10.9Z"/><path class="cls-15" d="M88,410.76c0-1.48,0-2.95.09-4.42,0-.5-.18-1.8.65-1.36,5.21,2.78,2.33-3.36,4.44-3.9,2.07,0,1.78,1.53,1.82,2.84l-3.84,6.83Z"/><path class="cls-15" d="M140.12,203.48a6,6,0,0,0,2.87-2.91c1.79,3.8,3.45,7.64,3,12A25.14,25.14,0,0,1,140.12,203.48Z"/><path class="cls-13" d="M133,161.65c-1.32-1.62-1.41-4.67-4.69-4-.32-1.25,0-2.85-1.93-3.14l-.09-2.85,2.63-1.07a36.78,36.78,0,0,1,4.42,8.45C133.63,160,134.05,160.9,133,161.65Z"/><path class="cls-7" d="M128.81,69.48a8.76,8.76,0,0,0,.9,1.72c4,4.7,3.89,5.27-1.36,8.58-1-1.48,2.76-4.28-1.35-4.91C127,72.86,127.09,70.9,128.81,69.48Z"/><path class="cls-15" d="M71.15,310.78l.87,1.55c-.1,2.41-.2,4.83-.29,7.23a2.64,2.64,0,0,0-.4.35l-4,1.31C66.7,317,70.84,314.6,71.15,310.78Z"/><path class="cls-15" d="M131,408.13c4-.28,8-.77,11.1,2.61l-11-.07Z"/><path class="cls-7" d="M90.86,270l5.19-3.29c0,1.56,0,3.11,0,4.66l0,0c-1.59.19-3.11.54-4,2l0,0-1.1.9-1.93.11h0l0-3.05h0C90,271.35,90.71,271.08,90.86,270Z"/><path class="cls-13" d="M363.67,362.69c1.74-1.05-2.57-5,2.21-4.6,1.18,1.79,3.47,2.61,4.21,4.78Z"/><path class="cls-13" d="M131,408.13l.12,2.54-7.12.06C124,403.88,128.36,408.32,131,408.13Z"/><path class="cls-15" d="M36.06,410.81c.68-3.16,2.7-6.05,1.9-9.5,1.83-1.65.47-4.12,1.55-6,1.87,5.19-1.43,10.26-.38,15.43Z"/><path class="cls-15" d="M390.68,405.3c.44-.53.88-1.07,1.33-1.6,1.33,1.14,2.71,2.24,4,3.45.83.8,1.63,1.85,1,3s-2,.69-3.08.6Z"/><path class="cls-13" d="M374.85,371.07c-5.18-.66-3.41-5.33-4.76-8.19C374.14,364.18,371.85,369.15,374.85,371.07Z"/><path class="cls-3" d="M67.37,321.22l4-1.3,0,5.3-3.89-.94Z"/><path class="cls-8" d="M235.1,163.58c-1.44-1.21-2.67.38-4,.3-1-.39-2.47.1-3.09-1.3,2.48-1.85,5.35-.54,8-1l.12.11C236,162.46,236,163.29,235.1,163.58Z"/><path class="cls-7" d="M151,36.17c-1.93-.13-3.43,2.8-5.63.8C146.7,33,149.06,36.13,151,36.17Z"/><path class="cls-12" d="M96,271.34c0-1.55,0-3.1,0-4.66.84-.84,1.73-1.56,3-1.29C99,267.84,98.75,270.22,96,271.34Z"/><path class="cls-12" d="M121.22,116.86l-.77.85c-1.51-2.11-1.26-4.3-.35-6.53l.92-.39h0Q121.12,113.83,121.22,116.86Z"/><path class="cls-3" d="M56,354c.42,3.2-.9,5.76-3,8.06A25.7,25.7,0,0,1,56,354Z"/><path class="cls-3" d="M350.88,316.17c-1.62-2.56.1-4.7.86-7A13.25,13.25,0,0,1,350.88,316.17Z"/><path class="cls-13" d="M89,271.26l0,3.05c-1.08-.1-2.3.23-3-1C86.84,272.33,87.62,271.35,89,271.26Z"/><path class="cls-7" d="M132,62.8c-.18,1.59.91,3.8-2,4.09C130.79,65.59,130,63.53,132,62.8Z"/><path class="cls-7" d="M143,36.29c-.63,1-1.62.77-2.55.75C140.59,34.55,141.92,35.93,143,36.29Z"/><path class="cls-10" d="M126.35,154.49c1.89.29,1.61,1.89,1.93,3.14h-1.46C125.65,156.74,126,155.62,126.35,154.49Z"/><path class="cls-12" d="M121.12,132.7c2.17.45,2.43,1.46.89,3C120.61,135,121,133.81,121.12,132.7Z"/><path class="cls-7" d="M155.05,35.91c-.21,1.41-.45,2.76-2.09.91C153.94,37.17,153.7,34.75,155.05,35.91Z"/><path class="cls-12" d="M121.15,128.75c1,.71.88,1.37-.12,2C119.88,130,120.64,129.38,121.15,128.75Z"/><path class="cls-12" d="M123.32,137.59l1.5,0c.14,1,.34,2.08-.52,2.94C124,139.54,123.65,138.56,123.32,137.59Z"/><path class="cls-3" d="M351.9,306.21a2,2,0,0,1-.92-2l1.13-.05Z"/><path class="cls-15" d="M123.88,83.1c.58.55.58,1.06-.07,1.55C122.66,84.08,123.43,83.6,123.88,83.1Z"/><path class="cls-12" d="M131.41,179.51c2,.24.91,1.28.57,2.13C131,181.13,131.21,180.32,131.41,179.51Z"/><path class="cls-4" d="M129.82,246.42c1.12.32,1.12,1.24,1.14,2.14C130.06,248.12,130,247.24,129.82,246.42Z"/><path class="cls-3" d="M350.41,320.93a2.09,2.09,0,0,1,.29-2.75C350.6,319.1,350.5,320,350.41,320.93Z"/><path class="cls-15" d="M40.79,391.55A1.86,1.86,0,0,1,40,394,2.32,2.32,0,0,1,40.79,391.55Z"/><path class="cls-13" d="M90.86,270c-.15,1.11-.88,1.38-1.86,1.3A1.86,1.86,0,0,1,90.86,270Z"/><path class="cls-12" d="M132.29,183.55c.18.47.35.93.52,1.39C132.64,184.48,132.47,184,132.29,183.55Z"/><path class="cls-12" d="M133.28,186.55c.16.48.32,1,.49,1.44C133.6,187.51,133.44,187,133.28,186.55Z"/><path class="cls-12" d="M82.17,277.46l-.91,1A.9.9,0,0,1,82.17,277.46Z"/><path class="cls-15" d="M68.05,330.12H67c.09-.35.17-.7.26-1.05Z"/><path class="cls-3" d="M56.88,352.57,56,354.05Z"/><path class="cls-3" d="M350.87,292.25l-.73-1.54Z"/><path class="cls-3" d="M351.72,294.23c-.2-.48-.41-1-.61-1.46C351.32,293.26,351.52,293.75,351.72,294.23Z"/><path class="cls-13" d="M247.11,111.88c-.79-.42-.7-.82,0-1.22C247.12,111.06,247.12,111.47,247.11,111.88Z"/><path class="cls-7" d="M149,226.42c.74.62.53.86-.35.83A.68.68,0,0,1,149,226.42Z"/><path class="cls-2" d="M247.84,104.75l-.83-1.36Z"/><path class="cls-3" d="M115,258.46l-1.23.79Z"/><path class="cls-15" d="M125,78.82a.83.83,0,0,1-.71,1.08C124.14,79.29,124.48,79,125,78.82Z"/><path class="cls-3" d="M169,251.56c5.18-3.55,11.45-4.66,17-7.53a171.12,171.12,0,0,0,36-24.57l1-.91.07-.06c.66.08,1.81,0,1.89.27,1.69,5.38,5.6,5,10.12,3.81a65.48,65.48,0,0,0-31.51,26.22c9.7-9.1,18.66-19.24,33.74-22.32-3,3.36-6.5,3.35-9.12,5.06-6.06,4-11,9.06-16,14.16-6.83,7-13.76,13.84-22.36,18.73-.71.4-1.47.83-1.42,1.84,3.35.22,6.61-1.62,11-4.73,7.15-5.09,12-12.36,18.11-18.4a43.21,43.21,0,0,1,15-9.35c1.11-.44,2.41-.73,3.11.51s-.19,2.17-1.19,2.88c-4.54,3.24-9.12,6.43-11.51,12.05,3.3-2.72,6.54-5.5,9.91-8.13,2.35-1.83,4.83-3.51,7.34-5.12a2.87,2.87,0,0,1,4.06.46c1.15,1.45-.62,1.83-1.23,2.68-5.92,8.22-15.35,11.75-23.27,17.28-4,2.81-8.48,5-12.74,7.44-3.46,2-7.81.49-11.23,3.07-4.11,3.11-9,4.86-13.84,6.47-.31.1-.6.29-.91.4-6.63,2.26-9.39.27-9-6.45l4-7c2.86-1.6,4.06-4.93,3.23-7.13-.75-2-4.09-.72-6.28,0a10.77,10.77,0,0,1-2.37.72C168.74,254.12,169.16,252.62,169,251.56Zm21.62-3.39c-6.25,3.07-9.95,8.11-9.91,12.93C184.78,257.06,187,252.1,190.64,248.17ZM206.36,239c-3.69,2.19-6.88,4.86-8.66,8.88A22,22,0,0,0,206.36,239Zm-23,28.45a1.86,1.86,0,0,0,1.52,1.66c.68.22,1.45.12,1.58-.65.19-1.08-.9-1.22-1.57-1.6A.94.94,0,0,0,183.39,267.44Z"/><path class="cls-9" d="M297.92,260.59c-1.77,4.83,3.69,5,5.05,7.87l.12,1.58-1.23.26a4.5,4.5,0,0,0-4.72-.33c-8.7,4.82-17.36,9.86-23.19,18.13-2.92,4.16-8.12,7.12-7.94,13.18l0,0c-1.86-.22-2.51,1.1-3.33,2.41-2.87,4.61-5.85,9.16-8.79,13.74-4.19-2.53-7.26-5.74-6.78-11.11,1,.17,2.18,1.51,2.7-.42a1.93,1.93,0,0,0-1.83-2.72c2.16-9.55,4.15-19.18,8.15-28.17,3.51-7.89,7.27-15.75,15.84-19.65.14,2.14,1.81,1.73,3.2,2.07,1.93.47,4.29,1,2.69,3.95-2.73-1.56-4.31-.58-5.76,2.05-5.15,9.32-11.85,18-10.46,29.69.16,1.33-1.44,3.26.39,3.92,2,.73,3.18-1.07,3.95-2.8l-.06,0a9,9,0,0,0,3.67-5.09c2.19-7.87,6.72-13.12,14.88-15.11,2.56-.63,4.95-2,7.67-3.11-6.11-5.29-6.12-5.31,1.16-8.61C294.81,261.67,296.38,261.17,297.92,260.59Z"/><path class="cls-6" d="M272,255.34c-8.57,3.9-12.33,11.76-15.84,19.65-4,9-6,18.62-8.15,28.17-1.19.8-1.05,2-.87,3.14-.48,5.37,2.59,8.58,6.78,11.1a2,2,0,0,0,1.24,2.29,20.41,20.41,0,0,1-.57,2.82c-2.54,7.47-3.35,7.63-9.07,1.66-4-4.13-6-9-5.17-14.81l1.32-10.15c1.76-15,7.9-28.22,17.34-39.8,7.06-8.65,16.2-12.84,27.66-10C282,251.91,276.43,252.26,272,255.34Z"/><path class="cls-15" d="M152,347.13c4.5-.3,6.4,3.77,9.12,6,3.61,3,7,6.17,10.87,8.91-1.42,3.23-6.51,4-5.86,8.6-3.9.36-4.22,3.59-5.13,6.35-3.42.75-7.5-2.41-10.36,1.83-.85,1.25-2.15,2.16-.07,3.51a2.82,2.82,0,0,1,.6,4.64c-1.59,1.74-3.07.08-4.29-.8a22.25,22.25,0,0,1-3-3.17c2.25-2.3,5.16-5.14,4.68-8-.95-5.49-.05-10.68.44-16C151.89,355.55,154.6,352,152,347.13Z"/><path class="cls-3" d="M140,274.31l0,1c-2.37,2.39-2.48,5.65-3.34,8.63-1.65,5.66-3.42,11.29-5,17-1,3.53-1.49,7.1.76,10.49.85,1.28,1.16,3.14,0,4.14s-2.73-.19-3.48-1.12c-2.45-3-5.5.59-8-.95.4-1.78,2.86-3.3,1.29-5.26-1.85-2.31-3.67,0-5.49.56-.16.05-.47-.37-.72-.57.37-3.15.37-3.15-5.52-2.18,1.35-2.76,1.26-5.78,3.68-7.79,5.43.24,5.86.87,3.83,6.12,1.71-.66,4.25-.41,3.44-3-.63-2,.84-3.5.4-5.27,1.93-3.51,4.84-6.56,5.2-10.82l0,.07c1.09-.66,1.46-1.33,0-2,.33-.61.66-1.22,1-1.83.61-1.43,1.91-1.09,3.05-1.17l0,0c-.25,2.12-.49,4.23-.9,7.79,2-3.18,2.91-5.15,2.69-7.52,2.77-1.14,3.11-3.92,4.21-6.19Zm-10.58,15.32.19-.64c-.11,0-.32.06-.33.1A1.92,1.92,0,0,0,129.45,289.63Zm-6.08,10.1.22.16,0-.26Z"/><path class="cls-3" d="M88.13,359.19c-2.8-.23-1.08,4.38-4.15,3.85,0-2.78.08-5.33,2.06-7.87,1.38-1.76,3.38-5.48-1.93-5.89-1.6-4,1.61-5.55,4-7.15,3.23-2.12,6.17-4.46,8.16-7.76.75-1.25,2-3.29-.81-3.77s-14.07,6.93-14.94,9.74c-.53,1.7-.36,3.62-.92,5.31-.75,2.24-2.75-2.51-3.63.47.12-4.33,2.62-7.75,4.27-11.51,1-2.21,3.06-.94,4.23-1.66,6.33-3.9,12.65-7.88,17.68-13.5a4.58,4.58,0,0,0,.87-3.27c3.39.9,2.11,3.12,1.29,5a9,9,0,0,1-2.17,2.68c-2.42,2.25-2.68,4.68-1,7.5,2,3.31,4.06-.24,6.06.18-.14,5.87-5.8,13.14-11.5,14.48-1.4.33-2.6.45-2.75,2.16-1.17.62-1.86-2.56-2.91-.57-.61,1.15-2.39,3.31-.11,4.18,4,1.53.1,3,.26,4.4Z"/><path class="cls-13" d="M161,377c.91-2.76,1.23-6,5.13-6.35-.65-4.63,4.44-5.37,5.86-8.6,1.69,1.58,3.39,3.15,5.06,4.74,1.32,1.26,2.78,1.89,4.5.93,1.54-.86,1.75-2.43,1.49-3.93a18.75,18.75,0,0,0-1.37-4.22c-1.7-3.86-.68-6.45,3.46-7.59,1.18-.33,2.83-1.63,3.54-.06a2.87,2.87,0,0,1-2.21,3.86c-4.7.42-2.64,2.66-1.77,4.92,2.28,5.93.12,9.73-6.19,10.38-2,.2-2.63,1.08-2.85,2.61-.25,1.8-2.7,3.85-.4,5.36,4,2.61,2.24,7.89,5.54,10.7.23.2,0,1.31-.36,1.76a1.52,1.52,0,0,1-2.24.12c-3.78-3-7.38-6.12-12.39-7.15-1.56-.33-2.41-2.62-1.66-4.25C166.1,376.06,163.68,376.52,161,377Zm3.33-3c.15.24.25.61.44.67s.51-.17.77-.27l-.59-.92Z"/><path class="cls-15" d="M125.84,367.75c-2.08-.39-4.29-1.43-3,2.6,1.15,3.48-1.25,7-1,10.6-2.4,1.79-5.29.67-7.88,1.32-.18-3.65,1.88-6.43,3.84-9.84-2.54,1.76-4.34-1.69-6.72-.25-1.5-1.25-.92-3-1.1-4.57-.63-5.57,1.34-11,1-16.53,2.56-1.62,4.81-3.86,8.06-4.14-1,4.78-2.52,9.51-2,14.51.09,1,0,2.12,1.28,2.33s1.41-1,1.86-1.85c1.18-2.3,2.51-4.53,3.78-6.79l1,1.92C126.07,360.56,126,364.15,125.84,367.75Z"/><path class="cls-3" d="M166,280.28c.72-1.17,1.91-.95,3-1l5-1h0c-2.35,7.55-7.51,13.7-10.22,21.16-5.2,14.3-8.55,29-11.88,43.8L149,339.14c-.3-3.87,3-6.81,2.48-11a6.54,6.54,0,0,1,2.89-6.75c2.3-1.41-.4-4.43.43-7,2.74-8.27,5.42-16.57,6.35-25.34C161.49,285.63,163.53,282.75,166,280.28Z"/><path class="cls-3" d="M281,393.93c-3,.43-4.37-1.9-6.06-3.61-4.35-4.42-8.62-8.92-12.93-13.38-.29-1.37-.59-2.75-.88-4.12.7,0,1.6-.27,1.43-1-1.78-7.31-2.93-14.78-5.75-21.81a6.56,6.56,0,0,1,1.29-6q2.6,7.4,5.18,14.8c-.19,1,0,1.79,1,2.15a1.92,1.92,0,0,0,.9,1.87c.42,5.5,4.18,8.16,8.69,10.18,1.4,1.68.79,3.86,1.43,5.72A2.56,2.56,0,0,0,276.9,382l.39,1.76a1.66,1.66,0,0,0,1.49,2.33c.06.29.12.57.2.85C278.55,389.6,280.86,391.46,281,393.93Z"/><path class="cls-7" d="M111,351.08c.34,5.55-1.63,11-1,16.53.18,1.58-.4,3.32,1.1,4.57.22,2.55-.82,5.24.77,7.66A3.55,3.55,0,0,0,112,383c-1.42.31-2.86.56-4.27.94-2.34.61-5.77-2.11-5.51-4.45.1-.94,1.29-1.78,1.56-1.27,1.75,3.27,2.87-.52,4.29-.25l.36,1.31.37-.25L108,378c-.12-3-.2-5.67-4.68-4.09-1.71.6-3.9-.17-5.87-.31.16-1.24.75-2.55-.42-3.64.71-3.62,2.31-7.07,2-10.88Zm-6,11.84-1.27-.13c-.55,2.11-1.18,4.2-1.6,6.34-.16.86-.33,2.21,1,2.36,1.49.18,1.83-1.13,1.88-2.3C105.05,367.1,105,365,105,362.92Z"/><path class="cls-15" d="M138.88,378.1c-1,3.55-3.14,3.79-6.13,2.14-3.3-1.82-2.6-3.4-.72-6.09,2-2.88,2.94-6.52,4.49-9.75.75-1.56,1-3.54,3-4.29C141.13,366.17,143,372.23,138.88,378.1Z"/><path class="cls-3" d="M95,403.92c0-1.31.25-2.84-1.82-2.84-2.13-2.62-6.89-1-8.15-5a8.88,8.88,0,0,0,4.12-6.13c3.71,3.72,9.16,3.8,13.38,6.38,1.86,1.14,2.53,3-.57,3.57C99.05,400.38,98.3,404.31,95,403.92Z"/><path class="cls-13" d="M172.09,292.37c1.82-2.22,3.37-1.86,4.84-1.74,1,.09,1.58.41,1.61-1.33.05-3.88,4.27-1.8,4.34-1.52,1.39,5.46,5.93,2.66,9,3.45,1.68.44,3.95-.47,4.5,1.94.42,1.89-1.35,2.93-2.7,3.66-1.86,1-2.65-.24-3.78-1.82-1.27-1.77-3.29,2.21-5.21.25-3,3.07-4.78-2.14-7.48-1.1C176.79,291.08,174.38,292.29,172.09,292.37Z"/><path class="cls-4" d="M125.84,367.75c.16-3.6.23-7.19-.84-10.69,1.45-.08,2.89-.72,2.83-2.15-.22-5,2.5-9.89.18-14.86.4-.64.79-1.28,1.19-1.91,1.56-.08,2.71-2.59,4.35-1.16,1.32,1.15-.06,2.71-.35,4.1-1.73,8.18-3.4,16.38-5.13,24.57-.32,1.52-.83,3-1.58,5.67Z"/><path class="cls-5" d="M266,301.28c-.18-6.06,5-9,7.94-13.18,5.83-8.27,14.49-13.31,23.19-18.13a4.5,4.5,0,0,1,4.72.33c-5.47,3.16-11.48,5.28-16.44,9.47a82,82,0,0,0-16,17.47C268.49,298.71,267.83,300.5,266,301.28Z"/><path class="cls-12" d="M138.88,378.1c4.09-5.87,2.25-11.93.62-18l.54-1c2.2-.74,2.91,1.67,4.94,2.44V355a2,2,0,0,0,.18-.63c3.71-1,3,1.48,2.75,3.52-3.46,6.35-3.2,13.61-4.9,20.39-.49,2-1,3-3,3C138.82,380.46,139.16,379.17,138.88,378.1Z"/><path class="cls-3" d="M147.91,357.88c.21-2,1-4.51-2.75-3.52.77-4.45,3-9-1.39-13-1.12-1-.72-2.78-.75-4.24,3.74,1.67,4.92,6.25,8.86,7.7l.15,2.29c2.57,4.87-.14,8.42-3,11.91Z"/><path class="cls-6" d="M205,289c1.95,2.87,5.15,4.05,7.88,5.88.85.57,2.24,1.39,1.59,2.69a3.1,3.1,0,0,1-2.42,1.42c-4.06-.3-8.1-.79-12.12-1.38-1.21-.18-.68-1.22-.37-2,.91-2.11,1.83-4.21,2.75-6.32Z"/><path class="cls-7" d="M147.91,357.88,149,359c-.49,5.32-1.39,10.51-.44,16,.48,2.83-2.43,5.67-4.68,8-1.61.08-4.12,2.12-3.91-1.78,2,0,2.55-1,3-3C144.71,371.49,144.45,364.23,147.91,357.88Z"/><path class="cls-4" d="M114,382.28c2.59-.66,5.48.46,7.88-1.33,2.66.34,2,1.9,1.47,3.62-.89,3.15-1.21,6.34.65,9.33-3.1.8-4.85-1.64-7.08-2.94l-.9-1,0,.05c.46-2.68-2-4.54-2-7.09A4.2,4.2,0,0,0,114,382.28Z"/><path class="cls-15" d="M121.84,296.05c.44,1.77-1,3.27-.4,5.27.81,2.6-1.73,2.35-3.44,3,2-5.25,1.6-5.88-3.83-6.12-.36-4.45,2.43-8.42,1.94-12.88l.38-.49-.49.38c-2.83,1-2.91,4.35-5,6l0,0c0-1,0-2-.08-3l3.12-4.82c3.42-.88,6.18-1.44,4.21,3.91-1,2.65-.79,5.75-1.12,8.64C118.69,298.78,120.29,295.77,121.84,296.05Z"/><path class="cls-7" d="M124,355.14c-1.27,2.26-2.6,4.49-3.78,6.79-.45.87-.54,2.07-1.86,1.85s-1.19-1.35-1.28-2.33c-.5-5,1-9.73,2-14.51.73-.72,1.42-.74,1.82.26C122,349.83,123,352.49,124,355.14Z"/><path class="cls-7" d="M116,308.18c.25.2.56.62.72.57,1.82-.55,3.64-2.87,5.49-.56,1.57,2-.89,3.48-1.29,5.26l-3.8.85c-2-2.38-2.47,1.82-4.12.9a1.82,1.82,0,0,0-1.85-.87c-.88.19-.73.49-.09.85-4.34,3.69-3.49-3.05-6-3h0C108.59,310.56,112.7,310.46,116,308.18Zm.07,2.21a20.46,20.46,0,0,0,2,1.25c1.12.47,2.18.11,1.72-1.12C119.19,308.93,118,310.46,116.08,310.39Z"/><path class="cls-3" d="M230.66,319.91c-2.39,3.9,3.2,7.62,0,11.42-1.74-4.51-1.74-4.5-4.76-1.6-.28.27-.93.62-1.07.51-2.62-2.11-3.75-.37-4.86,1.74-.53,1-1.45,1.41-2.41.54a1.57,1.57,0,0,1,0-2.24c.83-1,1.63-2.39,2.74-2.81C224.45,325.93,227.13,322.61,230.66,319.91Z"/><path class="cls-4" d="M131.06,326.49c.06-1-.37-2.82,1.39-3.86,1.16-.69,2.22-.18,3.22.43,1.87,1.15,1.33,2.73.79,4.34-.21.61-.24,1.28-.41,1.91-.46,1.66,1.14,4.61-2,4.59-2.83,0-2.38-3-2.93-4.89A11,11,0,0,1,131.06,326.49Z"/><path class="cls-3" d="M233,282.38A12.34,12.34,0,0,1,228,289c-1.54.95-3.24-.12-4.22-1.62-1.25-1.91.34-2.6,1.68-3.26a8,8,0,0,0,4-3.46,1.93,1.93,0,0,1,2.49-1.05C233.12,280,232.87,281.15,233,282.38Z"/><path class="cls-10" d="M357.77,396c-.32,1.62,2.25,3.75-.86,4.88l-.35-.12-.37,0a14.75,14.75,0,0,0-.65-1.87c-1.8-3.69-2-9.13-9-7.45,3.53-2.76,7-2.68,10.52-2.26.89.11.35,1,.32,1.64l.06,0c-2.2-.41-4.14-.47-2.21,2.54.64,1,1.16,2.33,2.64,2.55Z"/><path class="cls-9" d="M256.79,350.05c2.82,7,4,14.5,5.75,21.81.17.69-.73,1-1.43,1A53.65,53.65,0,0,1,256.79,350.05Z"/><path class="cls-3" d="M99.06,359.08c.32,3.81-1.28,7.26-2,10.88-2.17.12-2.21,2.64-3.83,3.38-.49-2.65,1.64-6.09-2.32-7.7a1,1,0,0,1,0-.58C95.66,365.75,95.79,360.3,99.06,359.08Z"/><path class="cls-5" d="M255.15,319.69a2,2,0,0,1-1.24-2.29c2.94-4.57,5.92-9.12,8.79-13.73.82-1.31,1.47-2.63,3.33-2.41C262.31,307.35,259.6,314,255.15,319.69Z"/><path class="cls-3" d="M241.66,299.21l-1.32,10.15c-2-.88-1-3-1.64-4.34-2-.12-2.23,2.28-3.83,2.86C234.22,302,235.94,299.81,241.66,299.21Z"/><path class="cls-3" d="M139.93,391.85c.77,3.81-1.28,7.38-.94,11.18.11,1.24.2,3.16-1.44,3.12-1.87,0-2.78-1.91-2.42-3.63.52-2.49,1.54-4.89,2.31-7.34.25-.77.4-1.57.59-2.36Z"/><path class="cls-6" d="M221.16,294.29c2.34,0,3.86.54,3.64,2.43-.25,2.07-1.51,4-3.83,3.85-2-.11-4.52-1.84-4.55-3.16C216.36,294.21,220.27,295.94,221.16,294.29Z"/><path class="cls-9" d="M89.14,389.94A8.88,8.88,0,0,1,85,396.07c-3-.83-2.46-3.45-1.31-4.65,2.13-2.2,2-5.11,3.38-7.46.08,1.07-.33,2.3,1,3l1,1Z"/><path class="cls-13" d="M151.88,344.84c-3.94-1.45-5.12-6-8.86-7.7l-5.56-3.69c5.8-1.33,8,3.39,11.52,5.69l2.93,4.11Z"/><path class="cls-7" d="M168,275.31a7.35,7.35,0,0,1-5-1,5.06,5.06,0,0,1,0-.87c.34-1.7.69-3.39,1-5.09,1.28.67,3.35-2,4.09,1Q168.07,272.29,168,275.31Z"/><path class="cls-3" d="M113,315.2c1.65.92,2.16-3.28,4.12-.9-.18,4.22-2.94,6.55-6.5,9.19C110.23,319.86,113,317.92,113,315.2Z"/><path class="cls-15" d="M139.93,391.85l-1.9,1c-3.81.65-6.94,3.61-11.06,3.19,0-.69,0-1.37,0-2.06a21.37,21.37,0,0,0,10.35-3.85C140.06,388.33,140,390,139.93,391.85Z"/><path class="cls-13" d="M197,287.19l-5-2.82c7.81-3.91,7.93-3.88,8.06,1.9C199,286.43,197.73,286,197,287.19Z"/><path class="cls-13" d="M201.45,286.15a7.18,7.18,0,0,1,3.35-3.36c1.93-1.12,2.93.33,4.31,1.09,2.41,1.32-.9,2.25-.11,3.39h0c-1.35.58-2.67-1.84-4,0A4.32,4.32,0,0,1,201.45,286.15Z"/><path class="cls-15" d="M90.21,356.2c-.16-1.43,3.72-2.87-.26-4.4-2.28-.87-.5-3,.11-4.18,1-2,1.74,1.19,2.91.57,1.38,3.39,1.42,6.52-1.78,9C90.87,356.87,90.54,356.53,90.21,356.2Z"/><path class="cls-12" d="M93.24,373.34c1.62-.74,1.66-3.26,3.83-3.38,1.17,1.09.58,2.4.42,3.64a1.35,1.35,0,0,0,.11.88,8.61,8.61,0,0,0-3.55,3.5,6.08,6.08,0,0,0-1,.07l-2,0,0,0,1.84-3.24Z"/><path class="cls-7" d="M127,394c0,.69,0,1.37,0,2.06-5.56,1.48-8.72,0-10.91-5.06h.43l.44,0c2.23,1.3,4,3.74,7.08,2.94Z"/><path class="cls-15" d="M101.08,315.17c-.32,2.7-3.57,2.64-4.39,5.14-.76-2.88-.62-5.56-1.59-8,1.29.21,3.24-1.07,3.29,1.81C98.41,315.65,100.07,315,101.08,315.17Z"/><path class="cls-5" d="M303.09,270l-.12-1.58c2.95-.32,5.9-.74,8.86-.93,1.92-.11,4.07-.49,5.22,1.81Z"/><path class="cls-15" d="M114.08,382.9c0,2.55,2.45,4.41,2,7.09-2.7-1.54-3.2-4.36-4.09-7a3.55,3.55,0,0,1-.08-3.19c.12-1.94.25-3.88.42-6.62C114.06,376.88,111.81,380.24,114.08,382.9Z"/><path class="cls-3" d="M170.66,402.45c-.91,1.35-.78,3.72-3,4-1.09.14-2.24-1.11-2.29-2.23-.07-1.91,1.4-2.86,3.14-3.18C169.5,400.87,170.6,400.88,170.66,402.45Z"/><path class="cls-13" d="M90.21,356.2c.33.33.66.67,1,1q-.1,3.92-.22,7.85a1,1,0,0,0,0,.58c-2.71-1.39-2.81-3.89-2.79-6.45Z"/><path class="cls-7" d="M201.45,286.15a4.32,4.32,0,0,0,3.52,1.07l0,1.77-2.69.34c-2-.2-4.31.47-5.32-2.14.74-1.21,2-.76,3-.92Z"/><path class="cls-13" d="M145,355v6.52c-2-.77-2.74-3.18-4.94-2.44A7.92,7.92,0,0,1,145,355Z"/><path class="cls-7" d="M94.05,378a8.61,8.61,0,0,1,3.55-3.5c.65,2.74-1,4.6-2.5,6.54C93.87,380.31,94.08,379.1,94.05,378Z"/><path class="cls-3" d="M94.05,378c0,1.12-.18,2.33,1,3-.2,2.52-1.88,3.06-4,3l-.43-.41,1.44-2.89c1-.23.8-.92.67-1.6l.34-1.06A6.08,6.08,0,0,1,94.05,378Z"/><path class="cls-15" d="M110.18,295.34a25.8,25.8,0,0,1-1.79,9.77,16.52,16.52,0,0,1,1.45-10Z"/><path class="cls-15" d="M129.2,338.14c-.4.63-.79,1.27-1.19,1.91l-3.82,2.23-.4-.4A5.47,5.47,0,0,1,129.2,338.14Z"/><path class="cls-3" d="M89.06,388l-1-1c0-1.8,1.23-2.61,2.59-3.34l.43.41A5.63,5.63,0,0,1,89.06,388Z"/><path class="cls-15" d="M102.08,315.2h-1l-.14-2.7h1.3Z"/><path class="cls-15" d="M109.84,295.07c.3-1.3-.33-2.9,1.21-3.81l0,0c0,1.43.45,2.95-.85,4.1Z"/><path class="cls-3" d="M272.35,245.65c.12-.27.18-.7.38-.78s.54.2.82.32c-.13.27-.19.7-.39.78S272.63,245.77,272.35,245.65Z"/><path class="cls-7" d="M105,312.19l-.36,1.31c-.94-.73,0-.95.37-1.31Z"/><path class="cls-15" d="M128.39,380.51l-.32.21-.25-.45c.13,0,.28-.09.39,0S128.33,380.41,128.39,380.51Z"/><path class="cls-3" d="M174,278.29l.23-.42-.23.42Z"/><path class="cls-13" d="M209,287.27a1.16,1.16,0,0,1,.37.18c.06.05,0,.19,0,.3l-.42-.49Z"/><path class="cls-15" d="M116.93,391l-.44,0h-.43l0-1Z"/><path class="cls-15" d="M124.19,342.28l-.72.33c.11-.24.21-.49.32-.73Z"/><path class="cls-3" d="M111.07,315.18c-.64-.36-.79-.66.09-.85A4.91,4.91,0,0,0,111.07,315.18Z"/><path class="cls-2" d="M356,375.9c-.46-2.57-2.74-2.59-4.56-3.17-11.35-3.63-22.82-7-33.42-12.58a112.51,112.51,0,0,1-16.48-10.78c-.81-.63-1.77-1.21-1.15-2.37a2.22,2.22,0,0,1,3.1-.7c3.84,2.2,8.5,2.49,11.44,6.93,4,6,11.87,6.89,17.69,10.62,7.25,4.65,16.06,4.83,23.84,8,2.9,1.2,5.8,2.09,7.51,5C361,378.41,358.54,376.74,356,375.9Z"/><path class="cls-4" d="M309.92,284.3c-2.66.35-5.32,2.21-8,0,1.18-.72,1-1.9,1-3,4.55.26,8.9-1,13.68-.32,11,1.58,18.59,7,23,16.89,1,2.28,4.11,4.16,2.25,7.38-1-.39-1.71-1.37-2.93-1h0c-1.42-3.7-4.87-5.81-7-8.95-.4-5.57-4.92-6.52-9-8l-2,.18C318.64,281.65,313.63,285.27,309.92,284.3Z"/><path class="cls-2" d="M323,287.26c4.06,1.47,8.58,2.42,9,8,0,2.54-.41,5.06,2.7,6.52,1.64.76,1.39,2-.62,2.35-.35-.25-.69-.5-1.06-.72,0,0-.24.34-.38.51l1.28.39c1.74,2.24,3.39,0,5.08-.1h0c0,.38-.06.76-.1,1.14a5.05,5.05,0,0,1-2.12,4c-1.65,1.19-3.18-.39-4.79-.2,1.21-1.32,2.94-2.81-.83-2.51-5.44.42-9.12-3.86-13.87-5.32-1.22-.37-1.41-2.49-1.3-4,.32-.39.64-.78,1-1.16l3.06-.18c1.61,3.43,6.87,5.17,10,3.29l.38.21-.43-.15a13.31,13.31,0,0,0-5.45-8.21C323.2,290.12,321.5,289.29,323,287.26Z"/><path class="cls-10" d="M356,375.9c2.59.84,5.09,2.51,8,.94,1.23,3.53,6.52,1.71,7.45,5.65-3.45,1.52-6.62,1.35-9.41-2.13-.94,5.91-4.48,4.83-8,3.82l-.88-1.17c-.15-.61-.24-1.28-1.16-1.08l.06.05C352.18,379.22,352.89,376.8,356,375.9Z"/><path class="cls-10" d="M319.93,316.15c0,2.06-1.43,2.38-3,2.21-2-.24-4.31-4.24-6,.79-.34,1-2.17-.77-2.62-2a38.39,38.39,0,0,0-2-5.36c-2.58-4.67-2.09-5.27,3.5-6.29v5.29l6-.57c-1.3,3.13-.1,4.7,3.14,5l-.05-.06c-.28,1,.33,1.1,1.08,1.05Z"/><path class="cls-10" d="M380.88,401.5c-.3,1.62,1.71,1.32,2,2.42,0,.36,0,.72,0,1.08l.06,2.23-3-.41c-2.17-5.16-7.35-6-11.66-8-2.54-3.23-3.09-6.59-.65-10.14a8.31,8.31,0,0,1,4.24,6.26C372.4,400.49,377.1,400.37,380.88,401.5Z"/><path class="cls-2" d="M309.92,284.3c3.71,1,8.72-2.65,11.06,3.14l-3.06,1.64-3,.89c-1.56-3.7-4-.46-6-.74-.1-1.72-1.23-2.16-2.64-1.88-1.25.25-.52,1.19-.39,1.88l-2,0H301c-2.1-.13-4.34.43-6.34-1.57,3.85-1.26,7.7-1,11.45-1.43C307.63,286.11,309.6,286.81,309.92,284.3Z"/><path class="cls-2" d="M305.38,337.09a72.15,72.15,0,0,1-11.35-6.9c-2.76-1.86-2.36-4-1.27-6.47.47-1.05,1.44-1.75,2.3-.74C298.59,327.13,303.31,330.46,305.38,337.09Z"/><path class="cls-10" d="M330.19,350.35l6.11-1c-1.9,3.16-5.18,2.08-7.44,3.9,2.56,1.86,4.86-1,7.53.27-2.68,2.73-6.14,2.34-9.05,3.24-.82.26-1.37-.79-1.38-1.68-.06-2.44-.65-5.09,1.77-6.84a10.22,10.22,0,0,1,8-2c-1.2,3-4.87,1.11-6.2,3.45-.33.34-.57.73,0,1C329.63,350.81,330,350.49,330.19,350.35Z"/><path class="cls-12" d="M353.09,383l.88,1.17c-.36.49-.71,1-1.07,1.46-3.58-3.07-10.74-.74-11.74-7.72,2.83.93,6.1-1.85,8.7,1-.23,1.67.17,2.89,2.13,3l-.06-.05Z"/><path class="cls-12" d="M314.93,290l3-.89c.78,2.67,4.1,1.75,5.36,3.73-.24,2-3.28.93-3.3,3.1l-3.06.18c-1.26-2.78-3.31-.74-5-.83-1.53-1-3.38-2-.24-3.39A35.63,35.63,0,0,0,314.93,290Z"/><path class="cls-15" d="M345.77,309.33c.33,2.69.67,5.38,1,8.08-1.4-.17-2.71-.25-3.42-1.93-.42-1-1.5-1.8-2.5-.26l-1.23,0-1.74-.94.18-3.1c4.08.57,4.19-1.95,3.8-4.86l.12-.12C344.1,306.19,344.22,308.61,345.77,309.33Z"/><path class="cls-12" d="M350,334.26c1.48,1.45,1.14,3.67.68,3.9-3.31,1.64-5.14,2.93-.31,5,.77.33.48,1.6-.66,1.68a6.5,6.5,0,0,1-6.19-3.44c-1-1.81.83-3.51,2.56-4.11A8.21,8.21,0,0,0,350,334.26Z"/><path class="cls-10" d="M338.06,311.14l-.18,3.1c-.41,1.78-.87,1.32-2.25.55-1.64-.9-4-3.42-5.67.29a2,2,0,0,1-.89-.28l-.33-1.35c-.93-2.91,1-3.7,3.21-4.34,1.61-.19,3.14,1.39,4.79.2Z"/><path class="cls-12" d="M341.54,340.59c-3.49-2.61-4.91-5.12-2.33-8.41,2.15-2.73,4.45-2.35,7.24.37C341.17,333,342.15,337,341.54,340.59Z"/><path class="cls-12" d="M328.74,313.45l.33,1.35c-2.57,3.68-5.78,3-9.14,1.35l0,.08-1.08-1.05.05.06c.23-1.37-1.81-2.64-.18-4.07l8.06,2Z"/><path class="cls-10" d="M347.59,360c-1.18,2.21-5.52-1.09-4.68,2.61.79,3.47,3-1.61,4.86.14-.56,2.57-2.79,2.8-4.77,2.78s-2.28-2.12-2.82-3.61a2,2,0,0,1,1.64-3C343.91,358.51,346.22,357.18,347.59,360Z"/><path class="cls-12" d="M357.45,390.91l-.06,0c2.3.47,2.41,2.95,3.79,4.36.29-.31.54-.46.62-.68.55-1.46-.67-3.49,1.18-4.45.91-.46,1.51.67,1.61,1.42a9.16,9.16,0,0,1-1.56,7c-1.34,1.62-2.42-.48-3.21-1.71-.48-.73-1.09-1.24-2.05-.78l.11,0C359.06,394.19,356.72,392.68,357.45,390.91Z"/><path class="cls-10" d="M349.86,379c-2.6-2.89-5.87-.11-8.7-1-.42-1.08-2.14-2.33-.28-3.24,2.12-1,4.47-2,7-.89C350.2,374.86,350.83,376.6,349.86,379Z"/><path class="cls-10" d="M340.85,315.22c1-1.54,2.08-.74,2.5.26.71,1.68,2,1.76,3.42,1.93.05,1.91.1,3.82.14,5.73C342.7,322.17,341.33,319,340.85,315.22Z"/><path class="cls-12" d="M368.3,398.79c4.31,2.06,9.49,2.87,11.66,8C375.14,405.49,370.81,403.45,368.3,398.79Z"/><path class="cls-12" d="M330,315.08c1.65-3.71,4-1.19,5.67-.29,1.38.77,1.84,1.23,2.25-.55l1.74.94C337.27,319.24,333.9,319.2,330,315.08Z"/><path class="cls-10" d="M344.05,346.93c-.76-1.47-1.95-.88-3.07-.64-.6,0-.93.19-.72.85.18,1.26.37,2.52.55,3.77-.22.91-.45,1.82-.67,2.72-4.21-1.22-2-4.67-2.2-7.07s2.56-2.21,4.15-2.51c2.15-.39,4,.24,3.86,3.08Z"/><path class="cls-12" d="M315.8,310.26l-6,.57v-5.29C313.46,305.05,315.61,306.42,315.8,310.26Z"/><path class="cls-2" d="M303,281.28c0,1.1.18,2.28-1,3-2.16-.55-6.17,1.25-6.17-1.34,0-2.82,4-1.23,6.2-1.66A5.24,5.24,0,0,1,303,281.28Z"/><path class="cls-12" d="M377.11,377.79c-3.22,3.38,2.77,3.82,2.06,6.41-4.15.92-5-2.44-6.48-5l.23-.22a3.14,3.14,0,0,0,3.2-2.69Z"/><path class="cls-12" d="M372.69,379.22a10.35,10.35,0,0,1-1.71-1.73c-.71-1.17-2.66-2.33-1.49-3.68s3-1,4.46.18c-.34,1.67-.69,3.34-1,5Z"/><path class="cls-10" d="M326.82,313.2l-8.06-2C322.61,307.26,324.8,309.91,326.82,313.2Z"/><path class="cls-13" d="M311.9,295.26c1.71.09,3.76-1.95,5,.83-.33.38-.65.77-1,1.16C315.39,295,310.39,301.74,311.9,295.26Z"/><path class="cls-15" d="M344.05,346.93l1.9.2a15.44,15.44,0,0,1,.66,2.34,2.43,2.43,0,0,1-2.51,2.74c-1.5-.21-.69-1.77-.42-2.85A19.79,19.79,0,0,0,344.05,346.93Z"/><path class="cls-7" d="M305.94,289.23c-.13-.69-.86-1.63.39-1.88,1.41-.28,2.54.16,2.64,1.88C308,290.79,307,292.39,305.94,289.23Z"/><path class="cls-13" d="M372.92,379c.34-1.67.69-3.34,1-5a3.1,3.1,0,0,1,2.17,2.32A3.14,3.14,0,0,1,372.92,379Z"/><path class="cls-12" d="M382.93,407.23l-.06-2.23c1.37.05,3.49-.29,3.41,1.43C386.21,408,384.39,408.22,382.93,407.23Z"/><path class="cls-7" d="M301,289.27h2.95c-.13,1-.38,2-1.71,1.79C301.19,290.93,301.1,290.07,301,289.27Z"/><path class="cls-15" d="M340.14,353.63c.22-.9.45-1.81.67-2.72a1.57,1.57,0,0,1,.88,2.34A.92.92,0,0,1,340.14,353.63Z"/><path class="cls-2" d="M321,389c1.45,0,2.89,0,3,2A3,3,0,0,1,321,389Z"/><path class="cls-15" d="M338.86,305.35c0-.38.07-.76.1-1.14,1.22-.35,2,.63,2.93,1,0,.31.06.62.09.93l-.12.12Z"/><path class="cls-15" d="M340.26,347.14c-.21-.66.12-.87.72-.85Z"/><path class="cls-2" d="M362.92,407.92l.42.23-.41-.24Z"/><path class="cls-2" d="M169,251.56c.14,1.06-.28,2.56,1.58,2.4a10.77,10.77,0,0,0,2.37-.72c2.19-.74,5.53-2.05,6.28,0,.83,2.2-.37,5.53-3.23,7.13-1.73-1.55-1.73-1.55-3.3.54-3.6,4.81-12.29,4.58-16.65-.93,7.26,1.53,4.15-4.6,6-7.21C164.3,252.07,166.49,250.82,169,251.56Z"/><path class="cls-2" d="M76,346.12c.88-3,2.88,1.77,3.63-.47.56-1.69.39-3.61.92-5.31.87-2.81,12.13-10.21,14.94-9.74s1.56,2.52.81,3.77c-2,3.3-4.93,5.64-8.16,7.76-2.42,1.6-5.63,3.13-4,7.15-.09,3.27-1.39,5.27-5,4.8h0a2.71,2.71,0,0,0-1.68-2.72C74.26,350.26,74.47,348.38,76,346.12Z"/><path class="cls-6" d="M87.27,293.28c2.16.56,4,1.53,4.81,3.79-2.62,8.61-7.18,16.16-12.77,23.14-.32.41-.32,1.47-1.35,1l1.38-10C82.78,305.55,84.71,299.28,87.27,293.28Z"/><path class="cls-2" d="M117.18,296c.33-2.89.14-6,1.12-8.64,2-5.35-.79-4.79-4.21-3.91C118,278.69,120.93,273,127,270.31c2.93,4.13-1.27,4.64-3.26,5.86a4.36,4.36,0,0,0-1.9,5.4c.51,1.35,2.85,1.12,4.22-.32l2,.2c-.34.61-.67,1.22-1,1.83l0,2,0-.07c-1.94.66-2.28,2.62-3.19,4.06C122.11,292,120.67,295,117.18,296Z"/><path class="cls-3" d="M126.06,281.25c-1.37,1.44-3.71,1.67-4.22.32a4.36,4.36,0,0,1,1.9-5.4c2-1.22,6.19-1.73,3.26-5.86,1.48-3.39,5.74-4.22,7.15-7.72.33-.83.7-.13.8.28a7.74,7.74,0,0,1,.09,1.45c.94,2.8-2.34,4.36-2,7-3.4,1.61-3,5.08-3.94,7.93C127.63,279.25,126.08,279.13,126.06,281.25Z"/><path class="cls-2" d="M100.06,297c.48-7,3.7-12.65,7.14-18.18.68-1.1,1.74-2.82,3.54-1.89a2.55,2.55,0,0,1,.89,3.88C107.54,286,104.27,291.8,100.06,297Z"/><path class="cls-2" d="M164,268.33c-.34,1.7-.69,3.39-1,5.08-2.93-2.58-5.87-5.12-8.92-.13-1.59.25-2-1.27-3-1.95,1.23-1.18,3.59-1.51,3-4C157.58,266.2,161,265.46,164,268.33Z"/><path class="cls-2" d="M133,271.29c-.31-2.61,3-4.17,2-7,1.87.08,3.85-2.19,5.52-.16,1.26,1.54-.19,3-1,4.43-1.17,2,1,3.75.5,5.72h-3C139.36,268.45,135.08,271.33,133,271.29Z"/><path class="cls-6" d="M71.3,325.22l0-5.3a2.25,2.25,0,0,1,.4-.36l1.12.3c.82,1.85,1.66,3.68,4.2,2.08A8,8,0,0,1,72,329.31c0-1.25.2-2.57-.8-3.62A.34.34,0,0,0,71.3,325.22Z"/><path class="cls-15" d="M154.09,273.28c3-5,6-2.45,8.92.13a5.16,5.16,0,0,0,0,.88C159.7,277,157.12,273.15,154.09,273.28Z"/><path class="cls-7" d="M154.12,267.3c.55,2.52-1.81,2.85-3,4l-1,.09-4.15-.92c-2.41-.59-1.56-2-.74-3.27.64-1,1.9-1.25,2.42-.32C149.66,270.66,151.89,268.17,154.12,267.3Z"/><path class="cls-3" d="M49.17,379.84l-2.31,16.07C45.35,390.68,46,385.54,49.17,379.84Z"/><path class="cls-11" d="M77.05,321.94c-2.54,1.6-3.38-.23-4.2-2.08.93-1,2.25-1.81,2.25-3.45,3.38.35,1.17,3.31,2.22,4.74A3.69,3.69,0,0,1,77.05,321.94Z"/><path class="cls-2" d="M77.32,321.15c-1-1.43,1.16-4.39-2.22-4.74,1.57-1.62,1.17-4.82,4.23-5.25-.45,3.33-.91,6.67-1.37,10h-.64Z"/><path class="cls-2" d="M145.91,270.5l4.15.92c-.18,1.37-.9,2.14-2.3,1.64C146.65,272.66,145,272.44,145.91,270.5Z"/><path class="cls-3" d="M59.3,364.14v-3.33C60.58,362.08,59.81,363.11,59.3,364.14Z"/><path class="cls-3" d="M71.18,325.69c1,1.05.75,2.37.8,3.62C69.91,328.5,71.61,326.86,71.18,325.69Z"/><path class="cls-2" d="M79.06,354.08c-.13.72-.27,1.44-.41,2.17-.13-.09-.34-.14-.38-.26a1.53,1.53,0,0,1,.78-1.92Z"/><path class="cls-3" d="M60.59,368.3c-.16-.28-.39-.52-.4-.77s.23-.5.37-.75c.13.25.38.49.38.74S60.73,368,60.59,368.3Z"/><path class="cls-8" d="M175,75.81l3-.19c3.11,2,6.88-.82,10,1.32a2.29,2.29,0,0,1-1.7,2.21c-2.3.77-4.87,1.06-4.64,4.57.07,1.12-1.5,1-2.43,1.23-3.32.73-4.59,2.77-4.29,6.13a30.77,30.77,0,0,1-.07,7.43c-.43,2.66-.36,6.09-3.46,7.15s-4.4,3-5.34,6.71c-1.56-1.89-2.42-3.07-3.43-4.13-1.94-2-3.88-2-6-.07-1.59,1.42-2.34,3.25-1.26,4.8a7.71,7.71,0,0,0,6.5,3.53c4.24.14,7.68-4.56,12.15-1.69a3.83,3.83,0,0,1-1.76,3.32c-3.19,2.16-2.79,4.76-1.34,7.63-3.88-.53-6.1-5.56-10.77-4-1.54-3.69-4.22-5.77-8.32-5.82v-.08c-.08-3.37-2.53-3.68-5-3.91a2.79,2.79,0,0,1-.76-.23c-.33-3.27.3-5.58,3.59-7.7,2.05-1.32,5.35-4.23,3-8.07-2.92-4.84-2.06-9.71,2.09-13.47,2.28-2.07,5.56-2.66,7.37-5.3l4.1-.81,3.27,0C171.41,76.85,173.37,77.62,175,75.81Z"/><path class="cls-11" d="M237,93.83q0,3,0,6l-2.08,2.06c-3.54.64-2.46-2.83-3.49-4.68-1.92,2.3-.15,4.12-.17,5.93s1.08,3.76.76,5.77c-5.24,3.8-5.23,3.8-6.35-1.65,0-.25-.44-.44-.76-.74-1.24.4-1.29,2.78-3.21,2.12-1.2-2.12-4.16-3.85-1.44-6.82a1.09,1.09,0,0,0-.16-1.69c-3.31-3-3.36-7.55-3.92-11.34-1-6.52-3.7-10.66-10.15-12.26-3.06-.76-6.05-1.23-8.91.6l-5.1-.76c.07-3.35,2.79-4.22,5.12-5.46a1.85,1.85,0,0,0,1.91-1c1.4-.09,3,.48,4.07-.88l2-.11c3.23-1.75,5.43.81,8,1.91l.09,1.06c-.48,5,3.68,7.44,5.87,11v0c.22,3,3.64,5.92,3.25,7.36-1.22,4.5,2.45,7,2.8,10.67a1.77,1.77,0,0,0,2.44,1.68c1.61-.36.48-1.55.64-2.37.5-2.51-2.45-5-.1-7.48l2,.16c2.86,1.9,1.4-2.31,3-2.14l0,0c.11,1.23-.36,2.71,1.37,3.27.16-.77.31-1.54.47-2.31a2.91,2.91,0,0,0,.13-.93c.33,0,.66,0,1,0Z"/><path class="cls-2" d="M197.07,70.89c-2.33,1.24-5,2.11-5.12,5.46l-.93.41-3,.18c-3.1-2.14-6.87.72-10-1.32.17-3.11-1.42-7.07,3.78-7.74.88,1.24,2,2.8,3.52,1.45s.09-2.78-.83-3.87A4.62,4.62,0,0,0,181,63.91a3.91,3.91,0,0,1-.58-5c1.28-2,.48-2.62-.52-4.38-2.3-4,3-5.21,4.19-8.09.86-2,1.8,0,2.43.61s2.1,1.65.4,2.68c-.94.58-2.27.58-2.69,2.51C188,50.74,187.8,55,190,55.93h0c0,.66,0,1.32,0,2-2.12,2.57,0,4.47,1.49,5.77,1.34,1.16,3.12,3.57,5.53,1.23l6,4.13c-1.12,1.36-2.67.79-4.07.88a2,2,0,0,0-2.89-.74C195.38,69.76,196.91,70.18,197.07,70.89Z"/><path class="cls-11" d="M142,77c2.82-1.7,6-.75,9-1.26l1.06,1.1c-2.54,2.65-7.32,1.14-9.16,5.67-3.45,8.53-7.41,16.82-6.92,26.34l-2-.06c.39-3.53-.76-6.82-1.57-10.18s-1.07-7,1.4-9.89A112.18,112.18,0,0,0,142,77Z"/><path class="cls-7" d="M142,77a112.18,112.18,0,0,1-8.17,11.72c-2.47,2.92-2.23,6.43-1.4,9.89s2,6.65,1.57,10.18l-3,1c-.09-1,.22-2.15-.68-3v-3c1.31-2.59.63-5.34.59-8-.37-1.64,1.29-4.79-2.76-3.67C129.36,82,133.59,77.35,142,77Z"/><path class="cls-2" d="M228,92.76c-2.35,2.52.6,5,.1,7.48-.16.82,1,2-.64,2.37a1.77,1.77,0,0,1-2.44-1.68c-.35-3.62-4-6.17-2.8-10.67.39-1.44-3-4.39-3.25-7.36,3.29.64,6.71,1.16,6.07,5.85C224.71,91.05,228.18,90.55,228,92.76Z"/><path class="cls-2" d="M169.5,76.45l-3.27,0L166,74.8a8.2,8.2,0,0,0-1-5c-.33-2.83-1.14-5.58-.5-8.54.21-1-.47-2.41.89-2.84,1.79-.57,1.81,1.42,2.64,2.26-1.56,2.63.29,4.83.91,7.18-1.91,3.56,3.54,3.78,3,6.7C171.09,75.1,169.92,75.28,169.5,76.45Z"/><path class="cls-2" d="M190,55.93c-.07-2.78,2.1-5.52-.41-8.39-1-1.11.1-3,1.77-3.28s1.36,1.32,1.67,2.38C194.39,51.34,196,56,196,61l-1.94,0c0-2.72-1.54-4.22-4-5Z"/><path class="cls-2" d="M152.09,76.8,151,75.7c.21-2.62,2.55-3.78,4-5.48,1.66-2,2.53-3.63.68-6.11,3.26,1.15,6.15,2.29,7.34,5.66-3.44,0-7.11-.3-6,5.06-.35.71-.69,1.43-1,2.15Z"/><path class="cls-7" d="M169,67.89c-.62-2.35-2.47-4.55-.91-7.18l4,1.2,3,2c-.56,1.76,2.72,2.83.95,4.52-.39.37-2.74,1.86-3.72-.7C171.24,64.93,170.11,68.06,169,67.89Z"/><path class="cls-7" d="M157,74.83c-1.12-5.36,2.55-5.07,6-5.06l2,.06a8.2,8.2,0,0,1,1,5Z"/><path class="cls-2" d="M233,90.78c-1.64-.17-.18,4-3,2.14,1.52-4.51,0-8.94-.4-13.49C232.76,82.66,232.24,86.92,233,90.78Z"/><path class="cls-2" d="M219,82.88c-2.19-3.54-6.35-6-5.87-11C219,73.46,218.54,78.4,219,82.88Z"/><path class="cls-2" d="M213,70.84c-2.54-1.1-4.74-3.66-8-1.91-.33-2.73.46-4.16,3.64-4.09C213.05,65,212.92,67.86,213,70.84Z"/><path class="cls-7" d="M194,60.92,196,61a6.65,6.65,0,0,0,1,3.95c-2.41,2.34-4.19-.07-5.53-1.23-1.51-1.3-3.61-3.2-1.49-5.77C190.88,59.52,192,60.9,194,60.92Z"/><path class="cls-7" d="M124.91,109.72l-2.09-2,1.26-8,1.8,0C126.27,103.15,125.22,106.4,124.91,109.72Z"/><path class="cls-7" d="M181,63.91a4.62,4.62,0,0,1,3.53,1.55c.92,1.09,2.28,2.6.83,3.87s-2.64-.21-3.52-1.45A5.37,5.37,0,0,0,181,63.91Z"/><path class="cls-2" d="M175.08,63.88l-3-2c1.32-.28.61-3.24,2.34-2.23A2.79,2.79,0,0,1,175.08,63.88Z"/><path class="cls-2" d="M177.53,49.16c.29.84,0,1.45-.73,1.54-1.7.21-1.76-1.08-1.74-2.24,0-.56.35-1.61.52-1.61C177.08,46.88,177,48.36,177.53,49.16Z"/><path class="cls-2" d="M236,90.83c-.33,0-.66,0-1,0,0-1.46-.17-3.07,1.74-3.55.27-.06.92.43,1,.77C238.19,89.59,237.74,90.66,236,90.83Z"/><path class="cls-14" d="M169.5,76.45c.42-1.17,1.59-1.35,2.51-1.86.94.56,2.31.07,3,1.22C173.37,77.62,171.41,76.85,169.5,76.45Z"/><path class="cls-2" d="M187.7,40c-.49-.31-1.09-.47-1.17-.77-.21-.8.44-1.11,1.08-1a1.22,1.22,0,0,1,.87.79C188.51,39.26,188,39.6,187.7,40Z"/><path class="cls-2" d="M234.87,91.79c-.16.77-.31,1.54-.47,2.31-1.73-.56-1.26-2-1.37-3.27Z"/><path class="cls-7" d="M128,92.8a3.07,3.07,0,0,1-1.58,3.56C126,94.79,125.6,93.18,128,92.8Z"/><path class="cls-2" d="M224.93,74.38l-.44.75c-.14-.25-.39-.5-.39-.75s.25-.5.39-.75Z"/><path class="cls-2" d="M232.62,405.11l23.13,1.09C250.46,409.81,246.19,409.74,232.62,405.11Z"/><path class="cls-9" d="M281,393.93c-.12-2.47-2.43-4.33-2-7,2.79-.28,1.5-2.84,2.58-4.78,4.56,5.33,8.07,10.7,8.47,17.66-1.28.22-2.14.67-1.53,2.23.54,1.4.8,2.82-.57,4C284.62,402.58,283.5,397.85,281,393.93Z"/><path class="cls-9" d="M273.89,373.07c-4.51-2-8.27-4.68-8.69-10.18C272.3,362.48,271.25,361.42,273.89,373.07Z"/><path class="cls-9" d="M276.9,382a2.56,2.56,0,0,1-1.58-3.24C277.09,379.28,277.08,380.61,276.9,382Z"/><path class="cls-9" d="M278.78,386.12a1.66,1.66,0,0,1-1.49-2.33A1.74,1.74,0,0,1,278.78,386.12Z"/><path class="cls-9" d="M264.3,361c-1.08-.36-1.23-1.17-1-2.15C264.41,359.21,265.49,359.57,264.3,361Z"/><path class="cls-13" d="M90.65,383.6c-1.36.73-2.62,1.54-2.59,3.34-1.3-.68-.89-1.91-1-3-.13-2.37,1.49-3.66,3.06-5a4.52,4.52,0,0,1,.82-.05l.23.19.89,1.6Z"/><path class="cls-13" d="M92.88,374.75c-.61,1.08-1.22,2.16-1.84,3.24a4.45,4.45,0,0,1-.81.08C90,376.06,91.39,375.37,92.88,374.75Z"/><path class="cls-12" d="M90.23,378.07A4.45,4.45,0,0,0,91,378l0,0c0,.31,0,.61-.09.91a4.52,4.52,0,0,0-.82.05A1.27,1.27,0,0,1,90.23,378.07Z"/><path class="cls-8" d="M191,76.76l.93-.41,5.1.76c4.61.07,6.82,4.72,10.94,5.74-.14.14-.27.28-.4.43l.42-.41c1.36.29,2.9-.57,4.36.72-1.61,2.1-4.78,4.19-1.09,6.83,5.06,3.63,5.37,9.14,5.65,14.43.15,2.81.75,4.41,3.52,4.94.91,2.64.72,5.65,2.67,7.95,0,.68-.05,1.36-.08,2-2.2.46-2.73,1.4-.87,3l-.48,3.8c-1.38.44-2.28,1-.46,2.13l.09,9.94c-2.65,1.62-2.38,4.18-2.17,6.72-2.14.71-4.46,1.17-4.17,4.32.25,2.61,2,3,4.07,3a22.21,22.21,0,0,1-3,7.25c-2.32,3.21,0,4.15,2.47,4.52,1.36.2,2.86-.52,4.3-.82.85,4.52,4.48,3.52,7.5,3.75-.19,1.44-.38,2.88-.56,4.32-2.38,2.16-3.62,4.59-1.84,7.73-2.11,7-.53,14.14-.94,21.2l-.19,5.6c-7.77,8.23-15.55,16.43-24.95,22.93-2.09,1.44-4.66,1.67-6.56,3.33-1-.21-2.17-.42-2.17-1.64,0-5.51-1.93-4.91-5.37-2.06-1.53,1.27-3.94,1.49-6,2.18-1.58-4.69-4.06-2.23-6.5-.88a1.34,1.34,0,0,1-2-.75,2.27,2.27,0,0,1,.25-1.31c4.24.35,3.69-5.54,7.58-5.77,1.13-.06,1.89-1.27,2-2.57l1-1.08c4.67-2.59,9.81-4.61,11.94-10.17l0,0,2-.06a2.87,2.87,0,0,0,2.6-1.12c5-6.44,10.19-12.72,12.45-20.77l.39-.47-.47.39a15,15,0,0,0-6.84,4.39c-4,4.24-6.25,10.08-12.53,12-4.88,1.48-9.58,3.34-13.22,7.21a3,3,0,0,1-2.82.5c-3.21-1.83-6.75-.75-10.08-1.46-4.8-1-7.05-3.37-6.54-8.59A23.22,23.22,0,0,1,164,191.3c1.05,0,1.71-.36,1.75-1.49-1.24-5.21,2.08-5.45,5.79-5.33a10.28,10.28,0,0,0,6.48-1.84c1-.12,2.11-.22,2.78-1.2,1.9-.53,3.58,1.64,5.68.17,3.31-2.32,6.93-4.18,10.23-6.51a9.55,9.55,0,0,0,4.52-7.23c.28-2.74-1.49-6.71-.57-7.27,3.25-2,4.32-6.28,7.74-7.39,3.74-1.22,3.7-3.65,3.62-6.55-.06-2.15-.48-4.45.11-6.43,1.47-5,1.25-9.21-3.52-12.38-.85-.57-1-2.28-2.54-1.79-1.22.38-.89,1.61-1.17,2.51-1.18,3.69-7.21,8.18-10.21,6.69-5.47-2.73-7.62,1.08-9.95,4.23-2.09,2.81-3.67,3-5.73.28,0-2.15,2.21-2.17,3.24-3.29,1.41-1.54,4.39-1,4.76-3.76,3.35.94,5.17-2.33,8-2.88.46,2,1.85,2.64,3.67,2.24.87-.19,2.05-.51,2.12-1.75.11-2-1.5-2.87-2.93-3.59a33.54,33.54,0,0,0-16.74-3.21l1-5.32,7.79-.6c6.19.71,12.39,1.41,17.3,6.13a3.13,3.13,0,0,0-.05-3.4c-1.54-3.8-5.29-5.15-8.13-7.49a11,11,0,0,0,3.06-9.48c-.17-1.44-.22-3.23.49-4.35,3-4.76.27-7.21-3.33-9.58C194.66,86.42,193.07,81.43,191,76.76ZM216,205c-.06-6.53-1.76-8.57-5.14-6.43a21.21,21.21,0,0,0-8.29,10.63c-1.05,2.87,1.65,5.4,4.65,6.69a1.25,1.25,0,0,1,.56.78c1.58,5.19,3.77,1.71,5.47.24C217.23,213.44,215,208.51,216,205Z"/><path class="cls-14" d="M183.12,219.75c-.11,1.3-.87,2.51-2,2.57-3.89.23-3.34,6.12-7.58,5.77a2.27,2.27,0,0,0-.25,1.31,1.34,1.34,0,0,0,2,.75c2.44-1.35,4.92-3.81,6.5.88,2-.69,4.43-.91,6-2.18,3.44-2.85,5.37-3.45,5.37,2.06,0,1.22,1.19,1.43,2.17,1.64a70,70,0,0,1-28.11,12.72c1.67-4.81-2.92-4.4-5.06-6a10.15,10.15,0,0,1-2.34-4.73c1.87-5,5-8.52,10.67-9.48a6.66,6.66,0,0,0,4.57-2.6C178.22,223,179.79,218.73,183.12,219.75Z"/><path class="cls-12" d="M152.17,246.21l-3.74-7.47c5.72,3.07,9.85,6.75,15.38,6l-.12,1.48c-1.39,1.73-3.48,1.58-5.36,2-1.91-1.23-3.82-2.43-6.26-1.84Z"/><path class="cls-11" d="M163.69,246.19l.12-1.48c.73-2.21-2.14-3.34-1.67-5.47,2.14,1.63,6.73,1.22,5.06,6Z"/><path class="cls-14" d="M226.82,206.29c.07-1.87.13-3.73.19-5.6l2.58-2.25a9.64,9.64,0,0,1,.29,5.19C229.06,204.74,228.44,206.08,226.82,206.29Z"/><path class="cls-7" d="M152.07,246.33c2.44-.59,4.35.61,6.26,1.84l-4.3.4Z"/><path class="cls-2" d="M223,218.55l-1,.91Z"/><path class="cls-10" d="M266,294.22c-.77,1.73-2,3.53-3.95,2.8-1.83-.66-.23-2.59-.39-3.92-1.39-11.64,5.31-20.37,10.46-29.69,1.45-2.63,3-3.61,5.76-2.05,2,1.89,4,.55,6,0,5.75-1.69,11.38-4.28,18.44-2.63l-4.39,1.9c-1.54.58-3.11,1.08-4.6,1.76-7.28,3.3-7.27,3.32-1.16,8.61-2.72,1.12-5.11,2.48-7.67,3.11-8.16,2-12.69,7.24-14.88,15.11a9,9,0,0,1-3.67,5.09c.15-3.37,3.17-6.22,1.79-9.86.66-.53-.44-2.61,1-1.92,2.48,1.15.56-1.1,1.18-1.23,2.76-7.1,9.93-8,15.88-10.44-1.19-2.46-5.75-2.75-2.91-5.61-6.59-3-9.25,1.54-11.86,6.31a6.13,6.13,0,0,1-1.74,1.74c-1.78,1.37-1.93,3.12-1.32,5.08l-1.2.2c-1.29.51-.77,1.92-1.39,2.77a2.19,2.19,0,0,0,.06,2.86c.68,2.72-.48,5.16-1.21,7.65C263.77,293.52,264.32,294.21,266,294.22Z"/><path class="cls-11" d="M180.8,181.44c-.67,1-1.73,1.08-2.78,1.2-5.38-2.68-11.42-2.7-17.09-4.17-3.23-.61-6.43-1.42-9.69-1.76-6.74-.71-6.61,4.36-7.11,8.81-.51,7.46-3.59.16-5.27.91l-.8-.93,0,0c-.53-4.05,2.44-8.69-2-12.08-2-1-1.55-3.51-2.87-4.95-.07-2.29-.15-4.57-.22-6.85,1.08-.75.66-1.65.34-2.63a36.78,36.78,0,0,0-4.42-8.45c.08-.95.17-1.89.26-2.83,3.38-3.42,2.77-7.83,3-12,2.19-1.7,1.51-3.79.83-5.88l3.22-.1,2.39,1a7.15,7.15,0,0,1-.06,3.89c-1.06,5.45-2.49,10.85-1.61,16.53.33,2.16,1.21,4.36,2.85,4.89,2.14.7,3.31-1.7,4.21-3.43,2.28-4.36,5.35-8.52,4.09-13.93.5-.8.89-1.72,2.06-1.72.12.95.25,1.9.38,2.85-.44,5.57-3.17,10.48-4.57,15.77-3.17,2.36-2.68,4.66.1,6.92a11.91,11.91,0,0,0,7.85,2l.19,3.14v0c-2.5.1-2.46,2.31-2.6,3.77s1.56,1,2.58,1.13c5.07.57,9.6,3.89,15,2.94Z"/><path class="cls-14" d="M164,191.3a23.22,23.22,0,0,0-3.07,9.25c-.51,5.22,1.74,7.57,6.54,8.59,3.33.71,6.87-.37,10.08,1.46a3,3,0,0,0,2.82-.5c3.64-3.87,8.34-5.73,13.22-7.21,6.28-1.91,8.58-7.75,12.53-12a15,15,0,0,1,6.84-4.39l.08.08c-2.26,8-7.48,14.33-12.45,20.77a2.87,2.87,0,0,1-2.6,1.12c-.26-.53-.45-1.45-.79-1.51-1.1-.19-1.08.81-1.19,1.57l0,0c-3.07,2.12-6.93,1.12-10.21,2.7-6,2.9-12.17,4.91-18.61.65-1.42-.93-3.47-.92-5.23-1.34a1.39,1.39,0,0,0-.16-.35c-.05-.06-.17,0-.26-.07l.47.38c-.3,1.53,2,3.19.19,4.48s-3.27,0-4.44-1.59c-.7-.94-1.35-.45-1.78.42l-1-.32c0-.5-.15-1.18.11-1.47,4.81-5.39,2.78-9.77-1.93-13.82a3.69,3.69,0,0,1-1.17-2.66,4.45,4.45,0,0,1,2-4.3,1.71,1.71,0,0,1,2.58.6c1.85,3.14,3.3,2.12,4.93-.2C162.07,190.84,163,190.19,164,191.3Z"/><path class="cls-11" d="M164,191.3c-1-1.11-1.93-.46-2.47.31-1.63,2.32-3.08,3.34-4.93.2a1.71,1.71,0,0,0-2.58-.6,4.45,4.45,0,0,0-2,4.3,3.69,3.69,0,0,0,1.17,2.66c4.71,4.05,6.74,8.43,1.93,13.82-.26.29-.08,1-.11,1.47-6.25-1.23-3.66-6.77-4.83-10.34-1-3-.66-6.51-3.08-9.1-.55-.59-1.24-1.64-.24-2.05,3.32-1.36,1.81-4.13,2.12-6.37,1.58-3.11,1.33-8.12,7.14-6.86l-1,3.65c-.19-.18-.51-.53-.56-.5-.57.4-.11.62.2.86-.11,2.35,1.08,3.47,3.3,4.12,2.61.76,5.09,1.94,7.63,2.94C165.71,190.94,165.05,191.35,164,191.3Z"/><path class="cls-11" d="M156,213.78c.43-.87,1.08-1.36,1.78-.42,1.17,1.58,2.58,2.92,4.44,1.59s-.49-2.95-.19-4.48l-.05,0c1.76.42,3.81.41,5.23,1.34,6.44,4.26,12.58,2.25,18.61-.65,3.28-1.58,7.14-.58,10.21-2.7-2.13,5.56-7.27,7.58-11.94,10.17-.36-2.69-2.44-2.28-4.18-2.19-5.74.27-11.48.74-17.23.93C159.89,217.5,157,217.34,156,213.78Z"/><path class="cls-2" d="M156.16,178.74c-5.81-1.26-5.56,3.75-7.14,6.86l-4.89-.08c.5-4.45.37-9.52,7.11-8.81,3.26.34,6.46,1.15,9.69,1.76l-1.85.23-1.12,0Z"/><path class="cls-11" d="M175,222.42a6.66,6.66,0,0,1-4.57,2.6c-5.64,1-8.8,4.44-10.67,9.48l-1.77-.09c-.67-4.39,1.64-7.2,5.23-9S170.72,221.88,175,222.42Z"/><path class="cls-12" d="M155.17,229.43c-3.11-3-1.28-6.57-1.14-10C156,222.62,154.57,226.14,155.17,229.43Z"/><path class="cls-12" d="M138.11,188.48c-.23.15-.65.45-.66.44-.53-.71-.09-1,.52-1.32C138,187.89,138.06,188.19,138.11,188.48Z"/><path class="cls-12" d="M138.06,185.5l.8.93a3.74,3.74,0,0,0-.8.33Z"/><path class="cls-13" d="M89.05,274.31,91,274.2c0,.52.08,1,.13,1.56a3.25,3.25,0,0,1-1.89,2.57C87.18,277.08,88.62,275.67,89.05,274.31Z"/><path class="cls-12" d="M92,273.33c.94-1.49,2.46-1.84,4-2C95.2,272.9,94,273.82,92,273.33Z"/><path class="cls-12" d="M91.11,275.76c0-.52-.09-1-.13-1.56l1.1-.9C92.57,274.44,91.73,275.05,91.11,275.76Z"/><path class="cls-11" d="M221.32,138.67l-.09-9.94a1.7,1.7,0,0,0,.46-2.13l.48-3.8a4.72,4.72,0,0,0,1-.07l1.77,2.87c.89,2.81-2.23,5.72.17,9.05,2.06-4.11,1-8.41,2.92-12,3-.14,2.68,2.11,3.1,4,.27,1.17.62,3,2.32,2.71s3.26-1.07,3.43-3.06a41.32,41.32,0,0,0-.05-4.45c.85-5.71-1.87-11.66,1.18-17.21,3.08,1.69,1.68,4.61,1.95,7.07-.45,1.81-2.8,4,1,5l.93,1c.72,3.46-1.23,7,.65,10.54.71,1.32-1.76,1.78-1.66,3.22l0,.15-1,.87-2,1.7-2.08,1c-1.26-.23-1.84.21-1.55,1.53l-.19-.05c-2-.16.21-3.63-2.55-3.17-1.88.32-1.93,1.73-2.15,3.22a2,2,0,0,1-2.53,1.67c-3.06-2.3-2.32,2-3.9,2.25Z"/><path class="cls-14" d="M226.81,138.48a2,2,0,0,0,2.53-1.67c.22-1.49.27-2.9,2.15-3.22,2.76-.46.58,3,2.55,3.17-.06.67-.11,1.34-.16,2-2.54-1.81-3.81-1.1-3.89,1.95l-1,2.81c-.82.14-1.61.37-1.84,1.31A101.5,101.5,0,0,0,224,161.43l-1.16,2.26c-1.44.3-2.94,1-4.3.82-2.47-.37-4.79-1.31-2.47-4.52a22.21,22.21,0,0,0,3-7.25c1.24-2.43,3.47-4.86.1-7.35-.21-2.54-.48-5.1,2.17-6.72l1.59,2.06c-.15,1.29-.19,2.61-.46,3.88-.24,1.11-1,2.48.7,2.75a2.16,2.16,0,0,0,2.22-2.23C225.16,142.7,226.69,140.76,226.81,138.48Z"/><path class="cls-16" d="M224,161.43a101.5,101.5,0,0,1,3.12-16.59c.23-.94,1-1.17,1.84-1.31a13.18,13.18,0,0,1-1.52,7.54c-.7,1.45-1.09,3.34,1.73,3.33,6,0,6.76.83,6.8,7.22-2.65.42-5.52-.89-8,1A6.06,6.06,0,0,1,224,161.43Z"/><path class="cls-14" d="M236,150.65c.8-2.73,2.35-5.65-1.91-7l0-.05c0-.39.09-.78.14-1.17l1.34-1.75,3.23,1.18c.12,1.58.24,3.17.35,4.76-.18,2-.49,3.89-3.08,4.06Z"/><path class="cls-16" d="M234.06,143.65c-.34,3.41,1.57,7.95-4.81,8.34,2.91-2.14,1.22-6.56,4.77-8.39Z"/><path class="cls-11" d="M235.5,140.68l-1.34,1.75a4.11,4.11,0,0,0-4.17-1.71c.08-3.05,1.35-3.76,3.89-1.95l1.51.44Z"/><path class="cls-16" d="M235.39,139.21l-1.51-.44c.05-.67.1-1.34.16-2l.19.05c.86-.16,1.53-.52,1.55-1.53l2.08-1C239.78,137.26,238.93,138.91,235.39,139.21Z"/><path class="cls-16" d="M239.08,146.62c-.11-1.59-.23-3.18-.35-4.76.38-.78,1.15-2.54,1.65-1.37C241.18,142.38,242.65,145.28,239.08,146.62Z"/><path class="cls-14" d="M236,150.68l-.23.4.2-.43Z"/><path class="cls-14" d="M239.84,132.55l1-.87Z"/><path class="cls-3" d="M84.05,278.08c.56-.42,1.74-1.92,1.55-.11-.23,2.31-.42,5.21-3.34,6.36C80.24,281.5,83.76,280.25,84.05,278.08Z"/><path class="cls-2" d="M136.19,129.73l-3.22.1c-2.3-.26-3.32-1.49-2.58-3.75.86-2.59-.92-2.24-2.4-2.31h0c0-.12.12-.26.09-.36a5.8,5.8,0,0,0-.27-.69A47.66,47.66,0,0,1,128.6,112a4,4,0,0,0,2.42-2.2l3-1,2,.06a8,8,0,0,0,.85.17c.15.85.41,1.58,1.53,1.35l4.71,1.36c-1.12,2.22,5.1,3.32.92,6-3-.82-5.8-2.78-9.06-1-2.33.12-2.94,1.56-3,3.64-.07,2.42,1.66,2.41,3.27,2.7,1.28.24,2.54.56,3.81.85,0,.28,0,.56,0,.84C136.38,125.45,135.55,127.17,136.19,129.73Z"/><path class="cls-15" d="M128,123.77c1.48.07,3.26-.28,2.4,2.31-.74,2.26.28,3.49,2.58,3.75.68,2.09,1.36,4.18-.83,5.88-1.57.6-2.64,2.35-4.62,2Q127.76,130.76,128,123.77Z"/><path class="cls-13" d="M127.52,137.74c2,.32,3-1.43,4.62-2-.22,4.2.39,8.61-3,12A11,11,0,0,1,127.52,137.74Z"/><path class="cls-15" d="M131,109.79a4,4,0,0,1-2.42,2.2c-.66-2.15,1.29-3.43,1.74-5.2C131.24,107.64,130.93,108.76,131,109.79Z"/><path class="cls-15" d="M130.93,95.74c0,2.69.72,5.44-.59,8A17.75,17.75,0,0,1,130.93,95.74Z"/><path class="cls-15" d="M127.81,122.72a5.8,5.8,0,0,1,.27.69c0,.1-.05.24-.09.36a5.06,5.06,0,0,1-.43-.7C127.53,123,127.72,122.84,127.81,122.72Z"/><path class="cls-11" d="M149.94,246.48c-3,0-3.84-1.68-3.66-5.14l3.77,5Z"/><path class="cls-7" d="M380.88,401.5c-3.78-1.13-8.48-1-9-6.59,3.06.95,5-2.63,8-1.92l-.05-.06c.47,2.31.93,4.61,1.4,6.91C381.15,400.39,381,401,380.88,401.5Z"/><path class="cls-7" d="M379.93,393l.45-.4c0,.09-.05.22-.12.26a1.17,1.17,0,0,1-.38.08Z"/><path class="cls-12" d="M136.06,173.45c4.48,3.39,1.51,8,2,12.08-3.54-1.79-3.89-3.46-2.25-7.15C136.47,177,136,175.11,136.06,173.45Z"/><path class="cls-7" d="M224.93,125.6l-1.77-2.87-.12-3c0-.67.05-1.35.08-2,1.82-3.08.5-5.64-1.38-8.1l-.11-1c1.92.66,2-1.72,3.21-2.12.32.3.71.49.76.74,1.12,5.45,1.11,5.45,6.35,1.65.47.39-.37,2.44.94,1.36,2.57-2.12,2.22-5.36,2-8.38l2.08-2.06c1,.5,1,1.36.86,2.28l-.24.24.47.47,0,0v1.92c-3.05,5.55-.33,11.5-1.18,17.21-3.74.25-1.64-2.56-1.72-3.78-.23-3.66-1.38-3.91-4.23-2-1.78,1.22-3.11,2.38-3,4.67C224.47,120.88,225.42,123.68,224.93,125.6Z"/><path class="cls-13" d="M238,102.8l-.47-.47.24-.24A5.36,5.36,0,0,0,238,102.8Z"/><path class="cls-14" d="M241,116.73c-3.81-1-1.46-3.16-1-5C243.51,112.77,241.73,114.85,241,116.73Z"/><path class="cls-1" d="M384.19,385.25c-.28.25-.77.75-.82.71-.55-.45-.72-1-.05-1.49Z"/><path class="cls-11" d="M224,161.43a6.06,6.06,0,0,0,4,1.15c.62,1.4,2,.91,3.09,1.3-.27,1.18.34,2.54-.73,3.56-3-.23-6.64.77-7.49-3.75Z"/><path class="cls-13" d="M121.22,116.86q-.1-3-.19-6.06C123.45,112.75,123.88,114.76,121.22,116.86Z"/><path class="cls-16" d="M229.59,198.44,227,200.69c.41-7.06-1.17-14.21.94-21.2,2.08,2.76.62,5.91,1,8.86.25,2-.45,4.26,1.4,5.9l-.54,1.25c-.12.1-.35.24-.34.3a3.91,3.91,0,0,0,.34.75Z"/><path class="cls-10" d="M229.8,196.55a3.91,3.91,0,0,1-.34-.75c0-.06.22-.2.34-.3Z"/><path class="cls-2" d="M190.64,248.17c-3.6,3.93-5.86,8.89-9.91,12.93C180.69,256.28,184.39,251.24,190.64,248.17Z"/><path class="cls-2" d="M206.36,239a22,22,0,0,1-8.66,8.88C199.48,243.85,202.67,241.18,206.36,239Z"/><path class="cls-2" d="M183.39,267.44a.94.94,0,0,1,1.53-.59c.67.38,1.76.52,1.57,1.6-.13.77-.9.87-1.58.65A1.86,1.86,0,0,1,183.39,267.44Z"/><path class="cls-3" d="M247.13,306.3c-.18-1.18-.32-2.34.87-3.14a1.93,1.93,0,0,1,1.83,2.72C249.31,307.81,248.09,306.47,247.13,306.3Z"/><path class="cls-4" d="M133,271.29c2.07,0,6.35-2.84,4,3-1.1,2.27-1.44,5.05-4.21,6.19l-1.79-.27,0,0-2-1.06C130,276.37,129.61,272.9,133,271.29Z"/><path class="cls-12" d="M117.18,296c3.49-1,4.93-3.93,6.67-6.68.91-1.44,1.25-3.4,3.19-4.06-.36,4.26-3.27,7.31-5.2,10.82C120.29,295.77,118.69,298.78,117.18,296Z"/><path class="cls-15" d="M131,280.24l1.79.27c.22,2.37-.7,4.34-2.69,7.52C130.55,284.47,130.79,282.36,131,280.24Z"/><path class="cls-15" d="M129.07,279.22l2,1.06c-1.14.08-2.44-.26-3.05,1.17l-2-.2C126.08,279.13,127.63,279.25,129.07,279.22Z"/><path class="cls-15" d="M129.45,289.63a1.92,1.92,0,0,1-.14-.54s.22-.07.33-.1Z"/><path class="cls-12" d="M127,285.3l0-2C128.46,284,128.09,284.64,127,285.3Z"/><polygon class="cls-15" points="123.37 299.73 123.63 299.63 123.59 299.89 123.37 299.73"/><path class="cls-15" d="M164.36,374l.62-.52.59.92c-.26.1-.55.33-.77.27S164.51,374.21,164.36,374Z"/><path class="cls-2" d="M114.08,382.9c-2.27-2.66,0-6-1.76-9.68-.17,2.74-.3,4.68-.42,6.62-1.59-2.42-.55-5.11-.77-7.66,2.38-1.44,4.18,2,6.72.25-2,3.41-4,6.19-3.84,9.84A4.5,4.5,0,0,1,114.08,382.9Z"/><path class="cls-15" d="M105,362.92c0,2.09.06,4.18,0,6.27,0,1.17-.39,2.48-1.88,2.3-1.3-.15-1.13-1.5-1-2.36.42-2.14,1-4.23,1.6-6.34Z"/><path class="cls-2" d="M108,378l.74,1.06-.37.25-.36-1.31Z"/><path class="cls-2" d="M116,285.22l.49-.38-.38.49Z"/><path class="cls-3" d="M116.08,310.39c1.91.07,3.11-1.46,3.71.13.46,1.23-.6,1.59-1.72,1.12A20.46,20.46,0,0,1,116.08,310.39Z"/><path class="cls-3" d="M357.45,390.91c-.73,1.77,1.61,3.28.43,5.09-1.48-.22-2-1.56-2.64-2.55C353.31,390.44,355.25,390.5,357.45,390.91Z"/><path class="cls-13" d="M91,378.92c0-.3.07-.6.09-.91l2,0c-.12.35-.23.71-.34,1.06H91.2Z"/><path class="cls-12" d="M91.2,379.11h1.56c.13.68.28,1.37-.67,1.6Z"/><path class="cls-13" d="M320,295.91c0-2.17,3.06-1.13,3.3-3.1-1.26-2-4.58-1.06-5.36-3.73l3.06-1.64,2-.18c-1.46,2,.24,2.86,1.5,3.79a13.31,13.31,0,0,1,5.45,8.21l0-.06C326.85,301.08,321.59,299.34,320,295.91Z"/><path class="cls-15" d="M334,304.12c2-.33,2.26-1.59.62-2.35-3.11-1.46-2.72-4-2.7-6.52,2.13,3.14,5.58,5.25,7,8.95-1.69.11-3.34,2.34-5.08.1Z"/><path class="cls-3" d="M338.86,305.35l3,.93c.39,2.91.28,5.43-3.8,4.86l-1.32-1.83A5.05,5.05,0,0,0,338.86,305.35Z"/><path class="cls-15" d="M333.86,304.3l-1.28-.39c.14-.17.36-.52.38-.51.37.22.71.47,1.06.72Z"/><path class="cls-13" d="M329.91,299.26l.43.15-.38-.21Z"/><path class="cls-3" d="M353.09,383l-1.16-1.08C352.85,381.73,352.94,382.4,353.09,383Z"/><path class="cls-3" d="M318.89,315.18l1.08,1.05C319.22,316.28,318.61,316.18,318.89,315.18Z"/><path class="cls-3" d="M330.19,350.35c-.23.14-.56.46-.67.39-.54-.31-.3-.7,0-1C329.77,349.91,330,350.13,330.19,350.35Z"/><path class="cls-16" d="M180.8,181.44,169,175.5c-1.36-3.67-6.24-1.41-7.88-4.63l.11-.17c2.33-1.07,4.43-2.21,7.24-.55,1.89,1.12,3.9-.12,2.9-2.57-1.14-2.83-.92-4.83,1.45-6.82a2.91,2.91,0,0,0,.95-3.18c-2.41-5.45-4.53-11.58-10.4-13.93-4.36-1.74-5.2-3.64-3.66-7.59.4-1,.15-2.28.2-3.43.09-3.61.17-7.22.26-10.83,4.67-1.6,6.89,3.43,10.77,4-.11,2.26.89,3.27,3.19,2.82l.45,1.82-.64,1.26c-1.32.32-3.54-.63-3.63,1.47s2.32,2.47,3.65,3.59c.93,2.25,3.51,1.8,5,3.05,2.06,2.72,3.64,2.53,5.73-.28,2.33-3.15,4.48-7,9.95-4.23,3,1.49,9-3,10.21-6.69.28-.9-.05-2.13,1.17-2.51,1.58-.49,1.69,1.22,2.54,1.79,4.77,3.17,5,7.38,3.52,12.38-.59,2-.17,4.28-.11,6.43.08,2.9.12,5.33-3.62,6.55-3.42,1.11-4.49,5.39-7.74,7.39-.92.56.85,4.53.57,7.27a9.55,9.55,0,0,1-4.52,7.23c-3.3,2.33-6.92,4.19-10.23,6.51C184.38,183.08,182.7,180.91,180.8,181.44Z"/><path class="cls-16" d="M191,76.76c2,4.67,3.64,9.66,8.21,12.68,3.6,2.37,6.35,4.82,3.33,9.58-.71,1.12-.66,2.91-.49,4.35a11,11,0,0,1-3.06,9.48c-3.7-3.09-6.9-1.48-10,1.07-3.25.34-6.58-2.16-9.77.26-1.81-.38-3.65-1-5.2.63-4.47-2.87-7.91,1.83-12.15,1.69a7.71,7.71,0,0,1-6.5-3.53c-1.08-1.55-.33-3.38,1.26-4.8,2.14-1.92,4.08-2,6,.07,1,1.06,1.87,2.24,3.43,4.13.94-3.75,2.37-5.71,5.34-6.71s3-4.49,3.46-7.15a30.77,30.77,0,0,0,.07-7.43c-.3-3.36,1-5.4,4.29-6.13.93-.21,2.5-.11,2.43-1.23-.23-3.51,2.34-3.8,4.64-4.57a2.29,2.29,0,0,0,1.7-2.21Z"/><path class="cls-14" d="M143.1,111.69l-4.72-1.36c-.27-.72-.54-1.43-1.52-1.35a8,8,0,0,1-.85-.17c-.49-9.52,3.47-17.81,6.92-26.34,1.84-4.53,6.62-3,9.16-5.67L156,77c1.95,2.46,4.11-.45,6.13.24-1.81,2.64-5.09,3.23-7.37,5.3-4.15,3.76-5,8.63-2.09,13.47,2.31,3.84-1,6.75-3,8.07-3.29,2.12-3.92,4.43-3.59,7.7Z"/><path class="cls-14" d="M174.05,114.81c1.55-1.66,3.39-1,5.2-.63-3.65,4.58,1.43,3,2.85,4l-1,5.32c-2.64,1.25-7,.17-7,5.05-2.3.45-3.3-.56-3.19-2.82-1.45-2.87-1.85-5.47,1.34-7.63A3.83,3.83,0,0,0,174.05,114.81Z"/><path class="cls-14" d="M160.18,121.8c-.09,3.61-.17,7.22-.26,10.83l-3.48,2.2c-.66-1.58.31-2.76.88-4.1,2.28-5.27,1-8.75-4.07-11.18L151.86,116C156,116,158.64,118.11,160.18,121.8Z"/><path class="cls-11" d="M151.86,116l1.39,3.57-4.46,1.23c-1.58-1-3.63-1.36-4.77-3.08,4.18-2.69-2-3.79-.92-6l2.94.07a2.79,2.79,0,0,0,.76.23,7.83,7.83,0,0,0,5,3.91Z"/><path class="cls-11" d="M162.13,77.22c-2-.69-4.18,2.22-6.13-.24.35-.72.69-1.44,1-2.15l9,0,.21,1.61Z"/><path class="cls-14" d="M151.85,115.9a7.83,7.83,0,0,1-5-3.91C149.32,112.22,151.77,112.53,151.85,115.9Z"/><path class="cls-14" d="M221.63,108.62c0,.34.07.68.11,1l-1.29.15c-2.77-.53-3.37-2.13-3.52-4.94-.28-5.29-.59-10.8-5.65-14.43-3.69-2.64-.52-4.73,1.09-6.83-1.46-1.29-3-.43-4.36-.72l0,0c-4.12-1-6.33-5.67-10.94-5.74,2.86-1.83,5.85-1.36,8.91-.6,6.45,1.6,9.17,5.74,10.15,12.26.56,3.79.61,8.29,3.92,11.34a1.09,1.09,0,0,1,.16,1.69C217.47,104.77,220.43,106.5,221.63,108.62Z"/><path class="cls-13" d="M234.85,101.87c.26,3,.61,6.26-2,8.38-1.31,1.08-.47-1-.94-1.36.32-2-.78-3.87-.76-5.77s-1.75-3.63.17-5.93C232.39,99,231.31,102.51,234.85,101.87Z"/><path class="cls-7" d="M197.07,70.89c-.16-.71-1.69-1.13-1-1.71a2,2,0,0,1,2.89.74A1.85,1.85,0,0,1,197.07,70.89Z"/><path class="cls-4" d="M194,60.92c-2.07,0-3.14-1.4-4-3,0-.65,0-1.31,0-2C192.48,56.7,194,58.2,194,60.92Z"/><path class="cls-16" d="M216,205c-1,3.56,1.21,8.49-2.75,11.91-1.7,1.47-3.89,4.95-5.47-.24a1.25,1.25,0,0,0-.56-.78c-3-1.29-5.7-3.82-4.65-6.69a21.21,21.21,0,0,1,8.29-10.63C214.26,196.38,216,198.42,216,205Z"/><path class="cls-14" d="M156.16,178.74l1.8-.06c.37.62.74.7,1.12,0l1.85-.23c5.67,1.47,11.71,1.49,17.09,4.17a10.28,10.28,0,0,1-6.48,1.84c-3.71-.12-7,.12-5.79,5.33-2.54-1-5-2.18-7.63-2.94-2.22-.65-3.41-1.77-3.3-4.12a3.06,3.06,0,0,0,.36-.36Z"/><path class="cls-14" d="M189,113.92c3.09-2.55,6.29-4.16,10-1.07,2.84,2.34,6.59,3.69,8.13,7.49a3.13,3.13,0,0,1,.05,3.4c-4.91-4.72-11.11-5.42-17.3-6.13C193.08,115.56,188.7,115.29,189,113.92Z"/><path class="cls-11" d="M174.14,128.58c0-4.88,4.33-3.8,7-5.05a33.54,33.54,0,0,1,16.74,3.21c1.43.72,3,1.57,2.93,3.59-.07,1.24-1.25,1.56-2.12,1.75-1.82.4-3.21-.25-3.67-2.24-2.43-5-8.66-5.8-14-1.92-1.1.68-1.2,3.25-1.57,2.81-1.71-2-3.37.56-4.86-.33Z"/><path class="cls-14" d="M174.59,130.4c1.49.89,3.15-1.71,4.86.33.37.44.47-2.13,1.57-2.81,2-.19,4-.51,3.86,2.57-.07,1.41,1.41,1.49,2.13,2.23-.37,2.74-3.35,2.22-4.76,3.76-1,1.12-3.2,1.14-3.24,3.29-1.53-1.25-4.11-.8-5-3.05,0-1.69,0-3.37,0-5.06Z"/><path class="cls-7" d="M187,132.72c-.72-.74-2.2-.82-2.13-2.23.16-3.08-1.87-2.76-3.86-2.57,5.31-3.88,11.54-3,14,1.92C192.18,130.39,190.36,133.66,187,132.72Z"/><path class="cls-11" d="M189,113.92c-.32,1.37,4.06,1.64.87,3.69l-7.79.6c-1.42-1-6.5.55-2.85-4C182.44,111.76,185.77,114.26,189,113.92Z"/><path class="cls-16" d="M219.15,145.39c3.37,2.49,1.14,4.92-.1,7.35-2.09,0-3.82-.42-4.07-3C214.69,146.56,217,146.1,219.15,145.39Z"/><path class="cls-11" d="M220.45,109.79l1.29-.15c1.88,2.46,3.2,5,1.38,8.1C221.17,115.44,221.36,112.43,220.45,109.79Z"/><path class="cls-14" d="M223,119.77l.12,3a4.72,4.72,0,0,1-1,.07C220.31,121.17,220.84,120.23,223,119.77Z"/><path class="cls-14" d="M221.69,126.6a1.7,1.7,0,0,1-.46,2.13C219.41,127.59,220.31,127,221.69,126.6Z"/><path class="cls-11" d="M196,208.54c.11-.76.09-1.76,1.19-1.57.34.06.53,1,.79,1.51Z"/><path class="cls-14" d="M213,186.51l.47-.39-.39.47Z"/><path class="cls-14" d="M208,82.87l-.42.41c.13-.15.26-.29.4-.43Z"/><path class="cls-7" d="M268,278.34c-.61-2-.46-3.71,1.32-5.08a6.13,6.13,0,0,0,1.74-1.74c2.61-4.77,5.27-9.36,11.86-6.31-2.84,2.86,1.72,3.15,2.91,5.61-5.95,2.43-13.12,3.34-15.88,10.44C270.55,279.47,267.56,280.05,268,278.34Z"/><path class="cls-7" d="M266,294.22c-1.68,0-2.23-.7-1.73-2.4.73-2.49,1.89-4.93,1.21-7.65l2.25.24c1.38,3.64-1.64,6.49-1.79,9.86Z"/><path class="cls-13" d="M267.73,284.41l-2.25-.24a2.19,2.19,0,0,1-.06-2.86c1.54-.39,1.51-1.56,1.39-2.77l1.2-.2c-.45,1.71,2.54,1.13,1.95,2.92-.62.13,1.3,2.38-1.18,1.23C267.29,281.8,268.39,283.88,267.73,284.41Z"/><path class="cls-2" d="M266.81,278.54c.12,1.21.15,2.38-1.39,2.77C266,280.46,265.52,279.05,266.81,278.54Z"/><path class="cls-14" d="M144,117.7c1.14,1.72,3.19,2,4.77,3.08,1.79,1.59,2.14,4,3.28,5.9l-.06.07c-2.9.38-1.88,1.64-.51,2.67,1.85,1.39,2.29,2.68.27,4.22-1.93-1.37-3.64-.43-5.46.39-2,.89-3.76,1.25-2.59,4.41,1.56,4.2,3-.78,4.34.27,1.26,5.41-1.81,9.57-4.09,13.93-.9,1.73-2.07,4.13-4.21,3.43-1.64-.53-2.52-2.73-2.85-4.89-.88-5.68.55-11.08,1.61-16.53a7.15,7.15,0,0,0,.06-3.89l1.63-.68,1.28.23c3.81.84,6-.28,5.56-4.58.1-.76-.45-1-1-1.31a1.84,1.84,0,0,0-2-.7l.07-.1,2.6-1.81c-2.71,0-4.68-.15-6.61,0-3.92.38-5.5-1.37-5.14-5.14C138.22,114.92,141.05,116.88,144,117.7Z"/><path class="cls-14" d="M154.07,167.64c-.06-1-.13-2.09-.19-3.14,2.72-2.65,3.77-4.66-.85-6.87-3.26-1.56-6-3.92-1.84-8.41a17.11,17.11,0,0,0,4-10.48h1c2,3.56-.18,6.69-1.2,9.81-1.79,5.46,0,8.06,5.71,8.18,2.73.05,5.9-1.28,8.23,1.75-2.28,1.46-4.64.54-6.8,1.14-1.61.46-2.71,1.3-1.52,2.65,2.42,2.78,1,5.6.65,8.44l-.11.17c-2.38-1.92.05-5.58-2.55-7.33C156.18,164,156.59,167.37,154.07,167.64Z"/><path class="cls-2" d="M155.15,138.74a17.11,17.11,0,0,1-4,10.48c-4.13,4.49-1.42,6.85,1.84,8.41,4.62,2.21,3.57,4.22.85,6.87a11.91,11.91,0,0,1-7.85-2c0-2.3-.07-4.61-.1-6.92,1.4-5.29,4.13-10.2,4.56-15.77C152,139.27,153.44,138.44,155.15,138.74Z"/><path class="cls-7" d="M155.15,138.74c-1.71-.3-3.16.53-4.66,1.1-.12-1-.25-1.9-.37-2.86.46-1.15,1.76-1.9,1.65-3.34,2-1.54,1.58-2.83-.27-4.22-1.37-1-2.39-2.29.51-2.67.42.44.84.87,1.27,1.3.12-.2.38-.47.33-.61a1.27,1.27,0,0,0-1.54-.76c-1.14-1.94-1.49-4.31-3.28-5.9l4.46-1.23c5,2.43,6.35,5.91,4.07,11.18-.57,1.34-1.54,2.52-.88,4.1l-.27,3.9Z"/><path class="cls-8" d="M154.07,167.64c2.52-.27,2.11-3.61,4.51-4.1,2.6,1.75.17,5.41,2.55,7.33,1.64,3.22,6.52,1,7.88,4.63-5.37.95-9.9-2.37-15-2.94,0-1.63,0-3.27,0-4.9Z"/><path class="cls-8" d="M151.77,133.64c.11,1.44-1.19,2.19-1.65,3.34-1.17,0-1.56.93-2.06,1.73-1.34-1.05-2.78,3.93-4.34-.27-1.17-3.16.59-3.52,2.59-4.41C148.13,133.21,149.84,132.27,151.77,133.64Z"/><path class="cls-15" d="M140.21,130.08l-1.63.68-2.39-1c-.64-2.56.19-4.28,2.82-5C139.12,126.58,138.51,128.59,140.21,130.08Z"/><path class="cls-7" d="M145.93,155.61c0,2.31.07,4.62.1,6.92C143.25,160.27,142.76,158,145.93,155.61Z"/><path class="cls-14" d="M154.06,167.66c0,1.63,0,3.27,0,4.9-1-.09-2.72.37-2.58-1.13S151.56,167.76,154.06,167.66Z"/><path class="cls-11" d="M162.05,210.47l-.47-.38c.09,0,.21,0,.26.07a1.39,1.39,0,0,1,.16.35Z"/><path class="cls-14" d="M154.82,182.75c-.31-.24-.77-.46-.2-.86,0,0,.37.32.56.5A3.06,3.06,0,0,1,154.82,182.75Z"/><path class="cls-11" d="M159.08,178.7c-.38.68-.75.6-1.12,0Z"/><path class="cls-4" d="M227.92,120.81c-.16-2.29,1.17-3.45,3-4.67,2.85-1.93,4-1.68,4.23,2,.08,1.22-2,4,1.72,3.78a41.32,41.32,0,0,1,.05,4.45c-.17,2-1.81,2.83-3.43,3.06s-2.05-1.54-2.32-2.71c-.42-1.91-.11-4.16-3.1-4C228,122.06,228,121.43,227.92,120.81Z"/><path class="cls-13" d="M227.92,120.81c0,.62.07,1.25.1,1.87-1.9,3.56-.86,7.86-2.92,12-2.4-3.33.72-6.24-.17-9.05C225.42,123.68,224.47,120.88,227.92,120.81Z"/><path class="cls-7" d="M226.81,138.48c-.12,2.28-1.65,4.22-1.44,6.65a2.16,2.16,0,0,1-2.22,2.23c-1.68-.27-.94-1.64-.7-2.75.27-1.27.31-2.59.46-3.88C224.49,140.46,223.75,136.18,226.81,138.48Z"/><path class="cls-8" d="M235.78,135.28c0,1-.69,1.37-1.55,1.53C233.94,135.49,234.52,135.05,235.78,135.28Z"/><path class="cls-11" d="M135,116.7c-.36,3.77,1.22,5.52,5.14,5.14,1.93-.18,3.9,0,6.61,0l-2.6,1.81-5.07.27c-1.27-.29-2.53-.61-3.81-.85-1.61-.29-3.34-.28-3.27-2.7C132,118.26,132.63,116.82,135,116.7Z"/><path class="cls-4" d="M139,123.89l5.07-.27-.07.1c.34,2.41,1.23,5.12-2.81,5.13l.26,1.46-1.28-.23c-1.7-1.49-1.09-3.5-1.2-5.35C139,124.45,139,124.17,139,123.89Z"/><path class="cls-11" d="M136.86,109c1-.08,1.25.63,1.52,1.35C137.27,110.56,137,109.83,136.86,109Z"/><path class="cls-8" d="M156.17,138.73l.27-3.9,3.48-2.2c0,1.15.2,2.42-.2,3.43-1.54,3.95-.7,5.85,3.66,7.59,5.87,2.35,8,8.48,10.4,13.93a2.91,2.91,0,0,1-.95,3.18c-2.37,2-2.59,4-1.45,6.82,1,2.45-1,3.69-2.9,2.57-2.81-1.66-4.91-.52-7.24.55.33-2.84,1.77-5.66-.65-8.44-1.19-1.35-.09-2.19,1.52-2.65,2.16-.6,4.52.32,6.8-1.14-2.33-3-5.5-1.7-8.23-1.75-5.74-.12-7.5-2.72-5.71-8.18C156,145.42,158.2,142.29,156.17,138.73Z"/><path class="cls-8" d="M174,131.66c0,1.69,0,3.37,0,5.06-1.33-1.12-3.74-1.59-3.65-3.59S172.63,132,174,131.66Z"/><path class="cls-7" d="M141.49,130.31l-.26-1.46c4,0,3.15-2.72,2.81-5.13a1.84,1.84,0,0,1,2,.7l1,1.31C147.49,130,145.3,131.15,141.49,130.31Z"/><path class="cls-4" d="M147.05,125.73l-1-1.31C146.6,124.7,147.15,125,147.05,125.73Z"/><path class="cls-14" d="M152.07,126.68a1.27,1.27,0,0,1,1.54.76c0,.14-.21.41-.33.61-.43-.43-.85-.86-1.27-1.3Z"/></svg>
