<svg id="Layer_1" data-name="Layer 1" xmlns="http://www.w3.org/2000/svg" width="145.34mm" height="145.34mm" viewBox="0 0 412 412"><defs><style>.cls-1{fill:#fff;}.cls-2{fill:#dddbdb;}.cls-3{fill:#d7d4d5;}.cls-4{fill:#f1f1ef;}.cls-5{fill:#d0cbcb;}.cls-6{fill:#c7c2c2;}.cls-7{fill:#bcb8b8;}.cls-8{fill:#ada5a2;}.cls-9{fill:#e7e6e4;}.cls-10{fill:#302019;}.cls-11{fill:#e7c3a9;}.cls-12{fill:#825341;}.cls-13{fill:#d99370;}.cls-14{fill:#3f3b3b;}.cls-15{fill:#a56754;}.cls-16{fill:#bd7d5f;}</style></defs><title>latifi</title><path class="cls-1" d="M17.06,412H.12Q.11,208.12,0,4.23C0,.41,1.06,0,4.43,0Q206,.14,407.57,0c3.37,0,4.43.41,4.43,4.24q-.21,203.88-.12,407.76H393.94c-1.72-5.34-6-9-8.78-13.66a419.23,419.23,0,0,0-32.27-45.28c-11-13.52-22-26.73-30.49-42.11-5.94-10.76-13.06-21-22.06-29.72-.29-1.78-1.84-2.68-2.78-4-3.4-4.79-8.5-7.7-12.78-11.48-7-6.18-14.46-12-23.45-15.32-14.11-4.84-26.47-13.19-39.73-19.73-4.29-2.11-8.45-4.45-12.68-6.6-5.69-2.89-10.65-7.31-17.09-8.71l-6.28-4.76c-1.86-4-4.13-7.66-8.6-9.25-1.17-1.15-2.31-2.25-2.48-4.08-.53-5.55-1.56-11.07-1.66-16.62-.09-5-.32-10.26,1.94-15.06l.83.57a1.68,1.68,0,0,0,2,.24c5.38-.07,8.4-3.28,11.05-11.74l0,0,.91-2.05a2.12,2.12,0,0,0,.9-2c.46-1.15.7-2.34,1.23-3.51,3.2-7.21,3.24-14.44-1.09-21.35-3-4.85-6.64-2-10.14-.92,1.08-4.18.56-8.48.24-12.63-.57-7.41,1.9-14.8-.81-22.32-1.71-4.74-3.19-9.7-4.47-14.55-2.85-10.85-11.51-16.53-18.61-23.69-1.85-1.47-3.57-3.15-6.09-3.43-7-1.2-13.15-5.45-20.45-5.47-7.82-6-16-7.07-24.76-2l-2.58.69c-3.65.26-7.34.42-10,3.48-5,.62-7.48,4.34-10,8.07-6,3.81-9.52,9.45-12,15.92-2.57,5-2.32,10.88-4.74,15.94-.25,2.64-2,5.14-.78,7.92a125,125,0,0,0,2.36,31l0,3c-2.58,0-5.19-2.39-7.72.12-1.73.19-1.73,1.3-1.36,2.59a3.85,3.85,0,0,0-2.13,4.15c.47,5.37-.38,11,2.37,16a7.61,7.61,0,0,0,1.87,5.09l1,2a16.5,16.5,0,0,0,1.1,2.74c2.6,4.19,3.14,11,10.92,8.81A1.42,1.42,0,0,1,75,169c2.24,5.08,5.64,10,6.39,15.31,1.91,13.4,4.68,26.57,7.89,39.68l-.36,3.43c-2,1.56-.51,4.32-2.1,6l-10,6,0,0a59.13,59.13,0,0,0-13.9,7c-9.65,2.79-17.84,8.33-26,14a32.18,32.18,0,0,0-10,12c-1.51,2-1.95,4.47-2.45,6.88a108.69,108.69,0,0,0-1.89,18.31c-.34,10.53-1.81,20.95,1.62,31.35,1.63,4.95,3.49,10,3.77,15.29h0c-1.78,6.63,1.16,11.92,4.86,17l3.12,5Q35,372,34,378l-1.89.2c.19-4-1.87-7.16-4-10.26,0-1.82-.61-3.41-2.15-5.83.63,3.75-.68,6.28-.87,9l-1.92,13.08c2.32-2.27,1.47-6.06,5-7.28l.91.14,1,1.08-.2,2-.8,1-.9.91c-.35,1.59-.76,3.18-1,4.79-.2,1.17-.3,2.51-1.59,2.8-1.94.44-.86-2.16-1.67-2.38C20,395.07,19.25,403.72,17.06,412Z"/><path class="cls-2" d="M36.94,260.38c8.13-5.63,16.32-11.17,26-14,4.6,1.41,11.58-2.12,13.89-7l0,0c2.33,0,4.93.3,3.86,3.36-2.13,6,.49,9,5.86,10.78,1,.3,1.16,1.07,1.27,1.91-3.14,3.2-6.2,6.48-10.57,8.15-1.11.42-2.42,1.15-2.37,2.78-.33,0-.66,0-1,0-.41.26-1.83-.51-1,1-.48,1.46-2.72,2.41-1.49,4.33.59.92,1.78.64,2.76.43,11.78-2.48,23.72-3.37,35.72-3.8,3.35-.12,6.39-1.48,10.57-3.41-5.14-.62-8.76-1.81-12.76-.15-3.55,1.48-7.52.49-11.3.5a1.94,1.94,0,0,1-2.12-1.7c-.14-1.5,1-2,2.22-2.1a7,7,0,0,1,3,.06c3.82,1.35,6.66-1,9.73-2.4a2.71,2.71,0,0,0,1.53-2.88c-.15-1.93-1.63-1.75-2.93-1.84-.06-.64-.13-1.28-.19-1.91,1.73-1.86,3.57,1.45,5.31-.13a9.6,9.6,0,0,1,4.1-4.13c5.41-2.65,10.79-5.46,15.47-9.47-5.84,1.14-11.53,2.6-17.16,4.23-3,.85-4.45,0-4.72-3.08q.68-2.4,1.34-4.82c7.09.61,13.35-2.35,19.78-4.57,2.62-.24,5.06-1.66,7.8-1.24,6,9.1,12.41,17.93,20.14,25.72a15.62,15.62,0,0,1,2,3.37c-.5,1.08-2.67,1.54-1.58,3.15s3,.61,4.6.82c4.39,1.88,5.24,6.23,7,10-2.14,4.62,2.7,7.58,2.89,11.91.13,3.11,1.59,8.18.09,11l-4.09-.16c-1.87-1.24-3.69-3-6-.63-1.73-.05-3.52-.69-5.08.62-1.36-.07-2.08,1.09-3.12,1.63l-2-.38a6.63,6.63,0,0,0-.83-1.23c-2.61-2.44-5.74-2-8.83-1.44-.56.11-2.39,10.67-2,11.08s.95.68,1.24.55c3.23-1.37,6.44,1.9,9.63,0l2.85,0,3.37,1.52a1,1,0,0,0,1.63,0l1.38-.66,2.3-1,2.83.21c.73,2.61,2.82,1.72,4.55,1.77.91,1.4,1.93,1.53,3,.25l4,.36c.23,1.57-.64,3.41,1.12,4.61a20.7,20.7,0,0,1-4.07,5.95h-4.36c.13-1.3.33-2.61.35-3.91,0-1,.78-2.59-.94-2.8s-1.5,1.46-1.78,2.47c-.57,2,.05,4.31-1.19,6.23l-2.43-.83-2.64-.32-.12-2.12c-2.32-1.41,1-5.74-1.77-5.47-2.35.23-1.58,4.37-2.21,6.77l-.26,1-2.68,0c-5.4.14-3.84-3.44-3.42-6.41.13-.92.74-2.1-.71-2.4s-1.61.8-1.76,1.84c-.1.65-.22,1.3-.33,2l-4.34-.18c-.4-1.44,2.43-4.92-2.29-3.66-3-2-6.09,1.34-9.1-.14l-.2-.19.08-.27c0-1.36.72-3.57-1.58-3.19-2.09.34-4.59,1.35-5.81,2.91s.74,2.73,2.43,3.2c-2.25,1.87-.11,4.27-.76,6.34.16,3.3-2.69,4.8-4.49,6.64-2.49,2.57-1.18,3,1.11,3.9,2.54,1,5.68.52,7.57,3.08,1.46,1.88,1.46,1.88,3.28-1.1,1.5,1,1.32,3.93,4,3.41l2.54.1-.05,0c3,4.27,4.4,10.15,10.91,11,1.93.26,3.65,1.34,3.7,3.41s-2.08,2.27-3.6,2.73-2.89.6-4.32,1c-3.92,1-6,8-3.3,10.95,5.56,6,13.09,10.2,16.92,17.89.5,1,1.81,1.71,1.18,3-.76,1.55-2.28,1-3.53.86-1-.12-1.89-.63-2.86-.75-2.42-.3-3.63.4-2.2,3,.95,1.72,3,3.78,2.61,5.15-1.69,6,2.41,4.62,5.43,4.73,1.16,0,2.32,0,3.49,0,.85,0,1.82.11,1.9,1.1,0,.5-.54,1.2-1,1.55a33.85,33.85,0,0,1-21.7,6.83c-4.18-.21-5.49.79-5.7,4.47H75.89c.09-4.69-2.83-7.89-5.63-11.08-3.69-4.22-7.9-8.28-6.23-14.59a20.47,20.47,0,0,0-.11-10.14c3.77.32,5.59-1.16,5.26-5.19-.16-1.91.39-3.89.62-5.83,2-.93,3.22-3.48,6-3.05,3.5.54,5.28-2.38,5.53-4.56.55-4.62,1.85-8.36,6.92-10.33-3.81-2.08-5.19-.2-6.66,1.69-2.83,3.63-6.73,5.32-11.18,5.93,1.2-3.3-1.7-5.06-2.81-7.49,5.09-1.13,6.49-3,5-8.39-.88-3.1-.52-5.36,1.74-7.45l3.71-.25h1.74c.48.07,1,.17,1.45.21,2.64.21,4.86.84,5-3.58.14-4.9-3-2.26-4.49-2.48a15.85,15.85,0,0,0-8.61,1.24c-.59-4.14,1.29-8,1.28-12.2A3.36,3.36,0,0,1,80,312.14c1.55,1.13,2,4.32,5,2.41,1.9-1.26,2.63-3.35,3.14-5.48s.25-5.67,1.6-6.48c6-3.65,3.84-9.24,4.13-14.24.12-2-1.71-4-.19-6.18,1.86-2.71,4.1-.92,6.25-.94a4.65,4.65,0,0,0,4.54-3.86c.32-1.34-1.33-2.3-2.31-1.88-4.5,2-7.78-.28-11.32-2.53-2-1.26-4.47-.71-6.77-.15-4.64,1.11-9.21,2.57-14.06,2.56,0-1.1.18-2.29-1-3a15.38,15.38,0,0,1,.37-3.42c1.35-4,.42-5.16-3.73-4.5-1.87.3-3.23,1.59-4.83,2.39-2.26,1.14-3.16,3.91-5.83,4.45s-3.49,2.28-4,4.88c-1.21,5.54-2.9,10.83-9.34,12.95-5.69,1.86-8.57.32-8.37-5.87.12-3.6,0-7.17-.15-10.75a10.13,10.13,0,0,1,2.31-7.29C36.19,264.11,39.1,262.84,36.94,260.38Zm118.75-5.26c-11.3-.25-21.14,3.61-31.39,5.2C128.19,261.46,152.28,257.41,155.69,255.12Z"/><path class="cls-3" d="M308.2,412h-4c-4.46-5.87-8.53-12.09-13.49-17.5-3.35-3.65-5.34-8.81-10.59-10.58a7.37,7.37,0,0,0-1.53-5.33c-1.71-2.64-4.52-4.07-6.21-6.62-.56-2.81-2.9-4.17-4.81-5.89-.3-2.16-2.34-3.12-3.31-4.82-4.16-8.38-9.83-15.8-15.08-23.48-.28-.41-1.2-.4-1.82-.59l-1-3c1.79-1.71.09-2.26-1-3-1.77-1.3-1.79-3.47-2.58-5.25-.35-.8-.5-1.78.36-2.2s1.51.31,1.91,1.1c.69,1.33,0,4.18,2.24,3.67s.67-3.16,1.08-4.81c.11-.48,0-1.09.19-1.46,1.58-2.38,2.76-4.89-.23-6.87-2.32-1.53-1.77-5.47-4.88-5.87-4.22-.54-2.37-2.31-1.13-4.12a17.1,17.1,0,0,0,1.38-2c.55-1.11,2.09-2.29,1-3.48s-2.35.15-3.33,1a14.57,14.57,0,0,1-6.44,3.21c-.28-2.75,1.51-3.55,2.85-4.7,1-.87,2.15-1.94,1.2-3.36a2.81,2.81,0,0,0-3.48-1.19,4.39,4.39,0,0,1-4.59-.66c-5.27-3.82-12.08-2.69-17.93-5.18-1.93-.82-4.83-.28-6.75-2.38-.66-.73-2.12-1.55-2.34-.28-.59,3.31-3.73,5.67-2.76,9.66s1.18,8.25-2.66,11.31l-2.18-3.39c0-.32-.15-.71,0-1,3.17-6.83,3.17-6.83-4.72-6.75a4.9,4.9,0,0,0-1,.24l-1-.05c1.55-2.06.2-3.77-.75-5.45-2.11-3.73-4.09-7.56-6.53-11.07-5.43-7.79-9.23-16.6-16-23.64-4-4.13-8.54-8.2-10.56-14,1.4.13,3.61,1.58,2.91-1.76-.77-3.69-1.53-7.37-2.59-12.51-.4,3.61-.75,5.72-.82,7.84-.08,2.28-.84,3.81-3.3,4.05-1.65-4.57-6.1-7.51-7.21-12.39,6.21-3.26,12.54-6.34,17.94-10.94l2.78-1.12c3.16.28,2,4.17,4.33,5.16l-1.25,2.93-1.3.23c-1.79-.8-3.62-.91-5.09.47-1.2,1.13-4.38,1.31-2.69,4.15,1.59,2.67,3.49,5.17,5.31,7.7.47.64,1.13,1.23,2.05.61,1.19-.81.46-1.71.13-2.59.45-.48.89-1,1.33-1.46,1.64.14,3.52,1.29,4.53-1.11,2.08.07,4.17.12,6-1.12,1.32-.89,2.49-1.86.3-3.12-.13-2.58,1.78-2.54,3.51-2.75,1,1.62,2,.27,3,0,2.66-1.37,5.32-2.21,8,0a2,2,0,0,0,1,2c.14,4.12,4.24,3,6.33,4.5,6.25,4.34,7.12,12.2,12.21,17.18.84.82-.73,1.81-.75,2.49-.07,2.64-5.88,5.6.39,8,4,1.51-1.74,7.76,4,8.63.16,0,.32.09.48.13a3.29,3.29,0,0,1,2.25,2.38c2.17,5.58,7.53,7.5,12.34,9.28,3.07,1.14,6.14,2.07,8.82,3.93a102.05,102.05,0,0,1,19.81,18.22c5.82,6.88,10.83,13.84,13.57,22.39,1.78,5.58,1,7.11-4.33,9.56-3.48,1.61-4.52,4-1.74,7.18-.11.79-.23,1.59-.35,2.39a21.16,21.16,0,0,0-.1,4.42c.6,3.32,2.12,4.8,5.1,1.83,3.2,4,3.19,4,6.86.22a.93.93,0,0,1,.78-.22c3.11,1.33,4.28-1.47,6.11-2.85,5.57,1.17,7,3.54,6.94,11.79-4,2.35-4.12,5.71-2.47,9.53.26.73.45,1.52,1.36,1.74l2,1.45c.1.5.19,1,.29,1.52l-.18,1.9c-.79.34-.8.67,0,1l1.46.11c-.31.35-.63.69-1,1-.74.49-.51,1.07,0,1.46s1.14.24,1.42-.48c2.65-.68,2.09,1.84,2.9,2.95,1.54,2.14.88,5.57,3.95,6.85,3.43,2.6,2.65,6.78,3.58,10.24C307.92,402,310.49,406.8,308.2,412ZM187.54,231.45l-.41.43.44-.39.4-.44Zm-3,1c-2-1.74-2.45,0-2.86,1.39-.19.63-.46,1.82.79,1.83a2,2,0,0,0,2.08-2.19C185.23,233.15,185.3,232.81,184.56,232.47Zm16.3,13.61c.88.27,1.81.45,2.15-.52s-.41-1.58-1.21-1.84c-2-.65-4-1.76-6.19-1.11-1.45.42-2.31,1.47-1.81,3s1.64,2.11,3,.95A3.28,3.28,0,0,1,200.86,246.08ZM171,236c2.19,1.88,3.77,1.21,4.94-1.19Zm9,1.93c-1.7-.65-2.5.05-3,1.12-.11.22.34,1,.55,1C178.84,240.08,179.48,239.21,180,237.88ZM306.05,407c-.53-.38-.86-.79-1.2-.8s-1,.26-1.11.54c-.23.79.41,1.11,1.07,1.05C305.17,407.78,305.5,407.4,306.05,407Z"/><path class="cls-3" d="M174.61,295.24c1.5-2.82,0-7.89-.09-11-.19-4.33-5-7.29-2.89-11.91,5.83,7.11,10.05,15.19,14.12,23.36-.66,1.23-1.83,2.37-.61,3.9s2.15.62,3.36.05c.5-.23,1.37.33,2.07.53,1.75,1.59.92,3.69.78,5.47-.19,2.62,1.16,3,3.13,2.95-.25,3.18,2.88,5,3.2,7.92-4.68,5-4.54-3.32-8.16-2.56.72,2.95-2.55,6.88-.17,8.77,1.7,1.36,6-.6,8.73-2.47.82,1.71-.88,5.31,3.21,3.87l16.19,18.06c1.66,5.24,1.34,9.19-5.62,9.45-1.31,0-3.43,1.8-1.05,2.87,3.54,1.58.91,2.23.37,3.93-1.4,4.47-2.92,8.4-8,9.68-.12,0-.23.24-.29.38-2,4.7-5.13,3.36-7.9,1.22-2.24-1.73-3.78-1.07-5.75.19-2.73,1.74-3.7,4.44-4.94,7.19-.87,1.94-3,5.51-4.31,4.49-2.36-1.86-5.9-2.59-7.1-5.69-.33-.84.95-2.37-.92-2.66s-2.25.74-1.77,2.42c.19.68-.31,1.21-1.09,1.35-1.47.24-3.36.34-3.06,2.39.24,1.64,2.28,1.71,3.43,2.58,5.95,4.5,15.62,4.23,17.4,14.23.56,3.09,1.13,5.82-1.62,7.43-3.5,2.05-4,4.89-3.7,8.37H140.69c.21-3.68,1.52-4.68,5.7-4.47a33.85,33.85,0,0,0,21.7-6.83c.49-.35,1.07-1.05,1-1.55-.08-1-1.05-1.09-1.9-1.1-1.17,0-2.33,0-3.49,0-3-.11-7.12,1.31-5.43-4.73.38-1.37-1.66-3.43-2.61-5.15-1.43-2.6-.22-3.3,2.2-3,1,.12,1.89.63,2.86.75,1.25.15,2.77.69,3.53-.86.63-1.29-.68-2-1.18-3-3.83-7.69-11.36-11.85-16.92-17.89-2.68-2.92-.62-9.92,3.3-10.95,1.43-.37,2.91-.55,4.32-1s3.66-.6,3.6-2.73-1.77-3.15-3.7-3.41c-6.51-.88-7.88-6.76-10.91-11,2.92-.92,5.83-1.89,9.47.8-1.12-4.28-1.93-7.36-3-11.54-2.47,4.15-4.43,7.46-6.4,10.78l-2.54-.1c.12-2-1.23-3.9.63-6,1.48-1.68.81-4-1.65-4.62-2.1-.52-4.7-1.27-4.84,2.63-.07,1.91-.95,3.79-1.45,5.69-1.89-2.56-5-2.11-7.57-3.08-2.29-.87-3.6-1.33-1.11-3.9,1.8-1.84,4.65-3.34,4.49-6.64,2.91.05,2-3.91,4.56-4.29l1.8,4.72c.27-1.88,3.21-3.72,1.49-4.83-2-1.31-1.79-2.75-2-4.4,3,1.48,6.1-1.84,9.1.14a16.45,16.45,0,0,0-.15,3.42c.37,2.25-2.34,5.95.25,6.33s1.19-4,2.19-6.09l4.34.18a31.63,31.63,0,0,0-.43,3.35c0,1.28-1.18,3.38,1.21,3.38,1.83,0,4.7,2.09,5.44-1.72l2.68,0c1.9,3.2,5.22,3.28,7,.19l2.43.83c.28.92.54,2,1.83,1.63,1.82-.53.81-2.57,1.73-3.62h4.36c0,1.35-2,2.21-.63,4.51,2.84-3.78,5.82-.52,9.43.08-1.95-3.84-1.72-7.86-4.73-10.54-1.76-1.2-.89-3-1.12-4.61,1.38-.58,1.09-1.49.37-2.34-2.48-2.94-1.6-5.3,1.15-7.43a1.85,1.85,0,0,0,.93-2.08c-2.93-1.41-5.06.21-7.2,2.55C174.72,296.88,174.67,296.06,174.61,295.24Zm21.45,40.56c-2.41-.19-3.92-1.51-3.18-3.85.68-2.15,2.79-2,4.61-1.32,1.06.4,2.36,1.43,2.89-.06s-1.08-2.12-2.35-2.5c-3.17-1-5.95-.42-7.73,2.58-1.55,2.62-.59,4.9,1.75,6.39,2.81,1.79,5.88,2.27,8.71,0,1-.81,1.94-2.15,1.18-3.43s-2.34-1-3.62-1.08c-2-.14-1.95,1.23-1.72,2.64A2.89,2.89,0,0,0,196.06,335.8Zm-13.47-4.67-5.78-5c-.5,2.84-1,5.22-1.3,7.61-.12.91-.64,2.23.61,2.6,1.86.55,1.44-1.22,1.82-2.18.27-.69.2-1.69,1.27-1.73,2.32,1,3.32,3.78,6,4.36.42-2.71.84-5.29,1.22-7.87.16-1.06,0-2.14-1.29-2.24-.91-.07-1.36.68-1.54,1.61S183.92,330.31,182.59,331.13Zm-21.54,1.92c-1.7.36-3.18.27-3.81-1.51-.51-1.44.19-2.53,1.38-3.37,1.44-1,2.79-.45,4.23.06a1.91,1.91,0,0,0,1.67-.61c.39-.57,0-1.27-.64-1.63a5.61,5.61,0,0,0-6.93.51c-2.2,1.87-3.29,4.37-1.72,7.08,1.33,2.29,3.64,2.66,6.11,1.87,1.08-.34,2.66-.65,2.4-1.95C163.39,331.77,162,332.68,161.05,333.05Zm22.08-27.81c-.92,2,0,2.71,1.88,2.94,3.4.42,2.39-2.31,2.87-3.95.42-1.42,1-2.88-1.45-3.15C182.9,300.69,183.7,303.51,183.13,305.24Zm-15.45,28.13c0,1.15-.53,2.39.86,2.66,1.58.3,2-1,2-2.14-.18-2.73,1.77-5.33.44-8.06a1.42,1.42,0,0,0-1.29-.06C167.75,328.06,168.77,331.1,167.68,333.37Zm20.6,32.13c-.12.28-.4.62-.32.82s.51.26.79.38c.12-.28.4-.62.32-.81S188.56,365.63,188.28,365.5Z"/><path class="cls-4" d="M34,378q1-5.93,2-11.85c1.89-1.53.74-3.19.18-4.8-.38-1.07.48-2.95-1.52-3s-.7,2.19-1.78,2.86c-3.7-5.06-6.64-10.35-4.86-17,0,2.56,1,4.42,3.87,5.8-.31-3.13-.74-5.38-3.87-5.8-.28-5.33-2.14-10.34-3.77-15.29-3.43-10.4-2-20.82-1.62-31.35a108.69,108.69,0,0,1,1.89-18.31c.5-2.41.94-4.83,2.45-6.88l1.65.89c-3.26,4.49-.28,9.25-.64,13.86-.47,6.1,2.39,11.24,4.42,16.61.64,1.7,2.67,3.67,4.22,2,4.52-4.92,8.81-2.63,13.3-.4.36,1.19-1.6,2.8-.15,3.33s1-1.42,1.25-2.32c5.91.26,7.21,4.58,7.73,9.21.4,3.57.2,7.21.27,10.82l.2.29c-1.46-.12-2.91-.26-4.37-.36A5.38,5.38,0,0,0,49,331.92c.35,3.05,3.5.47,5.44.38.82,0,1.64,0,2.46,0-.62,4.05-.47,8.49-1.44,12.1-1.75,6.57-1.14,13-1.55,19.44-1.8,1.37-5.9-2.73-6,2.55l.06.2c-1.6,2.21-1,4.59-.57,7,1.75,2.3,4.49,1.06,6.66,1.87a39.84,39.84,0,0,1-1.38,4.21c-1.87,4.19-1.4,7.39,2.12,11,6,6.13,9.67,14.05,14.13,21.35h-12c.23-2.68-1.32-4.73-2.54-6.85-4.1-7.1-6-14.89-7.43-22.84-.35-2,1-5.3-1.64-5.47-2.25-.15-2.22,3.49-3.15,5.45-.45,1-.18,2.28-.2,3.43,0,1.93-.81,3.17-2.87,3.31-.07-1.38-.14-2.76-.22-4.14C38.7,381.55,35.58,380.31,34,378Z"/><path class="cls-5" d="M181.57,412c-.33-3.48.2-6.32,3.7-8.37,2.75-1.61,2.18-4.34,1.62-7.43-1.78-10-11.45-9.73-17.4-14.23-1.15-.87-3.19-.94-3.43-2.58-.3-2.05,1.59-2.15,3.06-2.39.78-.14,1.28-.67,1.09-1.35-.48-1.68-.15-2.72,1.77-2.42s.59,1.82.92,2.66c1.2,3.1,4.74,3.83,7.1,5.69,1.28,1,3.44-2.55,4.31-4.49,1.24-2.75,2.21-5.45,4.94-7.19,2-1.26,3.51-1.92,5.75-.19,2.77,2.14,5.93,3.48,7.9-1.22.06-.14.17-.35.29-.38,5.07-1.28,6.59-5.21,8-9.68.54-1.7,3.17-2.35-.37-3.93-2.38-1.07-.26-2.83,1.05-2.87,7-.26,7.28-4.21,5.62-9.45,1.93,1.11,3.53,2.88,6,3,.82,2.39,3.4,2.56,5,4-1.42,3.17-3.57,6.21-4.11,9.51-1.22,7.34-6.83,12.6-8.51,19.63a5,5,0,0,1-3.17,3.63c-3.27,1.09-4.45,4.06-5.59,6.61s-1.59,5.67,2.45,7.23a37.26,37.26,0,0,0,13,2.26c8.25.15,16.31,1.75,24.37,3.32,2,.39,3,1.55,3.91,3.71,1.3,3.05-1.3,4.59-1.37,6.93Z"/><path class="cls-6" d="M249.37,412c.07-2.34,2.67-3.88,1.37-6.93-.92-2.16-1.91-3.32-3.91-3.71-8.06-1.57-16.12-3.17-24.37-3.32a37.26,37.26,0,0,1-13-2.26c-4-1.56-3.63-4.61-2.45-7.23s2.32-5.52,5.59-6.61a5,5,0,0,0,3.17-3.63c1.68-7,7.29-12.29,8.51-19.63.54-3.3,2.69-6.34,4.11-9.51,2.86,1.51,1.85,3.66,1.22,6-.39,1.43-2.13,3.15-.38,4.48,1.47,1.12,3.46.7,5.18,0,1.2-.51,2.33-1.24,3.56-1.68,2.7-1,5.1-.82,6.4,2.27l-1.94,0c-6.64.31-11.53,4.61-17,7.58-1.3.7-2.45,2-1.69,3.7s2.19,1.76,3.77,1.08c1.22-.52,2.55-.8,3.7-1.42a85.65,85.65,0,0,1,15.85-6.73c1.5-.46,3.7-2.56,4.81-.29,1.24,2.55-1.9,3.05-3.31,4.12-2.49,1.88-5.29,3.35-7.88,5.12-1,.66-1.7,1.81-.89,3,.68,1,1.75.55,2.7.17,3.22-1.29,6.44-2.55,9.66-3.85,1.42-.58,3-1,4.29-.14,3.51,2.38,4.09,12.39.92,15.56a2.82,2.82,0,0,0-1,2.63c.56,2.59,1.1,5.06-.83,7.43-.5.62-.49,2.31.8,2.4,5.25.37,3.38,3.85,3,6.63-.21,1.62-.69,3.21-1.05,4.81Z"/><path class="cls-6" d="M371,412H354.06c-.66-2.05,3.78-4.07.95-5.27-2.08-.89-3.15,2.62-3.89,4.78a2,2,0,0,0-.05.49H335.12a12,12,0,0,1,.56-1.88c.54-1.15,2.51-1.79,1.91-3.2-.79-1.82-2.26-.17-3.43-.1-1.79.12-2.11-.85-1.31-2.13,2.76-4.36.45-6.82-3.24-8.63-3.09-1.51-3.77-3.53-2.56-6.78a21.35,21.35,0,0,0,.74-11.73c-.22-1.08-1.17-2.29.26-3.06s1.95.68,2.63,1.54c4.39,5.57,8.93,11,13.06,16.78,1.13,1.57,1.84,2.77,3.73,1.88a5.89,5.89,0,0,0,3.4-5.15c.11-1.84-1.42-2.47-3.08-2.45-2.4,0-5.24-1.44-5.18-3,.2-5.36-3.56-10.19-2.28-15.3s-1.17-5.71-5-5.64a1.41,1.41,0,0,0-1.68-.58c-1.65.28-3.06,3.52-4.91.77-2.07-3.08,2.16-3,2.74-4.79.07-.22-.21-.56-.34-.9-1.69-.75-3.35,3.09-5,.18-1.48-2.62,1.19-3,2.45-3.94s.5-1.73.18-2.86c-1.16-4.07-4.6-7.28-4.43-11.82,1.93.8,4.24.49,5.86,2.19,4.42,4.61,8.95,9.12,13.29,13.81a33.65,33.65,0,0,1,7.08,12.06,45.55,45.55,0,0,0,9.07,16.36c1.16,1.33,1.69,2.37.51,3.84a1.83,1.83,0,0,0-.11,2.62c4.8,6.17,3.26,15.66,10.67,20.51C371,410.77,370.91,411.52,371,412Z"/><path class="cls-5" d="M335.32,363.14c3.84-.07,6.31.43,5,5.64s2.48,9.94,2.28,15.3c-.06,1.57,2.78,3,5.18,3,1.66,0,3.19.61,3.08,2.45a5.89,5.89,0,0,1-3.4,5.15c-1.89.89-2.6-.31-3.73-1.88-4.13-5.76-8.67-11.21-13.06-16.78-.68-.86-1.16-2.33-2.63-1.54s-.48,2-.26,3.06a21.35,21.35,0,0,1-.74,11.73c-1.21,3.25-.53,5.27,2.56,6.78,3.69,1.81,6,4.27,3.24,8.63-.8,1.28-.48,2.25,1.31,2.13,1.17-.07,2.64-1.72,3.43.1.6,1.41-1.37,2.05-1.91,3.2a12,12,0,0,0-.56,1.88H308.2c2.29-5.2-.28-10-1.56-14.76-.93-3.46-.15-7.64-3.58-10.24.26-1.93-1-3.41-1.49-5.11-.88-2.83-2.65-5.54-1.2-8.7h-.11a.67.67,0,0,0,1.13,0c1.2-1.32,2.31.39,3.47.17.22-2.55-2.09-3.94-2.6-6.11,1.83-1.79.76-4,1-6.09l0-1.12,1.34.86c1.07,1.14,1.31,3.24,3.52,3.06l.12,1.28c.38,1.62.75,3.23,1.13,4.85-2.3,1.72,0,5.51-3.11,6.88-.86-.59-1-2.3-2.58-1.68-.27.1-.53,1.1-.38,1.23,1.79,1.69,2.13,5.24,5.59,4.77,3.14-.42,4.23-2.69,4.46-5.59.2-2.45-1.43-4.31-1.9-6.53h2.68c2,1.27.94,6.08,4.67,4.85a7.48,7.48,0,0,0,5.48-7.81,13,13,0,0,0-1-4.7l1.8-.31C329.27,368.2,329.27,368.2,335.32,363.14Z"/><path class="cls-7" d="M371,412c-.1-.48,0-1.23-.32-1.41-7.41-4.85-5.87-14.34-10.67-20.51a1.83,1.83,0,0,1,.11-2.62c1.18-1.47.65-2.51-.51-3.84a45.55,45.55,0,0,1-9.07-16.36,33.65,33.65,0,0,0-7.08-12.06c-4.34-4.69-8.87-9.2-13.29-13.81-1.62-1.7-3.93-1.39-5.86-2.19-.51-1.26-1.75-1-2.71-1.3-1.42-1.89,2.33-4.9-1.47-6.34-2.56-1-3.76-3.44-5.27-5.51,2.47-4-.92-6.7-2.5-9.56-1.1-2-2.7.53-4.12.77a2,2,0,0,1-1-2.11c3.5.62,3-1.84,3-3.89l-.06,0c4,1.35,5.67,4.67,7,8.26.68,1.86,1.51,3.34,3.86,2.19.53,4.72,6.06,7,5.92,12,4.17.13,5.4,4.09,7.71,6.39,2.55,2.53,6.45,3,8.29,6.49,5.08,9.73,14.23,16.74,18.3,27.18,2.31,5.94,8,9.42,10.9,14.92,1.52,2.91,3.58,5.44,5.33,8.13A66.66,66.66,0,0,1,385,412Z"/><path class="cls-8" d="M385,412a66.66,66.66,0,0,0-7.53-15.11c-1.75-2.69-3.81-5.22-5.33-8.13-2.89-5.5-8.59-9-10.9-14.92-4.07-10.44-13.22-17.45-18.3-27.18-1.84-3.52-5.74-4-8.29-6.49-2.31-2.3-3.54-6.26-7.71-6.39.14-5-5.39-7.31-5.92-12,.12-5.07-3.36-9-4.37-13.72-.38-1.75-1.88-2-3.46-1.88-3.7-6.83-7-13.9-12-19.95-1.23-1.48-3-2.92-.81-5,9,8.68,16.12,19,22.06,29.72,8.48,15.38,19.52,28.59,30.49,42.11a419.23,419.23,0,0,1,32.27,45.28c2.82,4.62,7.06,8.32,8.78,13.66Z"/><path class="cls-7" d="M258.34,412c.36-1.6.84-3.19,1.05-4.81.37-2.78,2.24-6.26-3-6.63-1.29-.09-1.3-1.78-.8-2.4,1.93-2.37,1.39-4.84.83-7.43a2.82,2.82,0,0,1,1-2.63c3.17-3.17,2.59-13.18-.92-15.56-1.3-.89-2.87-.44-4.29.14-3.22,1.3-6.44,2.56-9.66,3.85-.95.38-2,.83-2.7-.17-.81-1.19-.08-2.34.89-3,2.59-1.77,5.39-3.24,7.88-5.12,1.41-1.07,4.55-1.57,3.31-4.12-1.11-2.27-3.31-.17-4.81.29a85.65,85.65,0,0,0-15.85,6.73c-1.15.62-2.48.9-3.7,1.42-1.58.68-3,.63-3.77-1.08s.39-3,1.69-3.7c5.45-3,10.34-7.27,17-7.58.18,1.79-2.2,1.89-2.43,4.49,6.55-3.86,13.72-3.39,20.29-5.55l2.05,1.95c-3.19.41-3.55,3.17-5.17,5.85l10.39-.86c1.9,1.72,4.24,3.08,4.8,5.89-1.06.75-2,1.15-1.34,3.06,1.33,3.64,1.74,7.07-1.78,10.47-1.76,1.7-4.22,3.86-4,7.41.25,5.27,1.84,10.75-1.47,15.79-.45.68.35,2.18.58,3.3Z"/><path class="cls-9" d="M39.11,389c2.06-.14,2.85-1.38,2.87-3.31,0-1.15-.25-2.47.2-3.43.93-2,.9-5.6,3.15-5.45,2.65.17,1.29,3.5,1.64,5.47,1.43,7.95,3.33,15.74,7.43,22.84,1.22,2.12,2.77,4.17,2.54,6.85H24c-.57-2.89,5.46-1.16,3.46-4.57-1.75-3,.11-6-1.7-9.39,4.05,1.28,5.59,4.2,7.88,6.16,3.32,2.85,5.08,2.29,6.12-1.95.9-3.68-1.92-6.63-1.82-10.13C39.31,391.44,38.92,390.13,39.11,389Z"/><path class="cls-1" d="M280.13,383.92c5.25,1.77,7.24,6.93,10.59,10.58,5,5.41,9,11.63,13.49,17.5H274.3Q277.21,398,280.13,383.92Z"/><path class="cls-8" d="M280.13,383.92q-2.91,14-5.83,28.08h-10c-.23-1.12-1-2.62-.58-3.3,3.31-5,1.72-10.52,1.47-15.79-.17-3.55,2.29-5.71,4-7.41,3.52-3.4,3.11-6.83,1.78-10.47-.7-1.91.28-2.31,1.34-3.06,1.69,2.55,4.5,4,6.21,6.62A7.37,7.37,0,0,1,280.13,383.92Z"/><path class="cls-4" d="M38,392.12c-.1,3.5,2.72,6.45,1.82,10.13-1,4.24-2.8,4.8-6.12,1.95-2.29-2-3.83-4.88-7.88-6.16,1.81,3.41-.05,6.41,1.7,9.39,2,3.41-4,1.68-3.46,4.57h-7c2.19-8.28,2.94-16.93,6.78-24.81.81.22-.27,2.82,1.67,2.38,1.29-.29,1.39-1.63,1.59-2.8.26-1.61.67-3.2,1-4.79,1,.76,2.68.92,2.83,2.38C31.39,388.75,35.05,390.07,38,392.12Z"/><path class="cls-9" d="M68.91,412c-4.46-7.3-8.13-15.22-14.13-21.35-3.52-3.59-4-6.79-2.12-11A39.84,39.84,0,0,0,54,375.46l9.88.73A20.47,20.47,0,0,1,64,386.33c-1.67,6.31,2.54,10.37,6.23,14.59,2.8,3.19,5.72,6.39,5.63,11.08Z"/><path class="cls-7" d="M351.07,412a2,2,0,0,1,.05-.49c.74-2.16,1.81-5.67,3.89-4.78,2.83,1.2-1.61,3.22-.95,5.27Z"/><path class="cls-10" d="M82.89,53c2.47-3.73,5-7.45,10-8.07.93,2.5,6.6,5-1.13,7.91,3.36-.17,5.08.91,6,3.07.38.9.58,2.08,1.9,1.71a1.78,1.78,0,0,0,.9-2.84c-3.52-5.26-.41-9.24,2.34-13.33l2.58-.69c1.08.38,2.24,1.23,3.24,1.08a57.72,57.72,0,0,1,21.52.92c7.3,0,13.47,4.27,20.45,5.47.17,4.46,2.4,5.24,6.09,3.43,7.1,7.16,15.76,12.84,18.61,23.69,1.28,4.85,2.76,9.81,4.47,14.55,2.71,7.52.24,14.91.81,22.32.32,4.15.84,8.45-.24,12.63-2.38,3.69-4.34,7.54-4.71,12l-1.07-.15c-2.54-9.78-2.4-19.85-3.21-29.81-1.08-7-2.06-14-3.29-21-.43-2.43,1.39-4.7-.16-7.2-5.05-8.12-11.39-14.3-21.34-15.84-15.59-2.4-31.18-3-46.83-.77-1.13-2-3.47-1.62-4.86-1.49C88.73,61.23,84.52,59.31,82.89,53Zm27.61-8.39c-1.6,1.49-4.42,1.54-3.43,4.44.27.78.92,1.78,1.76,1.31C110.86,49.23,110.87,47.22,110.5,44.61Z"/><path class="cls-11" d="M89.3,224c-3.21-13.11-6-26.28-7.89-39.68C80.66,179,77.26,174.06,75,169a1.42,1.42,0,0,0-1.14-.7c-7.78,2.18-8.32-4.62-10.92-8.81a16.5,16.5,0,0,1-1.1-2.74l.51-.52c2.69,1.07,5.35-1.69,8.3.16,1,.62,1.3-1.68.57-2.56-3.39-4.07-1.7-8,.1-12,1.31-.34,1.56-1.25,1.27-2.43-.17-2.31,1.4-4.43.73-6.79l.23-1.88.17-1,.22-2c.65-1,1-2.06.11-3.14L74,122.8l.21.11.3-1.14-.13-5.06a2.93,2.93,0,0,0-.25-3.15l0-2.6a1.63,1.63,0,0,0,.2-2.08c0-.66.11-1.33.17-2,.71-2.18,1.41-4.36,2.12-6.54,3,2.16,5.1,4.23,2.72,8.56a9,9,0,0,0,0,8.07c1.7,3.63,1.49,8.61-.57,11.3-2.93,3.81-1.15,6.15.45,8.85,3.46,5.85,7.41,11.37,8,18.52s2.69,14.09,8.4,19.23a179.32,179.32,0,0,0,9.88,22.55c1.42,2.79,3.15,5.38,6.53,6.15-.1.59-.48,1.53-.25,1.73,3.91,3.25,1.16,3.68-1.69,4.43-4.61,1.2-6.17,5-3.88,9.33,1.75,3.3,1.95,7.4,5.28,9.93.65.5,1.68,2,.56,3-.94.89-2.18.35-3.28,0-3.88-1.31-7.57-3.38-11.77-3.49A8.42,8.42,0,0,1,89.3,224ZM74.87,163.08c-.6-1.58.1-4.38-2.41-4.94-1.31-.3-3.94,1.21-3.23,2.79.87,1.95.68,5.19,3.68,5.6C75.16,166.83,74.8,164.83,74.87,163.08Z"/><path class="cls-6" d="M194.52,226.52a2,2,0,0,1-1-2c1.23-.79,2.94-1.47,2.46-3.21-.37-1.31-2-1.59-3.29-1.74-1.12-.12-2.35.13-3.15-1,0-.32,0-.64,0-1,.47-1,2.23-.73,2.24-2.21,6.44,1.4,11.4,5.82,17.09,8.71,4.23,2.15,8.39,4.49,12.68,6.6,13.26,6.54,25.62,14.89,39.73,19.73-1.57,4.19,1.6,5.81,4.2,7.72,3.94,2.88,5.87,8.17,4.35,12-.1.27-.07.88,0,.91,4,1.11,2,5.38,4.05,7.55a16.17,16.17,0,0,0,9.4,5.17c2.17.3,1.83,1.43,1.9,2.64.13,2.24-.23,4.07,2.81,5.46s-.48,7.3,1.15,7.68c4.35,1,5.45,4.69,4.41,6.66-2.35,4.48-.34,8.39-.2,12.52-1.86.77-3.1,1.72-1.66,4,1.32,2.07,2.45,4.25,3.67,6.39l-.89.82c-5.07-5.06-8.47-5.22-13.51-.65a2.83,2.83,0,0,1-2.39-3.27c.49-6.76.76-13.39-4.37-18.88-1-1.1-.94-2.67-.74-4.26a9.14,9.14,0,0,0-6.13-10c-2.19-.77-3.37-1.21-3.57-4.56-.34-5.5,0-12.5-7.93-14.34-1-.25-1.36-1.28-1.1-2.44.5-2.24.49-4.69,1.4-6.74,2.21-4.95-.85-6.77-4.17-9.48-6.54-5.34-16.77-5.23-20.77-14.23a2.69,2.69,0,0,0-2.12-1.15c-4.12,0-6.51-2.71-9.12-5.28a10.11,10.11,0,0,0-6.16-3c-2.28-.18-3.81-1.72-5.58-2.34C203.91,227.76,200,222.34,194.52,226.52Z"/><path class="cls-7" d="M293.42,318.7c-.14-4.14-2.15-8.05.2-12.53,1-2-.06-5.65-4.41-6.66-1.63-.38,2-6.24-1.15-7.68s-2.68-3.22-2.81-5.46c-.07-1.21.27-2.34-1.9-2.64a16.17,16.17,0,0,1-9.4-5.17c-2.08-2.17-.1-6.44-4.05-7.55-.09,0-.12-.64,0-.91,1.52-3.78-.41-9.07-4.35-12-2.6-1.91-5.77-3.53-4.2-7.72,9,3.3,16.45,9.14,23.45,15.32,4.28,3.78,9.38,6.69,12.78,11.48.94,1.32,2.49,2.22,2.78,4-2.17,2-.42,3.49.81,5,5,6.05,8.31,13.12,12,19.95-2.65.76-3.6,2.51-3,5.15l.06,0c-1.44-1-2.67-3-4.7-.91-1.72.51-2.44-2.71-4.33-1.25-1.5,1.16-.07,2.4.18,3.6-3.37,1.79-3.2,5.06-3.13,8.36C296.33,320.34,296.1,317,293.42,318.7Z"/><path class="cls-12" d="M174.6,136.72l1.07.15.6,3.76.3,2.09c-2,2.49-.52,5.29-1,8.24a5.71,5.71,0,0,0,2.92-6c5,1.54,3.37-1.77,3-4.14,3.46.44,2.74,4.55,5.17,5.9-.26,2.5.88,5.4-2,7.14-3.44-.58-6,1.23-8.72,2.73.71,1.54,3.63,1.85,2.68,2.47-3.51,2.31.1,5.12-1.08,7.39a1.68,1.68,0,0,1-2-.24l-.83-.57c-2.26,4.8-2,10-1.94,15.06.1,5.55,1.13,11.07,1.66,16.62.17,1.83,1.31,2.93,2.48,4.08.62,2.63-1.27,4.21-2.54,6.05l-2.84,2.3c.33-3.38,1.57-7.57-2.11-9.27-3-1.39-7.52-1.71-10.21.09-4.37,2.9-8.29,5.53-13.73,6.79-5.28,1.23-10.23,3.26-15.78,2.21l0,0c-.46-3.08.8-4.47,3.95-4,2.08,2.11,4,.61,5.73-.47,2.07-1.28,3.94-2.89,5.92-4.34,1.32-1,2.76-1.16,2.21-3.91-.63-3.14-2.46-1.8-3.86-2.26.6-3.24,1-6.55,1.87-9.71,1.31-4.63,4-5.47,7.95-2.54a3.34,3.34,0,0,0,2.55.7c3.8-.18,6.44-3.11,8.42-5.18A21.06,21.06,0,0,0,170,161.26C169.37,152.76,171.79,144.66,174.6,136.72Z"/><path class="cls-9" d="M49.93,305.3c-4.49-2.23-8.78-4.52-13.3.4-1.55,1.68-3.58-.29-4.22-2-2-5.37-4.89-10.51-4.42-16.61.36-4.61-2.62-9.37.64-13.86L27,272.35a32.18,32.18,0,0,1,10-12c2.16,2.46-.75,3.73-1.65,4.82A10.13,10.13,0,0,0,33,272.49c.14,3.58.27,7.15.15,10.75-.2,6.19,2.68,7.73,8.37,5.87,6.44-2.12,8.13-7.41,9.34-12.95.56-2.6,1.43-4.35,4-4.88s3.57-3.31,5.83-4.45c1.6-.8,3-2.09,4.83-2.39,4.15-.66,5.08.52,3.73,4.5a15.38,15.38,0,0,0-.37,3.42c-1.62,2-2.44,4.73-5,6-4.58.81-9.45,8.38-9,13.95-.39,2.73-2.65,5-2,8h0C51.62,301.77,50.2,303.19,49.93,305.3Z"/><path class="cls-13" d="M89.3,224A8.42,8.42,0,0,0,97,228.53c4.2.11,7.89,2.18,11.77,3.49,1.1.37,2.34.91,3.28,0,1.12-1.08.09-2.54-.56-3-3.33-2.53-3.53-6.63-5.28-9.93-2.29-4.3-.73-8.13,3.88-9.33,2.85-.75,5.6-1.18,1.69-4.43-.23-.2.15-1.14.24-1.73l8,4.6c-.27.31-.52.84-.92,1-3.42,1.44-3,4.36-2.06,6.78,1,2.6,3.45,2.45,5.85,1.74.82-.25,2.41-.54,2.1,1-.78,3.91,2.19,5.25,4.5,6.86a4.77,4.77,0,0,1,2.3,5c-6.43,2.22-12.69,5.18-19.78,4.57-7.77-2.24-16.21-2.51-23-7.71Z"/><path class="cls-4" d="M88.94,227.4c6.78,5.2,15.22,5.47,23,7.71q-.66,2.41-1.34,4.82c-2-1.07-2.58.83-3.48,1.75-1.42,1.45-2.78,2.56-5,2.46-3.65-.16-4.89,2-4.43,5.35.13,5.21.77,5.74,5.14,4.31l4.09-1.37c.24,0,.47,0,.7.08.06.63.13,1.27.19,1.91-2.83,5-10.08,5.46-15,1v-2.94l0-3,.22-.43-.24.42c-2.33-.15-2.69-1.68-3.06-3.67-.77-4.15-1.93-8.23-2.93-12.34C88.43,231.72,87,229,88.94,227.4Z"/><path class="cls-12" d="M74.08,111c0,.87,0,1.73,0,2.6a3.67,3.67,0,0,0,.25,3.15c0,1.69.08,3.38.13,5.06l-.3,1.14L74,122.8c-2.21-.53-4.15.62-6.22,1a125,125,0,0,1-2.36-31c.81-.19,2.16,1.31,2.38-.34.25-1.88-.07-3.69.87-5.64S67.47,85,66.19,84.86c2.42-5.06,2.17-10.92,4.74-15.94,1.56.85,3.24,1.15,1.37,3.8C69.78,76.3,71.17,81,70,85.12c-.3,1,.18,2.89,1.81,3s2-1.29,2.13-2.75c.3-2.66,0-5.58,2.46-7.53a100.77,100.77,0,0,1,0,19.8,6.64,6.64,0,0,0-1.92,9.28c-.06.66-.12,1.33-.17,2S74.15,110.26,74.08,111ZM70,118.41A2.19,2.19,0,0,0,71.87,116c0-1.18-.19-2.41-1.5-2.69s-1.48,1-1.45,1.88C69,116.32,68.36,117.79,70,118.41Z"/><path class="cls-14" d="M76.4,77.81c-2.5,2-2.16,4.87-2.46,7.53-.17,1.46-.54,2.82-2.13,2.75s-2.11-1.92-1.81-3c1.17-4.1-.22-8.82,2.3-12.4,1.87-2.65.19-3-1.37-3.8,2.44-6.47,6-12.11,12-15.92,1.63,6.31,5.84,8.23,12,7.66,1.39-.13,3.73-.52,4.86,1.49-4.07,1.05-6.92,7.09-12.47,2.92-.47-.36-3.87.82-5.71,1.68-1.42.66-.42,2.33-.41,3.56L79.94,71.9c-1.52.11-2.1.91-1.73,2.39Z"/><path class="cls-13" d="M72.61,139.39c.29,1.19,0,2.1-1.28,2.44-3-.65-4.52,1.34-6,3.35-1.26,1.65-1.81,3.92-4.1,4.67-1.16-3.64,1.4-7.6-.78-11.72-1.49,4.14.88,8.12-1.46,11.55-2.75-5-1.9-10.63-2.37-16a3.85,3.85,0,0,1,2.13-4.15l5.21.2v0a1.78,1.78,0,0,0,1.91,1.93l.14.12c.24,5,1.66,6.38,5.06,4.85Z"/><path class="cls-12" d="M190.52,125.77c4.33,6.91,4.29,14.14,1.09,21.35-.53,1.17-.77,2.36-1.23,3.51-1.16-3.57-.84-7.54-2.92-10.87-1.21-1.19-.35-4.92-3.74-3.28-1,.48-1.74,1.73-2.77.52a3,3,0,0,1,0-3.66c.58-.94,2.46-.7,2.38-2.17C183.06,125.72,186.72,125.68,190.52,125.77Z"/><path class="cls-9" d="M86.84,233.41c1,4.11,2.16,8.19,2.93,12.34.37,2,.73,3.52,3.06,3.67h0l0,3c-1.16.71-.94,1.88-1,3l0,0-4,0c-.11-.84-.32-1.61-1.27-1.91-5.37-1.73-8-4.73-5.86-10.78,1.07-3.06-1.53-3.4-3.86-3.36Z"/><path class="cls-15" d="M190.52,125.77c-3.8-.09-7.46,0-7.16,5.4.08,1.47-1.8,1.23-2.38,2.17a3,3,0,0,0,0,3.66c1,1.21,1.76,0,2.77-.52,3.39-1.64,2.53,2.09,3.74,3.28-1.56.26-3.1.41-1.71,2.69.75,1.24,2.45,2.44.95,4.25-2.43-1.35-1.71-5.46-5.17-5.9-1.71-1.44-3.47-1.27-5.26-.17l-.6-3.76c.37-4.48,2.33-8.33,4.71-12C183.88,123.82,187.55,120.92,190.52,125.77Z"/><path class="cls-15" d="M177.54,166.43c1.18-2.27-2.43-5.08,1.08-7.39.95-.62-2-.93-2.68-2.47,2.71-1.5,5.28-3.31,8.71-2.73.63,3.41,2.73.1,3.94.85C185.94,163.15,182.92,166.36,177.54,166.43Z"/><path class="cls-6" d="M38,392.12c-2.93-2.05-6.59-3.37-7-7.76-.15-1.46-1.85-1.62-2.83-2.38l.9-.91.8-1c.07-.66.13-1.32.2-2l-1-1.08-.91-.14c0-.65-.08-1.31-.13-2l-.93-.79-.11-4a2.41,2.41,0,0,0,1.11-2.23c2.15,3.1,4.21,6.24,4,10.27,1.25,3.26,2.41,6.62,6.79,6.71.08,1.38.15,2.76.22,4.14C38.92,390.13,39.31,391.44,38,392.12Z"/><path class="cls-7" d="M174.41,207.43c1.27-1.84,3.16-3.42,2.54-6.05,4.47,1.59,6.74,5.23,8.59,9.25-2,.27-4.24.07-4.58,2.91-2.63-.54-3.38,2.35-5.38,3C172.74,213.8,176.42,210.24,174.41,207.43Z"/><path class="cls-14" d="M130.19,42.76a57.72,57.72,0,0,0-21.52-.92c-1,.15-2.16-.7-3.24-1.08C114.14,35.69,122.37,36.71,130.19,42.76Z"/><path class="cls-14" d="M102.85,41.45c-2.75,4.09-5.86,8.07-2.34,13.33a1.78,1.78,0,0,1-.9,2.84c-1.32.37-1.52-.81-1.9-1.71-.92-2.16-2.64-3.24-6-3.07,7.73-2.87,2.06-5.41,1.13-7.91C95.51,41.87,99.2,41.71,102.85,41.45Z"/><path class="cls-16" d="M188.59,154.69c-1.21-.75-3.31,2.56-3.94-.85,2.93-1.74,1.79-4.64,2-7.14,1.5-1.81-.2-3-.95-4.25-1.39-2.28.15-2.43,1.71-2.69,2.08,3.33,1.76,7.3,2.92,10.87a2.12,2.12,0,0,1-.9,2l-.91,2.05Z"/><path class="cls-12" d="M181,213.54c.34-2.84,2.61-2.64,4.58-2.91l6.29,4.76c0,1.48-1.77,1.19-2.24,2.21l-3.08-1.07,0,0c0-.69-.36-1-1-1l0,0c-.3-1.7-1.48-2.14-3-2.1Z"/><path class="cls-9" d="M76.81,239.4c-2.31,4.9-9.29,8.43-13.89,7A58.87,58.87,0,0,1,76.81,239.4Z"/><path class="cls-4" d="M28,374.91c0,.65.09,1.31.13,2-3.53,1.22-2.68,5-5,7.28l1.92-13.08,1.91-.93c0,1.33.07,2.66.11,4Z"/><path class="cls-13" d="M60.07,126.94c2.53-2.51,5.14-.14,7.72-.12l.19-.18.22.15c-.93,1.69.26,3.17.49,4.75L66,131.8l-.14-.12c-.63-.65-1.27-1.29-1.91-1.93v0C63.18,128,60,129.75,60.07,126.94Z"/><path class="cls-14" d="M67.77,123.78c2.07-.36,4-1.51,6.22-1,0,.61.05,1.21.08,1.82-.17.66-.33,1.32-.5,2-1.73,1.81-3.47,3.13-5.37.19l-.22-.15-.19.18C67.79,125.81,67.78,124.8,67.77,123.78Z"/><path class="cls-12" d="M38.89,384.89c-4.38-.09-5.54-3.45-6.79-6.71L34,378C35.58,380.31,38.7,381.55,38.89,384.89Z"/><path class="cls-14" d="M66.19,84.86c1.28.13,3.35.11,2.47,1.94s-.62,3.76-.87,5.64c-.22,1.65-1.57.15-2.38.34C64.21,90,65.94,87.5,66.19,84.86Z"/><path class="cls-11" d="M59,149.68c2.34-3.43,0-7.41,1.46-11.55,2.18,4.12-.38,8.08.77,11.72.07,1.49.14,3,.22,4.48l-.58.44A7.61,7.61,0,0,1,59,149.68Z"/><path class="cls-14" d="M156.73,51.66c-3.69,1.81-5.92,1-6.09-3.43C153.16,48.51,154.88,50.19,156.73,51.66Z"/><path class="cls-7" d="M32.89,361.16c1.08-.67-.13-2.93,1.78-2.86s1.14,1.95,1.52,3c.56,1.61,1.71,3.27-.18,4.8Z"/><path class="cls-3" d="M27,370.14l-1.91.93c.19-2.71,1.5-5.24.87-9,1.54,2.42,2.17,4,2.15,5.83A2.41,2.41,0,0,1,27,370.14Z"/><path class="cls-11" d="M60.07,126.94c-.08,2.81,3.11,1.1,3.85,2.79l-5.21-.2C58.34,128.24,58.34,127.13,60.07,126.94Z"/><path class="cls-11" d="M61.86,156.73l-1-2,.57-.44,1,1.88Z"/><path class="cls-15" d="M188.57,154.72c.3-.69.61-1.37.91-2.05Z"/><path class="cls-15" d="M174.75,165.62l.83.57Z"/><path class="cls-4" d="M29.05,377l1,1.08Z"/><path class="cls-4" d="M29.82,380.07l-.8,1Z"/><path class="cls-9" d="M59,326.34c-.07-3.61.13-7.25-.27-10.82-.52-4.63-1.82-8.95-7.73-9.21,1.18-1.83,2.42-3.65,1.92-6h0c2.24-3.86,5.56-7.19,6-12h0c5.18-3,6.78-9.1,11-13,4.85,0,9.42-1.45,14.06-2.56,2.3-.56,4.79-1.11,6.77.15,3.54,2.25,6.82,4.5,11.32,2.53,1-.42,2.63.54,2.31,1.88a4.65,4.65,0,0,1-4.54,3.86c-2.15,0-4.39-1.77-6.25.94-1.52,2.23.31,4.15.19,6.18-.29,5,1.92,10.59-4.13,14.24-1.35.81-1.08,4.26-1.6,6.48s-1.24,4.22-3.14,5.48c-2.9,1.91-3.4-1.28-5-2.41a3.36,3.36,0,0,0-5.59,2.33c0,4.17-1.87,8.06-1.28,12.2-1.28,1.45-2.61,1.17-3.77-.05s-2.27-.94-3.48-.2c-.88.16-2.24-.94-2.5.93C61.74,327.69,60.44,326.8,59,326.34Z"/><path class="cls-16" d="M131.71,230.54a4.77,4.77,0,0,0-2.3-5c-2.31-1.61-5.28-3-4.5-6.86.31-1.52-1.28-1.23-2.1-1-2.4.71-4.88.86-5.85-1.74-.9-2.42-1.36-5.34,2.06-6.78.4-.17.65-.7.92-1l-8-4.6c-3.37-.77-5.1-3.36-6.52-6.15a178.82,178.82,0,0,1-9.88-22.56c0-4.74-2.72-8.67-3.84-13.07.5-.41,1.18-.72,1.48-1.25,3.57-6.14,8.51-7.68,15.54-4.77-1.69,1.47-5.55.62-4.94,4.58-1.27,1.57-3.32,2.7-2.93,5.21l.92,4.92c2.72,4.39,4.28,10,11,10.12,0,.33,0,.67,0,1l-.24.4.22-.42h2c2.41,3.94,3.85,8.66,10.31,8,1.75-.17,4.36,3.94,3,6.14-1.87,3.06-4,7.44-9.4,4.86a2.52,2.52,0,0,0-3.5,1.11,35.56,35.56,0,0,0,8.51,5.74l.11.11a16.78,16.78,0,0,1-.63,1.85c-.48,1.06-2.82,1.15-1.71,3,.8,1.33,2,.57,3.12.29a7.73,7.73,0,0,1,6.14,1.44c4.11,2.73,7.43,1.8,11-1,3.22-2.48,8-2.29,10.64-1s3.33,1.24,5.15-.68,3.33-.86,4,1.4c.36,1.22-.22,2.71,1.11,3.64-5.4,4.6-11.73,7.68-17.94,10.94a5.28,5.28,0,0,0-5.18,1.85C136.77,228.88,134.33,230.3,131.71,230.54Z"/><path class="cls-9" d="M53.94,363.87c.41-6.47-.2-12.87,1.55-19.44,1-3.61.82-8.05,1.44-12.1l1.16-1.78c3,.23,5.9,2.44,8.81-1.16.95-1.17,4.57-.25,7-.11.19,0,.29,1.46.44,2.24-2.26,2.09-2.62,4.35-1.74,7.45,1.51,5.36.11,7.26-5,8.39-3-.22-6.42-1-6.57,3.81-1.89-.21-3.13,2.21-2.82,2.32,4,1.47,2.61,6.12,5.14,8.39,2-2.81.13-5.29-.56-7.85,1.88-1.95,3.74-4.49,5.44.19.3.82,1.34.78,2.18.63,4.45-.61,8.35-2.3,11.18-5.93,1.47-1.89,2.85-3.77,6.66-1.69-5.07,2-6.37,5.71-6.92,10.33-.25,2.18-2,5.1-5.53,4.56-2.76-.43-3.94,2.12-6,3.05C64.51,364.83,59.11,365.69,53.94,363.87Z"/><path class="cls-6" d="M139.51,229.3a5.28,5.28,0,0,1,5.18-1.85c1.11,4.88,5.56,7.82,7.21,12.39.78,1.57,2.67,1.36,3.8,2.38,2,5.78,6.59,9.85,10.56,14,6.77,7,10.57,15.85,16,23.64,2.44,3.51,4.42,7.34,6.53,11.07,1,1.68,2.3,3.39.75,5.45-1.31,0-2.27-1.86-3.79-.67-4.07-8.17-8.29-16.25-14.12-23.36-1.72-3.74-2.57-8.09-7-10-.14-2-1.44-3.08-3-4a15.62,15.62,0,0,0-2-3.37C151.92,247.23,145.55,238.4,139.51,229.3Z"/><path class="cls-9" d="M92.81,255.4c4.89,4.48,12.14,4,15-1,1.3.09,2.78-.09,2.93,1.84a2.71,2.71,0,0,1-1.53,2.88c-3.07,1.44-5.91,3.75-9.73,2.4a7,7,0,0,0-3-.06c-1.22.13-2.36.6-2.22,2.1a1.94,1.94,0,0,0,2.12,1.7c3.78,0,7.75,1,11.3-.5,4-1.66,7.62-.47,12.76.15-4.18,1.93-7.22,3.29-10.57,3.41-12,.43-23.94,1.32-35.72,3.8-1,.21-2.17.49-2.76-.43-1.23-1.92,1-2.87,1.49-4.33l1-1c.33,0,.66,0,1,0l2.94,0c2.39-.19,5.51,1.1,6-3,1.75-3.58,4.75-5.91,8-8l0,0Z"/><path class="cls-14" d="M97.66,249.49c-.46-3.38.78-5.51,4.43-5.35,2.24.1,3.6-1,5-2.46.9-.92,1.51-2.82,3.48-1.75.27,3,1.77,3.93,4.72,3.08,5.63-1.63,11.32-3.09,17.16-4.23-4.68,4-10.06,6.82-15.47,9.47a9.6,9.6,0,0,0-4.1,4.13c-.22-1.64-1.07-3.27-.07-4.93,1.28.13,2.87-.83,2.42-1.52-.79-1.22-2.45-1.06-3.52.35-1.77-.61-.55-3.29-2.65-3.7-1.75,1-2.71,3.41-5.25,3.25-3.08-.69-4.87.51-5.34,3.65A1,1,0,0,0,97.66,249.49Z"/><path class="cls-14" d="M53.94,363.87c5.17,1.82,10.57,1,15.86,1.3-.23,1.94-.78,3.92-.62,5.83.33,4-1.49,5.51-5.26,5.19L54,375.46c-2.17-.81-4.91.43-6.66-1.87l3.67-.82,1.86.16c3,.11,6,1.82,9.05,0,2.71.27,5.94,1.39,5.45-3.45-.07-.68-.5-1-4.49-2.35-2.34-.93-4.87-2.21-5.05,2.06-.14,3.6-2,.82-3.16.92.92-7.12-4.36-2.82-6.82-3.71C48,361.14,52.14,365.24,53.94,363.87Z"/><path class="cls-10" d="M153.61,305.28c-3.19,1.9-6.4-1.37-9.63,0-.29.13-.92-.25-1.24-.55s1.41-11,2-11.08c3.09-.58,6.22-1,8.83,1.44a6.63,6.63,0,0,1,.83,1.23C154.33,299.32,150.1,302,153.61,305.28Z"/><path class="cls-14" d="M74.3,331.52c-.15-.78-.25-2.22-.44-2.24-2.39-.14-6-1.06-7,.11-2.91,3.6-5.84,1.39-8.81,1.16l1.14-3.92-.2-.29c1.41.46,2.71,1.35,4.3,1,1.3.94,2.35,1.2,2.5-.93,1.21-.74,2.31-1,3.48.2s2.49,1.5,3.77.05a15.85,15.85,0,0,1,8.61-1.24c1.5.22,4.63-2.42,4.49,2.48-.12,4.42-2.34,3.79-5,3.58-.49,0-1-.14-1.45-.21-.32-.88.68-2.61-1.09-2.48-1,.08-.51,1.6-.65,2.47Z"/><path class="cls-14" d="M174.61,295.24c.06.82.11,1.64.21,3.16,2.14-2.34,4.27-4,7.2-2.55a1.85,1.85,0,0,1-.93,2.08c-2.75,2.13-3.63,4.49-1.15,7.43.72.85,1,1.76-.37,2.34l-4-.36c-.89-.84-.51-2.76-2.16-2.77-.29,0-.59,1.64-.89,2.52-1.73,0-3.82.84-4.55-1.77l2.55-10.24Z"/><path class="cls-10" d="M159.49,295.07c1.56-1.31,3.35-.67,5.08-.62,3.56,3.37,2.58,7,.57,10.66l-2.3,1a17.12,17.12,0,0,1-2.7-10.41C160.15,295.5,159.71,295.27,159.49,295.07Z"/><path class="cls-14" d="M133,332.69c.5-1.9,1.38-3.78,1.45-5.69.14-3.9,2.74-3.15,4.84-2.63,2.46.61,3.13,2.94,1.65,4.62-1.86,2.11-.51,4-.63,6-2.71.52-2.53-2.46-4-3.41C134.45,334.57,134.45,334.57,133,332.69Z"/><path class="cls-9" d="M112.83,247.45c-1,1.66-.15,3.29.07,4.93-1.74,1.58-3.58-1.73-5.31.13-.23,0-.46-.06-.7-.08-.73-2.79-2.63-1-4.06-1,.33-1.85.67-3.7,1-5.56,2.54.16,3.5-2.25,5.25-3.25,2.1.41.88,3.09,2.65,3.7Z"/><path class="cls-3" d="M155.69,255.12c-3.41,2.29-27.5,6.34-31.39,5.2C134.55,258.73,144.39,254.87,155.69,255.12Z"/><path class="cls-14" d="M180.69,312.31c3,2.68,2.78,6.7,4.73,10.54-3.61-.6-6.59-3.86-9.43-.08-1.41-2.3.6-3.16.63-4.51A20.7,20.7,0,0,0,180.69,312.31Z"/><path class="cls-12" d="M70.39,354.85c-.84.15-1.88.19-2.18-.63-1.7-4.68-3.56-2.14-5.44-.19L61,351.17c.15-4.79,3.52-4,6.57-3.81C68.69,349.79,71.59,351.55,70.39,354.85Z"/><path class="cls-14" d="M134.64,310.27c.22,1.65,0,3.09,2,4.4,1.72,1.11-1.22,2.95-1.49,4.83l-1.8-4.72c-2.52.38-1.65,4.34-4.56,4.29.65-2.07-1.49-4.47.76-6.35,3.13,1.56,2.21-3.81,5-2.91l-.08.27Z"/><path class="cls-3" d="M69.91,275.37c-4.18,3.87-5.78,9.94-11,13-.28-2.49.37-4.52,2.65-5.87a5.08,5.08,0,0,0,2.33-4.11c2.54-1.27,3.36-4,5-6C70.09,273.08,69.86,274.27,69.91,275.37Z"/><path class="cls-15" d="M159.49,295.07c.22.2.66.43.65.61a17.12,17.12,0,0,0,2.7,10.41l-1.38.66h-1.63l-3.37-1.52c-1.63-2.83-1.38-5.68-.09-8.54C157.41,296.16,158.13,295,159.49,295.07Z"/><path class="cls-14" d="M156.59,319.26c-.74,3.81-3.61,1.71-5.44,1.72-2.39,0-1.24-2.1-1.21-3.38a31.63,31.63,0,0,1,.43-3.35c.11-.66.23-1.31.33-2,.15-1,.45-2.11,1.76-1.84s.84,1.48.71,2.4C152.75,315.82,151.19,319.4,156.59,319.26Z"/><path class="cls-5" d="M77.85,266.33l-2.94,0c0-1.63,1.26-2.36,2.37-2.78,4.37-1.67,7.43-4.95,10.57-8.15l4,0c-3.26,2.06-6.26,4.39-8,8C81.71,264.09,79.19,264,77.85,266.33Z"/><path class="cls-14" d="M166.27,319.42c-1.78,3.09-5.1,3-7-.19l.26-1c.63-2.4-.14-6.54,2.21-6.77,2.75-.27-.55,4.06,1.77,5.47-1.17.77-2.34,1.55.12,2.12Z"/><path class="cls-3" d="M165.14,305.11c2-3.67,3-7.29-.57-10.66,2.26-2.38,4.08-.61,6,.63L168,305.32Z"/><path class="cls-3" d="M134.52,309.81c-2.75-.9-1.83,4.47-5,2.91-1.69-.46-3.74-1.5-2.43-3.19s3.72-2.57,5.81-2.91C135.24,306.24,134.5,308.45,134.52,309.81Z"/><path class="cls-14" d="M172.26,318.26c-.92,1.05.09,3.09-1.73,3.62-1.29.39-1.55-.71-1.83-1.63,1.24-1.92.62-4.19,1.19-6.23.28-1,.2-2.66,1.78-2.47s1,1.78.94,2.8C172.59,315.65,172.39,317,172.26,318.26Z"/><path class="cls-14" d="M146,314.07c-1,2.08.29,6.47-2.19,6.09s.12-4.08-.25-6.33a16.45,16.45,0,0,1,.15-3.42C148.46,309.15,145.63,312.63,146,314.07Z"/><path class="cls-3" d="M156.37,296.7c-1.29,2.86-1.54,5.71.09,8.54l-2.85,0c-3.51-3.31.72-6,.76-9Z"/><path class="cls-3" d="M161.65,258.39c1.57.89,2.87,2,3,4-1.55-.21-3.48.79-4.59-.82S161.15,259.47,161.65,258.39Z"/><path class="cls-3" d="M172.52,307.09c.3-.88.6-2.52.89-2.52,1.65,0,1.27,1.93,2.16,2.77C174.45,308.62,173.43,308.49,172.52,307.09Z"/><path class="cls-12" d="M78,331.27c.14-.87-.33-2.39.65-2.47,1.77-.13.77,1.6,1.09,2.48Z"/><path class="cls-3" d="M159.83,306.76h1.63A1,1,0,0,1,159.83,306.76Z"/><path class="cls-5" d="M73.92,266.38l-1,1C72.09,265.87,73.51,266.64,73.92,266.38Z"/><path class="cls-3" d="M163.63,319.1c-2.46-.57-1.29-1.35-.12-2.12Z"/><path class="cls-5" d="M194.52,226.52c5.52-4.18,9.39,1.24,13.76,2.76,1.77.62,3.3,2.16,5.58,2.34a10.11,10.11,0,0,1,6.16,3c2.61,2.57,5,5.28,9.12,5.28a2.69,2.69,0,0,1,2.12,1.15c4,9,14.23,8.89,20.77,14.23,3.32,2.71,6.38,4.53,4.17,9.48-.91,2.05-.9,4.5-1.4,6.74-.26,1.16.06,2.19,1.1,2.44,7.91,1.84,7.59,8.84,7.93,14.34.2,3.35,1.38,3.79,3.57,4.56a9.14,9.14,0,0,1,6.13,10c-.2,1.59-.28,3.16.74,4.26,5.13,5.49,4.86,12.12,4.37,18.88a2.83,2.83,0,0,0,2.39,3.27,1.14,1.14,0,0,1,0,.66c-2.29,2.07-1,5-1.76,7.44-5.05-3.69-8,.55-11.34,3.06-2.78-3.21-1.74-5.57,1.74-7.18,5.32-2.45,6.11-4,4.33-9.56-2.74-8.55-7.75-15.51-13.57-22.39A102.05,102.05,0,0,0,240.58,283c-2.68-1.86-5.75-2.79-8.82-3.93-4.81-1.78-10.17-3.7-12.34-9.28a3.29,3.29,0,0,0-2.25-2.38c-.16,0-.32-.1-.48-.13-5.73-.87,0-7.12-4-8.63-6.27-2.39-.46-5.35-.39-8,0-.68,1.59-1.67.75-2.49-5.09-5-6-12.84-12.21-17.18C198.76,229.57,194.66,230.64,194.52,226.52Z"/><path class="cls-15" d="M162.63,216.51c-1.33-.93-.75-2.42-1.11-3.64-.67-2.26-2.29-3.21-4-1.4s-2.39,2-5.15.68-7.42-1.43-10.64,1c-3.57,2.76-6.89,3.69-11,1a7.73,7.73,0,0,0-6.14-1.44c-1.11.28-2.32,1-3.12-.29-1.11-1.84,1.23-1.93,1.71-3a16.78,16.78,0,0,0,.63-1.85l.37-.49-.48.38a35.56,35.56,0,0,1-8.51-5.74,2.52,2.52,0,0,1,3.5-1.11c5.36,2.58,7.53-1.8,9.4-4.86,1.34-2.2-1.27-6.31-3-6.14-6.46.62-7.9-4.1-10.31-8l0,0c5-2.28,10.48-.08,15.69-1.58,4.14-1.19,1.9-4.22,1.2-4.91-1.19-1.19-2.82-3.06-5.1-2.41-5,1.41-9.73.31-14.44-1.07-2.51-.74-4.86-.22-7.27.13l-3-1.23-.93-4.92c2.34-.21,3.37,3.83,6.23,1.91l2.53.2a2.53,2.53,0,0,0,1.91,1.73l1.13.22c5.79,3,11.74,2.2,17.71.72,2.33-.31,4.16-1.73,6.15-2.8,3,5.32,3,5.31,6.94,1.34a14,14,0,0,1,1.92-1.38c2.09.94,1.92,4.57,5.07,4.24.12.64,0,1.45.4,1.88.61.72,1.24,0,1.42-.52.89-2.77,1.67-5.58,2.49-8.37,2.2-.84,2.79-3,3.71-4.8.72-1.41-.68-3.86,2.13-4.26.15.07.29.15.43.23l-.42-.24a12.73,12.73,0,0,1,2.51-8.77c2.19-3.29,4.5-7.19,3.74-11.18-.73-3.82-1.1-7.55-.14-11.14,1.11-4.16-.48-5.12-4.09-4.8a6.44,6.44,0,0,1,0-1c3,.14,5.09-.38,3-4,2.57-.35,3.29-1.66,2.44-4.15-1-3,.63-3.89,3.32-3.71.81,10,.67,20,3.21,29.81-2.81,7.94-5.23,16-4.58,24.54a21.06,21.06,0,0,1-5.57,16.55c-2,2.07-4.62,5-8.42,5.18a3.34,3.34,0,0,1-2.55-.7c-3.91-2.93-6.64-2.09-7.95,2.54-.9,3.16-1.27,6.47-1.87,9.71l-2,1c-1.69-.27-2.5.83-3.65,1.87-2.47,2.24-2.09,5.84-4.32,8.08l0,0c-3.14-.48-4.4.91-3.94,4l-.4.43.43-.39c5.55,1,10.5-1,15.78-2.21,5.44-1.26,9.36-3.89,13.73-6.79,2.69-1.8,7.21-1.48,10.21-.09,3.68,1.7,2.44,5.89,2.11,9.27l-6.16,5.66Z"/><path class="cls-2" d="M246.37,334.22l1,3c-.37,1.73,2,2.58,1.3,5l-8.27-5c-.9-1.67-2.35-2.75-4.2-2.47-1,.15-.7,1.58-.79,2.49-1.38-.56-2.25-2.14-4-2L231,335l.42.24c-1.37,3.83-3.54,1.24-4.92.31-3.22-2.2-6.36-3.39-10-1.27l-2-.09,0,0v-1c-1.36-2.75-4.1-4.61-5-7.66,3.23-1.19,4.31-3,1.57-5.79-.9-.91-2.26-1.17-.25-2.67,1.72-1.29-.27-2.34-1.31-2.57a24.82,24.82,0,0,0-4.89-.14l-3.07-.09-1-.85c.2-2.34-1.17-4.15-2.1-6.11,3.84-3.06,3.63-7.36,2.66-11.31s2.17-6.35,2.76-9.66c.22-1.27,1.68-.45,2.34.28,1.92,2.1,4.82,1.56,6.75,2.38,5.85,2.49,12.66,1.36,17.93,5.18a4.39,4.39,0,0,0,4.59.66A2.81,2.81,0,0,1,239,296c1,1.42-.19,2.49-1.2,3.36-1.34,1.15-3.13,1.95-2.85,4.7a14.57,14.57,0,0,0,6.44-3.21c1-.83,2.09-2.29,3.33-1s-.41,2.37-1,3.48a17.1,17.1,0,0,1-1.38,2c-1.24,1.81-3.09,3.58,1.13,4.12,3.11.4,2.56,4.34,4.88,5.87,3,2,1.81,4.49.23,6.87-.24.37-.08,1-.19,1.46-.41,1.65,1.08,4.31-1.08,4.81s-1.55-2.34-2.24-3.67c-.4-.79-1.06-1.51-1.91-1.1s-.71,1.4-.36,2.2c.79,1.78.81,4,2.58,5.25C245.42,332.31,245.21,333.49,246.37,334.22Zm-17.29-2c-.08-1.48-1.19-2.24-2.38-2.77-.45-.19-1.61.1-1.7.39-.46,1.62.88,2.3,2,2.95A1.37,1.37,0,0,0,229.08,332.27Zm4,.6c.73-2.77-.34-4.49-3.46-4.56Zm-26.49-39.41a7.12,7.12,0,0,0-1.31-1.55c-.27-.18-1.1,0-1.18.17-.38.89.16,1.52,1,1.8C205.34,294,205.8,293.68,206.55,293.46Z"/><path class="cls-5" d="M240.4,337.18l8.27,5c.72-2.4-1.67-3.25-1.3-5,.62.19,1.54.18,1.82.59,5.25,7.68,10.92,15.1,15.08,23.48l-1.9-.17-2.05-1.95c-3.39-3-6-7.05-10.94-8l0,0a2.63,2.63,0,0,0-1.59-2.26c-4.31-2.59-8.05-3-12.52-1.44-.53.19-1.27-.21-1.91-.34a4.83,4.83,0,0,0-.76,0l-1.18-1.23c-.28-2.4-3-2.06-4-3.64.94-2.33,2.46-2,4.25-1,1.55.83,3.21,1.71,4.76-.09h.49l.5,0c1.22-.27,2.33,1.41,3.56.31C241.62,339.86,238.23,338.92,240.4,337.18Z"/><path class="cls-10" d="M267.89,340.38c3.38-2.51,6.29-6.75,11.34-3.06l0-.1c.08.63.25,1.16,1.06,1.06l-.08-.09c-1.43,5.32,3.05,6.11,6.11,8-1.83,1.38-3,4.18-6.11,2.85a.93.93,0,0,0-.78.22c-3.67,3.73-3.66,3.73-6.86-.22-1-2.6-3.1-4.35-5-6.25C267.66,342,267.78,341.17,267.89,340.38Z"/><path class="cls-5" d="M286.29,346.17c-3.06-1.87-7.54-2.66-6.11-8,6.27,5.68,10.19,5.89,14.27.75l.37,0c3.39.94,3,3.87,3.4,6.41.41,2.89-.92,6,.85,8.72.28,1.29.62,2.57.82,3.87.17,1.1.74,2.39-.53,3.16s-1.94-.95-3-1.08c-.46-1.55-1.74-1.87-3.09-2.09C293.25,349.71,291.86,347.34,286.29,346.17Z"/><path class="cls-14" d="M172.76,231.48c-1,2.4-2.89,1.25-4.53,1.11-.72-.65-1.72-1.58-2.44-.75s.58,1.52,1.11,2.21c.33.88,1.06,1.78-.13,2.59-.92.62-1.58,0-2.05-.61-1.82-2.53-3.72-5-5.31-7.7-1.69-2.84,1.49-3,2.69-4.15,1.47-1.38,3.3-1.27,5.09-.47l1.39,1.76c1.95,1.18,1.63,4.18,4,5-.06.13-.2.27-.17.37A3.23,3.23,0,0,0,172.76,231.48Z"/><path class="cls-14" d="M181,213.54l1.59-.07c.8,1,1.08,2.7,3,2.1l0,0c-.37,1.05.08,1.28,1,1l0,0c0,1.94-1.2,3.33-2.08,4.88-2.3,0-1.64,1.81-1.86,3.08-1.73.21-3.64.17-3.51,2.75l-2.47,1.26,0-1.82c1.53-2.88,1-4.75-2.51-5.19a1.13,1.13,0,0,1-1.41-.87c-.26-2.26,3.35-1.75,3-4.11C177.58,215.89,178.33,213,181,213.54Z"/><path class="cls-10" d="M194.48,308.59c-2,0-3.32-.33-3.13-2.95.14-1.78,1-3.88-.78-5.47v-3.76a4.9,4.9,0,0,1,1-.24c7.89-.08,7.89-.08,4.72,6.75-.13.26,0,.65,0,1C195.09,305.24,196.48,307.56,194.48,308.59Z"/><path class="cls-6" d="M175.58,216.51c.4,2.36-3.21,1.85-3,4.11l-2.89-.07c-2.32-1-1.17-4.88-4.33-5.16l6.16-5.66,2.84-2.3C176.42,210.24,172.74,213.8,175.58,216.51Z"/><path class="cls-14" d="M296.32,360.05c1.1.13,1.71,1.88,3,1.08s.7-2.06.53-3.16c-.2-1.3-.54-2.58-.82-3.87,3.35.58,4.52,3.53,6.31,5.8l-.79,1-1.34-.86-.65-.6-.45,1.71-2,.14c-1.31-.49-1.63.24-1.75,1.34-.26,2.49-.56,5-.84,7.44-.46-.69-.9-.57-1.32,0l-2.12.61-2-1.45.77-.81c4.48-.65,5.05-2.26,2.75-7.69C295.87,360.5,296.09,360.27,296.32,360.05Z"/><path class="cls-10" d="M169.74,220.55l2.89.07a1.13,1.13,0,0,0,1.41.87c3.23,2.88-1.57,4.2-1.55,6.39,2,1.1,2.63-1.24,4.06-1.2,0,.61,0,1.21,0,1.82a3.35,3.35,0,0,1-4,2c-2.39-.82-2.07-3.82-4-5l-.09-2Z"/><path class="cls-5" d="M189.55,218.55c.8,1.12,2,.87,3.15,1,1.32.15,2.92.43,3.29,1.74.48,1.74-1.23,2.42-2.46,3.21-2.65-2.22-5.31-1.38-8,0l0-2.88Z"/><path class="cls-8" d="M262.37,361.09l1.9.17c1,1.7,3,2.66,3.31,4.82l-10.38.86C258.82,364.26,259.18,361.5,262.37,361.09Z"/><path class="cls-7" d="M194.48,308.59c2-1,.61-3.35,1.78-4.7l2.18,3.39c.93,2,2.3,3.77,2.1,6.11l-2.86,3.12C197.36,313.57,194.23,311.77,194.48,308.59Z"/><path class="cls-14" d="M155.7,242.22c-1.13-1-3-.81-3.8-2.38,2.46-.24,3.22-1.77,3.3-4.05.07-2.12.42-4.23.82-7.84,1.06,5.14,1.82,8.82,2.59,12.51C159.31,243.8,157.1,242.35,155.7,242.22Z"/><path class="cls-14" d="M300.37,373.19c-1.45,3.16.32,5.87,1.2,8.7.52,1.7,1.75,3.18,1.49,5.11-3.07-1.28-2.41-4.71-3.95-6.85-.81-1.11-.25-3.63-2.9-2.95l-1.44-1c.32-.34.64-.68,1-1C297.56,375.2,298.42,372.93,300.37,373.19Z"/><path class="cls-5" d="M200.86,246.08a3.28,3.28,0,0,0-4,.46c-1.4,1.16-2.55.56-3-.95s.36-2.56,1.81-3c2.21-.65,4.18.46,6.19,1.11.8.26,1.54.92,1.21,1.84S201.74,246.35,200.86,246.08Z"/><path class="cls-14" d="M190.57,296.41v3.76c-.7-.2-1.57-.76-2.07-.53-1.21.57-2.24,1.37-3.36-.05s0-2.67.61-3.9c1.52-1.19,2.48.71,3.79.67Z"/><path class="cls-7" d="M267.54,342.77c1.9,1.9,4,3.65,5,6.25-3,3-4.5,1.49-5.1-1.83A21.16,21.16,0,0,1,267.54,342.77Z"/><path class="cls-8" d="M300.37,373.19c-1.95-.26-2.81,2-4.65,2l-1.46-.11c0-.33,0-.66,0-1,.06-.64.12-1.27.17-1.9a2,2,0,0,0,1.84-2.13c.42-.61.86-.73,1.32,0l1.6-.18.31.32,1.68,2c-.62,0-1.1.2-.9,1Z"/><path class="cls-14" d="M293.23,358c1.35.22,2.63.54,3.09,2.09-.23.22-.45.45-.68.68-6.68-1.48-3.61,3.61-4.2,6.23l-.68.53C289.11,363.67,289.23,360.31,293.23,358Z"/><path class="cls-5" d="M172.6,230.47a3.35,3.35,0,0,0,4-2l2.47-1.26c2.19,1.26,1,2.23-.3,3.12-1.83,1.24-3.92,1.19-6,1.12a3.23,3.23,0,0,1-.33-.64C172.4,230.74,172.54,230.6,172.6,230.47Z"/><path class="cls-5" d="M171,236l4.94-1.19C174.76,237.16,173.18,237.83,171,236Z"/><path class="cls-5" d="M184.57,233.5a2,2,0,0,1-2.08,2.19c-1.25,0-1-1.2-.79-1.83.41-1.36.86-3.13,2.86-1.39Z"/><path class="cls-6" d="M185.59,221.6l0,2.88c-1,.28-2,1.63-3,0,.22-1.27-.44-3.07,1.86-3.08Z"/><path class="cls-5" d="M180,237.88c-.53,1.33-1.17,2.2-2.47,2.15-.21,0-.66-.81-.55-1C177.51,237.93,178.31,237.23,180,237.88Z"/><path class="cls-5" d="M306.05,407c-.55.37-.88.75-1.24.79-.66.06-1.3-.26-1.07-1.05.07-.28.73-.55,1.11-.54S305.52,406.65,306.05,407Z"/><path class="cls-5" d="M246.37,334.22c-1.16-.73-1-1.91-1-3C246.46,332,248.16,332.51,246.37,334.22Z"/><path class="cls-8" d="M294.77,376.22l1.44,1c-.28.72-.84.91-1.42.48S294,376.71,294.77,376.22Z"/><path class="cls-7" d="M296.25,370.07a2,2,0,0,1-1.84,2.13c-.09-.51-.18-1-.28-1.52Z"/><path class="cls-14" d="M292.12,369.23c-.91-.22-1.1-1-1.36-1.74l.68-.53,1.45,1.46Z"/><path class="cls-6" d="M168.49,223.48l.09,2-1.39-1.76Z"/><path class="cls-6" d="M187.57,231.49l-.44.39.41-.43Z"/><path class="cls-6" d="M184.57,233.5v-1C185.3,232.81,185.23,233.15,184.57,233.5Z"/><path class="cls-7" d="M294.24,374.1c0,.32,0,.65,0,1C293.44,374.77,293.45,374.44,294.24,374.1Z"/><path class="cls-6" d="M187.54,231.45l.43-.4-.4.44Z"/><path class="cls-6" d="M209.53,325.5c.89,3.05,3.63,4.91,5,7.66-.66.35-.78.69,0,1l0,0a3,3,0,0,0,2,2h0l1,1h0a2,2,0,0,0,2,1,4.49,4.49,0,0,1,0,.82l1,1.13h0c.59,1.91,3.1,2.69,2.94,5-2.43-.12-4-1.89-6-3l-16.19-18.06q.14-5,.29-9.88l3.07.09c1.16,1.62-.1,3.94,1.63,5.42,4.49,3.83-2,1.29-1.59,2.72a4.36,4.36,0,0,0,.82,1.62A5.11,5.11,0,0,0,209.53,325.5Z"/><path class="cls-14" d="M196.6,335.13c-.23-1.41-.32-2.78,1.72-2.64,1.28.08,2.9-.11,3.62,1.08s-.19,2.62-1.18,3.43c-2.83,2.31-5.9,1.83-8.71,0-2.34-1.49-3.3-3.77-1.75-6.39,1.78-3,4.56-3.54,7.73-2.58,1.27.38,2.93.88,2.35,2.5s-1.83.46-2.89.06c-1.82-.7-3.93-.83-4.61,1.32-.74,2.34.77,3.66,3.18,3.85.41,0,1.08.13,1.18,0C197.55,335.19,196.94,335.23,196.6,335.13Z"/><path class="cls-14" d="M201.58,314.24q-.15,4.93-.29,9.88c-4.09,1.44-2.39-2.16-3.21-3.87-2.75,1.87-7,3.83-8.73,2.47-2.38-1.89.89-5.82.17-8.77,3.62-.76,3.48,7.54,8.16,2.56l2.86-3.12C200.88,313.68,201.23,314,201.58,314.24Z"/><path class="cls-14" d="M182.59,331.13c1.33-.82.84-1.93,1-2.82s.63-1.68,1.54-1.61c1.29.1,1.45,1.18,1.29,2.24-.38,2.58-.8,5.16-1.22,7.87-2.68-.58-3.68-3.33-6-4.36-1.07,0-1,1-1.27,1.73-.38,1,0,2.73-1.82,2.18-1.25-.37-.73-1.69-.61-2.6.34-2.39.8-4.77,1.3-7.61Z"/><path class="cls-14" d="M161.05,333.05c.93-.37,2.34-1.28,2.69.45.26,1.3-1.32,1.61-2.4,1.95-2.47.79-4.78.42-6.11-1.87-1.57-2.71-.48-5.21,1.72-7.08a5.61,5.61,0,0,1,6.93-.51c.62.36,1,1.06.64,1.63a1.91,1.91,0,0,1-1.67.61c-1.44-.51-2.79-1.09-4.23-.06-1.19.84-1.89,1.93-1.38,3.37C157.87,333.32,159.35,333.41,161.05,333.05Z"/><path class="cls-14" d="M142.84,335.1c2-3.32,3.93-6.63,6.4-10.78,1.09,4.18,1.9,7.26,3,11.54-3.64-2.69-6.55-1.72-9.47-.8Z"/><path class="cls-14" d="M183.13,305.24c.57-1.73-.23-4.55,3.3-4.16,2.47.27,1.87,1.73,1.45,3.15-.48,1.64.53,4.37-2.87,3.95C183.17,308,182.21,307.28,183.13,305.24Z"/><path class="cls-14" d="M167.68,333.37c1.09-2.27.07-5.31,2-7.6a1.42,1.42,0,0,1,1.29.06c1.33,2.73-.62,5.33-.44,8.06.08,1.16-.37,2.44-2,2.14C167.15,335.76,167.73,334.52,167.68,333.37Z"/><path class="cls-5" d="M188.28,365.5c.28.13.71.19.79.39s-.2.53-.32.81c-.28-.12-.71-.18-.79-.38S188.16,365.78,188.28,365.5Z"/><path class="cls-8" d="M59.23,326.63l-1.14,3.92-1.16,1.78c-.82,0-1.64-.06-2.46,0-1.94.09-5.09,2.67-5.44-.38a5.38,5.38,0,0,1,5.83-5.65C56.32,326.37,57.77,326.51,59.23,326.63Z"/><path class="cls-2" d="M47.89,366.42c2.46.89,7.74-3.41,6.82,3.71-2.16-.07-1.7,1.54-1.8,2.8l-1.86-.16c.64-2.9-1.8-4.24-3.1-6.15Z"/><path class="cls-7" d="M48,366.62c1.3,1.91,3.74,3.25,3.1,6.15l-3.67.82C46.94,371.21,46.35,368.83,48,366.62Z"/><path class="cls-3" d="M53,300.3c.5,2.36-.74,4.18-1.92,6-.29.9.3,2.89-1.25,2.32s.51-2.14.15-3.33C50.2,303.19,51.62,301.77,53,300.3Z"/><path class="cls-1" d="M28,344.18c3.13.42,3.56,2.67,3.87,5.8-2.9-1.38-3.9-3.24-3.87-5.8Z"/><path class="cls-7" d="M223.44,345.18c.16-2.34-2.35-3.12-2.94-5,2.63-.37,4.47,1.85,6.9,2.14,1,1.58,3.76,1.24,4,3.64l1.18,1.23a3.86,3.86,0,0,1,.76,0c-.17,2,.51,4.24,2.3,4.4,3.62.32,6.64,2.54,10.27,2.64,2,.05,4.88-.75,5.14,2.27.2,2.4-2.67,2.46-4.28,3.36a6.89,6.89,0,0,1-2.41.35c-1.3-3.09-3.7-3.23-6.4-2.27-1.23.44-2.36,1.17-3.56,1.68-1.72.74-3.71,1.16-5.18,0-1.75-1.33,0-3.05.38-4.48.63-2.3,1.64-4.45-1.22-6C226.84,347.74,224.26,347.57,223.44,345.18Z"/><path class="cls-8" d="M244.4,360.16a6.89,6.89,0,0,0,2.41-.35c1.61-.9,4.48-1,4.28-3.36-.26-3-3.14-2.22-5.14-2.27-3.63-.1-6.65-2.32-10.27-2.64-1.79-.16-2.47-2.42-2.3-4.4.64.12,1.38.52,1.91.33,4.47-1.58,8.21-1.15,12.52,1.44a2.63,2.63,0,0,1,1.59,2.26c-3.77-.57-7.1-3.09-12.48-2.72,4.84,2,8,5.16,12.46,2.68,4.9,1,7.55,5,10.94,8-6.57,2.16-13.74,1.69-20.29,5.55.23-2.6,2.61-2.7,2.43-4.49Z"/><path class="cls-14" d="M321.61,337.9c1,.3,2.2,0,2.71,1.3-.17,4.54,3.27,7.75,4.43,11.82.32,1.13,1.13,1.84-.18,2.86s-3.93,1.32-2.45,3.94c1.66,2.91,3.32-.93,5-.18.13.34.41.68.34.9-.58,1.8-4.81,1.71-2.74,4.79,1.85,2.75,3.26-.49,4.91-.77a1.41,1.41,0,0,1,1.68.58c-6.05,5.06-6.05,5.06-10.3-2-.3-7-4.54-10.41-10.8-12-.19-.2-.37-.41-.55-.61-.43.41-.3.78.1,1.12,1.59,4.31,1.19,10.09,7.89,10.68.55.05,1,.75,1.56,1.15a13,13,0,0,1,1,4.7,7.48,7.48,0,0,1-5.48,7.81c-3.73,1.23-2.67-3.58-4.67-4.85-.07-2.48-2.53-4.3-1.92-7,.72-.38,1.94-.65,1.16-1.76-.45-.64-.9.21-1.19.67-2-.45-1.27-4.48-3.71-3.41-2.14.94-.11,3.48-.41,5.29a4.56,4.56,0,0,0,.06,1c-2.21.18-2.45-1.92-3.52-3.06l.79-1c1.93-3.51-1.75-7.37.44-11.17l6.31,8.59c.3,1,1,2.11,1.9,1.31,1.31-1.23,0-2.56-.71-3.72-.31-3.38-3.36-6-2.94-10.14l9.26,4.64c1-2.25-1.55-3.37-.69-6,2.47,2.44,3,5.41,4.44,7.75.54.85-.09,3,2.2,2.21s1.1-2.36.73-3.64C325.14,345.62,322,342.31,321.61,337.9Zm.81,27.84c-.33-2.42-1.21-4.78-4.44-4.54-1.8.14-4.06,1.15-3.42,3.28.81,2.65,1.2,6.66,4.18,7.1C320.92,371.9,322.52,368.8,322.42,365.74ZM308.2,355.19l-.56-.49a2.21,2.21,0,0,0-.27.85c0,.18.37.32.57.48Z"/><path class="cls-6" d="M314.22,349.12c6.26,1.62,10.5,5.05,10.8,12l-1.8.31c-.52-.4-1-1.1-1.56-1.15-6.7-.59-6.3-6.37-7.89-10.68Z"/><path class="cls-14" d="M309.36,370.05c-.38-1.62-.75-3.23-1.13-4.85,2.45.18,2,2.69,3.21,3.93.47,2.22,2.1,4.08,1.9,6.53-.23,2.9-1.32,5.17-4.46,5.59-3.46.47-3.8-3.08-5.59-4.77-.15-.13.11-1.13.38-1.23,1.56-.62,1.72,1.09,2.59,1.68a2.11,2.11,0,0,0,2.58,2.24,2.79,2.79,0,0,0,2.44-2.72A8.28,8.28,0,0,0,309.36,370.05Z"/><path class="cls-6" d="M301.16,372.2l-1.68-2,1.2-.61-.92-.93-.59,1.22-1.6.18c.28-2.48.58-4.95.84-7.44.12-1.1.44-1.83,1.75-1.33,1.5,1.7.43,4.31,2.1,5.95.51,2.17,2.82,3.56,2.6,6.11-1.16.22-2.27-1.49-3.47-.17C301.3,372.83,301.22,372.52,301.16,372.2Z"/><path class="cls-6" d="M311.44,369.13c-1.16-1.24-.76-3.75-3.21-3.93l-.12-1.28a4.56,4.56,0,0,1-.06-1c.3-1.81-1.73-4.35.41-5.29,2.44-1.07,1.75,3,3.71,3.41l0,1.09c-.61,2.66,1.85,4.48,1.92,7Z"/><path class="cls-6" d="M309.36,370.05a8.28,8.28,0,0,1,1.92,6.4,2.79,2.79,0,0,1-2.44,2.72,2.11,2.11,0,0,1-2.58-2.24C309.35,375.56,307.06,371.77,309.36,370.05Z"/><path class="cls-7" d="M302.26,367.21c-1.67-1.64-.6-4.25-2.1-5.95l2-.15h1.07C303,363.17,304.09,365.42,302.26,367.21Z"/><path class="cls-6" d="M303.22,361.12h-1.07l.45-1.71.65.6Z"/><path class="cls-14" d="M301.16,372.2c.06.32.14.63.23.95a.67.67,0,0,1-1.13,0C300.06,372.4,300.54,372.23,301.16,372.2Z"/><path class="cls-6" d="M312.13,357.32l-6.31-8.59c-2.19,3.8,1.49,7.66-.44,11.17-1.79-2.27-3-5.22-6.31-5.8-1.77-2.76-.44-5.83-.85-8.72-.36-2.54,0-5.47-3.4-6.41a11.27,11.27,0,0,0-.28-9.1l.89-.82c.82,1.21,1.67,2.4,2.44,3.64s1.2,2.63,2.9,1.41c1.09-.79,3-1,2.53-3.09-.19-.84-1.49-1.49-.54-2.56,5.08,1.75,5.7,1.56,7.72-2.47l.8-.83a4.5,4.5,0,0,0,3.59.9c1.51,2.07,2.71,4.54,5.27,5.51,3.8,1.44.05,4.45,1.47,6.34.4,4.41,3.53,7.72,4.71,11.81.37,1.28,1.55,2.82-.73,3.64s-1.66-1.36-2.2-2.21c-1.47-2.34-2-5.31-4.44-7.75-.86,2.65,1.66,3.77.69,6l-9.26-4.64c-.42,4.16,2.63,6.76,2.94,10.14C312.92,355.71,312.52,356.51,312.13,357.32Z"/><path class="cls-10" d="M310.14,311.3c-.58-2.64.37-4.39,3-5.15,1.58-.15,3.08.13,3.46,1.88,1,4.73,4.49,8.65,4.37,13.72-2.35,1.15-3.18-.33-3.86-2.19C315.81,316,314.13,312.65,310.14,311.3Z"/><path class="cls-6" d="M301.35,312.7c-.25-1.2-1.68-2.44-.18-3.6,1.89-1.46,2.61,1.76,4.33,1.25-.38,1.95.72,3.36,1.74,4.8a2,2,0,0,0,1,2.11l3,7.89-.8.83c-5.44-1.87-8.45-5.28-7.34-11.4C303.36,313.35,303.14,312.18,301.35,312.7Z"/><path class="cls-14" d="M311.28,325.15l-3-7.89c1.42-.24,3-2.78,4.12-.77,1.58,2.86,5,5.55,2.5,9.56A4.5,4.5,0,0,1,311.28,325.15Z"/><path class="cls-10" d="M307.24,315.15c-1-1.44-2.12-2.85-1.74-4.8,2-2.12,3.26-.05,4.7.91C310.2,313.31,310.74,315.77,307.24,315.15Z"/><path class="cls-12" d="M171.39,106.91c-2.69-.18-4.33.72-3.32,3.71.85,2.49.13,3.8-2.44,4.15l-1.95-.06v.05c.11-1.15.1-2.27-1-3-.35-.73-.68-.77-1,0v2l-2-1-1-1-.06-2,.14-3.14c2.23-.19,2.94,2.67,5.38,2.62,1.41-3.73-2.54-4.94-3.51-7.46.71-.23,2-.36,1.4-1.38-2.45-3.84-2.29-8.3-3.3-12.47l.06-.07c3.54-1,1.82-4.25,2.34-6.32,1.36-5.48-1.51-12.32-5.92-13.13-4.14-.77-8-2.79-12.29-2.74l-1.26-.89a6.06,6.06,0,0,0-3.89-1l-3,0c-1.28-1.42-2.61-1.36-4-.13l-6.07,1.37-2.89-.24c-.18-1.81-1.35-2.38-2.7-1.5s-3.06.49-4.43.8c-4.25,1-8.77-.31-12.83,1.71L99,66.31c-3,.51-6.09.94-8.31,3.41-1.85.48-3.61,1.49-5.63,1l-1.17-1.38-.86,1-1.81,0c0-1.24-1-2.91.41-3.57,1.84-.86,5.24-2,5.71-1.68,5.55,4.17,8.4-1.87,12.47-2.92,15.65-2.23,31.24-1.63,46.83.77,10,1.54,16.29,7.72,21.34,15.84,1.55,2.5-.27,4.77.16,7.2C169.33,92.92,170.31,99.92,171.39,106.91Z"/><path class="cls-14" d="M110.5,44.61c.37,2.61.36,4.62-1.67,5.75-.84.47-1.49-.53-1.76-1.31C106.08,46.15,108.9,46.1,110.5,44.61Z"/><path class="cls-13" d="M85,70.75c2,.46,3.78-.55,5.63-1,3.07-.4,6.66.44,8.31-3.41l2.85-.42c.11,1.44.85,2.24,2.28,1.75,3.9-1.34,7.9-.51,11.84-.71,2.19-.12,4.33-.11,5.84-2.05l2.89.24c3.48,3.86,8.68,2.91,13,3.93,3.82.92,5.74,2.4,5.77,5.64S141.93,81,137,79.13c5.14,2.69-.62,10.37,6.25,11.7a8,8,0,0,1-.75,1.74,4.58,4.58,0,0,0-.67,3.33c-3.5,2.65-6.41,6.24-11.08,7.07-.36-.29-.81-.89-1.08-.82-5.24,1.36-9.89,4.84-15.66,4.35-.09,0-.2.24-.3.37l-3.8-1.41c-.7-3.62-4.4-2.23-6.37-3.84C97.72,96.88,93,96.56,86.64,99.9c-2.67,1.41-4.13,3.22-3.45,6.33-1.11,3.66-.35,5.22,3.54,3.08,4.5-2.47,8.88-1.18,13.27.31l-.15,2.2-2,.19c-4.18-2.14-9.34,0-11.84,4.92-.27,3.43,2,2.34,3.76,2.1,2.09.88,4.16,1.47,6-.42l2,.1.92,1.22c.08,1.81-2.51,2.26-2.09,4.59,2.8-.23,5.61,2.58,8.56-.29.61-.6,2.2-.22,2,.36-1.27,4.24,1.11,6.61,3.95,9,.65.54-.41,1.45-1.1,1.89-1.24.79-2.6,1.43-3.79,2.3-3.91,2.85-8.38,5.24-9.58,10.57-3.84,3.68-7.7,7.34-5,13.45,1.12,4.4,3.86,8.33,3.84,13.07-5.71-5.13-7.8-11.93-8.4-19.22s-4.53-12.67-8-18.52c-1.6-2.7-3.38-5-.45-8.85,2.06-2.69,2.27-7.67.57-11.3a9,9,0,0,1,0-8.07c2.38-4.33.3-6.4-2.72-8.56-.06-.91-.13-1.82-.2-2.74a100.77,100.77,0,0,0,0-19.8l1.81-3.53a2.33,2.33,0,0,0,1.73-2.38l1.24-1.59,1.81,0A1.94,1.94,0,0,0,85,70.75Z"/><path class="cls-16" d="M62.37,156.21l-1-1.88-.21-4.48c2.3-.75,2.85-3,4.11-4.67,1.52-2,3-4,6-3.35-1.79,4-3.48,7.91-.09,12,.73.88.44,3.18-.57,2.56C67.72,154.52,65.06,157.28,62.37,156.21Z"/><path class="cls-13" d="M74.87,163.08c-.07,1.75.29,3.75-2,3.45-3-.41-2.81-3.65-3.68-5.6-.71-1.58,1.92-3.09,3.23-2.79C75,158.7,74.27,161.5,74.87,163.08Z"/><path class="cls-15" d="M76.37,97.61c.07.92.14,1.83.2,2.74-.71,2.18-1.41,4.36-2.12,6.54A6.64,6.64,0,0,1,76.37,97.61Z"/><path class="cls-12" d="M68.2,126.79c1.9,2.94,3.64,1.62,5.37-.19l.39,1.16c-.07.66-.15,1.33-.22,2-.11.08-.32.17-.32.25a4,4,0,0,0,.15.73c-.08.63-.15,1.25-.23,1.88H71l-.76-1.37h-.51l-1,.3C68.46,130,67.27,128.48,68.2,126.79Z"/><path class="cls-15" d="M71,132.62h2.33c.67,2.36-.9,4.48-.73,6.79L71,136.65l-.24-1.83,0-1.95Z"/><path class="cls-15" d="M74,127.76l-.39-1.16c.17-.66.33-1.32.5-2C74.94,125.7,74.61,126.73,74,127.76Z"/><path class="cls-15" d="M74.37,116.71a3.67,3.67,0,0,1-.25-3.15A2.93,2.93,0,0,1,74.37,116.71Z"/><path class="cls-15" d="M74.08,111c.07-.7.13-1.39.2-2.08A1.63,1.63,0,0,1,74.08,111Z"/><path class="cls-15" d="M74.2,122.91l.3-1.14Z"/><path class="cls-15" d="M73.57,130.73a4,4,0,0,1-.15-.73c0-.08.21-.17.32-.25C73.68,130.08,73.63,130.4,73.57,130.73Z"/><path class="cls-10" d="M301.35,312.7c1.79-.52,2,.65,1.79,1.88-1.11,6.12,1.9,9.53,7.34,11.4-2,4-2.64,4.22-7.72,2.47-.95,1.07.35,1.72.54,2.56.47,2.14-1.44,2.3-2.53,3.09-1.7,1.22-2.21-.28-2.9-1.41s-1.62-2.43-2.44-3.64c-1.22-2.14-2.35-4.32-3.67-6.39-1.44-2.25-.2-3.2,1.66-4,2.68-1.72,2.91,1.65,4.8,2.37C298.15,317.76,298,314.49,301.35,312.7Z"/><path class="cls-10" d="M294.54,329.87a11.27,11.27,0,0,1,.28,9.1l-.38,0c-6.28,0-10.8-2.69-13.15-8.68a1.47,1.47,0,0,0-.3-.38,1.14,1.14,0,0,0,0-.66C286.07,324.65,289.47,324.81,294.54,329.87Zm-9.72,1.86c2.28,2,3.77,3.47,6.27,3.78C291.37,331,289.08,330.62,284.82,331.73Z"/><path class="cls-8" d="M185.59,221.6l-1.16-.19c.88-1.55,2.12-2.94,2.08-4.88l3.08,1.07c0,.31,0,.63,0,1Z"/><path class="cls-14" d="M141.67,195.54l2-1c1.4.46,3.23-.88,3.86,2.26.55,2.75-.89,2.95-2.21,3.91-2,1.45-3.85,3.06-5.92,4.34-1.74,1.08-3.65,2.58-5.73.47l0,0C139.52,203.72,141.41,201.36,141.67,195.54Z"/><path class="cls-10" d="M176.27,140.63c1.79-1.1,3.55-1.27,5.26.17.33,2.37,1.95,5.68-3,4.14l-1.92-2.22Z"/><path class="cls-15" d="M176.57,142.72l1.92,2.22a5.71,5.71,0,0,1-2.92,6C176.05,148,174.61,145.21,176.57,142.72Z"/><path class="cls-2" d="M63.93,278.36a5.08,5.08,0,0,1-2.33,4.11c-2.28,1.35-2.93,3.38-2.65,5.87h0c-2,.67-2.53,2.78-4,4C54.48,286.74,59.35,279.17,63.93,278.36Z"/><path class="cls-3" d="M55,292.31c1.45-1.2,2-3.31,4-4-.43,4.77-3.75,8.1-6,12C52.32,297.3,54.58,295,55,292.31Z"/><path class="cls-12" d="M102.83,251.39c1.43.06,3.33-1.75,4.06,1l-4.09,1.37c-4.37,1.43-5,.9-5.14-4.31a1,1,0,0,1,.83,0l1.34,1,1,.9A1.71,1.71,0,0,0,102.83,251.39Z"/><path class="cls-5" d="M92.81,255.4l-1,0c0-1.08-.17-2.25,1-3C92.82,253.44,92.81,254.42,92.81,255.4Z"/><path class="cls-9" d="M92.83,249.42l.24-.42-.22.43Z"/><path class="cls-14" d="M70,118.41c-1.65-.62-1.05-2.09-1.09-3.26,0-.93,0-2.17,1.45-1.88s1.53,1.51,1.5,2.69A2.19,2.19,0,0,1,70,118.41Z"/><path class="cls-12" d="M79.94,71.9a2.33,2.33,0,0,1-1.73,2.38C77.84,72.81,78.42,72,79.94,71.9Z"/><path class="cls-11" d="M70.8,134.83l.24,1.82c-3.4,1.53-4.82.16-5.06-4.85l2.71-.26,1-.3.12,0-.13,1.64Z"/><path class="cls-11" d="M63.93,129.75c.64.64,1.28,1.28,1.91,1.93A1.78,1.78,0,0,1,63.93,129.75Z"/><path class="cls-7" d="M28,374.91l-.93-.79Z"/><path class="cls-8" d="M185.55,215.57c-1.92.6-2.2-1.12-3-2.1C184.07,213.43,185.25,213.87,185.55,215.57Z"/><path class="cls-8" d="M186.54,216.56c-.95.26-1.4,0-1-1C186.18,215.55,186.55,215.87,186.54,216.56Z"/><path class="cls-12" d="M65.83,326.42c-.15,2.13-1.2,1.87-2.5.93C63.59,325.48,65,326.58,65.83,326.42Z"/><path class="cls-15" d="M91.75,161.8c-2.71-6.11,1.15-9.77,5-13.44.15,1.93,1.26,2.2,3,2.27,4.67.2,7.48-2.1,9.26-6.11,3.58.58,7.32-.41,10.81,1.09.82,3.95,3.92,1.35,5.87,2,0,2.37-1.69,2.54-3.55,3.21-2.59.93-4.82,2.85-7.2,4.34l-6.2.58c-7-2.91-12-1.37-15.54,4.77C92.93,161.08,92.25,161.39,91.75,161.8Z"/><path class="cls-13" d="M101.82,170.49l3,1.23c2.65,3,7.94,3.61,8,8.91l0,0C106.1,180.52,104.54,174.88,101.82,170.49Z"/><path class="cls-13" d="M108.77,155.78c2.07-.2,4.13-.39,6.2-.57l3.75.55c-.49,2.78-2.7,1.68-4.3,1.88-3.08.38-6.49-.3-8.69,2.81l-1.9-.09C103.22,156.4,107.08,157.25,108.77,155.78Z"/><path class="cls-12" d="M103.83,160.36l1.9.1,1,.34c1.49,1.76-2.09,3.28-.23,5.06l.66,1.62c-2.86,1.92-3.89-2.12-6.23-1.91C100.51,163.06,102.56,161.93,103.83,160.36Z"/><path class="cls-15" d="M113.81,181.6h-1l0,0c0-.33,0-.67,0-1l0,0h.42l.41,0Z"/><path class="cls-13" d="M113.81,181.6c0-.33-.11-.66-.16-1l1.07.95,0,0h-1Z"/><path class="cls-15" d="M112.77,181.59l-.22.42.24-.4Z"/><path class="cls-14" d="M61,351.17,62.77,354c.69,2.56,2.6,5,.56,7.85-2.53-2.27-1.1-6.92-5.14-8.39C57.88,353.38,59.12,351,61,351.17Z"/><path class="cls-2" d="M77.85,266.33c1.34-2.33,3.86-2.24,6-3C83.36,267.43,80.24,266.14,77.85,266.33Z"/><path class="cls-2" d="M102.83,251.39a1.71,1.71,0,0,1-2,0l-1-.9-1.34-1c.47-3.14,2.26-4.34,5.34-3.65C103.5,247.69,103.16,249.54,102.83,251.39Z"/><path class="cls-2" d="M112.83,247.45l-1.1-1.17c1.07-1.41,2.73-1.57,3.52-.35C115.7,246.62,114.11,247.58,112.83,247.45Z"/><path class="cls-7" d="M52.91,372.93c.1-1.26-.36-2.87,1.8-2.8,1.11-.1,3,2.68,3.16-.92.18-4.27,2.71-3,5.05-2.06-.13,2-2.25,3.6-1,5.8C58.93,374.75,55.92,373,52.91,372.93Z"/><path class="cls-5" d="M62,373c-1.29-2.2.83-3.83,1-5.8,4,1.37,4.42,1.67,4.49,2.35C67.9,374.34,64.67,373.22,62,373Z"/><path class="cls-15" d="M281,329.88a1.47,1.47,0,0,1,.3.38c2.35,6,6.87,8.68,13.15,8.68-4.07,5.14-8,4.93-14.26-.75l.08.09c-.07-.63-.16-1.25-1.06-1.06l0,.1C280,334.87,278.7,332,281,329.88Z"/><path class="cls-13" d="M154.79,164.74c-.82,2.79-1.6,5.6-2.49,8.37-.18.56-.81,1.24-1.42.52-.37-.43-.28-1.24-.39-1.88.81-2.32,1.53-4.65,1.11-7.16,0-3.75.6-7.61-2-10.9-.07-4.46-3.22-7.1-5.9-10-.08-1.37-.12-2.76-1.89-3.11l-.47-1.75c1.88-1.25,5.77,2.49,5.94-1.65.11-2.74,3.75-4,2-7.05-2.08-3.74.83-4.58,3.54-5.15,1.6-.34,3.39,0,4.92-.45,2.76-.88,3.7.19,3.8,2.74.26,7.33.32,15.09-2.65,21.5C156.5,154.07,156.13,159.41,154.79,164.74Z"/><path class="cls-16" d="M154.79,164.74c1.34-5.33,1.71-10.67,4.18-16,3-6.41,2.91-14.17,2.65-21.5-.1-2.55-1-3.62-3.8-2.74-1.53.49-3.32.11-4.92.45-2.71.57-5.62,1.41-3.54,5.15,1.71,3.1-1.93,4.31-2,7.05-.17,4.14-4.06.4-5.93,1.65-1.31,0-1.67-.9-1.79-2-.39-2.17,2-4.2.17-6.49s.07-3.59,1.84-4.34a27.45,27.45,0,0,1,5.17-1.1c0,.24,0,.48-.08.71s0,.76,0,1.14l-.23.42.23-.41,1-1.15-.09-.7c1.71-.41,2.12-1.3.26-1.86-2.25-.68-3.42-1.77-3.08-4.17a2,2,0,0,0,0-1l3.8.21c4.58,1.74,9,5.24,14.16,1.66,3.61-.32,5.2.64,4.09,4.8-1,3.59-.59,7.32.14,11.14.76,4-1.55,7.89-3.74,11.18a12.73,12.73,0,0,0-2.51,8.77h0c-2.81.4-1.41,2.85-2.13,4.26C157.58,161.72,157,163.9,154.79,164.74Z"/><path class="cls-16" d="M106.69,160.8l-1-.34c2.2-3.12,5.61-2.44,8.69-2.82,1.6-.2,3.81.9,4.3-1.88,1.81.76,3.91,1.6,5.55.4,2.67-2,5.49-1.39,8.35-1.32,1.16,2.18,5.56,2.9,3,6.74l-3.86.89c-.41-.49-.78-.45-1.12.07-.45,2.7,1.67,2.06,3,2.06,2.13,0,3.51.42,2.93,3-2,1.07-3.82,2.49-6.15,2.8-1.25-2.33-2-5.46-5.33-5.39-3.88.08-8,.08-11.5,1.39-1.17.43-3.72-1.65-3.92,1.33l-2.53-.2-.67-1.63c2.94-2.79,7-1.83,10.51-3.67Z"/><path class="cls-16" d="M114.72,181.56l-1.07-.95-.41,0h-.42c-.08-5.3-5.37-5.92-8-8.91,2.41-.35,4.76-.87,7.27-.13,4.71,1.38,9.48,2.48,14.44,1.07,2.28-.65,3.91,1.22,5.1,2.41.7.69,2.94,3.72-1.2,4.91C125.2,181.48,119.75,179.28,114.72,181.56Z"/><path class="cls-11" d="M109.65,167.68c.2-3,2.75-.9,3.92-1.33,3.53-1.31,7.62-1.31,11.5-1.39,3.38-.07,4.08,3.06,5.33,5.39-6,1.48-11.92,2.23-17.71-.72-.23-.84-.64-.71-1.13-.22A2.53,2.53,0,0,1,109.65,167.68Z"/><path class="cls-12" d="M131.79,162.47l3.86-.89c3.71-.31,7.15.24,9.79,3.2l0,2.73a14,14,0,0,0-1.92,1.38c-4,4-4,4-6.94-1.34.58-2.53-.8-3-2.93-3-1.28,0-3.4.64-3-2.06Z"/><path class="cls-12" d="M162.66,119.78c-5.2,3.58-9.58.08-14.16-1.66,3.07-1.78,6.07-3.85,9.18.07.45.57,1.84.38,2.8.54l2.11.06h0A6.44,6.44,0,0,0,162.66,119.78Z"/><path class="cls-16" d="M145.41,167.51l0-2.73c2-2.47,4.11-.24,6.16-.19.42,2.51-.3,4.84-1.11,7.16C147.33,172.08,147.5,168.45,145.41,167.51Z"/><path class="cls-12" d="M141.67,195.54c-.26,5.82-2.15,8.18-8,10,2.23-2.24,1.85-5.84,4.32-8.08C139.17,196.37,140,195.27,141.67,195.54Z"/><path class="cls-16" d="M163.68,114.71l1.95.06c2.07,3.65,0,4.17-3,4h0A7,7,0,0,0,163.68,114.71Z"/><path class="cls-16" d="M111.56,169.41c.49-.49.9-.62,1.13.22Z"/><path class="cls-16" d="M123.7,207.48l.48-.38-.37.49Z"/><path class="cls-12" d="M129.74,209.55l-.43.39.4-.43Z"/><path class="cls-16" d="M160.64,155.67l.42.24c-.14-.08-.28-.16-.43-.23Z"/><path class="cls-3" d="M227.4,342.29c-2.43-.29-4.27-2.51-6.9-2.14h0l-1-1.13a4.49,4.49,0,0,0,0-.82,2,2,0,0,0-2-1h0l-1-1h0c0-.64,0-1.29,0-1.93,3.67-2.12,6.81-.93,10,1.27,1.38.93,3.55,3.52,4.92-.31l0,0c1.72-.13,2.59,1.45,4,2h0a6.72,6.72,0,0,0,1,4c-1.55,1.8-3.21.92-4.76.09C229.86,340.31,228.34,340,227.4,342.29Z"/><path class="cls-14" d="M209.53,325.5a5.11,5.11,0,0,1-4-1.41,4.36,4.36,0,0,1-.82-1.62c-.42-1.43,6.08,1.11,1.59-2.72-1.73-1.48-.47-3.8-1.63-5.42a24.82,24.82,0,0,1,4.89.14c1,.23,3,1.28,1.31,2.57-2,1.5-.65,1.76.25,2.67C213.84,322.47,212.76,324.31,209.53,325.5Zm-.39-7.4.35-.35a3.43,3.43,0,0,0-.67-.32c-.08,0-.22.21-.33.32Z"/><path class="cls-3" d="M240.4,337.18c-2.17,1.74,1.22,2.68.56,4.29-1.23,1.1-2.34-.58-3.56-.31,1.34-2.32.75-3.68-2-4h0c.09-.91-.26-2.34.79-2.49C238.05,334.43,239.5,335.51,240.4,337.18Z"/><path class="cls-3" d="M229.08,332.27a1.37,1.37,0,0,1-2.11.57c-1.09-.65-2.43-1.33-2-2.95.09-.29,1.25-.58,1.7-.39C227.89,330,229,330.79,229.08,332.27Z"/><path class="cls-3" d="M233,332.87l-3.46-4.56C232.7,328.38,233.77,330.1,233,332.87Z"/><path class="cls-3" d="M206.55,293.46c-.75.22-1.21.53-1.52.42-.81-.28-1.35-.91-1-1.8.08-.21.91-.35,1.18-.17A7.12,7.12,0,0,1,206.55,293.46Z"/><path class="cls-7" d="M216.46,334.25c0,.64,0,1.29,0,1.93a3,3,0,0,1-2-2Z"/><path class="cls-3" d="M231.41,335.21,231,335l.45.22Z"/><path class="cls-7" d="M214.52,334.18c-.79-.33-.67-.67,0-1C214.52,333.5,214.52,333.84,214.52,334.18Z"/><path class="cls-2" d="M235.41,337.19c2.74.29,3.33,1.65,2,4l-.5,0h-.49A6.72,6.72,0,0,1,235.41,337.19Z"/><path class="cls-8" d="M232.62,347.16l-1.18-1.23Z"/><path class="cls-5" d="M279.2,337.22c.9-.19,1,.43,1.06,1.06C279.45,338.38,279.28,337.85,279.2,337.22Z"/><path class="cls-3" d="M166.9,234.05c-.53-.69-1.88-1.34-1.11-2.21s1.72.1,2.44.75C167.79,233.08,167.35,233.57,166.9,234.05Z"/><path class="cls-8" d="M176.55,226.68c-1.43,0-2,2.3-4.06,1.2,0-2.19,4.78-3.51,1.55-6.39C177.53,221.93,178.08,223.8,176.55,226.68Z"/><path class="cls-6" d="M292.89,368.42,291.44,367c.59-2.62-2.48-7.71,4.2-6.23C297.94,366.16,297.37,367.77,292.89,368.42Z"/><path class="cls-7" d="M217.48,337.17a2,2,0,0,1,2,1A2,2,0,0,1,217.48,337.17Z"/><path class="cls-7" d="M219.49,339l1,1.13Z"/><path class="cls-7" d="M216.49,336.17l1,1Z"/><path class="cls-3" d="M196.6,335.13c.34.1,1,.06.64.63-.1.17-.77,0-1.18,0A2.89,2.89,0,0,1,196.6,335.13Z"/><path class="cls-6" d="M249.38,351.13c-4.45,2.48-7.62-.72-12.46-2.68,5.38-.37,8.71,2.15,12.48,2.72Z"/><path class="cls-6" d="M322.42,365.74c.1,3.06-1.5,6.16-3.68,5.84-3-.44-3.37-4.45-4.18-7.1-.64-2.13,1.62-3.14,3.42-3.28C321.21,361,322.09,363.32,322.42,365.74Z"/><path class="cls-7" d="M312.13,357.32c.39-.81.79-1.61,1.19-2.41.75,1.16,2,2.49.71,3.72C313.17,359.43,312.43,358.28,312.13,357.32Z"/><path class="cls-6" d="M308.2,355.19l-.26.84c-.2-.16-.55-.3-.57-.48a2.21,2.21,0,0,1,.27-.85Z"/><path class="cls-7" d="M312.2,362.16l0-1.09c.29-.46.74-1.31,1.19-.67C314.14,361.51,312.92,361.78,312.2,362.16Z"/><path class="cls-6" d="M313.77,349.63c-.4-.34-.53-.71-.1-1.12.18.2.36.41.55.61Z"/><path class="cls-7" d="M299.17,369.85l.59-1.22.92.93-1.2.61Z"/><path class="cls-16" d="M141.8,95.9a4.58,4.58,0,0,1,.67-3.33,8,8,0,0,0,.75-1.74c-6.87-1.33-1.11-9-6.25-11.7,5,1.83,6.45-1.08,6.42-4.44s-1.95-4.72-5.77-5.64c-4.28-1-9.48-.07-13-3.93l6.07-1.37c1.26,2.17,2.54,3.58,4,.13l3,0c.66,2.9,2.14,2.46,3.89,1l1.26.89c-.6,2.57.89,2.79,3,3.31,2.46.62,5.84.65,6.56,4,1.16,5.4.86,11.35,6.35,14.88l-.06.06a5.11,5.11,0,0,0-1.73.71C152.8,93,148.75,97.46,141.8,95.9Z"/><path class="cls-10" d="M160.62,101.83c1,2.52,4.92,3.73,3.51,7.46-2.44,0-3.15-2.81-5.39-2.62l-2-.16a13.93,13.93,0,0,0-11.84,0,48,48,0,0,1-5.6,1.78l-5.7,1.43-3.84-.94C136.55,100.16,149.62,97.21,160.62,101.83Z"/><path class="cls-15" d="M160.62,101.83c-11-4.62-24.07-1.67-30.81,6.93-2.39,2.2-.1,6.61-3.85,8.17.43-5.05-.33-10.5,4.76-14,4.67-.83,7.58-4.42,11.08-7.07,6.95,1.56,11-2.94,15.19-7.22a5.11,5.11,0,0,1,1.73-.71c1,4.18.85,8.64,3.3,12.48C162.66,101.47,161.33,101.6,160.62,101.83Z"/><path class="cls-15" d="M158.78,87.91c-5.49-3.53-5.19-9.48-6.35-14.88-.72-3.35-4.1-3.38-6.56-4-2.07-.52-3.56-.74-3-3.31,4.3,0,8.15,2,12.29,2.74,4.41.81,7.28,7.65,5.92,13.13C160.6,83.66,162.32,86.9,158.78,87.91Z"/><path class="cls-16" d="M139.35,108.27a48,48,0,0,0,5.6-1.78,13.9,13.9,0,0,1,11.84,0c-.2,1.54-.39,3.08,1.82,3.29l.06,2-.06,0c-6.15-2.21-12.49-2.45-18.92-1.86Z"/><path class="cls-16" d="M121.77,64.88c-1.51,1.94-3.65,1.93-5.84,2.05-3.94.2-7.94-.63-11.84.71-1.43.49-2.17-.31-2.28-1.75,4.06-2,8.58-.72,12.83-1.71,1.37-.31,2.93.18,4.43-.8S121.59,63.07,121.77,64.88Z"/><path class="cls-16" d="M99,66.31c-1.65,3.85-5.24,3-8.31,3.41C92.87,67.25,95.93,66.82,99,66.31Z"/><path class="cls-15" d="M163.68,114.71a7,7,0,0,1-1.09,4.08l-2.11-.06-.15-1.68c.7-1.91-1.13-2.85-1.65-4.29l1,0,2,1,2,1Z"/><path class="cls-15" d="M134.71,63.88c-1.44,3.45-2.72,2-4-.13C132.1,62.52,133.43,62.46,134.71,63.88Z"/><path class="cls-15" d="M141.65,64.83c-1.75,1.49-3.23,1.93-3.89-1A6.06,6.06,0,0,1,141.65,64.83Z"/><path class="cls-15" d="M158.61,109.81c-2.21-.21-2-1.75-1.82-3.29l2,.15C158.7,107.72,158.66,108.76,158.61,109.81Z"/><path class="cls-16" d="M163.68,114.76l-2-1c0-.65,0-1.31,0-2a8,8,0,0,0,1,0C163.78,112.49,163.79,113.61,163.68,114.76Z"/><path class="cls-16" d="M85,70.75a1.94,1.94,0,0,1-2-.39l.86-1Z"/><path class="cls-16" d="M159.7,112.78l-1,0a2.18,2.18,0,0,1-.06-1l.06,0Z"/><path class="cls-15" d="M162.64,111.78a8,8,0,0,1-1,0C162,111,162.29,111.05,162.64,111.78Z"/><path class="cls-16" d="M130.72,103c-5.09,3.46-4.33,8.91-4.76,14,0,.56,0,1.13,0,1.7.11,2.41-1.11,5,1,7.13l.06,1.79c-.06,2,.4,3.7,2.66,4.25l2.06,3c-.15,2.34.9,5.2-2.63,6.09-4.08-5.09-4.23-11.36-5.21-17.39-.19-1.18.54-3.14-1.29-3.25a3.87,3.87,0,0,0-3.82,2.68c-.55,1.53-1.69,3.56-1.14,4.65,1.6,3.19-.78,4.76-2,6.79-.76,1.24-2.3,1.92-2.63,3.51l-.07,0c-1.55,1.14-4,1.44-3.85,4.15l0,2.56c-1.78,4-4.59,6.31-9.26,6.11-1.78-.07-2.89-.34-3-2.27,1.2-5.34,5.67-7.73,9.58-10.58,1.19-.87,2.55-1.51,3.79-2.3.69-.44,1.75-1.35,1.1-1.89-2.84-2.39-5.22-4.76-3.95-9,.17-.58-1.42-1-2-.36-3,2.87-5.76.06-8.56.29-.42-2.33,2.17-2.78,2.09-4.59a15.47,15.47,0,0,1,4.19-.36c2.5,0,5.47.27,6.88-2.78,4.37.79,5,2.63,1.69,5.74-1.39,1.3-2.78,3.06-.6,4.49,1.94,1.27,3.17-.55,4.26-2.1,2.69-3.81,2.68-7.69,2.27-12.33-.31-3.48-.51-5.1-3.89-5.6l.11-.12c.11-.13.22-.38.31-.37,5.77.49,10.42-3,15.66-4.35C129.91,102.08,130.36,102.68,130.72,103Z"/><path class="cls-14" d="M109.88,105.46l3.8,1.41-.12.12c.24,1.59,2,3.13-2,3.31s-7.72-1.51-11.61-.68c-4.39-1.49-8.77-2.78-13.27-.31-3.89,2.14-4.65.58-3.54-3.08,3.53-5,8.33-5.81,13.9-4.22C101.33,103.22,105.61,104.31,109.88,105.46Z"/><path class="cls-15" d="M100,109.62c3.89-.83,7.63.85,11.61.68s2.19-1.72,2-3.31c3.38.5,3.58,2.12,3.89,5.6.41,4.64.42,8.52-2.27,12.33-1.09,1.55-2.32,3.37-4.26,2.1-2.18-1.43-.79-3.19.6-4.49,3.34-3.11,2.68-5-1.69-5.74-1.41-3.07-3-5.88-7.18-4.85l-2.8-.12Z"/><path class="cls-16" d="M109.88,105.46c-4.27-1.15-8.55-2.24-12.79-3.45-5.57-1.59-10.37-.83-13.9,4.22-.68-3.11.78-4.92,3.45-6.33,6.31-3.34,11.08-3,16.87,1.72C105.48,103.23,109.18,101.84,109.88,105.46Z"/><path class="cls-12" d="M102.65,111.94c4.17-1,5.77,1.78,7.18,4.85-1.41,3-4.38,2.74-6.88,2.78a15.47,15.47,0,0,0-4.19.36c-.31-.41-.62-.81-.92-1.22C101,117.53,105.17,117.13,102.65,111.94Z"/><path class="cls-10" d="M102.65,111.94c2.52,5.19-1.7,5.59-4.81,6.77l-2-.1-1.86-2-.14-2.84c1.37-.53,3-.4,4-1.77l2-.19Z"/><path class="cls-15" d="M97.85,112c-1,1.37-2.66,1.24-4,1.77-1.28,0-2.22.41-2,2h0c-2.17-.75-3.73,1.48-5.81,1.2C88.51,112,93.67,109.87,97.85,112Z"/><path class="cls-12" d="M94,116.62l1.86,2c-1.89,1.89-4,1.3-6,.42.41-1.27,2.32-1.61,2-3.3h0Z"/><path class="cls-14" d="M91.82,115.73c.27,1.69-1.64,2-2,3.3-1.78.24-4,1.33-3.76-2.1C88.09,117.21,89.65,115,91.82,115.73Z"/><path class="cls-13" d="M69.86,131.28l-.12,0,.52,0Z"/><path class="cls-15" d="M69.86,131.28l.4,0c.24.45.5.91.75,1.36l-.24.24-1,.06Z"/><path class="cls-13" d="M69.73,132.92l1-.06,0,2Z"/><path class="cls-15" d="M284.82,331.73c4.26-1.11,6.55-.72,6.27,3.78C288.59,335.2,287.1,333.72,284.82,331.73Z"/><path class="cls-9" d="M99.83,250.46l1,.9Z"/><path class="cls-12" d="M127,127.55l-.06-1.79c1.11-2.58,2-5.13-1-7.13,0-.57,0-1.14,0-1.7,3.75-1.56,1.46-6,3.85-8.17l3.84.94c-.2,3.37.58,5,3.87,2.19.74-.63,1.45-1.29,2.17-1.94,6.43-.59,12.77-.35,18.92,1.86a2.18,2.18,0,0,0,.06,1c.53,1.44,2.36,2.38,1.66,4.29-4-2.4-7.48-5.8-12.7-5.27-2.1.22-4.6-.15-5.61,2s2.63,2.12,2.68,4.08a2,2,0,0,1,0,1c-2.53-.57-5.24-.79-7.52-1.88-1-.49-1.12-2.8-3.11-1.12-1.72,1.45-1.29,3.1-.11,4.29,2.07,2.09,1.78,4.36,1.92,7,.18,3.34-1.07,7.84,3.68,9.65.12,1.09.48,2,1.79,2l.46,1.75c-3.87,8.84,3.3,13.29,8.29,18.77-6.68-.21-11.7-3.81-17.52-4.48-2.86-.07-5.68-.66-8.35,1.32-1.64,1.2-3.74.36-5.55-.4l-3.75-.55c2.38-1.5,4.61-3.42,7.2-4.35,1.86-.67,3.5-.84,3.55-3.21l1.88-2.07c2,.68,3.92-1.84,5.59-.35,2.09,1.87,3.32,1.52,4.56-.69s1.27-4.38-.94-6.08c-1.67-1.29-3.41-2.47-5.12-3.7l-2.06-3C129.51,129.91,129,128.24,127,127.55Z"/><path class="cls-13" d="M127.6,145.58l-1.88,2.07c-2-.69-5,1.91-5.87-2,.68-.32,2.68-.43,1.91-.81-3.47-1.75-4.51-6.48-8.82-7,.33-1.59,1.87-2.27,2.63-3.51,1.25-2,3.63-3.6,2-6.79-.55-1.09.59-3.12,1.14-4.65a3.87,3.87,0,0,1,3.82-2.68c1.83.11,1.1,2.07,1.29,3.25,1,6,1.13,12.3,5.21,17.39C128.57,142.43,128.09,144,127.6,145.58Z"/><path class="cls-11" d="M112.94,137.84c4.31.48,5.35,5.21,8.82,7,.77.38-1.23.49-1.91.81-3.49-1.5-7.23-.51-10.81-1.09l0-2.56c2.51-.25,4.13-1.32,3.86-4.15Z"/><path class="cls-15" d="M106.69,160.8,117,162.18c-3.5,1.84-7.57.88-10.51,3.67C104.6,164.08,108.18,162.56,106.69,160.8Z"/><path class="cls-15" d="M132.62,154.84c5.82.67,10.84,4.27,17.52,4.48-5-5.48-12.16-9.93-8.29-18.77,1.77.35,1.81,1.74,1.89,3.11-1.74,5.53,2.39,7.6,5.9,10,2.56,3.29,2,7.15,2,10.9-2-.05-4.17-2.28-6.16.19-2.64-3-6.08-3.51-9.79-3.2C138.18,157.74,133.78,157,132.62,154.84Z"/><path class="cls-16" d="M149.64,153.69c-3.51-2.43-7.64-4.5-5.9-10C146.42,146.59,149.57,149.23,149.64,153.69Z"/><path class="cls-15" d="M139.6,136.81c-4.75-1.81-3.5-6.31-3.68-9.65-.14-2.65.15-4.92-1.92-7-1.18-1.19-1.61-2.84.11-4.29,2-1.68,2.08.63,3.11,1.12,2.28,1.09,5,1.31,7.52,1.88-.34,2.4.83,3.49,3.08,4.17,1.86.56,1.45,1.45-.25,1.86a3.48,3.48,0,0,0-.79,0,26.67,26.67,0,0,0-5.17,1.09c-1.77.75-3.79,1.93-1.84,4.34S139.21,134.64,139.6,136.81Z"/><path class="cls-10" d="M144.7,117.91c0-2-3.68-1.9-2.68-4.08s3.51-1.83,5.61-2c5.22-.53,8.74,2.87,12.7,5.27l.15,1.68c-1-.16-2.35,0-2.8-.54-3.11-3.92-6.11-1.85-9.18-.07Z"/><path class="cls-15" d="M146.69,126.73c0-.38,0-.76,0-1.14l.47,0,.48,0-1,1.15Z"/><path class="cls-13" d="M146.69,126.74l-.23.41.23-.42Z"/><path class="cls-13" d="M147.65,125.59l-.48,0-.47,0c0-.23.06-.47.08-.71a4.17,4.17,0,0,1,.79,0C147.59,125.13,147.62,125.36,147.65,125.59Z"/><path class="cls-15" d="M131.79,162.47l-1.12.07C131,162,131.38,162,131.79,162.47Z"/><path class="cls-2" d="M209.14,318.1l-.65-.35c.11-.11.25-.33.33-.32a3.43,3.43,0,0,1,.67.32Z"/><path class="cls-15" d="M139.69,110c-.72.65-1.43,1.31-2.17,1.94-3.29,2.83-4.07,1.18-3.87-2.19l5.7-1.43C139.46,108.83,139.58,109.39,139.69,110Z"/><path class="cls-15" d="M127.6,145.58c.49-1.57,1-3.15,1.46-4.73,3.53-.89,2.48-3.75,2.63-6.09,1.71,1.23,3.45,2.41,5.12,3.7,2.21,1.7,2.22,3.79.94,6.08s-2.47,2.56-4.56.69C131.52,143.74,129.55,146.26,127.6,145.58Z"/><path class="cls-15" d="M125.91,118.63c3,2,2.11,4.55,1,7.13C124.8,123.63,126,121,125.91,118.63Z"/><path class="cls-13" d="M112.87,137.81c.27,2.83-1.35,3.9-3.86,4.15C108.87,139.25,111.32,139,112.87,137.81Z"/><path class="cls-15" d="M127,127.55c2,.69,2.54,2.36,2.66,4.25C127.37,131.25,126.91,129.56,127,127.55Z"/><path class="cls-14" d="M94,116.62l-2.16-.88c-.2-1.55.74-1.93,2-2C93.87,114.73,93.91,115.67,94,116.62Z"/></svg>
