<svg id="Layer_1" data-name="Layer 1" xmlns="http://www.w3.org/2000/svg" width="145.34mm" height="145.34mm" viewBox="0 0 412 412"><defs><style>.cls-1{fill:#fff;}.cls-2{fill:#34343d;}.cls-3{fill:#0e0a09;}.cls-4{fill:#382017;}.cls-5{fill:#4d4d55;}.cls-6{fill:#74544c;}.cls-7{fill:#e09f74;}.cls-8{fill:#542e1e;}.cls-9{fill:#b39c9b;}.cls-10{fill:#ebab8c;}.cls-11{fill:#d9a285;}.cls-12{fill:#d49068;}.cls-13{fill:#c47d5c;}.cls-14{fill:#824c34;}.cls-15{fill:#e5a781;}.cls-16{fill:#ad6b4c;}</style></defs><title>ocon</title><path class="cls-1" d="M411.9,206.4q0,100.43.08,200.85c0,3.47-.35,4.75-4.42,4.75Q206,411.79,4.37,412C.84,412,0,411.33,0,407.67Q.19,206.07,0,4.47C0,.51,1.15,0,4.7,0Q206,.15,407.39,0c3.68,0,4.62.76,4.61,4.55Q411.79,105.47,411.9,206.4ZM294.43,131.65c-.19-1.37,0-2.83-1-4l-1.29-2c-.8-4-3.3-4.19-6.46-2.82,0-1.12,0-2.24,0-3.36.21-9.64.49-19.29-2.46-28.65l-.11-3a1.53,1.53,0,0,0-.74-2l-.69-2.95c-.32-2.21.16-4.73-2.33-6.12-6-14-15.86-24.72-28.49-33A28,28,0,0,0,227.46,38l-10,.07c-5.21.37-10.64-.13-14.89,3.92l-.05,0A3.15,3.15,0,0,0,200,43.69q-2.64,1.45-5.3,2.89c-2.09-.07-3.74,1-5.55,1.86-10.75,5.13-12,16.3-16.45,25.46l-1,2.16-.42.84-1.78,2.77c-3.28,3.78-3.2,8.49-3.71,13.06-1.24,11.29,2.53,21.93,4.44,32.79.53,3.06-.17,4.77-2.63,6.14a20.13,20.13,0,0,0,1.33,16.3c2.14,4.24,4.52,8.36,6.79,12.53l1.11,2.26c1.22,3.14,3.38,5.81,4.19,9.22,1.29,5.47,3.08,10.81,4.54,16.25a28.24,28.24,0,0,0,10.4,15.84c1.43,4.35.45,9.18,2.69,13.37l.14,2a3.63,3.63,0,0,0-1.28,2.9c-.8,2.09,1.48,4.48,0,6.14-3.63,4.15-2.46,8.82-2.19,13.46l-6.83.75a22.67,22.67,0,0,0-8.13,1.88c-11.9,5.6-23,12.6-34,19.74-6.91,4.49-12.67,10-15.66,17.9a14.15,14.15,0,0,0-3.1,6.93c-2.53,4.24-6.63,7.12-8.85,11.82-6,12.7-12.23,25.34-22.43,35.45a71.39,71.39,0,0,0-12.81,17.09C77.4,365,70.44,375.8,61.63,385.38c-7.21,7.84-11.47,18.21-20.75,24.28-.17.11-.13.53-.25,1H217.5c1.15.06,2.31.16,3.47.16q60.29,0,120.57-.05c1.53,0,3.7,1.23,4.59-1.43,2.51-7.48,5.22-15,7.22-22.51A155,155,0,0,1,360.92,365c1.79-4.11,3.71-8.17,4.1-12.7a18.09,18.09,0,0,1,4.31-10.4c2.56-3,3.75-6.56,4.62-10.32,4.95-21.26-.79-40.32-11.89-58.29a45.47,45.47,0,0,0-7.43-12.07c-2.3-3.19-3.38-7.28-5.77-10.16-6.61-7.94-14.38-14.77-24.69-17.56a60.5,60.5,0,0,1-19-9.36c-.81-.56-1.63-1.43-2.51-1.51-5.75-.53-8.43-4.54-10.71-9.08-.81-1.62-1.26-3.63-3.13-4.3-5.16-1.87-7.45-6.2-9.71-10.67-.68-1.36-.72-3.64-3.28-3.12h0l-1-7.84,1.35-19c.56-3.41,3.68-4.46,5.88-6.35,3.91-1.56,4.89-5.12,5.91-8.66a40.07,40.07,0,0,0,5-12.91l.38-1C294.73,137.15,295.78,134.55,294.43,131.65Z"/><path class="cls-2" d="M274.84,187.61l1,7.84c-3.57.62-3,3.63-3.51,6a2,2,0,0,0-1,2l-.76,1.08.39.26c.13-.44.27-.88.4-1.32a2,2,0,0,0,1-2c2.55-1.22,1.94-4.27,3.5-6.06,2.56-.52,2.6,1.76,3.28,3.12,2.26,4.47,4.55,8.8,9.71,10.67,1.87.67,2.32,2.68,3.13,4.3,2.28,4.54,5,8.55,10.71,9.08.88.08,1.7,1,2.51,1.51a60.5,60.5,0,0,0,19,9.36c10.31,2.79,18.08,9.62,24.69,17.56,2.39,2.88,3.47,7,5.77,10.16-2.59.79-3.54-2.58-6.32-2.46a13.63,13.63,0,0,0,4.75,7.57,276.72,276.72,0,0,0,2,4,2,2,0,0,0,1,2l.44.41-.41-.44a2,2,0,0,0-1-2,2,2,0,0,0-1-2l0-2c2.19.1,2.5,2.32,3.81,3.42s1.66,3.69,4.19,3.57c11.1,18,16.84,37,11.89,58.29-.87,3.76-2.06,7.3-4.62,10.32A18.09,18.09,0,0,0,365,352.3c-.39,4.53-2.31,8.59-4.1,12.7a155,155,0,0,0-7.57,21.89c-2,7.48-4.71,15-7.22,22.51-.89,2.66-3.06,1.42-4.59,1.43q-60.29.12-120.57.05c-1.16,0-2.32-.1-3.47-.16.77-2.28.91-3.8-2.38-4.16-9.16-1-18.24-2.71-27.41-3.5-3.74-.33-4.51-1.74-4.14-4.88.52-4.41,1-8.83,1.51-13.25q1.23-10.47,2.5-20.94a5.9,5.9,0,0,0-1.9,3.49c-1.09,9.32-2.06,18.66-3.15,28-.28,2.47.37,5.65-3.16,6.4-2.73.58-5.59.52-8.31,1.11-3,.65-3.87-.53-3.44-3.28.21-1.3.41-2.6.55-3.91q1.17-10.89,2.32-21.8c-4.45,10.13-1.11,21.82-6.6,31.86,4.26-.32,8.57-2,13.25-2,12.63-.05,24.82,3.32,37.32,4.12,1.86.12,2,1.39,2,2.8h-83.7c.45-2.33,2.35-2.73,4.16-2.73,3.3,0,6.6-.38,9.9.42a18.12,18.12,0,0,0,14.45-2.66c-8.7,2-16.81.87-24.88,1.1-1.25,0-3.31.77-3.13-1.8.23-3.29.48-6.59.9-9.86a88.08,88.08,0,0,0,0-21.28c-1.3-11.57-4.69-23-2.46-34.81l0,0c1.72-2,2.07-4.46,2-7l0,0c1.72-2,2.06-4.46,2-7l0,0c3.47-7.63,4.9-15.81,6.56-23.93a102.07,102.07,0,0,0-4.43,13c-.26.9-.29,2.3-1.45,2.16-.63-.08-1.12-1.41-1.67-2.18v0c.33-3.06-1.63-5.87-1-9,.25-.36.5-.72.73-1.1l-.37-.26-.41,1.32c-2.92-.8-2.44-3.43-2.94-5.52-1.4-5.8.35-11.61,0-17.41,3-7.92,8.75-13.41,15.66-17.9,11-7.14,22.1-14.14,34-19.74a22.67,22.67,0,0,1,8.13-1.88c0,1.66,0,3.32.11,5,.11,1.41,1.27,3.3,2.21,2.83,4.55-2.27,8.58.68,12.85.77a57.23,57.23,0,0,0,20.8-3.3c-1.3-.4-1.63-.61-1.91-.56-1,.19-1.91.5-2.87.72a60.72,60.72,0,0,1-26.56-.17c-1.21-.26-3.6-.19-3.23-2.26s2.28-1.13,3.67-.84a103.79,103.79,0,0,0,10.66,2.17c6.4.68,12.88,1.11,18.24-3.66l1.33-.39-.26-.38-1.09.74a10.73,10.73,0,0,0-2.89.53c-7.15,3.64-14.36,2.23-21.65.53-1.55-.36-2.34-1-2.58-2.45-.27-4.64-1.44-9.31,2.19-13.46,1.45-1.66-.83-4,0-6.14,2,0,2.25,1.78,3,3l-.1.23c-1.18,5.91.38,8.07,5.79,7.76a55.45,55.45,0,0,0,6.21-1c7.29-2.73,13.38-8,21.07-9.92,4.65-1.55,9.32-3.08,11.91-7.8,5.18-.53,8.8-4.11,13-6.6.56-.36,1.28-.59,1-1.5v.12c7.57-2.84,11.85-8.42,13.55-16.17C273.52,189.46,273.32,188,274.84,187.61Zm86.23,167.47,1-1,.42-.45L362,354l-1,1-.39.45ZM255.38,227.45l1-1c.33-.34.66-.67,1-1l1-1,1-1,1-1c.33-.34.66-.67,1-1s.67-.67,1-1l1-1,.42-.44-.45.41-1,1-1,1-1,1-1,1-1,1c-.33.34-.67.67-1,1l-1,1-1,1-1,1-1,1-.41.44.44-.41,1-1Zm27.88,19.9-.42.44.46-.41.4-.45Zm-23.93,9-1,1-.41.45.45-.41,1-1,.42-.44Zm86.78,1-.45-.4.41.45.47.4Zm-72.79,35.94,1-1,.42-.45-.46.41-1,1-.4.45Zm22.91-24-1,1-1,1-1,1-1,1-1,1-1,1c-.33.34-.66.67-1,1l-1,1-1,1-1,1-.41.45.46-.4,1-1,1-1,1-1,1-1,1-1c.34-.33.67-.66,1-1l1-1,1-1,1-1,1-1,.4-.44Zm-74.76,9,.41-.45-.43.43-.42.43Zm-67.8-1,1-1a2,2,0,0,0,1-2l1-1a2,2,0,0,0,1-2l.42-.43-.44.4a2,2,0,0,0-1,2l-1,1a2,2,0,0,0-1,2l-1,1a1.22,1.22,0,0,0-.34.18c-.06.05-.05.17-.07.26Zm83.75-6,1.34-.39-.27-.38-1.09.74a2,2,0,0,0-2,1l-2.21.42c.09.13.14.34.26.38a1.56,1.56,0,0,0,2-.77A2,2,0,0,0,237.42,271.31Zm6-3,1.33-.4-.27-.38-1.09.75-.41.44Zm20.93,26.89-.41-.42.39.45,1.09.75.26-.39Zm43.85-34.9-1.33.41c.09.12.25.37.25.37q.57-.36,1.11-.75l.42-.45Zm-112.67,37.9-.74,1.09.39.26c.12-.44.25-.89.38-1.33a2,2,0,0,0,1-2c1.74-1,2.66-2.42,2.33-5.17a6,6,0,0,0-2.36,5.14A2,2,0,0,0,195.52,298.21Zm115.69-39.86,1.34-.39-.26-.39-1.11.76a1.35,1.35,0,0,0-.34.17c-.06.05,0,.17-.07.26ZM202.5,315.15a222.72,222.72,0,0,0-2,4l-.75,1.09.39.27c.13-.45.26-.89.4-1.33a370.57,370.57,0,0,0,2-4l.41-.44Zm-16,4c-.25.36-.5.73-.73,1.1a4.22,4.22,0,0,0,.37.26l.4-1.33c.25-.36.5-.73.73-1.1l-.37-.26C186.81,318.25,186.67,318.69,186.54,319.14Zm-2,5c-.25.37-.5.73-.73,1.11l.37.26c.14-.44.27-.89.41-1.33s.5-.74.72-1.11c0,0-.24-.17-.36-.26Zm66.82,17.95a2,2,0,0,0-1,2,2,2,0,0,0-1,2l-.41.43.44-.41a2,2,0,0,0,1-2,2,2,0,0,0,1-2l.75-1.1-.39-.26C251.61,341.19,251.48,341.63,251.36,342.07Zm107.69,7a1.94,1.94,0,0,0-1,2l-.41.45.44-.42a2,2,0,0,0,1-2c.25-.36.5-.73.76-1.09l-.4-.26Zm-3,5a2,2,0,0,0-1,2l-1,1a2,2,0,0,0-1,2l-1,1a2,2,0,0,0-1,2l-.41.44.44-.41a2,2,0,0,0,1-2l1-1a2,2,0,0,0,1-2l1-1a2,2,0,0,0,1-2l.4-.46Zm-114.63,5,.76-1.1-.39-.26-.39,1.33-1,1a2,2,0,0,0-1,2l-1,1a2,2,0,0,0-1,2,1.89,1.89,0,0,0-.35.17c-.05.05,0,.18-.06.27l.43-.41a2,2,0,0,0,1-2l1-1a2,2,0,0,0,1-2Zm51.82-118.69a2,2,0,0,0-2,1l-.41.44.45-.4a2,2,0,0,0,2-1l.41-.44Zm-55.8,1,1.33-.41a4.22,4.22,0,0,0-.26-.37c-.38.23-.74.49-1.11.74l-.41.44Zm60.82-4a2,2,0,0,0,2-1l1.34-.4a3,3,0,0,0-.25-.37c-.38.23-.75.48-1.12.73a2,2,0,0,0-2,1l-.41.44Zm-58.85-3-1.33.4.26.38,1.09-.76,1-1a2,2,0,0,0,2-1l1-1a2,2,0,0,0,2-1l.41-.45-.45.41a2,2,0,0,0-2,1l-1,1a2,2,0,0,0-2,1Zm-9,142.58c-.24.37-.5.74-.72,1.12l.37.25.39-1.34c.25-.36.51-.73.74-1.1l-.37-.26Zm33.94-95.68c1.17-.72,1-1.9,1-3,2.51-2.55,2.23-5.9,2.63-9.06a15.35,15.35,0,0,0-2.67,9c-1.17.72-1,1.9-1,3-.25.36-.51.72-.74,1.09l.37.26Zm-17,67.76c-.84.47-1.74.93-1.53,2.12a.8.8,0,0,0,.69.38c1.2-.47.74-1.58.87-2.46l.41-.45ZM270.3,263.3c-1.28.79-2.51,1.61-1.42,3.42,1.63-.71,1.39-2.11,1.45-3.39l.75-1.08-.38-.27ZM224.44,392.93c-2,2-2.49,4.52-2.68,8.28a12.68,12.68,0,0,0,2.7-8.26c.25-.36.5-.72.73-1.1,0,0-.24-.16-.36-.25Zm-44.87-55.84c-5.73,9.56-5.39,20.57-7.62,31,2.63-3.52,2.51-7.73,3-11.75.84-6.57,4.06-12.56,4.63-19.19.25-.36.5-.73.73-1.11l-.37-.25Zm181.5,7c4-9.56,2-19.54,1.54-29.28-.51-11.65-3.68-23.07-3.58-34.83,0-1.68.74-3.7-1.52-5.16.12,23.3,7.34,46,3.52,69.24-.25.37-.5.74-.73,1.12l.37.25Zm-169-91c1.2,5.87.56,11.78.39,17.64-.11,3.91,1.43,4.59,4.94,4.69,7.53.21,14.92-2,22.45-1.12a34.58,34.58,0,0,0,5.34.51,33.93,33.93,0,0,0,5.13-.93c-10.51-.33-20.9-1.21-31.27.35-3.55.54-6,0-4.83-5.11A22.68,22.68,0,0,0,192.05,253.08Zm147.34,1.06c-7.44-3.07-13.42-1.6-19.36.75C326,253.73,332.12,254.62,339.39,254.14Zm-77.1,55a30.45,30.45,0,0,0-4.92,17.14ZM195.16,330.2A35.42,35.42,0,0,0,192,344C193.51,339.51,195.26,335.13,195.16,330.2Zm-4,16.95c-1.59,4.58-3.43,9-3.19,13.94A36.73,36.73,0,0,0,191.13,347.15ZM263,293.07v-8.65C261,287.58,260.9,289.89,263,293.07Zm85.58,72.11a15.13,15.13,0,0,0-3.6,7.1C347.6,370,349.8,368.74,348.61,365.18ZM145.17,291.71c.93-1.28,1.83-2.33,1.17-3.73-.39-.83-1.14-.45-1.64-.05C143.29,289.1,144.1,290.21,145.17,291.71Zm-2.12,7c1.34-1.61,2-2.93,1.25-4.73C142.91,295.14,142.48,296.49,143.05,298.72Zm111.84,33.76c1.69-.84,1.67-2.09,1.09-3.66C254.87,329.88,254,330.88,254.89,332.48Zm14.33-34.32c.31-.24,1-.51,1.2-1,.41-1.05-.63-.91-1.1-.86s-1.33.36-1.49.76C267.49,297.93,268.32,298,269.22,298.16Zm-86.3,29.17a9.24,9.24,0,0,0-1.15,1.79c-.11.37.13,1.21.26,1.22,1,.1,1.32-.64,1.4-1.43C183.47,328.54,183.2,328.14,182.92,327.33Zm44.36-79.86c.51-.43,1.23-.75,1.35-1.21.26-1-.68-.89-1.17-.69a5.36,5.36,0,0,0-1.34,1.12Zm1.39,132.75a8.1,8.1,0,0,0-1,1.85c-.11.48-.29,1.51.78,1.07.44-.18.74-.95.9-1.51C229.38,381.35,229,380.94,228.67,380.22ZM253,338.7c.45-.52.88-.82,1-1.19s-.36-.64-.57-1c-.29.29-.73.54-.83.88S252.76,338.13,253,338.7Zm13.2-37.81c.26-.14.63-.21.71-.4s-.12-.51-.21-.77l-.94.5C265.88,300.44,266,300.66,266.18,300.89Zm-40.11,87.75c-.11,0-.27,0-.32.08a1.17,1.17,0,0,0-.09.39l.55-.11ZM308.52,233c0-.11,0-.27-.08-.32a1,1,0,0,0-.4-.08l.11.54ZM226.8,385.67c0,.12-.15.26-.12.37.11.43.32.45.51,0a.45.45,0,0,0-.08-.38C227.07,385.65,226.91,385.68,226.8,385.67Zm-55.57-15c-.11,0-.27,0-.32.08a1,1,0,0,0-.08.39l.54-.11Zm10.11-37.6c-.07-.11-.12-.27-.22-.31s-.21.11-.32.17l.38.5ZM341.43,255c0-.12,0-.28-.08-.32a.84.84,0,0,0-.4-.09l.11.55Zm-23.93,1c0-.11,0-.27-.09-.32a1,1,0,0,0-.39-.08l.11.55ZM188.27,315.41l.07-.39-.54.1c0,.12.06.28.15.35S188.16,315.44,188.27,315.41Zm5-11,.07-.4-.54.11a.79.79,0,0,0,.15.35S193.14,304.46,193.25,304.44Zm17-4.3-.25-.33-.3.28.41.43ZM140.06,293l-.13.36.53,0a1.12,1.12,0,0,0-.09-.37C140.33,292.94,140.17,293,140.06,293Zm63.21-11.73c-.07-.11-.12-.27-.22-.31s-.21.11-.31.17l.37.49Zm.95-2.71.08-.4-.56.11c0,.12.07.28.16.35S204.11,278.55,204.22,278.52Z"/><path class="cls-2" d="M131.7,410.71H40.63c.12-.52.08-.94.25-1,9.28-6.07,13.54-16.44,20.75-24.28C70.44,375.8,77.4,365,83.52,353.53a71.39,71.39,0,0,1,12.81-17.09c10.2-10.11,16.45-22.75,22.43-35.45,2.22-4.7,6.32-7.58,8.85-11.82,1.89,1.55,1,3.68,1.1,5.56.52,6.95,2.16,13.54,6,19.45v0l1,11,0,0c-2.29,1.87-2,4.47-2,7l0,0c-2.3,1.87-2,4.47-2,7l0,0c-1.55,1.25-1.91,3-2,4.84-.37,6.47.61,12.82,1.56,19.17,1.35,9.12,3.16,18.23,2.23,27.48C132.83,397.29,131.67,403.94,131.7,410.71Z"/><path class="cls-3" d="M250.86,43.72c12.63,8.31,22.46,19,28.49,33-.06,2.36-.28,4.78,2.33,6.12l.69,2.95c-1.57,1.34-.66,1.77.74,2l.11,3c-1.81,2.21-1.13,5.08-1.68,8.06-2.33-1.53-4.79-2.38-6-4.11-2.46-3.52-4.84-2.86-8.24-.76,4.88,1.76,2.95,7.09,5.65,9.48,3.42,3-1.69,7.44,2.48,10.29,2,1.37,1.87,7.78.54,10.63-1.2-3.14-.5-6.62-3-9.81-1.61,4.07-.68,8.45.76,10.28,3.59,4.6,1.67,4.79-2.37,4.78,0-.65-.08-1.3-.11-1.95-.18-1.51.75-3.47-1.67-4-.82-2.6-1.65-5.2-2.47-7.81,0-1,.07-2,.11-3,.11-1.52.14-3-2-3.08l-1-1.88c1.1-2.38,3.35.38,5.62-1.91-2.68-2.4-5.32-4.79-8-7.14-1.48-1.3-2.34-.86-2.53,1l-2.19.17-3.58-3.49a3.43,3.43,0,0,0-2.22-2.69c-1-3.66-4.44-3.11-7-4l-2.85-.19c-.43-4-2.74-4.46-6-3.13-2.81.05-5,1.87-7.68,2.57s-3.35-.39-4.16-2.19c-2.62.23-6,2.51-6.78-2.44,0-.27-1.31-.7-1.72-.49-5.79,3-5.31-1.41-5.31-5.21-5.47,2.42-2.47,6.84-3.32,10.1l-1.94,0c-2.15-1.93-4.61-1.26-6.9-.59-2.49.71-3.8.07-4.11-2.5.07-.15.15-.3.22-.44l-.24.42c-1.41.11-3.32-.24-2.35,2.27a5.21,5.21,0,0,1-.64,4.65,3,3,0,0,1-.89.13c-2.81.17-5.59.37-6,4.07-.95,1.4-2,2.72-3.73,3.17l-1.33-.34c.45-3.42-2.42-3-4.25-3.45-2.37-.58-1.71,1.9-2.38,3a16.62,16.62,0,0,0-1.3,3.71c-2.77-1.37-3-3.83-3.27-6.58-.54-5.78,2.11-11.09,2.08-16.76l1.78-2.77.42-.84,1-2.16c2.61-.18,1.95-4.26,4.85-4.08,1.28,2.52-.52,5.72,1.69,8.13a11.19,11.19,0,0,0,1-8.29c-1.88-5.72,1.17-10,4.22-14.24,2.69-3.74,6.91-5.76,10.2-8.84q2.66-1.44,5.3-2.89c1.4.3,2.38,0,2.57-1.64l.05,0c4-.45,7.84-2.07,12-1.3,1.8.34,2.65-.94,2.89-2.62l10-.07c5.14,1.92,10.76,1.73,15.93,3.76C245.7,42.71,248,44.63,250.86,43.72Zm12.48,43.12c.1,1.08-.3,2.42,1.28,2.81.52.13,1-.08,1-.69a2.14,2.14,0,0,0-2.26-2.12,10.78,10.78,0,0,0-1.13-2.16c-1.4-1.62-2.22-4-4.93-4-.2,0-.73,1.32-.52,1.61,1.45,2,2.14,5,5.6,4.52A5.35,5.35,0,0,1,263.34,86.84ZM190.42,78c-.75.08-1.62.14-1.44,1a5.1,5.1,0,0,0,3.17,3.43c.62.29,1.29-.26,1.23-1C193.22,79.51,192,78.58,190.42,78Zm21.31-26.43c-1.63-.23-3.1-1.89-4.77-.7-.19.13.21,1.65.71,2.1C209.41,54.52,210.45,52.73,211.73,51.57Zm13.89,27.65c-.35-.6-.1-2.2-1.45-1.77a3.8,3.8,0,0,0-2.06,2.41c-.24,1,1.06,1,1.81,1S226.09,81.1,225.62,79.22Zm18-3.62-6.41-3.48C238.05,74.94,239.78,76.1,243.62,75.6Zm-8.36-5.83c-1.75-1.25-3-1.08-4.34.49C232.56,71.06,233.83,71.28,235.26,69.77Z"/><path class="cls-4" d="M271.39,129.7c4,0,6-.18,2.37-4.78-1.44-1.83-2.37-6.21-.76-10.28,2.46,3.19,1.76,6.67,3,9.81,1.33-2.85,1.45-9.26-.54-10.63-4.17-2.85.94-7.25-2.48-10.29-2.7-2.39-.77-7.72-5.65-9.48,3.4-2.1,5.78-2.76,8.24.76,1.22,1.73,3.68,2.58,6,4.11.55-3-.13-5.85,1.68-8.06,2.95,9.36,2.67,19,2.46,28.65,0,1.12,0,2.24,0,3.36-.43,2.59-3.26,2.26-4.58,3.75l-.94,1.09-.87.93-.06,0c-1.5.49-3.82.5-1.8,3.06,0,1-.07,2-.1,2.94l-.54,1c-1.17.16-1.33,1.08-1.49,2-2.3-1.44-2-4.92-4.79-6l-.18-2Z"/><path class="cls-5" d="M169.48,79.67c0,5.67-2.62,11-2.08,16.76.25,2.75.5,5.21,3.27,6.57.27.56.93,1.34.76,1.66-2.58,4.76,1.28,8.94,1.17,13.46,0,1.62,1.24,1.71,2.5,1.57.07.71.14,1.42.2,2.13-3.83-.24-3,2.1-2.12,4.12,1.23,2.91,2.36,5.72.33,8.71-.28,0-.55,0-.82,0-.52-3-3.66-1.54-5.11-3,2.46-1.37,3.16-3.08,2.63-6.14-1.91-10.86-5.68-21.5-4.44-32.79C166.28,88.16,166.2,83.45,169.48,79.67Z"/><path class="cls-5" d="M216.45,410.72c0-1.41-.13-2.68-2-2.8-12.5-.8-24.69-4.17-37.32-4.12-4.68,0-9,1.72-13.25,2,5.49-10,2.15-21.73,6.6-31.86q-1.17,10.9-2.32,21.8c-.14,1.31-.34,2.61-.55,3.91-.43,2.75.41,3.93,3.44,3.28,2.72-.59,5.58-.53,8.31-1.11,3.53-.75,2.88-3.93,3.16-6.4,1.09-9.32,2.06-18.66,3.15-28a5.9,5.9,0,0,1,1.9-3.49q-1.26,10.47-2.5,20.94c-.52,4.42-1,8.84-1.51,13.25-.37,3.14.4,4.55,4.14,4.88,9.17.79,18.25,2.49,27.41,3.5,3.29.36,3.15,1.88,2.38,4.16Z"/><path class="cls-6" d="M195.94,204.06a28.24,28.24,0,0,1-10.4-15.84c-1.46-5.44-3.25-10.78-4.54-16.25-.81-3.41-3-6.08-4.19-9.22,1.81.14,1.95-2.17,3.51-2.38-.83,5.32,2.63,9.22,4.54,13.64,4.18,9.69,6.82,20,11.74,29.42Q196.27,203.73,195.94,204.06Z"/><path class="cls-7" d="M293,140.68a40.07,40.07,0,0,1-5,12.91c-1.24-.05-1.71-.78-1.7-1.94.37-.36,1.26-.59.35-1.3-.12.43-.25.86-.37,1.28-4.25,1.47-8.47,3-11.94,6,1.13-2.48.16-5.65,2.29-7.73,2.35-2.29,1.65-4.25-.18-6.29-.06-.32-.14-.64-.23-.95l.05-.12,4,2.11c.71,2.68-1,5-1.65,8.19,3.14-1.64,4.76-3.39,4.9-6.28.66.28.69,2.08,2,.8,2.83-2.73,2.18-4.93-1-6.8l-.39-1.84a9.77,9.77,0,0,0,4-3c2.35.48,1.72-3.06,3.87-2.86.05.58.1,1.17.14,1.75C291.22,136.78,289.8,139,293,140.68Z"/><path class="cls-5" d="M131.7,410.71c0-6.77,1.13-13.42,1.8-20.13.93-9.25-.88-18.36-2.23-27.48-1-6.35-1.93-12.7-1.56-19.17.11-1.88.47-3.59,2-4.84-2.23,11.81,1.16,23.24,2.46,34.81a88.08,88.08,0,0,1,0,21.28c-.42,3.27-.67,6.57-.9,9.86-.18,2.57,1.88,1.84,3.13,1.8,8.07-.23,16.18.9,24.88-1.1a18.12,18.12,0,0,1-14.45,2.66c-3.3-.8-6.6-.43-9.9-.42-1.81,0-3.71.4-4.16,2.73Z"/><path class="cls-8" d="M167.58,131.66c1.45,1.42,4.59-.08,5.11,3,.13,3.19-2.8,7.25,2.55,8.95l-.29,1.36c-3.59,1.63-3.72,2-1.64,5,.6-1.53-.26-3.5,1.53-4.48.2,2,.74,4,.53,5.89-.36,3.1,2.53,6,.33,9.16-2.27-4.17-4.65-8.29-6.79-12.53A20.13,20.13,0,0,1,167.58,131.66Z"/><path class="cls-5" d="M195.33,242c.24,1.48,1,2.09,2.58,2.45,7.29,1.7,14.5,3.11,21.65-.53a10.73,10.73,0,0,1,2.89-.53l0,0c-5.36,4.77-11.84,4.34-18.24,3.66a103.79,103.79,0,0,1-10.66-2.17c-1.39-.29-3.28-1.3-3.67.84s2,2,3.23,2.26a60.72,60.72,0,0,0,26.56.17c1-.22,1.91-.53,2.87-.72.28-.05.61.16,1.91.56a57.23,57.23,0,0,1-20.8,3.3c-4.27-.09-8.3-3-12.85-.77-.94.47-2.1-1.42-2.21-2.83-.14-1.65-.08-3.31-.11-5Z"/><path class="cls-5" d="M194.69,46.58c-3.29,3.08-7.51,5.1-10.2,8.84-3.05,4.24-6.1,8.52-4.22,14.24l-1.35.19c-.46-.55-.93-1-1.38,0v0c-2.9-.18-2.24,3.9-4.85,4.08,4.43-9.16,5.7-20.33,16.45-25.46C191,47.58,192.6,46.51,194.69,46.58Z"/><path class="cls-9" d="M175.7,160.49c2.2-3.11-.69-6.06-.33-9.16.21-1.92-.33-3.92-.53-5.89a.4.4,0,0,0,.11-.51c.1-.45.19-.91.29-1.36.07-1.34.13-2.67.2-4,.14-2,.29-4,.43-6l1.72-.1c1.3,2.95.75,6.14,1.19,9.2-1.58,1.27-.65,2.66-.19,4l.13,2.91a3.71,3.71,0,0,0,.55,3.15l1.15,6.76a2.18,2.18,0,0,0-.1.84c-1.56.22-1.7,2.53-3.51,2.39Z"/><path class="cls-10" d="M286.28,151.65c0,1.16.46,1.89,1.7,1.94-1,3.54-2,7.1-5.91,8.66-3-.23-5.63,2.1-8.73,1.4v-5.06l1-1h0c3.47-3,7.69-4.55,11.94-6Zm-1.66,3.23c-2.23-.47-2.59,1.77-4.27,1.81-1.86,0-2.67,1.74-.71,2.17C281.79,159.35,283.54,157.24,284.62,154.88Z"/><path class="cls-8" d="M198.77,219.47l-.14-2c1.54-1.6.88-3.39.34-5.11-.78-2.49.58-2.91,2.56-2.83l0,0a48.27,48.27,0,0,1,1.06,11.12c-.07,2.88,1.27,4.62,4.27,4.86a7.1,7.1,0,0,1,2.68,5.09c-3.17-1.38-6.9-1.7-9.07-4.92l.1-.24C202.12,222.75,201.19,220.89,198.77,219.47Z"/><path class="cls-5" d="M134.72,314.18c-3.85-5.91-5.49-12.5-6-19.45-.14-1.88.79-4-1.1-5.56a14.15,14.15,0,0,1,3.1-6.93c.39,5.8-1.36,11.61,0,17.41.5,2.09,0,4.72,2.94,5.52l.05,0C133.09,308.31,135.05,311.12,134.72,314.18Z"/><path class="cls-2" d="M250.86,43.72c-2.87.91-5.16-1-7.47-1.92-5.17-2-10.79-1.84-15.93-3.76A28,28,0,0,1,250.86,43.72Z"/><path class="cls-5" d="M353.05,266.33a13.67,13.67,0,0,1-4.74-7.57c2.78-.12,3.73,3.25,6.32,2.46a45.47,45.47,0,0,1,7.43,12.07c-2.53.12-2.79-2.39-4.19-3.57s-1.62-3.32-3.81-3.42l0,0-.49-1.32c-.16.43-.33.86-.5,1.3Z"/><path class="cls-11" d="M274.84,187.61c-1.52.36-1.32,1.85-1.87,2.85-1.91-7.56.72-14.64,2.26-21.84l.48-.05.48,0Z"/><path class="cls-6" d="M201.53,209.49c-2-.08-3.34.34-2.56,2.83.54,1.72,1.2,3.51-.34,5.11-2.24-4.19-1.26-9-2.69-13.37q.33-.33.66-.63C199.53,204.41,201.55,206.12,201.53,209.49Z"/><path class="cls-2" d="M217.5,38.11c-.24,1.68-1.09,3-2.89,2.62-4.16-.77-8,.85-12,1.3C206.86,38,212.29,38.48,217.5,38.11Z"/><path class="cls-12" d="M281.08,126.62c1.32-1.49,4.15-1.16,4.58-3.75,3.16-1.37,5.66-1.22,6.46,2.82l-5.29,1.09Z"/><path class="cls-13" d="M276.19,168.6l-.48,0-.48.05-2.75-.13c-.54-1.76.82-3.18.86-4.84,3.1.7,5.71-1.63,8.73-1.4C279.87,164.14,276.75,165.19,276.19,168.6Z"/><path class="cls-14" d="M286.83,126.78l5.29-1.09,1.29,2c-.8,2.24.83,4.91-1.24,6.93,0-.58-.09-1.17-.14-1.75,1.19-5.12-4.1-3.05-5.67-5.11Z"/><path class="cls-13" d="M292.17,134.59c2.07-2,.44-4.69,1.24-6.93,1,1.16.83,2.62,1,4,.05,2.73-1.61,5.25-1.05,8l-.38,1C289.8,139,291.22,136.78,292.17,134.59Z"/><path class="cls-6" d="M198.77,219.47c2.42,1.42,3.35,3.28,1.77,5.9-.8-1.22-1.07-3-3-3A3.63,3.63,0,0,1,198.77,219.47Z"/><path class="cls-4" d="M281.68,82.87c-2.61-1.34-2.39-3.76-2.33-6.12C281.84,78.14,281.36,80.66,281.68,82.87Z"/><path class="cls-7" d="M293.38,139.7c-.56-2.8,1.1-5.32,1.05-8C295.78,134.55,294.73,137.15,293.38,139.7Z"/><path class="cls-2" d="M202.56,42.05c-.19,1.59-1.17,1.94-2.57,1.64A3.15,3.15,0,0,1,202.56,42.05Z"/><path class="cls-4" d="M283.11,87.83c-1.4-.24-2.31-.67-.74-2A1.53,1.53,0,0,1,283.11,87.83Z"/><path class="cls-5" d="M171.68,76.06l-.42.84Z"/><path class="cls-4" d="M209.51,230.53a7.07,7.07,0,0,0-2.69-5.09l-1.29-8c1.05-1.52,1.63-3.27,4.39-2.17,4.34,1.73,9,1.27,13.63,1.08,4.25.11,8.31-.52,11.82-3.17,5-.65,9-4.24,14-4.72-.73,2.19-2.45,3.54-4.16,4.89-4.45,2.32-9.58,3.75-11.74,9-7.69,1.89-13.78,7.19-21.07,9.92C212.59,229.9,211.13,230.08,209.51,230.53Z"/><path class="cls-7" d="M272.48,168.49l2.75.13c-1.54,7.2-4.17,14.28-2.26,21.84-1.7,7.75-6,13.33-13.55,16.17,0-3.32,3.76-4.9,3.76-8.21,1.4-3.44,4.69-5.9,5.09-9.86a2.23,2.23,0,0,0,.07-.89,2,2,0,0,0,.85-2l1.12-4.12c1.43-1,.87-2.5.93-3.84C273.09,174.83,272.42,171.61,272.48,168.49Z"/><path class="cls-5" d="M361,344.07c3.82-23.23-3.4-45.94-3.52-69.24,2.26,1.46,1.53,3.48,1.52,5.16-.1,11.76,3.07,23.18,3.58,34.83.43,9.74,2.45,19.72-1.54,29.28Z"/><path class="cls-5" d="M192.05,253.08a22.68,22.68,0,0,1,2.15,16c-1.13,5.15,1.28,5.65,4.83,5.11,10.37-1.56,20.76-.68,31.27-.35a33.93,33.93,0,0,1-5.13.93,34.58,34.58,0,0,1-5.34-.51c-7.53-.85-14.92,1.33-22.45,1.12-3.51-.1-5-.78-4.94-4.69C192.61,264.86,193.25,259,192.05,253.08Z"/><path class="cls-13" d="M263.18,198.42c0,3.31-3.78,4.89-3.76,8.21v-.12l-1,1.5c-4.17,2.49-7.79,6.07-13,6.6-.06-.41-.11-.82-.17-1.24,1.71-1.35,3.43-2.7,4.16-4.89l0,.05h1.24C255,205.44,257.58,200,263.18,198.42Z"/><path class="cls-3" d="M209.51,230.53c1.62-.45,3.08-.63,2.93,1.8a55.45,55.45,0,0,1-6.21,1c-5.41.31-7-1.85-5.79-7.76C202.61,228.83,206.34,229.15,209.51,230.53Z"/><path class="cls-5" d="M179.6,337.12c-.57,6.62-3.79,12.61-4.63,19.18-.51,4-.39,8.23-3,11.75,2.23-10.39,1.89-21.4,7.62-31Z"/><path class="cls-5" d="M135.7,325.15l-1-11c.55.77,1,2.1,1.67,2.18,1.16.14,1.19-1.26,1.45-2.16a102.07,102.07,0,0,1,4.43-13C140.6,309.34,139.17,317.52,135.7,325.15Z"/><path class="cls-14" d="M245.25,213.37c.06.42.11.83.17,1.24-2.59,4.72-7.26,6.25-11.91,7.8C235.67,217.12,240.8,215.69,245.25,213.37Z"/><path class="cls-5" d="M339.39,254.14c-7.27.48-13.37-.41-19.36.75C326,252.54,332,251.07,339.39,254.14Z"/><path class="cls-5" d="M262.29,309.11l-4.92,17.14A30.45,30.45,0,0,1,262.29,309.11Z"/><path class="cls-5" d="M195.16,330.2c.1,4.93-1.65,9.31-3.18,13.75A35.42,35.42,0,0,1,195.16,330.2Z"/><path class="cls-5" d="M191.13,347.15a36.73,36.73,0,0,1-3.19,13.94C187.7,356.19,189.54,351.73,191.13,347.15Z"/><path class="cls-5" d="M263,293.07c-2.13-3.18-2.08-5.49,0-8.65Z"/><path class="cls-5" d="M265.31,278.26a15.35,15.35,0,0,1,2.67-9c-.4,3.16-.12,6.51-2.63,9.06Z"/><path class="cls-5" d="M348.61,365.18c1.19,3.56-1,4.79-3.6,7.1A15.13,15.13,0,0,1,348.61,365.18Z"/><path class="cls-5" d="M224.46,393a12.68,12.68,0,0,1-2.7,8.26c.19-3.76.71-6.24,2.68-8.28Z"/><path class="cls-5" d="M145.17,291.71c-1.07-1.5-1.88-2.61-.47-3.78.5-.4,1.25-.78,1.64.05C147,289.38,146.1,290.43,145.17,291.71Z"/><path class="cls-5" d="M275.83,195.46c-1.56,1.79-.95,4.84-3.5,6.06l0,0c.49-2.41-.06-5.42,3.51-6Z"/><path class="cls-5" d="M131.71,339.11c0-2.53-.28-5.13,2-7C133.78,334.65,133.43,337.08,131.71,339.11Z"/><path class="cls-5" d="M133.71,332.13c0-2.53-.28-5.13,2-7C135.77,327.67,135.43,330.1,133.71,332.13Z"/><path class="cls-5" d="M196.51,296.21a6,6,0,0,1,2.37-5.14c.33,2.75-.59,4.14-2.33,5.17Z"/><path class="cls-5" d="M143.05,298.72c-.57-2.23-.14-3.58,1.25-4.73C145.09,295.79,144.39,297.11,143.05,298.72Z"/><path class="cls-5" d="M254.89,332.48c-.87-1.6,0-2.6,1.09-3.66C256.56,330.39,256.58,331.64,254.89,332.48Z"/><path class="cls-5" d="M269.22,298.16c-.9-.16-1.73-.23-1.39-1.08.16-.4.95-.7,1.49-.76s1.51-.19,1.1.86C270.24,297.65,269.53,297.92,269.22,298.16Z"/><path class="cls-5" d="M270.33,263.33c-.06,1.28.18,2.68-1.45,3.39-1.09-1.81.14-2.63,1.42-3.42Z"/><path class="cls-5" d="M182.92,327.33c.28.81.55,1.21.51,1.58-.08.79-.43,1.53-1.4,1.43-.13,0-.37-.85-.26-1.22A9.24,9.24,0,0,1,182.92,327.33Z"/><path class="cls-5" d="M227.28,247.47l-1.16-.78a5.36,5.36,0,0,1,1.34-1.12c.49-.2,1.43-.32,1.17.69C228.51,246.72,227.79,247,227.28,247.47Z"/><path class="cls-5" d="M228.67,380.22c.35.72.71,1.13.63,1.41-.16.56-.46,1.33-.9,1.51-1.07.44-.89-.59-.78-1.07A8.1,8.1,0,0,1,228.67,380.22Z"/><path class="cls-5" d="M247.4,349.09c-.13.88.33,2-.87,2.46a.8.8,0,0,1-.69-.38c-.21-1.19.69-1.65,1.53-2.12Z"/><path class="cls-5" d="M253,338.7c-.22-.57-.52-1-.44-1.27s.54-.59.83-.88c.21.32.62.69.57,1S253.43,338.18,253,338.7Z"/><path class="cls-5" d="M266.18,300.89c-.16-.23-.3-.45-.44-.67l.94-.5c.09.26.3.58.21.77S266.44,300.75,266.18,300.89Z"/><path class="cls-5" d="M235.43,272.31a1.56,1.56,0,0,1-2,.77c-.12,0-.17-.25-.26-.38l2.21-.42Z"/><path class="cls-5" d="M264.32,281.26c0-1.1-.18-2.28,1-3l0,0c0,1.09.17,2.27-1,3Z"/><path class="cls-5" d="M242.41,232.42a2,2,0,0,1-2,1l0,0a2,2,0,0,1,2-1Z"/><path class="cls-5" d="M264.35,281.29l-.4,1.32-.37-.26c.23-.37.49-.73.74-1.09Z"/><path class="cls-5" d="M245.41,230.43a2,2,0,0,1-2,1l0,0a2,2,0,0,1,2-1Z"/><path class="cls-5" d="M224.44,392.93l.39-1.33c.12.09.37.24.36.25-.23.38-.48.74-.73,1.1Z"/><path class="cls-5" d="M226.07,388.64l.14.36-.55.11a1.17,1.17,0,0,1,.09-.39C225.8,388.65,226,388.66,226.07,388.64Z"/><path class="cls-5" d="M308.52,233l-.37.14-.11-.54a1,1,0,0,1,.4.08C308.5,232.76,308.49,232.92,308.52,233Z"/><path class="cls-5" d="M226.8,385.67c.11,0,.27,0,.31,0a.45.45,0,0,1,.08.38c-.19.4-.4.38-.51,0C226.65,385.93,226.76,385.79,226.8,385.67Z"/><path class="cls-5" d="M230.45,377l-.39,1.34-.37-.25c.22-.38.48-.75.72-1.12Z"/><path class="cls-5" d="M239.42,234.41l-1.09.76-.26-.38,1.33-.4Z"/><path class="cls-5" d="M230.41,377l.41-1.33.37.26c-.23.37-.49.74-.74,1.1Z"/><path class="cls-5" d="M300.21,236.38c.37-.25.74-.5,1.12-.73a3,3,0,0,1,.25.37l-1.34.4Z"/><path class="cls-5" d="M298.21,237.38a2,2,0,0,1,2-1l0,0a2,2,0,0,1-2,1Z"/><path class="cls-5" d="M171.23,370.69l.14.36-.54.11a1,1,0,0,1,.08-.39C171,370.7,171.12,370.71,171.23,370.69Z"/><path class="cls-5" d="M237.4,365a2,2,0,0,1,1-2l0,0a2,2,0,0,1-1,2Z"/><path class="cls-5" d="M352.09,360.05a2,2,0,0,1-1,2l0,0a2,2,0,0,1,1-2Z"/><path class="cls-5" d="M239.4,362a2,2,0,0,1,1-2l0,0a2,2,0,0,1-1,2Z"/><path class="cls-5" d="M354.08,357.06a2,2,0,0,1-1,2l0,0a2,2,0,0,1,1-2Z"/><path class="cls-5" d="M237.39,241.37c.37-.25.73-.51,1.11-.74a4.22,4.22,0,0,1,.26.37l-1.33.41Z"/><path class="cls-5" d="M291.23,241.37a2,2,0,0,1,2-1l0,0a2,2,0,0,1-2,1Z"/><path class="cls-5" d="M241.38,359l.4-1.33.39.26-.76,1.1Z"/><path class="cls-5" d="M355.05,356a2,2,0,0,1,1-2l0,.05a2,2,0,0,1-1,2Z"/><path class="cls-5" d="M358,351.05a1.94,1.94,0,0,1,1-2v0a2,2,0,0,1-1,2Z"/><path class="cls-5" d="M222.45,243.36l1.09-.74.26.38-1.33.39Z"/><path class="cls-5" d="M359.05,349.06l.37-1.34.4.26c-.26.36-.51.73-.76,1.1Z"/><path class="cls-5" d="M361.07,344.1l-.4,1.34-.37-.25c.23-.38.48-.75.73-1.12Z"/><path class="cls-5" d="M250.39,344.09a2,2,0,0,1-1,2l0,0a2,2,0,0,1,1-2Z"/><path class="cls-5" d="M251.38,342.1a2,2,0,0,1-1,2l0,0a2,2,0,0,1,1-2Z"/><path class="cls-5" d="M251.36,342.07c.12-.44.25-.88.38-1.33l.39.26-.75,1.1Z"/><path class="cls-5" d="M179.57,337.09l.39-1.34.37.25c-.23.38-.48.75-.73,1.11Z"/><path class="cls-5" d="M181.34,333.09l-.16.36-.38-.5c.11-.06.24-.2.32-.17S181.27,333,181.34,333.09Z"/><path class="cls-5" d="M184.59,324.16l-.41,1.33-.37-.26c.23-.38.48-.74.73-1.11Z"/><path class="cls-5" d="M184.54,324.12l.41-1.33c.12.09.37.25.36.26-.22.37-.47.74-.72,1.11Z"/><path class="cls-5" d="M200.54,319.17l-.4,1.33-.39-.27.75-1.09Z"/><path class="cls-5" d="M186.58,319.17l-.4,1.33a4.22,4.22,0,0,1-.37-.26c.23-.37.48-.74.73-1.1Z"/><path class="cls-5" d="M341.43,255l-.37.14-.11-.55a.84.84,0,0,1,.4.09C341.42,254.69,341.41,254.85,341.43,255Z"/><path class="cls-5" d="M201.54,317.18a2,2,0,0,1-1,2l0,0a2,2,0,0,1,1-2Z"/><path class="cls-5" d="M317.5,256l-.37.15-.11-.55a1,1,0,0,1,.39.08C317.48,255.69,317.47,255.85,317.5,256Z"/><path class="cls-5" d="M186.54,319.14l.4-1.33.37.26c-.23.37-.48.74-.73,1.1Z"/><path class="cls-5" d="M201.49,317.14a2.06,2.06,0,0,1,1-2l0,0a2,2,0,0,1-1,2Z"/><path class="cls-5" d="M188.27,315.41c-.11,0-.27.11-.32.06s-.11-.23-.15-.35l.54-.1Z"/><path class="cls-5" d="M193.25,304.44c-.11,0-.27.1-.32.06a.79.79,0,0,1-.15-.35l.54-.11Z"/><path class="cls-5" d="M133.69,305.17l.41-1.32.37.26c-.23.38-.48.74-.73,1.1Z"/><path class="cls-5" d="M311.18,258.33l1.11-.76.26.39-1.34.39Z"/><path class="cls-5" d="M210.28,300.14l-.14.38-.41-.43.3-.28Z"/><path class="cls-5" d="M195.55,298.23l-.38,1.33-.39-.26.74-1.09Z"/><path class="cls-5" d="M196.55,296.24a2,2,0,0,1-1,2l0,0a2,2,0,0,1,1-2Z"/><path class="cls-5" d="M308.22,260.35c-.36.25-.73.5-1.11.74,0,0-.16-.25-.25-.37l1.33-.41Z"/><path class="cls-5" d="M270.3,263.3l.4-1.32.38.27-.75,1.08Z"/><path class="cls-5" d="M264.34,295.21l1.33.39-.26.39-1.09-.75Z"/><path class="cls-5" d="M354.06,266.3l0,2,0,0a2,2,0,0,1-1-2l0,0,1,0Z"/><path class="cls-5" d="M243.38,268.29l1.09-.75.27.38-1.33.4Z"/><path class="cls-5" d="M140.06,293c.11,0,.27,0,.31,0a1.12,1.12,0,0,1,.09.37l-.53,0Z"/><path class="cls-5" d="M272.33,201.52a2,2,0,0,1-1,2l0,0a2,2,0,0,1,1-2Z"/><path class="cls-5" d="M354.09,268.29a2,2,0,0,1,1,2l0,0a2,2,0,0,1-1-2Z"/><path class="cls-5" d="M271.33,203.51c-.13.44-.27.88-.4,1.32l-.39-.26.76-1.08Z"/><path class="cls-5" d="M203.27,281.23l-.16.35-.37-.49c.1-.06.24-.2.31-.17S203.2,281.12,203.27,281.23Z"/><path class="cls-5" d="M204.22,278.52c-.11,0-.27.11-.32.06s-.11-.23-.16-.35l.56-.11Z"/><path class="cls-5" d="M237.4,271.28l1.09-.74.27.38-1.34.39Z"/><path class="cls-5" d="M154.64,276.27a2,2,0,0,1,1-2l0,0a2,2,0,0,1-1,2Z"/><path class="cls-5" d="M355.08,270.29a2,2,0,0,1,1,2l0,0a2,2,0,0,1-1-2Z"/><path class="cls-5" d="M157.66,271.31a2,2,0,0,1-1,2l0,0a2,2,0,0,1,1-2Z"/><path class="cls-5" d="M235.41,272.28a2,2,0,0,1,2-1l0,0a2,2,0,0,1-2,1Z"/><path class="cls-5" d="M294.26,271.31l-1,1,0,0,1-1Z"/><path class="cls-5" d="M260.33,222.43l1-1,0,0c-.34.33-.67.66-1,1Z"/><path class="cls-5" d="M293.26,272.31l-1,1,0,0,1-1Z"/><path class="cls-5" d="M356.08,272.28l.41.44-.44-.41Z"/><path class="cls-5" d="M155.64,274.27l1-1,0,0-1,1Z"/><path class="cls-5" d="M262.36,220.46c-.33.33-.67.66-1,1l0,0,1-1Z"/><path class="cls-5" d="M292.26,273.3c-.33.34-.66.67-1,1l0,0,1-1Z"/><path class="cls-5" d="M294.23,271.28l1-1,0,0-1,1Z"/><path class="cls-5" d="M290.24,275.27l1-1,0,0-1,1Z"/><path class="cls-5" d="M263.35,219.46l-1,1,0,0,1-1Z"/><path class="cls-5" d="M290.27,275.3l-1,1,0,0c.34-.33.67-.66,1-1Z"/><path class="cls-5" d="M154.66,276.29l-1,1,0,0,1-1Z"/><path class="cls-5" d="M288.25,277.27l1-1,0,0-1,1Z"/><path class="cls-5" d="M153.67,277.29l-.43.42c0-.09,0-.21.07-.26a1.22,1.22,0,0,1,.34-.18Z"/><path class="cls-5" d="M157.64,271.28l.44-.4-.42.43Z"/><path class="cls-5" d="M221.44,278.27l.44-.43-.41.45Z"/><path class="cls-5" d="M288.27,277.29l-1,1,0,0,1-1Z"/><path class="cls-5" d="M221.47,278.29l-.44.41.42-.43Z"/><path class="cls-5" d="M263.32,219.43l.45-.41-.42.44Z"/><path class="cls-5" d="M286.24,279.25l1-1,0,0-1,1Z"/><path class="cls-5" d="M286.29,279.3l-.46.4.41-.45Z"/><path class="cls-5" d="M296.26,269.32l-1,1,0,0,1-1Z"/><path class="cls-5" d="M245.37,230.39l.45-.41-.41.45Z"/><path class="cls-7" d="M258.39,208l1-1.5C259.67,207.42,259,207.65,258.39,208Z"/><path class="cls-5" d="M296.23,269.29l.43-.41-.4.44Z"/><path class="cls-5" d="M274.28,292.22l.46-.41-.42.45Z"/><path class="cls-5" d="M259.33,223.43l1-1,0,0-1,1Z"/><path class="cls-5" d="M274.32,292.26l-1,1,0,0,1-1Z"/><path class="cls-5" d="M243.41,268.32l-.44.41.41-.44Z"/><path class="cls-5" d="M273.32,293.25l-.43.42.4-.45Z"/><path class="cls-5" d="M264.32,295.24l-.39-.45.41.42Z"/><path class="cls-5" d="M258.34,224.42l1-1,0,0-1,1Z"/><path class="cls-5" d="M308.19,260.31l.45-.42-.42.45Z"/><path class="cls-5" d="M311.21,258.35l-.44.41c0-.09,0-.21.07-.26a1.35,1.35,0,0,1,.34-.17Z"/><path class="cls-5" d="M346.12,257.31l.42.45-.47-.4Z"/><path class="cls-5" d="M258.37,257.36l-.45.41.41-.45Z"/><path class="cls-5" d="M346.07,257.36l-.41-.45.45.4Z"/><path class="cls-5" d="M202.5,315.15l.44-.41-.41.44Z"/><path class="cls-5" d="M258.33,257.32l1-1,0,0-1,1Z"/><path class="cls-5" d="M259.33,256.32l.46-.4-.42.44Z"/><path class="cls-5" d="M257.34,225.42c.33-.33.67-.66,1-1l0,0-1,1Z"/><path class="cls-5" d="M254.39,228.44l-1,1,0,0,1-1Z"/><path class="cls-5" d="M283.3,247.38l-.46.41.42-.44Z"/><path class="cls-5" d="M256.34,226.42l1-1,0,0-1,1Z"/><path class="cls-5" d="M283.26,247.35l.44-.42-.4.45Z"/><path class="cls-5" d="M255.34,227.41l1-1,0,0-1,1Z"/><path class="cls-5" d="M249.39,346.09l-.44.41.41-.43Z"/><path class="cls-5" d="M247.37,349.05l.44-.41-.41.45Z"/><path class="cls-5" d="M291.27,241.41l-.45.4c.14-.15.28-.29.41-.44Z"/><path class="cls-5" d="M358.07,351.08l-.44.42.41-.45Z"/><path class="cls-5" d="M356,354l.45-.41c-.13.15-.27.3-.4.46Z"/><path class="cls-5" d="M362,354l.45-.41-.42.45Z"/><path class="cls-5" d="M237.43,241.41l-.45.4c.14-.15.28-.29.41-.44Z"/><path class="cls-5" d="M362.06,354.08l-1,1,0,0,1-1Z"/><path class="cls-5" d="M361.07,355.08l-.43.41L361,355Z"/><path class="cls-5" d="M354.06,357l1-1,0,0-1,1Z"/><path class="cls-5" d="M241.41,359.06l-1,1,0,0,1-1Z"/><path class="cls-5" d="M352.07,360l1-1,0,0-1,1Z"/><path class="cls-5" d="M293.23,240.37l.45-.41-.41.44Z"/><path class="cls-5" d="M239.41,362l-1,1,0,0,1-1Z"/><path class="cls-5" d="M351.09,362.05l-.44.41c.14-.15.27-.3.41-.44Z"/><path class="cls-5" d="M237.42,365l-.43.41c0-.09,0-.22.06-.27a1.89,1.89,0,0,1,.35-.17Z"/><path class="cls-5" d="M298.25,237.42l-.45.4c.14-.15.28-.29.41-.44Z"/><path class="cls-5" d="M240.41,233.42l-1,1,0,0,1-1Z"/><path class="cls-5" d="M255.38,227.45l-1,1,0,0,1-1Z"/><path class="cls-5" d="M243.4,231.43l-1,1,0,0,1-1Z"/><path class="cls-5" d="M253.38,229.44l-.44.41.41-.44Z"/><path class="cls-14" d="M179.93,100.12c1.76-.45,2.78-1.77,3.73-3.17a6.3,6.3,0,0,0,6-4.07,3,3,0,0,0,.89-.13c3.93-1.07,7.65-3.4,12-2l-2,2c-1.39.11-3.08-1.16-4.06.87-1.7.1-3.53-.36-4.91,1.13a5.79,5.79,0,0,0-3.31,4.65,33.94,33.94,0,0,0-.12,6.58c.07,3.69.78,7.49.65,11.34-.05,1.46,1.62,1.31,2.76,1.36a7.73,7.73,0,0,0,1,.06l-.3,1.13c-3.59,3.59-7.75-.26-11.53.88l-1.55-.07a13.75,13.75,0,0,1,.21-6.41c-1.29-3.54,1.16-7,.22-10.55C183.11,102.94,179.75,101.34,179.93,100.12Z"/><path class="cls-13" d="M270.31,129.71c.06.66.12,1.32.17,2-.23.71-.47,1.43-.71,2.14-2.81-2.81-1.18-7.54-4.39-10.17C264,116.6,263.16,116,257,118a17.23,17.23,0,0,0-1.81.81c-2,0-3.11-1.34-4-2.93,2.38-1.58-.24-5.48,3.21-6.67,3.07-1.06.74-3.39.87-5.1.18-2.55-1.56-1.81-3-1.53a1.82,1.82,0,0,1-2.19-1.57c-.89-5-5.05-5.18-8.69-6.19l-2,0,.36-2.15,6.52.27a7,7,0,0,0,.77.26c1.8,1.81,3.52,3.76,6.45,3.42l3.59,3.49c.21,1.37.39,2.77,2.34,2.52l.06.07c-.7,6.27,4.49,9.15,7.6,13.23.82,2.6,1.65,5.2,2.47,7.8a5.11,5.11,0,0,0,.21,4A1.44,1.44,0,0,0,270.31,129.71Z"/><path class="cls-14" d="M246.33,92.91l-6.53-.27c-3.77-1.22-8.11-2.42-11.31-.4-2.65,1.66-4.38,1.18-6.67.54-1.41-.39-2.78-1.14-4.32-.61-1.72-.13-3.51-.94-5.07.52l-7.84-.27-.09-1.78.06-1.7,1.94,0c4.81.19,9.64-.57,14.45.52A2.68,2.68,0,0,0,223.63,87c.81,1.8,1.47,2.9,4.16,2.19s4.87-2.52,7.68-2.57c.21,4.45,3.32,3.34,6,3.13l2.86.18C244.18,91.43,245.89,91.74,246.33,92.91Z"/><path class="cls-4" d="M175.1,119.69c-1.26.14-2.54,0-2.5-1.57.11-4.52-3.75-8.7-1.17-13.46.17-.32-.49-1.1-.76-1.66a16.71,16.71,0,0,1,1.3-3.7c.67-1.07,0-3.55,2.38-3,1.83.45,4.7,0,4.25,3.45-2.74.43-1.83,2.52-1.89,4.16.07,3.33-1.83,6.47-1,9.89a4.32,4.32,0,0,1,0,1c-1,.62-1.09,1.26,0,1.93C175.44,117.7,175.27,118.7,175.1,119.69Z"/><path class="cls-4" d="M223.63,87A2.68,2.68,0,0,1,221,89.43c-4.81-1.09-9.64-.33-14.45-.52.85-3.26-2.15-7.68,3.32-10.1,0,3.8-.48,8.19,5.31,5.21.41-.21,1.68.22,1.72.49C217.67,89.46,221,87.18,223.63,87Z"/><path class="cls-4" d="M259.32,99.91c.19-1.91,1.05-2.35,2.53-1,2.68,2.35,5.32,4.74,8,7.14-2.27,2.29-4.52-.47-5.62,1.91-2.63-.79-2.2-4.32-4.69-5.24l-.06-.07C259.43,101.7,259.38,100.81,259.32,99.91Z"/><path class="cls-4" d="M204.56,88.94l-.06,1.7-2,.14c-4.33-1.43-8.05.9-12,2a5.21,5.21,0,0,0,.64-4.65c-1-2.51.94-2.16,2.35-2.27l0,0c.31,2.57,1.62,3.21,4.11,2.5C200,87.68,202.41,87,204.56,88.94Z"/><path class="cls-14" d="M259.54,102.67c2.49.92,2.06,4.45,4.69,5.24l1,1.88a3.06,3.06,0,0,0,2,3.08c0,1-.07,2-.11,3C264,111.82,258.84,108.94,259.54,102.67Z"/><path class="cls-4" d="M263.34,86.84a5.35,5.35,0,0,0-1,0c-3.46.48-4.15-2.54-5.6-4.52-.21-.29.32-1.61.52-1.61,2.71-.07,3.53,2.35,4.93,4a10.78,10.78,0,0,1,1.13,2.16Z"/><path class="cls-4" d="M241.44,89.7c-2.65.21-5.76,1.32-6-3.13C238.7,85.24,241,85.68,241.44,89.7Z"/><path class="cls-8" d="M178.92,69.85l1.35-.19a11.19,11.19,0,0,1-1,8.29c-2.21-2.41-.41-5.61-1.69-8.13v0Z"/><path class="cls-4" d="M190.42,78c1.54.58,2.8,1.51,3,3.37.06.79-.61,1.34-1.23,1A5.1,5.1,0,0,1,189,79C188.8,78.14,189.67,78.08,190.42,78Z"/><path class="cls-8" d="M176.71,103.94c.06-1.64-.85-3.73,1.89-4.16l1.33.34c-.18,1.22,3.18,2.82-.39,3.67Z"/><path class="cls-4" d="M189.65,92.88a6.3,6.3,0,0,1-6,4.07C184.06,93.25,186.84,93.05,189.65,92.88Z"/><path class="cls-4" d="M211.73,51.57c-1.28,1.16-2.32,3-4.06,1.4-.5-.45-.9-2-.71-2.1C208.63,49.68,210.1,51.34,211.73,51.57Z"/><path class="cls-4" d="M246.33,92.91c-.44-1.17-2.15-1.48-2-3,2.59.91,6,.36,7,4-1.46.08-2.68-1.3-4.23-.73A7,7,0,0,1,246.33,92.91Z"/><path class="cls-4" d="M225.62,79.22c.47,1.88-.82,1.58-1.7,1.59s-2,.08-1.81-1a3.8,3.8,0,0,1,2.06-2.41C225.52,77,225.27,78.62,225.62,79.22Z"/><path class="cls-14" d="M247.1,93.17c1.55-.57,2.77.81,4.23.73a3.43,3.43,0,0,1,2.22,2.69C250.62,96.93,248.9,95,247.1,93.17Z"/><path class="cls-4" d="M243.62,75.6c-3.84.5-5.57-.66-6.41-3.48Z"/><path class="cls-4" d="M235.26,69.77c-1.43,1.51-2.7,1.29-4.34.49C232.29,68.69,233.51,68.52,235.26,69.77Z"/><path class="cls-4" d="M269.82,127.65a5.11,5.11,0,0,1-.21-4c2.42.58,1.49,2.54,1.67,4Z"/><path class="cls-4" d="M263.34,86.84A2.14,2.14,0,0,1,265.6,89c.06.61-.46.82-1,.69-1.58-.39-1.18-1.73-1.28-2.81Z"/><path class="cls-14" d="M259.32,99.91c.06.9.11,1.79.16,2.69-2,.25-2.13-1.15-2.34-2.52Z"/><path class="cls-4" d="M267.25,112.87a3.06,3.06,0,0,1-2-3.08C267.39,109.88,267.36,111.35,267.25,112.87Z"/><path class="cls-8" d="M269.82,127.65l1.46.1c0,.65.07,1.3.11,1.95h-1.08A1.44,1.44,0,0,1,269.82,127.65Z"/><path class="cls-4" d="M193.53,85.83l.24-.42c-.07.14-.15.29-.22.44Z"/><path class="cls-15" d="M286.83,126.78l-.47,1c-1.44.88-1.9,2.33-2.22,3.86l-1,1c-2.08.27-3.41,2.65-5.79,2.06,0-1,.06-2,.1-2.94l1.8-3.06.06,0c.62,0,.94-.29.87-.93l.94-1.09Z"/><path class="cls-14" d="M275.28,137.68c.16-.92.32-1.84,1.49-2,1.1.22,1.44,1,1.56,2a5.4,5.4,0,0,0-2.08,4.87l-.05.12c-1.09.76-.72,1.85-.67,2.87-.62,1.57-1.46,2.28-2.35.26a26,26,0,0,1-1.06-4.06l.38-1.15c.64-.25,1,2.87,1.84.16C274.66,139.74,275,138.71,275.28,137.68Z"/><path class="cls-8" d="M275.28,137.68c-.31,1-.62,2.06-.94,3.08-.85,2.71-1.2-.41-1.84-.16-.2-.85-.4-1.71-.61-2.57.18-.56.3-1.08-.59-.63a.63.63,0,0,0-.61.08c-.33-1.21.23-2.64-.92-3.65.24-.71.48-1.43.71-2.14C273.23,132.76,273,136.24,275.28,137.68Z"/><path class="cls-12" d="M278.33,137.69c-.12-1-.46-1.79-1.56-2l.54-1c2.38.59,3.71-1.79,5.79-2.06l.21.19a7.3,7.3,0,0,0,.08.93c-.68,1.26-1.37,2.51-2.05,3.76l-1,.23Z"/><path class="cls-8" d="M279.21,128.68l-1.8,3.06C275.39,129.18,277.71,129.17,279.21,128.68Z"/><path class="cls-8" d="M280.14,127.71c.07.64-.25.92-.87.93Z"/><path class="cls-9" d="M175.67,114.78a4.32,4.32,0,0,0,0-1,5.17,5.17,0,0,1,3.62.51,13.75,13.75,0,0,0-.21,6.41c-.1,1-.2,2.06-.29,3.09l-1.71,3-1.37.11-.44-5.12c-.06-.71-.13-1.42-.2-2.13.17-1,.34-2,.52-3C176.55,116.09,176.55,115.45,175.67,114.78Z"/><path class="cls-4" d="M175.3,121.82c.15,1.71.3,3.41.44,5.12,0,2.2.09,4.42.13,6.63-.14,2-.29,4-.43,6-1.43-1.34-1.48-3.21-1.93-4.92,2-3,.9-5.8-.33-8.71C172.33,123.92,171.47,121.58,175.3,121.82Z"/><path class="cls-6" d="M173.51,134.65c.45,1.71.5,3.58,1.93,4.92-.07,1.33-.13,2.66-.2,4-5.35-1.7-2.42-5.76-2.55-8.95C173,134.64,173.23,134.65,173.51,134.65Z"/><path class="cls-8" d="M223.56,216.37c-4.6.19-9.3.65-13.64-1.08-2.76-1.1-3.34.65-4.39,2.17a1.9,1.9,0,0,1-.72-2.53c1.39-3.37-.48-4.69-3.31-5.47l0,0c0-3.37-2-5.08-4.93-6.06C191.68,194,189,183.7,184.86,174c-1.91-4.42-5.37-8.32-4.54-13.64a2.21,2.21,0,0,1,.1-.85l3.08.16c1.08,2.28,2.15,4.57,3.23,6.85-.55,1.26-2,2.81.93,3l1.12,2.09c-.61.27-1.12.79-.69,1.36.27.35,1.07.29,1.64.41l.18,1.24c-1.43,2.87-.3,6.51,2,6.31,6.84-.58,4.52,3.6,4,6.59-.47,2.83-.86,6,2.33,6.46,2.73.42,5.32-1.55,5-5.21l7.25-1.13,0,1-.05,0c-1,.3-1.89.87-1.59,2,.1.38,1,.55,1.56.82l1,1c.4,2.1,1.34,2.61,3,1l4.19.69.3.67.28-.68,5.19,0c.52,1.26,1.26,2.48.87,3.94l-1.84.31c-.71-.93-1.37-.9-2,.07l-6.58,1.32c-4.3-1.69-7.54,1-10.91,2.81-1.63.89-.37,3.1.16,3.14,3.57.28,5,4.28,8.44,4.57l1,1c1.4,2.55,3.74,2.91,6.23,2.39C222.12,213.3,223.17,214.24,223.56,216.37Z"/><path class="cls-11" d="M269.77,133.83c1.15,1,.59,2.44.92,3.65-2.36,2.38-.37,3.29,1.43,4.27a26,26,0,0,0,1.06,4.06c.89,2,1.73,1.31,2.35-.25l.9-1.93c1.83,2,2.53,4,.18,6.29-2.13,2.08-1.16,5.25-2.29,7.73h0l-1,1v5.06c0,1.66-1.4,3.08-.86,4.84-.06,3.12.61,6.34-1.24,9.22-3.18-.69-3.87-2.89-4-5.84-.19-4.89-.58-9.84-4.93-13.24a38.49,38.49,0,0,1,1.45-10.54c1.16-4.1,1.82-9-2.36-12.42q-.66-4.56-1.3-9.12c.12-.62.23-1.24.35-1.86l4.92-1C268.59,126.29,267,131,269.77,133.83Z"/><path class="cls-13" d="M284.14,131.58a5.35,5.35,0,0,1,2.22-3.85c1.57,2.06,6.86,0,5.67,5.11-2.15-.2-1.52,3.34-3.87,2.86l-.09-2c.44-3.85-1.55-3.11-3.74-2Z"/><path class="cls-15" d="M288.07,133.74l.09,2a9.77,9.77,0,0,1-4,3l-2.87-1.24c.68-1.25,1.37-2.5,2.05-3.76Z"/><path class="cls-10" d="M283.53,146.58c-.14,2.89-1.76,4.64-4.9,6.28.66-3.19,2.36-5.51,1.65-8.19,0-.32.05-.64.08-.95l1.82-.07h.12Z"/><path class="cls-13" d="M280.36,143.72c0,.31-.06.63-.08.95l-4-2.11a5.4,5.4,0,0,1,2.08-4.87l2,0a4.9,4.9,0,0,0,1.1,4.78Z"/><path class="cls-13" d="M283.53,146.58l-1.23-2.92c2.26.08,1.82-1.85,2.3-3.08,3.14,1.87,3.79,4.07,1,6.8C284.22,148.66,284.19,146.86,283.53,146.58Z"/><path class="cls-14" d="M284.6,140.58c-.48,1.23,0,3.16-2.3,3.08h-.12c-.25-.38-.49-.76-.73-1.14a4.9,4.9,0,0,1-1.1-4.78l1-.23,2.87,1.24Z"/><path class="cls-13" d="M276.43,143.63l-.9,1.93c0-1-.42-2.12.67-2.88C276.29,143,276.37,143.31,276.43,143.63Z"/><path class="cls-10" d="M286.26,151.63c.12-.42.25-.85.37-1.28.91.71,0,.94-.35,1.3Z"/><path class="cls-6" d="M175,144.93a.4.4,0,0,1-.11.51c-1.79,1-.93,2.95-1.53,4.48C171.23,146.92,171.36,146.56,175,144.93Z"/><path class="cls-3" d="M178.92,69.85h-1.38C178,68.8,178.46,69.3,178.92,69.85Z"/><path class="cls-4" d="M178.78,142.67c-.44-3.06.11-6.25-1.19-9.2.65-1.31-2.26-2.46-.18-3.84,2.89,3.64,4.87.16,7.16-.91a3.15,3.15,0,0,0,2,3.08c-3.1,3.39-4.71,7.17-3,11.79l-3.87,0Z"/><path class="cls-14" d="M183.5,159.68l-3.08-.16q-.58-3.39-1.14-6.76c1.88-1.42,1.7-2.47-.56-3.15,0-1-.09-1.94-.13-2.91l1,0,4-1.15,1.06.5C181.43,150.32,183.93,155.13,183.5,159.68Z"/><path class="cls-16" d="M177.41,129.63c-2.08,1.38.83,2.53.18,3.84l-1.72.1c0-2.21-.09-4.43-.13-6.63l1.37-.11Z"/><path class="cls-6" d="M179.64,146.66l-1,0c-.46-1.37-1.39-2.76.19-4l1,.94C179.71,144.62,179.67,145.64,179.64,146.66Z"/><path class="cls-6" d="M178.72,149.61c2.26.68,2.44,1.73.56,3.15A3.68,3.68,0,0,1,178.72,149.61Z"/><path class="cls-12" d="M284.62,154.88c-1.08,2.36-2.83,4.47-5,4-2-.43-1.15-2.13.71-2.17C282,156.65,282.39,154.41,284.62,154.88Z"/><path class="cls-7" d="M273.34,158.59l1-1Z"/><path class="cls-6" d="M201.5,209.46c2.83.78,4.7,2.1,3.31,5.47a1.9,1.9,0,0,0,.72,2.53l1.29,8c-3-.24-4.33-2-4.26-4.86A48.27,48.27,0,0,0,201.5,209.46Z"/><path class="cls-2" d="M354.08,266.32l-1,0c.17-.44.34-.87.5-1.3Z"/><path class="cls-16" d="M263.18,198.42c-5.6,1.62-8.16,7-12.57,10.11-.41-.47-.82-1.34-1.24,0l0-.05c-5,.48-9,4.07-14,4.72-2.23-1.54-4.73-.42-7.09-.75-1.76-.25-4.06,1-4.94-1.76,2.14-1.75,4.69-1,7.09-1.15,2.45,1.57,2.06-1.26,3-2l2-.05a9.9,9.9,0,0,0,10.28-2.06c2-1.78,4.92-2.55,7.21-4.09,1.79-1.21,4.2-2.08,4.42-4.81l0,0c2.42-.1,3.44-2.17,5-3.52,1.85-1.65,2.84-4.43,5.91-4.46C267.87,192.52,264.58,195,263.18,198.42Z"/><path class="cls-14" d="M223.35,210.69c.88,2.72,3.18,1.51,4.94,1.76,2.36.33,4.86-.79,7.09.75-3.52,2.65-7.58,3.28-11.83,3.17-.38-2.13-1.43-3.07-3.76-2.58-2.49.52-4.83.16-6.23-2.39,1.76-1.16,5.79,4.2,5.8-2l0,0,2.05.14Z"/><path class="cls-12" d="M223.35,210.69l-1.92-1.18c-.07-.77-.08-1.72-1.15-1.54-.36.06-.6.91-.9,1.4l0,0c-3.05.85-4.1-3.11-6.9-2.88-1.88-3.2,1.28-4.56,2.42-6.65l6.58-1.32,2-.07,1.84-.31a3.11,3.11,0,0,0,3.3-.6c4.57-2.4,9.28.29,14.71-.18-1.87-1.85-1.4-3.49-1.06-5.28.37-2,.72-4.35-1.82-5.56l-.09-1.84c2.36-2.24,2.21.76,2.87,1.52,1.55,1.81,3.31,2.85,5.6,1.94s2.34-2.59,1.75-4.87c-.87-3.29,3-6.71,0-10.17a2.39,2.39,0,0,1,1-1.38c2.21-.76,1.62-2.58,1.73-4.14,1-1.34,3.19-1.75,3-4,2.86-.62,3.33-4.09,5.95-5,4.35,3.4,4.74,8.35,4.93,13.24.12,2.95.81,5.15,4,5.84-.06,1.34.5,2.83-.93,3.84-2.3-.46-3,1.47-3.73,2.85-.63,1.13-.73,2.59-2.23,3-4.69,1.27-6.27,4.86-7,9.15l0,0c-3.36-1.16-4.84,2.05-7.19,3.18-5,2.41-9.82,5.17-14.72,7.78l-2,.05c-1.53-.14-3-.15-3,2C228,209.72,225.49,208.94,223.35,210.69Zm14.82-9.5c0-1.27-.83-1.67-1.66-1.59-3.91.38-7.82.76-11.69,1.36a2.49,2.49,0,0,0-2.31,2.75,4,4,0,0,0,2.51,3.41c1.62.78,12.55-4,13.11-5.64A.92.92,0,0,0,238.17,201.19Z"/><path class="cls-13" d="M257.4,196.54c.68-4.29,2.26-7.88,7-9.15,1.5-.4,1.6-1.86,2.23-3,.77-1.38,1.43-3.31,3.73-2.85l-1.12,4.12a2.06,2.06,0,0,0-.85,2,2.23,2.23,0,0,1-.07.89c-3.07,0-4.06,2.81-5.91,4.46C260.84,194.37,259.82,196.44,257.4,196.54Z"/><path class="cls-16" d="M268.34,187.67a2.06,2.06,0,0,1,.85-2A2,2,0,0,1,268.34,187.67Z"/><path class="cls-4" d="M249.37,208.53c.42-1.34.83-.47,1.24,0Z"/><path class="cls-3" d="M177.41,129.63l-.3-2.8,1.7-3c1.81-.28,1.66-1.76,1.85-3,3.78-1.14,7.94,2.71,11.54-.88l1,.22c6.11,3.67,12.23,7.33,17.07,12.7.25,2.59.54,5.19-.24,7.75l-4.45-1a1.84,1.84,0,0,0-2.25-.82c-2.87-2.92-5.62.48-8.43.16-2.31.09-4.07-3.16-6.55-1.3-1.51,1.13.35,2.64.14,4-.63,1.25-1.27,2.5-1.91,3.75l-1.05,0-1.74-.9c-.07-.32-.12-.64-.17-1-1.72-4.62-.11-8.4,3-11.8,2.31,0,4.55-.22,6.16-2.14a1.29,1.29,0,0,0-.27-1.22c-2.14-1.24-4.33-.81-6.5,0a8.41,8.41,0,0,1-1.43.28C182.28,129.79,180.3,133.27,177.41,129.63Z"/><path class="cls-12" d="M204.59,92.42l7.84.27c.19,1.77-1.92,3.7-.28,5.18,2.92,2.66,1.79,4.87-.42,6.95,1.48,1.61,3.68.25,4.73,2l-1,0c-5.08-.27-4.19,4.9-7.59,8.19,3.12-1.31,4.45-.26,5.39,1.37,1.24,2.18,2.71,1.05,4.18.4l2,1a1.9,1.9,0,0,0,2.05,2c-1.38,1.45-1.71,6.24-5.18,1.49-.25-.36-3.81-2.5-5.52-1.1-2.07,1.69-4.23,1.43-6.44,1.66l-1.8-.17c-.68-1.28-1.59-2.12-3.17-1.66v-.1c-.46-2.61-.6-5.34-2.92-7.19,0-.31,0-.63.08-.95,2.65-.05,4.26-2.34,6.6-3.07,1.16-.37,1.67-1.4.89-2.26-2.05-2.29-2-7-6.92-6.09-1.84.33-1.6-1.33-1.5-2.36a37.82,37.82,0,0,1,.85-4.29c1-2,2.67-.76,4.06-.87C202,94.25,203.41,94.32,204.59,92.42Z"/><path class="cls-16" d="M196.54,111.76c0,.32-.06.64-.08.95-5.33-1-5.15,2.51-4.93,6-1.14,0-2.81.1-2.76-1.36.13-3.85-.58-7.65-.65-11.34a33.94,33.94,0,0,1,.12-6.58,5.79,5.79,0,0,1,3.31-4.65c-.16,1.74.18,3.7,1.39,4.6C197.36,102.72,196.48,107.33,196.54,111.76Z"/><path class="cls-13" d="M196.54,111.76c-.06-4.43.82-9-3.6-12.34-1.21-.9-1.55-2.86-1.39-4.6,1.38-1.49,3.21-1,4.91-1.13a37.82,37.82,0,0,0-.85,4.29c-.1,1-.34,2.69,1.5,2.36,4.95-.91,4.87,3.8,6.92,6.09.78.86.27,1.89-.89,2.26C200.8,109.42,199.19,111.71,196.54,111.76Z"/><path class="cls-13" d="M191.53,118.75c-.22-3.53-.4-7,4.93-6,2.32,1.85,2.46,4.58,2.92,7.19h-1.87c-1.33-1.92-3-2.41-5-1.09A7.73,7.73,0,0,1,191.53,118.75Z"/><path class="cls-5" d="M179.32,114.34a5.17,5.17,0,0,0-3.62-.51c-.82-3.42,1.08-6.56,1-9.89l2.83-.15C180.48,107.33,178,110.8,179.32,114.34Z"/><path class="cls-16" d="M204.59,92.42c-1.18,1.9-2.56,1.83-4.07.4l2-2,2-.14Z"/><path class="cls-16" d="M192.49,118.81c2-1.32,3.69-.83,5,1.09-1.35,1.55-2.94-.86-4.31.26l-1-.22C192.29,119.56,192.39,119.19,192.49,118.81Z"/><path class="cls-5" d="M180.66,120.82c-.19,1.26,0,2.74-1.85,3l.3-3.09Z"/><path class="cls-15" d="M219.45,117.77l-2-1c2-3.85-1.75-6.56-2-10l1,0c1.13-.48,4.27-.22,3.2-1.17-4.65-4.15-1.94-8.93-2.16-13.43,1.54-.53,2.91.22,4.32.61,2.29.64,4,1.12,6.67-.54,3.2-2,7.54-.82,11.31.4-.11.72-.23,1.43-.35,2.15-2.79,2.21-9.5,3.58-1.74,8.09a1.44,1.44,0,0,1,.33,1.34c-1.61,3.53.81,4.29,3.34,5.1a2.62,2.62,0,0,1,2,2.52,7.56,7.56,0,0,0-4.06.92c-1.92-1.24-4.1-.87-6.21-1-3.67-.27-6.3.46-5.71,5-.68,1.27-1.9,1-3,1-.07-1.07-.13-2.14-.23-3.69Zm11-11.68c.43-1-.16-1.22-.6-1.2-.62,0-1.5.09-1.79.49-.5.68.12,1.26.84,1.23A4.7,4.7,0,0,0,230.47,106.09Z"/><path class="cls-8" d="M251.23,115.87c.87,1.59,2,2.91,4,2.93l4,5.07a2,2,0,0,1-2.63.67c-5-3.08-10.74-2.13-16.17-2.78a4.85,4.85,0,0,0-4.94,2.28c2.21.55,4.05,1.07,5.91,1.45,3.77.77,7.27,1.9,10.05,4.87,1.54,1.64,2.08,3.34.29,4.55-1.58,1.07-4,2.07-4.84-1.3,2-1.68,2-3.07-.39-4.48-3.28-1.93-6.05-1.86-7,.4-3.19-.41-2.73,2.5-3.73,4.09-2.63-.71-3.91,2.59-6.45,2.17l-2.67-2.53c.23-5.6.23-5.6-3.38-9.72,2.23-3.55,7-4.11,9.16-7.7l1.06-.08c5,2.5,9.79-1.06,14.73-.68C249,116.29,250.22,115.64,251.23,115.87Z"/><path class="cls-12" d="M251.23,115.87c-1-.23-2.26.42-3-.79a2.54,2.54,0,0,0-1.78-2.27c-.4-3.66-2.17-7.2-.15-11,.75-1.41-.19-3.15-2-4-1.27-.63-2.88-1.05-2.92-3,3.64,1,7.8,1.24,8.69,6.19a1.82,1.82,0,0,0,2.19,1.57c1.47-.28,3.21-1,3,1.53-.13,1.71,2.2,4-.87,5.1C251,110.39,253.61,114.29,251.23,115.87Z"/><path class="cls-7" d="M241.4,94.81c0,1.9,1.65,2.32,2.92,3,1.77.87,2.71,2.61,2,4-2,3.83-.25,7.37.15,11l-3-1a2.62,2.62,0,0,0-2-2.52c-2.53-.81-4.95-1.57-3.34-5.1a1.44,1.44,0,0,0-.33-1.34c-7.76-4.51-1.05-5.88,1.74-8.09Z"/><path class="cls-12" d="M259.22,123.87l-4-5.07A17.23,17.23,0,0,1,257,118c6.14-2,7-1.39,8.36,5.67l-4.92,1Z"/><path class="cls-7" d="M217.5,92.17c.22,4.5-2.49,9.28,2.16,13.43,1.07,1-2.07.69-3.2,1.17-1.05-1.7-3.25-.34-4.73-2,2.21-2.08,3.34-4.29.42-6.95-1.64-1.48.47-3.41.28-5.18C214,91.23,215.78,92,217.5,92.17Z"/><path class="cls-5" d="M175.67,114.78c.88.67.88,1.31,0,1.93C174.58,116,174.65,115.4,175.67,114.78Z"/><path class="cls-13" d="M283.1,132.62l1-1,.19.17-1,1.05Z"/><path class="cls-13" d="M272.12,141.75c-1.8-1-3.79-1.89-1.43-4.27a.61.61,0,0,1,.61-.07,1.12,1.12,0,0,0,.59.62c.21.86.41,1.72.61,2.57C272.38,141,272.25,141.37,272.12,141.75Z"/><path class="cls-14" d="M271.89,138a1.12,1.12,0,0,1-.59-.62C272.19,137,272.07,137.47,271.89,138Z"/><path class="cls-7" d="M283.31,132.81l1-1.05c2.19-1.13,4.18-1.87,3.74,2h-4.68A7.3,7.3,0,0,1,283.31,132.81Z"/><path class="cls-16" d="M194.9,139c2.81.32,5.56-3.08,8.43-.16,1.16,7.09,0,14-2,20.73-1.69-3.1-.81-6.47-.7-9.67.13-3.94-1.81-4.41-4.8-3.79-9,1.88-10.38,4.42-7.55,13.32a11.2,11.2,0,0,1,.3,3.43c0,3.64,3,5.95,5.15,7.2,2.53,1.46,3.48-2.47,4.84-4.38a6.2,6.2,0,0,1,1.54-1.13c.3,2.54-1.27,4.6-1.78,6.92-1.73.13-1.61,1.76-2.31,2.75-1.82,2.57-3.86,3.47-6.1.4-.06-.41-.12-.82-.19-1.23l-.94-1.78-1.12-2.09c0-1.08.13-2.21-.93-3-1.08-2.28-2.15-4.57-3.23-6.85.43-4.55-2.07-9.36,1.2-13.67l.83-.56,1.05,0a6.59,6.59,0,0,0,3.93.09c4.67-.39,4.62-.38,3.9-4.16A6.85,6.85,0,0,1,194.9,139Z"/><path class="cls-13" d="M240.44,186.54c2.54,1.21,2.19,3.55,1.82,5.56-.34,1.79-.81,3.43,1.06,5.28-5.43.47-10.14-2.22-14.71.18-.72-1.54,2.64-2.42.91-3.66a4.5,4.5,0,0,0-5.08.32l-5.19,0a1.14,1.14,0,0,0-.58,0l-4.19-.69c-.7-1.21-1.85-1.1-3-1l-1-1,0-2.86.05,0c2.33-.23,4.8.65,7-.83a6.64,6.64,0,0,0,1-.1l5.87,0c-.52.94-2.23,1.2-1.78,2.63.57,1.85,1.87.34,2.83.45.6.07,1.16.43,1.77.56,3.91.82,8.32-1.42,9.09-4.57C237.75,187.32,239.12,187.55,240.44,186.54Z"/><path class="cls-14" d="M189.91,174.59c2.24,3.07,4.28,2.17,6.1-.4.7-1,.58-2.62,2.32-2.74.18,2.32.13,5.29,2.89,5.67,3.1.43,6.78,2.19,9.41-1.41l1,.24.84,2.58a8.72,8.72,0,0,0-.16.89c-1.12.34-2.69-.09-3,2h3.34l0,0,.92,2-3.1.18-4,0c-1.63-3.16-3.27-3.23-4.93,0-1.68.18-2.21,1.23-1.94,2.73.37,2.06,2,2.29,3.7,2.43.3,3.66-2.29,5.63-5,5.21-3.19-.48-2.8-3.63-2.33-6.46.5-3,2.82-7.17-4-6.59C189.61,181.1,188.48,177.46,189.91,174.59Z"/><path class="cls-4" d="M206.49,183.61l4,0c1.55,3.27,3.8,2,6,.92,2.77.37,5.67-.81,8.33.76-1.51,2.3-4.68.14-6.22,2.33a6.64,6.64,0,0,1-1,.1l-7-.16-7.25,1.13c-1.67-.14-3.33-.37-3.7-2.43-.27-1.5.26-2.55,1.93-2.73S204.83,185.68,206.49,183.61Z"/><path class="cls-14" d="M214.88,199.86c-1.14,2.09-4.3,3.45-2.42,6.65,0,1.29.08,2.58.11,3.87-3.44-.29-4.87-4.29-8.44-4.57-.53,0-1.79-2.25-.16-3.14C207.34,200.86,210.58,198.17,214.88,199.86Z"/><path class="cls-16" d="M212.57,210.38c0-1.29-.07-2.58-.11-3.87,2.8-.23,3.85,3.73,6.9,2.88,0,6.21-4,.85-5.8,2Z"/><path class="cls-14" d="M224.44,194.22a4.5,4.5,0,0,1,5.08-.32c1.73,1.24-1.63,2.12-.91,3.66a3.11,3.11,0,0,1-3.3.6C225.7,196.7,225,195.48,224.44,194.22Z"/><path class="cls-14" d="M210.57,187.61l7,.16c-2.18,1.48-4.65.6-7,.83C210.6,188.27,210.58,187.94,210.57,187.61Z"/><path class="cls-14" d="M211.49,192.54c1.14-.08,2.29-.19,3,1C212.83,195.15,211.89,194.64,211.49,192.54Z"/><path class="cls-14" d="M210.56,188.64l0,2.86c-.54-.27-1.46-.44-1.56-.82C208.67,189.51,209.52,188.94,210.56,188.64Z"/><path class="cls-14" d="M186.73,166.53c1.06.75.93,1.88.93,3C184.7,169.34,186.18,167.79,186.73,166.53Z"/><path class="cls-14" d="M188.78,171.58l.94,1.78c-.56-.13-1.36-.07-1.63-.42C187.66,172.37,188.17,171.85,188.78,171.58Z"/><path class="cls-14" d="M223.47,198.47l-2,.07C222.1,197.57,222.76,197.54,223.47,198.47Z"/><path class="cls-14" d="M218.67,194.25a1.14,1.14,0,0,1,.58,0c-.09.22-.19.44-.28.67Z"/><path class="cls-16" d="M259.22,123.87l1.24.82c-.12.62-.23,1.24-.35,1.86a18,18,0,0,1-2.42.17c-3.49-.22-5.16.36-2.37,4,2,2.64,1.14,4.84-2,6-3.2,0-3.28,3.25-5,4.77l-2,.35-3.88-.15c-2.85-2.51,1.07-3.95,1-6l.94-1.19,2.55-.93c.8,3.37,3.26,2.37,4.84,1.3,1.79-1.21,1.25-2.91-.29-4.55-2.78-3-6.28-4.1-10.05-4.87-1.86-.38-3.7-.9-5.91-1.45a4.85,4.85,0,0,1,4.94-2.28c5.43.65,11.13-.3,16.17,2.78A2,2,0,0,0,259.22,123.87Z"/><path class="cls-7" d="M262.32,158.63c-2.62.91-3.09,4.38-5.95,5l0-3a6.32,6.32,0,0,0,1-4c.06-1.32-.43-3.18.26-3.87,5.19-5.21,1.54-9.1-1.64-13.16a6.16,6.16,0,0,1-.64-1.84c2.38.31,4.29-.76,6.1-2.1,4.18,3.47,3.52,8.32,2.36,12.42A38.49,38.49,0,0,0,262.32,158.63Z"/><path class="cls-12" d="M261.41,135.67c-1.81,1.34-3.72,2.41-6.1,2.1l-1.93,0,0-1c3.13-1.2,4-3.4,2-6-2.79-3.67-1.12-4.25,2.37-4a18,18,0,0,0,2.42-.17Q260.76,131.11,261.41,135.67Z"/><path class="cls-7" d="M281.45,142.51c.24.38.48.76.73,1.14l-1.82.07C280.73,143.32,281.09,142.91,281.45,142.51Z"/><path class="cls-8" d="M184.57,128.72a8.41,8.41,0,0,0,1.43-.28c2.17-.82,4.36-1.25,6.5,0a1.29,1.29,0,0,1,.27,1.22c-1.61,1.92-3.85,2.14-6.16,2.14A3.13,3.13,0,0,1,184.57,128.72Z"/><path class="cls-8" d="M183.62,143.59c0,.32.1.64.17,1a3.11,3.11,0,0,0-.15,1l-4,1.15c0-1,.07-2,.1-3Z"/><path class="cls-4" d="M183.64,145.51a3.11,3.11,0,0,1,.15-1l1.74.9-.83.56Z"/><path class="cls-13" d="M235.47,207.53c4.9-2.61,9.72-5.37,14.72-7.78,2.35-1.13,3.83-4.34,7.19-3.18-.22,2.73-2.63,3.6-4.42,4.81-2.29,1.54-5.18,2.31-7.21,4.09A9.9,9.9,0,0,1,235.47,207.53Z"/><path class="cls-13" d="M230.44,209.54c.07-2.11,1.51-2.1,3-2C232.5,208.28,232.89,211.11,230.44,209.54Z"/><path class="cls-16" d="M219.38,209.37c.3-.49.54-1.34.9-1.4,1.07-.18,1.08.77,1.15,1.54Z"/><path class="cls-7" d="M253.36,167.6c-.11,1.56.48,3.38-1.73,4.14a2.39,2.39,0,0,0-1,1.38c2.95,3.46-.88,6.88,0,10.17.59,2.28.48,4-1.75,4.87s-4-.13-5.6-1.94c-.66-.76-.51-3.76-2.86-1.52l-2.07-1.85c-.29-.76-.58-1.52-.88-2.28,4.4-1,4.94-2.14,2.4-5.57-.57-.77-1.37-1.35-1.41-2.4a6.77,6.77,0,0,0,3-7C245.23,167.26,248.85,170.05,253.36,167.6Z"/><path class="cls-15" d="M238.17,201.19a.92.92,0,0,1,0,.29c-.56,1.66-11.49,6.42-13.11,5.64a4,4,0,0,1-2.51-3.41,2.49,2.49,0,0,1,2.31-2.75c3.87-.6,7.78-1,11.69-1.36C237.34,199.52,238.13,199.92,238.17,201.19Z"/><path class="cls-15" d="M253.36,167.6c-4.51,2.45-8.13-.34-12-2,.09-1.71-1.43-2.58-2.07-3.91,5,3.49,9.82,2,14.66-.36a15.12,15.12,0,0,1,2.34-.72l0,3C256.55,165.85,254.35,166.26,253.36,167.6Z"/><path class="cls-14" d="M238.29,182.85l2.07,1.85c0,.62,0,1.23.08,1.84-1.32,1-2.69.78-4.08.16a1.55,1.55,0,0,0-2-.68l-1,.53-9,1.08-5.87,0c1.54-2.19,4.71,0,6.22-2.32a5.47,5.47,0,0,0,3.79-1.15c.57,0,.65-.37.52-.84l4.23-.39Z"/><path class="cls-8" d="M210.63,175.71c-2.63,3.6-6.31,1.84-9.41,1.41-2.76-.38-2.71-3.35-2.89-5.67.5-2.33,2.07-4.39,1.77-6.93a6.52,6.52,0,0,0,1.22-5c2.06-6.77,3.17-13.64,2-20.73a1.84,1.84,0,0,1,2.25.82c.27,3.08,2.19,4.1,5,4a35,35,0,0,1,.45,9.9l-.78.75c-1.5.83-2.3,1.83-.75,3.35-.07,1.31-.14,2.62-.2,3.94-1.45,2,.14,2.21,1.55,2.48l.13.18.2,1.66a2,2,0,0,0,2.29,1.73l1.14.87c.28,1.38,3.17,2.8-.08,4.11-2.51-5.16-8.09-4.89-12.27-7.3C200.43,173.33,202.15,175.37,210.63,175.71Z"/><path class="cls-13" d="M226.64,133.26l2.67,2.53c-.69,4.87,3.77,4.43,6.23,6.05-.1,1.41-.25,2.77-2.11,2.88l-2.88-1.13c-1.66-2.56-4.08-6.33-5.73-6.74-3.75-.95-5.16-2.71-6.36-5.9-.67-1.78-1.7-.8-2.12.58-3.09,1.56-2.7,4.54-2.91,7.25-.13,1.74.47,3.85-2.28,4.13l-1.12-2.3c.78-2.56.49-5.16.24-7.75.18-.34.35-.69.52-1,1.81-.45,2.83-1.53,2.62-3.46s-1.66-1.63-2.95-1.63c-1.3-2.54-5-2.16-6.1-4.9,2.21-.24,4.37,0,6.44-1.67,1.71-1.4,5.27.74,5.52,1.1,3.47,4.75,3.8,0,5.18-1.49l2.95-2.06c1.09,0,2.31.27,3-1l5-.88c-2.19,3.59-6.93,4.15-9.16,7.7-2.37.67-3.35,2.14-2,4.38S221.59,134.81,226.64,133.26Z"/><path class="cls-14" d="M210.79,131.83c-.17.34-.34.69-.52,1-4.84-5.37-11-9-17.07-12.7,1.37-1.12,3,1.29,4.31-.26h1.87v.1c.36,1.88,1.77,1.77,3.17,1.66l1.8.17c1.15,2.75,4.8,2.37,6.1,4.91Z"/><path class="cls-8" d="M194.9,139a6.85,6.85,0,0,0-.49,2.39c.72,3.78.77,3.77-3.9,4.16.14-1.71-.22-3.15-2-3.84.21-1.37-1.65-2.88-.14-4C190.83,135.81,192.59,139.06,194.9,139Z"/><path class="cls-4" d="M210,140.61c.38.77.75,1.53,1.12,2.3l-.58.74c-2.8.08-4.72-.94-5-4Z"/><path class="cls-4" d="M188.49,141.68c1.8.69,2.16,2.13,2,3.84a6.59,6.59,0,0,1-3.93-.09C187.22,144.18,187.86,142.93,188.49,141.68Z"/><path class="cls-7" d="M215.49,106.79c.23,3.4,3.95,6.11,2,10-1.47.65-2.94,1.78-4.18-.4-.94-1.63-2.27-2.68-5.39-1.37C211.3,111.69,210.41,106.52,215.49,106.79Z"/><path class="cls-7" d="M224.45,117.72l-2.95,2.06a1.9,1.9,0,0,1-2.05-2l4.77-3.74C224.32,115.58,224.38,116.65,224.45,117.72Z"/><path class="cls-16" d="M202.56,121.66c-1.4.11-2.81.22-3.17-1.66C201,119.54,201.88,120.38,202.56,121.66Z"/><path class="cls-10" d="M232.42,115.84l-5,.88c-.59-4.52,2-5.25,5.71-5,2.11.15,4.29-.22,6.21,1-.54,3.78-4.62.63-5.88,3Z"/><path class="cls-13" d="M233.48,115.76c1.26-2.37,5.34.78,5.88-3a7.56,7.56,0,0,1,4.06-.92l3,1a2.54,2.54,0,0,1,1.78,2.27C243.27,114.7,238.52,118.26,233.48,115.76Z"/><path class="cls-7" d="M230.47,106.09a4.7,4.7,0,0,1-1.55.52c-.72,0-1.34-.55-.84-1.23.29-.4,1.17-.46,1.79-.49C230.31,104.87,230.9,105.06,230.47,106.09Z"/><path class="cls-14" d="M235.54,141.84c-2.46-1.62-6.92-1.18-6.23-6.05,2.54.42,3.82-2.88,6.45-2.17,1.88,3.11,5,1.72,7.64,2.11.11,2.08-3.81,3.52-1,6Z"/><path class="cls-3" d="M243.4,135.73c-2.64-.39-5.76,1-7.64-2.11,1-1.59.54-4.5,3.73-4.09,2.95.37,7.14-.45,4.85,5Z"/><path class="cls-14" d="M226.64,133.26c-5,1.55-4.12-3.11-5.42-5.34s-.33-3.71,2-4.38C226.87,127.66,226.87,127.66,226.64,133.26Z"/><path class="cls-14" d="M244.34,134.54c2.29-5.46-1.9-4.64-4.85-5,1-2.26,3.73-2.33,7-.4,2.39,1.41,2.4,2.8.39,4.48Z"/><path class="cls-13" d="M201.32,159.54a6.52,6.52,0,0,1-1.22,5,6.2,6.2,0,0,0-1.54,1.13c-1.36,1.91-2.31,5.84-4.84,4.38-2.17-1.25-5.18-3.56-5.15-7.2a11.2,11.2,0,0,0-.3-3.43c-2.83-8.9-1.44-11.44,7.55-13.32,3-.62,4.93-.15,4.8,3.79C200.51,153.07,199.63,156.44,201.32,159.54Z"/><path class="cls-12" d="M234.4,186a1.55,1.55,0,0,1,2,.68c-.77,3.15-5.18,5.39-9.09,4.57-.61-.13-1.17-.49-1.77-.56-1-.11-2.26,1.4-2.83-.45-.45-1.43,1.26-1.69,1.78-2.63l9-1.08Z"/><path class="cls-16" d="M214.52,172.62c3.25-1.31.36-2.73.08-4.11a7.4,7.4,0,0,0,4.89-4l0,0,.46,1.31.44-1.32a1.94,1.94,0,0,1,2.17,1.94,2.78,2.78,0,0,0,2.82,2.14l.09,1-1.06,1.94-2,1c-2.87-.06-4.2,1-3,4l-.07,3c-2.69,2.17-4.47-1.91-7-1l-.84-2.59c.29-.47.57-.94.86-1.4,1.34.06,2.05-.54,2-1.92Z"/><path class="cls-4" d="M212.47,174.54c-.29.46-.57.93-.86,1.4l-1-.23c-8.48-.34-10.2-2.38-8.38-10.39,4.18,2.41,9.76,2.14,12.27,7.3h0A1.78,1.78,0,0,0,212.47,174.54Z"/><path class="cls-16" d="M228.59,184.2a5.47,5.47,0,0,1-3.79,1.15c-2.66-1.58-5.56-.4-8.33-.77-.63-1.26-1.92-.81-2.92-1.1l-.92-2c4,.26,8-.21,11.86,1,1.47.16,3.08-.32,4.35.87A1.61,1.61,0,0,0,228.59,184.2Z"/><path class="cls-12" d="M224.49,182.43c-3.88-1.19-7.9-.72-11.86-1l0,0c-.09-.67-.19-1.34-.29-2a8.72,8.72,0,0,1,.16-.89c2.5-.89,4.28,3.19,7,1C221.63,179.59,224.07,179.23,224.49,182.43Z"/><path class="cls-8" d="M206.49,183.61c-1.66,2.07-3.29-.26-4.94,0C203.22,180.38,204.86,180.45,206.49,183.61Z"/><path class="cls-8" d="M213.55,183.48c1,.29,2.29-.16,2.92,1.1-2.22,1.08-4.47,2.35-6-.92Z"/><path class="cls-16" d="M212.29,179.42c.1.67.2,1.34.29,2h-3.34C209.6,179.33,211.17,179.76,212.29,179.42Z"/><path class="cls-11" d="M235.54,141.84l6.9-.08,3.88.15-.92,1.78c-1.31,3.09-3,5.6-7,4.95-.72-1.17-1.9-1-3-1l-2,0c0-1,0-1.95,0-2.92C235.29,144.61,235.44,143.25,235.54,141.84Z"/><path class="cls-7" d="M253.33,136.79l0,1c.09,1.69-1.48,2.52-2,3.89l-2.94.12-.11-.25C250.05,140,250.13,136.78,253.33,136.79Z"/><path class="cls-15" d="M245.4,143.69l.92-1.78,2-.35.11.25C248.22,143.74,246.79,143.68,245.4,143.69Z"/><path class="cls-10" d="M245.4,143.69c1.39,0,2.82.05,3-1.88l2.94-.12c.08.31.08.85.25.91,5.39,2,7,5,3.41,10.21-1.16,1.69.14,3.37,2.3,3.83a6.32,6.32,0,0,1-1,4,15.12,15.12,0,0,0-2.34.72c-4.84,2.37-9.68,3.85-14.66.35l-2-1-1-1c.42-3.1-1.91-3.55-4-4.6-2.61-1.29-4.59-3.63-3.81-6.7.84-3.28,3.22-.27,4.85-.67l2,0c.41,2.11,1.35,2.63,3,1C242.37,149.29,244.09,146.78,245.4,143.69Z"/><path class="cls-15" d="M257.33,156.64c-2.16-.46-3.46-2.14-2.3-3.83,3.55-5.17,2-8.21-3.41-10.21-.17-.06-.17-.6-.25-.91.53-1.37,2.1-2.2,2-3.89l1.93,0a6.16,6.16,0,0,0,.64,1.84c3.18,4.06,6.83,7.95,1.64,13.16C256.9,153.46,257.39,155.32,257.33,156.64Z"/><path class="cls-12" d="M237.38,160.64l2,1c.64,1.34,2.16,2.21,2.07,3.92a6.77,6.77,0,0,1-3,7c-2.38-2.4-3.5-6.47-8-6-.76-.87-.46-3.2-2.88-1.69-1.43.89-3.27,1.11-4.93,1.64a1.94,1.94,0,0,0-2.17-1.94h-.9l0,0c0-.34,0-.69,0-1,0-1.3.09-2.6,0-3.9a7.21,7.21,0,0,1,3.19-6.23c2.16-1.57,3,1.87,4.75,2.28,2.35,2.84,5.67,3.92,9,4.94Z"/><path class="cls-15" d="M230.39,166.56c4.51-.43,5.63,3.64,8,6,0,1.05.84,1.63,1.41,2.4,2.54,3.43,2,4.6-2.4,5.57l-5-2c-.8-4.46-3.63-6.62-8-7l1.06-1.94,1-1a6.61,6.61,0,0,1,.11-.88Z"/><path class="cls-12" d="M232.43,178.59l5,2c.3.76.59,1.52.88,2.28l-4.95.12C233,181.51,232.74,180.05,232.43,178.59Z"/><path class="cls-7" d="M232.43,178.59c.31,1.46.61,2.92.91,4.38l-4.23.39-.27-.06c-1.27-1.19-2.88-.71-4.35-.87-.42-3.2-2.86-2.84-5.07-2.88,0-1,0-2,.07-3,1.58-.9,2.91-2,3-4l2-1C228.8,172,231.63,174.13,232.43,178.59Z"/><path class="cls-13" d="M234.4,186l-1,.53Z"/><path class="cls-13" d="M228.84,183.3l.27.06c.13.47,0,.8-.52.84A1.61,1.61,0,0,1,228.84,183.3Z"/><path class="cls-7" d="M227.41,155.67c-1.8-.41-2.59-3.85-4.75-2.28a7.21,7.21,0,0,0-3.19,6.23c.07,1.3,0,2.6,0,3.9-2.81.37-5.73-.43-8.48.73l-.13-.18c.9-1.72,0-2.33-1.55-2.48.06-1.32.13-2.63.2-3.94l1.08-.93c1.91-.23,1.85-1.72,2-3.09,2.43.21,4.36-.21,3.95-3.32-.34-2.69.83-5.13,1.17-7.7.51-3.82,1-7.6-1.3-11.08.42-1.38,1.45-2.36,2.12-.58,1.2,3.19,2.61,5,6.36,5.9,1.65.41,4.07,4.18,5.72,6.75-1.78.33-3-.75-4.48-1.48s-2.45-3-4.08-1.62c-1.43,1.25.42,3,.53,4.5C222.82,149.23,228.25,151,227.41,155.67Z"/><path class="cls-10" d="M216.34,131.53c2.28,3.48,1.81,7.26,1.3,11.08-.34,2.57-1.51,5-1.17,7.7.41,3.11-1.52,3.53-3.95,3.32l-1.5-.08a35,35,0,0,0-.45-9.9l.58-.74c2.75-.28,2.15-2.39,2.28-4.13C213.64,136.07,213.25,133.09,216.34,131.53Z"/><path class="cls-13" d="M211,164.25c2.75-1.16,5.67-.36,8.48-.73,0,.34,0,.69,0,1a7.4,7.4,0,0,1-4.89,4l-1.14-.87c-.08-1.48-.76-2.17-2.29-1.73Z"/><path class="cls-13" d="M211,153.55l1.5.08c-.1,1.37,0,2.86-2,3.09l-.33-2.42Z"/><path class="cls-13" d="M209.29,161.59c1.58.15,2.45.76,1.55,2.48C209.43,163.8,207.84,163.64,209.29,161.59Z"/><path class="cls-16" d="M210.24,154.3l.33,2.42-1.08.93C207.94,156.13,208.74,155.13,210.24,154.3Z"/><path class="cls-16" d="M211.17,165.91c1.53-.44,2.21.25,2.29,1.73A2,2,0,0,1,211.17,165.91Z"/><path class="cls-15" d="M227.41,155.67c.84-4.67-4.59-6.44-4.9-10.67-.11-1.51-2-3.25-.53-4.5,1.63-1.41,2.76,1,4.08,1.62s2.7,1.81,4.48,1.48l2.89,1.12c0,1,0,1.95,0,2.92-1.63.4-4-2.61-4.85.67-.78,3.07,1.2,5.41,3.81,6.7,2.1,1.05,4.43,1.5,4,4.6v1C233.08,159.59,229.76,158.51,227.41,155.67Z"/><path class="cls-16" d="M210.79,131.83l-.33-5.09c1.29,0,2.74-.23,2.95,1.63S212.6,131.38,210.79,131.83Z"/><path class="cls-13" d="M230.39,166.56l-3.83,1.15-1.07.85-.09.09a2.78,2.78,0,0,1-2.82-2.14c1.66-.53,3.5-.75,4.93-1.64C229.93,163.36,229.63,165.69,230.39,166.56Z"/><path class="cls-12" d="M222.45,172.57c0,2-1.38,3.1-3,4C218.25,173.59,219.58,172.51,222.45,172.57Z"/><path class="cls-8" d="M212.47,174.54a1.78,1.78,0,0,1,2-1.92C214.52,174,213.81,174.6,212.47,174.54Z"/><path class="cls-13" d="M219.51,164.58h.9c-.14.44-.29.88-.44,1.32Z"/><path class="cls-13" d="M226.45,168.59l-1,1-.09-1,.09-.09Q226,168.59,226.45,168.59Z"/><path class="cls-15" d="M238.41,148.64c-1.65,1.65-2.59,1.13-3-1C236.51,147.68,237.69,147.47,238.41,148.64Z"/><path class="cls-7" d="M236.42,160.61v-1l1,1Z"/><path class="cls-12" d="M226.45,168.59q-.48,0-1,0l1.07-.85A6.61,6.61,0,0,0,226.45,168.59Z"/></svg>
