<svg id="Layer_1" data-name="Layer 1" xmlns="http://www.w3.org/2000/svg" width="145.34mm" height="145.34mm" viewBox="0 0 412 412"><defs><style>.cls-1{fill:#fff;}.cls-2{fill:#1c1c1d;}.cls-3{fill:#0f0f0e;}.cls-4{fill:#2f2f30;}.cls-5{fill:#232324;}.cls-6{fill:#ead320;}.cls-7{fill:#453e3d;}.cls-8{fill:#e0deda;}.cls-9{fill:#6d4a3b;}.cls-10{fill:#94634a;}.cls-11{fill:#c4c0ba;}.cls-12{fill:#948e8e;}.cls-13{fill:#706d6c;}.cls-14{fill:#b27c60;}.cls-15{fill:#deab92;}.cls-16{fill:#c47d5c;}.cls-17{fill:#824c34;}.cls-18{fill:#ad6b4c;}.cls-19{fill:#e5a781;}.cls-20{fill:#090707;}.cls-21{fill:#4d4d55;}.cls-22{fill:#392118;}.cls-23{fill:#74544c;}.cls-24{fill:#e09f74;}.cls-25{fill:#542e1e;}.cls-26{fill:#b39c9b;}.cls-27{fill:#34343d;}.cls-28{fill:#d9a285;}.cls-29{fill:#d49068;}.cls-30{fill:#241510;}</style></defs><title>ocon</title><rect class="cls-1" width="412" height="412"/><path class="cls-2" d="M167.61,410.74h-5c.15-2.16-.93-2.86-3-2.86s-3.15.7-3,2.86H103.79c.34-1.94.71-3.88,1-5.83,1.68-11.05,3-22.18,5.18-33.13.92-4.58.54-6.07-4.2-4.76l1-3c4.06-.73,6.53-2.79,6.65-7.26.07-2.43.39-4.77,3.85-5.23,1.72-.22,1.8-2.45.78-3.7-3.12-3.82-1.32-7.63-.35-11.51,2.78-11.15,4.3-22.6,8-33.52,1-2.79,2.55-5.41,2-8.54h0c1.83-.07,1.7-1.56,2.18-2.77,1.49-3.72,4.84-1.76,7.39-2.17,2.14-.35,3.6.4,3.39,2.93-2.09,3-1.6,6.78-3,10-2.38,1.38-5.33,2-6.75,4.69-.48.89-1.71,2.63-.25,2.9,3.82.7,3.78,3.92,5,6.37l0,2c-2,.18-2.52,1.43-3,3.27-2.67,10.32-2,21.15-4.83,31.44a7.21,7.21,0,0,0,.33,4.35c.39.95,1.84,2.41,2.56-.14,1.32-1,1.49-2.63,1.79-4,1.79-8.07,4-16,5.91-24.06,2.9-12.24,5.85-24.43,9.55-36.45.37-1.18,2.84-3.73-1.32-3.35-.3-.55-.62-1.58-.91-1.58-3.56.09-6.62-1.79-10-2.5-2.85-.61-6.27-.57-8.05-3.72,4.79-.39,9.55.55,14.38.12,3.43-.3,4.85-1.51,4.42-4.87l-.42-1.29c0-.7-.07-1.41-.11-2.11l1.57-.95,1.29,3.89c.24,1.18-.91,3.2,1.76,2.91.5,1.62-2.32,3.64.13,4.79,2,.94,3.08-1.4,4.31-2.58,2.6-2.5,5.06-5.15,7.58-7.74l2.58-1.43c1.58.14,3.22.4,3.35-2l4.13-3.79c1-.25,2.18.27,2.95-.79,3.81-1.88,6.81-5.12,10.91-6.53-.74,4.49-4.49,6.11-7.79,8.15-1.25.77-3.3,1.67-2.59,3.11,1,2,2.35-.05,3.6-.51a21.49,21.49,0,0,0,5-3.09c7.9-5.58,15.92-11,24.58-15.41,2.66,3.49,6.45,5.47,10.09,7.67.49,1.22,1.51,1.35,2.63,1.28a9.65,9.65,0,0,0,2.61,4.38l-1.26,1.58a6.39,6.39,0,0,0-3.08,3c-3.39,2.65-5.19,6.4-7.07,10.11-2.68,3.9-3.75,8.4-4.83,12.9l-1.09,1c-2.75,1-2.68,3.6-2.74,5.76a18.28,18.28,0,0,1-1.6,7.71A21.9,21.9,0,0,0,201.56,324c1.19,3.66-.12,5.12-3.49,5.84a7.39,7.39,0,0,1-5.6-1,34.46,34.46,0,0,0-14.92-4.58,10.77,10.77,0,0,0-5.34-2.16c-2.53-.22-5.53-2.29-6.55,2.1-1.73,2.2-3.56,4.34-5.16,6.63-2.77,3.94-8,5.44-10,10.11-2.51,3.1,1.62,5.35,1,8.21-3.31-.06-3.82,1.23-3.35,4.57.5,3.58,4.62,6.24,2.46,10.33-.69.34-.7.69,0,1-.07,2.93,1.23,4.69,4.25,5,1.35.12,3,.11,2.1,2.17-1.16,2.7.92,4.29,1.85,6.29-1.87,3.72-3.58,5.68-4.3-.44-1.84.22-.8,2.54-2.41,2.73-1.14-1.17-1.29-3.75-3.18-3.42s-.68,2.94-1.67,4.22c-.77,1-1.29,2.39-.31,3.12,1.48,1.1,1.76-.44,2.17-1.54.51-1.37,1.2-.77,1.55.08,1.8,4.41,3.1,1.73,4.2-.37,1.79.66-1.87,3.67,1.75,3.23.78,1.32,1.77,2.86,3.3,2.73,7-.61,3.14,5.39,4.92,7.94,1.48,2.12-.75,3.2-2.24,4.14-2.18,1.38-2.27,2.54-.06,4S167,407.86,167.61,410.74Zm-45.14-5.36c.72-14.79,4.5-28.54,7.68-43.22C124.23,366.5,118.35,401.49,122.47,405.38Zm17.9-26.19c.24,5.56.24,5.56,5.08,5,1.89-1.06-6.1-1.65-.14-2.91-1.6-2,.09-2.82,1.54-4.21-3.76.18-7.36,1.11-10.75-.82-1-.58-1.75.39-1.89,1.59-.23,2-.53,4-.83,6.23C136.29,382.47,140.42,383.9,140.37,379.19Zm3.25-24.12c-1-3.27-1.71-5.81-5.13-8.34C139.92,350.37,139.63,353.44,143.62,355.07Zm4.1,6.05a8.31,8.31,0,0,0-4.41-5.4C144.49,358.4,144.62,360.17,147.72,361.12Z"/><path class="cls-2" d="M301.23,410.74h-5c1.43-3.6-.32-7.56-2.82-8.18-3.72-.91-1.34,4-3,5.78-.42.44-.12,1.58-.15,2.4h-6c-2-7.38-8.12-12.71-10.18-20.08-.28-1-1.48-1.19-2.26-1.75-3.86-2.73-7.25-6.09-11.36-8.52-1.28-.75-1.51-2.12-.38-3.39l1.2.16c2.59,1.85,5.55,3.35,7.69,5.63,3.59,3.84,5,1.89,6.34-1.69l4-2.1c2.11,0,4.22,0,6.32-.11a1.34,1.34,0,0,0,1.4-1.59c-.06-.77-.74-1.31-1.29-1.14-2.69.82-4.8-1.71-7.4-1.18a2.1,2.1,0,0,0-2-.94c-3.3-1.06-6.24-3.31-9.95-3.05h0c-.38-6.14-5.74-5.77-9.62-7.23-1.71-.64-3.5-3.18-5.49-.34s1.91,2.86,2.12,4.62c-.15,1.74,1.48,2.59,2,4-1.58.15-2.73-.79-4.08-1.37-3.5-1.51-6-4.52-9.69-5.82-4.1-1.44-4.17.09-3.18,3.2h-2a6.84,6.84,0,0,1-1.86-.57c-1.24-.82-2.47-1.95-4-1.11-1.87,1-1.11,3-1,4.47a7.63,7.63,0,0,0,3.32,6.24c1.69,1.18,2.83,3.69,1.87,5.15-1.2,1.84-3.61.66-5.35-.3-1.56-.86-2.88-2.25-4.91-1.91h0c-2.37-4.16-2.63-10-9-10.95,1.58-3,4.45-5.36,5-9v-3l-1-1a20.57,20.57,0,0,1-4-13.06c3.93-1.41,2-5.55,3.7-8a19.85,19.85,0,0,0,3.34-5.39A175.18,175.18,0,0,1,242,300c1.42.68,1.39,2,1.37,3.23-2.5,3.14-2.38,7.44-4.65,10.7a1.82,1.82,0,0,0,.41,1.71c3,2.22,9-.41,10.26-4.41,5.4,1.86,5.25,8.34,9.49,11.62,1.46,1.13,3.48,5.11,4.69,8.12,2.9,7.24,6.35,13.89,15.63,14.71,3.31.29,6.59.23,9.88.42,4.27.24,8.56.38,12.69,2.07-7.09,2.86-14.51,3.75-21.87,4.92-1.52.24-3.58-.79-4.36,1.32s.87,3.41,2.23,4.59c3.7,3.22,8.62,2.81,13,3.94a110.42,110.42,0,0,0,27.26,3.2c1.83,0,4.75.19,4.83,2.4.1,2.86-2.84,3.34-5.16,3.42a41.44,41.44,0,0,0-7.69,1.46,121.63,121.63,0,0,1-15.86,2c-1.22.1-2.63-.87-3.51.63a2.12,2.12,0,0,0,.25,1.82c.91,1.33,2.15,1,3.54.66,11.28-2.42,22.81-3,34.23-4.44,1.7-.21,3.43,0,3.6-2.36,2.41.64,4.59-.18,6.75-1.08,1.48,3.12,3.61-1.37,5.2.45l-.05,1.95c-.88.63-1.37,1.48-.54,2.35s1.7-.16,2.55-.4c4.11-.18,8.08-2.08,11.07-4,1.92-1.27-4.63-2.11-4.42-5.5l.36-.07.32.16a22.67,22.67,0,0,1,13.87,12.3,81.24,81.24,0,0,0,11.25,17.57c4,4.65,5.74,9.89,7.38,15.41l-2,0c-2.7-5.4-8.11-8.62-11.09-13.8a1.34,1.34,0,0,0-1.71-.56c-2.79.81-3.37-1.12-3.09-3,.74-5-1.9-7.18-6.21-8.56-1.36-.44-3.41-.28-4.07-2.28,1.69-1.47,4.35.64,6-1.94-3.46-.81-4.93-4.76-9.09-4.37-12.78,1.2-25.66,1.84-38.17,4.88-6.36,1.55-13.11,2.22-19.13,5.79a2.28,2.28,0,0,0,2.59.71c8.13-1.23,16-4,24.4-3.64,2.08.09,4,.23,5.2,2.18,1.36,2.18-.87,3.26-1.46,4.84h0l-2-1-.42-.23.42.23c-1.35,2.48-3.8,2.81-6.23,3.21-5.25.86-9.53,2.92-10.72,8.75Q301.46,400.33,301.23,410.74Z"/><path class="cls-3" d="M127.72,294.25c.56,3.13-1,5.75-2,8.54-3.71,10.92-5.23,22.37-8,33.52-1,3.88-2.77,7.69.35,11.51,1,1.25.94,3.48-.78,3.7-3.46.46-3.78,2.8-3.85,5.23-.12,4.47-2.59,6.53-6.65,7.26-5.46-.3-10.16,2.65-15.31,3.67-3.15.62-6,.76-7.64-2.64a4.59,4.59,0,0,1,.48-1.35c.76-.95,3.54-1,2-2.89-1.09-1.34-2.57.42-3.7,1.14-1.65,1-1.89,2.5-.77,4.13l0,1.95-.93-1.24L80,366c-4.56,1.07-8,3.53-9.93,7.93.41,1.5.88,3,2.76,3.19l.94,1.84q-.89,8-1.78,16c-4.9-1-5.33-5.52-7.07-9,.07-6.57-2.19-12.31-5.46-18-3.85-6.73-2.94-14.47-2.91-21.91,0-2,.21-4,.32-6,2.41-.25,4-2.12,6.05-3,1.18,5.51.06,9.41-3.64,13-.32.31-.33.92-.49,1.38a3.26,3.26,0,0,0,1.64,4.21c1.86,1,3.27.22,4.56-1.55,4.66-6.41,4.15-12.68-.07-19,.07-.84,0-1.78,1.22-1.84,2,.4,1.88,4.47,4.08,3.11,2-1.22.09-3.82-.26-5.81,0-.15,0-.32-.07-.48l1.1-1.87c2.26-1.47,4.19-3.21,4.78-6,3.65-5.51,3.78-11.57,2.76-17.81a158.89,158.89,0,0,1,6.41-25h0c.88.2,1-.35,1-1l0,0c.68,0,.93-.45,1-1l-.05.05c.42-.36.85-.71,1.28-1.06,2.7-2.85,6.34-4.87,7.71-8.87.41-2.93,1-5.84,1.2-8.79.35-4.81,3.1-4.93,6.42-3.25a10.16,10.16,0,0,0,7.87.62l5.41,1.52c.17.85-.29,2.18,1,2.26,1.07.07.89-1.1,1-1.84a2.56,2.56,0,0,0-.93-2.56l-1.12-3.07q.21-4.09.43-8.18c.25-4.8,4.67-5.82,7.52-8.26.67,2.87.59,5.92,2.06,8.6,2.35.9,4.7-1.05,7.05,0,1.53,1.54,3.42.73,5.17.79a112.33,112.33,0,0,0,22.73-4.82l9.91-2.18c1.4,1.64,1.8.64,2-.77l7.9-4.12,1.06.05a3.78,3.78,0,0,1-1.9,3.28c-8.22,5.69-16.39,11.49-25.23,16.22-1.1.58-2.41,2.25-3.82.28.81-1.59,3.45-1.5,3.7-4.21l-6.63,2.36c-3.95.29-6,2-5,6.3,0,.21,0,.43,0,.64-6.26-.86.81,2.49-1,3-3.71,1.34.2,4-1,5.8l-4.88,1.38-11.15,1-6-.6-1.5-.35-1.26.36c-1.39-3.71-11.17-7.9-14.47-6.21-1,.49-1.92,1.51-1.5,2.3,2,3.69,1,7.54,1.13,11.35.06,1.63,1.68,2.78,3.54,3l1.21,1c1.78,1.87,4.06,1.12,6.09.93a52.42,52.42,0,0,1,14.8.22c1.78,3.15,5.2,3.11,8.05,3.72,3.35.71,6.41,2.59,10,2.5.29,0,.61,1,.91,1.58-2.54-.1-3.39,3.16-6,3,.21-2.53-1.25-3.28-3.39-2.93-2.55.41-5.9-1.55-7.39,2.17-.48,1.21-.35,2.7-2.18,2.77-.13-1.3,1.43-3.11-.89-3.75a31.78,31.78,0,0,0-7.53-1.43c-.79,0-.16,1.53.64,2.27C122.16,293.38,125.08,293.43,127.72,294.25Zm13-39.92-.46-.2.41.26.42,1.3.36-.26C141.21,255.05,141,254.69,140.71,254.33Zm-29.95,83.78c.53-.25,1.43-.43,1.5-.78.22-1.1-.77-1.06-1.51-1.18l-5,0c-.08-2.83.07-5.44,1.84-8,1.52-2.2,2.76-4.91,1.36-7.93a3.65,3.65,0,0,1,.73-3.77c6-7.48,2.86-16.08,2.61-24.19-.06-2.09-.35-5.69-3.56-6.93l-5,0c-.83-3.07-2.37-3.26-4.44-1.06-1.54,1.66-3,3.36-4.56,5.05-5.81,4.69-5.8,8.58,0,14-.35,9.6-2.14,18.36-12.59,22.28A9.81,9.81,0,0,0,77,329.91c-.8,1.39-2.06,3.12-.6,4.5,1.26,1.19,2.19-.83,3.33-1.28s2.38-1.13,3.77-.95c.44,2.33,2.13,3.9,3.45,5.7a3.88,3.88,0,0,1-2.27,3.86c-2.38,1.3-4.58,2.91-6.86,4.39-4.27,4.81-4,6.67,1,7.92.74-.28,1.49-.53,2.21-.84,3.57-1.53,3.33-5.8,5.82-8.11a43.72,43.72,0,0,1,.74,4.34c.19,2.65,2.1,2.83,3.84,2.41,2.51-.6.77-2.29.43-3.47-.4-1.42-1.06-2.76-.68-4.29,2.47-2.4,2.34,1.68,4.32,1.66-1-4.14,1.3-4.47,4.68-4.82C103.74,340.56,107.74,340.87,110.76,338.11Zm19.16-78.92,6.21-4.26C132.67,254.38,131,255.2,129.92,259.19ZM87.73,360.27c2.39.89,4,1.41,5.75-1.1C91.44,359.25,89.89,358.58,87.73,360.27Zm43.36-100.53-.7,1.05c.28.14.62.46.83.39.39-.14.94-.46,1-.78C132.33,259.84,131.81,259.65,131.09,259.74Z"/><path class="cls-4" d="M332.22,371.69c-.17,2.36-1.9,2.15-3.6,2.36-11.42,1.42-22.95,2-34.23,4.44-1.39.3-2.63.67-3.54-.66a2.12,2.12,0,0,1-.25-1.82c.88-1.5,2.29-.53,3.51-.63a121.63,121.63,0,0,0,15.86-2,41.44,41.44,0,0,1,7.69-1.46c2.32-.08,5.26-.56,5.16-3.42-.08-2.21-3-2.38-4.83-2.4a110.42,110.42,0,0,1-27.26-3.2c-4.35-1.13-9.27-.72-13-3.94-1.36-1.18-3-2.48-2.23-4.59s2.84-1.08,4.36-1.32c7.36-1.17,14.78-2.06,21.87-4.92-4.13-1.69-8.42-1.83-12.69-2.07-3.29-.19-6.57-.13-9.88-.42-9.28-.82-12.73-7.47-15.63-14.71-1.21-3-3.23-7-4.69-8.12-4.24-3.28-4.09-9.76-9.49-11.62-4.48-2,.45-5.18-1-7.66-1.69.52-3.43.85-5-.34,0-1.27,0-2.55-1.37-3.23,5.87-8.4,12.58-15.91,21.82-20.77,5.49-.13,11-4.1,16.46.08h0l1,1c2.35,1,4.37,2.68,7,3,8.95,5.26,15.55,13,21.91,20.93-2-.32-3.1,2.81-5.8.9-6.09-4.31-13.33-3.78-20.36-3.88-2.81,0-3.88,1.38-3.73,4a2.7,2.7,0,0,0-1.11,2.31l-1.87-.47c-.29-1.44.69-3.36-1.56-4.15-1.45,1.47-1.47,3.27-1.46,5.09l-1.87.24c-3.69-.17-8.17-3-10.08,2.95-3-5.4-4.2-5.32-8.94,1.7,3.46-1.85,6.2-1.78,8.95-1.71.3,1.54-2.12,3.41-.09,4.41,1.09.53,4.41-.84,4.38-1.09-.66-6,3.76-3.92,6.59-4.3l3,.71,0,1.1A3.86,3.86,0,0,0,278,317c1.35.71,2.77-.29,3.45-1.81,1.76,1.54,2.34-1.52,3.84-1,2.44-.46,5.07-.38,7-2.33,1.54.84,3.36-4.12,4.77.21,0,0,.76-.1.78-.2.39-3.33.74-2.63,2-.21.62,1.19,2.55,1.21,3.59-.44a37.9,37.9,0,0,0,8.24,5.45c-6.68-.7-13.06-3.87-20.73-1.7,4.66,2.91,9.69.72,13.66,3.28-1.2,1.39-3.18,1.82-3.52,3.65,1.65,1.58,4.26,1.54,5.22,3.79-4.87,2-10.24,2.61-14.83,5.35-1,.6-3.07.7-2.25,2.53a33,33,0,0,0,7.13,10.62c1.92,1.83,3.7-1.59,5.86-1.15l1.92-2c1.27,1,2.73,1.57,4,.23s.08-2.84-.48-4.07c-.77-1.64-.42-4.81-3.91-3.57.15-.41.3-.83.46-1.24,4.15-1.4,5,1.57,6.14,4.46,1.7,4.36,2.14,4.41,4.93.59.46-.62.42-1,1.18-.51,3.13,2.15,5.93-.81,8.93-.62l1.88-.35,5.93,3.89c3.33,3.09,8.1,4.61,10.07,9.2-6.65,2.14-13.15,6.33-20.15.55-1.87-1.55-4.45-1.13-6.4.63-2.35,2.12-2.24,4.59-.78,7.16-5.66,1.39-11.43,0-17.13.66-1.31.15-2.92.06-3,1.79-.09,1.58,1.66,1.42,2.61,1.68,4.29,1.16,8.77.52,13.18,1.28,3.41.58,7.59,1.69,10.64-1.74C325.64,364.53,327.72,369.25,332.22,371.69Zm-63-78.27c-8.58-.82-14.65,2.62-20.32,7.19C255.54,298.83,262.43,298,269.27,293.42Zm-4.06-2.71c-3.62-.61-7.2-.63-11.35,2.11A22,22,0,0,0,265.21,290.71Z"/><path class="cls-5" d="M151.6,253.21c1.41,2,2.72.3,3.82-.28,8.84-4.73,17-10.53,25.23-16.22a3.78,3.78,0,0,0,1.9-3.28c2.25.08,4-.47,3.95-3.19,7.31-6.5,14.39-13.18,18.15-22.53a2.83,2.83,0,0,0,.94-3.19l.06.11c.81-.06.76-.59.67-1.16.65-1.9-.46-4.16,1.16-5.87,4.27,4.41,5.86,10.52,9.77,15.28,2,2.39,4.8,3.43,6.42,5.94,9.59,14.83,23.35,25.07,38,34.37a3.74,3.74,0,0,1,1.9,2.16c-2.87,1.81-5.73-1.16-8.59,0l-2.83-.89c-.79-2-2.37-3.22-3.71-4.73-3.46-3.91-9.46-5.08-11.36-10.31-1.82-5-4.8-4.45-8.4-2.47-1.42.78-2.79,1.68-4.19,2.52-2.69.63,1-4.05-1.76-2.44-3.64,2.11-6.49-.2-10.45-.12,1.94-1.95,3.73-3.14,3.23-5.45.89-.13,2,.3,2.46-.87.07-.19-.45-.85-.76-.9-1.31-.21-1.56.76-1.7,1.76-4.75-.72-5.8,3.23-7.92,6-2.67,3.57-3,9.34-9,9.92-.9.36-1,1.15-1.1,2l-.88,0q-.69-4.62-1.37-9.24c-2.28,2.7-4.78,4.68-6.66,7.19-2.9-.57-3.9,2.39-6,3.25a36.94,36.94,0,0,0-4.56,1.24c-2.44,1-4.94,2.09-4.25,5.55l-.35-.13-1.74.08c-4.07-.47-9.5,0-10.26,3.42-.83,3.77-2.78,9,1.27,12.86-2.52,2.59-5,5.24-7.58,7.74-1.23,1.18-2.3,3.52-4.31,2.58-2.45-1.15.37-3.17-.13-4.79l2.1-1.5c3.13-.82,6.4-1.48,6.78-5.8a9.34,9.34,0,0,0-5.93,2.43l-1.87,0c.57-2,1.35-3.91,3.71-4.47,0-.07-.08-.15.18.38-1.68-1.09-3.84.78-4.48-1.27-.75-2.43,2.05-1.79,3.19-2.57,1.87-1.26,4.89-1.43,3.91-5.49-3.61,2.69-8.4,2.62-10.91,6.64l-1.56-.18a.52.52,0,0,1-.2-.66c.84-3.15,3.63-4,6.1-5.36,1-.52,2.37-1.16,1.27-2.56-.66-.83-1.88-1.74-3-.62-1.92,1.95-3.13,1.11-4.24-.79l4.23-3.73Z"/><path class="cls-6" d="M254.94,255.32c2.86-1.13,5.72,1.84,8.59,0,6.1,2.48,12.32,4.75,17.67,8.75.14,3.11,2.4,5.78,1.85,9-6.63,1.36-13.6,1.64-19.24,6.1-9.24,4.86-15.95,12.37-21.82,20.77a175.18,175.18,0,0,0-19.44,29.66,19.85,19.85,0,0,1-3.34,5.39,4.35,4.35,0,0,1-.51,0c0-2.19-1.48-3.65-2.85-5.08-5.46-5.67-7.21-12.53-6.16-20.1.95-6.88,2.11-13.75,4.64-20.29l.11-1.54C224,272.26,235.38,258.71,254.94,255.32Zm10.57,6.89c-6.89.36-12.22,2.87-17.31,6.09-3,1.87-5.74,4.47-9.66,1.83-1.93-1.31-2.38.33-3,1.81-1.24,3-2.09,6.39-4.17,8.63-6.42,6.88-10.15,14.54-10.48,24.11-.09,2.62.69,4.25,2.22,5.26s3.38-.3,4.77-1.65c3.29-3.23,4.9-7.43,6.44-11.55,1.83-4.94,4.41-8.71,9.55-10.81,3.66-1.5,6.93-3.94,10.41-6l-5.93-4.09A100.91,100.91,0,0,1,265.51,262.21Zm-46.17,41.72c-.42-1.88-1.14-3.25-.46-4.79.39-.92,0-1.6-1.06-1.73-.89-.1-2,.16-2,1,.05,5.18-1.76,9.93-3.06,14.8a1.29,1.29,0,0,0,.83,1.6,1.19,1.19,0,0,0,1.59-.76C216.63,310.57,218.05,307.08,219.34,303.93Z"/><path class="cls-3" d="M224.44,380c2-.34,3.35,1.05,4.91,1.91,1.74,1,4.15,2.14,5.35.3,1-1.46-.18-4-1.87-5.15a7.63,7.63,0,0,1-3.32-6.24c-.08-1.51-.84-3.45,1-4.47,1.55-.84,2.78.29,4,1.11a6.84,6.84,0,0,0,1.86.57c.5,6.55,5.5,9.42,10.91,13.82-1.15-7-5.25-10.26-8.93-13.81-1-3.11-.92-4.64,3.18-3.2,3.7,1.3,6.19,4.31,9.69,5.82,1.35.58,2.5,1.52,4.08,1.37h0c-.2,2.73,1,4.14,3.82,4l.92.95c-1.13,1.27-.9,2.64.38,3.39,4.11,2.43,7.5,5.79,11.36,8.52.78.56,2,.77,2.26,1.75,2.06,7.37,8.15,12.7,10.18,20.08l-43.86,0c-1.6-3.82-6.1-4.05-8.62-6.49.64-2.26,4.93-2,3-5.07-1.21-2-3.09-3.5-5.8-2.74a10,10,0,0,1-12.39-7.34,3.26,3.26,0,0,1,.69-3.24c1.18-1.17,2.45-.8,3.63-.07,2.65,1.66,5.32,3.31,7.88,5.1,1.66,1.16,3.62,1.86,4.95.41,1.54-1.68-.66-2.82-1.61-4C230,384.42,225.46,384.08,224.44,380Zm23.92,13.74c4.11,2.14,8.14,4.6,14.14,4-4.44-3.33-8.21-5.87-11.62-8.83-2.46-2.12-4.78-2.6-7.57-1.06l-7.29-.48C238.32,393.18,244,392.19,248.36,393.74Z"/><path class="cls-4" d="M328.15,391c.59-1.58,2.82-2.66,1.46-4.84-1.23-1.95-3.12-2.09-5.2-2.18-8.39-.4-16.27,2.41-24.4,3.64a2.28,2.28,0,0,1-2.59-.71c6-3.57,12.77-4.24,19.13-5.79,12.51-3,25.39-3.68,38.17-4.88,4.16-.39,5.63,3.56,9.09,4.37-1.63,2.58-4.29.47-6,1.94.66,2,2.71,1.84,4.07,2.28,4.31,1.38,7,3.52,6.21,8.56-.28,1.9.3,3.83,3.09,3a1.34,1.34,0,0,1,1.71.56c3,5.18,8.39,8.4,11.09,13.8l-43.9-.05c1.31-6.51,8.88-7.7,11.44-13.27-5.17-.56-15.17,6.76-18.4,13.33l-11,0c2-7.47,8-11.91,13-17.06a14.64,14.64,0,0,0,3.24-4.25c.38-.89,1.13-1.89.23-2.72s-1.68.31-2.48.77C333.58,388.91,331.29,390.9,328.15,391Z"/><path class="cls-5" d="M150.66,364c2.16-4.09-2-6.75-2.46-10.33-.47-3.34,0-4.63,3.35-4.57l.25.06.25,0a82.73,82.73,0,0,0,3.08,16.9c.33,1.08,0,2.45,1.88,3,7.52,2.37,13.85-.49,17-7.95l.76-.92a1.5,1.5,0,0,1,.71-.21c3.39.63,4.71,3.37,6.14,6-3.52,4.36,2.61,6.69,1.73,10.53,2.46-2.62,2.27-5.59,2.26-8.52,3.64,0,6.4,2.52,9.34,4,1.58.8-.79,4-1.92,5.93-.13.21,0,.66.17.93,2.87,5.15.69,10.73,1.37,16.07-3.32,1.18-2.21,3.46-1,5.3,1,1.48,2.26,2.7,2,4.66-3.87,2.46-4-.12-4-2.95.33-3-1.69-4.51-3.8-5.9a15.18,15.18,0,0,1-5.45-5.66.32.32,0,0,1,.28-.44c3.37-.92,4.44,3.56,7.89,3.56-.49-3.71-.81-7.08-1.43-10.4a3.35,3.35,0,0,0-3.21-2.71c-1.31-.06-1.26,1.26-1.45,2.21-1.92-.08-3.82-1.38-6.7.15,3.56,1.08,3.15,3.21,2.49,5.42l-1.71-.17c-6.33.69-.87-5.67-4.71-7.34.82,3.3-4.28,6.25.89,8.88.5,4,5.2,6,5,10.36-1.17.72-1,1.89-1,3-2.34,1.78-2.7-1.58-4.42-1.71-2-.15-4.21-.9-5.2,1.46s0,3.91,2.6,4.25,1.91,2.25,2,3.81h-6c-.58-2.88-2.86-4.35-5-5.81s-2.12-2.65.06-4c1.49-.94,3.72-2,2.24-4.14-1.78-2.55,2-8.55-4.92-7.94-1.53.13-2.52-1.41-3.3-2.73,2.18-3.19,3.67,1.52,6.08.47-1.4-2.76.65-6.82-3.88-8.08-.93-2-3-3.59-1.85-6.29.89-2.06-.75-2.05-2.1-2.17-3-.28-4.32-2-4.25-5Zm20.48,16.26c-2.32,2.47-1.81,7.41-7,5.55,1.82,2.74,4,2.84,5.57,1.61C171.64,385.91,172.1,383.46,171.14,380.28Z"/><path class="cls-2" d="M178.58,402.92c0-1.1-.17-2.27,1-3,4.18-.44,8,1.1,12,2,0,2.83.12,5.41,4,2.95h2c.12.43.24.86.37,1.3l.37-.25c-.24-.35-.49-.7-.73-1.06.5-2.76-1-5.28-1-8,4.61,1.61,9.6,2.09,13.89,4.62,1.13.66,2.14,1.84,3.35.33s.28-2.69-.74-3.87c-1.35-1.57-3.52-2.59-3.55-5.08,2,0,2-1.46,2-2.88,1.87-3.54.69-7.37,1-11.06,1.17-.72.95-1.9,1-3,1.72-.09,3.57.19,4.46,1.61,1.65,2.61,4,2.46,6.5,2.39h0c1,4.08,5.54,4.42,7.74,7.24.95,1.22,3.15,2.36,1.61,4-1.33,1.45-3.29.75-4.95-.41-2.56-1.79-5.23-3.44-7.88-5.1-1.18-.73-2.45-1.1-3.63.07a3.26,3.26,0,0,0-.69,3.24A10,10,0,0,0,229,396.42c2.71-.76,4.59.79,5.8,2.74,1.89,3.06-2.4,2.81-3,5.07,2.52,2.44,7,2.67,8.62,6.49H194.55c0-1.18-.06-2.31-1.35-2.93C188.53,405.54,184.09,402.64,178.58,402.92Z"/><path class="cls-3" d="M105.77,367c4.74-1.31,5.12.18,4.2,4.76-2.2,11-3.5,22.08-5.18,33.13-.29,1.95-.66,3.89-1,5.83l-21.92,0c.51-6.87,5.06-12,11.5-12.75,1.27-.16,2.24-.41,2.48-1.82l.93-.21c1.55,0,3.15-.05,2.93-2.2s-1.14-4.13-4-3.71l-15,.15c.2-1.29-.27-2.75,1-3.76,1.55,1.24,3.51.49,5.22,1.11,1.53.55,2.49-.34,3-1.74.35-.92.77-1.86.1-2.81-.85-1.22-1.94-.6-3.08-.58-2.88.06-4.4,1.56-5.24,4.09l-.06-9.26,1.73-.18c-.51,6,3.56,2.5,5.79,2.79,1.91.26,3.75.46,3.79-2.35.05-3.31-2.31-2.48-4.19-2.51a3.82,3.82,0,0,0-.68-.05c-.7-.89-1.49,1.06-2.18-.06,0-1.85,1.58-2,2.77-2.22C94.59,371.4,100.05,368.8,105.77,367Z"/><path class="cls-5" d="M280.28,305.23c-.15-2.63.92-4.05,3.73-4,7,.1,14.27-.43,20.36,3.88,2.7,1.91,3.81-1.22,5.8-.9L316.9,310c.27,1.75,1.37,3.49.07,5.26-.79-.07-2.06-.29-2.13.48-.19,2.08,2,2.39,3.15,3.53l.13.13,1,.82c5.74,1.44,7.17,6.82,10,10.95-4.61-1.09-8.89-3.57-13.83-3.21-.19-.95-.41-1.88-1.7-1.79-2.29-2.07-4.8-.87-7.25-.47-1-2.25-3.57-2.21-5.22-3.79.34-1.83,2.32-2.26,3.52-3.65-4-2.56-9-.37-13.66-3.28,7.67-2.17,14,1,20.73,1.7a37.9,37.9,0,0,1-8.24-5.45c-1.72-3.54-5.14-3-8.17-3.43,0-1.53-.41-2.65-2.29-2.36l-1.7.06C287.69,302.29,283.94,305.8,280.28,305.23Z"/><path class="cls-2" d="M316.9,310l-6.73-5.76c-6.36-8-13-15.67-21.91-20.93-.16-2.39-1.89-3.7-3.66-4.71-1.4-.79-3.48-2.82-4.33.74-5.46-4.18-11-.21-16.46-.08,5.64-4.46,12.61-4.74,19.24-6.1,2.44-.29,4.71.37,7.05,1,3.52.92,1.82-1.18,1.27-2.53,3.27.36,4.79,3.11,6.49,5.27,4.21,5.32,7.93,11,12.11,16.37A32.75,32.75,0,0,1,316.9,310Z"/><path class="cls-7" d="M386,410.78c-1.64-5.52-3.34-10.76-7.38-15.41a81.24,81.24,0,0,1-11.25-17.57,22.67,22.67,0,0,0-13.87-12.3c.64-1,.21-1.38-.86-1.49-3.7-.41-7.11.71-10.5,1.93a2.83,2.83,0,0,0-2.91-2.75c-4.37.58-8.44-2.38-12.81-.9l-.33-.27c1.55-4.39,6.14-3.17,9.12-4.93-.05.68-1.92,1.31.12,2.05,3.55,1.29,7.3-.48,10.81.88l-1.12-.93a4.26,4.26,0,0,1-2-3c2.06-1.13,6.43.28,5.07-4.61,2.43.12,3.28,2.48,5,3.56-.28,1.14-1.29.79-2,1-.3.53-.59,1.07-.88,1.61,1.65,1.11,1.77,4.39,4.87,3.46l-.06-.06c-.29,1,.48.7.94.78,1.22.95,2.34,2.08,4,2.28-.17,1.68,1.23,2.15,2.23,2.94,4.71,3.77,8.24,8.59,11.5,13.56,6.4,9.78,12.58,19.71,18.95,29.73C390.15,411.23,388.05,410.92,386,410.78Z"/><path class="cls-8" d="M315.29,327.92c4.94-.36,9.22,2.12,13.83,3.21,3.07,2.11,3.95,5.24,4.07,8.73L327.26,336c-.12-.78-.11-1.83-1.25-1.61s-.73,1.2-.63,2c-3-.19-5.8,2.77-8.93.62-.76-.52-.72-.11-1.18.51-2.79,3.82-3.23,3.77-4.93-.59-1.12-2.89-2-5.86-6.14-4.46-.59-.09-1,.11-1,.74l.07-.05c-4.1.11-4.45,1.86-2.55,5.14.8,1.39,2.58,2.71,1.55,4.78-2.16-.44-3.94,3-5.86,1.15a33,33,0,0,1-7.13-10.62c-.82-1.83,1.24-1.93,2.25-2.53,4.59-2.74,10-3.35,14.83-5.35,2.45-.4,5-1.6,7.25.47-2.86,1.48-6.62.79-10.06,4.29Zm-3.56,3.74a16.36,16.36,0,0,1,5.7,1.53c2.23,1.18,1.34-2.4,2.95-3C317.34,330.22,314.35,329.73,311.73,331.66Z"/><path class="cls-9" d="M95.84,267.42c-1.37,4-5,6-7.71,8.87-.43.35-.86.7-1.28,1.06l.05-.05-1,1,0,0-1,1h0c-1.12.21-1.49,1.17-2.11,1.94-5.24,6.51-7.2,14.32-9,22.21-3.47,2-.94,6.1-3,8.61-.93-.55-1.78,0-2.65.19-1-5.71-3.76-1.83-5.66-.85-3.52,1.81-2.8-.68-2.83-2.53,1.41-2.23,4-3.68,4.42-6.57a4.36,4.36,0,0,0,3.62-1.28c.38,1.48,0,3.31,1.83,4.19.71-1.31-.23-3.22,1.63-3.95a3.21,3.21,0,0,0,1.5-4.65c-2.43-4.39-.36-7.87,1.66-11.35,1.91-3.29.43-4.09-2.57-4.11A167.46,167.46,0,0,1,95.84,267.42Z"/><path class="cls-3" d="M328.15,391c3.14-.08,5.43-2.07,8-3.52.8-.46,1.44-1.73,2.48-.77s.15,1.83-.23,2.72a14.64,14.64,0,0,1-3.24,4.25c-5,5.15-11,9.59-13,17.06l-7.94,0c-.4-7.89,3.57-12.92,10.47-16.07,1.63-.74,3.49-1.39,3.49-3.71Z"/><path class="cls-5" d="M348.05,351.51c1.36,4.89-3,3.48-5.07,4.61a1.71,1.71,0,0,0-2.69,0,2,2,0,0,0-2.23,1.11l-2.89-.16c-3,1.76-7.57.54-9.12,4.93-1.17-.75-2.32-1.58-3.83-.95-3.05,3.43-7.23,2.32-10.64,1.74-4.41-.76-8.89-.12-13.18-1.28-.95-.26-2.7-.1-2.61-1.68.09-1.73,1.7-1.64,3-1.79,5.7-.65,11.47.73,17.13-.66l.1.18c-1.29,2.87.88,2.29,2.37,2.38,4.32-.2-.48-2,.5-2.82,2.51-.47,5.8.67,6.63-3.24a15.93,15.93,0,0,0,12.93-1.11,22.51,22.51,0,0,1,7.67-1.89Z"/><path class="cls-5" d="M95.85,396.14c-.24,1.41-1.21,1.66-2.48,1.82-6.44.78-11,5.88-11.5,12.75l-9,0c0-2,0-3.94,0-5.9,1.48.66,2-.35,2.57-1.4a58.84,58.84,0,0,0,5.21-12.93c.32.55,1,1.17.89,1.63-1.07,5.37,2.17,3.67,4.56,2.66,1-.42,1.87-1.47,2.85-.48C91,396.33,93.54,395.67,95.85,396.14Z"/><path class="cls-10" d="M59.69,308.9c0,1.85-.69,4.34,2.83,2.53,1.9-1,4.62-4.86,5.66.85.87-.24,1.72-.74,2.65-.19l.25,1L65.9,322c-2.89,2.87-6.57,5-8,9.18-.27,0-.54-.08-.81-.1l-.36-6.85c0-2.15-.3-4.37.14-6.43C57.5,314.74,56.3,311.05,59.69,308.9Z"/><path class="cls-4" d="M178.58,402.92c5.51-.28,9.95,2.62,14.62,4.87,1.29.62,1.33,1.75,1.35,2.93h-21c-.11-1.56.49-3.48-2-3.81s-3.52-2-2.6-4.25,3.19-1.61,5.2-1.46C175.88,401.34,176.24,404.7,178.58,402.92Z"/><path class="cls-4" d="M328.16,391c0,2.32-1.86,3-3.49,3.71-6.9,3.15-10.87,8.18-10.47,16.07h-5c-.53-2.27,2.49-4.55,0-6.82v-2c1.19-5.83,5.47-7.89,10.72-8.75,2.43-.4,4.88-.73,6.23-3.21h0Z"/><path class="cls-3" d="M72.92,404.85c0,2,0,3.93,0,5.9l-8-.06-.64-.78c-.57-5.64-2.15-11.26-.39-17,3.72.56,3.26,2.9,2.36,5.47-.37,1.1-.7,2.48.52,3.08,1.73.85,2.27-.81,2.73-1.94.57-1.41,1-2.79,2.85-2.88C73.19,399.36,72.88,402.12,72.92,404.85Z"/><path class="cls-8" d="M57.89,331.15c1.44-4.14,5.12-6.31,8-9.18,2.69,1.24,2.2,5.08,5,6.2L69.85,330l-1.92.25c-.08-1.31-.53-2.29-2.07-2a1.74,1.74,0,0,0-1.54,1.64c0,1.15,1,1.07,1.74,1.25l0,2c-1.24.06-1.15,1-1.22,1.84a3.36,3.36,0,0,0-2,2c-2.06.92-3.64,2.79-6.05,3C53.87,336.71,58.12,334.2,57.89,331.15Z"/><path class="cls-8" d="M346.13,350.9a22.51,22.51,0,0,0-7.67,1.89,16,16,0,0,1-12.92,1.12c-2-1.88-4.25-4.09-7.12-2.07-2.26,1.58-1.5,3.69.48,5.3-1,.79,3.82,2.62-.5,2.82L316,357.58l-.1-.18c-1.46-2.57-1.57-5,.78-7.16,2-1.76,4.53-2.18,6.4-.63,7,5.78,13.5,1.59,20.15-.55C344.74,348.86,346.61,348,346.13,350.9Z"/><path class="cls-4" d="M71.78,281.18c3,0,4.48.82,2.57,4.11-2,3.48-4.09,7-1.66,11.35a3.21,3.21,0,0,1-1.5,4.65c-1.86.73-.92,2.64-1.63,3.95-1.86-.88-1.45-2.71-1.83-4.19.2-2.2.4-4.41.59-6.61.31-1.71.61-3.41.92-5.12,1-2.08,2.35-4.24-1.41-5A9.73,9.73,0,0,1,71.78,281.18Z"/><path class="cls-2" d="M333.14,410.76c3.23-6.57,13.23-13.89,18.4-13.33C349,403,341.41,404.19,340.1,410.7Z"/><path class="cls-11" d="M59.69,308.9c-3.39,2.15-2.19,5.84-2.83,8.87-.44,2.06-.12,4.28-.14,6.43a5.93,5.93,0,0,1-.72-.1c-.12-8.75-.84-17.58,3-25.88l1.3.83c0,1.25-1.42,2.23-.51,4,1.35-.85,2.68-3.05,4.35-.68C63.67,305.22,61.1,306.67,59.69,308.9Z"/><path class="cls-10" d="M67.83,284.36c3.76.72,2.43,2.88,1.4,5a4.23,4.23,0,0,0-3.29,4.77l-3.09,3.2c-1.92-.15-1.9-1.54-1.87-2.94l.3-1.11.59-1.09C63.35,289.16,64.88,286.21,67.83,284.36Z"/><path class="cls-8" d="M291.37,271.58c.55,1.35,2.25,3.45-1.27,2.53-2.34-.62-4.61-1.28-7.05-1,.55-3.24-1.71-5.91-1.85-9C284.39,266.87,288.87,267.88,291.37,271.58Z"/><path class="cls-3" d="M309.2,401.93c0,.67,0,1.33,0,2-3.8,1.35-1.23,4.56-2,6.8h-6Q301.47,400.32,309.2,401.93Z"/><path class="cls-4" d="M72.34,396.69c-1.83.09-2.28,1.47-2.85,2.88-.46,1.13-1,2.79-2.73,1.94-1.22-.6-.89-2-.52-3.08.9-2.57,1.36-4.91-2.36-5.47l1-7c1.74,3.48,2.17,8,7.07,9Z"/><path class="cls-4" d="M290.24,410.74c0-.82-.27-2,.15-2.4,1.7-1.76-.68-6.69,3-5.78,2.5.62,4.25,4.58,2.82,8.18Z"/><path class="cls-9" d="M116.68,252.31c.38,1,.75,2.05,1.12,3.07-.07.86-.18,1.69-1.06,2.14L111.33,256C112.72,254.2,114.73,253.29,116.68,252.31Z"/><path class="cls-12" d="M359.91,364.14c-1.64-.2-2.76-1.33-4-2.28l-.94-.78.06.06c-.68-1.59-1.45-3.16-.83-5C356.05,358.87,359,360.76,359.91,364.14Z"/><path class="cls-5" d="M156.64,410.74c-.16-2.16.92-2.86,3-2.86s3.15.7,3,2.86Z"/><path class="cls-2" d="M307.2,410.73c.76-2.24-1.81-5.45,2-6.8,2.49,2.27-.53,4.55,0,6.82Z"/><path class="cls-11" d="M354.22,356.17c-.62,1.81.15,3.38.83,5-3.1.93-3.22-2.35-4.87-3.46,1.11-.09.81-.95.88-1.61.74-.21,1.75.14,2-1C353.81,355.09,354.12,355.52,354.22,356.17Z"/><path class="cls-7" d="M318,319.23c-1.12-1.14-3.34-1.45-3.15-3.53.07-.77,1.34-.55,2.13-.48Z"/><path class="cls-13" d="M61,294.35c0,1.4,0,2.79,1.87,2.94-.09,1.72-1.2,1.94-2.58,1.76l-1.3-.83C58.76,296.47,60,295.48,61,294.35Z"/><path class="cls-8" d="M56,324.1a5.93,5.93,0,0,0,.72.1l.36,6.85C54.88,329,56.35,326.42,56,324.1Z"/><path class="cls-7" d="M319.15,320.18l-1-.82Z"/><path class="cls-13" d="M61.87,292.15l-.59,1.09Z"/><path class="cls-4" d="M64.27,409.91l.64.78C64.3,410.76,63.91,410.65,64.27,409.91Z"/><path class="cls-3" d="M220.46,357.06v3c-6.81-.57-13.08-3.91-20.1-3.69-3.17.1-5.07-1.33-1.32-4.06,1.72-1.25,2.47-3.61.66-4.35-4.24-1.73-5.44-5.47-7.13-8.89-2.82-5.71-7.66-8.73-13.36-10.78-.78-1.27-1.73-2.46-1.66-4.07a34.46,34.46,0,0,1,14.92,4.58,7.39,7.39,0,0,0,5.6,1c3.37-.72,4.68-2.18,3.49-5.84A21.9,21.9,0,0,1,203,306.73a18.28,18.28,0,0,0,1.6-7.71c.06-2.16,0-4.73,2.74-5.76.75,2.2-.86,4.1-.69,6.29.62,7.9,2.81,15.74,1,23.74a17.3,17.3,0,0,0-1,2.22c-1.66,5.83,3.05,8.82,5.73,12.71a5.61,5.61,0,0,0,3.15,3.89l0,.9a20.57,20.57,0,0,0,4,13.06Z"/><path class="cls-8" d="M150.52,340.91c2-4.67,7.21-6.17,10-10.11,1.6-2.29,3.43-4.43,5.16-6.63,2.11.43,4.78.59,5.78,2.44,1.87,3.43,5,3.85,8.12,4.53,3.69,8.25,4.37,16.1-3.06,22.87-3.16-.32-4.88-3.57-8-3.93,2.75-5.41,4-11,2.56-17.22-1.82,1.92-3.45,3.93-5.38,5.61s-4.22,3.07-6.34,4.58C155.79,344.8,152.69,344.79,150.52,340.91Z"/><path class="cls-6" d="M224.45,239.44c1.4-.84,2.77-1.74,4.19-2.52,3.6-2,6.58-2.53,8.4,2.47,1.9,5.23,7.9,6.4,11.36,10.31,1.34,1.51,2.92,2.77,3.71,4.73-7.27-.69-14,.62-20.11,4.91-2.48,1.74-4.36,4.29-7.34,5.34a9.65,9.65,0,0,1-2.61-4.38c.51-2.89,1-5.77,1.54-8.66,1.95-2.62,4.06-5.22.92-8.4C224.55,242,222.62,240.73,224.45,239.44Z"/><path class="cls-4" d="M224.45,239.44c-1.83,1.29.1,2.53.06,3.8-1.1,2.58-1.38,5.85-5.18,6.18l-1.75-2c1.81,0,3.64.2,4.11-2.38.29-1.59-.78-1.44-1.6-1.84-2.43-1.18-3.32.07-3.69,2.23-2.66,1.62-5.6,2.92-7.07,5.95-8.66,4.39-16.68,9.83-24.58,15.41a21.49,21.49,0,0,1-5,3.09c-1.25.46-2.62,2.49-3.6.51-.71-1.44,1.34-2.34,2.59-3.11,3.3-2,7.05-3.66,7.8-8.12a.6.6,0,0,0,.14.05c.9,0,2.27.53,2.12-1-.09-.94-1.32-.6-2.11-.57.06-.66-.65-2,.66-1.7,2.91.79,4.34-.82,5.09-3,.54-1.55,1.54-1.42,2.61-1.63.31,0,.37.89.84.21l-.7-.37.61-1.69.77,0,.88,0c.21.36.42.72.64,1.07.86-.9.24-2,.46-3,6-.58,6.31-6.35,9-9.92,2.12-2.81,3.17-6.76,7.92-6h0c.5,2.31-1.29,3.5-3.23,5.45,4-.08,6.81,2.23,10.45.12C225.45,235.39,221.76,240.07,224.45,239.44Z"/><path class="cls-11" d="M145.53,266.67a.52.52,0,0,0,.2.66c.05,1,.09,2,.14,2.95l.12,3,.11,2.11.42,1.29c.43,3.36-1,4.57-4.42,4.87-4.83.43-9.59-.51-14.38-.12a52.42,52.42,0,0,0-14.8-.22c-2,.19-4.31.94-6.09-.93l1-1.08c2.68,1,4.7.57,6-2.6l-4.08-.43c.42-1.44.22-2.84-1.31-5.18,3.19,2,6.38,1,7.42,4.21l-.15,1.08c-.23.37-.47.74-.68,1.12,0,0,.23.18.35.28l.48-1.28c2.16-.64,3.14,1.87,5,1.89a7.85,7.85,0,0,0,5-1c1.6-.84,3.74-1.49,1.94-4,2.83,2.32,6.46,2,9.71,2.95l.91,1,1.12,1,1.06.08c1.59-1.32,1.66-2.66.08-4l0-.07c-.31-1.95-1.44-2.16-3-1.43-.63-1.34-1.3-2.68-1-4.24l4.88-1.38C143,266.92,144.16,266.13,145.53,266.67Z"/><path class="cls-4" d="M140.69,292.23c2.57.15,3.42-3.11,6-3,4.16-.38,1.69,2.17,1.32,3.35-3.7,12-6.65,24.21-9.55,36.45-1.9,8-4.12,16-5.91,24.06-.3,1.37-.47,3-1.79,4-1.23-6.91,2.62-13.15,2.55-19.95,0-3.24,1.35-6.2,2.84-9.2s2-6.63-.46-9.77c0-.66,0-1.32,0-2a18.19,18.19,0,0,1,3.15-2.95c2.53-1.44,2.25-4,3.2-6.16,2.37-5.29-3.12-2.21-3.85-4a6,6,0,0,0-.5-.84C139.09,299,138.6,295.23,140.69,292.23Z"/><path class="cls-8" d="M224.66,264.68c3-1.05,4.86-3.6,7.34-5.34,6.08-4.29,12.84-5.6,20.11-4.91l2.83.89c-19.56,3.39-30.92,16.94-40.5,32.69-2.31-1.65-1.78-3.32-.3-5.3.87-1.16,2.25-3-.89-3.37,1.88-3.71,3.68-7.46,7.07-10.11,1.8,1.06,3.9,1.56,5.18-.26,1.46-2.08-2.1-1.21-2.1-2.71Z"/><path class="cls-13" d="M207.63,323.29c1.82-8-.37-15.84-1-23.74-.17-2.19,1.44-4.09.69-6.29l1.09-1c2.64.57,4.21-1.2,5.91-2.69-2.53,6.54-3.69,13.41-4.64,20.29-1.05,7.57.7,14.43,6.16,20.1,1.37,1.43,2.8,2.89,2.85,5.08-1.53.42-4-.11-2.42,3.05a3.27,3.27,0,0,1-.73,4,5.61,5.61,0,0,1-3.15-3.89c-1.05-4.65-2.06-9.32-3.19-14C209.1,323.84,208.17,323.61,207.63,323.29Z"/><path class="cls-11" d="M195.82,249.41l-.61,1.69-.14.16c-1.07.21-2.07.08-2.61,1.63-.75,2.18-2.18,3.79-5.09,3-1.31-.35-.6,1-.66,1.7s0,1.06,0,1.59a.6.6,0,0,1-.14-.05c-4.11,1.38-7.11,4.62-10.92,6.5-3.26-2.12-1.44-5.62-2.28-8.4l.35.13,2.77-1c.32,1.25.63,2.5,1,3.74.25.93.79,1.4,1.74.84a36.29,36.29,0,0,0,3.22-2.1,3.06,3.06,0,0,0-.52-1.11c-4.29,1.14-1.11-2.5-2.18-3.39,1.44-.87,2.73-1.85,2.82-3.74,2.14-.86,3.14-3.82,6-3.25,1.35,2.26,2.87.74,4-.08C195.89,244.73,195.49,247.53,195.82,249.41Z"/><path class="cls-5" d="M135.65,318.16c2.5,3.14,1.95,6.79.46,9.77s-2.87,6-2.84,9.2c.07,6.8-3.78,13-2.55,19.95-.72,2.55-2.17,1.09-2.56.14a7.21,7.21,0,0,1-.33-4.35c2.86-10.29,2.16-21.12,4.83-31.44C133.13,319.59,133.65,318.34,135.65,318.16Z"/><path class="cls-4" d="M105.77,367c-5.72,1.78-11.18,4.38-17.09,5.62-1.19.25-2.74.37-2.77,2.22a3,3,0,0,0-2.63,2c-3.19-2.52-.4-6-1.42-8.85l0-1.95,2-1c1.68,3.4,4.49,3.26,7.64,2.64,5.15-1,9.85-4,15.31-3.67Z"/><path class="cls-4" d="M122.47,405.38c-4.12-3.89,1.76-38.88,7.68-43.22C127,376.84,123.19,390.59,122.47,405.38Z"/><path class="cls-11" d="M162.63,273.59c-4-3.86-2.1-9.09-1.27-12.86.76-3.44,6.19-3.89,10.26-3.42,1.24,2.93,1.12,6,1.07,9.11l-4.13,3.79a6.07,6.07,0,0,0-3.35,2Zm1.27-5c4.23-1.72,6.44-3.3,5-6.85-.9-2.27-2.57-1.44-4.11-.77C159.39,263.29,165.85,265.58,163.9,268.54Z"/><path class="cls-5" d="M137.67,302.22a6,6,0,0,1,.5.84c.73,1.8,6.22-1.28,3.85,4-1,2.14-.67,4.72-3.2,6.16a18.19,18.19,0,0,0-3.15,2.95c-1.22-2.45-1.18-5.67-5-6.37-1.46-.27-.23-2,.25-2.9C132.34,304.21,135.29,303.6,137.67,302.22Z"/><path class="cls-11" d="M158.86,378.48c4.53,1.26,2.48,5.32,3.88,8.08-2.41,1.05-3.9-3.66-6.08-.47-3.62.44,0-2.57-1.75-3.23-1.1,2.1-2.4,4.78-4.2.37-.35-.85-1-1.45-1.55-.08-.41,1.1-.69,2.64-2.17,1.54-1-.73-.46-2.11.31-3.12,1-1.28-.29-3.88,1.67-4.22s2,2.25,3.18,3.42c1.61-.19.57-2.51,2.41-2.73C155.28,384.16,157,382.2,158.86,378.48Z"/><path class="cls-6" d="M217.58,247.39l1.75,2,.43,2c1.47,2.6-.91,5-.34,7.6-3.64-2.2-7.43-4.18-10.09-7.67,1.47-3,4.41-4.33,7.07-5.95A2.11,2.11,0,0,0,217.58,247.39Z"/><path class="cls-11" d="M140.37,379.19c0,4.71-4.08,3.28-7,4.88.3-2.24.6-4.23.83-6.23.14-1.2.87-2.17,1.89-1.59,3.39,1.93,7,1,10.75.82-1.45,1.39-3.14,2.25-1.54,4.21-6,1.26,2,1.85.14,2.91C140.61,384.75,140.61,384.75,140.37,379.19Z"/><path class="cls-11" d="M147.29,267.51c2.51-4,7.3-3.95,10.91-6.64,1,4.06-2,4.23-3.91,5.49-1.14.78-3.94.14-3.19,2.57.64,2.05,2.8.18,4.48,1.27-.26-.53-.22-.45-.18-.38-2.36.56-3.14,2.43-3.71,4.47l-2.84,1.92-1.29-3.89c-.2-1.14-.39-2.29-.58-3.43Z"/><path class="cls-11" d="M179.56,331.14c-3.16-.68-6.25-1.1-8.12-4.53-1-1.85-3.67-2-5.78-2.44,1-4.39,4-2.32,6.55-2.1a10.77,10.77,0,0,1,5.34,2.16c-.07,1.61.88,2.8,1.66,4.07C179.33,329.24,179.44,330.19,179.56,331.14Z"/><path class="cls-11" d="M150.52,340.91c2.17,3.88,5.27,3.89,8.8,2.14-.67,2.56,1.36,4.58,1.38,7-3,.73-5.71-1.11-8.65-.89l-.25,0-.25-.06C152.14,346.26,148,344,150.52,340.91Z"/><path class="cls-11" d="M214.33,289.55c-1.7,1.49-3.27,3.26-5.91,2.69,1.08-4.5,2.15-9,4.83-12.9,3.14.36,1.76,2.21.89,3.37-1.48,2-2,3.65.3,5.3C214.4,288.52,214.37,289,214.33,289.55Z"/><path class="cls-9" d="M219.42,259c-.57-2.56,1.81-5,.34-7.61l3.83.23c-.52,2.89-1,5.77-1.54,8.66C220.93,260.37,219.91,260.24,219.42,259Z"/><path class="cls-5" d="M143.62,355.07c-4-1.63-3.7-4.7-5.13-8.34C141.91,349.26,142.59,351.8,143.62,355.07Z"/><path class="cls-12" d="M148.85,276.21l2.84-1.92,1.87,0c-.28,1.12-.57,2.24-.85,3.37l-2.1,1.5C147.94,279.41,149.09,277.39,148.85,276.21Z"/><path class="cls-11" d="M223.4,266.26c0,1.5,3.56.63,2.1,2.71-1.28,1.82-3.38,1.32-5.18.26A6.39,6.39,0,0,1,223.4,266.26Z"/><path class="cls-9" d="M172.69,266.42c.05-3.09.17-6.18-1.07-9.11l1.74-.08c.84,2.78-1,6.28,2.28,8.4C174.87,266.69,173.68,266.17,172.69,266.42Z"/><path class="cls-4" d="M147.72,361.12c-3.1-.95-3.23-2.72-4.41-5.4A8.31,8.31,0,0,1,147.72,361.12Z"/><path class="cls-5" d="M147,268.89c.19,1.14.38,2.29.58,3.43l-1.57.95-.12-3Z"/><path class="cls-5" d="M165.21,272.16a6.07,6.07,0,0,1,3.35-2C168.43,272.56,166.79,272.3,165.21,272.16Z"/><path class="cls-5" d="M146.52,276.67l-.42-1.29Z"/><path class="cls-4" d="M150.66,364v1C150,364.71,150,364.36,150.66,364Z"/><path class="cls-5" d="M179.56,331.14c-.12-.95-.23-1.9-.35-2.84,5.7,2.05,10.54,5.07,13.36,10.78,1.69,3.42,2.89,7.16,7.13,8.89,1.81.74,1.06,3.1-.66,4.35-3.75,2.73-1.85,4.16,1.32,4.06,7-.22,13.29,3.12,20.1,3.69-.52,3.62-3.39,5.94-5,9-.67,2.31-1.33,4.63-2,6.95-.05,1.09.17,2.27-1,3-.08-2-1.43-3.11-3-4-2-1.09-3.22-2.59-3-5,3.52-.32,5.3-2.79,4.83-5.74-.88-5.4-6.39-3.34-9.88-6.39.5,5,5,6.37,5,10.19-8.85-7.11-20.22-7.94-30.21-12.18l.28-1.9C183.93,347.24,183.25,339.39,179.56,331.14Z"/><path class="cls-4" d="M275.32,381.1c-1.3,3.58-2.75,5.53-6.34,1.69-2.14-2.28-5.1-3.78-7.69-5.63,1.77-2,5.15-2.66,5.08-6.17,3.71-.26,6.65,2,9.95,3.05C276.39,376.45,274.8,378.63,275.32,381.1Z"/><path class="cls-5" d="M243.36,303.22c1.62,1.19,3.36.86,5,.34,1.42,2.48-3.51,5.64,1,7.66-1.23,4-7.26,6.63-10.26,4.41a1.82,1.82,0,0,1-.41-1.71C241,310.66,240.86,306.36,243.36,303.22Z"/><path class="cls-8" d="M322.22,361.07c1.51-.63,2.66.2,3.83.95l.34.27c6.39,8.92,7.4,9.15,15.71,3.65,3.39-1.22,6.8-2.34,10.5-1.93,1.07.11,1.5.46.86,1.49l-.32-.16-.36.07a4.16,4.16,0,0,0-3.69.66c-3.84.47-7,2.39-10.12,4.54-2.16.9-4.34,1.72-6.75,1.08C327.72,369.25,325.64,364.53,322.22,361.07Z"/><path class="cls-7" d="M266.37,371c.07,3.51-3.31,4.17-5.08,6.17l-1.2-.16c-.31-.32-.62-.63-.92-.95.78-3.28-2.24-3-3.82-4h0c-.51-1.41-2.14-2.26-2-4,5-1.79,9.33-1,13,3Z"/><path class="cls-3" d="M213.49,376c.67-2.32,1.33-4.64,2-6.95,6.33.91,6.59,6.79,9,10.95-2.48.07-4.85.22-6.5-2.39C217.06,376.19,215.21,375.91,213.49,376Z"/><path class="cls-7" d="M349.09,366.07a4.16,4.16,0,0,1,3.69-.66c-.21,3.39,6.34,4.23,4.42,5.5a22.79,22.79,0,0,1-11.08,4,1.82,1.82,0,0,0-2-1.95c0-.65,0-1.3.05-1.95C347.47,371,349.57,369.82,349.09,366.07Z"/><path class="cls-5" d="M238.4,368c3.68,3.55,7.78,6.83,8.93,13.81-5.41-4.4-10.41-7.27-10.91-13.82Z"/><path class="cls-4" d="M266.35,371c-3.66-3.92-8-4.74-13-3-.21-1.76-4-1.89-2.12-4.62s3.78-.3,5.49.34C260.61,365.21,266,364.84,266.35,371Z"/><path class="cls-4" d="M349.09,366.07c.48,3.75-1.62,5-4.92,5-1.59-1.82-3.72,2.67-5.2-.45C342.06,368.46,345.25,366.54,349.09,366.07Z"/><path class="cls-4" d="M278.31,375c2.6-.53,4.71,2,7.4,1.18.55-.17,1.23.37,1.29,1.14a1.34,1.34,0,0,1-1.4,1.59c-2.1.09-4.21.08-6.32.11A6.76,6.76,0,0,0,278.31,375Z"/><path class="cls-7" d="M278.31,375a6.76,6.76,0,0,1,1,4l-4,2.1c-.52-2.47,1.07-4.65,1-7.06A2.1,2.1,0,0,1,278.31,375Z"/><path class="cls-11" d="M215.55,342.11a3.27,3.27,0,0,0,.73-4c-1.58-3.16.89-2.63,2.42-3.05a4.35,4.35,0,0,0,.51,0c-1.73,2.42.23,6.56-3.7,8Z"/><path class="cls-4" d="M344.12,373a1.82,1.82,0,0,1,2,1.95c-.84.24-1.66,1.32-2.54.4S343.24,373.64,344.12,373Z"/><path class="cls-5" d="M220.46,357.06l-1-1Z"/><path class="cls-4" d="M326.15,390l-.42-.23.42.23Z"/><path class="cls-5" d="M94.8,303.22c-5.8-5.38-5.81-9.27,0-14,1.67,1.13,3,.69,4.3-.72s2.41-3.24,4.7-3.27l5,0c.89,4.86.32,9.93,1.24,14.65,1.45,7.41-1.48,12.67-6.12,17.59-1.31,1.39-2.32,2.76-2.14,4.75l-2-2.09c-.28-2.72,3.83-4.73,2.85-6.08-2.68-3.64-.83-5.27,1.52-7.61,1.3-1.29,1.07-3.57-.06-5.09-1.35-1.79-3.15-1.38-4.82-.16A8.58,8.58,0,0,1,94.8,303.22Z"/><path class="cls-4" d="M94.8,303.22a8.58,8.58,0,0,0,4.49-2c1.67-1.22,3.47-1.63,4.82.16,1.13,1.52,1.36,3.8.06,5.09-2.35,2.34-4.2,4-1.52,7.61,1,1.35-3.13,3.36-2.85,6.08-2,.16-4.37-1.39-6,1.06v2a8.58,8.58,0,0,0-1.05.94,18.24,18.24,0,0,0-3.26,7.05c-1.27,5.46-4.47-2.49-5.94.94-1.39-.18-2.54.46-3.77.95s-2.07,2.47-3.33,1.28c-1.46-1.38-.2-3.11.6-4.5a9.81,9.81,0,0,1,5.17-4.41C92.66,321.58,94.45,312.82,94.8,303.22Z"/><path class="cls-4" d="M105.79,336.13l5,0c0,.65,0,1.31,0,2-3,2.76-7,2.45-10.57,2.82-3.38.35-5.63.68-4.68,4.82-2,0-1.85-4.06-4.32-1.66l-4.33,1c-2.49,2.31-2.25,6.58-5.82,8.11-.72.31-1.47.56-2.21.84-.57-2.61-1.27-5.2-1-7.92,2.28-1.48,4.48-3.09,6.86-4.39A3.88,3.88,0,0,0,87,337.88c2,1.14,3.91,2.56,3.9-1.62a54.24,54.24,0,0,1,1-7.49c3.3,1.64.12,10.49,7.77,6.11C101.35,337.05,103.73,335.79,105.79,336.13Z"/><path class="cls-2" d="M105.79,336.13c-2.06-.34-4.44.92-6.12-1.25a16.88,16.88,0,0,0,2.08-12.6c-.18-2,.83-3.36,2.14-4.75,4.64-4.92,7.57-10.18,6.12-17.59-.92-4.72-.35-9.79-1.24-14.65,3.21,1.24,3.5,4.84,3.56,6.93.25,8.11,3.42,16.71-2.61,24.19a3.65,3.65,0,0,0-.73,3.77c1.4,3,.16,5.73-1.36,7.93C105.86,330.69,105.71,333.3,105.79,336.13Z"/><path class="cls-12" d="M72.34,396.69,72,395q.89-8,1.78-16c1.5.76,2.91,1.23,4.13-.55a3.06,3.06,0,0,1,3.79-1.19l.06,9.26v-.07c-1.24,1-.77,2.47-1,3.76l0,.35a58.84,58.84,0,0,1-5.21,12.93c-.58,1.05-1.09,2.06-2.57,1.4C72.88,402.12,73.19,399.36,72.34,396.69Z"/><path class="cls-2" d="M105.62,279.3c-1.86-.2-3.48-1.35-3.54-3-.13-3.81.82-7.66-1.13-11.35-.42-.79.53-1.81,1.5-2.3,3.3-1.69,13.08,2.5,14.47,6.21-.45.14-.92.45-1.35.39C107.3,268.17,104.45,271,105.62,279.3Z"/><path class="cls-12" d="M101.75,322.28a16.88,16.88,0,0,1-2.08,12.6c-7.65,4.38-4.47-4.47-7.77-6.11a54.24,54.24,0,0,0-1,7.49c0,4.18-1.91,2.76-3.9,1.62-1.32-1.8-3-3.37-3.45-5.7,1.47-3.43,4.67,4.52,5.94-.94a18.24,18.24,0,0,1,3.26-7.05,8.58,8.58,0,0,1,1.05-.94,18.46,18.46,0,0,0,1.78,6.63c.43.82.38,2.22,1.69,2,.66-.1,1.31-.95,1.77-1.61,3.14-4.51.83-8.46-5.23-9,1.63-2.45,4-.9,6-1.06Z"/><path class="cls-8" d="M81.65,377.22a3.06,3.06,0,0,0-3.79,1.19c-1.22,1.78-2.63,1.31-4.13.55l-.94-1.84c.24-2.07-.89-2.95-2.76-3.19,1.91-4.4,5.37-6.86,9.93-7.93l1,.78.93,1.24c1,2.86-1.77,6.33,1.42,8.85l.1.17Z"/><path class="cls-13" d="M73.8,303.48c1.79-7.89,3.75-15.7,9-22.21.62-.77,1-1.73,2.11-1.94a157.77,157.77,0,0,0-6.4,25c-1.67,0-3.9-.81-2.86,2.47.47,1.48.8,3.16-.76,4.38L74,309Z"/><path class="cls-2" d="M62.88,337.05a3.36,3.36,0,0,1,2-2c4.22,6.32,4.73,12.59.07,19-1.29,1.77-2.7,2.55-4.56,1.55a3.26,3.26,0,0,1-1.64-4.21c.16-.46.17-1.07.49-1.38C62.94,346.46,64.06,342.56,62.88,337.05Z"/><path class="cls-8" d="M105.62,279.3c-1.17-8.27,1.68-11.13,9.95-10,.43.06.9-.25,1.35-.39l1.26-.36,1.5.35,6,.6,1.11,2.7-1.83.29c-2.27.29-4.94-1.88-7.37,1.42,2.44.27,4.69-.44,6.12,1.44l-1.7.16-6.11-.29c-1-3.18-4.23-2.18-7.42-4.21,1.53,2.34,1.73,3.74,1.31,5.18-1.13.76-2.2-1.11-2.56-.58-.79,1.15,0,2.47.69,3.61l-1,1.08Z"/><path class="cls-11" d="M74,309l.88,2.23c.28,1.93,3.77,4.38,1.09,5.47-5.32,2.18-2.3,3.6-.24,5.49-.59,2.8-2.52,4.54-4.78,6-2.85-1.12-2.36-5-5-6.2l5.18-8.91c.89.27.78,1.92,2.24,1.53C73.81,312.77,71.49,310.53,74,309Z"/><path class="cls-12" d="M126.75,272.17l-1.11-2.7,11.15-1c-.32,1.56.35,2.9,1,4.24l-.18,3.45c-3.25-.94-6.88-.63-9.71-2.95C127.5,272.9,127.12,272.54,126.75,272.17Z"/><path class="cls-2" d="M145.53,266.67c-1.37-.54-2.58.25-3.86.47,1.22-1.78-2.69-4.46,1-5.8.73-.13,1.91,0,2.11-.42.56-1.1-.26-1.95-1.15-2.62,0-.21,0-.43,0-.64l2-.32c1.11,1.9,2.32,2.74,4.24.79,1.11-1.12,2.33-.21,3,.62,1.1,1.4-.3,2-1.27,2.56C149.16,262.63,146.37,263.52,145.53,266.67Z"/><path class="cls-12" d="M75.73,322.16c-2.06-1.89-5.08-3.31.24-5.49,2.68-1.09-.81-3.54-1.09-5.47,1.56-1.22,1.23-2.9.76-4.38-1-3.28,1.19-2.48,2.86-2.47C79.51,310.59,79.38,316.65,75.73,322.16Z"/><path class="cls-13" d="M86.86,345.1l4.33-1c-.38,1.53.28,2.87.68,4.29.34,1.18,2.08,2.87-.43,3.47-1.74.42-3.65.24-3.84-2.41A43.72,43.72,0,0,0,86.86,345.1Z"/><path class="cls-2" d="M127.72,294.25c-2.64-.82-5.56-.87-7.77-2.92-.8-.74-1.43-2.29-.64-2.27a31.78,31.78,0,0,1,7.53,1.43c2.32.64.76,2.45.89,3.75Z"/><path class="cls-4" d="M103.8,285.27c-2.29,0-3.38,1.89-4.7,3.27s-2.63,1.85-4.3.72c1.52-1.69,3-3.39,4.56-5.05C101.43,282,103,282.2,103.8,285.27Z"/><path class="cls-12" d="M145.67,257.34l-2,.32c-1-4.25,1.06-6,5-6.3a2,2,0,0,0,1.23,2.25Z"/><path class="cls-2" d="M66.1,333.22c0-.68,0-1.36,0-2,.77,0,1.63.2,1.87-.9l1.92-.25c0,.16,0,.33.07.48.35,2,2.24,4.59.26,5.81C68,337.69,68.05,333.62,66.1,333.22Z"/><path class="cls-13" d="M77.86,346.13c-.3,2.72.4,5.31,1,7.92C73.82,352.8,73.59,350.94,77.86,346.13Z"/><path class="cls-7" d="M83.84,365l-2,1c-1.12-1.63-.88-3.09.77-4.13,1.13-.72,2.61-2.48,3.7-1.14,1.56,1.93-1.22,1.94-2,2.89A4.59,4.59,0,0,0,83.84,365Z"/><path class="cls-11" d="M149.9,253.61a2,2,0,0,1-1.23-2.25L155.3,249c-.25,2.71-2.89,2.62-3.7,4.21Z"/><path class="cls-2" d="M129.92,259.19c1.11-4,2.75-4.81,6.21-4.26Z"/><path class="cls-4" d="M87.73,360.27c2.16-1.69,3.71-1,5.75-1.1C91.76,361.68,90.12,361.16,87.73,360.27Z"/><path class="cls-5" d="M143.65,258.3c.89.67,1.71,1.52,1.15,2.62-.2.39-1.38.29-2.11.42C144.46,260.79,137.39,257.44,143.65,258.3Z"/><path class="cls-2" d="M116.74,257.52c.88-.45,1-1.28,1.06-2.14a2.56,2.56,0,0,1,.93,2.56c-.06.74.12,1.91-1,1.84C116.45,259.7,116.91,258.37,116.74,257.52Z"/><path class="cls-12" d="M70,373.93c1.87.24,3,1.12,2.76,3.19C70.91,376.89,70.44,375.43,70,373.93Z"/><path class="cls-2" d="M131.09,259.74c.72-.09,1.24.1,1.13.66-.06.32-.61.64-1,.78-.21.07-.55-.25-.83-.39Z"/><path class="cls-2" d="M110.76,338.11c0-.65,0-1.31,0-2,.74.12,1.73.08,1.51,1.18C112.19,337.68,111.29,337.86,110.76,338.11Z"/><path class="cls-2" d="M140.71,254.33c.25.36.5.72.73,1.1l-.36.26-.42-1.3Z"/><path class="cls-2" d="M140.66,254.39l-.41-.26.46.2Z"/><path class="cls-2" d="M119.68,268.87l-1.5-.35Z"/><path class="cls-7" d="M80.93,366.78,80,366Z"/><path class="cls-13" d="M86.85,277.35c.42-.36.85-.71,1.28-1.06C87.7,276.64,87.27,277,86.85,277.35Z"/><path class="cls-13" d="M85.86,278.33l1-1C86.79,277.88,86.54,278.32,85.86,278.33Z"/><path class="cls-13" d="M84.9,279.33l1-1C85.9,279,85.78,279.53,84.9,279.33Z"/><path class="cls-7" d="M280.28,305.23c3.66.57,7.41-2.94,11,.23-.3,1.62,1.11,5.46-2.94,2.09-2.05-1.71-3,.72-4.23,1.7-.78.11-1.86.2-1.26,1.31.39.74,1.07.16,1.45-.42,1.55,1,.69,2.68,1,4-1.5-.53-2.08,2.53-3.84,1-1.2-.37-2.86,0-3-2,2.37-.58,2.33-1.67.64-3.1l.09-2.53A2.7,2.7,0,0,1,280.28,305.23Z"/><path class="cls-2" d="M269.27,293.42c-6.84,4.55-13.73,5.41-20.32,7.19C254.62,296,260.69,292.6,269.27,293.42Z"/><path class="cls-7" d="M273.22,310.21c-2.83.38-7.25-1.7-6.59,4.3,0,.25-3.29,1.62-4.38,1.09-2-1,.39-2.87.09-4.41h0c1.91-6,6.39-3.12,10.08-2.95Z"/><path class="cls-13" d="M284.13,309.25c1.26-1,2.18-3.41,4.23-1.7,4.05,3.37,2.64-.47,2.94-2.09l1.71-.07c.11.86.22,1.72.32,2.57-1.93.88-.27,2.68-1,3.87-1.95,1.95-4.58,1.87-7,2.33-.3-1.34.56-3-1-4C284.26,309.84,284.19,309.55,284.13,309.25Z"/><path class="cls-8" d="M303.74,333.64c3.49-1.24,3.14,1.93,3.91,3.57.56,1.23,1.71,2.74.48,4.07s-2.69.81-4-.22c-.87-2.59-3.18-5-.92-8l-.07.05A.46.46,0,0,0,303.74,333.64Z"/><path class="cls-8" d="M292.33,311.83c.73-1.19-.93-3,1-3.87l2-.2c3,.4,6.45-.11,8.17,3.43-1,1.65-3,1.63-3.59.44-1.26-2.42-1.61-3.12-2,.21,0,.1-.77.22-.78.2C295.69,307.71,293.87,312.67,292.33,311.83Z"/><path class="cls-7" d="M262.34,311.19c-2.75-.07-5.49-.14-8.95,1.71,4.74-7,5.92-7.1,8.94-1.7Z"/><path class="cls-5" d="M280.27,279.3c.85-3.56,2.93-1.53,4.33-.74,1.77,1,3.5,2.32,3.66,4.71-2.62-.32-4.64-2-7-3l-1-1Z"/><path class="cls-9" d="M303.25,333.09c-2.26,3,.05,5.38.92,8L302.25,343c1-2.07-.75-3.39-1.55-4.78C298.8,335,299.15,333.2,303.25,333.09Z"/><path class="cls-2" d="M265.21,290.71a22,22,0,0,1-11.35,2.11C258,290.08,261.59,290.1,265.21,290.71Z"/><path class="cls-11" d="M273.22,310.21l-.81-2,1.87-.24c1.21.35,2.07-.47,3-.94l1.87.47-.09,2.53-1.74,1.06c-.24-.72-.58-.92-1.09-.21Z"/><path class="cls-8" d="M278.44,313.17c.17,2,1.83,1.61,3,2-.68,1.52-2.1,2.52-3.45,1.81a3.86,3.86,0,0,1-1.74-4.94l1-.16Z"/><path class="cls-7" d="M277.3,307.07c-.95.47-1.81,1.29-3,.94,0-1.82,0-3.62,1.46-5.09C278,303.71,277,305.63,277.3,307.07Z"/><path class="cls-12" d="M325.38,336.32c-.1-.76-.48-1.76.63-2s1.13.83,1.25,1.61Z"/><path class="cls-7" d="M277.32,311.86l-1,.16,0-1.1c.51-.71.85-.51,1.08.21A1.39,1.39,0,0,1,277.32,311.86Z"/><path class="cls-9" d="M303.74,333.64a.46.46,0,0,1-.56-.5c.06-.63.43-.83,1-.74C304,332.81,303.89,333.23,303.74,333.64Z"/><path class="cls-2" d="M280.28,279.29l1,1Z"/><path class="cls-7" d="M195.82,249.41c-.33-1.88.07-4.68-3.29-2.17-1.1.82-2.62,2.34-4,.08,1.88-2.51,4.38-4.49,6.66-7.19q.67,4.62,1.37,9.24Z"/><path class="cls-8" d="M182.52,250.57c-.09,1.89-1.38,2.87-2.82,3.74-1.67-.26-2.45.87-3.22,2l-2.77,1c-.69-3.46,1.81-4.56,4.25-5.55A36.94,36.94,0,0,1,182.52,250.57Z"/><path class="cls-11" d="M152.71,277.62c.28-1.13.57-2.25.85-3.37a9.34,9.34,0,0,1,5.93-2.43C159.11,276.14,155.84,276.8,152.71,277.62Z"/><path class="cls-4" d="M215.47,231.42c.14-1,.39-2,1.7-1.76.31.05.83.71.76.9-.45,1.17-1.57.74-2.46.87Z"/><path class="cls-7" d="M198.57,247.38c-.22,1,.4,2.14-.46,3-.22-.35-.43-.71-.64-1.07C197.53,248.53,197.67,247.74,198.57,247.38Z"/><path class="cls-2" d="M147,268.89l-1.11,1.39c-.05-1-.09-2-.14-2.95l1.56.18C147.18,268,147.08,268.43,147,268.89Z"/><path class="cls-4" d="M265.51,262.21a100.91,100.91,0,0,0-17.16,13.66l5.93,4.09c-3.48,2-6.75,4.47-10.41,6-5.14,2.1-7.72,5.87-9.55,10.81-1.54,4.12-3.15,8.32-6.44,11.55-1.39,1.35-3.13,2.73-4.77,1.65s-2.31-2.64-2.22-5.26c.33-9.57,4.06-17.23,10.48-24.11,2.08-2.24,2.93-5.67,4.17-8.63.62-1.48,1.07-3.12,3-1.81,3.92,2.64,6.69,0,9.66-1.83C253.29,265.08,258.62,262.57,265.51,262.21Zm-18.38,9.84c-2.69.55-4.57,4.78-8.14,1.7-.52-.45-1.36.72-1.57,1.47-1.36,4.89-5,8.27-7.95,12.11a5.59,5.59,0,0,0-2.21,3.83c-2.78,2-.77,5.1-1.6,7.6s-3.2,6.36-.49,7.41c2.53,1,3.92-3.39,4.72-5.88,2.94-9.11,8.06-16,17.48-19.14.26-.08.45-.38,1.07-.93-5.66-2.29-3-4.79-.35-7.29l1-1.37A1.31,1.31,0,0,0,247.13,272.05Z"/><path class="cls-14" d="M219.34,303.93c-1.29,3.15-2.71,6.64-4.16,10.11a1.19,1.19,0,0,1-1.59.76,1.29,1.29,0,0,1-.83-1.6c1.3-4.87,3.11-9.62,3.06-14.8,0-.83,1.11-1.09,2-1,1.06.13,1.45.81,1.06,1.73C218.2,300.68,218.92,302.05,219.34,303.93Z"/><path class="cls-9" d="M243.31,387.89c2.79-1.54,5.11-1.06,7.57,1.06,3.41,3,7.18,5.5,11.62,8.83-6,.56-10-1.9-14.14-4C249,389.81,244.8,390,243.31,387.89Z"/><path class="cls-10" d="M243.31,387.89c1.49,2.12,5.66,1.92,5.05,5.85-4.36-1.55-10-.56-12.34-6.33Z"/><path class="cls-2" d="M255.35,372c1.58,1.05,4.6.74,3.82,4C256.36,376.17,255.15,374.76,255.35,372Z"/><path class="cls-3" d="M206.49,370c-.23,2.39,1,3.89,3,5,1.58.87,2.93,2,3,4-.34,3.69.84,7.52-1,11.06-1.94-.12-2.46-1.77-3.52-3-2.65-3.07-3.18-7.44-6.43-10.09-.25-1.52-.61-3.19-2.65-2.39-1.68.65-1,2.08-.4,3.29,1.61,3.07,2.16,6.74,5,9.1,1.16,2.84,4.44,3.53,6,6,0,2.49,2.2,3.51,3.55,5.08,1,1.18,2,2.36.74,3.87s-2.22.33-3.35-.33c-4.29-2.53-9.28-3-13.89-4.62l-2-2c-.68-5.34,1.5-10.92-1.37-16.07-.15-.27-.3-.72-.17-.93,1.13-1.94,3.5-5.13,1.92-5.93-2.94-1.49-5.7-4-9.34-4-1.38-.57-2.26-2.14-4-2-1.43-2.63-2.75-5.37-6.14-6l.78-4.1c10,4.24,21.36,5.07,30.21,12.18Z"/><path class="cls-8" d="M152.05,349.16c2.94-.22,5.66,1.62,8.65.89,1.8,2.07,1.64,4.79,2.43,7.2,1.13,3.48,1.75.17,2.58-.16,3.26.32,4.9,3.94,8.26,4.05-3.11,7.46-9.44,10.32-17,7.95-1.85-.58-1.55-1.95-1.88-3A82.73,82.73,0,0,1,152.05,349.16Z"/><path class="cls-4" d="M191.54,402c-3.94-.94-7.78-2.48-12-2,.25-4.36-4.45-6.35-5-10.36,1.25-.58,3.68,1.79,3.82-1.54l1.71.17c-.07,1.48.6,2.26,2.13,2.21a15.18,15.18,0,0,0,5.45,5.66C189.85,397.46,191.87,399,191.54,402Z"/><path class="cls-4" d="M184.37,382.63c.19-.95.14-2.27,1.45-2.21a3.35,3.35,0,0,1,3.21,2.71c.62,3.32.94,6.69,1.43,10.4-3.45,0-4.52-4.48-7.89-3.56.12-2.38-.78-5.15,2.77-6.11C185.83,383.73,184.81,383,184.37,382.63Z"/><path class="cls-12" d="M176.22,355.91l-.78,4.1a1.5,1.5,0,0,0-.71.21c-1.4-3.32-4.75-4.52-7.24-6.64.15-1.22-.28-2.6,1-3.5,3.14.36,4.86,3.61,8,3.93C176.4,354.64,176.31,355.28,176.22,355.91Z"/><path class="cls-4" d="M181.58,366c1.73-.13,2.61,1.44,4,2,0,2.93.2,5.9-2.26,8.52C184.19,372.7,178.06,370.37,181.58,366Z"/><path class="cls-8" d="M184.37,382.63c.44.37,1.46,1.1,1,1.23-3.55,1-2.65,3.73-2.77,6.11a.32.32,0,0,0-.28.44c-1.53,0-2.2-.73-2.13-2.21.66-2.21,1.07-4.34-2.49-5.42C180.55,381.25,182.45,382.55,184.37,382.63Z"/><path class="cls-8" d="M178.45,388c-.14,3.33-2.57,1-3.82,1.54-5.17-2.63-.07-5.58-.89-8.88C177.58,382.36,172.12,388.72,178.45,388Z"/><path class="cls-4" d="M194.53,395l2,2c0,2.71,1.47,5.23,1,8h-2c.26-2-1-3.18-2-4.66C192.32,398.42,191.21,396.14,194.53,395Z"/><path class="cls-11" d="M167.49,353.58c2.49,2.12,5.84,3.32,7.24,6.64l-.76.92c-3.36-.11-5-3.73-8.26-4.05C166.31,355.92,166.9,354.75,167.49,353.58Z"/><path class="cls-8" d="M171.14,380.28c1,3.18.5,5.63-1.48,7.16-1.58,1.23-3.75,1.13-5.57-1.61C169.33,387.69,168.82,382.75,171.14,380.28Z"/><path class="cls-4" d="M201.51,377c3.25,2.65,3.78,7,6.43,10.09,1.06,1.22,1.58,2.87,3.52,3,0,1.42.06,2.84-2,2.88-1.56-2.43-4.84-3.12-6-6C204,383.41,201.4,380.46,201.51,377Z"/><path class="cls-4" d="M197.53,404.92c.24.36.49.71.73,1.06l-.37.25c-.13-.44-.25-.87-.37-1.3Z"/><path class="cls-13" d="M80.7,390.52l0-.35,15-.15c-.09,2.05,3.55,3.43,1.07,5.91l-.93.21c-2.31-.47-4.87.19-6.85-1.81-1-1-1.84.06-2.85.48-2.39,1-5.63,2.71-4.56-2.66C81.68,391.69,81,391.07,80.7,390.52Zm10.49,2.13c0,.13-.15.26-.13.37.08.46.26.47.43.05a.55.55,0,0,0-.06-.39S91.27,392.66,91.19,392.65Z"/><path class="cls-13" d="M83.38,377l-.1-.17a3,3,0,0,1,2.63-2c.69,1.12,1.48-.83,2.18.06.08.44.16.87.25,1.31l.43-1.26c1.88,0,4.24-.8,4.19,2.51,0,2.81-1.88,2.61-3.79,2.35C86.94,379.54,82.87,383,83.38,377Z"/><path class="cls-13" d="M81.7,386.41v.07c.84-2.53,2.36-4,5.24-4.09,1.14,0,2.23-.64,3.08.58.67.95.25,1.89-.1,2.81-.52,1.4-1.48,2.29-3,1.74C85.21,386.9,83.25,387.65,81.7,386.41Z"/><path class="cls-5" d="M96.78,395.93c2.48-2.48-1.16-3.86-1.07-5.91,2.86-.42,3.76,1.42,4,3.71S98.33,396,96.78,395.93Z"/><path class="cls-4" d="M88.77,375l-.43,1.26c-.09-.44-.17-.87-.25-1.31A3.82,3.82,0,0,1,88.77,375Z"/><path class="cls-13" d="M315.29,327.92l-11.76,2.5c3.44-3.5,7.2-2.81,10.06-4.29C314.88,326,315.1,327,315.29,327.92Z"/><path class="cls-7" d="M295.3,307.76l-2,.2c-.1-.85-.21-1.71-.32-2.57C294.89,305.11,295.31,306.23,295.3,307.76Z"/><path class="cls-4" d="M342.1,365.94c-8.31,5.5-9.32,5.27-15.71-3.65,4.36-1.48,8.43,1.48,12.8.9A2.83,2.83,0,0,1,342.1,365.94Z"/><path class="cls-8" d="M335.17,357.09l2.89.16c1.51,1.17,1.94.19,2.23-1.11a1.71,1.71,0,0,1,2.69,0,4.26,4.26,0,0,0,2,3c.13.61.45,1,1.12.93-3.51-1.36-7.26.41-10.81-.88C333.25,358.4,335.12,357.77,335.17,357.09Z"/><path class="cls-4" d="M351.06,356.07c-.07.66.23,1.52-.88,1.61C350.47,357.14,350.76,356.6,351.06,356.07Z"/><path class="cls-4" d="M346.1,360c-.67.05-1-.32-1.12-.93Z"/><path class="cls-11" d="M355,361.08l.94.78C355.47,361.78,354.7,362.06,355,361.08Z"/><path class="cls-9" d="M311.73,331.66c2.62-1.93,5.61-1.44,8.65-1.44-1.61.57-.72,4.15-2.95,3A16.36,16.36,0,0,0,311.73,331.66Z"/><path class="cls-12" d="M60.27,299.05c1.38.18,2.49,0,2.58-1.76l3.09-3.2c.84-.25,1.73-.79,2.38.35-.19,2.2-.39,4.41-.59,6.61a4.36,4.36,0,0,1-3.62,1.28c-1.67-2.37-3-.17-4.35.68C58.85,301.28,60.32,300.3,60.27,299.05Z"/><path class="cls-12" d="M74,309c-2.51,1.56-.19,3.8-.68,5.62-1.46.39-1.35-1.26-2.24-1.53l-.25-1c2-2.51-.5-6.6,3-8.61C73.87,305.31,73.93,307.14,74,309Z"/><path class="cls-4" d="M318.9,357.14c-2-1.61-2.74-3.72-.48-5.3,2.87-2,5.09.19,7.12,2.07C324.7,357.81,321.41,356.67,318.9,357.14Z"/><path class="cls-4" d="M316,357.58,318.4,360C316.91,359.87,314.74,360.45,316,357.58Z"/><path class="cls-4" d="M340.29,356.14c-.29,1.3-.72,2.28-2.23,1.11A2,2,0,0,1,340.29,356.14Z"/><path class="cls-11" d="M67.93,330.29c-.24,1.1-1.1.91-1.87.9-.76-.18-1.76-.1-1.74-1.25a1.74,1.74,0,0,1,1.54-1.64C67.4,328,67.85,329,67.93,330.29Z"/><path class="cls-13" d="M68.32,294.44c-.65-1.14-1.54-.6-2.38-.35a4.23,4.23,0,0,1,3.29-4.77C68.93,291,68.63,292.73,68.32,294.44Z"/><path class="cls-11" d="M207.63,323.29c.54.32,1.47.55,1.58,1,1.13,4.63,2.14,9.3,3.19,14-2.68-3.89-7.39-6.88-5.73-12.71A17.3,17.3,0,0,1,207.63,323.29Z"/><path class="cls-5" d="M167.49,353.58c-.59,1.17-1.18,2.34-1.78,3.51-.83.33-1.45,3.64-2.58.16-.79-2.41-.63-5.13-2.43-7.2,0-2.42-2-4.44-1.38-7,2.12-1.51,4.38-2.88,6.34-4.58s3.56-3.69,5.38-5.61c1.4,6.18.19,11.81-2.56,17.22C167.21,351,167.64,352.36,167.49,353.58Z"/><path class="cls-5" d="M223.59,251.64l-3.83-.23c-.14-.66-.29-1.33-.43-2,3.8-.33,4.08-3.6,5.18-6.18C227.65,246.42,225.54,249,223.59,251.64Z"/><path class="cls-5" d="M217.58,247.39a2.11,2.11,0,0,1-1.18-2c.37-2.16,1.26-3.41,3.69-2.23.82.4,1.89.25,1.6,1.84C221.22,247.59,219.39,247.38,217.58,247.39Z"/><path class="cls-2" d="M186.7,259.18c0-.53,0-1.06,0-1.59.79,0,2-.37,2.11.57C189,259.71,187.6,259.2,186.7,259.18Z"/><path class="cls-7" d="M195.21,251.1l.7.37c-.47.68-.53-.22-.84-.21Z"/><path class="cls-10" d="M126.75,272.17c.37.37.75.73,1.13,1.09,1.8,2.51-.34,3.16-1.94,4a7.85,7.85,0,0,1-5,1c-.54-1.27.48-2,1.07-2.8l1.7-.16c3.45.37.63-2,1.25-2.86Z"/><path class="cls-7" d="M107.88,279.19c-.69-1.14-1.48-2.46-.69-3.61.36-.53,1.43,1.34,2.56.58l4.08.43C112.58,279.76,110.56,280.23,107.88,279.19Z"/><path class="cls-15" d="M122,275.48c-.59.84-1.61,1.53-1.07,2.8-1.9,0-2.88-2.53-5-1.89l-.15-.12.15-1.08Z"/><path class="cls-9" d="M137.59,276.21l.18-3.45c1.58-.73,2.71-.52,3,1.43-3.36-1-1.59,1.95-2.29,3Z"/><path class="cls-14" d="M138.5,277.19c.7-1.05-1.07-4,2.29-3l0,.07c-.13.46-.25.93-.37,1.39-.91.66-.56,1.7-.77,2.57Z"/><path class="cls-10" d="M140.39,275.65c.12-.46.24-.93.37-1.39,1.58,1.38,1.51,2.72-.08,4Z"/><path class="cls-15" d="M140.39,275.65l.29,2.65-1.06-.08C139.83,277.35,139.48,276.31,140.39,275.65Z"/><path class="cls-15" d="M115.86,276.39l-.48,1.28c-.12-.1-.37-.26-.35-.28.21-.38.45-.75.68-1.12Z"/><path class="cls-9" d="M176.48,256.33c.77-1.15,1.55-2.28,3.22-2,1.07.89-2.11,4.53,2.18,3.39a3.06,3.06,0,0,1,.52,1.11,36.29,36.29,0,0,1-3.22,2.1c-1,.56-1.49.09-1.74-.84C177.11,258.83,176.8,257.58,176.48,256.33Z"/><path class="cls-7" d="M163.9,268.54c1.95-3-4.51-5.25.92-7.62,1.54-.67,3.21-1.5,4.11.77C170.34,265.24,168.13,266.82,163.9,268.54Z"/><path class="cls-4" d="M206.49,370l-.06-1.94c0-3.82-4.49-5.19-5-10.19,3.49,3.05,9,1,9.88,6.39C211.79,367.24,210,369.71,206.49,370Z"/><path class="cls-5" d="M93.8,321.25c6.06.56,8.37,4.51,5.23,9-.46.66-1.11,1.51-1.77,1.61-1.31.22-1.26-1.18-1.69-2a18.46,18.46,0,0,1-1.78-6.63C93.79,322.58,93.8,321.92,93.8,321.25Z"/><path class="cls-15" d="M124.92,272.46c-.62.86,2.2,3.23-1.25,2.86-1.43-1.88-3.68-1.17-6.12-1.44C120,270.58,122.65,272.75,124.92,272.46Z"/><path class="cls-4" d="M277.32,311.86a1.39,1.39,0,0,0,0-.73l1.75-1.06c1.69,1.43,1.73,2.52-.64,3.1Z"/><path class="cls-4" d="M284.13,309.25c.06.3.13.59.19.89-.38.58-1.06,1.16-1.45.42C282.27,309.45,283.35,309.36,284.13,309.25Z"/><path class="cls-8" d="M229.47,287.33c2.95-3.84,6.59-7.22,7.95-12.11.21-.75,1.05-1.92,1.57-1.47,3.57,3.08,5.45-1.15,8.14-1.7l1,.88c-2.61,2.5-5.31,5,.35,7.29-.62.55-.81.85-1.07.93-9.42,3.11-14.54,10-17.48,19.14-.8,2.49-2.19,6.87-4.72,5.88-2.71-1.05-.34-4.92.49-7.41s-1.18-5.56,1.6-7.6c1.28-.06,2.73.25,3.56-1.1C231.78,288.51,229.79,288.31,229.47,287.33Zm.28,6.07c.29-.9-.22-1-.7-1.07a2.71,2.71,0,0,0-.89.25c.16.37.23,1,.5,1.07S229.45,293.48,229.75,293.4Z"/><path class="cls-11" d="M229.47,287.33c.32,1,2.31,1.18,1.35,2.73-.83,1.35-2.28,1-3.56,1.1A5.59,5.59,0,0,1,229.47,287.33Z"/><path class="cls-8" d="M247.13,272.05a1.31,1.31,0,0,1,2-.49l-1,1.37Z"/><path class="cls-2" d="M201.51,377c-.11,3.49,2.48,6.44,2,10-2.89-2.36-3.44-6-5-9.1-.63-1.21-1.28-2.64.4-3.29C200.9,373.78,201.26,375.45,201.51,377Z"/><path class="cls-5" d="M91.19,392.65c.08,0,.23,0,.24,0a.55.55,0,0,1,.06.39c-.17.42-.35.41-.43-.05C91,392.91,91.14,392.78,91.19,392.65Z"/><path class="cls-11" d="M229.75,293.4c-.3.08-.78.37-1.09.25s-.34-.7-.5-1.07a2.71,2.71,0,0,1,.89-.25C229.53,292.37,230,292.5,229.75,293.4Z"/><path class="cls-16" d="M194.21,220.25c0,3.43-3.92,5.06-3.89,8.5v-.12l-1.07,1.54c-4.32,2.59-8.07,6.29-13.43,6.85,0-.43-.11-.86-.17-1.28,1.77-1.41,3.56-2.8,4.31-5.07l-.05,0h1.29C185.77,227.52,188.41,221.93,194.21,220.25Z"/><path class="cls-17" d="M175.65,235.74c.06.42.12.85.17,1.28-2.68,4.87-7.51,6.46-12.33,8.07C165.74,239.62,171,238.13,175.65,235.74Z"/><path class="cls-18" d="M194.21,220.25c-5.8,1.68-8.44,7.27-13,10.47-.43-.49-.85-1.4-1.29,0l.05,0c-5.23.49-9.37,4.21-14.54,4.88-2.3-1.59-4.9-.44-7.33-.78-1.82-.25-4.21,1-5.12-1.82,2.22-1.8,4.86-1,7.34-1.19,2.53,1.63,2.13-1.3,3.15-2l2.06,0c3.94,1.21,7.35.74,10.64-2.15,2.11-1.84,5.1-2.63,7.47-4.23,1.85-1.25,4.34-2.15,4.58-5l0,0c2.5-.1,3.56-2.24,5.13-3.64,1.92-1.72,2.94-4.59,6.12-4.62C199.07,214.14,195.66,216.69,194.21,220.25Z"/><path class="cls-17" d="M153,233c.91,2.82,3.3,1.57,5.12,1.82,2.43.34,5-.81,7.33.78-3.63,2.75-7.83,3.39-12.24,3.29-.4-2.21-1.49-3.18-3.9-2.68-2.57.54-5,.17-6.45-2.47,1.83-1.2,6,4.35,6-2.08l0,0,2.12.14Z"/><path class="cls-17" d="M144.2,221.74c-1.18,2.17-4.46,3.58-2.5,6.88,0,1.34.07,2.68.11,4-3.56-.31-5.05-4.45-8.74-4.74-.55,0-1.86-2.33-.16-3.24C136.4,222.78,139.74,220,144.2,221.74Z"/><path class="cls-18" d="M141.81,232.64c0-1.34-.07-2.68-.11-4,2.89-.23,4,3.87,7.14,3,0,6.43-4.18.88-6,2.08Z"/><path class="cls-17" d="M154.1,215.9a4.65,4.65,0,0,1,5.26-.33c1.79,1.28-1.69,2.2-.94,3.79A3.24,3.24,0,0,1,155,220C155.41,218.46,154.63,217.21,154.1,215.9Z"/><path class="cls-17" d="M139.74,209.06l7.27.16c-2.26,1.54-4.81.62-7.23.87C139.77,209.74,139.75,209.4,139.74,209.06Z"/><path class="cls-17" d="M140.69,214.16c1.18-.08,2.37-.2,3.1,1.05C142.08,216.86,141.1,216.34,140.69,214.16Z"/><path class="cls-17" d="M139.72,210.12c0,1,0,2,0,3-.56-.27-1.52-.45-1.62-.84C137.77,211,138.66,210.43,139.72,210.12Z"/><path class="cls-17" d="M153.09,220.3l-2.08.08C151.67,219.37,152.36,219.34,153.09,220.3Z"/><path class="cls-17" d="M148.12,215.94a1.15,1.15,0,0,1,.61,0l-.3.69Z"/><path class="cls-16" d="M165.52,229.69c5.07-2.71,10.07-5.57,15.24-8.06,2.43-1.17,4-4.49,7.45-3.3-.24,2.83-2.73,3.73-4.58,5-2.37,1.6-5.36,2.39-7.47,4.23C172.87,230.43,169.46,230.9,165.52,229.69Z"/><path class="cls-16" d="M160.31,231.76c.08-2.18,1.57-2.18,3.15-2C162.44,230.46,162.84,233.39,160.31,231.76Z"/><path class="cls-18" d="M148.86,231.59c.31-.51.55-1.39.93-1.45,1.11-.18,1.12.8,1.19,1.59Z"/><path class="cls-19" d="M168.39,223c-.19.33-.32,1-.68,1.15a103.15,103.15,0,0,1-10.45,5.26c-2.42.94-4.42-.58-5-3.05-.68-2.81,1.56-3.62,3.64-3.78,3.22-.23,6.43-.2,9.6-1C166.57,221.21,168,221.2,168.39,223Z"/><path class="cls-20" d="M181.45,60.07c13.08,8.6,23.25,19.72,29.51,34.2-.07,2.45-.3,5,2.41,6.34.23,1,.47,2,.71,3-1.62,1.38-.69,1.83.77,2.09l.11,3.13c-2,2.77-1.74,5.72-.25,8.61-1.87.59-2.45-1-3.58-1.17s-2.64.45-1.69,1.38c2.09,2,.24,5.77,3.95,7.17,2.46.94,2,9-.47,11.67-3.57,3.87-2.22-3.18-5.19-1.92,1.21,3.71-.06,8.23,4.08,11.09l-3,1.35c-.13-.8-.14-2-1.32-1.5-.85.35-.27,1.09.35,1.49,0,.34,0,.68,0,1a8.36,8.36,0,0,1-5,1c-.16-1-.42-1.9-1.56-2.2-.19-1.68-.39-3.36-.58-5,1.44-1.1.62-1.68-.51-2.19l-1.79-4.88c1-4.11-2-6.53-4-9.33.14-.85.26-1.71,1.13-2.18.43,2.95,2.81,2.11,4.77,2.92-.23-2.82-1.71-3.66-3.7-4-.26-2.64-2.38-4-4.14-5.4-1.5-1.22-2,.1-2.12,1.41l-2.25.17-3.1-3.18c-.73-2-1.82-3.4-4.25-2.77l-3.82-1.53.06-1.15a1.83,1.83,0,0,0-2.2-1.92l-2.95-.2c-.47-4.15-3.17-4-6.2-3.24-2.91,0-5.22,1.94-7.95,2.67s-3.45-.42-4.31-2.27A1.78,1.78,0,0,0,151,106.7c-1.31,2-2.74.65-4.14.17-.19-1.54.58-4.48-1.67-4-4.81,1.13-6.38-2.31-9.64-4.89v8.83l-2,0c-2.4-2.06-5-1.23-7.57-.49s-4,.2-3.82-2.71c.07-.15.15-.31.23-.46l-.25.44c-1.46.12-3.44-.25-2.44,2.35a5.36,5.36,0,0,1-.66,4.81,3.22,3.22,0,0,1-.93.14c-3-.23-4.83,1-5.25,4.08-1.84.8-2.69,3-4.81,3.42l-1.37-.36c.42-5.34-4.61-1.17-6.29-3.4-.35-.46-.65,2.14-1,3.33s-.64,2.27-1,3.41c-2.64-1.3-3-3.66-3.41-6.31-1.07-6.23,2.38-11.79,2.18-17.84L99,94.43l.44-.87c.34-.75.69-1.49,1-2.24,2.63-.27,1.74-4.74,5-4.21,1.27,2.62-.56,5.92,2.15,8.87-.34-3.47,4.39-7.42-2.17-8.84,1.7-6.46,4.35-12.25,9.17-17.22,2.65-2.73,6.5-3.67,8.59-6.88l5.49-3c5.37-1.16,10.27-4.51,16.2-3.19,1.07.24,1.81-1.3,1.92-2.58l10.32-.08c2.24,1.82,5.37.28,7.67,2.16C169.77,60.32,176,58.53,181.45,60.07Zm23.25,51.87-.44-.24.44.24.43.24ZM118,96.44l-.45-.23.42.25A4.65,4.65,0,0,0,118.3,98c.74,1.11,1.4,2.49,3.1,2.1.27-.06.59-.87.53-1.28-.24-1.63-1.39-2.23-2.92-2.3Zm23.82-28.37c-3.26-.55-4.9-1.15-4.95-4.68,0-2.72-3.67-1.73-6-1.1-1.45.38-3.34,1.11-2.06,2.38s.21,6.48,4.67,3.54a1.78,1.78,0,0,1,2.65.66C138.05,71.7,139.41,69.57,141.81,68.07Zm61.61,45.47c-.95,3-1.59,5.2.41,6.85.9.74,2.93.07,3.15-.7C207.81,116.84,204.75,116.24,203.42,113.54Zm2,18.46c2.74-5.39,2.74-5.39.68-8.55C206.1,126.29,204.57,128.47,205.39,132Zm-.14,2.13-1.44.23a9.52,9.52,0,0,0,3.2,6.88C206.21,138,205.73,136.08,205.25,134.13Zm-40.5-60.3c-1.46,0-.23-2.28-2.13-2.18-1.34.07-1.32.15-1.17,1.61.12,1.06-.77,2.14,1,2.23A2.1,2.1,0,0,0,164.75,73.83ZM154,94.87c-.92,1.07-2.86,1.49-2.12,3.07a2.83,2.83,0,0,0,2.7.46C156.11,97.26,153.44,96.19,154,94.87Zm-3.61-26c-1.67-.26-3.12-1-4.13.93C147.85,70.66,148.94,69.77,150.35,68.89Zm-5.58,4c.95.67,1.93,1.18,2.62.14.07-.12-.25-.69-.32-.67C146.29,72.49,145.54,72.7,144.77,72.89Zm64.81,57c-.13.28-.41.63-.33.84s.53.26.81.39c.13-.29.41-.63.33-.84S209.86,130,209.58,129.89Z"/><path class="cls-21" d="M97.19,97.3c.2,6-3.25,11.61-2.18,17.84.45,2.65.77,5,3.41,6.31.28.58,1,1.38.79,1.71-2.67,4.94,1.33,9.26,1.21,14,0,1.67,1.29,1.77,2.59,1.63.07.73.14,1.46.22,2.2-4-.26-3.09,2.16-2.2,4.27,1.26,3,2.43,5.92.33,9l-.85,0c-.53-3.14-3.78-1.6-5.29-3.06,2.55-1.43,3.28-3.19,2.72-6.37-2-11.24-5.87-22.25-4.58-33.94C93.88,106.09,93.8,101.2,97.19,97.3Z"/><path class="cls-22" d="M211.81,145.71c-4.14-2.86-2.87-7.38-4.08-11.09,3-1.26,1.62,5.79,5.19,1.92,2.45-2.65,2.93-10.73.47-11.67-3.71-1.4-1.86-5.15-3.95-7.17-.95-.93.58-1.57,1.69-1.38s1.71,1.76,3.58,1.17c-1.49-2.89-1.74-5.84.25-8.61,3.06,9.7,2.76,19.68,2.55,29.66,0,1.16,0,2.33,0,3.49-.45,2.67-3.35,2.35-4.74,3.87a2.39,2.39,0,0,0-.73.23Z"/><path class="cls-23" d="M124.59,226.08a29.27,29.27,0,0,1-10.77-16.4c-1.51-5.62-3.37-11.16-4.7-16.82-.83-3.53-3.07-6.29-4.34-9.55,1.87.16,2-2.24,3.64-2.46-.86,5.51,2.72,9.55,4.69,14.12,4.34,10,7.07,20.73,12.17,30.46C125,225.64,124.81,225.86,124.59,226.08Z"/><path class="cls-24" d="M225.08,160.46a40.54,40.54,0,0,1-5.23,13.38c-1.26-.08-1.71-.85-1.71-2,.25-.37.5-.74.73-1.12a2.67,2.67,0,0,0-.36-.25l-.42,1.32c-4.38,1.55-8.77,3.1-12.35,6.23,1.2-2.55.17-5.85,2.38-8,2.44-2.37,1.7-4.4-.19-6.51a2.88,2.88,0,0,1,0-.88l4,1.92c.74,2.78-1,5.21-1.63,8.24,3.38-1.3,4.79-3.33,5-6.27.7.3.71,2.2,2.1.89,2.95-2.81,2.3-5.11-1-7.06l-.4-1.91a9.92,9.92,0,0,0,4.08-3.14c2.43.5,1.79-3.17,4-3l.15,1.81C223.25,156.43,221.78,158.77,225.08,160.46Z"/><path class="cls-25" d="M95.22,151.13c1.51,1.46,4.76-.08,5.29,3.06.14,3.3-2.89,7.51,2.65,9.27l-.31,1.41c-3.71,1.68-3.84,2.06-1.69,5.16.62-1.58-.28-3.62,1.58-4.63.21,2,.77,4.1.55,6.09-.37,3.22,2.62,6.26.35,9.49-2.36-4.32-4.83-8.58-7-13A20.84,20.84,0,0,1,95.22,151.13Z"/><path class="cls-21" d="M105.56,87.11c-3.3-.53-2.41,3.94-5,4.21,4.58-9.49,5.9-21.06,17-26.36,1.87-.9,3.58-2,5.74-1.92-2.09,3.21-5.94,4.15-8.59,6.88-4.82,5-7.47,10.76-9.17,17.22Z"/><path class="cls-26" d="M103.64,181c2.27-3.23-.72-6.27-.35-9.49.22-2-.34-4.06-.55-6.09a.41.41,0,0,0,.11-.53c.11-.47.21-.94.31-1.41.07-1.38.13-2.77.2-4.15l.45-6.21,1.78-.1c1.35,3.05.77,6.36,1.22,9.53-1.62,1.32-.66,2.75-.18,4.16l.13,3a3.88,3.88,0,0,0,.57,3.27l1.19,7a2.17,2.17,0,0,0-.1.88c-1.62.22-1.77,2.62-3.64,2.46Z"/><path class="cls-19" d="M218.14,171.84c0,1.15.45,1.92,1.71,2-1.07,3.63-2.06,7.31-6.09,8.92-3.11-.14-5.8,2.23-9,1.53,0-1.77,0-3.53,0-5.29l1-1h0c3.58-3.13,8-4.68,12.35-6.23Zm-2.24,3c-1.85,1.11-3.7,2.21-5.52,3.37,0,0,.42,1.12.69,1.14C213.78,179.49,214.84,177.22,215.9,174.81Z"/><path class="cls-25" d="M127.52,242l-.15-2.11c1.6-1.66.92-3.51.36-5.29-.81-2.57.59-3,2.65-2.92l0,0a49.93,49.93,0,0,1,1.09,11.51c-.07,3,1.31,4.78,4.41,5a7.28,7.28,0,0,1,2.79,5.22c-3.29-1.38-7.16-1.71-9.36-5.1l.08-.2C131,245.44,130,243.51,127.52,242Z"/><path class="cls-27" d="M181.45,60.07c-5.45-1.54-11.68.25-16.55-3.72-2.3-1.88-5.43-.34-7.67-2.16A29,29,0,0,1,181.45,60.07Z"/><path class="cls-28" d="M206.28,209.06c-1.57.37-1.37,1.92-1.94,2.95-2-7.83.75-15.16,2.35-22.61l.5-.06.5,0Z"/><path class="cls-27" d="M146.91,54.27c-.11,1.28-.85,2.82-1.92,2.58-5.93-1.32-10.83,2-16.2,3.19C133.81,54.91,140.29,54.36,146.91,54.27Z"/><path class="cls-23" d="M130.38,231.72c-2.06-.09-3.46.35-2.65,2.92.56,1.78,1.24,3.63-.36,5.29-2.31-4.33-1.3-9.34-2.78-13.85.22-.22.45-.44.69-.65C128.3,226.45,130.39,228.23,130.38,231.72Z"/><path class="cls-29" d="M212.75,145.9c1.39-1.52,4.29-1.2,4.74-3.87,3.27-1.43,5.86-1.27,6.69,2.91l-5.48,1.14Z"/><path class="cls-16" d="M207.69,189.37l-.5,0-.5.06-2.85-.14c-.55-1.81.82-3.28.91-5,3.21.7,5.9-1.67,9-1.53C211.53,184.77,208.27,185.84,207.69,189.37Z"/><path class="cls-17" d="M218.7,146.08l5.48-1.14,1.33,2c-.82,2.32.86,5.09-1.28,7.18l-.15-1.81c1.24-5.31-4.24-3.17-5.87-5.3Z"/><path class="cls-16" d="M224.23,154.16c2.14-2.09.46-4.86,1.28-7.18,1.05,1.2.86,2.72,1.06,4.13.05,2.84-1.67,5.44-1.09,8.34-.13.34-.26.68-.4,1C221.78,158.77,223.25,156.43,224.23,154.16Z"/><path class="cls-23" d="M127.52,242c2.51,1.47,3.47,3.4,1.84,6.11-.84-1.26-1.11-3.08-3.16-3.1A3.76,3.76,0,0,1,127.52,242Z"/><path class="cls-22" d="M213.37,100.61c-2.71-1.39-2.48-3.89-2.41-6.34C213.54,95.71,213,98.32,213.37,100.61Z"/><path class="cls-24" d="M225.48,159.45c-.58-2.9,1.14-5.5,1.09-8.34C228,154.12,226.88,156.81,225.48,159.45Z"/><path class="cls-22" d="M214.85,105.75c-1.46-.26-2.39-.71-.77-2.09A1.59,1.59,0,0,1,214.85,105.75Z"/><path class="cls-21" d="M99.48,93.56l-.44.87Z"/><path class="cls-22" d="M138.64,253.45a7.28,7.28,0,0,0-2.79-5.22c-.45-2.76-.89-5.51-1.34-8.26,1.1-1.58,1.7-3.39,4.55-2.25,4.5,1.79,9.37,1.31,14.12,1.12,4.41.1,8.61-.54,12.24-3.29,5.17-.67,9.31-4.39,14.54-4.88-.75,2.27-2.54,3.66-4.31,5.07-4.61,2.39-9.91,3.88-12.16,9.35-8,2-14.26,7.42-21.79,10.29C141.91,252.8,140.16,253.31,138.64,253.45Z"/><path class="cls-24" d="M203.84,189.26l2.85.14c-1.6,7.45-4.32,14.78-2.35,22.61-1.75,8-6.19,13.8-14,16.74,0-3.44,3.89-5.07,3.89-8.5,1.45-3.56,4.86-6.11,5.27-10.21a2.38,2.38,0,0,0,.08-.92,2.12,2.12,0,0,0,.87-2.07c.39-1.42.78-2.85,1.16-4.27,1.48-1,.91-2.58,1-4C204.47,195.83,203.78,192.49,203.84,189.26Z"/><path class="cls-24" d="M189.25,230.17l1.07-1.54C190.58,229.57,189.83,229.81,189.25,230.17Z"/><path class="cls-17" d="M108,118.47c2.12-.42,3-2.62,4.81-3.42,2.43-.48,4.36-1.61,5.25-4.08a3.6,3.6,0,0,0,.93-.13c4.06-1.1,7.91-3.53,12.4-2l-2.07,2.1c-1.44.11-3.19-1.2-4.2.9-1.76.1-3.66-.37-5.09,1.17-3.44,3-5.22,10.56-3.16,14.75.73,1.49,1.14,2.67.46,4.24-1.22,2.83-.08,5.2,1.73,7.36-1.21,2.29-3.21,1.51-4.84,1a11,11,0,0,0-5.45-.38l-1.61-.09c-.63-2.23-.21-4.43.22-6.63-1.34-3.67,1.19-7.26.21-10.92C111.3,121.38,107.83,119.73,108,118.47Z"/><path class="cls-16" d="M184.87,115.24l3.1,3.18c.19,1.44.39,2.87,2.41,2.62l.07.07c-.72,6.49,4.63,9.48,7.87,13.69l1.79,4.88a1.48,1.48,0,0,0,.51,2.19c.19,1.68.39,3.36.58,5a1.38,1.38,0,0,0,.46,2.19l.17,2c-.26.74-.53,1.48-.8,2.21-2.91-2.89-1.22-7.78-4.54-10.5-1.42-7.31-2.29-7.91-8.66-5.87a19.46,19.46,0,0,0-1.87.84c-2.11,0-3.22-1.38-4.12-3,2.12-2.22.28-6.6,4.54-7.89,1.17-.36-.74-6.49-1.92-6.13-3.24,1-4.13-.93-4.44-3.29-.39-2.89-2.4-2.35-4.21-2.43h0c-.79-1.86-2.35-2.18-4.13-2l-2,0,.36-2.25,6.8.24,3.83,1.52C181,115,182.87,115.21,184.87,115.24Z"/><path class="cls-17" d="M146.84,106.87c1.4.48,2.83,1.79,4.14-.17a1.9,1.9,0,0,0,2.27-1.87c.86,1.85,1.53,3,4.31,2.27s5-2.62,7.94-2.67l1,4.64c-2.54,1.76-5.93-1-8,1-2.65,2.58-5.09,1.49-7.69.67a6.84,6.84,0,0,0-3.91-.5c-1.78-.14-3.63-1-5.25.53l-8.12-.28-.09-1.83.06-1.77,2,0a2.45,2.45,0,0,0,3.59.59C141.65,104.77,144.27,106.8,146.84,106.87Z"/><path class="cls-22" d="M103,138.74c-1.3.14-2.63,0-2.59-1.63.12-4.69-3.88-9-1.21-14,.18-.33-.51-1.13-.79-1.71.32-1.14.65-2.27,1-3.41s.62-3.79,1-3.33c1.68,2.23,6.71-1.94,6.29,3.4-2.84.45-1.9,2.61-2,4.31.07,3.46-1.89,6.71-1,10.25a4.62,4.62,0,0,1,0,1c-1,.64-1.12,1.3,0,2Z"/><path class="cls-30" d="M141.81,68.07c-2.4,1.5-3.76,3.63-5.71.8a1.78,1.78,0,0,0-2.65-.66c-4.46,2.94-3.39-2.25-4.67-3.54s.61-2,2.06-2.38c2.35-.63,6-1.62,6,1.1C136.91,66.92,138.55,67.52,141.81,68.07Z"/><path class="cls-22" d="M146.84,106.87c-2.57-.07-5.19-2.1-7.72.58a2.45,2.45,0,0,1-3.59-.59V98c3.26,2.58,4.83,6,9.64,4.89C147.42,102.39,146.65,105.33,146.84,106.87Z"/><path class="cls-25" d="M201,153.34c.27-.73.54-1.47.8-2.21,1.84-.16,1.74,2.48,3.57,2.44,1.08-1.7,2.21-3.38,2.4-5.5,0-.34,0-.68,0-1h1l3-1.35.21.42c-.66,2.86-3.89,4.72-3.12,8.12l-.54,1.05c-1.63,1.53-2.05,3.58-2.74,5.61-.63,1.86-1.05-.59-1.75-.53l-.64-2.66c.18-.58.31-1.11-.61-.65a.64.64,0,0,0-.63.08Z"/><path class="cls-22" d="M133.51,106.89l-.06,1.77-2,.15c-4.49-1.5-8.34.93-12.4,2a5.38,5.38,0,0,0,.66-4.82c-1-2.6,1-2.23,2.44-2.35l0,0c-.16,2.91,1.31,3.45,3.82,2.71S131.11,104.83,133.51,106.89Z"/><path class="cls-17" d="M198.32,134.8c-3.24-4.21-8.59-7.2-7.87-13.69,2.48.39,1.56,3.79,3.83,4.36C196.36,128.27,199.29,130.69,198.32,134.8Z"/><path class="cls-22" d="M194.28,125.47c-2.27-.57-1.35-4-3.83-4.36l-.07-.07c0-.93-.11-1.86-.16-2.79.16-1.31.62-2.63,2.12-1.41,1.76,1.44,3.88,2.76,4.14,5.4l-1.07,1.05C194.54,123.76,194.42,124.62,194.28,125.47Z"/><path class="cls-22" d="M166.52,109.07l-1-4.64c3-.76,5.74-.91,6.21,3.24-1.13.34-2.57,0-3.21,1.44Z"/><path class="cls-22" d="M203.42,113.54c1.33,2.7,4.39,3.3,3.56,6.15-.22.77-2.25,1.44-3.15.7C201.83,118.74,202.47,116.59,203.42,113.54Z"/><path class="cls-17" d="M168.5,109.11c.64-1.46,2.08-1.1,3.21-1.44l2.95.2a1.84,1.84,0,0,0,2.2,1.92l-.06,1.15-6.8-.24C169.31,110.34,168.55,110.06,168.5,109.11Z"/><path class="cls-25" d="M105.54,87.14c6.56,1.42,1.83,5.37,2.17,8.84-2.71-3-.88-6.25-2.15-8.87Z"/><path class="cls-30" d="M207.8,148.07c-.19,2.12-1.32,3.8-2.4,5.5-1.83,0-1.73-2.6-3.57-2.44-.05-.68-.11-1.35-.17-2h1.1A8.36,8.36,0,0,0,207.8,148.07Z"/><path class="cls-25" d="M104.68,122.42c.06-1.7-.88-3.86,2-4.31l1.37.36c-.18,1.26,3.29,2.91-.41,3.8Z"/><path class="cls-22" d="M205.39,132c-.82-3.53.71-5.71.68-8.55C208.13,126.61,208.13,126.61,205.39,132Z"/><path class="cls-30" d="M195.41,123.29l1.07-1.05c2,.31,3.47,1.15,3.7,4C198.22,125.4,195.84,126.24,195.41,123.29Z"/><path class="cls-22" d="M205.25,134.13c.48,2,1,3.9,1.76,7.11a9.52,9.52,0,0,1-3.2-6.88Z"/><path class="cls-22" d="M118.07,111c-.89,2.47-2.82,3.6-5.25,4.08C113.24,112,115.09,110.74,118.07,111Z"/><path class="cls-30" d="M164.75,73.83a2.1,2.1,0,0,1-2.33,1.66c-1.74-.09-.85-1.17-1-2.23-.15-1.46-.17-1.54,1.17-1.61C164.52,71.55,163.29,73.84,164.75,73.83Z"/><path class="cls-30" d="M118,96.44l1,0c1.53.07,2.68.67,2.92,2.3.06.41-.26,1.22-.53,1.28-1.7.39-2.36-1-3.1-2.1a4.65,4.65,0,0,1-.34-1.49Z"/><path class="cls-22" d="M154,94.87c-.52,1.32,2.15,2.39.58,3.53a2.83,2.83,0,0,1-2.7-.46C151.1,96.36,153,95.94,154,94.87Z"/><path class="cls-17" d="M184.87,115.24c-2,0-3.9-.21-4.24-2.78C183.05,111.84,184.14,113.26,184.87,115.24Z"/><path class="cls-30" d="M150.35,68.89c-1.41.88-2.5,1.77-4.13.93C147.23,67.94,148.68,68.63,150.35,68.89Z"/><path class="cls-17" d="M190.22,118.25c.05.93.11,1.86.16,2.79-2,.25-2.22-1.18-2.41-2.62Z"/><path class="cls-30" d="M144.77,72.89c.77-.19,1.52-.4,2.3-.53.07,0,.39.55.32.67C146.7,74.07,145.72,73.56,144.77,72.89Z"/><path class="cls-22" d="M176.86,109.79a1.84,1.84,0,0,1-2.2-1.92A1.83,1.83,0,0,1,176.86,109.79Z"/><path class="cls-22" d="M209.58,129.89c.28.12.73.19.81.39s-.2.55-.33.84c-.28-.13-.73-.19-.81-.39S209.45,130.17,209.58,129.89Z"/><path class="cls-25" d="M202.76,149.11h-1.1a1.38,1.38,0,0,1-.46-2.19C202.34,147.21,202.6,148.13,202.76,149.11Z"/><path class="cls-22" d="M208.81,147.06h-1c-.61-.4-1.19-1.14-.34-1.49C208.67,145.07,208.68,146.26,208.81,147.06Z"/><path class="cls-22" d="M153.25,104.83A1.9,1.9,0,0,1,151,106.7,1.78,1.78,0,0,1,153.25,104.83Z"/><path class="cls-25" d="M200.62,141.87a1.48,1.48,0,0,1-.51-2.19C201.24,140.19,202.06,140.77,200.62,141.87Z"/><path class="cls-22" d="M204.7,111.94l.43.24-.43-.24Z"/><path class="cls-22" d="M204.7,111.94l-.44-.24.44.24Z"/><path class="cls-30" d="M118,96.46l-.42-.25.45.23Z"/><path class="cls-22" d="M122.1,103.67l.25-.44c-.08.15-.16.31-.23.46Z"/><path class="cls-26" d="M103.6,133.65a4.62,4.62,0,0,0,0-1,5.32,5.32,0,0,1,3.75.52c-.43,2.2-.85,4.4-.22,6.63-.11,1.07-.21,2.14-.31,3.21l-1.77,3.1-1.41.11-.45-5.3c-.08-.74-.15-1.47-.22-2.2l.54-3.09C104.51,135,104.51,134.34,103.6,133.65Z"/><path class="cls-22" d="M103.23,140.94l.45,5.29c0,2.29.09,4.58.13,6.87l-.45,6.21c-1.48-1.38-1.53-3.32-2-5.09,2.1-3.09.93-6-.33-9C100.14,143.1,99.26,140.68,103.23,140.94Z"/><path class="cls-23" d="M101.36,154.22c.47,1.77.52,3.71,2,5.09-.07,1.38-.13,2.77-.2,4.15-5.54-1.76-2.51-6-2.65-9.27Z"/><path class="cls-19" d="M208.9,154.25c-.77-3.4,2.46-5.26,3.12-8.12a2.39,2.39,0,0,1,.73-.23l5.95.18-.49,1a5.6,5.6,0,0,0-2.3,4l-1.08,1.07C212.69,152.37,211.34,154.85,208.9,154.25Z"/><path class="cls-25" d="M153.19,238.84c-4.76.19-9.63.67-14.13-1.12-2.85-1.14-3.45.67-4.55,2.25a2,2,0,0,1-.73-2.62c1.44-3.49-.51-4.86-3.43-5.67l0,0c0-3.49-2.08-5.27-5.1-6.29-5.1-9.73-7.83-20.42-12.17-30.46-2-4.57-5.55-8.61-4.69-14.12a2.17,2.17,0,0,1,.1-.88l3.19.17,3.34,7.09c-.57,1.3-2.09,2.91,1,3.07l1.15,2.16c-.63.28-1.16.82-.71,1.4.29.37,1.11.31,1.7.44l.19,1.28c-1.48,3-.31,6.73,2.11,6.53,7.08-.6,4.68,3.73,4.16,6.82-.49,2.93-.89,6.19,2.41,6.7,2.83.43,5.51-1.61,5.2-5.4l7.51-1.17,0,1-.06,0c-1.06.31-1.95.91-1.64,2.12.1.39,1.06.57,1.62.84l1,1.08c.41,2.18,1.39,2.7,3.1,1.05l4.33.73.31.68.3-.69,5.37,0c.53,1.31,1.31,2.56.9,4.08l-1.91.32c-.73-1-1.42-.93-2.08.08l-6.81,1.36c-4.46-1.75-7.8,1-11.29,2.92-1.7.91-.39,3.2.16,3.24,3.69.29,5.18,4.43,8.74,4.74l1,1.05c1.45,2.64,3.88,3,6.45,2.47C151.69,235.66,152.78,236.63,153.19,238.84Z"/><path class="cls-28" d="M201,153.34l1,3.82c-2.44,2.45-.39,3.4,1.48,4.41a25.71,25.71,0,0,0,1.21,4.42c1,2,1.72.82,2.31-.4.32-.69.63-1.38.94-2.07,1.89,2.11,2.63,4.14.19,6.51-2.21,2.14-1.18,5.44-2.38,8h0l-1,1c0,1.76,0,3.52,0,5.29s-1.46,3.16-.91,5c-.06,3.23.63,6.57-1.28,9.55-3.29-.72-4-3-4.13-6.06-.21-5.06-.6-10.18-5.11-13.7a39.7,39.7,0,0,1,1.5-10.91c1.2-4.25,1.89-9.27-2.44-12.86L191,145.84c.12-.65.25-1.29.37-1.93l5.09-1.07C199.81,145.56,198.12,150.45,201,153.34Z"/><path class="cls-16" d="M215.91,151.05a5.6,5.6,0,0,1,2.3-4c1.63,2.13,7.11,0,5.87,5.3-2.22-.21-1.58,3.46-4,3l-.09-2c.46-4-1.6-3.22-3.87-2.05Z"/><path class="cls-19" d="M220,153.28l.09,2a9.92,9.92,0,0,1-4.08,3.14l-2.93-1.27c.69-1.3,1.38-2.6,2.08-3.9Z"/><path class="cls-19" d="M215.26,166.53c-.2,2.94-1.61,5-5,6.27.65-3,2.37-5.46,1.63-8.24,0-.33,0-.66.07-1l1.93-.06H214Z"/><path class="cls-16" d="M212,163.58c0,.32-.06.65-.07,1l-4-1.92-.35-.27a6.45,6.45,0,0,1,2.33-5l2.09,0c-.36,1.82-.28,3.54,1.14,5Z"/><path class="cls-16" d="M215.26,166.53l-1.22-3c2.34.1,1.84-1.91,2.35-3.17,3.27,1.95,3.92,4.25,1,7.06C216,168.73,216,166.83,215.26,166.53Z"/><path class="cls-17" d="M216.39,160.36c-.51,1.26,0,3.27-2.35,3.17h-.14l-.77-1.16c-1.42-1.41-1.5-3.13-1.14-5l1.07-.23,2.93,1.27C216.12,159.09,216.26,159.72,216.39,160.36Z"/><path class="cls-16" d="M207.93,163.52c-.31.69-.62,1.38-.94,2.07-.09-1.12-.31-2.27.58-3.22l.35.27A2.88,2.88,0,0,0,207.93,163.52Z"/><path class="cls-19" d="M218.09,171.79l.42-1.32a2.67,2.67,0,0,1,.36.25c-.23.38-.48.75-.73,1.12Z"/><path class="cls-23" d="M102.85,164.87a.41.41,0,0,1-.11.53c-1.86,1-1,3-1.58,4.63C99,166.93,99.14,166.55,102.85,164.87Z"/><path class="cls-22" d="M106.81,162.53c-.45-3.17.13-6.48-1.22-9.53.67-1.36-2.35-2.55-.18-4,3,3.76,5,.15,7.41-.95a3.18,3.18,0,0,0,2.09,3.15c-3.17,3.55-4.88,7.47-3.1,12.27h-4Z"/><path class="cls-17" d="M111.71,180.14l-3.19-.17c-.4-2.33-.79-4.66-1.19-7,2-1.47,1.77-2.56-.57-3.27-.05-1-.09-2-.13-3l1.08,0c1.79,0,3.38-1.62,5.29-.66C109.53,170.44,112.17,175.43,111.71,180.14Z"/><path class="cls-18" d="M105.41,149c-2.17,1.42.85,2.61.18,4l-1.78.1c0-2.29-.09-4.58-.13-6.87l1.42-.1C105.2,147.09,105.31,148.06,105.41,149Z"/><path class="cls-23" d="M107.71,166.66l-1.08,0c-.48-1.41-1.44-2.84.18-4.16l1,1C107.78,164.55,107.74,165.6,107.71,166.66Z"/><path class="cls-23" d="M106.76,169.71c2.34.71,2.52,1.8.57,3.27A3.88,3.88,0,0,1,106.76,169.71Z"/><path class="cls-29" d="M215.9,174.81c-1.06,2.41-2.12,4.68-4.83,4.51-.27,0-.71-1.13-.69-1.14C212.2,177,214.05,175.92,215.9,174.81Z"/><path class="cls-24" d="M204.74,179l1-1Z"/><path class="cls-23" d="M130.35,231.68c2.92.81,4.87,2.18,3.43,5.67a2,2,0,0,0,.73,2.62c.45,2.75.89,5.5,1.34,8.26-3.1-.26-4.48-2.06-4.41-5A49.93,49.93,0,0,0,130.35,231.68Z"/><path class="cls-29" d="M153,233l-2-1.22c-.07-.79-.08-1.77-1.19-1.59-.38.06-.62.94-.93,1.45l0,0c-3.16.88-4.25-3.22-7.14-3-2-3.3,1.32-4.71,2.5-6.88l6.81-1.36,2.08-.08L155,220a3.24,3.24,0,0,0,3.42-.62c4.73-2.49,9.61.29,15.22-.19-1.93-1.91-1.44-3.61-1.09-5.46.39-2.09.74-4.5-1.88-5.76l-.09-1.91c2.71-2.08,2.33,1.16,3.23,2,1.63,1.48,3.34,2.51,5.47,1.62,1.4-.59,3-1.74,2.21-3.47-1.93-4.07,3-8-.06-12.09-.61-.8.49-1.38,1.3-1.74,1.9-.84,1.14-2.59,1.31-4,1-1.38,3.3-1.81,3.12-4.11,3-.63,3.45-4.23,6.16-5.17,4.51,3.52,4.9,8.64,5.11,13.7.12,3.07.84,5.34,4.13,6.06-.06,1.39.51,2.93-1,4-2.38-.47-3.06,1.52-3.86,3-.65,1.16-.75,2.67-2.31,3.09-4.86,1.31-6.49,5-7.19,9.47l0,0c-3.48-1.19-5,2.13-7.45,3.3-5.17,2.49-10.17,5.35-15.24,8.06l-2.06,0c-1.58-.15-3.07-.15-3.15,2C157.83,232,155.19,231.15,153,233Zm15.42-10c-.44-1.76-1.82-1.75-2.9-1.47-3.17.85-6.38.82-9.6,1-2.08.16-4.32,1-3.64,3.78.59,2.47,2.59,4,5,3.05a103.15,103.15,0,0,0,10.45-5.26C168.07,223.92,168.2,223.29,168.39,223Z"/><path class="cls-16" d="M188.23,218.3c.7-4.44,2.33-8.16,7.19-9.47,1.56-.42,1.66-1.93,2.31-3.09.8-1.44,1.48-3.43,3.86-3-.38,1.42-.77,2.85-1.16,4.27a2.12,2.12,0,0,0-.87,2.07,2.38,2.38,0,0,1-.08.92c-3.18,0-4.2,2.9-6.12,4.62C191.79,216.06,190.73,218.2,188.23,218.3Z"/><path class="cls-18" d="M199.56,209.12a2.12,2.12,0,0,1,.87-2.07A2.12,2.12,0,0,1,199.56,209.12Z"/><path class="cls-22" d="M179.91,230.71c.44-1.39.86-.48,1.29,0Z"/><path class="cls-29" d="M133.54,110.49l8.12.28c.21,1.83-2,3.83-.29,5.37,3,2.75,1.86,5-.43,7.2,1.53,1.66,3.81.25,4.9,2h-1c-5.26-.27-4.34,5.08-7.85,8.48,3.22-1.35,4.6-.26,5.57,1.43,1.29,2.25,2.81,1.08,4.33.41l2.05,1.06a2,2,0,0,0,2.12,2.08c-1.42,1.49-1.77,6.45-5.35,1.53-.27-.36-3.95-2.58-5.73-1.13-2.13,1.75-4.37,1.47-6.66,1.72l-1.87-.18c-.7-1.32-1.64-2.19-3.28-1.71l0-.16c-.56-2.66-.67-5.5-3.07-7.39,0-.33.05-.66.08-1,2.75-.05,4.41-2.42,6.83-3.18,1.21-.38,1.73-1.45.93-2.34-2.13-2.36-2-7.25-7.17-6.31-1.91.35-1.65-1.37-1.56-2.43a40.27,40.27,0,0,1,.89-4.45c1-2.1,2.76-.79,4.2-.9C130.9,112.39,132.32,112.46,133.54,110.49Z"/><path class="cls-20" d="M105.41,149c-.1-1-.21-1.94-.31-2.9l1.76-3.1c1.87-.29,1.71-1.82,1.92-3.12a11,11,0,0,1,5.45.38c1.63.55,3.63,1.33,4.84-1l1.64-.12c.47.52.94,1,1.4,1.58.38,3,2.61,1.94,4.32,2l.43,0,.42.06c-.49,1.49,1.78,2.43.81,4.2h-7a21.5,21.5,0,0,0-8.24,1C110.45,149.18,108.4,152.79,105.41,149Z"/><path class="cls-18" d="M120.71,139.21l-1.64.12c-1.81-2.16-2.95-4.53-1.73-7.36.68-1.57.27-2.75-.46-4.24C114.82,123.54,116.6,116,120,113c-.16,1.8.2,3.83,1.45,4.77,4.57,3.41,3.66,8.19,3.72,12.77,0,.33-.06.66-.08,1-.34,0-.68,0-1,0-2.13,0-4-.11-4.14,3-.08,2.94,1.36,2.73,3.47,2.57a3.1,3.1,0,0,1,2.85,1.85C124.49,140.49,122.51,137.76,120.71,139.21Z"/><path class="cls-16" d="M125.21,130.52c-.06-4.58.85-9.36-3.72-12.77-1.25-.94-1.61-3-1.45-4.77,1.43-1.54,3.33-1.07,5.09-1.17a40.27,40.27,0,0,0-.89,4.45c-.09,1.06-.35,2.78,1.56,2.43,5.13-.94,5,4,7.17,6.31.8.89.28,2-.93,2.34C129.62,128.1,128,130.47,125.21,130.52Z"/><path class="cls-21" d="M107.39,133.19a5.32,5.32,0,0,0-3.75-.52c-.85-3.54,1.11-6.79,1-10.25l2.92-.15C108.58,125.93,106.05,129.52,107.39,133.19Z"/><path class="cls-18" d="M133.54,110.49c-1.22,2-2.64,1.9-4.21.42l2.07-2.1,2-.15Z"/><path class="cls-21" d="M108.78,139.91c-.21,1.3,0,2.83-1.92,3.12.1-1.07.2-2.14.31-3.21Z"/><path class="cls-19" d="M148.93,136.75l-2.05-1.06c2.05-4-1.81-6.79-2-10.32h1c1.17-.5,4.42-.23,3.31-1.22-4.81-4.3-2-9.24-2.24-13.9a6.84,6.84,0,0,1,3.91.5c2.6.82,5,1.91,7.69-.67,2.08-2,5.47.76,8-1l2,0c.05,1,.81,1.23,1.5,1.59l-.36,2.25c-2.88,2.29-9.84,3.7-1.8,8.37a1.5,1.5,0,0,1,.34,1.4c-1.67,3.65.84,4.44,3.46,5.27a2.7,2.7,0,0,1,2.11,2.62l-10.31,4.08-1,.08c-2.93-.07-5.3,2.26-8.29,1.92l-.23-3.82ZM159,125.48c.54-.45,1.32-.79,1.43-1.27.23-1-.76-.85-1.35-.82s-1.5.13-1.32,1.09C157.82,124.81,158.43,125.05,159,125.48Z"/><path class="cls-25" d="M162.4,134.77l1-.08c5.23,2.52,10.15-1.11,15.28-.73.78,1.25,2.07.58,3.12.81.9,1.66,2,3,4.12,3l4.15,5.25a2,2,0,0,1-2.73.69c-5.21-3.18-11.11-2.2-16.73-2.87a5,5,0,0,0-5.12,2.35c2.3.57,4.2,1.11,6.12,1.5,3.9.8,7.53,2,10.4,5.05,1.6,1.7,2.16,3.46.3,4.71-1.63,1.1-4.17,2.14-5-1.34,2.08-1.74,2.07-3.18-.4-4.64-3.39-2-6.27-1.94-7.24.39-3.31-.43-2.85,2.63-3.94,4.26-2.7-.72-4,2.7-6.62,2.24l-2.76-2.62c.24-5.79.24-5.79-3.5-10.07C155.18,139,160.07,138.43,162.4,134.77Z"/><path class="cls-24" d="M173.75,130.61a2.7,2.7,0,0,0-2.11-2.62c-2.62-.83-5.13-1.62-3.46-5.27a1.5,1.5,0,0,0-.34-1.4c-8-4.67-1.08-6.08,1.8-8.37l2,0c.35,2.76,2.5,1.88,4.13,2h0c2.34,5.4-1.64,11.2,1.06,16.57Z"/><path class="cls-29" d="M176.87,131.6c-2.7-5.37,1.28-11.17-1.06-16.57,1.81.08,3.82-.46,4.21,2.43.31,2.36,1.2,4.27,4.44,3.29,1.18-.36,3.09,5.77,1.92,6.13-4.26,1.29-2.42,5.67-4.54,7.89-1.05-.23-2.34.44-3.12-.82A2.66,2.66,0,0,0,176.87,131.6Z"/><path class="cls-29" d="M190.11,143.06,186,137.81a19.46,19.46,0,0,1,1.87-.84c6.37-2,7.24-1.44,8.66,5.87l-5.09,1.07Z"/><path class="cls-29" d="M175.79,115c-1.63-.17-3.78.71-4.13-2C173.44,112.84,175,113.16,175.79,115Z"/><path class="cls-24" d="M146.91,110.24c.23,4.66-2.57,9.6,2.24,13.9,1.11,1-2.14.72-3.31,1.22-1.09-1.77-3.37-.36-4.9-2,2.29-2.16,3.46-4.45.43-7.2-1.69-1.54.5-3.54.29-5.37C143.28,109.27,145.13,110.1,146.91,110.24Z"/><path class="cls-21" d="M103.6,133.65c.91.69.91,1.35,0,2C102.48,135,102.55,134.29,103.6,133.65Z"/><path class="cls-17" d="M207.57,162.37c-.89.95-.67,2.1-.58,3.22-.59,1.22-1.33,2.45-2.31.4a25.71,25.71,0,0,1-1.21-4.42c.13-.4.26-.79.4-1.19.7-.06,1.12,2.39,1.75.53.69-2,1.11-4.08,2.75-5.61,1.1.25,1.4,1.09,1.53,2.07A6.45,6.45,0,0,0,207.57,162.37Z"/><path class="cls-29" d="M209.9,157.37c-.13-1-.43-1.82-1.53-2.07.17-.35.35-.7.53-1.05,2.44.6,3.79-1.88,5.93-2.13l.23.2a6.22,6.22,0,0,0,.08,1c-.7,1.3-1.39,2.6-2.08,3.9l-1.07.23Z"/><path class="cls-16" d="M203.87,160.38c-.14.4-.27.79-.4,1.19-1.87-1-3.92-2-1.48-4.41a.61.61,0,0,1,.62-.09,1.2,1.2,0,0,0,.62.65C203.44,158.61,203.65,159.5,203.87,160.38Z"/><path class="cls-17" d="M203.23,157.72a1.2,1.2,0,0,1-.62-.65C203.54,156.61,203.41,157.14,203.23,157.72Z"/><path class="cls-16" d="M214.83,152.12l1.08-1.07.2.17-1.05,1.1Z"/><path class="cls-18" d="M111.71,180.14c.46-4.71-2.18-9.7,1.29-14.14l1.88-.35,4.09-.17c4.81-.41,4.76-.4,4-4.32a6.67,6.67,0,0,1,.54-2.46c2.89.38,5.71-3.17,8.64-.15,1.21,7.36.13,14.5-2.06,21.53-1.67-3.23-.83-6.73-.7-10.05.17-4.05-1.8-4.62-4.93-4-9.29,1.89-10.79,4.62-7.86,13.79a11.68,11.68,0,0,1,.32,3.55c0,3.77,3.08,6.18,5.32,7.47,2.64,1.52,3.62-2.55,5-4.53a6.18,6.18,0,0,1,1.6-1.15c.3,2.62-1.34,4.74-1.85,7.15-1.79.12-1.67,1.82-2.4,2.84-1.88,2.67-4,3.6-6.31.42-.07-.43-.13-.86-.2-1.28l-1-1.84L116,190.3c0-1.13.13-2.29-1-3.07Z"/><path class="cls-16" d="M170.67,208c2.62,1.26,2.27,3.67,1.88,5.76-.35,1.85-.84,3.55,1.09,5.46-5.61.48-10.49-2.3-15.22.19-.75-1.59,2.73-2.51.94-3.79a4.65,4.65,0,0,0-5.26.33l-5.37,0a1.15,1.15,0,0,0-.61,0l-4.33-.73c-.73-1.25-1.92-1.13-3.1-1.05l-1-1.08c0-1,0-2,0-3l.06,0c2.42-.25,5,.67,7.23-.87a7,7,0,0,0,1-.1l6.08,0c-.54,1-2.3,1.23-1.85,2.72.6,1.91,1.94.35,2.93.47.63.07,1.21.44,1.83.57,4,.85,8.63-1.46,9.42-4.73C167.88,208.75,169.3,209,170.67,208Z"/><path class="cls-17" d="M118.35,195.58c2.32,3.18,4.43,2.25,6.31-.42.73-1,.61-2.72,2.4-2.84.17,2.57.27,5.76,3.36,6,3.37.27,7.43,2.27,10.16-1.8.3-.05.6-.1.89-.17l.21,3.29c-.06.31-.12.62-.16.93-1.16.35-2.79-.09-3.16,2.08h3.46l.05,0,.95,2.1-3.21.18-4.09-.05c-1.69-3.26-3.4-3.33-5.12,0-1.74.19-2.28,1.28-2,2.83.38,2.14,2.1,2.37,3.83,2.52.31,3.79-2.37,5.83-5.2,5.4-3.3-.51-2.9-3.77-2.41-6.7.52-3.09,2.92-7.42-4.16-6.82C118,202.31,116.87,198.54,118.35,195.58Z"/><path class="cls-22" d="M132.23,210.23c-1.73-.15-3.45-.38-3.83-2.52-.28-1.55.26-2.64,2-2.83s3.4,2.18,5.12,0l4.09.05c1.61,3.39,3.94,2.08,6.24,1,2.86.38,5.87-.85,8.62.79-1.56,2.38-4.84.14-6.44,2.41a7,7,0,0,1-1,.1l-7.27-.16Z"/><path class="cls-17" d="M115.05,187.23c1.1.78,1,1.94,1,3.07C113,190.14,114.48,188.53,115.05,187.23Z"/><path class="cls-17" d="M117.17,192.46l1,1.84c-.58-.13-1.4-.07-1.69-.44C116,193.28,116.54,192.74,117.17,192.46Z"/><path class="cls-18" d="M190.11,143.06l1.29.85c-.12.64-.25,1.28-.37,1.93a19.09,19.09,0,0,1-2.5.17c-3.61-.23-5.35.37-2.46,4.18,2.07,2.73,1.18,5-2.06,6.25-3.33,0-3.42,3.41-5.23,5l-3,.45-3.07-.3c-3-2.61,1.07-4.09,1-6.23l1-1.25,2.62-1c.83,3.49,3.37,2.45,5,1.35,1.86-1.25,1.3-3-.3-4.71-2.87-3.07-6.5-4.25-10.4-5.05-1.92-.39-3.82-.93-6.12-1.5a5,5,0,0,1,5.12-2.35c5.62.67,11.52-.31,16.73,2.87A2,2,0,0,0,190.11,143.06Z"/><path class="cls-24" d="M193.32,179.05c-2.71.94-3.19,4.54-6.16,5.17.51-4.05-.21-8.93,1.83-11.95,3-4.49,2.33-7.32-.75-10.82-1-1.09-2.17-2.28-2.17-4,2.46.31,4.43-.79,6.31-2.18,4.33,3.59,3.64,8.61,2.44,12.86A39.7,39.7,0,0,0,193.32,179.05Z"/><path class="cls-29" d="M192.38,155.28c-1.88,1.39-3.85,2.49-6.31,2.18l-2,0-.05-1c3.24-1.24,4.13-3.52,2.06-6.25-2.89-3.81-1.15-4.41,2.46-4.18a19.09,19.09,0,0,0,2.5-.17Z"/><path class="cls-24" d="M215.06,152.32l1.05-1.1c2.27-1.16,4.33-1.93,3.87,2.06h-4.84A6.22,6.22,0,0,1,215.06,152.32Z"/><path class="cls-24" d="M213.13,162.36l.77,1.16-1.93.06Z"/><path class="cls-30" d="M132.19,158.55c-2.93-3-5.75.53-8.64.15-.79-.25-1.58-.52-2.37-.75-1.36-.39-2.52-2-4.09-1-2,1.33,0,3-.17,4.52l-2,3c-1.15,0-2.39.22-3.13-1-1.78-4.8-.07-8.72,3.1-12.27,2.6-.57,6.72,1.07,6.15-4.18h7c1-1.77-1.3-2.71-.81-4.2,5.14,1.78,8.16,6.29,12.19,9.48.26,2.71.55,5.42-.24,8.09l-4.69-1A1.93,1.93,0,0,0,132.19,158.55Z"/><path class="cls-25" d="M121.06,147.05c.57,5.25-3.55,3.61-6.15,4.18a3.18,3.18,0,0,1-2.09-3.15A21.5,21.5,0,0,1,121.06,147.05Z"/><path class="cls-25" d="M111.81,163.5c.74,1.25,2,1,3.13,1l-.06,1.12L113,166c-1.91-1-3.5.65-5.29.66,0-1.06.07-2.11.11-3.16Z"/><path class="cls-19" d="M184.06,157.48l2,0c0,1.71,1.2,2.9,2.17,4,3.08,3.5,3.79,6.33.75,10.82-2,3-1.32,7.9-1.83,11.95.18,2.3-2.09,2.73-3.12,4.11-4.66,2.54-8.42-.34-12.37-2.06-.31-2.59-2.26-3.85-4.17-5.14-.32-.62-.65-.62-1,0-3.46-1.07-6.9-2.17-9.32-5.14,0-1.69.4-3.58-1.34-4.71-3.07-2-2.89-5.72-4.56-8.45a2.08,2.08,0,0,1,.43-2.81c.85-.57,1.52.36,2.26.74,2.08,1,3.66,3.3,6.43,2.74l3,1.17c.38,5.16,5,3.54,7.41,3.73,3.55.29,4.6-3.28,5-6.49l3-.45C181.71,161.67,183.53,160.43,184.06,157.48Z"/><path class="cls-24" d="M171.67,186.27c4,1.72,7.71,4.6,12.37,2.06-.17,1.43.59,3.18-1.31,4-.81.36-1.91.94-1.3,1.74,3.08,4-1.87,8,.06,12.09.82,1.73-.81,2.88-2.21,3.47-2.13.89-3.84-.14-5.47-1.62-.9-.83-.52-4.07-3.23-2l-3-2.25c0-.68,0-1.35,0-2,4.55-1,5.11-2.21,2.49-5.76-.59-.8-1.42-1.39-1.47-2.49A7,7,0,0,0,171.67,186.27Z"/><path class="cls-17" d="M167.55,203.79l3,2.25.09,1.91c-1.37,1.05-2.79.8-4.23.16a1.6,1.6,0,0,0-2-.7l-1,.55-9.3,1.12-6.08,0c1.6-2.27,4.88,0,6.44-2.41,1.5.26,2.72-.46,3.93-1.18.58,0,.67-.39.53-.87l4.39-.41Z"/><path class="cls-16" d="M163.41,164.65l-3-1.17c-1.7-2.67-4.23-6.59-5.91-7-3.92-1-5.34-2.82-6.58-6.1-.71-1.86-1.77-.8-2.22.59-3.22,1.63-2.8,4.71-3,7.53-.13,1.81.44,4-2.42,4.21-.35-.76-.69-1.53-1-2.3.79-2.67.5-5.38.24-8.09.17-.34.33-.68.49-1,1.88-.46,2.94-1.58,2.72-3.58S141,146,139.63,146c-1.35-2.63-5.14-2.24-6.32-5.08,2.29-.25,4.53,0,6.66-1.72,1.78-1.45,5.46.77,5.73,1.13,3.58,4.92,3.93,0,5.35-1.53l3.06-2.14c3,.34,5.36-2,8.29-1.92-2.33,3.66-7.22,4.25-9.52,7.94-2.45.7-3.47,2.23-2.12,4.54s.39,7.13,5.62,5.53l2.76,2.62c-.71,5,3.9,4.59,6.45,6.27C165.5,163.13,165.32,164.53,163.41,164.65Z"/><path class="cls-17" d="M140,151.3c-.16.35-.32.69-.49,1-4-3.19-7.05-7.7-12.19-9.48l-.42-.06-.43,0c-.92-1.78-2.54-2.07-4.32-2-.46-.53-.93-1.06-1.4-1.58,1.8-1.45,3.78,1.28,5.58-.24l1.91-.07,0,.15c.38,1.95,1.83,1.83,3.28,1.72l1.87.18c1.18,2.84,5,2.45,6.32,5.08Z"/><path class="cls-24" d="M144.83,125.37c.24,3.53,4.1,6.33,2,10.32-1.52.67-3,1.84-4.33-.41-1-1.69-2.35-2.78-5.57-1.43C140.49,130.45,139.57,125.1,144.83,125.37Z"/><path class="cls-16" d="M128.2,138.9l-1.91.07a3.1,3.1,0,0,0-2.85-1.85c-2.11.16-3.55.37-3.47-2.57.1-3.12,2-3.05,4.14-3,.34,0,.68,0,1,0C127.53,133.4,127.64,136.24,128.2,138.9Z"/><path class="cls-24" d="M154.11,136.69l-3.06,2.14a2,2,0,0,1-2.12-2.08l4.95-3.88Z"/><path class="cls-18" d="M131.44,140.77c-1.45.11-2.9.23-3.28-1.72C129.8,138.58,130.74,139.45,131.44,140.77Z"/><path class="cls-30" d="M122.11,140.79c1.78,0,3.4.24,4.32,2C124.72,142.73,122.49,143.74,122.11,140.79Z"/><path class="cls-16" d="M176.87,131.6a2.66,2.66,0,0,1,1.85,2.35c-5.13-.37-10.05,3.26-15.28.74l10.31-4.08Z"/><path class="cls-24" d="M159,125.48c-.56-.43-1.17-.67-1.24-1-.18-1,.67-1.06,1.32-1.09s1.58-.23,1.35.82C160.31,124.69,159.53,125,159,125.48Z"/><path class="cls-17" d="M165.59,161.67c-2.55-1.68-7.16-1.23-6.45-6.27,2.62.46,3.92-3,6.62-2.24,2,3.23,5.23,1.8,8,2.2.07,2.14-4,3.62-1,6.23Z"/><path class="cls-30" d="M173.74,155.36c-2.75-.4-6,1-8-2.2,1.09-1.63.63-4.69,3.94-4.26,3.1.36,7.38-.41,5,5.21Z"/><path class="cls-17" d="M156.38,152.78c-5.23,1.6-4.27-3.22-5.62-5.53s-.33-3.84,2.12-4.54C156.62,147,156.62,147,156.38,152.78Z"/><path class="cls-17" d="M174.73,154.11c2.35-5.62-1.93-4.85-5-5.21,1-2.33,3.85-2.39,7.24-.39,2.47,1.46,2.48,2.9.4,4.64Z"/><path class="cls-16" d="M128.91,185.17a6.18,6.18,0,0,0-1.6,1.15c-1.41,2-2.39,6.05-5,4.53-2.24-1.29-5.35-3.7-5.32-7.47a11.68,11.68,0,0,0-.32-3.55c-2.93-9.17-1.43-11.9,7.86-13.79,3.13-.63,5.1-.06,4.93,4-.13,3.32-1,6.82.7,10.05A6.56,6.56,0,0,1,128.91,185.17Z"/><path class="cls-25" d="M128.91,185.17a6.56,6.56,0,0,0,1.22-5.09c2.19-7,3.27-14.17,2.06-21.53a1.93,1.93,0,0,1,2.35.86c.34,3.1,2.25,4.23,5.15,4.13a36.77,36.77,0,0,1,.45,10.26c-.24.27-.49.53-.74.8-1.7.81-2.26,1.89-.78,3.44l-.21,4.07c-1.5,2.13.15,2.29,1.61,2.58l.13.18c.08.57.14,1.14.21,1.72a2.12,2.12,0,0,0,2.37,1.79l1.18.9c.23,1.42,3.37,2.9-.11,4.22-2.58-5.1-8.14-5.16-12.43-7.37-2.66,7.75-.13,10.61,9.21,10.4-2.73,4.07-6.79,2.07-10.16,1.8-3.09-.25-3.19-3.44-3.36-6C127.57,189.91,129.21,187.79,128.91,185.17Z"/><path class="cls-25" d="M116.92,161.5c.17-1.51-1.84-3.19.17-4.52,1.57-1,2.73.58,4.09,1,.79.23,1.58.5,2.37.75a6.67,6.67,0,0,0-.54,2.46c.72,3.92.77,3.91-4,4.32C119.12,163.72,118.75,162.24,116.92,161.5Z"/><path class="cls-22" d="M116.92,161.5c1.83.74,2.2,2.22,2,4l-4.09.17.06-1.12Z"/><path class="cls-29" d="M154.11,209.08l9.3-1.12,1-.55a1.6,1.6,0,0,1,2,.7c-.79,3.27-5.37,5.58-9.42,4.73-.62-.13-1.2-.5-1.83-.57-1-.12-2.33,1.44-2.93-.47C151.81,210.31,153.57,210.05,154.11,209.08Z"/><path class="cls-18" d="M143.8,193.5c3.48-1.32.34-2.8.11-4.22a7.69,7.69,0,0,0,5.07-4.1l0,0,.47,1.36c.15-.46.31-.91.46-1.37a2,2,0,0,1,2.24,2,2.86,2.86,0,0,0,2.92,2.21l.09,1-1.09,2-2.05,1c-3-.06-4.35,1.06-3.07,4.14l-.07,3.09c-2.79,2.25-4.63-2-7.22-1.06l-.21-3.28c.08-.3.14-.6.2-.9,1.43.13,2.17-.49,2.11-2Z"/><path class="cls-30" d="M141.67,195.47c-.06.3-.12.6-.2.9l-.89.16c-9.34.21-11.87-2.65-9.21-10.4,4.29,2.21,9.85,2.27,12.43,7.37h0A1.85,1.85,0,0,0,141.67,195.47Z"/><path class="cls-18" d="M158.4,205.53c-1.21.72-2.43,1.44-3.93,1.18-2.75-1.64-5.76-.41-8.62-.79-.66-1.3-2-.84-3-1.14-.31-.7-.63-1.4-.95-2.1,4.1.27,8.26-.22,12.28,1,1.53.17,3.19-.33,4.5.9A1.64,1.64,0,0,0,158.4,205.53Z"/><path class="cls-29" d="M154.15,203.69c-4-1.23-8.18-.74-12.28-1l-.05,0-.3-2.08c0-.31.1-.62.16-.93,2.59-.91,4.43,3.31,7.22,1.06C151.19,200.75,153.71,200.38,154.15,203.69Z"/><path class="cls-25" d="M135.52,204.91c-1.72,2.15-3.41-.27-5.12,0C132.12,201.58,133.83,201.65,135.52,204.91Z"/><path class="cls-25" d="M142.82,204.78c1,.3,2.37-.16,3,1.14-2.3,1.12-4.63,2.43-6.24-1Z"/><path class="cls-18" d="M141.52,200.58l.3,2.08h-3.46C138.73,200.49,140.36,200.93,141.52,200.58Z"/><path class="cls-28" d="M165.59,161.67l7.15-.08,3.07.3c-.39,3.21-1.44,6.78-5,6.49-2.4-.19-7,1.43-7.41-3.73C165.32,164.53,165.5,163.13,165.59,161.67Z"/><path class="cls-24" d="M184.06,157.48c-.53,3-2.35,4.19-5.28,4,1.81-1.59,1.9-5,5.23-5C184,156.79,184.05,157.13,184.06,157.48Z"/><path class="cls-22" d="M139.69,163.54c-2.9.1-4.81-1-5.15-4.13l4.69,1c.35.77.69,1.54,1,2.3C140.07,163,139.88,163.26,139.69,163.54Z"/><path class="cls-24" d="M138.41,182.11l.21-4.07,1.12-1c1.95-.26,1.93-1.73,2-3.17,3,.35,4.59-.72,4.13-4-.37-2.62.9-5,1.22-7.49.5-4,1-7.88-1.39-11.48.45-1.39,1.51-2.45,2.22-.59,1.24,3.28,2.66,5.15,6.58,6.1,1.68.4,4.21,4.32,5.91,7-2.77.56-4.35-1.69-6.43-2.74-.74-.38-1.41-1.31-2.26-.74a2.08,2.08,0,0,0-.43,2.81c1.67,2.73,1.49,6.45,4.56,8.45,1.74,1.13,1.3,3,1.34,4.71-1.87-.41-2.69-4-4.93-2.34a7.48,7.48,0,0,0-3.3,6.45c.08,1.34,0,2.69,0,4-2.92.39-5.94-.44-8.79.76l-.13-.19C141,182.9,140.05,182.27,138.41,182.11Z"/><path class="cls-29" d="M148.94,184.11c0-1.34.09-2.69,0-4a7.48,7.48,0,0,1,3.3-6.45c2.24-1.64,3.06,1.93,4.93,2.34,2.42,3,5.86,4.07,9.32,5.14l1,0c1.91,1.29,3.86,2.55,4.17,5.14a7,7,0,0,1-3.12,7.24c-2.46-2.48-3.62-6.7-8.29-6.25-.78-.9-.47-3.32-3-1.75-1.48.92-3.39,1.16-5.1,1.7a2,2,0,0,0-2.25-2H149l0,0C149,184.82,149,184.47,148.94,184.11Z"/><path class="cls-24" d="M167.5,181.13l-1,0C166.85,180.51,167.18,180.51,167.5,181.13Z"/><path class="cls-19" d="M160.26,187.26c4.67-.45,5.83,3.77,8.29,6.25,0,1.1.88,1.69,1.47,2.49,2.62,3.55,2.06,4.76-2.49,5.76l-5.16-2c-.82-4.63-3.75-6.86-8.28-7.26l1.09-2,1-1.08a9.24,9.24,0,0,1,.11-.92Z"/><path class="cls-29" d="M162.37,199.72l5.16,2c0,.68,0,1.35,0,2l-4.23.46C163,202.75,162.69,201.23,162.37,199.72Z"/><path class="cls-24" d="M162.37,199.72c.32,1.51.63,3,.95,4.53l-4.39.41-.28-.07c-1.31-1.23-3-.73-4.5-.9-.44-3.31-3-2.94-5.25-3,0-1,0-2.06.07-3.08,1.64-.93,3-2,3.07-4.15l2.05-1C158.62,192.86,161.55,195.09,162.37,199.72Z"/><path class="cls-16" d="M164.41,207.41l-1,.55Z"/><path class="cls-16" d="M158.65,204.59l.28.07c.14.48,0,.83-.53.87A1.64,1.64,0,0,1,158.65,204.59Z"/><path class="cls-19" d="M145.69,151c2.39,3.6,1.89,7.52,1.39,11.48-.32,2.51-1.59,4.87-1.22,7.49.46,3.23-1.16,4.3-4.13,4l-1.59-.1a36.77,36.77,0,0,0-.45-10.26c.19-.28.38-.55.58-.82,2.86-.23,2.29-2.4,2.42-4.21C142.89,155.69,142.47,152.61,145.69,151Z"/><path class="cls-18" d="M140,151.3l-.33-5.27c1.33,0,2.83-.24,3.05,1.69S141.84,150.84,140,151.3Z"/><path class="cls-16" d="M148.94,184.11c0,.36,0,.71,0,1.07a7.69,7.69,0,0,1-5.07,4.1l-1.18-.9c-.09-1.54-.79-2.24-2.37-1.79-.07-.58-.13-1.15-.21-1.72C143,183.67,146,184.5,148.94,184.11Z"/><path class="cls-16" d="M138.41,182.11c1.64.16,2.54.79,1.61,2.57C138.56,184.4,136.91,184.24,138.41,182.11Z"/><path class="cls-18" d="M139.74,177.07l-1.12,1c-1.48-1.55-.92-2.63.78-3.44C139.52,175.43,139.63,176.25,139.74,177.07Z"/><path class="cls-16" d="M139.74,177.07c-.11-.82-.22-1.64-.34-2.47.25-.27.5-.53.74-.8l1.59.1C141.67,175.34,141.69,176.81,139.74,177.07Z"/><path class="cls-18" d="M140.36,186.59c1.58-.45,2.28.25,2.37,1.79A2.12,2.12,0,0,1,140.36,186.59Z"/><path class="cls-16" d="M160.26,187.26l-4,1.19-1.1.89-.1.08a2.86,2.86,0,0,1-2.92-2.21c1.72-.54,3.63-.78,5.11-1.7C159.79,183.94,159.48,186.36,160.26,187.26Z"/><path class="cls-29" d="M152,193.48c0,2.1-1.43,3.22-3.07,4.15C147.69,194.54,149.06,193.42,152,193.48Z"/><path class="cls-25" d="M141.67,195.47a1.85,1.85,0,0,1,2.11-2C143.84,195,143.1,195.6,141.67,195.47Z"/><path class="cls-16" d="M149,185.21h.93c-.15.46-.31.91-.46,1.37Z"/><path class="cls-16" d="M156.18,189.37l-1,1.08-.09-1,.1-.08Q155.69,189.37,156.18,189.37Z"/><path class="cls-29" d="M156.18,189.37q-.5,0-1,0l1.1-.89A9.24,9.24,0,0,0,156.18,189.37Z"/></svg>
