<svg id="Layer_1" data-name="Layer 1" xmlns="http://www.w3.org/2000/svg" width="145.34mm" height="145.34mm" viewBox="0 0 412 412"><defs><style>.cls-1{fill:#fff;}.cls-2{fill:#e8e8e7;}.cls-3{fill:#ceced1;}.cls-4{fill:#dad9db;}.cls-5{fill:#b9bcc3;}.cls-6{fill:#a0a5af;}.cls-7{fill:#616776;}.cls-8{fill:#474a53;}.cls-9{fill:#878e9b;}.cls-10{fill:#3c3d46;}.cls-11{fill:#261c1b;}.cls-12{fill:#2698c9;}.cls-13{fill:#dcac93;}.cls-14{fill:#c7957e;}.cls-15{fill:#a67461;}.cls-16{fill:#5c3d34;}</style></defs><title>russel</title><path class="cls-1" d="M62.91,412H.09Q.09,207.87,0,3.73C0,.44,1,0,3.9,0Q206,.11,408.09,0C411,0,412,.4,412,3.72q-.17,204.14-.1,408.28H382c-.37-3,.92-6.16-.93-9-.65-3.55-2.08-7-1.12-10.76.4-1.55-.62-3.11-1.76-4.35a28,28,0,0,1-4.59-14.23c0-1.38-.06-3.36-1.5-4.55-.21-3.11.81-6.48-1.94-9a2.94,2.94,0,0,1-.09-.93c-.67-1-1.33-2.07-2-3.11,0-1-.06-1.93-.08-2.9.22-3.23.14-6.39-1.83-9.18-1.7-3.46-2.82-7.28-6.09-9.75.37-2.28.75-4.56-.89-6.56-2.06-6.55-4-13.14-6.23-19.64-1.86-5.45-4.37-10.7-6-16.21-2.35-7.91-5.17-15.25-13.69-18.49l-.07,0-.94-1c-4.37-3.28-8.57-6.84-13.72-8.93-4.92-2.19-9.91-4.25-14.76-6.61a23.11,23.11,0,0,0-12.35-2.59c-2.76-1.83-5.66-2.84-9-1.64-6.81-3.27-14.56-4-21.09-8l-2.13.17-6.66-3.23c-.65-3.64-4.55-4.6-6.16-7.51a96.05,96.05,0,0,0-22.06-26.44l.87-9.89q1.22-6.48,2.45-13c.86-1.25,1.86-2.46,1.16-4.15l5.58-12.75a4.34,4.34,0,0,0,4.1-2.95l-.06,0,1.12-1.05a21.3,21.3,0,0,0,7.58-14.41c.53-5.08.88-10.17,1.31-15.26a14.08,14.08,0,0,0,2.12-7.94c2.22-4.2,1.77-8.81,2-13.31l-.06-1.93a10.49,10.49,0,0,0-.42-5,70.83,70.83,0,0,0-8.17-27.27v-.46l-.39-.23-.2-1a2.38,2.38,0,0,0-.37-2.63c-.09-3.56-2.78-5.69-4.59-8.3a15.39,15.39,0,0,0-3.82-7.14l0,.05a1.17,1.17,0,0,0-.81-1.43c-3.83-3.5-6.8-8.51-13.19-7.53-1.32-1-2.23-2.63-4.16-2.67-1.26-1.43-3.17-1.54-4.74-2.35-1.1-1.37-2.3-2.56-4.26-2.41l-1.82-.53c-5-4.24-11.33-2.73-17-4l-4.48-.31L180.58,36c-4.62-.53-9.24-1.31-13.87,0l-2,.34-3,.17c-4,.75-8,1.68-11.38,4.3a8.68,8.68,0,0,0-4.59,1.58c-1.63.43-3.62.31-4,2.65a4.06,4.06,0,0,0-1.4.36c-7.19,5.19-14.35,10.2-22.55,14a30.28,30.28,0,0,0-14,13.47c-.65.48-1.73.86-1.88,1.46-1,4.29-3.44,7.82-5.43,11.62-.6,1.15-3.3,4.89.35,6.95a35,35,0,0,1-1.07,6.06c-.52,2-2.45,5.59,2.35,5.85,1.65.09,1.44,1.43,1.82,2.47.68,1.83,0,4,1.61,5.59,5,4.69,7.15,11.06,10.28,16.87q1.59,4.91,3.19,9.81c-.32,2.95-.75,5.89-.94,8.85-.35,5.63-.21,11.21,2.87,16.24l3.46,8.28a.51.51,0,0,0,.39.72l.88,2,.29,1,1.06,2.91c2,6.67,2.13,13.88,5.59,20.16a30.37,30.37,0,0,0,7.77,12.92c7.11,8.26,5.26,18.3,5.51,27.92l-.57,1.31c-.18.53-.35,1.07-.53,1.6L139.49,249a8.66,8.66,0,0,0-1.71,4.46l-.93,3-5.13,2.28c-.78-.11-1.57-.23-2,.72h0c-4.3.19-7.29,3.29-11,4.9l-4.94.37a53.37,53.37,0,0,0-11.26,5.43c-6.44,2-11.56,6.16-16.8,10.14l-1.15.64-.16.15a1.29,1.29,0,0,0-1.6.91l-3.93,2.56c-.55,0-1,.11-1,.82h0c-3.34.7-5.53,3.09-7.8,5.35-2,1.41-3.67,3-4.38,5.42l.2.15-.19-.17a1,1,0,0,0-.79,1.21A35.54,35.54,0,0,0,61,307.42a137.57,137.57,0,0,0-1.95,31.65l-.33,5c-1.38,3-1,6,.07,9-.52,5.79,1.08,11.42,1.28,17.16l.11,1.92c.12,4.55-.55,9.13.73,13.61-.26,1.36-.44,2.7.57,3.87l-.29,5.4,0,2,.31,1.29,0,0a.42.42,0,0,0,.07.67C61.05,403.45,63,407.62,62.91,412Z"/><path class="cls-2" d="M370,412H317.18c-3.54-10.37-8.34-20.53-9.05-31.52a190.69,190.69,0,0,0-2-19c-.38-2.34-.22-5.76-3.19-6.08-5.7-.61-5.92-4.64-6.78-8.73-1.16-5.48-2.58-10.91-4.06-16.31-.46-1.68-1-4.08-3.22-3.84-2.75.29-1.44,2.87-1.59,4.46-1,11,2.3,21.81,1.31,32.81-.16,1.74,1.2,2.15,2.61,2.32v2c-2.79,1.32-2.78,2.66,0,4,.12,5.71.29,11.42,2,16.94,0,1.68.08,3.36.11,5q1.45,9,2.89,17.89h-4c-2.37-8.28-4.72-16.57-7.13-24.84-.41-1.4-.92-2.87-2.7-3.19.47-5.27-2.14-9.89-3.13-14.86-.11-2.79.52-5.68-1.19-8.24-.46-.68-.94-1.5-1.93-1.19s-1,1.35-.81,2.08c.69,3.2,1,6.54,2.82,9.41l1.12,5.93c-1.63.06-2.05-1.39-2.89-2.32s-2-2.22-3.3-1.28c-1.65,1.21-.45,3.06.45,3.81,1.93,1.63,2.4,4.08,4,5.83,1.57,2.95,2.14,6.38,4.33,9-4.43-1.08-8.79-3.14-13.49-1.16a16.91,16.91,0,0,1-2.1-6.89c-1-1.45-.52-4.19-3.47-4a2.37,2.37,0,0,0-2.46,1.83c-2,5.55-6.36,8.21-12,9.12h0A25.22,25.22,0,0,1,250,370.34c2.83-5.29,5.38-10.12,3.38-16.19,1.77-5.25.32-7.84-7.65-13.48a7.06,7.06,0,0,0,1.64,5.51c-.27,2.23-2.47,3.3-3,5.55-3.22,13.88-5,27.77-1.89,41.93,1.23,5.67.9,5.95-5.06,6.37-.42-2.87-3.44-4.76-3-7.95,0-1,.23-2.13-.16-3-2.24-4.77-2.15-9.1-1.36-14.63,1.38-9.78,4.35-18.9,6.92-28.25.93-3.4,2.46-6.8,2.23-11.8-2.62,4.1-4.31,7.06-6.3,9.81-3.35,4.62-5.3,10-7.93,15-1.64,3.09-2.52,3-5,2.06-4.67-1.71-4.57-6.43-3.48-9,2.61-6.24,4.83-13,10.73-17.4a20.48,20.48,0,0,0,3.88-4.46c4.18-5.57,9.23-10.17,15.89-12.68,1.29,2.21-.33,4.69,1.47,6.44.82,10.47,7.86,16.92,15,23.28.37,1.89-.94,4.61,2,5.23,1.58.34,1.91-1.33,2-2.7a24,24,0,0,0,4-9.72c1-.33,1.07-1.2,1.28-2q6.3-11.19,12.59-22.4l1.08-1.64a21,21,0,0,0,3.91-6c7.6-10,14.6-20.64,25.88-27.17,7-1.86,13.88-2.77,20.08,2.32l0,0,1.07,1.33c.45.86,1.31,1.71.67,2.72-.84,1.32-1.63.22-2.44-.21a12.89,12.89,0,0,0-7.07-1.82c-2,.12-3.33,1.08-3,3.07.36,2.45.45,5.51,1.94,7.14,6.15,6.69,7.85,14.86,8.89,23.37-1.6.27-3.4-.19-4.68,1.28-3.39,4.45-3.29,8.35.3,12.23,2.65,2.88,5.46,4.24,8.83,1.05a6,6,0,0,1,.71-.25c6.18,2.93,9.65,8.76,14.11,13.49,1.64,1.73-.35,2.31-2.08,2.28-2.83-.05-5.49.23-5.21,4.14l-.22.42.22-.42c1.42-.28,2.61-3.15,4.14-.94s-1.2,1.37-1.9,2c-.87.84.48,1.82.57,2.79.25,2.74,4.06,4.95,2.48,7.34a25.64,25.64,0,0,0-2.75,6c-1.43,4.14-.67,5.33,3.8,4.38,2.83-.6,4.86.22,5.64,2.58,1.83,5.51,5.7,9.88,8,15.12.67,1.5.87,2.54-.6,3.29-5.16,2.63-5,6.21-2.33,10.63C369.13,408,369.41,410.12,370,412Zm-44.81-74.85a1.4,1.4,0,0,0,0-.76c1.82-.88,3.08,1.91,4.94.76a4.75,4.75,0,0,0,4.05-1.63c-2.73-2.35-5.07-4.52-4.15-8.93.57-2.75-2.09-4.79-5.25-4.46a56.35,56.35,0,0,0-6.7,1.53c-3.48,2.29.14,4.35.2,6.53.36,1.91.34,4,1.2,5.66s1.44,4.94,4.71,2.55C324.81,338.2,326,338.48,325.22,337.15Zm11.64,18.08c2.37-6.1,3-6.35,9-3.29-1.49-3.27-3.56-4.63-6.66-3.29C336.42,349.84,335.63,352,336.86,355.23Zm9.65,21.11c-.95-2.57.88-5.88-2-8.59C343.75,371.27,344.88,373.85,346.51,376.34Z"/><path class="cls-3" d="M193.53,412H167.61a17.69,17.69,0,0,0-1.52-8.68c-3.3-8.05-3.19-8.82,3.77-13.48,1-.66,2.32-1.75.6-2.51-6-2.68-3.53-7.66-3.41-11.89.1-3.58,2.08-7.07-1.86-10.3-1.59-1.29-.68-4.86-2.67-7.07-1-1.16.67-1.86,1.95-1.47,3.45,1.08,3.22-.55,2.49-3a20.06,20.06,0,0,1-.34-4.41c.07-.15.15-.29.23-.44l-.24.43-3.93,1,.94-5c1.5-.51,2.07-4.45,4.79-1.09.58.72,3.75.48,4.64-.4,2.24-2.24,4-1.07,6,.32.84-4.35.83-4.51-.33-9.56a45.66,45.66,0,0,0-3.78,3.05c-.91.91-1.44,2.2-2.36,3.1s-.55,3.31-2.45,2.09c-1.36-.88-.16-2.38.53-3.49,1.61-2.62,1.91-4.7-2-5.1l0-3.13q1.55-3.44,3.07-6.88c-.05-.27-.12-.54-.19-.81a.52.52,0,0,1,.45-.22c.38-.37,1.17-.42,1-1.24.41-4.6.89-9.16,4.55-12.58a26.37,26.37,0,0,0-.84,3.78c-.08,1-1.52,2.2-.22,3.05.86.57,2.4-.39,3.1-.24,4.47.95,6.22-.83,6.3-5.13,0-.51,1.18-1,1.81-1.48-.31,6.28,1.3,7.72,7.06,6.28,2.52-.43,3.16-3,5-4.29a12.43,12.43,0,0,0,0,1.93c.21,1.32-1.8,2.88.2,3.9,1.57.8,2.78-.05,3.51-1.62.43-.94,1.07-1.34,1.45,0,.75,2.67,3.07,1,4.5,1.71h2.46c4.94.57,4.73-3.28,5.44-6.34a2.39,2.39,0,0,1,2.07-1.48c2.09,1.53.76,3.17,0,4.64-.86,1.69-1.36,3,1.24,3.3-.29,2.5-1.79,3.76-4.19,4.07a10.3,10.3,0,0,0-2.69,10.76c3.54-3.77,5.94-3.75,7.1.06-1.73.1-2.94.82-3.24,2.66-1.15,1.12-4.33-1.2-4,2.38l0,0c-.72-1-1.32,0-2,.11a2,2,0,0,0-1.86-1.07c-3.62-2.85-2.07,2.94-4.46,2.48L202,334.6c-1.14,2.13-2.33,4.07-3.24,6.13-.78,1.76,0,2.6,2,2.49l3.74,0,1.92-.19c1.24,2,2.65.74,4,.21l5,1.08c-.33.73-.48,1.89-1,2.12-7.56,3.22-13.36,8.86-19.5,14-2.28,1.93-6,4.43-5,6.81,2,4.53.17,8.67.54,12.93.21,2.48,3,3.46,3,6.06,0,8.12,5.29,12,11.93,14.81l.05,2c-.16,1.07-.62,2.19-1.82,1.79-2-.65-4.13-.69-5.87-2.35s-4.4-2.43-6.3-.5-1.51,4.3.79,6C193.83,409,193.43,410.56,193.53,412Zm4.86-81.85a2.91,2.91,0,0,1,3,.09c2.66-.76,5.4-2.55,7.9,1.78v-8.36a2.27,2.27,0,0,0-.47-2.46l-2,.85c-1.21-3.11-3.48-.07-5.09-.87-2.52,1-5.53,6.58-4.69,8.89C197.07,330.24,197.91,330.13,198.39,330.15Zm-8.23,11.46a1.51,1.51,0,0,0-1.92-.72c-1.4.39-3.16,1.2-3.51-1.07-.28-1.87,1.1-3.08,2.84-3.5a20.51,20.51,0,0,1,2.92.06,1.49,1.49,0,0,0,1-.88,1.07,1.07,0,0,0-.91-1.45,6.78,6.78,0,0,0-7.56,3.47c-1.17,1.91-1.81,4.24.54,5.69C186.13,344.82,188.43,344,190.16,341.61Zm-3.33-11.87c-7.42-1.54-1.42-6.42-2.94-10.06-2.71,3.17-4.29,6.62-3.81,9.7C180.39,331.35,184,330.05,186.83,329.74Zm8-.38c-5.06-1.22-2.42-4.17-2-6.51.13-.75.92-1.54,0-2.21a1.61,1.61,0,0,0-1.33,0c-.77.31-3.45,8.68-2.87,9.13C190.49,331.18,192.45,330.53,194.83,329.36Zm-16.23-8.7c-3.64,2-3.77,5.43-4.85,8.4-.24.66,0,1.45.88,1.38a2,2,0,0,0,1.52-.94C177.05,326.58,177.8,323.61,178.6,320.66Zm14,23.15c4.14-1.94,3.28-5.89,4.74-8.83.07-.13-.51-.8-.87-.88a1.47,1.47,0,0,0-1.78,1.28C194,338.18,193.28,341,192.59,343.81Z"/><path class="cls-4" d="M370,412c-.62-1.88-.9-4-1.9-5.6-2.71-4.42-2.83-8,2.33-10.63,1.47-.75,1.27-1.79.6-3.29-2.3-5.24-6.17-9.61-8-15.12-.78-2.36-2.81-3.18-5.64-2.58-4.47,1-5.23-.24-3.8-4.38a25.64,25.64,0,0,1,2.75-6c1.58-2.39-2.23-4.6-2.48-7.34-.09-1-1.44-2-.57-2.79.7-.67,3.37.08,1.9-2s-2.72.66-4.14.94h0c-.28-3.91,2.38-4.19,5.21-4.14,1.73,0,3.72-.55,2.08-2.28-4.46-4.73-7.93-10.56-14.11-13.49,1.37-2.56,1.05-5.31.88-8l-.1.07c2.84,1.12,2.06,4,2.92,6.1.4,1,.43,2,1.8,1.69,1-.23,2.46,0,1.75-2.06-.49-1.41.87-.8,1.53-.86a.62.62,0,0,0,1.07.09l-.06-.06c.42,3.72,4.56,1.86,6,4,3.27,2.47,4.39,6.29,6.08,9.75-1,1.44-3,1.64-3.92,3.39-1.32,2.51-.76,3.86,2.25,4.55a32.56,32.56,0,0,1,3.51,1.24c0,1,0,1.94.08,2.9-.84,6-4.26,11.09-7.07,16.76,6.1.24,5.09-7.17,9.92-7.45.48,1-.5,2.83,1.18,3.77,1.44,1.19,1.47,3.17,1.5,4.55a28,28,0,0,0,4.59,14.23c-2.29,1.13-2.2,2.74-1.46,4.94.63,1.86,2.36,3.94.44,6-1.1,1.16-1.29,2.15-.35,3.45,1.21,1.65,2.61,1.8,4.25.74,1.85,2.84.56,6,.93,9Zm-10.12-42.2c1.42-3.27,1.46-5.2.29-7.67C359.05,365.39,359.05,365.39,359.91,369.8Z"/><path class="cls-3" d="M141.68,412h-3c-1.59-3.6-3.58-7.35-1.07-11.12,3.79-5.71,3.75-11.44-.67-16.85a12.52,12.52,0,0,1,.81-5.93c4.68-1.94,3.74-8.62,8.69-10.36a1.28,1.28,0,0,0-.06-.93c-2.11-3.16-.89-6.53-1-9.87-.17-3.52.36-7.51-1.83-10.82l.47-2.89c1.42-.4,2.14-1,.5-2.1l3.06-10.9c5.22,2.19,8,6.92,6.85,12.07-.41,1.81-1.21,3.55,0,5.23,1.58,2.2.92,4.38.25,6.6l-1,1c-3.49.32-3.68,3.44-3.75,5.57a60.09,60.09,0,0,0,1,14.06c1,4.61,1.15,8.54-1.71,12.7-3.33,4.84-.49,13.07,4.5,14.57v2c-3.35.69-6.7,1.39-6,6.07C145.57,410.56,142.3,407.21,141.68,412Z"/><path class="cls-5" d="M166.62,349.17a20.06,20.06,0,0,0,.34,4.41c.73,2.47,1,4.1-2.49,3-1.28-.39-3,.31-1.95,1.47,2,2.21,1.08,5.78,2.67,7.07,3.94,3.23,2,6.72,1.86,10.3-.12,4.23-2.62,9.21,3.41,11.89,1.72.76.39,1.85-.6,2.51-7,4.66-7.07,5.43-3.77,13.48a17.69,17.69,0,0,1,1.52,8.68h-13c-.4-5.13.65-10.17,1-15.26,1-15.72,2-31.43,7.06-46.54l3.93-1Z"/><path class="cls-2" d="M205.52,403c0-.65,0-1.31-.05-2-.21-2.8-4.37-3.06-3.94-6.42.81-6.26,7.42-9.15,12.64-5.3a51.82,51.82,0,0,1,6.76,5.78A15.68,15.68,0,0,0,231.42,400l1,1c.36,2.11-.66,4-1,6l-3,1c-2.88-1.3-6.35-4.65-7,2v2h-13C208,408.85,210.05,404.83,205.52,403Z"/><path class="cls-4" d="M291.23,366.13c-1.41-.17-2.77-.58-2.61-2.32,1-11-2.32-21.83-1.31-32.81.15-1.59-1.16-4.17,1.59-4.46,2.24-.24,2.76,2.16,3.22,3.84,1.48,5.4,2.9,10.83,4.06,16.31.86,4.09,1.08,8.12,6.78,8.73,3,.32,2.81,3.74,3.19,6.08a190.69,190.69,0,0,1,2,19c.71,11,5.51,21.15,9.05,31.52h-5c-.3-7.07-3.57-13.56-4-20.6-.07-1.35-.55-2.21-2-2.34a54,54,0,0,0-2.08-13.95c1.6-3.28-.36-6.52-.23-9.81,0-1.32-1.74-1.28-2.73-.46-2.41,2-3.41.43-4.36-1.54-.84-1.74-1.75-3.44-2.62-5.16,0-1,0-2,0-3,.89-3.57-1.12-6.78-1.38-10.25-.23-3-.45-6.43-2.51-9.4-1.19,3.64.06,15.72,2,20.62Z"/><path class="cls-6" d="M129.72,412h-10c-3.92-4.16-8.84-5.21-14.37-5.11-4,.07-5,1.55-3.58,5.11h-3c-.61-2.26-4.08-3.07-3.13-6.13,2.06-2.9.17-6,.37-8.93l2.72.07c-.21.76-.41,1.53-.62,2.29.27,0,.67.16.8,0,.8-.82,1.07-1.66-.17-2.36.48-2.25,1.4-4.45,1-6.83,3.64.09,5.27-1.57,5.15-5.32-.06-1.91.63-3.85,1-5.77,5.68,3.32,6.39,9.93,1.59,13.87-2.32,1.9-5.94,4-2.46,7.33,1.45,1.4,4.5,2.51,6.91,1.1,3.52-2.05,6.8-1.5,9.72.73,3.56,2.72,7.05,3,10.87.87.14,1.82,0,4.15-1.53,4.74C128.25,408.79,130,410.57,129.72,412Z"/><path class="cls-7" d="M129.72,412c.32-1.43-1.47-3.21,1.28-4.3,1.49-.59,1.67-2.92,1.53-4.74.87-10.63-.64-21.52,3.38-31.83a27.75,27.75,0,0,0,1.77-9.62c.14-13.29,4.52-25.58,8.3-38.07,2.14-7.07,6.88-13.18,7.43-20.78l3.29-.35c-1.44,5.81-4.75,11-5.72,17l-1.34,3.93a16.93,16.93,0,0,0-2.09,7l-3.06,10.9a2.07,2.07,0,0,0-.5,2.1c-.16,1-.31,1.93-.47,2.89-3.37,10.4-4.17,21.26-5.76,32A12.52,12.52,0,0,0,137,384c-1.59,9.26-2.81,18.54-2.25,28Z"/><path class="cls-2" d="M162.68,350.2c-5.05,15.11-6.05,30.82-7.06,46.54-.32,5.09-1.37,10.13-1,15.26h-3c-.93-3.06,2.4-5.06,2-8v-2c.19-3.7-3.51-7.64.69-11.08.07-.06,0-.34-.06-.47-2.22-3.89.11-7.68.29-11.51.38-8-.53-15.9-.93-23.84l1-1c4-.86,4.77-3.05,2.73-6.48-.57-.95-1.91-1.72-1.29-3,2.6-5.52,3.21-12.7,11.26-13.78l1.21.12,0,3.13c-3.36,1.74-6.05,7.76-5,11.08Z"/><path class="cls-3" d="M221.45,412v-2c2.52,0,5.12.31,7-2l3-1c6.88-1.71,12.81-5.87,19.62-7.66a39.18,39.18,0,0,0,6.88-2.57c2-1,3-1.9,3-4.73,0-3.17.66-7.31,5.38-7.94a16.91,16.91,0,0,0,2.1,6.89c-.67,1.76-.33,4.54-2.65,4.83-3.62.44-5.61,1.27-3.39,5.22-4.46,1.64-9,3.06-13.33,5-2.71,1.22-5.78,2.45-6.62,5.94Z"/><path class="cls-4" d="M262.34,401.05c-2.22-3.95-.23-4.78,3.39-5.22,2.32-.29,2-3.07,2.65-4.83,4.7-2,9.06.08,13.49,1.16l1.32,1.65c-.11,2.56-1,4.42-4,4.28l-.93,0c0-.29,0-.59,0-.89.07-2.46-1.52-3.07-3.65-3.58.25,2,1.45,2.75,2.7,3.45l1,1,1,1.06-.05-.06,1,1.05,0-.05c.11,2.51,1.16,4.71,2.17,6.94-3.33.34-6,1.55-7.13,5.05h-5c.18-.62.17-1.42.57-1.82,2.95-3,3-4.45-1.7-5.59C266.92,404,263.55,404.19,262.34,401.05Z"/><path class="cls-2" d="M262.34,401.05c1.21,3.14,4.58,3,6.84,3.54,4.67,1.14,4.65,2.6,1.7,5.59-.4.4-.39,1.2-.57,1.82H242.39c.84-3.49,3.91-4.72,6.62-5.94C253.32,404.11,257.88,402.69,262.34,401.05Z"/><path class="cls-5" d="M304.14,375.11a54,54,0,0,1,2.08,13.95h-1c-.49-1.31-1-2.62-2-5.34V412h-7q-1.44-8.94-2.89-17.89c1.67-.1,3.28-.17,4.31,1.6a2,2,0,0,0,2.5,1c1.16-.45,1.07-1.55,1.06-2.51-.05-5.75-.08-11.5-.22-17.25,0-1.07-1.3-2.36-.2-3.17C302.22,372.75,302.94,374.82,304.14,375.11Z"/><path class="cls-8" d="M61.2,395.06c.1-1.8.2-3.6.29-5.4.13-1.46.57-3,.26-4.36-.19-.86-.87-.34-.83.49-1.28-4.48-.61-9.06-.73-13.61l1.38.2c.34,1.34.44,2.89,2.44,2.78l.15,1.72a2.45,2.45,0,0,0,.77,2.68c3.95,3.18,5.83,7.71,8.29,12,2.16,3.72,1.19,8.5,4.59,11.57l.06,8.91h-2c-4.34-9.62-6.7-20.1-12.52-29.22A73,73,0,0,1,63.91,395Z"/><path class="cls-7" d="M63.91,395a73,73,0,0,0-.56-12.23c5.82,9.12,8.18,19.6,12.52,29.22h-11Z"/><path class="cls-4" d="M205.52,403c4.53,1.82,2.44,5.84,3,9h-15c-.1-1.44.3-3-1.21-4.07-2.3-1.68-2.65-4.09-.79-6s4.55-1.17,6.3.5,3.88,1.7,5.87,2.35C204.9,405.2,205.36,404.08,205.52,403Z"/><path class="cls-3" d="M279.19,398.09c3,.14,3.89-1.72,4-4.28.62-2.88-.83-5.27-1.88-7.75.85-.45,1-1.28,1.11-2.1,1.78.33,2.29,1.8,2.7,3.2,2.41,8.27,4.76,16.56,7.13,24.84h-4c-1.25-4.94-2.49-9.89-8-12l0,.05-1-1.05.05.06C279.25,398.74,279.22,398.42,279.19,398.09Z"/><path class="cls-5" d="M134.7,412c-.56-9.43.66-18.71,2.25-28,4.42,5.41,4.46,11.14.67,16.85-2.51,3.77-.52,7.52,1.07,11.12Z"/><path class="cls-6" d="M303.22,412V383.73c1,2.72,1.52,4,2,5.34q1.49,11.46,3,22.93Z"/><path class="cls-9" d="M77.87,412l-.06-8.91,1.06-.06h0c0,.82-.08,1.64-.07,2.46,0,5.65.12,5.53,5.21,3.76,3.81-1.33,7.39-3.65,11.68-3.37-1,3.06,2.52,3.87,3.13,6.13Z"/><path class="cls-3" d="M308.21,412q-1.5-11.46-3-22.93h1c1.43.13,1.91,1,2,2.34.42,7,3.69,13.53,4,20.6Z"/><path class="cls-5" d="M101.8,412c-1.45-3.56-.42-5,3.58-5.11,5.53-.1,10.45.95,14.37,5.11Z"/><path class="cls-9" d="M280.26,400c5.51,2.1,6.75,7.05,8,12h-3c.66-2.59-1.53-3.57-2.84-5.05C281.42,404.72,280.37,402.52,280.26,400Z"/><path class="cls-10" d="M63.91,395l1,17h-2c.07-4.38-1.86-8.55-1.35-13l.76-.46-.83-.21,0,0c.06-.15.2-.34.15-.46a6.19,6.19,0,0,0-.46-.83l0-2Z"/><path class="cls-2" d="M282.43,407c1.31,1.48,3.5,2.46,2.84,5.05h-10C276.39,408.5,279.1,407.29,282.43,407Z"/><path class="cls-4" d="M153.64,404c.42,2.93-2.91,4.93-2,8h-4c0-.64-.06-1.28-.08-1.92C146.94,405.4,150.29,404.7,153.64,404Z"/><path class="cls-5" d="M147.59,410.08c0,.64,0,1.28.08,1.92h-6C142.3,407.21,145.57,410.56,147.59,410.08Z"/><path class="cls-11" d="M145.76,42.34a8.68,8.68,0,0,1,4.59-1.58c4.24-.24,7.81-2.29,11.38-4.3l3-.17c.89,1.15,1.46.43,2-.34,4.63-1.28,9.25-.5,13.87,0,.76,1.4,1.78,2.25,3.49,1.65l4.48.31a58.24,58.24,0,0,0,17,4l1.82.53c.55,2.34,2.37,2.44,4.26,2.41,1.57.81,3.48.92,4.74,2.35.53,2.24,2.08,2.87,4.16,2.67,6.39-1,9.36,4,13.19,7.53a1.07,1.07,0,0,0,.81,1.43l0-.05c0,3.06.73,5.73,3.82,7.14,1.81,2.61,4.5,4.74,4.59,8.3a1.68,1.68,0,0,0,.37,2.63l.2,1c-.55,0-1.18-.11-1.3.71l1.68,0a70.83,70.83,0,0,1,8.17,27.27c-1.85.67-3.41,2.06-3.19,3.87s2.68-.38,3.61,1.1l.06,1.93c-4.22-.32-1.1,4.45-3.66,5.29,2.37,2.3.82,5.41,1.67,8a14.08,14.08,0,0,1-2.12,7.94l-1-.36c-.42-1.76-.76-3.54-1.29-5.26a6.64,6.64,0,0,0-5.66-4.86c-2.94-.42-4.58,1.31-5.57,3.85-2.14.12-3.69,1.53-5.46,2.46-3.34.15-5,1.73-5.22,5.24-.12,1.9-1.2,3.74-1.85,5.62-2.72.07-2.18,4.21-5.07,4.06,0-2.65.35-5.34-1-7.82.28-.8.57-1.59.85-2.38,1.38,0,2.76-.71,1.76-2-2.17-2.73-.84-5.12.57-7.12.9-1.27.19-1.76.14-2.73-.41-7-5.38-13.38-2.28-21,1.9-4.67.69-5.73-4.22-4.23-2.07.64-1.68-.65-2.27-1.24-1.47-1.49,0-1.32.89-1.53,1.76-.41,2.22-1.63,2.12-3.7-2.85,1.24-5.52,4.66-8.06-.43-.46-.93-5.65-4.16-8.41.16l-2.91.06-1-.93a1.55,1.55,0,0,0-1.94-.85c-.21-2.62-1.92-3.29-4.16-3.12a20.74,20.74,0,0,1-6.83-1,33.64,33.64,0,0,0-17.14,0c-.58.15-1.7-.83-1.6,1.21.21,4.19-1.87,5.28-5.67,3.23-3.19-1.72-6.75-2-8.63.88-3.73,5.65-9.65,7.89-15.15,10.24a29,29,0,0,0-9.5,6.77c-1,1-2.31,2.45-1.55,3.87a4.07,4.07,0,0,0,4.26,2c2.37-.52,4.83.06,6,1.45,2.12,2.53,4.56,2.2,7.15,2.22l1.23,2.64a5.17,5.17,0,0,0,4.76,4.32h0c0,2.53-.33,5.07.52,7.54l-.3,3.46c-1.14.56-1.38,1.22-.25,2a27,27,0,0,0-1.25,7.92c-.11.1-.31.22-.3.32a4.56,4.56,0,0,0,.22.78l-.15,2.79a1.7,1.7,0,0,0-1.17,2.51l-.58,2.53c-3.25.86-3.83,3.5-3.67,6.21s2.16,3.91,4.84,3.88c1.12,3.23,6.87,5.72,1.58,10-3.46.86-7.16,2.57-10.16-.6-3.49-3.69-3.85-7.61-1.55-12.63,1.64-3.58,4.33-7.54,2.75-12.1,1.09-3.43,2.33-6.82,3.22-10.3.56-2.2-.46-6-2.07-5.17-2.85,1.53-7.4,2.16-7.8,6.82-3.22-.32-4.45,2.55-5.25,4.42-1,2.41-2.82,3.35-4.62,4.61l-1.77-1,.17-3.83c1.2-.36,3.49,2.29,3.52-1.28.3-3.23,2-7.15-3.71-7.37-.77-2.79,1-5.9-1.12-8.5a6.18,6.18,0,0,0-2.17-5.6c-1.32-1.17-1.39,1.75-2.92,1.7-.24-4.29,3.43-9.55-1.13-12.53-3.45-2.25-4.7-6.85-9.06-7.7-5.8-1.13-2.91-4.38-1.8-7.18.47-1.19,3.42-2.13.31-3.62-.17-1.13-.92-2.7-.44-3.31,3.62-4.61,2.89-10.59,5.16-15.58a30.28,30.28,0,0,1,14-13.47c8.2-3.83,15.36-8.84,22.55-14a4.06,4.06,0,0,1,1.4-.36C143.6,44.85,145.07,44.18,145.76,42.34Zm85.57,71.32c-.24.38-.49.76-.7,1.15,0,0,.22.2.34.31l.54-1.28.94-1,2,3c.53-1.87.95-3.39,1.39-4.91s1.4-3.48-1.09-3.91-2.24,1.73-2.32,3.34c0,.81,0,1.63,0,2.46ZM182.56,53.94l-1-.78-.27.38,1.32.37c.57,4.56,4.31,3.82,7.26,4.41C187.89,56.05,186.42,53,182.56,53.94Zm-43.7,71.82c-4.48-5.55-10.34-5.07-15.75-5.6a2.87,2.87,0,0,0-3,3.24c.08,1.88,1.66,2.32,3.24,2.2,2.59-.21,5.35-.84,7.62.51C133.62,127.68,135.81,126.92,138.86,125.76Zm9.38-38.9c1.41-.52,4.4-.24,3.45-2.53a6.05,6.05,0,0,0-6.83-3.65c-1.29.28-3.2,1.78-2.6,3.13C143.25,86,145.8,86.47,148.24,86.86Zm36-8.88c-2.61-3.25-6.53-1-8.89-3.33-1.64-1.58-4.48-4.2-5.59-2.19-1.57,2.83,2.81,2.55,4.42,3.77A10.2,10.2,0,0,0,184.26,78ZM170.85,66.33c1,5.14,5,5.46,8.64,6.19C176.37,71,175.56,66.22,170.85,66.33Zm-33,13.11c-2.56-2.29-5.22-3.68-8.66-.88C132,81.27,134.84,81.16,137.8,79.44ZM206.62,54c0,1.46-.08,2.93,0,4.39.07,1,.55,2.07,1.72,2,1.41-.12.91-1.44,1-2.32C209.71,56.08,206.61,56.09,206.62,54Zm-41.21,6.27c3.93,1.33,6.53,2.31,10.09,2.28C171.34,60.41,170.31,60.16,165.41,60.25Z"/><path class="cls-11" d="M156.7,302.31l-3.29.35-13.72-4.19c-.18-1.18-1.08-1.68-2-2.15-3.75-3.47-6.14-8-9.14-12a57.76,57.76,0,0,1-3.87-17.55c-.15-3,.74-4.78,4.06-4.52,6,4.21,7,3.82,7.93-3.08.11-.9,1-1.77.2-2.74l.93-3c2.41,4.15.36,8.25-.72,13.05,2.74-2.16,3.84-4.16,3.56-6.83-.38-3.56-.75-7.12-1.13-10.68l1.29-5.55.53-1.6.57-1.31c.78,6.77,3,12.61,9.81,15.66,1,.44,1.45,2.1,2.15,3.2-.07,1.55-.59,3.24,1.31,4.17-.55,3.86.55,6.28,5,5.5,6.13-1.07,12.47-1.12,18.25-3.81-.06.83-3.78,6.23-4.53,6.46-2.59.81-5.19,1.58-8,2.44,1.16,2.09,4.49.15,4.71,3l-.9.42c-.66-.2-1,.1-1.19.71l-1.84.06a1.85,1.85,0,0,1-1-.22c-.3-.51-.64-.66-1.08-.14-2.62,0-4.83.68-6,3.31a2,2,0,0,0-.68,0c-.81-1.81-1.48-3.7-2.45-5.42-1.7-3-4.87-2.86-7.55-2.57-2.41.26-1.22,3-1.69,4.55-1.33,4.46,2,8.18,2.26,12.42-.64.13-1.4.25-1.42,1.06s.72,1,1.37,1.09l1.24,1.47c3.13,1.55,6.06,3.35,8,6.42Zm-17-11c.18.16.2,1,.63.16l-.69-.07c-.07-5.05-.24-10.1,2.4-14.7a1.48,1.48,0,0,0,.39-2.1l-1.37,1a30.21,30.21,0,0,0-2.2,2.62C134.42,284.81,134.43,284.82,139.7,291.29Z"/><path class="cls-12" d="M266.28,347.46c-7.17-6.36-14.21-12.81-15-23.28,0-3,.83-6.16-1.07-9l.21-2.92q3.56-10.87,7.12-21.75c1.14-1.92,3.05-3.62,1.77-6.22l.08-.08,1.37-.25-.51-.69c5.09-9.91,9.55-20.24,18.13-27.88l4.07-3c3.32-1.2,6.22-.19,9,1.64-2.21,2.61-5.54,4.1-7.18,7.25-1.34,1.08-3,1.92-2.93,4l-.94,1.19a134.29,134.29,0,0,0-18.16,36.65c-6.43,17.68-2,27.73,12.1,37a24,24,0,0,1-4,9.72Z"/><path class="cls-11" d="M59.06,339.07A137.57,137.57,0,0,1,61,307.42a35.54,35.54,0,0,1,3.91-10.11l.79-1.21.19.17-.2-.15a5.13,5.13,0,0,0,4.3-1.48c1.3-.34,3.34-2.36,2.82,1.3-.62,4.31-.24,8.63.06,12.94.07.95.07,2.19,1.43,2.17,1,0,1.22-1,1.19-1.85-.16-6.22,1.94-12,3.39-17.91l0,0c3.85-2.35,9.41-3.76,5.61-10.29l.16-.15c.73.41,1,0,1.15-.64,5.24-4,10.36-8.15,16.8-10.14,1.46,1.15.05,1.56-.59,2.08-16.73,13.61-21.07,32.87-24.09,52.74a11.94,11.94,0,0,0-3.88,3A72.9,72.9,0,0,1,59.06,339.07Z"/><path class="cls-4" d="M339.1,318.93c-1-8.51-2.74-16.68-8.89-23.37-1.49-1.63-1.58-4.69-1.94-7.14-.29-2,1.07-2.95,3-3.07a12.89,12.89,0,0,1,7.07,1.82c.81.43,1.6,1.53,2.44.21.64-1-.22-1.86-.67-2.72-.07-.67-.2-1.3-1.07-1.33l0,0c.7-4.36-3.18-4.52-5.55-6.07-.11-1.33-.22-2.67-.32-4,8.52,3.24,11.34,10.58,13.69,18.49,1.64,5.51,4.15,10.76,6,16.21,2.22,6.5,4.17,13.09,6.23,19.64.32,4.93-3.79.92-5.12,2.53l.06.06c0-.85.09-1.74-.7-2.37-.31-.58-.64-1.16-.93-1.75-1-2-1.1-4.08-1.36-6.23-.6-5.1-3.18.35-3.8-.53-.78-1.12-1.51-2.07-2.59-1.39-1.52,1,0,2.35.12,3.56s1.14,2.45.19,3.75l.1-.07C343.38,322.87,342.08,320.09,339.1,318.93Z"/><path class="cls-7" d="M77.89,324.94c3-19.87,7.36-39.13,24.09-52.74.64-.52,2-.93.59-2.08a53.37,53.37,0,0,1,11.26-5.43,25.11,25.11,0,0,1-1.15,3.69c-2.4,4.83-2.43,4.81,3.21,5.13-.52,2.22-2.35,2.5-4.16,2.83-.9.16-2.32-.25-2.37,1.06,0,.79.82,1.69,1.45,2.39a7.36,7.36,0,0,0,4.74,2.44c1.89.22,3.07,1,3.28,3-3.29-1.53-4.26.56-5.29,3.13-1,2.41-.85,4.75,1.58,5.33,3.95,1,8.33,2,12.1,1.12,2.66-.61,4.51-.64,6.67.53a6.72,6.72,0,0,0,3.78,1c.94.47,1.84,1,2,2.15a13,13,0,0,1-8,1.74l0,.05c-.36-.95-1.23-1-2.05-1.21-1.42-2.33-3.77-1.87-5.84-1.73-5.7.37-11.18-.74-16.65-2.07-3.52-.86-5.58-2.44-2.69-6.15.61-.78,1.52-1.71.65-2.61-3.09-3.22-2.29-7.32-2.41-11.75l-4,3.73c-1.49.42-2,1.59-2.15,3l-.86,1.84,0,.08a1.8,1.8,0,0,0-1,1.94l-.1,0C87.55,296.82,85.83,310,83.75,323c1.62,1.81,3.21,4.19,1.69,6.21-1.83,2.43-2.1-2.49-4.09-1.57A1.45,1.45,0,0,0,81,328Z"/><path class="cls-11" d="M224.32,207.4a96.05,96.05,0,0,1,22.06,26.44c1.61,2.91,5.51,3.87,6.16,7.51a3.4,3.4,0,0,1-2.2,4.07l-1.75,1.4c-.44-3.32-2.78-3.47-5.41-3.44-1.51,0-4,.91-3.15-2.5.34-1.31-.62-2.18-1.94-2.22-1.63-.06-1.66,1.24-1.69,2.4s0,2.28.06,3.42c-1.85,11.09-10.44,16.76-18.44,22.9l-.28-3c6.25-5.26,12.54-10.49,14.69-18.94,2.15-1.55,1.72-4.18,2.57-6.27.65-1.58.1-2.58-1.7-2.68-1.44-.07-2.74.16-2.81,2-.08,2-.05,4-.07,6l-3,2a1.81,1.81,0,0,1-.55-2.59c2.53-3.93,1.89-8.47,2.49-12.75.49-3.55-.23-6.29-4.79-3.38-1.82,1.17-3.22,1.16-2.47-1.78.36-1.39-1.42-1.63-1.88-2.65.6-2.44,2.59-4.4,2.46-7.09C224.27,213.45,223,210.18,224.32,207.4Z"/><path class="cls-11" d="M284.22,261.34c1.64-3.15,5-4.64,7.18-7.25a23.11,23.11,0,0,1,12.35,2.59c4.85,2.36,9.84,4.42,14.76,6.6,2.35,4,5.75,7.3,6.73,12-1.08,2.07-4.6-.28-5.13,2.81l-1.88.11a2.63,2.63,0,0,0-1.86-2.63c-3.35-.8-7-.81-8.16-5.32-.36-1.41-2.56-.92-4-.37.72-2.72,3.83-3.75,4.94-6.64-2.44-.31-4,1-5.82,1.67-2.84-2.6-5.47,1.42-8.08.34-3.78-1.57-5,.88-6.37,5.1-.48-3.15-.72-4.68-1-6.56-4,6.82-4.84,7.09-7.54,2.77l.94-1.19c1.09,1.4,2.26,1.13,3.29,0C285.86,264,284.86,262.64,284.22,261.34Z"/><path class="cls-13" d="M247.46,133.63l1,.36c-.43,5.09-.78,10.18-1.31,15.26a21.3,21.3,0,0,1-7.58,14.41l-1.12,1.05.06,0c-2-.24-3.51.37-4.26,2.37l-6.63-.49a9.22,9.22,0,0,0-4.13-2.47,6.9,6.9,0,0,1-.65-6.39c1-2.9,2.07-5.91,1.52-9.12.37-1,.74-1.93,1.12-2.9,1.51-.7,3.15-1.7,4.38.24a4.24,4.24,0,0,1-.28,5.12c-1.11,1.44-1.61,3.14-.73,4.63,1,1.73,3.2,1.38,4.51.71,2.32-1.17,3.15.82,4.88,1.86.1-1.61.19-2.9.27-4.19,2.69-.89,3.21-2.93,2.9-5.42,0-4.13-3.54-6.14-5.42-9.14.48-1.39,2.74-.13,3-2.16a5.07,5.07,0,0,1-3.55-4.65,2.93,2.93,0,0,0,.07-1l-.06.06,1-1,1-1a2.72,2.72,0,0,1,3,2c1.71,2.76-.73,6.81,2.82,9l.11.18a4.39,4.39,0,0,0,2,4.23v-4.35C246.32,138.46,245.43,135.62,247.46,133.63Z"/><path class="cls-10" d="M153.85,259.39c-.71-1.1-1.16-2.76-2.16-3.2-6.86-3.05-9-8.89-9.81-15.66-.25-9.62,1.6-19.66-5.51-27.92h4.44c.34,5,3.93,9.11,3.87,14.25,0,2.89-.59,6.09,3,7.59.2,1.27-.62,3.78,2.23,1.84,1.45,1.83,1,4.53,2.79,6.18l0-.09c.11,1.44-.4,3.06,1.18,4.08,1,1.12,2,2.4,3.8,1.92.18,1.44-.51,3.15,1.27,4.09,0,1.48,0,3,0,4.46C158.39,260.16,155.86,259.23,153.85,259.39Z"/><path class="cls-10" d="M99.06,91.74c3.11,1.49.16,2.43-.31,3.62-1.11,2.8-4,6,1.8,7.18,4.36.85,5.61,5.45,9.06,7.7,4.56,3,.89,8.24,1.13,12.53,1.53,0,1.6-2.87,2.92-1.7a6.18,6.18,0,0,1,2.17,5.6c-.72,1.83-.19,5.32-4,3-3.13-5.81-5.33-12.18-10.28-16.87-1.62-1.54-.93-3.76-1.61-5.59-.38-1-.17-2.38-1.82-2.47-4.8-.26-2.87-3.84-2.35-5.85a35,35,0,0,0,1.07-6.06l0,0c1,.26,1.12-.57,1.5-1.11l.39,0Z"/><path class="cls-12" d="M77.89,324.94,81,328c-.08.42-.15.83-.22,1.24-1.08,2.21-3.31,3.31-4.86,5.07A5.63,5.63,0,0,0,73,337.22l-.11.08-.88.89-.08.11c-3.27,3-7.48,5-10,8.81-3.8,1.87-2.76-1.33-3.17-3l.33-5a72.9,72.9,0,0,0,15-11.16A11.94,11.94,0,0,1,77.89,324.94Z"/><path class="cls-7" d="M128.72,262.23c-3.32-.26-4.21,1.53-4.06,4.52a57.76,57.76,0,0,0,3.87,17.55c-1.39,0-2.79,0-2.81,1.9,0,3.34-1.19,3.34-3.31,1.3a28.56,28.56,0,0,0-2.69-2.06c1-5.79,6-11.3.76-17.58-1.51-.08-1.63,2.47-3.33,2.75-3-3,2.37-3.86,1.62-6.29,3.67-1.61,6.66-4.71,11-4.9Z"/><path class="cls-3" d="M259.2,244.58l2.13-.17c-.2,2.37.12,4.2,3.23,4.12,1.73-.05,2.5,1.65,2.89,2.92s-1.95.76-2.19,2c-5.66,3.94-12.24,3.59-18.66,4-.08-.35-.15-.71-.22-1.07l0,0,1-1h0l1-1h0a1.69,1.69,0,0,0,2-1h0c3.44-.05,6-1.11,6.63-5C257.22,247,258.43,245.84,259.2,244.58Z"/><path class="cls-13" d="M224.32,207.4c-1.35,2.78,0,6-1.63,8.77-.41-3.73-1.28-7.49-1.11-11.2a111.66,111.66,0,0,1,2.14-19.44c.74-3.27-1.34-8,3.56-9.86,2.08,1.06-4,4.77,1.52,4.72.7,1.69-.3,2.9-1.16,4.16-3.88,3.74-3.2,8.34-2.45,13Z"/><path class="cls-9" d="M117.14,143.82c0,1.28-.11,2.55-.17,3.83-.68,5.65,1.07,11.32,0,17-3.08-5-3.22-10.61-2.87-16.24.19-3,.62-5.9.94-8.85,1.15-1.23.41-3.3,2-4.36,5.68.22,4,4.14,3.71,7.37C119,141.64,116.65,138.82,117.14,143.82Z"/><path class="cls-12" d="M325.24,275.29c-1-4.71-4.38-8.06-6.73-12,5.15,2.1,9.35,5.66,13.73,8.94l.93,1,.07,0c.1,1.33.21,2.67.33,4l-7.86.72C326,277,326.27,276.05,325.24,275.29Z"/><path class="cls-5" d="M265.26,253.48c.24-1.27,2.61-.64,2.19-2s-1.16-3-2.89-2.92c-3.11.08-3.43-1.75-3.23-4.12,6.53,4,14.28,4.77,21.09,8l-4.07,3c-.36-2.37-2.2-2-3.79-2C271.46,253.43,268.36,253.46,265.26,253.48Z"/><path class="cls-8" d="M228.8,180.39c-5.54.05.56-3.66-1.52-4.72.88-1.87-.39-3.28-1-4.82,1.63-1,1.14-2.78,1.35-4.28l6.63.48a.38.38,0,0,0,.16.59Z"/><path class="cls-10" d="M116.93,164.62c1.11-5.65-.64-11.32,0-17l1.77,1c-.32,4.84,0,9.54,2.85,13.73a6.23,6.23,0,0,1,1.12,4.23c-1.82,1.77-.51,4.09-1.06,6.08l-1.26.18Z"/><path class="cls-3" d="M372.09,369.11c-1.68-.94-.7-2.74-1.18-3.77-4.83.28-3.82,7.69-9.92,7.45,2.81-5.67,6.23-10.72,7.07-16.76.67,1,1.33,2.08,2,3.11-.71.38-.76.7.09.93C372.9,362.63,371.88,366,372.09,369.11Z"/><path class="cls-8" d="M99.06,91.74l-.38.07-.39,0c-1.07-.4-1.88-.46-1.5,1.11l0,0c-3.65-2.06-.95-5.8-.35-6.95,2-3.8,4.41-7.33,5.43-11.62.15-.6,1.23-1,1.88-1.46-2.27,5-1.54,11-5.16,15.58C98.14,89,98.89,90.61,99.06,91.74Z"/><path class="cls-8" d="M140.81,212.61h-4.44a30.37,30.37,0,0,1-7.77-12.92,2.41,2.41,0,0,1,2.32-1.12c.94.48,1.25,1.41,1.79,2.24,1.91,2.93,3,6.65,7.07,7.63,0,1.22-.23,2.49,1.22,3.13C140.94,211.92,140.87,212.26,140.81,212.61Z"/><path class="cls-7" d="M130.93,198.57a2.42,2.42,0,0,0-2.33,1.12c-3.46-6.28-3.56-13.49-5.59-20.16l2.45.28C127,186.14,130.5,191.91,130.93,198.57Z"/><path class="cls-5" d="M60.08,370.26c-.2-5.74-1.8-11.37-1.28-17.15l3.2.09q1.05,6.9,2.09,13.8c-.67,1.43-3.31.83-3.18,3.08A6.16,6.16,0,0,1,60.08,370.26Z"/><path class="cls-8" d="M128.72,262.23l1-2.81h0a1.7,1.7,0,0,0,2-.72l5.13-2.28c.8,1-.09,1.84-.2,2.74C135.74,266.05,134.71,266.44,128.72,262.23Z"/><path class="cls-3" d="M381.06,403c-1.64,1.06-3,.91-4.25-.74-.94-1.3-.75-2.29.35-3.45,1.92-2,.19-4.12-.44-6-.74-2.2-.83-3.81,1.46-4.94,1.14,1.24,2.16,2.8,1.76,4.35C379,396,380.41,399.45,381.06,403Z"/><path class="cls-6" d="M259.2,244.58c-.77,1.26-2,2.45-2.22,3.81-.67,3.9-3.19,5-6.63,5-.14-1.43,1.09-1.83,1.88-2.6,1.23-1.2,3.47-2.15,2.85-4.16-.72-2.34-3.19-.57-4.74-1.22a3.4,3.4,0,0,0,2.2-4.07Z"/><path class="cls-11" d="M78.93,284.52,82.86,282c-.32,2.75,0,5.74-3.62,6.89a1.61,1.61,0,0,0-.39,2.49l0,0c-2.06-.37-1.21,2.87-3.2,2.63-.29-1.41,1.66-3.88-1.81-3.62,1-1.95,3.4-2.71,4-4.95h0Z"/><path class="cls-8" d="M118.77,264.32c.75,2.43-4.57,3.29-1.63,6.29l-1.25,2.91c-5.64-.33-5.61-.31-3.21-5.14a25.11,25.11,0,0,0,1.15-3.69Z"/><path class="cls-3" d="M368,353.13a32.56,32.56,0,0,0-3.51-1.24c-3-.69-3.57-2-2.25-4.55.91-1.75,2.9-1.95,3.92-3.39C368.12,346.74,368.2,349.9,368,353.13Z"/><path class="cls-8" d="M250.55,126.05c-.85-2.61.7-5.72-1.67-8,2.56-.84-.56-5.61,3.66-5.29C252.32,117.24,252.77,121.85,250.55,126.05Z"/><path class="cls-8" d="M205.57,41.92a58.24,58.24,0,0,1-17-4C194.24,39.19,200.57,37.68,205.57,41.92Z"/><path class="cls-8" d="M117,135.17c-1.54,1.06-.8,3.13-2,4.36q-1.6-4.91-3.19-9.81c3.83,2.27,3.3-1.22,4-3C117.92,129.27,116.18,132.38,117,135.17Z"/><path class="cls-3" d="M62,353.2l-3.2-.09c-1.11-3-1.45-6-.07-9,.41,1.68-.63,4.88,3.17,3,1.77-.89,2,.21,2,1.57C62.27,349.78,63.51,352.06,62,353.2Z"/><path class="cls-10" d="M139.49,249c.38,3.56.75,7.12,1.13,10.68.28,2.67-.82,4.67-3.56,6.83,1.08-4.8,3.13-8.9.72-13.05A8.66,8.66,0,0,1,139.49,249Z"/><path class="cls-9" d="M78.85,291.34a1.61,1.61,0,0,1,.39-2.49c3.57-1.15,3.3-4.14,3.62-6.89a1.29,1.29,0,0,1,1.6-.91C88.26,287.58,82.7,289,78.85,291.34Z"/><path class="cls-7" d="M354.05,330.17c1.33-1.61,5.44,2.4,5.12-2.53,1.64,2,1.26,4.28.89,6.56C358.61,332,354.47,333.89,354.05,330.17Z"/><path class="cls-8" d="M161.73,36.46c-3.57,2-7.14,4.06-11.38,4.3C153.69,38.14,157.68,37.21,161.73,36.46Z"/><path class="cls-9" d="M225.19,197.51c-.75-4.62-1.43-9.22,2.45-13C226.82,188.86,226,193.19,225.19,197.51Z"/><path class="cls-10" d="M125.45,179.81l-2.44-.28L122,176.62c.09-.12.29-.31.27-.34a5.4,5.4,0,0,0-.56-.61l-.88-2h1.09C125.5,174.28,125,177.3,125.45,179.81Z"/><path class="cls-8" d="M252.48,110.81c-.93-1.48-3.39.69-3.61-1.1s1.34-3.2,3.19-3.87A10.49,10.49,0,0,1,252.48,110.81Z"/><path class="cls-8" d="M77.88,285.35c-.6,2.24-3,3-4,4.95L71,291.49l-1-.79C72.35,288.44,74.54,286.05,77.88,285.35Z"/><path class="cls-8" d="M238.35,65.93c-3.09-1.41-3.83-4.08-3.82-7.14A15.39,15.39,0,0,1,238.35,65.93Z"/><path class="cls-8" d="M70,294.64a5.13,5.13,0,0,1-4.3,1.48c.71-2.41,2.42-4,4.38-5.42l1,.79C71.11,292.68,68.06,292.84,70,294.64Z"/><path class="cls-8" d="M145.76,42.34c-.69,1.84-2.16,2.51-4,2.65C142.14,42.65,144.13,42.77,145.76,42.34Z"/><path class="cls-8" d="M211.65,44.86c-1.89,0-3.71-.07-4.26-2.41C209.35,42.3,210.55,43.49,211.65,44.86Z"/><path class="cls-8" d="M220.55,49.88c-2.08.2-3.63-.43-4.16-2.67C218.32,47.25,219.23,48.89,220.55,49.88Z"/><path class="cls-14" d="M234.38,167.64a.38.38,0,0,1-.16-.59c.75-2,2.27-2.6,4.26-2.36A4.34,4.34,0,0,1,234.38,167.64Z"/><path class="cls-7" d="M60.92,385.79c0-.83.64-1.35.83-.49.31,1.37-.13,2.9-.26,4.36C60.48,388.49,60.66,387.15,60.92,385.79Z"/><path class="cls-8" d="M184.07,37.63c-1.71.6-2.73-.25-3.49-1.65Z"/><path class="cls-7" d="M60.08,370.26a6.16,6.16,0,0,0,.83-.18c.32.68.65,1.36,1,2.05l-.33.25-1.37-.2C60.15,371.54,60.12,370.9,60.08,370.26Z"/><path class="cls-8" d="M243.31,76.86a1.68,1.68,0,0,1-.37-2.63A2.38,2.38,0,0,1,243.31,76.86Z"/><path class="cls-8" d="M166.71,36c-.56.77-1.13,1.49-2,.34Z"/><path class="cls-7" d="M131.72,258.69a1.7,1.7,0,0,1-2,.72C130.15,258.46,130.94,258.58,131.72,258.69Z"/><path class="cls-8" d="M243.89,78.57l-1.68,0c.12-.82.75-.69,1.3-.71l.39.23Z"/><path class="cls-9" d="M85.77,280.26c-.17.6-.42,1.05-1.15.64Z"/><path class="cls-7" d="M121.66,175.67a5.4,5.4,0,0,1,.56.61s-.18.22-.27.34Z"/><path class="cls-7" d="M121.87,173.62h-1.09a.51.51,0,0,1-.39-.72l1.26-.18A5.38,5.38,0,0,0,121.87,173.62Z"/><path class="cls-14" d="M238.42,164.71l1.12-1.05Z"/><path class="cls-10" d="M141.31,241.84c-.17.53-.35,1.07-.53,1.6C141,242.91,141.13,242.37,141.31,241.84Z"/><path class="cls-4" d="M333.17,273.26l-.93-1Z"/><path class="cls-8" d="M78.93,284.52l-1,.82C77.9,284.63,78.38,284.52,78.93,284.52Z"/><path class="cls-4" d="M370.15,360.07c-.85-.23-.8-.55-.09-.93A2.94,2.94,0,0,0,370.15,360.07Z"/><path class="cls-8" d="M65.71,296.1l-.79,1.21A1,1,0,0,1,65.71,296.1Z"/><path class="cls-8" d="M61.23,397.05a6.19,6.19,0,0,1,.46.83c.05.12-.09.31-.15.46C61.43,397.91,61.33,397.48,61.23,397.05Z"/><path class="cls-8" d="M61.49,398.36l.83.21-.76.46A.42.42,0,0,1,61.49,398.36Z"/><path class="cls-8" d="M234.55,58.84a1.07,1.07,0,0,1-.81-1.43A1.17,1.17,0,0,1,234.55,58.84Z"/><path class="cls-4" d="M257.51,290.55q-3.57,10.88-7.12,21.75c-4.89-1.89-8.49,0-9.45,4.91-.45,2.32.86,2.07,2.25,1.57,2.47-.89,4.21-3.24,7-3.56,1.9,2.8,1.1,5.93,1.07,9-1.8-1.75-.18-4.23-1.47-6.44-6.66,2.51-11.71,7.11-15.89,12.68a20.48,20.48,0,0,1-3.88,4.46c-5.9,4.35-8.12,11.16-10.73,17.4-1.09,2.6-1.19,7.32,3.48,9,2.49.92,3.37,1,5-2.06,2.63-5,4.58-10.38,7.93-15,2-2.75,3.68-5.71,6.3-9.81.23,5-1.3,8.4-2.23,11.8-2.57,9.35-5.54,18.47-6.92,28.25-.79,5.53-.88,9.86,1.36,14.63.39.83.13,2,.16,3-3.92.32-6.8-2-9.81-3.95-1.36-.88-2.77-1.13-4.07,0-1.68,1.5-.09,2.75.6,3.82a9.56,9.56,0,0,0,4.65,3.39c2.24.93,5.37,1.22,5.68,4.66a15.68,15.68,0,0,1-10.49-4.92,51.82,51.82,0,0,0-6.76-5.78c-5.22-3.85-11.83-1-12.64,5.3-.43,3.36,3.73,3.62,3.94,6.42-6.64-2.79-12-6.69-11.93-14.81,0-2.6-2.8-3.58-3-6.06-.37-4.26,1.44-8.4-.54-12.93-1-2.38,2.69-4.88,5-6.81,6.14-5.18,11.94-10.82,19.5-14,.54-.23.69-1.39,1-2.12,1.82-1.32,3.72-2.57,4-5.08a11.61,11.61,0,0,0,8-7.81,6.31,6.31,0,0,0,4.31-2c2-2.17-.16-3.33-1.16-4.42-1.56-1.69-2,0-2.47,1.23l-3.52.56.31-1a1.12,1.12,0,0,0-.25-1.55c-.39-.65-.88-1-1.51-.33-4.17,4.13-5.87,1.68-6.9-2.58,2.4-.31,3.9-1.57,4.19-4.07l2.41-2.22c2.8.9,4.68-1,6.49-2.47,1.2-.93,3.92-.76,3.52-2.63a4.43,4.43,0,0,0-4.63-3.52l.06.05c-1-2.75-3.37-5.62,1.68-7.16a154.14,154.14,0,0,0,20.31-7.67C252.35,290.67,254.77,288.47,257.51,290.55Z"/><path class="cls-4" d="M266.28,384.11c-4.72.63-5.4,4.77-5.38,7.94,0,2.83-.95,3.77-3,4.73a39.18,39.18,0,0,1-6.88,2.57c-6.81,1.79-12.74,5.95-19.62,7.66.33-2,1.35-3.87,1-6,1.84.53,4,2.61,5-1,6-.42,6.29-.7,5.06-6.37-3.08-14.16-1.33-28.05,1.89-41.93.53-2.25,2.73-3.32,3-5.55,2.95,1.41,3.91,4.2,3.76,7-.19,3.37,1.42.92,2.25,1,2,6.07-.55,10.9-3.38,16.19a25.22,25.22,0,0,0-1.61,20.72c-.72.12-1.57.09-1.51,1.19a.48.48,0,0,0,.31.31c1.1.07,1.07-.79,1.19-1.51,5.62-.91,10-3.57,12-9.12a2.37,2.37,0,0,1,2.46-1.83C265.76,379.92,265.26,382.66,266.28,384.11Z"/><path class="cls-8" d="M274.29,340.27c-14.11-9.32-18.53-19.37-12.1-37,2.21,1.46,3.91.65,4.78-1.51a15.85,15.85,0,0,1,4.63-6.1c1.67-1.47,3.82-3,3.41-6.68-.33-2.87,2.23-6.75,6.31-7.78-.3.19-.59.39-.88.59-.11,1.25-.45,2.54.69,3.55-5.51,8.13-8.33,17-7.48,26.91-4,5.42,2.44,5,4.67,7.43-2.81.71-5.47,1.17-5,4.57l-5.18-2.95c-1.32-.31-.39-3.66-2.86-2.25-1.66.94-2.12,2.26-.73,4.09a31.67,31.67,0,0,1,3.46,5.9c1.22,2.62,4.06.24,5.14,1.67,1.39,1.85-2.09,4.32.21,6.41a11.05,11.05,0,0,0,2.17,1.19C275.36,339.07,275.26,339.94,274.29,340.27Z"/><path class="cls-8" d="M318.24,278.21l1.87-.1c0,.44.05.87.08,1.31L319,281.05c-11.28,6.53-18.28,17.14-25.88,27.17-4.18.13-5.19,2.31-3.91,6-.36.55-.72,1.1-1.09,1.64-1.23-2.13-3.19-2.73-5.47-2.67,1.22-2.34,3.11-4.57,3.53-7.05,1.85-10.85,9.66-15.81,18.63-19.81.42-.19,1-.39.54-1.6-1.95-1.22-4.25-2.75-6.64-4.1-.9-.52-2.2-1-1.1-2,2.4-2.21,2.88-5.85,5.88-7.53a2.73,2.73,0,0,1,1.6,1.76C307,278.36,312.4,280.55,318.24,278.21Z"/><path class="cls-3" d="M304.14,375.11c-1.2-.29-1.92-2.36-3.34-1.31-1.1.81.17,2.1.2,3.17.14,5.75.17,11.5.22,17.25,0,1,.1,2.06-1.06,2.51a2,2,0,0,1-2.5-1c-1-1.77-2.64-1.7-4.31-1.6,0-1.68-.07-3.36-.11-5,1.71-1.89.68-4,.53-6.05-.61-8.3-1.45-16.62.43-24.88.87,1.72,1.78,3.42,2.62,5.16.95,2,1.95,3.54,4.36,1.54,1-.82,2.77-.86,2.73.46C303.78,368.59,305.74,371.83,304.14,375.11Z"/><path class="cls-7" d="M282.68,313.19c2.28-.06,4.24.54,5.47,2.67q-6.28,11.2-12.58,22.4a11.05,11.05,0,0,1-2.17-1.19c-2.3-2.09,1.18-4.56-.21-6.41-1.08-1.43-3.92.95-5.14-1.67a31.67,31.67,0,0,0-3.46-5.9c-1.39-1.83-.93-3.15.73-4.09,2.47-1.41,1.54,1.94,2.86,2.25,1.57,4.44,3.87,7.81,9.53,6.71-.38-2.81-3.2-2.28-4.35-3.76-.51-3.4,2.15-3.86,5-4.57-2.23-2.42-8.63-2-4.67-7.43C276.18,317.2,276.3,317.22,282.68,313.19Z"/><path class="cls-3" d="M237.41,400c-1,3.61-3.16,1.53-5,1l-1-1c-.31-3.44-3.44-3.73-5.68-4.66a9.56,9.56,0,0,1-4.65-3.39c-.69-1.07-2.28-2.32-.6-3.82,1.3-1.16,2.71-.91,4.07,0,3,2,5.89,4.27,9.81,3.95C234,395.27,237,397.16,237.41,400Z"/><path class="cls-7" d="M318.09,323.66a56.35,56.35,0,0,1,6.7-1.53c3.16-.33,5.82,1.71,5.25,4.46-.92,4.41,1.42,6.58,4.15,8.93a4.75,4.75,0,0,1-4.05,1.63c-.06-2.49-2.43-3.36-3.55-5.1C324.38,328.59,319.86,327.53,318.09,323.66Z"/><path class="cls-15" d="M343.55,333.49c-3.37,3.19-6.18,1.83-8.83-1.05-3.59-3.88-3.69-7.78-.3-12.23a5.79,5.79,0,0,0,4.16,3c3.47.79,4.87,3.15,2.65,6.6-1.84-1.44-2.39-4.24-5-5.05-.48,5.13.61,6.2,5,5.14Z"/><path class="cls-5" d="M294.2,358.14c-1.88,8.26-1,16.58-.43,24.88.15,2.09,1.18,4.16-.53,6.05-1.75-5.52-1.92-11.23-2-16.94l0-4v-2l1-10a2,2,0,0,1,1.91-1C294.19,356.16,294.19,357.15,294.2,358.14Z"/><path class="cls-10" d="M343.55,333.49l-2.34-3.64,0-.09c2.22-3.45.82-5.81-2.65-6.6a5.79,5.79,0,0,1-4.16-3c1.28-1.47,3.08-1,4.68-1.28,3,1.16,4.28,3.94,6,6.27.17,2.73.49,5.48-.88,8A6,6,0,0,0,343.55,333.49Z"/><path class="cls-8" d="M318.09,323.66c1.77,3.87,6.29,4.93,8.5,8.39,1.12,1.74,3.49,2.61,3.55,5.1-1.86,1.15-3.12-1.64-4.94-.76-.44-4.13-3.34-5.54-6.91-6.2C318.23,328,314.61,326,318.09,323.66Z"/><path class="cls-3" d="M253.37,354.15c-.83-.07-2.44,2.38-2.25-1,.15-2.78-.81-5.57-3.76-7a7.06,7.06,0,0,1-1.64-5.51C253.69,346.31,255.14,348.9,253.37,354.15Z"/><path class="cls-9" d="M319,281.05l1.16-1.63,5.52-1.4,7.86-.72c2.36,1.55,6.24,1.71,5.54,6.07C332.91,278.28,326,279.19,319,281.05Z"/><path class="cls-3" d="M277.54,383.14c-1.58-1.75-2.05-4.2-4-5.83-.9-.75-2.1-2.6-.45-3.81,1.29-.94,2.4.31,3.3,1.28s1.26,2.38,2.89,2.32c.91,2.09,2,4.19-.25,6.15Z"/><path class="cls-7" d="M318.29,330.19c3.57.66,6.47,2.07,6.91,6.2a1.4,1.4,0,0,1,0,.76l-1,1.25c-3.27,2.39-3.88-.95-4.71-2.55S318.65,332.1,318.29,330.19Z"/><path class="cls-5" d="M279.05,383.25c2.24-2,1.16-4.06.25-6.15-.37-2-.75-4-1.12-5.93a2.39,2.39,0,0,1,1.11-2.06c1,5,3.6,9.59,3.13,14.86-.15.81-.26,1.64-1.11,2.09Z"/><path class="cls-3" d="M279.29,369.11a2.39,2.39,0,0,0-1.11,2.06c-1.84-2.87-2.13-6.21-2.82-9.41-.16-.73-.23-1.77.81-2.08s1.47.51,1.93,1.19C279.81,363.43,279.18,366.32,279.29,369.11Z"/><path class="cls-7" d="M336.86,355.23c-1.23-3.22-.44-5.39,2.31-6.58,3.1-1.34,5.17,0,6.66,3.29C339.89,348.88,339.23,349.13,336.86,355.23Z"/><path class="cls-7" d="M279.05,383.25l2.26,2.81c1.05,2.48,2.5,4.87,1.88,7.75l-1.32-1.65c-2.19-2.64-2.76-6.07-4.33-9Z"/><path class="cls-7" d="M346.51,376.34c-1.63-2.49-2.76-5.07-2-8.59C347.39,370.46,345.56,373.77,346.51,376.34Z"/><path class="cls-4" d="M266.28,347.46l4,2.53c-.06,1.37-.39,3-2,2.7C265.34,352.07,266.65,349.35,266.28,347.46Z"/><path class="cls-7" d="M289.24,314.22c-1.28-3.69-.27-5.87,3.91-6A21,21,0,0,1,289.24,314.22Z"/><path class="cls-4" d="M291.23,368.1l0,4C288.45,370.76,288.44,369.42,291.23,368.1Z"/><path class="cls-8" d="M324.2,338.4l1-1.25C326,338.48,324.81,338.2,324.2,338.4Z"/><path class="cls-4" d="M351.08,353.15l-.22.42.22-.42Z"/><path class="cls-9" d="M339.08,283.33c.87,0,1,.66,1.07,1.33Z"/><path class="cls-2" d="M177.41,309.24c-3.66,3.42-4.14,8-4.55,12.57-.33.42-.66.83-1,1.25a.52.52,0,0,0-.45.22c-.27.29-.55.58-.83.86a.92.92,0,0,1-.83.16,2.88,2.88,0,0,0-.87-.1l-.84-3.79c-2.21-.07-4.27-.89-3.3-3.37,1.44-3.66-1.15-3.92-3.26-4.81.76-1.62,2-3.06,2.09-5a1.9,1.9,0,0,0,1-2l1-1c2.73-1.82,7.36-.26,8.54-4.82l4.44-1q.08,3.12.16,6.22C176.83,305.75,178,307.74,177.41,309.24Zm-6,.92c-2.15,1-3.56,1.52-3.19,4A4.35,4.35,0,0,0,171.39,310.16Z"/><path class="cls-10" d="M209.24,317.13c-1.43-.74-3.75,1-4.5-1.71-.38-1.34-1-.94-1.45,0-.73,1.57-1.94,2.42-3.51,1.62-2-1,0-2.58-.2-3.9a12.43,12.43,0,0,1,0-1.93l-.1.11c2.87-5.07,2.87-5.06,8.37-5.48.23,0,.43-.44.65-.68l1.95-.26,2.26.3C209.4,308.55,208.05,312.47,209.24,317.13Z"/><path class="cls-8" d="M163.62,345.18c-1.09-3.32,1.6-9.34,5-11.08,3.95.4,3.65,2.48,2,5.1-.69,1.11-1.89,2.61-.53,3.49,1.9,1.22,1.67-1.32,2.45-2.09s1.45-2.19,2.36-3.1a45.66,45.66,0,0,1,3.78-3.05c1.16,5.05,1.17,5.21.33,9.56-1.93-1.39-3.72-2.56-6-.32-.89.88-4.06,1.12-4.64.4C165.69,340.73,165.12,344.67,163.62,345.18Z"/><path class="cls-8" d="M177.41,309.24c.58-1.5-.58-3.49,1.32-4.61,3.14-.2,6.44-1.27,9,1.65-.09,1-.17,2-.25,3l.06-.08c-.63.49-1.8,1-1.81,1.48-.08,4.3-1.83,6.08-6.3,5.13-.7-.15-2.24.81-3.1.24-1.3-.85.14-2,.22-3.05A26.37,26.37,0,0,1,177.41,309.24Z"/><path class="cls-5" d="M227.46,331.39a11.61,11.61,0,0,1-8,7.81c-2.74-.65-2.69-.63-3.74,1.67a2.21,2.21,0,0,1-1.4,1.05,1.57,1.57,0,0,1-1.87-1.16c-.53-1.45,1-2.32,1-3.62l0,0h4.27c.86,0,1.76-.2,1.64-1.22s-1.17-.91-1.9-1.16c.3-1.84,1.51-2.56,3.24-2.66,3.12-.47,2.61-3.6,3.94-5.38l3.52-.56,2,2.68C226.89,329.49,226.89,329.49,227.46,331.39Z"/><path class="cls-8" d="M224.62,326.75c-1.33,1.78-.82,4.91-3.94,5.38-1.16-3.81-3.56-3.83-7.1-.06a10.3,10.3,0,0,1,2.69-10.76c1,4.26,2.73,6.71,6.9,2.58.63-.62,1.12-.32,1.51.33.08.52.17,1,.25,1.55Z"/><path class="cls-8" d="M222.87,315l-2.41,2.22c-2.6-.29-2.1-1.61-1.24-3.3.75-1.47,2.08-3.11,0-4.64l.57-2.88c2.84-1.41,5.68.19,8.53,0l-.06-.05C228.09,310.29,223.09,311.17,222.87,315Z"/><path class="cls-8" d="M168.06,320.41l.84,3.79.15.74.72-.64a.92.92,0,0,0,.83-.16l1-.05q-1.53,3.45-3.07,6.88l-1.21-.12c-.32-1.64-.63-3.27-1-5-2.06,1.17-2.15,3.56-4.29,4-1.88-3.4,3-6.14,1.34-8.46a3.57,3.57,0,0,0,1.79,2.3Z"/><path class="cls-15" d="M194.62,315.5c-5.76,1.44-7.37,0-7.06-6.28l-.06.08,1.09-1.94c1.61-.75,2.65-2.59,4.72-2.45Z"/><path class="cls-5" d="M219.78,306.42l-.57,2.88a2.39,2.39,0,0,0-2.07,1.48c-5.82-1.33-4.5,3.48-5.44,6.34h-2.46c-1.19-4.66.16-8.58,3.47-11.93C215,305.92,217.29,306.8,219.78,306.42Z"/><path class="cls-10" d="M200.75,343.22c-2,.11-2.81-.73-2-2.49.91-2.06,2.1-4,3.24-6.13l3.22,4.06c2.39.46.84-5.33,4.46-2.48L206.41,343l-1.92.19c-.4-1.26-1-2.58-2.34-2.71C201.78,340.43,201.22,342.25,200.75,343.22Z"/><path class="cls-10" d="M194.62,315.5c-.44-3.53-.87-7.06-1.31-10.59l3.21-.69c3.32,1.4,2.88,4.36,3,7.1l.1-.11C197.78,312.48,197.14,315.07,194.62,315.5Z"/><path class="cls-8" d="M190.16,341.61c-1.73,2.37-4,3.21-6.62,1.6-2.35-1.45-1.71-3.78-.54-5.69a6.78,6.78,0,0,1,7.56-3.47,1.07,1.07,0,0,1,.91,1.45,1.49,1.49,0,0,1-1,.88,20.51,20.51,0,0,0-2.92-.06c-1.74.42-3.12,1.63-2.84,3.5.35,2.27,2.11,1.46,3.51,1.07A1.51,1.51,0,0,1,190.16,341.61Z"/><path class="cls-10" d="M209.3,323.66V332c-2.5-4.33-5.24-2.54-7.9-1.78.69-3.46,4-5.19,5.39-8.19l2-.85C209,322,209.14,322.84,209.3,323.66Z"/><path class="cls-8" d="M213.47,337.14c0,1.3-1.5,2.17-1,3.62a1.57,1.57,0,0,0,1.87,1.16,2.21,2.21,0,0,0,1.4-1.05c1-2.3,1-2.32,3.74-1.67-.31,2.51-2.21,3.76-4,5.08l-5-1.08c-1.68-2.35-.12-4.11,1.07-5.95C212.15,337.15,212.75,336.18,213.47,337.14Z"/><path class="cls-5" d="M206.79,322.05c-1.39,3-4.7,4.73-5.39,8.19a2.91,2.91,0,0,0-3-.09l3.31-9C203.31,322,205.58,318.94,206.79,322.05Z"/><path class="cls-10" d="M186.83,329.74c-2.83.31-6.44,1.61-6.75-.36-.48-3.08,1.1-6.53,3.81-9.7C185.41,323.32,179.41,328.2,186.83,329.74Z"/><path class="cls-8" d="M194.83,329.36c-2.38,1.17-4.34,1.82-6.22.37-.58-.45,2.1-8.82,2.87-9.13a1.61,1.61,0,0,1,1.33,0c.9.67.11,1.46,0,2.21C192.41,325.19,189.77,328.14,194.83,329.36Z"/><path class="cls-8" d="M211.7,317.12c.94-2.86-.38-7.67,5.44-6.34C216.43,313.84,216.64,317.69,211.7,317.12Z"/><path class="cls-8" d="M178.6,320.66c-.8,2.95-1.55,5.92-2.45,8.84a2,2,0,0,1-1.52.94c-.84.07-1.12-.72-.88-1.38C174.83,326.09,175,322.67,178.6,320.66Z"/><path class="cls-8" d="M192.59,343.81c.69-2.81,1.36-5.63,2.09-8.43a1.47,1.47,0,0,1,1.78-1.28c.36.08.94.75.87.88C195.87,337.92,196.73,341.87,192.59,343.81Z"/><path class="cls-10" d="M201.7,321.18l-3.31,9c-.48,0-1.32.09-1.38-.08C196.17,327.76,199.18,322.15,201.7,321.18Z"/><path class="cls-5" d="M211.5,337.25c-1.19,1.84-2.75,3.6-1.07,5.95-1.37.53-2.78,1.79-4-.21l3.23-6.81A2,2,0,0,1,211.5,337.25Z"/><path class="cls-8" d="M217.44,334.79c.73.25,1.8.23,1.9,1.16s-.78,1.22-1.64,1.22h-4.27C213.11,333.59,216.29,335.91,217.44,334.79Z"/><path class="cls-5" d="M200.75,343.22c.47-1,1-2.79,1.4-2.75,1.35.13,1.94,1.45,2.34,2.71Z"/><path class="cls-8" d="M171.88,323.06c.32-.42.65-.83,1-1.25C173.05,322.64,172.26,322.69,171.88,323.06Z"/><path class="cls-5" d="M209.3,323.66c-.16-.82-.31-1.64-.47-2.46A2.27,2.27,0,0,1,209.3,323.66Z"/><path class="cls-5" d="M166.61,349.16l.24-.43c-.08.15-.16.29-.23.44Z"/><path class="cls-4" d="M171.62,324.09l-1,.05c.28-.28.56-.57.83-.86C171.5,323.55,171.57,323.82,171.62,324.09Z"/><path class="cls-10" d="M345,325.27c.95-1.3-.11-2.51-.19-3.75s-1.64-2.58-.12-3.56c1.08-.68,1.81.27,2.59,1.39.62.88,3.2-4.57,3.8.53.26,2.15.37,4.27,1.36,6.23.29.59.62,1.17.92,1.75l-.36,2.28c-.66.06-2-.55-1.53.86.71,2-.72,1.83-1.75,2.06-1.37.32-1.4-.73-1.8-1.69C347.1,329.29,347.88,326.39,345,325.27Z"/><path class="cls-3" d="M359.91,369.8c-.86-4.41-.86-4.41.29-7.67C361.37,364.6,361.33,366.53,359.91,369.8Z"/><path class="cls-7" d="M353,330.14l.36-2.28c.8.63.67,1.52.71,2.37A.62.62,0,0,1,353,330.14Z"/><path class="cls-4" d="M168.06,320.41l-2.85,3.2a3.57,3.57,0,0,1-1.79-2.3c1.68,2.32-3.22,5.06-1.34,8.46,2.14-.4,2.23-2.79,4.29-4,.34,1.77.65,3.4,1,5-8.05,1.08-8.66,8.26-11.26,13.78-.62,1.3.72,2.07,1.29,3,2,3.43,1.25,5.62-2.73,6.48.67-2.22,1.33-4.4-.25-6.6-1.2-1.68-.4-3.42,0-5.23,1.16-5.15-1.63-9.88-6.85-12.07a16.93,16.93,0,0,1,2.09-7c2.93-.38,4.1-2.17,4-5l1,0c2.63-.07,3.12-1.79,3-4,1.35-.55,2.16-2.13,3.86-2,2.11.89,4.7,1.15,3.26,4.81C163.79,319.52,165.85,320.34,168.06,320.41Z"/><path class="cls-4" d="M153.63,355.14c.4,7.94,1.31,15.86.93,23.84-.18,3.83-2.51,7.62-.29,11.51.08.13.13.41.06.47-4.2,3.44-.5,7.38-.69,11.08-5-1.5-7.83-9.73-4.5-14.57,2.86-4.16,2.66-8.09,1.71-12.7a60.09,60.09,0,0,1-1-14.06C150,358.58,150.14,355.46,153.63,355.14Z"/><path class="cls-5" d="M137.76,378.1c1.59-10.72,2.39-21.58,5.76-32,2.19,3.31,1.66,7.3,1.83,10.82.15,3.34-1.07,6.71,1,9.87a1.28,1.28,0,0,1,.06.93C141.5,369.48,142.44,376.16,137.76,378.1Z"/><path class="cls-5" d="M144,343.23a2.07,2.07,0,0,1,.5-2.1C146.13,342.26,145.41,342.83,144,343.23Z"/><path class="cls-4" d="M228.43,408c-1.86,2.3-4.46,2-7,2C222.08,403.36,225.55,406.71,228.43,408Z"/><path class="cls-3" d="M294.19,355.17a2,2,0,0,0-1.91,1c-1.92-4.9-3.17-17-2-20.62,2.06,3,2.28,6.39,2.51,9.4C293.07,348.39,295.08,351.6,294.19,355.17Z"/><path class="cls-5" d="M135.91,371.13c-4,10.31-2.51,21.2-3.38,31.83-3.82,2.14-7.31,1.85-10.87-.87-2.92-2.23-6.2-2.78-9.72-.73-2.41,1.41-5.46.3-6.91-1.1-3.48-3.37.14-5.43,2.46-7.33,4.8-3.94,4.09-10.55-1.59-13.87-.36-.37-.72-.73-1.09-1.09-.2-1.8.59-3.43.79-5.12.17-1.35,3.34-2,.88-3.83l.2-2.88c1.79-5.74,7.86-7.93,10.67-13.26,1.91-3.63,4.91-6.64,5.09-11.11-3.41-3.15-7-1.86-10.65-.48.37-1.73.65-3.48,1.13-5.17.79-2.71,3.63-4.72,2.77-8l.75-1.12c6.34-4,14.78-5.1,17.57-14,1.64-5.26,9.53-6.14,13.52-2.17a2.26,2.26,0,0,1,.3,3.1c-4,6.94-4.74,15-8.23,22.15-.85,1.74-2.06,3.25-2,5.47.33,7.61-7.93,12.1-7.4,19.86,0,.33-.72.65-1,1.06-2.44,3.8-1.68,5.51,2.74,6.75A22.42,22.42,0,0,1,135.91,371.13Z"/><path class="cls-7" d="M95.68,405.87c-4.29-.28-7.87,2-11.68,3.37-5.09,1.77-5.17,1.89-5.21-3.76,0-.82,0-1.64.07-2.46,1.22-1.22,1.46-2.5,0-4.53V403l-1.06.06c-3.4-3.07-2.43-7.85-4.59-11.57-2.46-4.25-4.34-8.78-8.29-12a2.46,2.46,0,0,1-.78-2.67c2.81-.13,3.78,3.38,6.56,3.32l.07,0c.16.38.32,1.1.47,1.1.83,0,.6-.73.66-1.24.38-2.78,2.26-5.16,2.1-8.08l3,1.23C76,376.16,74.78,379,74.27,382c-.29,1.69-.79,4.43,2.65,4.38,1.58,0,1.68,1.86,2.77,2.52.09.68.17,1.36.25,2s.4,1.22.63,1.82c1.83,4.72,7.05,3.39,10.17,5.7,2.7,2,3.93.76,5.11-1.5l.2,0C95.85,399.91,97.74,403,95.68,405.87Z"/><path class="cls-11" d="M79.94,391l-.25-2c.68-.13-1-3.25,1.35-1.13,1.35,1.22,2.46,2,4,.43.73.26,1.39.93,2.25.37l2.1-.06c1.27.48,2.53.87,3.49-.57,1.49,0,3,.09,4.47.11a15.28,15.28,0,0,0,5.31-1.21c2-.75.35-4.53-2-5.49-4.09-1.68-6.11-.44-6.68,3.81-.11.76-.17,1.68-1.11,2.05-.82-1.38-2.06-1.18-3.33-.9l.51-2.14c1.11-.18,2.43-.53,2.24-1.8s-1.61-1.15-2.7-1.09c-1.47-.28-2.56.06-2.84,1.73a1.86,1.86,0,0,1-.78,0l-2.84-2.66,4.72-1.24,17-1.14c.37.36.73.72,1.09,1.09-.35,1.92-1,3.86-1,5.77.12,3.75-1.51,5.41-5.14,5.32l-4.92.07a11.62,11.62,0,0,0-6.07.62Z"/><path class="cls-5" d="M94.86,390.22l4.92-.07c.4,2.38-.52,4.58-1,6.83v0l-2.72-.07-.2,0v-2Z"/><path class="cls-7" d="M98.78,397c1.24.7,1,1.54.17,2.36-.13.12-.53,0-.8,0,.21-.76.41-1.53.62-2.29Z"/><path class="cls-6" d="M104.81,378l-17,1.14c-.9-3.35,1.71-6.07,1.7-9.26l2.07-7.72c2.39-2.41,2.91-6.26,6.16-8,1,1.89-3,4.81.76,5.81,2.69.71,6.08,1,7.44-2.88a2.13,2.13,0,0,1,2.22-1.58c4.62,0,5.41-4.42,5-6.69-.52-3.3-4.32-1.39-6.71-1.32-1.53.05-2.4,1.49-3.41,2.62-1.49,1.67-2.66,3.91-5.35,4-.49-2.79.59-5.14,2.07-7.37,3,.24,4.82-3.28,8.05-2.4.41.11,1.13-.74.8-1.51a2.28,2.28,0,0,0-2.22-1.65c-3.56.34-7.26-1-10.68.9l-2.91-.24c-.8-2.7,0-6.78-5.31-5.23-2.14.64-2-2.09-1.35-2.46,4.73-2.67.79-6.92,2-10.21.78-2.05-1.58-1.41-2.56-1.94a1.57,1.57,0,0,1,.06-.61l1.07-1.31c.28-1.95-.74-4.11.92-5.84,1.75.13,2.33,1,1.73,2.67-.39,1-.52,2.14.9,2.18,3.15.1,4.79,2.57,7,4.14l-.83,5.89c-1.5.49-3.73-2.49-4.45.43-.52,2.11,1.49,3.35,3.66,3.64a6.25,6.25,0,0,0,1,0c1,1.12,1.67,3.64,3.44,2.31,1.31-1-.48-2.42-1.55-3.35,0-1.55-.4-3.19.95-4.46.11.06.23.16.34.15s.23-.11.34-.17l-.68,0c-2.2-2.59,0-4.53,1-6.64,1.31.79,3.12,1.06,3.21,3.11l-.09,1c-.63,2.38-1.34,4.75-1.85,7.15-.2.91-.25,2.12,1,2.5s1.84-.43,1.9-1.56c.2-4,3-6.41,5.22-9.23.86-.07,2.73.82,1.66-1.28-.7-1.37-1.9-2.71-3.88-2.37,0-1.49.15-3.12-2-3.15-2,0-2.91-.8-3-2.91a3.09,3.09,0,0,1,2.57-3.49c1.23-.36,2.43-1,2.45-2.66.87.11,1.64,0,2-.93l8-1-.06,0c1.26,3.83,2.89,7.6,1.47,11.89,3.13-4,3.13-4.05.55-11.85l0-2,0,0L139.06,306c-2.33-2.37-5.37-3.3-7.33-5.74a13,13,0,0,0,8-1.74l13.72,4.19c-.55,7.6-5.29,13.71-7.43,20.78-3.78,12.49-8.16,24.78-8.3,38.07a27.75,27.75,0,0,1-1.77,9.62,22.42,22.42,0,0,0-3.92-2c-4.42-1.24-5.18-2.95-2.74-6.75.26-.41,1-.73,1-1.06-.53-7.76,7.73-12.25,7.4-19.86-.09-2.22,1.12-3.73,2-5.47,3.49-7.11,4.28-15.21,8.23-22.15a2.26,2.26,0,0,0-.3-3.1c-4-4-11.88-3.09-13.52,2.17-2.79,8.93-11.23,10-17.57,14,.11-.59.23-1.17.34-1.75,1.67-1,2.25-2.53,2.74-5.64-2.15,2.27-2.89,3.72-2.79,5.6h-2.85l-.51-.77-.47.46.85.42,1,2.91a1,1,0,0,0-1,.93,1,1,0,0,0-1,1,1,1,0,0,0-1,1,3.36,3.36,0,0,0-3,1.56c1.7.62,2.43-.34,3-1.54l1-1,1-1,1-1,.94-.11c.86,3.3-2,5.31-2.77,8-.48,1.69-.76,3.44-1.13,5.17-.38,3.38,0,5.16,4.27,3.43,2.2-.88,4.27-1.93,6.38-3-.18,4.47-3.18,7.48-5.09,11.11-2.81,5.33-8.88,7.52-10.67,13.26-1.6-2.81-3.43-5.14-7.25-4.07-1.18.33-2.41.7-2.45,2-.07,1.91,1.7,1.28,2.56,1.2,2.12-.21,3.46.42,4.1,2.48.45,1.47,1.69,1.31,2.84,1.27,2.46,1.81-.71,2.48-.88,3.83C105.4,374.54,104.61,376.17,104.81,378Zm-3.94-11.82c-2,.8-3.59-.33-5.21-.09s-2.83,3.12-2.57,3.09c5-.52,3.67,5.44,6.84,6.75C102.66,372.73,97.62,369.28,100.87,366.15Z"/><path class="cls-5" d="M161.5,312.23c-1.7-.11-2.51,1.47-3.86,2-2.37.28-2.64,2.17-3,4l-1,0L151,319.29c1-6,4.28-11.17,5.72-17l.92-2,9,0-1,3.94-1,1c-1.27.21-2.49.45-1,2C163.48,309.17,162.26,310.61,161.5,312.23Z"/><path class="cls-3" d="M151,319.29l2.67-1.05c.09,2.81-1.08,4.6-4,5C150.09,321.91,150.54,320.6,151,319.29Z"/><path class="cls-3" d="M277.27,397c-1.25-.7-2.45-1.44-2.7-3.45,2.13.51,3.72,1.12,3.65,3.58A7.48,7.48,0,0,1,277.27,397Z"/><path class="cls-9" d="M277.27,397a7.48,7.48,0,0,0,1,.13c0,.3,0,.6,0,.89l.05-.05Z"/><path class="cls-9" d="M279.19,398.09c0,.33.06.65.12,1l-1-1.06-.05.05Z"/><path class="cls-9" d="M279.26,399l1,1.05Z"/><path class="cls-9" d="M70.7,380.21c-2.77.06-3.74-3.45-6.55-3.32,0-.58-.09-1.16-.14-1.73.84-.47.9-1.3,1-2.11C68.27,374.35,70.36,376.58,70.7,380.21Z"/><path class="cls-7" d="M65,373.05c-.09.81-.15,1.64-1,2.11-2,.11-2.1-1.44-2.44-2.78l.32-.25C63,372.23,64.15,372.1,65,373.05Z"/><path class="cls-14" d="M226.24,170.85c.65,1.54,1.92,3,1,4.82-4.9,1.86-2.82,6.59-3.56,9.86A111.66,111.66,0,0,0,221.58,205c-.17,3.71.7,7.47,1.11,11.2.13,2.7-1.86,4.66-2.46,7.1q-2.34,2.68-4.69,5.35c-.15-8.28,2.22-16.19,3.45-24.27.35-2.31,2.2-5.53-2.48-5.8-2.07-1.21-4-3.23-6.59-.86-5.24,4.81-13.06,5.18-18,10.75-1.8,2-5.1,2.68-7.93,3.65-4.27,1.46-8.74,2.78-12.39,5.72L169,218c-4.54-.93-8.91-1.72-13.22-4.18-3.71-2.12-4.86-4.25-3.86-7.58,1.08-3.59,2.53-7.95,6.83-8.36s3.57-2,3.15-5.05c-.36-2.56-3.58-1.71-3.69-4.41l8.54-.89c1.92,0,3.84.06,5.76,0,.79,0,1.64-.5,1.55-1.41a2,2,0,0,0-1.19-1.35,19.57,19.57,0,0,0-3.27-.53c.44-.46.8-1.19,1.32-1.33,4.55-1.19,7.49.6,9,5.37s-.16,9-4.34,10.8c-1.58.68-3.62.34-4.52,2.53-1.52,3.69-4.5,5.17-8.37,4.46-2-.37-2.26,1-2.72,2.13-.52,1.32-.53,3,1,3.38,3.07.81,6.09,3.11,9.23,2.17,9.49-2.87,18.85-6.34,26.6-12.71,2.48-2,5.64-2.8,7.77-5.09,5.44-5.84,4.23-16-2.38-20.53a3.27,3.27,0,0,1-1.64-2.86c0-4.3-.61-8.72,1.47-12.73,4.33-8.36,2.93-17.47,3.37-26.28.22-4.54-3.23-5.94-7.15-3.69-1.06.62-1.93,2.8-3.7,1,.3-2.5-1.5-3.59-3-5.17-2-2.14-5.72-.82-7-3.94.23-1.61,3.23-1.45,2.39-3.66a1.92,1.92,0,0,0-1.49-1c-2.26.37-5.14.12-4.9,3.78-3.2-.63-8.37,2.06-7.91-4.71a25.73,25.73,0,0,1,10.9-2.57c4.76.91,10.48-1.56,14,4,.11.18,1.25-.06,1.72-.38,1-.7.69-1.55.23-2.57-2.7-5.94-13.37-10.41-19.42-8-.23.09-.32.55-.47.84l-1.93,0c-2.42-1-4.53-.18-6.54,1.16l-4.53.23c-3-.56-5.78,1.72-8.89.74-.5-.16-1.17,1-1.14,1.88a2.65,2.65,0,0,0-2.33,1.41c-4-.41-.65,3.17-2.22,4.08,1.31,2.2,3.24,4.55,5.7,3.82,6.49-1.93,4.27,2,3.72,4.94-.26,1.44-.63,2.86-1,4.29-2.87-1.54-2.41-5.6-5.41-7.09-1.44-.71-2.7-2.32-4.42-1.52s-.69,2.67-1,4c-.66,2.86,1.65,6.29-1.67,8.62l-.93-3.11-.84-7c1-4.67-2-11-6.41-13.46-3.52-1.93-3.51-4.17-.26-6.54,2.33-1.71,5.49-2,7.28-4.59l3-1.23a32.35,32.35,0,0,0,15.68-4.46c2.65-.69,5.23-1.77,8-1.57,1.87,4,4,1,6.05.23l2-.17c2.45,1.27,4.79,2,6.33-1.28l3.66-.58c.73,1.23-.22,1.63-1,2.28s-1.56,1.89-.4,2.93c.9.8,1.84.23,2.65-.4.51-.41.94-1.08,1.51-1.24a9.63,9.63,0,0,1,7.78,1.11c2,1.34-.16,2.74-.94,4a1.7,1.7,0,0,0,1.51,2.78c3.05,0,3.56,1.52,4.16,4.14.4,1.77,1.09,4.14,3.22,5.2l1.21,6.73c-1.73.34-2.37,2-1.5,2.87,1.94,2,2.29,5.44,5.5,6.3l.09,5.9c-1.47,1.82-1.48,3.29,1,4.18,1.32,2.48,1,5.17,1,7.82,0,.65,0,1.3,0,1.95a1.86,1.86,0,0,0-.27,2.95c2.94,3.53,5.18,1.75,7.24-1.06.55,3.22-.49,6.23-1.52,9.13a6.9,6.9,0,0,0,.65,6.39C221.16,167.68,223,169.54,226.24,170.85Zm-6-.12c2.74-3.63-1.17-3.27-2.56-3.72-2.28-.74-4.93-.71-5.13,2.69a27.37,27.37,0,0,0,6,18.75c.08.1.49,0,.81-.08v-3A41.81,41.81,0,0,0,220.25,170.73Z"/><path class="cls-16" d="M169,218l2.62-.15c.77.2,1.68.78,2.29.55,6-2.29,12.61-2.86,18-6.62a5,5,0,0,1,5.46-.45,5.72,5.72,0,0,1-3.72,3.54c-11.34,4-21.44,10.54-32.06,16-4.06,2.1-5.56,4.42-4.09,8.65-2.06,0-1.54-2.36-2.86-3,0-.73-.07-1.46-.1-2.19-.13-4.1,3.36-4.73,5.95-6.25.94-.55,2.3-.91,1.85-2.43-.36-1.18-1.53-1.19-2.46-1.07-3.32.41-6.42-1-9.68-1l-1.31,1a3.88,3.88,0,0,1-.23-.95,2.12,2.12,0,0,0-.93-2.13c.08-2.07-.26-4-2-5.38a5.07,5.07,0,0,1-2.06-4.81c.53-3.72-2.11-5.93-4.46-7.58-5.26-3.68-7-8.71-6.42-14.58.29-3.27,1.72-6.28-2.95-7.69-1.2-.36-1.94-2.43-2.21-4.22a21,21,0,0,0-4.92-10.59,6.23,6.23,0,0,0-1.12-4.23c-2.89-4.19-3.17-8.89-2.85-13.73,1.8-1.26,3.59-2.2,4.62-4.61.8-1.87,2-4.74,5.25-4.42a3,3,0,0,1-1.27,3c-3.41,2.93-3.42,7.34-4.44,11.14-.86,3.19,1.95,6.44,4.33,7.41s2.68-2.89,3.74-4.8c1.49-2.68,1.74-6,4.29-8.13,1.58,4.56-1.11,8.52-2.75,12.1-2.3,5-1.94,8.94,1.55,12.63,3,3.17,6.7,1.46,10.16.6h.44l.44,0-.47,3c-1.2,1.74-2.08,3.39,1.05,4l1.93.55c.07.76.15,1.52.22,2.28-2.71.07-5.11-.11-6.51-3.15-1.09-2.39-2.64-1.46-3.6.33a7.94,7.94,0,0,0-.19,8.06,7.46,7.46,0,0,1,1.18,4.2c-.05,1.64-.29,3.46,1.58,4.36,1.47.7,2.41-.54,3.57-1.13,2.28-1.17,1.34-2.65.58-4.12s-.54-2.22,1.11-2.46c2.76,4.7,7.41,2.32,11.24,3,1.11.2,2.62,0,2.57,1.62s-1.54,1.4-2.66,1.42a63.69,63.69,0,0,0-6.92.18,3.6,3.6,0,0,0-3,3c-.13.66.07,1.56.84,1.49,5.41-.49,1.94,2.49,1.56,4.07-1,4.08-3.62,8.62.88,11.79,5.16,3.62,11.53,3,17.54,3.2C168,219.25,168.51,218.4,169,218Z"/><path class="cls-16" d="M181.59,92l-2,.17c-2-.45-4-2.24-6.05-.23-2.82-.2-5.4.88-8,1.57-.43-1.77-1.93-1.77-3.11-1.45-4.53,1.21-9.11,2.4-12.57,5.91l-3,1.23c-5.94-.16-11.13,2.71-16.62,4.28-2.14.61-2.27,3.37-2.38,5.59-.12,2.51,1.86,2,3.18,2.72,2.64,1.52,6,2.08,7.74,5-2.59,0-5,.31-7.15-2.22-1.16-1.39-3.62-2-6-1.45a4.07,4.07,0,0,1-4.26-2c-.76-1.42.53-2.84,1.55-3.87a29,29,0,0,1,9.5-6.77c5.5-2.35,11.42-4.59,15.15-10.24,1.88-2.84,5.44-2.6,8.63-.88,3.8,2,5.88,1,5.67-3.23-.1-2,1-1.06,1.6-1.21a33.64,33.64,0,0,1,17.14,0,20.74,20.74,0,0,0,6.83,1c2.24-.17,4,.5,4.16,3.12V90.1l-3.66.58C185,86.85,183.29,89.52,181.59,92Z"/><path class="cls-16" d="M211.29,117.67c-.4-2.25-.81-4.49-1.21-6.73.59-10.57-4.34-18.46-12.61-20.23,2.76-4.32,7.95-1.09,8.41-.16,2.54,5.09,5.21,1.67,8.06.43.1,2.07-.36,3.29-2.12,3.7-.87.21-2.36,0-.89,1.53.59.59.2,1.88,2.27,1.24,4.91-1.5,6.12-.44,4.22,4.23-3.1,7.66,1.87,14,2.28,21,.05,1,.76,1.46-.14,2.73-1.41,2-2.74,4.39-.57,7.12,1,1.26-.38,2-1.76,2a1.63,1.63,0,0,0-1.85-1.8l-.09-5.9C215.59,123.07,212.21,120.9,211.29,117.67Z"/><path class="cls-14" d="M237.42,129.75l-1,1-1,1,.06-.06c-.68.28-.82.6-.07,1a5.07,5.07,0,0,0,3.55,4.65c-.24,2-2.5.77-3,2.16,1.88,3,5.43,5,5.42,9.14-3.83.28-4.68,2.15-2.9,5.42-.08,1.29-.17,2.58-.27,4.19-1.73-1-2.56-3-4.88-1.86-1.31.67-3.48,1-4.51-.71-.88-1.49-.38-3.19.73-4.63a4.24,4.24,0,0,0,.28-5.12c-1.23-1.94-2.87-.94-4.38-.24-1.43-1.21-.49-2.1.52-2.72a2.94,2.94,0,0,0,1.3-3.89c-1.91-3.84,0-6.54,2.21-9.26,1.77-.93,3.32-2.34,5.46-2.46C236.22,127.68,237.48,128,237.42,129.75Z"/><path class="cls-15" d="M135.26,148.3c-2.55,2.11-2.8,5.45-4.29,8.13-1.06,1.91-1.31,5.78-3.74,4.8S122,157,122.9,153.82c1-3.8,1-8.21,4.44-11.14a3,3,0,0,0,1.27-3c.4-4.66,4.95-5.29,7.8-6.82,1.61-.87,2.63,3,2.07,5.17C137.59,141.48,136.35,144.87,135.26,148.3Z"/><path class="cls-15" d="M147.83,183.43c-.07-.76-.15-1.52-.22-2.28a23.08,23.08,0,0,1,1.89-2.85c1.89-2.15.54-4.46-.44-5.91-1.53-2.26-2.41,1.34-4,1.2l-.44,0h-.44c5.29-4.25-.46-6.74-1.58-10-2-3.17-2.06-6.58-1.17-10.09.2-.85.39-1.69.58-2.53,1.08-.51,1.71-1.24,1.17-2.51l.15-2.79c0-.37,0-.74.08-1.1a27,27,0,0,1,1.25-7.92c1-.57,1.14-1.24.25-2,.1-1.15.2-2.31.29-3.46l1.82-.49c.31,1,.62,2.07.92,3.11-.08,1.62-.15,3.25-.23,4.87a3.41,3.41,0,0,0-1.49,3c-.57,5.37-1.39,10.67-2.48,16-.7,3.44,4.15,8.93,8.05,10-1.79,4.56,4.86,8.34.7,13.06,3.48.28,6.8-1.31,9.2,1.75-3.82,2.52-8.15.51-12.15,1.35Z"/><path class="cls-15" d="M138.75,116.73c-1.76-2.9-5.1-3.46-7.74-5-1.32-.76-3.3-.21-3.18-2.72.11-2.22.24-5,2.38-5.59,5.49-1.57,10.68-4.44,16.62-4.28-1.79,2.54-5,2.88-7.28,4.59-3.25,2.37-3.26,4.61.26,6.54,4.4,2.41,7.44,8.79,6.41,13.46l-1.49-.07h0c-.33-2.83-2.23-3.92-4.76-4.32Z"/><path class="cls-15" d="M197.47,90.71c8.27,1.77,13.2,9.66,12.61,20.23-2.13-1.06-2.82-3.43-3.22-5.2-.6-2.62-1.11-4.17-4.16-4.14a1.7,1.7,0,0,1-1.51-2.78c.78-1.3,3-2.7.94-4a9.63,9.63,0,0,0-7.78-1.11c-.57.16-1,.83-1.51,1.24-.81.63-1.75,1.2-2.65.4-1.16-1-.51-2.16.4-2.93s1.72-1,1-2.28V89a1.55,1.55,0,0,1,1.94.85.9.9,0,0,0,1,.93Z"/><path class="cls-15" d="M138.86,125.76c-3.05,1.16-5.24,1.92-7.88.35-2.27-1.35-5-.72-7.62-.51-1.58.12-3.16-.32-3.24-2.2a2.87,2.87,0,0,1,3-3.24C128.52,120.69,134.38,120.21,138.86,125.76Z"/><path class="cls-15" d="M229.48,129.82c-2.23,2.72-4.12,5.42-2.21,9.26A2.94,2.94,0,0,1,226,143c-1,.62-1.95,1.51-.52,2.72-.38,1-.75,1.93-1.12,2.9-2.06,2.8-4.3,4.58-7.24,1a1.86,1.86,0,0,1,.27-2.95c4.61.45,4.51-3.05,5-6,.65-1.88,1.73-3.72,1.85-5.62C224.48,131.55,226.14,130,229.48,129.82Z"/><path class="cls-15" d="M237.42,129.75c.06-1.72-1.2-2.07-2.48-2.39,1-2.54,2.63-4.27,5.57-3.85a6.64,6.64,0,0,1,5.66,4.86c.53,1.72.87,3.5,1.29,5.26-2,2-1.14,4.83-2.07,7.13l-2,.12-.11-.18a14.73,14.73,0,0,0,1-7.28c-.4-2.61-1.8-2.89-3.85-1.71A2.72,2.72,0,0,0,237.42,129.75Z"/><path class="cls-16" d="M148.24,86.86c-2.44-.39-5-.85-6-3-.6-1.35,1.31-2.85,2.6-3.13a6.05,6.05,0,0,1,6.83,3.65C152.64,86.62,149.65,86.34,148.24,86.86Z"/><path class="cls-16" d="M184.26,78a10.2,10.2,0,0,1-10.06-1.75c-1.61-1.22-6-.94-4.42-3.77,1.11-2,3.95.61,5.59,2.19C177.73,76.94,181.65,74.73,184.26,78Z"/><path class="cls-16" d="M141.47,153.57c-.89,3.51-.86,6.92,1.17,10.09-2.68,0-4.67-1.1-4.84-3.88S138.22,154.43,141.47,153.57Z"/><path class="cls-16" d="M232.39,112.74c0-.82,0-1.64,0-2.45.08-1.61-.18-3.77,2.32-3.34s1.54,2.36,1.09,3.91-.86,3-1.39,4.91l-2-3Z"/><path class="cls-16" d="M170.85,66.33c4.71-.11,5.52,4.69,8.64,6.19C175.83,71.79,171.89,71.47,170.85,66.33Z"/><path class="cls-16" d="M137.8,79.44c-3,1.72-5.77,1.83-8.66-.88C132.58,75.76,135.24,77.15,137.8,79.44Z"/><path class="cls-16" d="M182.56,53.94c3.86-.95,5.33,2.11,7.28,4.38-3-.59-6.69.15-7.26-4.41Z"/><path class="cls-16" d="M222.41,140.68c-.54,3-.44,6.46-5,6,0-.65,0-1.3,0-1.95C220.23,144.89,219.69,140.75,222.41,140.68Z"/><path class="cls-10" d="M206.62,54c0,2.11,3.09,2.1,2.79,4.05-.14.88.36,2.2-1,2.32-1.17.09-1.65-1-1.72-2C206.54,56.91,206.62,55.44,206.62,54Z"/><path class="cls-16" d="M165.41,60.25c4.9-.09,5.93.16,10.09,2.28C171.94,62.56,169.34,61.58,165.41,60.25Z"/><path class="cls-15" d="M215.38,132.74a1.63,1.63,0,0,1,1.85,1.8c-.28.79-.57,1.58-.85,2.38C213.9,136,213.91,134.56,215.38,132.74Z"/><path class="cls-16" d="M144.73,123.68l1.49.07.84,7-1.82.49C144.4,128.75,144.73,126.21,144.73,123.68Z"/><path class="cls-16" d="M140,119.37c2.53.4,4.43,1.49,4.76,4.32A5.17,5.17,0,0,1,140,119.37Z"/><path class="cls-10" d="M117.14,143.82c-.49-5,1.87-2.18,3.52-1.28C120.63,146.11,118.34,143.46,117.14,143.82Z"/><path class="cls-16" d="M143.22,148.53c.54,1.27-.09,2-1.17,2.51A1.7,1.7,0,0,1,143.22,148.53Z"/><path class="cls-16" d="M145,134.68c.89.8.76,1.47-.25,2C143.57,135.9,143.81,135.24,145,134.68Z"/><path class="cls-16" d="M182.58,53.91l-1.32-.37.27-.38,1,.78Z"/><path class="cls-16" d="M231.51,113.85l-.54,1.27c-.12-.11-.35-.28-.34-.31.21-.39.46-.77.7-1.15Z"/><path class="cls-16" d="M143.45,144.64c0,.36-.06.73-.08,1.1a4.56,4.56,0,0,1-.22-.78C143.14,144.86,143.34,144.74,143.45,144.64Z"/><path class="cls-16" d="M232.45,112.8l-.94,1-.18-.18c.36-.3.71-.61,1.06-.92Z"/><path class="cls-16" d="M194.56,90.77a.9.9,0,0,1-1-.93Z"/><path class="cls-10" d="M215.54,228.62q2.36-2.67,4.69-5.35c.46,1,2.24,1.26,1.88,2.65-.75,2.94.65,3,2.47,1.78,4.56-2.91,5.28-.17,4.79,3.38-.6,4.28,0,8.82-2.49,12.75a1.81,1.81,0,0,0,.55,2.59l-12.86,14c-3.95-4.66-8.61-4.42-11.5.53-.57,1-.83,1.76,0,2.63,1.31,1.32,1.6-.29,2.18-.82,1.41-1.31,2.66-2.94,5.31-1.63-2,2.48-4.35,4.33-5.58,7-5.59-5.57-7.8-5.42-11.87.78-.36.56-.78,1.07-1.18,1.6l-1.24,1.82c-6.29-1.45-9.69,1.92-8.07,8,.3,1.69.6,3.39.89,5.08-7.71-1.22-2.19-6.65-3.2-10.13-3.7-.66-3.57,2.65-4.35,4.86-2.27-.77-3.15-3.19-5.45-3-.22-2.85-3.55-.91-4.71-3,2.86-.86,5.46-1.63,8-2.44.75-.23,4.47-5.63,4.53-6.46,3.58-2.29,7.5-4.11,10.2-7.58,4.65-4.1,10.62-6.84,13.24-13C208,240.69,211.51,234.43,215.54,228.62Z"/><path class="cls-15" d="M188.61,257.67c-2.7,3.47-6.62,5.29-10.2,7.58-5.78,2.69-12.12,2.74-18.25,3.81-4.46.78-5.56-1.64-5-5.5,2.13-.47,3.63,1.06,5.43,1.67,2.42.82,4.69.15,5.71-2.33,1.09-2.64-1-3.25-3-3.92a46.3,46.3,0,0,1-4.41-2.05c0-1.49,0-3,0-4.46,1.05-4.19,2.45-8.4-1.12-12.16a1.83,1.83,0,0,0-.28-.81c-1.47-4.23,0-6.55,4.09-8.65,10.62-5.49,20.72-12,32.06-16a5.72,5.72,0,0,0,3.72-3.54,5,5,0,0,0-5.46.45c-5.41,3.76-12,4.33-18,6.62-.61.23-1.52-.35-2.29-.55,3.65-2.93,8.12-4.25,12.39-5.71,2.83-1,6.13-1.62,7.93-3.65,5-5.57,12.77-5.94,18-10.75,2.58-2.37,4.52-.35,6.59.86,0,.62-.11,1.25-.16,1.87-6.82,6-14.9,10.4-21.3,16.92a18.77,18.77,0,0,1-3.15,2.27c-8.62,5.74-19.59,6.4-27.81,13-1.42,1.14-3.21,1.92-3.32,3.95s1.47,3.47,3.21,4c5.61,1.63,8,5.93,9,11,1,4.91,3.74,5.58,8,4.32C183.75,255,186.56,255,188.61,257.67Z"/><path class="cls-8" d="M119.72,285.44a28.56,28.56,0,0,1,2.69,2.06c2.12,2,3.29,2,3.31-1.3,0-1.86,1.42-1.93,2.81-1.9,3,4,5.39,8.55,9.14,12a6.72,6.72,0,0,1-3.78-1c-2.16-1.17-4-1.14-6.67-.53-3.77.87-8.15-.16-12.1-1.12-2.43-.58-2.56-2.92-1.58-5.33,1-2.57,2-4.66,5.29-3.13A3.93,3.93,0,0,1,119.72,285.44Z"/><path class="cls-5" d="M165.66,278.12a1.85,1.85,0,0,0,1,.22c.5.33,1,.85,1.51.93s.61-.51.33-1c.17-.61.53-.91,1.19-.71,0,.74,0,1.48,0,2.22-.71,2.31,1.82,4,1.19,6.51a16.08,16.08,0,0,0-2.93.36c-1.39.43-4.23-1-3.73,2a3,3,0,0,0,4.59,2.13c2.5-1.71,3.25.69,4.76,1.26l.15,1c-2.2-.35-4,1.07-6,1.4-2.17-.3-5.32-1.65-6.33-.71-3.11,2.9-3.64.34-4.7-1.49-.72-1.27-1.28-2.64-1.92-4,.06-1.13.5-1.92,1.77-2l4,5.78c1.14-4.17-1.49-7.3-1.8-10.87,1.17-2.62,3.38-3.33,6-3.3Z"/><path class="cls-10" d="M154.64,288.33c.64,1.32,1.2,2.69,1.92,4,1.06,1.83,1.59,4.39,4.7,1.49,1-.94,4.16.41,6.33.71l3,4.68-4,1.13-9,0c-1.9-3.07-4.83-4.87-8-6.42a9.35,9.35,0,0,0,.56-9.31c-.9-1.88-1.66-4-1.09-6.21.39-1.55,1.16-2.53,2.76-1.38,2.11,1.5,3.37,4.66,1.92,5.94C150.53,285.77,153.26,286.73,154.64,288.33Z"/><path class="cls-3" d="M173.62,293.09l-.15-1c1.41-4.95,1.92-9.61-3.88-12.28,0-.74,0-1.48,0-2.22l.9-.42c2.3-.22,3.18,2.2,5.45,3,.78-2.21.65-5.52,4.35-4.86,1,3.48-4.51,8.91,3.2,10.13l0-.05c-1.23.8-.31,1.35.23,1.94,0,1.11,2.63,1.71.89,3-3.12,2.32-4.28-1.5-6.76-2.76C177.41,290.29,177.86,293.78,173.62,293.09Z"/><path class="cls-6" d="M154.64,288.33c-1.38-1.6-4.11-2.56-.83-5.43,1.45-1.28.19-4.44-1.92-5.94-1.6-1.15-2.37-.17-2.76,1.38-.57,2.23.19,4.33,1.09,6.21a9.35,9.35,0,0,1-.56,9.31l-1.24-1.47.05-2.15c-.24-4.24-3.59-8-2.26-12.42.47-1.57-.72-4.29,1.69-4.55,2.68-.29,5.85-.43,7.55,2.57,1,1.72,1.64,3.61,2.45,5.42a7.9,7.9,0,0,1-1.49,5.11C155.14,286.41,154.7,287.2,154.64,288.33Z"/><path class="cls-16" d="M158.91,256.93a46.3,46.3,0,0,0,4.41,2.05c2,.67,4.06,1.28,3,3.92-1,2.48-3.29,3.15-5.71,2.33-1.8-.61-3.3-2.14-5.43-1.67-1.9-.93-1.38-2.62-1.31-4.17C155.86,259.23,158.39,260.16,158.91,256.93Z"/><path class="cls-9" d="M139.7,291.29c-5.27-6.47-5.28-6.48-.84-13.07a30.21,30.21,0,0,1,2.2-2.62l1,1.08c-2.64,4.6-2.47,9.65-2.4,14.7Z"/><path class="cls-10" d="M156.41,286.37a7.9,7.9,0,0,0,1.49-5.11,2,2,0,0,1,.68,0c.31,3.56,2.94,6.69,1.8,10.86Z"/><path class="cls-10" d="M148.47,290.24l-.05,2.15c-.65-.13-1.39-.27-1.37-1.09S147.83,290.37,148.47,290.24Z"/><path class="cls-9" d="M141.06,275.6l1.37-1a1.48,1.48,0,0,1-.39,2.1Z"/><path class="cls-10" d="M168.45,278.28c.28.48.11,1.05-.33,1s-1-.6-1.51-.93Z"/><path class="cls-10" d="M165.66,278.12l-1.07-.14C165,277.46,165.36,277.61,165.66,278.12Z"/><path class="cls-9" d="M139.64,291.38l.69.07c-.43.83-.45,0-.63-.16Z"/><path class="cls-4" d="M196.52,304.22l-3.21.69c-2.07-.14-3.11,1.7-4.72,2.45l-.84-1.08c-2.58-2.92-5.88-1.85-9-1.65q-.09-3.11-.16-6.22c10.13-3,18.64-9.27,27.85-14.12a10.47,10.47,0,0,0,8.07-3.94h0a2.09,2.09,0,0,0,2-1h0l1-1v0l1.33-.48-1.28-.48-1-1.77,4.8-3.26,1.15-.81,1.7-1.09c.13.66.26,1.32.4,2-.37.63-.73,1.27-1.09,1.91a1.19,1.19,0,0,0-.34.16c-.06.05-.05.17-.07.25l.41-.42a3,3,0,0,0,3-2h0a2,2,0,0,0,2-1h0l1-1,0,0c.5-.23,1.95.41,1-1.13l-1.05-2.91c1.14-.94,2.36-1.8,3.42-2.83,5.46-5.32,11.9-9.73,15.6-16.7h.16l1.74-1.4c1.55.65,4-1.12,4.74,1.22.62,2-1.62,3-2.85,4.16-.79.77-2,1.17-1.88,2.6h0a1.68,1.68,0,0,0-2,1h0l-1,1h0l-1,1,0,0-1.09.93c-2.37.47-3.62,2.28-4.87,4.09l-1,1-1,1-1,1a3.38,3.38,0,0,0-3,2c-.72.19-1.55.26-1.48,1.32a.42.42,0,0,0,.31.31c1,.11,1.18-.69,1.38-1.42,1.41-.07,2.78-.2,2.94-2.06l1-1,.95-1,1-1c2.91.31,4.38-1.29,5.12-3.87l1.1-.05c6.42-.38,13,0,18.66-4,3.1,0,6.2,0,9.3,0,1.59,0,3.43-.38,3.79,2-8.58,7.64-13,18-18.13,27.88-.28.32-.57.63-.86.94l-.08.08c-3.59-.57-5.84,2.56-9.16,3.24-6,1.24-11.77,3.84-17.68,5.68-8.13,2.54-14.95,8.64-24.6,7.46C204.65,300.32,199,299,196.52,304.22Zm34.91-23.61.58,1.29c13.12-5.21,25.62-11.49,36.16-21.4a1.5,1.5,0,0,0-2.14-.42c-5.27,2.67-10.58,5.27-15.79,8.06-4,2.15-10.18,1.77-10.46,8.63,0,.52-1.55,1.06-2.44,1.44C235.39,279.06,233.41,279.81,231.43,280.61Zm39.83-24.18c-.63.58-1.21.9-1.47,1.38s-.14,1.39.76,1.19a2.69,2.69,0,0,0,1.32-1.19C272,257.63,271.57,257.1,271.26,256.43Z"/><path class="cls-10" d="M281.32,281.15c-4.08,1-6.64,4.91-6.31,7.78.41,3.71-1.74,5.21-3.41,6.68a15.85,15.85,0,0,0-4.63,6.1c-.87,2.16-2.57,3-4.78,1.51a134.29,134.29,0,0,1,18.16-36.65c2.7,4.32,3.54,4.05,7.54-2.77.28,1.88.52,3.41,1,6.56,1.37-4.22,2.59-6.67,6.37-5.1,2.61,1.08,5.24-2.94,8.08-.34-4.69,2.48-8.51,6.05-12.17,9.79-1.05,1.08-1.61,2.12-3.48.73-3.42-2.54-5.31-1.23-5.5,2.95A11.6,11.6,0,0,1,281.32,281.15Z"/><path class="cls-3" d="M196.52,304.22c2.45-5.2,8.13-3.9,11.32-3.51,9.65,1.18,16.47-4.92,24.6-7.46,5.91-1.84,11.65-4.44,17.68-5.68,3.32-.68,5.57-3.81,9.16-3.24,1.28,2.6-.63,4.3-1.77,6.22-2.74-2.08-5.16.12-7.21,1.07A154.14,154.14,0,0,1,230,299.29c-5.05,1.54-2.72,4.41-1.68,7.16-2.85.16-5.69-1.44-8.53,0-2.49.38-4.77-.5-7.07-1.22l-2.26-.3c-.77-.79-1.42-.71-1.95.26-.22.24-.42.67-.65.68-5.5.42-5.5.41-8.37,5.48C199.4,308.58,199.84,305.62,196.52,304.22Z"/><path class="cls-2" d="M250.18,315.22c-2.78.32-4.52,2.67-7,3.56-1.39.5-2.7.75-2.25-1.57,1-4.91,4.56-6.8,9.45-4.91Z"/><path class="cls-10" d="M284.22,261.34c.64,1.3,1.64,2.63.36,4-1,1.13-2.2,1.4-3.29,0C281.2,263.26,282.88,262.42,284.22,261.34Z"/><path class="cls-3" d="M259.36,284.25c.29-.31.58-.62.86-.94l.51.69Z"/><path class="cls-9" d="M70,294.64c-1.94-1.8,1.11-2,1-3.15l2.85-1.19c3.47-.26,1.52,2.21,1.81,3.62,2,.24,1.14-3,3.2-2.63C77.44,297.2,75.34,303,75.5,309.2c0,.84-.16,1.84-1.19,1.85-1.36,0-1.36-1.22-1.43-2.17-.3-4.31-.68-8.63-.06-12.94C73.34,292.28,71.3,294.3,70,294.64Z"/><path class="cls-9" d="M119.76,304.27l0,2-2,0,.06,0c-1-2.31-3-1.72-4.85-1.8-.75-4.87-5.29-2.61-7.84-4.12-3.07-1.84-7.73-.77-9.41-5.19l.21-2.85a13.12,13.12,0,0,0,4.38-6.31c.68-1.88,1.95-4.47-1.38-5.61l-.15-.15.08-1.81,4-3.73c.12,4.43-.68,8.53,2.41,11.75.87.9,0,1.83-.65,2.61-2.89,3.71-.83,5.29,2.69,6.15,5.47,1.33,11,2.44,16.65,2.07,2.07-.14,4.42-.6,5.84,1.73.32,1,1.12,1.23,2.05,1.21l0-.05c2,2.44,5,3.37,7.33,5.74l-19.32-1.66-.4-.24Z"/><path class="cls-9" d="M119.72,285.44a3.93,3.93,0,0,0-.89-.19c-.21-2-1.39-2.8-3.28-3a7.36,7.36,0,0,1-4.74-2.44c-.63-.7-1.48-1.6-1.45-2.39,0-1.31,1.47-.9,2.37-1.06,1.81-.33,3.64-.61,4.16-2.83.42-1,.83-1.93,1.25-2.9,1.71-.28,1.83-2.83,3.34-2.75C125.67,274.14,120.75,279.65,119.72,285.44Z"/><path class="cls-5" d="M95.88,292.35c-.07.95-.14,1.9-.2,2.85-3.24.74-4.29,3.22-4.84,6.1q-1.55,6.46-3.07,12.95c-1.66,1.73-.64,3.89-.92,5.84-.36.44-.72.87-1.07,1.31a1.57,1.57,0,0,0-.06.61l-2,1c2.08-13,3.8-26.17,10.92-37.74C96.31,287.4,96.4,289.82,95.88,292.35Z"/><path class="cls-9" d="M83.75,323l2-1c1,.53,3.34-.11,2.56,1.94-1.26,3.29,2.68,7.54-2,10.21-.65.37-.79,3.1,1.35,2.46,5.28-1.55,4.51,2.53,5.31,5.23-2,.52-4.15,0-6,1.23a2.55,2.55,0,0,0-2.28,1c-1.49-1.86-.44-4-.64-6-.18-1.72.19-3.66-2.28-4.06-.17-1.62.94-3.49-.93-4.78.07-.41.14-.82.22-1.24a1.45,1.45,0,0,1,.35-.35c2-.92,2.26,4,4.09,1.57C87,327.18,85.37,324.8,83.75,323Z"/><path class="cls-6" d="M95.88,292.35c.52-2.53.43-5-1.21-7.1l.1,0a1.74,1.74,0,0,0,1-1.94l0-.08c.83-.37.92-1.07.86-1.84.19-1.37.66-2.54,2.15-3,0,.6,0,1.21-.08,1.81l-.36.53.51-.38c3.33,1.14,2.06,3.73,1.38,5.61A13.12,13.12,0,0,1,95.88,292.35Z"/><path class="cls-6" d="M131.77,300.26c-.93,0-1.73-.18-2.05-1.21C130.54,299.22,131.41,299.31,131.77,300.26Z"/><path class="cls-5" d="M95.75,283.35a1.74,1.74,0,0,1-1,1.94A1.8,1.8,0,0,1,95.75,283.35Z"/><path class="cls-5" d="M96.66,281.43c.06.77,0,1.47-.86,1.84C96.09,282.65,96.37,282,96.66,281.43Z"/><path class="cls-8" d="M248.44,246.82c-3.7,7-10.14,11.38-15.6,16.7-1.06,1-2.28,1.89-3.42,2.83-1.78,1.35-4,2.1-5.28,4.12l-1.7,1.09-1.15.81-4.8,3.26c-2.17,1.07-3.62,2.93-5.19,4.66l-4.88,4c-9.21,4.85-17.72,11.08-27.85,14.12l-4.44,1-3.54-.25-3-4.68c2-.33,3.83-1.75,6-1.4,4.24.69,3.79-2.8,4.25-5.57,2.48,1.26,3.64,5.08,6.76,2.76,1.74-1.29-.9-1.89-.89-3l.84-1a5.28,5.28,0,0,0,.85.28c2.22,2.62,4.69,1.91,7,.36s2.94-3.74,2.28-6.47c-.24-1-1.29-2-.24-3.15,1.39.52,1.64,2,2.43,3s1.22,2.26,3.05,1.21c2.25-1.28.88-2.39.15-3.58-1.05-1.68-2.27-3.28-3.25-5-.8-1.42-2.86-3-.2-4.52,2.38-1.36,3.65.19,4.7,2.1a39.29,39.29,0,0,0,2.77,4.69c.59.79,1.16,2.27,2.68,1.47,1-.52,2.18-1,1.25-2.59s.24-1.54,1.34-1.51c1.48,0,3,.1,3.84-1.73a9.73,9.73,0,0,0-1.18-.69c-1.94-.81-3.25-1.92-1.77-4.13,1.88-2.82,3-.53,3.93.81,1.16,1.64,2.39,1.17,3.76.55,8-6.14,16.59-11.81,18.44-22.9.75.6,1.91,1.88,2.18,1.72C242.11,244.06,245.17,247,248.44,246.82Z"/><path class="cls-4" d="M218,267.38c-1.37.62-2.6,1.09-3.76-.55-.95-1.34-2-3.63-3.93-.81-1.48,2.21-.17,3.32,1.77,4.13a9.73,9.73,0,0,1,1.18.69c-.84,1.83-2.36,1.77-3.84,1.73-1.1,0-2.22,0-1.34,1.51s-.25,2.07-1.25,2.59c-1.52.8-2.09-.68-2.68-1.47a39.29,39.29,0,0,1-2.77-4.69c-1.05-1.91-2.32-3.46-4.7-2.1-2.66,1.52-.6,3.1.2,4.52,1,1.73,2.2,3.33,3.25,5,.73,1.19,2.1,2.3-.15,3.58-1.83,1.05-2.24-.17-3.05-1.21s-1-2.49-2.43-3l.06.08a3.39,3.39,0,0,0-2.08-3.08l.09.1-.63-3.91c.4-.53.82-1,1.18-1.6,4.07-6.2,6.28-6.35,11.87-.78,1.23-2.7,3.62-4.55,5.58-7-2.65-1.31-3.9.32-5.31,1.63-.58.53-.87,2.14-2.18.82-.86-.87-.6-1.66,0-2.63,2.89-4.95,7.55-5.19,11.5-.53.68,1.63,1.35,3.27,3.17,4Z"/><path class="cls-8" d="M217.74,264.37c-1.82-.73-2.49-2.37-3.17-4l12.86-14,3-2,2,1C230.28,253.88,224,259.11,217.74,264.37Z"/><path class="cls-10" d="M248.44,246.82c-3.27.17-6.33-2.76-9.8-.62-.27.16-1.43-1.12-2.18-1.72,0-1.14-.09-2.28-.06-3.42s.06-2.46,1.69-2.4c1.32,0,2.28.91,1.94,2.22-.88,3.41,1.64,2.51,3.15,2.5,2.63,0,5,.12,5.41,3.44Z"/><path class="cls-10" d="M232.43,245.43l-2-1c0-2,0-4,.07-6,.07-1.82,1.37-2.05,2.81-2,1.8.1,2.35,1.1,1.7,2.68C234.15,241.25,234.58,243.88,232.43,245.43Z"/><path class="cls-4" d="M281.32,281.15a11.6,11.6,0,0,0,.87-2.76c.19-4.18,2.08-5.49,5.5-2.95,1.87,1.39,2.43.35,3.48-.73,3.66-3.74,7.48-7.31,12.17-9.79,1.78-.64,3.38-2,5.82-1.67-1.11,2.89-4.22,3.92-4.93,6.64l-.71,1.23c-3,1.68-3.48,5.32-5.88,7.53-1.1,1,.2,1.46,1.1,2,2.39,1.35,4.69,2.88,6.64,4.1.42,1.21-.12,1.41-.54,1.6-9,4-16.78,9-18.63,19.81-.42,2.48-2.31,4.71-3.53,7.05-6.38,4-6.5,4-9-1-.85-9.9,2-18.78,7.48-26.91-.15-1.2,1-2.66-.69-3.55C280.73,281.54,281,281.34,281.32,281.15Zm-2.84,20.09c-.38,2.41-.86,4.82-1.11,7.25-.13,1.2-.84,2.9.61,3.53s2-1.19,2.89-2.06c2.72-2.71,1-6.54,2.46-9.55,1.55.29,2.09-.73,2.29-1.94.78-4.76,4.07-7.32,8-9.42,2-1.06,3.84-2.35,5.7-3.5-1.27-2.76-5.57-2.13-5.43-5.26.1-2.38,3.05-4,3.18-7.83-3.78,3-6,7.05-10.93,6.09-.85-.17-.84,1.6-.9,2.55a18,18,0,0,1-3.76,10C279.4,293.91,276.74,297.07,278.48,301.24Z"/><path class="cls-10" d="M303.52,271.12l.71-1.23c1.42-.55,3.62-1,4,.37,1.18,4.51,4.81,4.52,8.16,5.32a2.63,2.63,0,0,1,1.86,2.63c-5.83,2.34-11.24.15-13.11-5.33A2.73,2.73,0,0,0,303.52,271.12Z"/><path class="cls-10" d="M325.71,278l-5.52,1.4c0-.44-.05-.87-.08-1.31.53-3.1,4.05-.75,5.13-2.82C326.27,276.05,326,277,325.71,278Z"/><path class="cls-14" d="M240.43,131.71c2-1.18,3.45-.9,3.85,1.71a14.73,14.73,0,0,1-1,7.28C239.7,138.52,242.14,134.47,240.43,131.71Z"/><path class="cls-16" d="M226.24,170.85c-3.21-1.31-5.08-3.17-2.78-6.75a9.22,9.22,0,0,1,4.13,2.47C227.38,168.07,227.87,169.8,226.24,170.85Z"/><path class="cls-15" d="M238.48,154.06c-1.78-3.27-.93-5.14,2.9-5.42C241.69,151.13,241.17,153.17,238.48,154.06Z"/><path class="cls-14" d="M243.36,140.88l2-.12v4.35A4.39,4.39,0,0,1,243.36,140.88Z"/><path class="cls-15" d="M235.39,132.69c-.75-.38-.61-.7.07-1A2.93,2.93,0,0,1,235.39,132.69Z"/><path class="cls-15" d="M235.4,131.77l1-1Z"/><path class="cls-11" d="M122.71,166.64a21,21,0,0,1,4.92,10.59c.27,1.79,1,3.86,2.21,4.22,4.67,1.41,3.24,4.42,2.95,7.69-.54,5.87,1.16,10.9,6.42,14.58,2.35,1.65,5,3.86,4.46,7.58a5.07,5.07,0,0,0,2.06,4.81c1.73,1.43,2.07,3.31,2,5.38a2.21,2.21,0,0,0,.93,2.13,4.37,4.37,0,0,0,.22.95c.18,2.26.35,4.51.53,6.77-1.82.35-1.7,1.79-1.74,3.13l0,0c-3.59-1.5-3-4.7-3-7.59.06-5.14-3.53-9.25-3.87-14.25.06-.35.13-.69.18-1,1.24-1.68.8-2.71-1.21-3.13-4-1-5.16-4.7-7.07-7.63-.54-.83-.85-1.76-1.79-2.24-.42-6.66-3.92-12.43-5.46-18.76-.43-2.51,0-5.53-3.59-6.19a5.38,5.38,0,0,1-.22-.9C122.2,170.73,120.89,168.41,122.71,166.64Z"/><path class="cls-11" d="M157.49,239.5a1.83,1.83,0,0,1,.28.81c0,2.69-1.35,5.36-.14,8.07-1.83.48-2.78-.8-3.8-1.92-.34-1.38.42-3.07-1.18-4.08l0,.09-.12-6,2,0C156,237.14,155.43,239.54,157.49,239.5Z"/><path class="cls-7" d="M152.58,236.45l.12,6c-1.84-1.65-1.34-4.35-2.79-6.18a8.55,8.55,0,0,1-.17-.88l-.35-4.07c-.17-2.26-.34-4.51-.52-6.77l1.33-1q.84,5.41,1.7,10.81A1.69,1.69,0,0,0,152.58,236.45Z"/><path class="cls-16" d="M157.63,248.38c-1.21-2.71.1-5.38.14-8.07,3.57,3.76,2.17,8,1.12,12.16C157.12,251.53,157.81,249.82,157.63,248.38Z"/><path class="cls-11" d="M149.74,235.41a8.55,8.55,0,0,0,.17.88c-2.85,1.94-2-.57-2.23-1.84l0,0Z"/><path class="cls-7" d="M152.65,242.38c1.6,1,.84,2.7,1.18,4.08C152.25,245.44,152.76,243.82,152.65,242.38Z"/><path class="cls-1" d="M96.79,92.9c-.38-1.57.43-1.51,1.5-1.11C97.91,92.33,97.75,93.16,96.79,92.9Z"/><path class="cls-5" d="M80.78,329.22c1.87,1.29.76,3.16.93,4.78-1.35,1.07-.71,2.68-1.08,4a3.7,3.7,0,0,0-3,3C76.45,348,74,354.9,75,362.2a6.59,6.59,0,0,1-.24.87c-1.65,0-3,.38-2.83,2.44.12,1.89-.78,2.71-2.64,2.56l-.2-2.95c1.42-1.54.93-2.53-.9-3.14l-.05-2.8c2.73-2.45-1.45-4.07-.71-7,1.22-4.77,4.28-8.88,4.53-13.88l.08-.11.88-.89.11-.08a2.92,2.92,0,0,0,2.93-2.93C77.47,332.53,79.7,331.43,80.78,329.22Z"/><path class="cls-6" d="M71.92,338.3c-.25,5-3.31,9.11-4.53,13.88-.74,2.93,3.44,4.55.71,7a12,12,0,0,1-4.23-10.51c0-1.35-.2-2.45-2-1.56C64.44,343.27,68.65,341.32,71.92,338.3Z"/><path class="cls-6" d="M75.92,334.29A2.92,2.92,0,0,1,73,337.22,5.63,5.63,0,0,1,75.92,334.29Z"/><path class="cls-6" d="M72.88,337.3l-.88.89Z"/><path class="cls-6" d="M248.36,254.4a1.68,1.68,0,0,1,2-1A1.68,1.68,0,0,1,248.36,254.4Z"/><path class="cls-6" d="M247.36,255.4l1-1Z"/><path class="cls-6" d="M246.36,256.4l1-1Z"/><path class="cls-6" d="M245.29,257.3l1.09-.92c.07.36.14.72.22,1.07l-1.1.05Z"/><path class="cls-10" d="M139.78,208.44c2,.42,2.45,1.45,1.21,3.13C139.55,210.93,139.74,209.66,139.78,208.44Z"/><path class="cls-6" d="M69.25,368.07c1.86.15,2.76-.67,2.64-2.56-.14-2.06,1.18-2.45,2.83-2.44.58,2.14-1.52,4-.68,6.13,0,.94,0,1.88,0,2.82.15,2.92-1.73,5.3-2.11,8.08l-1.13.14-.07,0c-.35-3.63-2.44-5.86-5.71-7.16-.85-.95-2-.82-3.11-.92-.33-.69-.66-1.37-1-2.05-.13-2.25,2.51-1.65,3.18-3.08C65.78,367.47,67.35,368.57,69.25,368.07Z"/><path class="cls-9" d="M69.25,368.07c-1.9.5-3.47-.6-5.16-1.07Q63,360.1,62,353.2c1.51-1.14.27-3.42,1.87-4.52a12,12,0,0,0,4.23,10.5c0,.94,0,1.87.05,2.8-.2,1.19-.42,2.39.9,3.14Z"/><path class="cls-3" d="M222.87,315c.22-3.85,5.22-4.73,5.38-8.62a4.43,4.43,0,0,1,4.63,3.52c.4,1.87-2.32,1.7-3.52,2.63C227.55,314,225.67,315.92,222.87,315Z"/><path class="cls-10" d="M227.46,331.39c-.57-1.9-.57-1.9,2.65-2.52l-2-2.68c.43-1.24.91-2.92,2.47-1.23,1,1.09,3.13,2.25,1.16,4.42A6.31,6.31,0,0,1,227.46,331.39Z"/><path class="cls-5" d="M224.93,325.77c-.08-.52-.17-1-.25-1.55A1.12,1.12,0,0,1,224.93,325.77Z"/><path class="cls-2" d="M248.37,391.05c-.12.72-.09,1.58-1.19,1.51a.48.48,0,0,1-.31-.31c-.06-1.1.79-1.07,1.51-1.19Z"/><path class="cls-10" d="M273.36,324.2c1.15,1.48,4,.95,4.35,3.76-5.66,1.1-8-2.27-9.53-6.71Z"/><path class="cls-10" d="M280.44,281.74c1.73.89.54,2.35.69,3.55C280,284.28,280.33,283,280.44,281.74Z"/><path class="cls-16" d="M341.23,329.76l0,.09c-4.4,1.06-5.49,0-5-5.14C338.84,325.52,339.39,328.32,341.23,329.76Z"/><path class="cls-3" d="M170.59,299.17l3.54.25c-1.18,4.56-5.81,3-8.54,4.82l1-3.94Z"/><path class="cls-4" d="M171.39,310.16a4.35,4.35,0,0,1-3.19,4C167.83,311.68,169.24,311.13,171.39,310.16Z"/><path class="cls-3" d="M163.59,307.27c-1.49-1.57-.27-1.81,1-2A1.92,1.92,0,0,1,163.59,307.27Z"/><path class="cls-4" d="M169.77,324.3l-.72.64-.15-.74A2.88,2.88,0,0,1,169.77,324.3Z"/><path class="cls-5" d="M208.5,305.16c.53-1,1.18-1.05,1.95-.26Z"/><path class="cls-3" d="M187.75,306.28l.84,1.08-1.09,1.94C187.58,308.29,187.66,307.29,187.75,306.28Z"/><path class="cls-3" d="M154.61,318.21c.39-1.79.66-3.68,3-4C157.73,316.42,157.24,318.14,154.61,318.21Z"/><path class="cls-8" d="M122.44,341.77c-2.11,1-4.18,2.07-6.38,3-4.27,1.73-4.65-.05-4.27-3.43C115.41,339.91,119,338.62,122.44,341.77Z"/><path class="cls-10" d="M106.48,369c-1.15,0-2.39.2-2.84-1.27-.64-2.06-2-2.69-4.1-2.48-.86.08-2.63.71-2.56-1.2,0-1.3,1.27-1.67,2.45-2,3.82-1.07,5.65,1.26,7.25,4.07C106.62,367.1,106.55,368.06,106.48,369Z"/><path class="cls-7" d="M113.88,325.21h2.85l0,0c-.11.58-.23,1.16-.34,1.75l-.75,1.11-.94.11,0,0-1-2.91Z"/><path class="cls-9" d="M97.78,354.12c-3.25,1.75-3.77,5.6-6.16,8-.87-.29-2-1.38-2.59-.09-1.55,3.15-4.51,5.65-4.73,9.71l5.25-1.9c0,3.19-2.6,5.91-1.7,9.26l-4.72,1.24L86,383c-.06,1.78,0,3.59-1,5.2-1.52,1.6-2.63.79-4-.43-2.35-2.12-.67,1-1.35,1.13-1.09-.66-1.19-2.54-2.77-2.52-3.44.05-2.94-2.69-2.65-4.38.51-3,1.77-5.85,2.72-8.76,3.43-7.68,3.78-16,4.87-24.13l2.8-.51a35.14,35.14,0,0,0,9.18-1.29c1.94-.87,3.82-2.36,6-.57-1.48,2.23-2.56,4.58-2.07,7.37Z"/><path class="cls-8" d="M81.86,349.12c-1.09,8.15-1.44,16.45-4.87,24.13L74,372c0-.94,0-1.88,0-2.82,2.79-1.6,2.17-4.59,2.88-7,2.24-6.89,1.69-14.27,3.77-21.18,2,1.84.9,4.21,1.07,6.36Z"/><path class="cls-9" d="M95.85,395v2c-1.18,2.26-2.41,3.51-5.11,1.5-3.12-2.31-8.34-1-10.17-5.7-.23-.6-.42-1.22-.63-1.82l8.85-.11C89.07,395.76,92.93,394.58,95.85,395Z"/><path class="cls-9" d="M78.87,403v-4.54c1.45,2,1.21,3.31,0,4.53Z"/><path class="cls-9" d="M70.78,380.24l1.13-.14c-.06.51.17,1.23-.66,1.24C71.1,381.34,70.94,380.62,70.78,380.24Z"/><path class="cls-9" d="M92.87,387.22c.94-.37,1-1.29,1.11-2.05.57-4.25,2.59-5.49,6.68-3.81,2.33,1,4,4.74,2,5.49a15.28,15.28,0,0,1-5.31,1.21c-1.49,0-3-.07-4.47-.11A3.56,3.56,0,0,0,92.87,387.22Z"/><path class="cls-6" d="M95.85,395c-2.92-.42-6.78.76-7.06-4.16a11.62,11.62,0,0,1,6.07-.62Z"/><path class="cls-9" d="M86.75,383c.28-1.67,1.37-2,2.84-1.73.15,1,.3,1.93.46,2.89l-.51,2.14c-.05.73-.11,1.46-.17,2.2l-2.1.06C87.09,386.73,86.92,384.87,86.75,383Z"/><path class="cls-8" d="M89.37,388.52c.06-.74.12-1.47.17-2.2,1.27-.28,2.51-.48,3.33.9a3.56,3.56,0,0,1,0,.73C91.9,389.39,90.64,389,89.37,388.52Z"/><path class="cls-8" d="M86.75,383c.17,1.85.34,3.71.52,5.56-.86.56-1.52-.11-2.25-.37,1-1.61.89-3.42,1-5.2A1.86,1.86,0,0,0,86.75,383Z"/><path class="cls-8" d="M90.05,384.18c-.16-1-.31-1.93-.46-2.89,1.09-.06,2.51-.2,2.7,1.09S91.16,384,90.05,384.18Z"/><path class="cls-9" d="M87.77,314.25q1.53-6.48,3.07-12.95c3.18,1.88,6.65,3.63,3.47,8.23a1.48,1.48,0,0,0,.19,2.2,2,2,0,0,0,1.8.12c3.47-2.43,8.12-1,11.51-3.59l0,0c0,1.62-1.22,2.3-2.45,2.66a3.09,3.09,0,0,0-2.57,3.49c0,2.11,1,2.88,3,2.91,2.16,0,2,1.66,2,3.15-.78.84-1.83,1.5-2,2.8l0-.05a1,1,0,0,0-1,1.05l.06-.05-1,0c-.09-2.05-1.9-2.32-3.21-3.1,0-.78.13-2.12-.16-2.23-.94-.36-1.12.74-1.47,1.36-.55,1-1,2-1.54,3-2.22-1.57-3.86-4-7-4.14-1.42,0-1.29-1.14-.9-2.18C90.1,315.29,89.52,314.38,87.77,314.25Z"/><path class="cls-5" d="M97.78,354.12c2.69-.13,3.86-2.37,5.35-4,1-1.13,1.88-2.57,3.41-2.62,2.39-.07,6.19-2,6.71,1.32.36,2.27-.43,6.73-5,6.69a2.13,2.13,0,0,0-2.22,1.58c-1.36,3.89-4.75,3.59-7.44,2.88-3.75-1,.28-3.92-.76-5.81Z"/><path class="cls-10" d="M99.85,346.75c-2.19-1.79-4.07-.3-6,.57-.31-2.11,2.18-3.16,2-5.23,3.42-1.92,7.12-.56,10.68-.9a2.28,2.28,0,0,1,2.22,1.65c.33.77-.39,1.62-.8,1.51C104.67,343.47,102.82,347,99.85,346.75Z"/><path class="cls-8" d="M95.8,342.09c.22,2.07-2.27,3.12-2,5.23a35.14,35.14,0,0,1-9.18,1.29c.57-1.92,2.24-3.38,2.25-5.53,1.83-1.21,4-.71,6-1.23Z"/><path class="cls-9" d="M110,324.1c-2.19,2.82-5,5.26-5.22,9.23-.06,1.13-.64,2-1.9,1.56s-1.18-1.59-1-2.5c.51-2.4,1.22-4.77,1.85-7.15.65-.05,1.11-.3,1.12-1l-.06.05c.69,0,1.19-.21,1-1.05l0,.05C107.11,323.76,108.81,322.57,110,324.1Z"/><path class="cls-10" d="M100.87,366.15c-3.25,3.13,1.79,6.58-.94,9.75-3.17-1.31-1.82-7.27-6.84-6.75-.26,0,.84-2.82,2.57-3.09S98.9,367,100.87,366.15Z"/><path class="cls-7" d="M89.55,369.85l-5.25,1.9c.22-4.06,3.18-6.56,4.73-9.71.64-1.29,1.72-.2,2.59.09Z"/><path class="cls-8" d="M97.41,323.24c.51-1,1-2,1.54-3,.35-.62.53-1.72,1.47-1.36.29.11.12,1.45.16,2.23-1,2.1-3.18,4-1,6.63v0c-1.35,1.27-.95,2.91-.95,4.46L97.07,332l-.49-2.91Z"/><path class="cls-8" d="M117.71,306.27l2,0c2.58,7.8,2.58,7.85-.55,11.85C120.6,313.87,119,310.1,117.71,306.27Z"/><path class="cls-9" d="M96.58,329.13c.17,1,.33,1.94.49,2.91-.1.4-.21.8-.31,1.19a6.25,6.25,0,0,1-1,0c-2.17-.29-4.18-1.53-3.66-3.64C92.85,326.64,95.08,329.62,96.58,329.13Z"/><path class="cls-10" d="M110,324.1c-1.14-1.53-2.84-.34-4.19-.85.14-1.3,1.19-2,2-2.8,2-.34,3.18,1,3.88,2.37C112.68,324.92,110.81,324,110,324.1Z"/><path class="cls-8" d="M112.92,304.51c1.81.08,3.87-.51,4.85,1.8l-8,1-.13-.16C110.13,305.5,111.94,305.52,112.92,304.51Z"/><path class="cls-7" d="M96.76,333.23c.1-.39.21-.79.31-1.19l1.58.15c1.07.93,2.86,2.38,1.55,3.35C98.43,336.87,97.74,334.35,96.76,333.23Z"/><path class="cls-7" d="M116.73,325.2c-.1-1.88.64-3.33,2.79-5.6-.49,3.11-1.07,4.65-2.74,5.64Z"/><path class="cls-7" d="M111.78,331.22c-.6,1.2-1.33,2.16-3,1.54a3.36,3.36,0,0,1,3-1.56Z"/><path class="cls-8" d="M109.81,307.31c-.38.95-1.15,1-2,.93l0,0c.25-1,1-1.12,1.87-1.11Z"/><path class="cls-7" d="M111.76,331.2a1,1,0,0,1,1-1l.06.06-1,1Z"/><path class="cls-7" d="M112.73,330.17a1,1,0,0,1,1-1l.08.08-1,1Z"/><path class="cls-7" d="M114.75,328.21l-1,1-.08-.08a1,1,0,0,1,1-.93Z"/><path class="cls-7" d="M99.6,327.73v0l.68,0c-.11.06-.22.17-.34.17S99.71,327.79,99.6,327.73Z"/><path class="cls-10" d="M113.75,325.32l-.85-.42.47-.46.51.77Z"/><path class="cls-10" d="M104.82,324.2c0,.74-.47,1-1.12,1l.09-1Z"/><path class="cls-9" d="M85.78,321.4c.35-.44.71-.87,1.07-1.31C86.49,320.53,86.13,321,85.78,321.4Z"/><path class="cls-13" d="M161.73,182.45c-2.4-3.06-5.72-1.47-9.2-1.75,4.16-4.72-2.49-8.5-.7-13.06,1.48-.14,3.36.63,3.87-1.72l2.86-.2c-.66,1.47-2.08,3.25,1.34,2.89,1.56-.16,2.48-1.35,3.75-2,2.19.58,4.39,1.13,6.56,1.75,4.35,1.24,5.11.5,4.13-4.08-.21-1-.47-1.9-.77-2.83-.93-3-6.51-6.51-9-5.77l-3.86-3.15c-.49-4.44-3.31-6.7-7.68-6.14-5.19.66-5.89,0-5-5.08.17-.95.81-1.84-.23-2.64.08-1.62.15-3.25.23-4.87,3.33-2.33,1-5.76,1.68-8.62.32-1.36-.67-3.25,1-4s3,.81,4.42,1.52c3,1.49,2.54,5.55,5.41,7.09,0,.64,0,1.28,0,1.92-2.58,3.25-1.94,5.15,2.06,6.16a2.89,2.89,0,0,1,3,1.9c1.12,5.09,8.13,2.93,9.5,7.72a17.84,17.84,0,0,1,1.63-1c5.7-2.56,9.41-6.75,10.72-12.94,1.3-.15,2.07-.74,1.84-2.17l1.18-.76,4.09.08c1.77,1.84,2.64-.34,3.7-1,3.92-2.25,7.37-.85,7.15,3.69-.44,8.81,1,17.92-3.37,26.28-2.08,4-1.48,8.43-1.47,12.73a3.27,3.27,0,0,0,1.64,2.86c6.61,4.51,7.82,14.69,2.38,20.53-2.13,2.29-5.29,3.05-7.77,5.09-7.75,6.37-17.11,9.84-26.6,12.71-3.14.94-6.16-1.36-9.23-2.17-1.56-.41-1.55-2.06-1-3.38.46-1.15.74-2.5,2.72-2.13,3.87.71,6.85-.77,8.37-4.46.9-2.19,2.94-1.85,4.52-2.53,4.18-1.8,5.87-6,4.34-10.8s-4.44-6.56-9-5.37c-.52.14-.88.87-1.32,1.33Zm33.75-34.6c-.22-1.59.73-4.17-2.2-4-3.37.24-5.25,3.08-6.08,5.74-.62,2,2.22,2.83,3.87,2.75C193.57,152.25,196.17,151.49,195.48,147.85Z"/><path class="cls-13" d="M216.35,200.42c.05-.62.11-1.25.16-1.87,4.68.27,2.83,3.49,2.48,5.8-1.23,8.08-3.6,16-3.45,24.27-4,5.81-7.52,12.07-13.69,16-1.17-.47-2.32-1.62-3.61-.33-3.52,3.5-3.72,1-3.79-2,0-2.08-1.44-2.74-3.34-2.86-2.52-.15-6,4.7-7.49-1.46-.12-.51-1.4.45-2.07.87-1.62,1-2.77.21-4-.87-3.61-3.3-1.87-9.16,4.14-10.9,11.87-3.44,20.07-12.23,29.61-19.06C213.81,206.26,216.32,204,216.35,200.42Z"/><path class="cls-15" d="M194.53,130.75l-4.09-.08c-.18-.46-.21-1.1-.55-1.36-6.16-4.74-13.54-5.58-20.9-6.1-2.81-.19-6.72,4.91-6.22,7.27.88,4.19,3.1,5.29,7.71,3.83,1.05-.33,2.11-.62,3.57-1-1.48-.81-3.66-.4-3.3-2.7,1.71.25,3.21,1.5,5.07,1.11,1.26.17,2.56,1.45,3.75.4,3.12-2.75,6.39-1.51,9.69-.65.23,1.43-.54,2-1.83,2.17a5.1,5.1,0,0,0-4.74,2.14c-2.46,3.65-6.05,3.81-9.76,3.93-2.45.08-4.91.08-7.36.11a2.89,2.89,0,0,0-3-1.9c-1.52-1.77-.21-4.49-2.06-6.16,0-.64,0-1.28,0-1.92.33-1.43.7-2.85,1-4.29.55-2.94,2.77-6.87-3.72-4.94-2.46.73-4.39-1.62-5.7-3.82,1.57-.91-1.79-4.49,2.22-4.08a13.81,13.81,0,0,0,.76,1.81c.7,1.16.82,3.52,2.74,2.74s1-2.9.61-4.41c-.15-.62-1.16-1-1.78-1.55,0-.91.64-2,1.14-1.88,3.11,1,5.88-1.3,8.89-.74a5.88,5.88,0,0,0-2.22,6.9c1.26,3.1,4.09,1,6.31.44a7.19,7.19,0,0,1,2,0c-.46,6.77,4.71,4.08,7.91,4.71l4,.9c1.24,3.12,5,1.8,7,3.94C193,127.16,194.83,128.25,194.53,130.75Z"/><path class="cls-15" d="M169,218c-.46.45-.93,1.3-1.37,1.28-6-.2-12.38.42-17.54-3.2-4.5-3.17-1.85-7.71-.88-11.79.38-1.58,3.85-4.56-1.56-4.07-.77.07-1-.83-.84-1.49a3.6,3.6,0,0,1,3-3,63.69,63.69,0,0,1,6.92-.18c1.12,0,2.61.18,2.66-1.42s-1.46-1.42-2.57-1.62c-3.83-.67-8.48,1.71-11.24-3,1.82-3.44,5.17-2.61,8.11-2.93,1.86-.47,3.74-.88,5.58-1.43,3-.93,5.63-.54,7.48,2.32l-8.54.89c.11,2.7,3.33,1.85,3.69,4.41.42,3,1.14,4.65-3.15,5.05s-5.75,4.77-6.83,8.36c-1,3.33.15,5.46,3.86,7.58C160.06,216.23,164.43,217,169,218Z"/><path class="cls-16" d="M179.62,107.28c.15-.29.24-.75.47-.84,6-2.39,16.72,2.08,19.42,8,.46,1,.81,1.87-.23,2.57-.47.32-1.61.56-1.72.38-3.51-5.51-9.23-3-14-4,.22-.23.43-.46.66-.69.91-.94,0-.81-.54-1C181.38,111.17,179.66,110,179.62,107.28Zm4.35,3.08-.65-.19c0,.1.07.3.11.31A2.58,2.58,0,0,0,184,110.36Z"/><path class="cls-11" d="M179.62,107.28c0,2.69,1.76,3.89,4.07,4.53.57.15,1.45,0,.54,1-.23.23-.44.46-.66.69a25.73,25.73,0,0,0-10.9,2.57,7.19,7.19,0,0,0-2,0c-2.22.57-5.05,2.66-6.31-.44a5.88,5.88,0,0,1,2.22-6.9l4.53-.23c2.26.07,4.8,1.68,6.54-1.16Z"/><path class="cls-13" d="M219.33,185.39v3c-.32,0-.73.18-.81.08a27.37,27.37,0,0,1-6-18.75c.2-3.4,2.85-3.43,5.13-2.69,1.39.45,5.3.09,2.56,3.72C218.41,175.52,217.6,180.37,219.33,185.39Z"/><path class="cls-16" d="M166.72,187.48c-1.85-2.86-4.43-3.25-7.48-2.32-1.84.55-3.72,1-5.58,1.43-.89-1.62-3.88-.17-4.08-2.79,4-.84,8.33,1.17,12.15-1.35l7.84,1.72a19.57,19.57,0,0,1,3.27.53,2,2,0,0,1,1.19,1.35c.09.91-.76,1.37-1.55,1.41C170.56,187.54,168.64,187.48,166.72,187.48Z"/><path class="cls-15" d="M149.84,97.93c3.46-3.51,8-4.7,12.57-5.91,1.18-.32,2.68-.32,3.11,1.45A32.35,32.35,0,0,1,149.84,97.93Z"/><path class="cls-15" d="M211.29,117.67c.92,3.23,4.3,5.4,4,9.17-3.21-.86-3.56-4.28-5.5-6.3C208.92,119.63,209.56,118,211.29,117.67Z"/><path class="cls-13" d="M184.58,121.64l-4-.9c-.24-3.66,2.64-3.41,4.9-3.78a1.92,1.92,0,0,1,1.49,1C187.81,120.19,184.81,120,184.58,121.64Z"/><path class="cls-3" d="M219.33,185.39c-1.73-5-.92-9.87.92-14.66A41.81,41.81,0,0,1,219.33,185.39Z"/><path class="cls-15" d="M181.59,92c1.7-2.44,3.36-5.11,6.33-1.28C186.38,94,184,93.23,181.59,92Z"/><path class="cls-16" d="M156.59,111.26c.62.51,1.63.93,1.78,1.55.37,1.51,1.24,3.65-.61,4.41s-2-1.58-2.74-2.74a13.81,13.81,0,0,1-.76-1.81A2.65,2.65,0,0,1,156.59,111.26Z"/><path class="cls-15" d="M173.57,91.9c2.1-2,4.05-.22,6.05.23C177.57,92.91,175.44,95.9,173.57,91.9Z"/><path class="cls-16" d="M177.69,107.25c-1.74,2.84-4.28,1.23-6.54,1.16C173.16,107.07,175.27,106.28,177.69,107.25Z"/><path class="cls-11" d="M149.58,183.8c.2,2.62,3.19,1.17,4.08,2.79-2.94.32-6.29-.51-8.11,2.93-1.65.24-1.8,1.12-1.11,2.46s1.7,3-.58,4.12c-1.16.59-2.1,1.83-3.57,1.13-1.87-.9-1.63-2.72-1.58-4.36a7.46,7.46,0,0,0-1.18-4.2,7.94,7.94,0,0,1,.19-8.06c1-1.79,2.51-2.72,3.6-.33,1.4,3,3.8,3.22,6.51,3.15Z"/><path class="cls-11" d="M151.9,234.33q-.85-5.4-1.7-10.81c3.25,0,6.35,1.42,9.67,1,.93-.12,2.1-.11,2.46,1.07.45,1.52-.91,1.88-1.85,2.43-2.59,1.52-6.08,2.15-5.95,6.25Z"/><path class="cls-14" d="M145.1,173.59c1.55.14,2.43-3.46,4-1.2,1,1.45,2.33,3.76.44,5.91a23.08,23.08,0,0,0-1.89,2.85l-1.93-.55c-.13-1.39.42-3-1.05-4Z"/><path class="cls-15" d="M144.63,176.6c1.47,1,.92,2.61,1.05,4C142.55,180,143.43,178.34,144.63,176.6Z"/><path class="cls-10" d="M151.9,234.33l2.63-.05c0,.73.07,1.46.1,2.19l-2,0A1.69,1.69,0,0,1,151.9,234.33Z"/><path class="cls-10" d="M148.65,223.62a2.21,2.21,0,0,1-.93-2.13A2.12,2.12,0,0,1,148.65,223.62Z"/><path class="cls-14" d="M164.54,155.72c2.52-.74,8.1,2.81,9,5.77.3.93.56,1.87.77,2.83,1,4.58.22,5.32-4.13,4.08-2.17-.62-4.37-1.17-6.56-1.75,1-1.66.89-3-1.23-3.54.71-2.65-.47-3.91-2.8-5.29-2.49-1.48-6.16-.28-7.7-3.62-.65-1.4-2.33-2.16-3.2-1.16-1.28,1.46-3.32,2.85-2.87,5.32.33,1.79,1.69,2.17,3.3,2.31,1.86.16,4-.83,5.53,1.05-.69,1.5-3.42.26-3.49,2.64l4.51,1.56c-.51,2.35-2.39,1.58-3.87,1.72-3.9-1-8.75-6.54-8.05-10,1.09-5.3,1.91-10.6,2.48-16a3.41,3.41,0,0,1,1.49-3c1,.8.4,1.69.23,2.64-.87,5.07-.17,5.74,5,5.08,4.37-.56,7.19,1.7,7.68,6.14-1.22.28-2.53.4-3.18,1.8l5.23,2.65C164.15,157.73,164.41,156.81,164.54,155.72Z"/><path class="cls-14" d="M216.35,200.42c0,3.61-2.54,5.84-5,7.61-9.54,6.83-17.74,15.62-29.61,19.06-6,1.74-7.75,7.6-4.14,10.9,1.18,1.08,2.33,1.89,4,.87.67-.42,1.95-1.38,2.07-.87,1.46,6.16,5,1.31,7.49,1.46,1.9.12,3.29.78,3.34,2.86.07,3,.27,5.52,3.79,2,1.29-1.29,2.44-.14,3.61.33-2.62,6.17-8.59,8.91-13.24,13-2.05-2.68-4.86-2.66-7.65-1.83-4.23,1.26-7,.59-8-4.32-1.06-5.09-3.4-9.39-9-11-1.74-.5-3.33-1.81-3.21-4s1.9-2.81,3.32-3.95c8.22-6.57,19.19-7.23,27.81-13a18.77,18.77,0,0,0,3.15-2.27C201.45,210.82,209.53,206.41,216.35,200.42Z"/><path class="cls-4" d="M194.52,277.3c-1.05,1.12,0,2.17.24,3.15.66,2.73,0,4.95-2.28,6.47s-4.83,2.26-7-.36c.35-1.72-.55-3.67.92-5.19.29,2.24,1.21,4,3.79,3,2.42-.91,1.19-2.82.4-4.08-1-1.68.26-5.47-3.43-4.8-3.17.58-1,3.11-1.06,4.79l-3.4.05c-1.62-6.08,1.78-9.45,8.07-8,.47.83.41,2.14,1.87,2.09l-.09-.1c-.09,1.55.06,2.95,2.08,3.08Z"/><path class="cls-5" d="M182.65,280.31l3.4-.05.3,1.11c-1.47,1.52-.57,3.47-.92,5.19a5.28,5.28,0,0,1-.85-.28c-.16-.54-.29-1.12-1.07-.94l0,.05C183.25,283.7,183,282,182.65,280.31Z"/><path class="cls-8" d="M192.59,274.4c-1.46.05-1.4-1.26-1.87-2.09l1.24-1.82Z"/><path class="cls-8" d="M169.59,279.79c5.8,2.67,5.29,7.33,3.88,12.28-1.51-.57-2.26-3-4.76-1.26a3,3,0,0,1-4.59-2.13c-.5-3.05,2.34-1.59,3.73-2a16.08,16.08,0,0,1,2.93-.36C171.41,283.84,168.88,282.1,169.59,279.79Z"/><path class="cls-10" d="M183.51,285.34c.78-.18.91.4,1.07.94l-.84,1C183.2,286.69,182.28,286.14,183.51,285.34Z"/><path class="cls-3" d="M231.43,280.61c2-.8,4-1.55,5.91-2.4.89-.38,2.42-.92,2.44-1.44.28-6.86,6.44-6.48,10.46-8.63,5.21-2.79,10.52-5.39,15.79-8.06a1.5,1.5,0,0,1,2.14.42c-10.54,9.91-23,16.19-36.16,21.4Z"/><path class="cls-3" d="M224.14,270.47c1.26-2,3.5-2.77,5.28-4.12l1.05,2.92-1,1.12,0,0-1,1h0a2,2,0,0,0-2,1h0l-1.91.09Z"/><path class="cls-5" d="M206.42,284.29l4.88-4,3.19.06A10.47,10.47,0,0,1,206.42,284.29Z"/><path class="cls-3" d="M214.49,280.35l-3.19-.06c1.57-1.73,3-3.59,5.19-4.66.34.59.68,1.18,1,1.77,0,.32,0,.64-.05,1v0l-1,1h0a2.07,2.07,0,0,0-2,1Z"/><path class="cls-6" d="M245.5,257.5c-.74,2.58-2.21,4.18-5.12,3.87l0,0c1.25-1.81,2.5-3.62,4.87-4.09Z"/><path class="cls-3" d="M271.26,256.43c.31.67.73,1.2.61,1.38a2.69,2.69,0,0,1-1.32,1.19c-.9.2-1.08-.56-.76-1.19S270.63,257,271.26,256.43Z"/><path class="cls-5" d="M234.32,266.28a3.38,3.38,0,0,1,3-2l.12.12c-.16,1.85-1.53,2-2.94,2.05Z"/><path class="cls-5" d="M224.54,272.45l1.91-.09a3,3,0,0,1-3,2h0C223.81,273.72,224.17,273.08,224.54,272.45Z"/><path class="cls-5" d="M234.53,266.49c-.2.73-.34,1.53-1.38,1.42a.42.42,0,0,1-.31-.31c-.07-1.06.76-1.13,1.48-1.32Z"/><path class="cls-5" d="M229.43,270.39l1-1.12C231.38,270.8,229.93,270.16,229.43,270.39Z"/><path class="cls-5" d="M226.44,272.37a2,2,0,0,1,2-1A2,2,0,0,1,226.44,272.37Z"/><path class="cls-5" d="M214.47,280.36a2.07,2.07,0,0,1,2-1A2.09,2.09,0,0,1,214.47,280.36Z"/><path class="cls-5" d="M217.47,278.36c0-.32,0-.64.05-1l1.28.48Z"/><path class="cls-5" d="M216.47,279.36l1-1Z"/><path class="cls-5" d="M223.45,274.35l-.41.42c0-.08,0-.2.07-.25a1.19,1.19,0,0,1,.34-.16Z"/><path class="cls-3" d="M221.29,272.37l1.15-.81Z"/><path class="cls-5" d="M228.43,271.38l1-1Z"/><path class="cls-6" d="M239.38,262.38l1-1,0,0-1,1Z"/><path class="cls-5" d="M239.41,262.41c-.32.34-.63.69-.95,1l-.11-.12,1-.95Z"/><path class="cls-5" d="M237.35,264.32l1-1,.11.11-1,1Z"/><path class="cls-6" d="M109.68,307.15c-.85,0-1.62.1-1.87,1.11-3.39,2.6-8,1.16-11.51,3.59a2,2,0,0,1-1.8-.12,1.48,1.48,0,0,1-.19-2.2c3.18-4.6-.29-6.35-3.47-8.23.55-2.88,1.6-5.36,4.84-6.1,1.67,4.42,6.33,3.35,9.4,5.19,2.55,1.51,7.09-.75,7.84,4.12C111.94,305.52,110.13,305.5,109.68,307.15Z"/><path class="cls-6" d="M119.76,304.27l-.42-.22.4.24Z"/><path class="cls-7" d="M81.75,347.35c-.17-2.15,1-4.52-1.07-6.36,0-1,0-2-.05-3,.37-1.34-.27-2.95,1.08-4,2.47.4,2.1,2.34,2.28,4.06.2,2-.85,4.15.64,6A5.38,5.38,0,0,1,81.75,347.35Z"/><path class="cls-11" d="M81.75,347.35a5.38,5.38,0,0,0,2.88-3.28,2.55,2.55,0,0,1,2.28-1c0,2.15-1.68,3.61-2.25,5.53l-2.8.51C81.82,348.53,81.79,347.94,81.75,347.35Z"/><path class="cls-9" d="M98.88,280.43l-.51.38.36-.53Z"/><path class="cls-8" d="M194.58,277.38c-2-.13-2.17-1.53-2.08-3.08A3.39,3.39,0,0,1,194.58,277.38Z"/><path class="cls-10" d="M278.48,301.24c-1.74-4.17.92-7.33,3-10.16a18,18,0,0,0,3.76-10c.06-1,0-2.72.9-2.55,4.89,1,7.15-3.14,10.93-6.09-.13,3.81-3.08,5.45-3.18,7.83-.14,3.13,4.16,2.5,5.43,5.26-1.86,1.15-3.72,2.44-5.7,3.5-3.92,2.1-7.21,4.66-8,9.42-.2,1.21-.74,2.23-2.29,1.94C281.2,297.65,279.65,298.32,278.48,301.24Zm2.36-4.49c.25-.14.6-.24.73-.45s-.12-.48-.19-.73c-.26.12-.63.19-.74.39S280.76,296.47,280.84,296.75Z"/><path class="cls-8" d="M278.48,301.24c1.17-2.92,2.72-3.59,4.85-.83-1.49,3,.26,6.84-2.46,9.55-.88.87-1.33,2.73-2.89,2.06s-.74-2.33-.61-3.53C277.62,306.06,278.1,303.65,278.48,301.24Z"/><path class="cls-10" d="M149.74,235.41l-2.08-.94c0-1.34-.08-2.78,1.74-3.13C149.51,232.7,149.63,234.05,149.74,235.41Z"/><path class="cls-9" d="M80.63,338c0,1,0,2,.05,3-2.08,6.91-1.53,14.29-3.77,21.18l-2,0C74,354.9,76.45,348,77.62,341A3.7,3.7,0,0,1,80.63,338Z"/><path class="cls-7" d="M75,362.2l2,0c-.71,2.44-.09,5.43-2.88,7-.83-2.16,1.27-4,.69-6.13A6.59,6.59,0,0,0,75,362.2Z"/><path class="cls-6" d="M69.05,365.12c-1.32-.75-1.1-1.95-.9-3.14C70,362.59,70.47,363.58,69.05,365.12Z"/><path class="cls-10" d="M105.81,323.2c.14.84-.36,1.05-1,1.05A1,1,0,0,1,105.81,323.2Z"/><path class="cls-11" d="M189.26,131.43c-3.3-.86-6.57-2.1-9.69.65-1.19,1-2.49-.23-3.75-.4-1.39-1.46-1.14-6-5.07-2.67-.81-.1-1.73-.12-1.57,1,.1.66.88.75,1.54.57l0,0c-.36,2.3,1.82,1.89,3.3,2.7-1.46.42-2.52.71-3.57,1-4.61,1.46-6.83.36-7.71-3.83-.5-2.36,3.41-7.46,6.22-7.27,7.36.52,14.74,1.36,20.9,6.1.34.26.37.9.55,1.36Z"/><path class="cls-14" d="M165.57,139.78c2.45,0,4.91,0,7.36-.11,3.71-.12,7.3-.28,9.76-3.93a5.1,5.1,0,0,1,4.74-2.14c-1.32,6.19-5,10.38-10.73,12.94a17.84,17.84,0,0,0-1.63,1C173.7,142.71,166.69,144.87,165.57,139.78Z"/><path class="cls-4" d="M195.48,147.85c.69,3.64-1.91,4.4-4.41,4.52-1.65.08-4.49-.76-3.87-2.75.83-2.66,2.71-5.5,6.08-5.74C196.21,143.68,195.26,146.26,195.48,147.85Z"/><path class="cls-16" d="M155.7,165.92l-4.51-1.56c.07-2.38,2.8-1.14,3.49-2.64,2.59-.13,5.3-.76,7.33,1.64l-3.45,2.36Z"/><path class="cls-15" d="M158.56,165.72l3.45-2.36.41-.25c2.12.59,2.21,1.88,1.23,3.54-1.27.61-2.19,1.8-3.75,2C156.48,169,157.9,167.19,158.56,165.72Z"/><path class="cls-15" d="M164.54,155.72c-.13,1.09-.39,2-1.81,1.3l-5.23-2.65c.65-1.4,2-1.52,3.18-1.8Z"/><path class="cls-14" d="M160.54,131.72c1.85,1.67.54,4.39,2.06,6.16C158.6,136.87,158,135,160.54,131.72Z"/><path class="cls-9" d="M170.75,129c3.93-3.36,3.68,1.21,5.07,2.67-1.86.39-3.36-.86-5.07-1.11l0,0Z"/><path class="cls-11" d="M184,110.36a2.58,2.58,0,0,1-.54.12s-.07-.21-.11-.31Z"/><path class="cls-13" d="M162.42,163.11l-.41.25c-2-2.4-4.74-1.77-7.33-1.64-1.55-1.88-3.67-.89-5.53-1.05-1.61-.14-3-.52-3.3-2.31-.45-2.47,1.59-3.86,2.87-5.32.87-1,2.55-.24,3.2,1.16,1.54,3.34,5.21,2.14,7.7,3.62C162,159.2,163.13,160.46,162.42,163.11Z"/><path class="cls-8" d="M186.35,281.37l-.3-1.11c.11-1.68-2.11-4.21,1.06-4.79,3.69-.67,2.38,3.12,3.43,4.8.79,1.26,2,3.17-.4,4.08C187.56,285.33,186.64,283.61,186.35,281.37Z"/><path class="cls-8" d="M280.84,296.75c-.08-.28-.29-.61-.2-.79s.48-.27.74-.39c.07.25.28.58.19.73S281.09,296.61,280.84,296.75Z"/><path class="cls-15" d="M170.75,129l0,1.59c-.66.18-1.44.09-1.54-.57C169,128.89,169.94,128.91,170.75,129Z"/></svg>
