<svg id="Layer_1" data-name="Layer 1" xmlns="http://www.w3.org/2000/svg" width="145.34mm" height="145.34mm" viewBox="0 0 412 412"><defs><style>.cls-1{fill:#fff;}.cls-2{fill:#f1c6de;}.cls-3{fill:#a19ab5;}.cls-4{fill:#dfe0e7;}.cls-5{fill:#224796;}.cls-6{fill:#9c719e;}.cls-7{fill:#fbdeec;}.cls-8{fill:#dcabce;}.cls-9{fill:#c2c7d2;}.cls-10{fill:#706589;}.cls-11{fill:#513f4c;}.cls-12{fill:#251819;}.cls-13{fill:#946459;}.cls-14{fill:#c38fba;}.cls-15{fill:#d7a18f;}.cls-16{fill:#bc8a7b;}</style></defs><title>stroll</title><path class="cls-1" d="M84.84,411.93H.08Q.08,207.58,0,3.24C0,.33.77,0,3.39,0Q206,.12,408.59,0c2.59,0,3.41.28,3.41,3.22Q411.85,206.1,412,409c0,2.52-.6,3.08-3.07,3-10.3-.16-20.6-.07-30.9-.07-1.94-3.35-2.06-7.78-5.93-10,.26-5.09-3.41-8.62-5.11-12.94-1.85-5.8-6.61-9.16-10.87-12.92-4.7-9.59-13.14-16.5-18.4-25.69a4.1,4.1,0,0,0-3.57-2.28l-2.94-1.93a4.41,4.41,0,0,0-.89-.09c-3.74-3.86-5.31-9.25-9.2-13l-.92-1.08-.94-.88-1.1-1.93h0a2,2,0,0,0-1.94-1.09l0,0-1-1,0,0c0-2-1.8-2.22-3-3.06l-.18-1-.72-.65q-1.11-3.59-2.24-7.15a82.26,82.26,0,0,0-14-35.29c-2.17-3-3.8-7.56-8.86-7.55a6.64,6.64,0,0,0-3.78-1.26,21.76,21.76,0,0,0-10.19-9.82c-1.59-.92-2.8-2.66-5-2.26a19.52,19.52,0,0,0-10.93-9.64l0,0c0-.69-.3-1-1-1h0c-.24-2.9-2.49-3.51-4.72-4.12-3.81-3.69-8.58-5.89-13.14-8.41-4.11-4.14-7.27-9.19-12.19-12.54.08-1.29.17-2.58.26-3.87,1.86-.62,4.85,1.29,5.48-1.5.36-1.57-1.36-3.55-3.78-3.51l-.54-2c3-1.45,2.5-4.3,2.79-6.84,2.91-.44,5.48-1.44,7-4.16l.78-.3-.5-.51-.35.73-2,0c.68-2.73-2.42-3.07-3.12-4.94l-.09,0c2.15-.94,3.54-2.06,2.35-4.82-1.37-3.17-2.43.71-3.76,0-.78-.43-1.9-.25-2.87-.35-1.68-4.11,1.3-7.7,1.33-11.62,1.56-7,3.27-13.87,7.06-20,1.64,0,2.29-.78,1.79-2.4l-.32-3.41a37.31,37.31,0,0,0,4.76.91,4.38,4.38,0,0,0,4.62-3.5c.69-2.6-3.79-8.47-6.8-9.5-.05-4.2-4.27-5.14-6.19-7.88a28,28,0,0,0,2.45-4.27c1-2.6,2.64-5.53-2.07-6.6-3.4-.77-2.5-3.52-1.78-5.61,1.08-3.14.26-5.52-2-7.64,0-1-.08-1.91-.13-2.86,1.08-.24,2.41.07,3.28-1.12-1.45-1.18-2.68-.7-3.89-.47l-.11-.12c.57-1.35-.21-2-1.29-2.57.3-2.08.67-4.16.89-6.25.21-1.88,3.19-2.49,2.05-5-2-4.34-2.26-9.42-5.88-13-2.57-2.54,4.51-1.4,1.45-3.1-5.22-2.88-1.54-3.4.88-4.64-2.16-1.61-4.29-3.22-5.56-5.57-1.39-2.57-3.46-3.36-6.19-2.89l0,0c3.24-5.15-.75-4.19-3.56-4.22a.45.45,0,0,1-.43-.6c.3-2.7-1.42-3.3-3.58-3.44l-.16-.23-.63-.66-1.47-1.54a.42.42,0,0,0-.5-.46,27,27,0,0,0-17.1-9.12c-8.6-1-17.24-3.57-26-.85a4.27,4.27,0,0,1-2,0c-5.3-1-10.55-2.26-15.89-2.91-3.57-.44-8.14-2.55-9.71,3.4a2.2,2.2,0,0,1-1.9,1.34c-8.15,1-15.11,5.14-21.23,10.06-3.36,2.7-6.28,6-10.21,8a10.54,10.54,0,0,0-5.32,7.33c-1.48,6-5.67,10.73-7.23,16.63-1.91,2.34-4,4.64-1.56,7.86-2.56,3.87.33,7.35.8,11l0,0c-.62.14-1.22.29-.88,1.16l.3,1.93c.55,1,0,2.47,1.25,3.22l.13.94c3.54,5.82,2.79,11.75.19,17.57-1,2.25,0,5.62.63,5.56,4.48-.4,2.79,3.19,3.65,5s.16,4.37,2.2,5.82a3.45,3.45,0,0,0-3.32,2.52,1.4,1.4,0,0,0,1.41,1.87c3.79-.07,3.76-.11,3.87,3.75.36,13.06,2.74,25.69,8.11,37.67.38,5.23,3.32,9.46,5.43,14a41.38,41.38,0,0,0,4.64,9c.83,4.25,4.41,6.08,7.57,8a22,22,0,0,1,9.89,11.74c2.21,5.13.93,9.31-3.35,12.76a7.42,7.42,0,0,0-1.27,2.08c-2.86,2.67-5.07,5.43-1.32,9.07l1,1.95c.3,1.36.61,2.73.91,4.09a5.31,5.31,0,0,0-.16.87c-.33,4.55-2.17,7.88-7,9-.39.09-.57,1.06-.85,1.62a26.32,26.32,0,0,0-7.47,5.47l-.29-.1-.17.26c-3.1,1-4.86,3.75-7.15,5.78l-.87,1h0l-1,.95h-.07c-3.56,1.14-5.46,4-7.12,7-5.18,9.32-6.26,19.56-6.48,30l.06,6.82-.21,8,.06,2.24v1.68c-.4,3.05-.81,6.1-1.21,9.15-.13.61-.25,1.21-.37,1.82-1,2.76-1.37,5.49.47,8.08l2.34,4.89a9.73,9.73,0,0,1,0,6.73c-2.66,8.94-5,17.95-5,27.39,0,.61-.1,1.22-.16,1.83-.08,1.05-.17,2.1-.26,3.15C85.6,408.65,86.08,410.47,84.84,411.93Z"/><path class="cls-2" d="M367,389c1.7,4.32,5.37,7.85,5.11,12.94.31,3.33.63,6.66.94,10h-10c-3.06-3.89-8-6.44-8.62-12.14-.12-1.06.26-2.79-1.66-3.42-3.15,5.56-8.4,8.47-14.07,10.86-2.15.9-4.35,1.87-4.57,4.7h-14c.11-1.44,1.23-1.51,2.28-2.06,5.33-2.8,11.66-3.11,16.6-6.84,4.35-3.29,6.9-8.38,11.66-11.28a2,2,0,0,0-.51-3.86c-4.57-1-8.56-5.22-13.88-2.53-1.73.87-4,.69-5.66,1.65-4.9,2.83-11.45,2.19-15.24,7.26-2.81,3.77-6.48,6.93-7.85,11.74-.45,1.59-1,3.64-3.24,4-2.57-3.12-1.32-6.66-1.11-10.08a97,97,0,0,1,33.53-25.58c1.67-.78,3.9-1.15,3.92-3.19s-2-3.26-3.83-4.05c-3.41-1.44-7.59-.58-10.47-3.74-.66-.72-2.06,0-2.33,1.1-1.47,6-6.2,9.32-10.66,12.87-2.61,2.08-3.24,5.84-6.17,7.62-4.06,2.46-7,5.07-7.68,10.56-.39,3.31-.43,4.62,2.66,5.4-1.64,1.84-3.24,3.72-4.93,5.51-.77.81-1.5,2.21-2.73,1.82-1.54-.47-1.21-2.12-1.3-3.42-.41-6.66,3-13.12,1.07-19.86,2.12-.51,4.8,2.64,6.33-.23,4.75-8.88,11.93-15.66,19-22.52,3-2.91,3.44-5.19.55-8.11a73,73,0,0,1,7.83,0c4.64.48,6.88-1.17,6.14-6a4.1,4.1,0,0,1,3.57,2.28c5.26,9.19,13.7,16.1,18.4,25.69-.89,4.83,3.65,7,5.19,10.57C362.53,389.57,364.28,390.14,367,389Z"/><path class="cls-3" d="M86.28,402c0-9.44,2.33-18.45,5-27.39a9.73,9.73,0,0,0,0-6.73c2.62-1.75,2.13-4.53,2.33-7.07l-1.08-6.7c2.23.61,1.67,3.62,3.83,4.74.29-2.21,2.55-3.81.15-6-1.74-1.6-3.2-3.11-5.7-1.69l0,0-.49-.57-.13.79c-.16.8-.37,1.57-1.37,1.68.4-3,.81-6.1,1.21-9.15l1.26-1.27L90,342.26,89.92,340c2.35-1,2.54,4.62,5.33,1.8a35.81,35.81,0,0,0,3.35-4.66c2.06,2,4.59,3.26,6.85,4.91,1.52,1.09,2.4.55,3.51-.05,1.31-.7,1-2,.78-3.08s-.65-2.21-1-3.31c.15-2.8-1.89-4-4-4.19-2.81-.3-4-1.91-5-4.13,4-2.8,3.29-6.94,3.11-10.93l1.85-1.19c3,.65,4.31-.74,4.23-3.65-.08-3.11-.21-6.22-.32-9.33,0-3.62,3.52-4.48,5.24-6.74a5.8,5.8,0,0,0,.82-.21l.27,2.3-.15,1.49a6.57,6.57,0,0,0,.59,4.69c.76,1.6,2.54,2.34,3.55,1.87,1.76-.81,0-2.05-.39-3.13a24.92,24.92,0,0,1-.82-3.25c1-2.32,2-4.64,3-7,2.67-.29,4.09,1.87,6,3-.81,3.22,2.56,5,2.76,7.82-3.27,8.73-6.71,17.4-9.9,26.16-1.8,5-2.07,9.85-2.9,14.8-2.93,5.68-3.2,12-4.32,18.11-1.93-3-3.83-1.81-4.19.66-.23,1.55-.58,4.51,2.41,5.18l-.91,5a2.63,2.63,0,0,1-.25.91c-4.54-.62-7.68.37-7.83,5.88-.07,2.58-1.14,5.11-1.5,7.7-1,6.95-3.38,13.7-3,20.84l-.09,1.51c-1.12.25-1.32,1.11-1.37,2.07h-2c.62-2.3,1.46-4.58.67-7.28-1,1-.2,2.8-1.69,3.28l-.48-2.56c1.28-2.75,2.08-5.58,1.25-8.63,0-1.86,0-3.71,0-5.56,1-2.42-.68-5.42,1.53-8.07,2.26,5.37-1.2,10.5.89,15.35.15-8.68,4.14-17.57-1.72-27-.46,5.67-3.87,9.56-3.5,14.51q.09,5.46.17,10.92Zm24.91-81.29a5.11,5.11,0,0,0,6.66-2.21Z"/><path class="cls-4" d="M203.51,411.93H163.62c2.24-5.53.4-11.34,1.14-17,2.67-3.18,5.18-.86,7.24.58,5,3.46,10.71,5.17,16.12,7.7-5.52-7.85-14.82-9.65-22.45-14.09,4.09.72,5.41-1.89,6.16-5.16,3.16.94,5.55,4.08,10.49,3.24-4.34-3.7-8-6.85-11.76-9.94-.19-.15-.88.29-1.34.46l-.32-.34c1-1.59.28-2.22-1.31-2.37a1.45,1.45,0,0,1-.81-.21c-2-3.87-6.39-4.81-9.19-7.69.12-2.08-1.46-2.72-2.91-3.58-3.62-2.15-6-5.87-10.16-7.5-1.19-.47-2.51-2.66-1.23-4.26,1.12-1.4,2.62-.37,4,.35,2,1.05,4.17,2.28,6.38,2.56,5.19.68,10.34,1.2,14.68,4.53,1.62,1.24,3.49.94,5.28.66,5.49-.86,7.88,1.12,7.94,6.75,0,3.16,0,6.31,0,9.47,0,2.25.49,4.06,3.38,3.58q1.47,3,2.95,6.06c2.46,8.91,6.28,17.05,13.42,23.27Z"/><path class="cls-5" d="M109.55,373.94a2.74,2.74,0,0,0,.25-.92c9.71.29,9.67.29,10,10.06.07,2.16-.56,4.48,1.16,7.46,2-5.41,4-9.92,5.41-14.6.77-2.58,2.35-2.25,4.13-2.29,2.51-.07,2.38,1.57,2.35,3.33-.07,3.89,0,7.78,0,12.09,2-1.91,2-4.15,2.93-6,5.4-11.44,1.22-9.57,13.94-9,.28,3.72-4,6-3.06,10l0-.07c-1.49.49-1.3,1.94-1.75,3-1.56,8.43-5.13,16.36-6.25,24.91h-11c-.3-4.07-.28-8.2-2.15-12l-.43-2.31c2.55.43,3.83-1.06,2.08-2.74s.18-4-1.55-5.32c-.92-.69-1.61-.17-1.67.83-.42,6.5-3.21,12.76-1.93,19.42l-.33,2.11h-10c.21-2.26-2.08-3.5-2.12-5.89-.1-7.56-.65-15.1-1-22.65Q109.08,378.67,109.55,373.94Z"/><path class="cls-6" d="M274.3,411.93h-8a6.75,6.75,0,0,0-2.67-6l-1.23-1.24c-3.91-8-11.65-10.35-19.28-12.45-2.1-.57-4.19-3-6.8-1.22-1.42-1.2-2-3.24-3.85-4-1.52-3-2.84-6.21-5.12-8.81l-1.14-3.88c3.48.15,5.69,2.88,6.57,5.28,3.1,8.38,10.46,9.53,17.48,11.51l.54.36-.37-.53c-3.9-5.38-8-10.66-11.64-16.18-3.08-4.6-8.17-7.83-9.39-13.7.6.21,1.31.73,1.8.57,1.51-.47.43-1.17,0-1.68a6,6,0,0,1-1.73-4.89c.61.19,1.37.2,1.8.58,2.1,1.87,3.91,5.53,7,3.94,2.93-1.51,2-5.43,2.11-8.45,2.27-.15,3.81,1.64,5.89,2.22a85.88,85.88,0,0,1,12.64,5.1c3.57,1.64,2.57,5.46,3.19,8.31.31,1.43-1.87,0-2.82.48a5.42,5.42,0,0,0-4.83-2.22c-2.51-2.22-5.5-2.58-8.69-2.32-1.41.11-2.71-2.66-4.22-.25a4.93,4.93,0,0,0,.36,6c2.25,2.3,2.38,5.34,3.8,7.83,3.21,5.6,4.3,13,11.79,15.31,1.63-1.78.12-4,1.62-6.09,1,4.39,3.8,7.47,4.87,11.59.59,2.28,2.28,6.64,5.18,6.3,2.61-.31.42-4.4,1.42-6.6C273.34,401.47,273.82,406.7,274.3,411.93Z"/><path class="cls-7" d="M304.33,410c2.26-.36,2.79-2.41,3.24-4,1.37-4.81,5-8,7.85-11.74,3.79-5.07,10.34-4.43,15.24-7.26,1.65-1,3.93-.78,5.66-1.65,5.32-2.69,9.31,1.54,13.88,2.53a2,2,0,0,1,.51,3.86c-4.76,2.9-7.31,8-11.66,11.28-4.94,3.73-11.27,4-16.6,6.84-1.05.55-2.17.62-2.28,2.06H304.22C304.26,411.29,304.29,410.65,304.33,410Z"/><path class="cls-8" d="M203.51,411.93,201.36,409c2.07-2.13,1.58-4.34-.37-6-3.35-2.85-5.3-6.27-7.46-10.12-2.54-4.53.55-3.68,2-4.9L199,388c2.17-.41,3.7,1,5.45,1.83a2.09,2.09,0,0,0,2.69-.53,1.81,1.81,0,0,0-.29-2.28c-1-1.05-1.44-2.47-3-3.07-3-1.12-4.51-3.65-5.36-6.62.73-3.13-2.07-3.8-3.77-4.93-1.22-.81-2.87-.45-3.06,1.65l-3,1.05c-2.39-1.84.15-5.08-2-7,0-.67,0-1.34,0-2,2.11-2.32,1.36-6.07,4.06-8.08,2.69,1.39,2.47,5.42,5.72,6.31.54,1.15,1.07,2.31,1.61,3.47,1.32,4.61,2.59,9.24,5.55,13.16.89,1.8,1.95,3.05,3.91,1.12l2,2a6.25,6.25,0,0,0,3,3,2,2,0,0,0,2,1h0c1.18,5.13,6.64,8.67,14,9.1,1.13,1.19,2.63.74,4,.89,0,1.42.48,2.45,2.07,2.6l3.27,1.23c-.85,3.8,2.52,6.52,2.59,10.09h-19c.12-2-.61-3-2.78-3-1.94,0-4,.24-5.78-.43-4.27-1.67-3.69.91-3.4,3.44Zm-1-18c-.65.95-1.66.91-2.65,1s-2.62-.51-2.88,1.11c-.2,1.24,1.06,2,1.92,2.7,2.93,2.5,6.6,2.78,10.2,3.18a30.35,30.35,0,0,1,16.26,6.44c1.85,1.5,4.12,2.66,5.6.58s.15-4.45-2.12-5.81-4.9-2.74-7.29-4.2c-3.44-2.1-6.45-5.32-11.18-3.13a2,2,0,0,1-2.95-1.75c-2.49-2.83-4.31-3.33-8.39-2.25C199.52,393.71,201.9,392.42,202.52,394Z"/><path class="cls-5" d="M166.78,374.82a1.45,1.45,0,0,0,.81.21,2.91,2.91,0,0,0,1.31,2.37l.32.34c2.65,1.34,1.58,4.23,2.61,6.24-.75,3.27-2.07,5.88-6.16,5.16-2.37,1.61-.31,3.92-.91,5.81-.74,5.64,1.1,11.45-1.14,17h-12c0-6.4-.6-12.91.35-19.18.78-5.17-1.27-5.93-5.29-5.81,0-1,0-2,0-3l0,.07,4.87-9.14,4.15-.18C159.37,374.9,163.07,375.41,166.78,374.82Z"/><path class="cls-8" d="M286.27,411.93h-6q-1.62-5.9-3.25-11.81c-.25-3.77-.46-7.55-3.21-10.55l-.6-2.5c.12-.38.23-.76.35-1.14,2.84.81,3.09-3.19,5.59-3,.23.9-.26,2.27.95,2.54s1.45-1.12,1.91-1.92c1.71-3,1.82-7.42,6.82-7.35V379c-.18.37-.37.73-.55,1.09-.1,2.31-.19,4.63-.28,6.94,0,.87-.11,1.73-.16,2.6-1.61.75-1.73,2-1.32,3.55l-.3,2.76c-1.16.89-1,2-.65,3.25C285.08,403.45,284.88,407.74,286.27,411.93Z"/><path class="cls-8" d="M304.33,410c0,.64-.07,1.28-.11,1.92h-12c-1.32-2.45-.86-5.19-1.29-7.79q.68-14.59,1.34-29.18c-1.22-4.62-4.75-1.43-7.14-2.12,3.84-7.37,11.47-9.37,18.12-12.77.49,4.43-4.2,6.23-5.07,10-4.2,2.64-4,6.84-3.92,11V385c2,6.74-1.48,13.2-1.07,19.86.09,1.3-.24,2.95,1.3,3.42,1.23.39,2-1,2.73-1.82,1.69-1.79,3.29-3.67,4.93-5.51l1-1C303,403.35,301.76,406.89,304.33,410Z"/><path class="cls-9" d="M146.71,386.94c4-.12,6.07.64,5.29,5.81-.95,6.27-.3,12.78-.35,19.18h-13c1.12-8.55,4.69-16.48,6.25-24.91Z"/><path class="cls-7" d="M334.13,411.93c.22-2.83,2.42-3.8,4.57-4.7,5.67-2.39,10.92-5.3,14.07-10.86,1.92.63,1.54,2.36,1.66,3.42.66,5.7,5.56,8.25,8.62,12.14Z"/><path class="cls-10" d="M240.4,411.93c-.07-3.57-3.44-6.29-2.59-10.1,2.38.18,4,2.6,6.62,2.16,4.11,2,7.76,5.59,13,4,2.13-.53,4.44-.55,6.23-2.1a6.75,6.75,0,0,1,2.67,6Z"/><path class="cls-10" d="M273.23,387.07c.2.83.4,1.67.59,2.5A11.74,11.74,0,0,0,277,400.12q1.62,5.91,3.25,11.81h-6c-.48-5.23-1-10.46-3.75-15.12-.14-1.21-.29-2.43-.44-3.64-.35-2.15,1.56-4.94-1.77-6.25-.09-.26-.18-.52-.26-.78.11-.7.21-1.4.31-2.09,1.18-1.4,1.32-2.77-.1-4.1.1-.92.19-1.84.28-2.76,1.48.43,1.61-4.07,3.8-1.05l0,6.77C270.71,384.71,272.29,385.82,273.23,387.07Z"/><path class="cls-9" d="M108.63,383.39c.37,7.55.92,15.09,1,22.65,0,2.39,2.33,3.63,2.12,5.89h-6c-.4-2,.73-4.28-1.09-6,1.15-3.72,2-7.44.17-11.2l-.12-3.44C105.74,388.49,106.7,385.7,108.63,383.39Z"/><path class="cls-10" d="M291,404.14c.43,2.6,0,5.34,1.29,7.79h-6c-1.39-4.19-1.19-8.48-.68-12.78,1.78-.77,2.22-1.8.65-3.24.1-.92.2-1.84.29-2.76,1.93-.63,1.82-2,1.33-3.55.05-.87.11-1.73.16-2.6,2.47,2.88,1.1,6.06.74,9.18C288.43,399.1,286.86,402.42,291,404.14Z"/><path class="cls-10" d="M86.28,402l4.65-5.09,2.64-.17c.83,3.05,0,5.88-1.25,8.62-2.91,1.64-.84,4.42-1.49,6.57h-1L87,404l-.89-.17Z"/><path class="cls-3" d="M121.74,411.93l.33-2.11c2-3,.93-7.08,3.5-9.88,1.87,3.79,1.85,7.92,2.15,12Z"/><path class="cls-2" d="M209.49,411.93c-.29-2.53-.87-5.11,3.4-3.44,1.73.67,3.84.46,5.78.43,2.17,0,2.9,1,2.78,3Z"/><path class="cls-7" d="M373,411.93c-.31-3.33-.63-6.66-.94-10,3.87,2.21,4,6.64,5.93,10Z"/><path class="cls-11" d="M97.18,409.86l.09-1.51,6.53-2.2a14.28,14.28,0,0,1-1,5.78h-5Z"/><path class="cls-11" d="M87,404l2.81,7.93h-5c1.24-1.46.76-3.28,1-4.95C87.14,406.34,86.75,405,87,404Z"/><path class="cls-11" d="M90.83,411.93c.65-2.15-1.42-4.93,1.49-6.57l.48,2.57c0,1.34,0,2.67,0,4Z"/><path class="cls-3" d="M102.79,411.93a14.28,14.28,0,0,0,1-5.78,2.8,2.8,0,0,1,.89-.24c1.82,1.74.69,4,1.09,6Z"/><path class="cls-10" d="M92.82,411.93c0-1.33,0-2.66,0-4,1.49-.48.66-2.31,1.69-3.28.79,2.7,0,5-.67,7.28Z"/><path class="cls-10" d="M97.18,409.86l.63,2.07h-2C95.86,411,96.06,410.11,97.18,409.86Z"/><path class="cls-12" d="M87.12,106.71l-.3-1.93.88-1.16,0,0,1.64-.79c-1.7-3.18-1.65-6.7-1.93-10.15,1.39-2.5,2.3-5.07,1-7.92,1.57-5.9,5.76-10.64,7.24-16.63A10.54,10.54,0,0,1,101,60.83c3.93-2,6.85-5.29,10.21-8,6.12-4.92,13.08-9,21.23-10.06a2.2,2.2,0,0,0,1.9-1.34c1.57-5.95,6.14-3.84,9.71-3.4,5.34.65,10.59,1.93,15.89,2.91a4.27,4.27,0,0,0,2,0c8.75-2.72,17.39-.11,26,.85A27,27,0,0,1,205,50.92a.43.43,0,0,0,.5.46L207,52.92l.63.66.16.23a6.13,6.13,0,0,0,3.58,3.44.45.45,0,0,0,.43.6,10.56,10.56,0,0,0,3.56,4.22l0,0c4.26,4.9,6.26,11.07,9.26,16.67,1.25,6.07,2.79,12.06,1.11,18.37-.51,1.9-.71,4.32,1.46,5.83a1.23,1.23,0,0,0-.33.39c.06,4,1.53,7.75,2.84,11.48,1,2.72-1.47,5.33-.25,8.06a1.82,1.82,0,0,0,1.1,1.87v1c-2.39,1.23-2.29,2.56-.17,4l1.53,3.93c1.72,3.65,1.82,8.65,7.53,9,2,3.77,1.89,3.94-1.79,6.35-.16.11-3.8,2.74-.76,4.81.1,1.14.21,2.28.32,3.41-1.46.16-1.71,1.22-1.79,2.4-3.79,6.18-5.5,13.09-7.06,20l-1.6.17c-2.6-2.58-5.34.31-8-.19-.92-.17-2.24-1.66-2.86.18-.5,1.48.8,2.38,1.88,3.13,1.45,1,3.2.35,4.78.69,1.66,4.92,1.77,10.6,6.83,13.85v1.43c-.05,1.18-.32,2.45,1.31,2.85a4.87,4.87,0,0,0,3.83-.36l2,0,.07.08c-1.55,2.72-4.12,3.72-7,4.16-3.94.12-3.79,3.22-4.26,5.86-2.57,0-.57,1.51-.71,2.25-.35,1.94-.86,3.14-3,1.51-.47-1.08-.5-2.47-2-2.84l-.06-.05-3.15-3.66c.1-7.71.1-7.71-4.81-5.17-.85-10.46-1.74-20.92,1.35-31.12-3.17-.62-7.19,4.88-7.44-2.18,2,.66,3.93.31,5.91.05,2.59.11,4-1.55,5.3-3.47,3.26-3.84,4.51-8.29,4.87-13.3.16-2.28-1.16-1.72-2.11-2.18l-6.26-6.61c-1,2.2.59,3.42.37,4.87l-.08.08c-.92.45-2.23-1.46-2.8.29-.4,1.22.73,1.56,1.77,1.63a16.43,16.43,0,0,0,.29,10.12,5,5,0,0,0-.15.94c-1.41,1.34-2.82.83-4.22,0-.2-.52-.44-.61-.72,0l-2.13-.21c-.33-2.26-1.78-3.12-3.79-2.46-1.42.46-1.35,1.62-.24,2.61l0,3.08c-3.39.39-3.59-2.57-4.7-4.54-.65-1.15.13-3.06-1.87-3.51-.78-6.47.32-13-1-19.47.66-1.25.33-2.07-1-2.46l-.38-3c1.31-.93.72-1.54-.35-2.07-1.83-6.4-2-13.41-6.81-18.71-.12-9.29-8.76-13.13-12.76-19.94-1.56-2-3.72-2.19-6-1.92l-3-.31c-1.85-4.92-4-9.32-10.66-7.86a3,3,0,0,1-3.27-1.66c-.71-1.16-1.43-1.16-2.05.11a14.42,14.42,0,0,1-2-.16c-7.48-1.64-14.49-.88-20.65,4.08-1.82,1.46-3.43,1-5.46.31-4.84-1.67-7.76.18-9.19,5.11-.76,2.62-.34,5.25-.52,7.88-.35,5.25.52,10.56-.93,15.78-.53,1.92-1.8,3,1.14,5.76,4.4,4.07,7.63,9.73,12.59,13.66l.09,2a.58.58,0,0,0-.18.73c-2.12,1.26-2.72,3.45-3.38,5.6l-.77.16.75.21c0,.45-.08.9-.13,1.35-.33,0-.86-.08-1,.08-2.81,5-2.66,10.88-4.86,16.08a1.65,1.65,0,0,0,2.47,1.84c.25.76.4,2.15.76,2.21,8.88,1.4,3.17,6.77,2.94,10.62-2.72-.09-3.92,1.34-3.53,3.92.51,3.33,3.29,2.93,5.64,3.15a2.86,2.86,0,0,1,2.22,1.34c1.32,2.45,3.1,1.89,5,.77,2.19,1.21,4.64.67,7,1l-.81.8c-4.37.4-8.78.59-13.1,1.3-1.92.32-4.3.77-5,3.32-4.77.24-4.52,4.1-5.06,7.41l3.83-4.39c4.92,2.4,3.1,6,2,9.18-7.18-.29-10.11-4.72-11-11.09.1-2.48.26-5,.28-7.45,0-1.36,1.54-3.15-.34-4-2.7-1.25-2.56-3.63-2.91-5.84-.64-4.08-1.14-8.18-1.7-12.28,1.65-.37,4.15.81,4.74-1.52,1.62-6.36,5.55-11.7,8.11-17.89-5.31-.12-8.54,4-13.1,4.36,1.84-3.29,2.11-5.86-2.8-6,.07-3.61-1.62-6.86-2.14-10.35-.31-2.06-1.73-2.52-3.55-2.35a2.87,2.87,0,0,1-.55-.55c1.51-1.63.3-5.39,3-5.55,4.54-.27,6.65-1.73,5.91-6.51-.18-1.21.6-2.55.77-3.85.44-3.34.79-6.69,1.17-10L102,99.93c-2.22,4.91-5.71,9.18-6.14,15-.07,1,.62,2.61-.79,3-1.56.48-2.09-1.13-3-2.09-1.42-1.54-1-4.38-3.64-5l-.13-.94a2.39,2.39,0,0,0,1.45-2.17l1.43-.85-.51-.53-.9,1.4Zm24.69,24.86c-3.39-1.35-5.7-3.08-8.69-2.78-1,.09-2.23.05-2.47,1.18-.3,1.38,1,2.19,2,2.37A14.82,14.82,0,0,0,111.81,131.57ZM214.88,138l.08.93c4.35-1.13,2.77,4.07,5.26,4.93a5.47,5.47,0,0,0,1.8.63c.95-.05,1.33-.82,1.35-1.74,0-.74-5.82-6.71-6.57-6.72C215.48,136,215.4,137.22,214.88,138ZM187.27,81.35c.54,3.39,2.86,5.18,5.26,6.9.63.46,1.18,1.39,2.06.73s.62-1.68.14-2.64C193.18,83.3,189.59,83.32,187.27,81.35ZM201,155.21a2,2,0,0,0-1.89-1.35c-.73,0-1.42.47-.92,1.16a3.9,3.9,0,0,0,2.08,1.14C200.82,156.31,201.12,155.8,201,155.21Zm5.91-11.82c-1.95,2.27.25,3.09,1.21,4.81A4.53,4.53,0,0,0,206.94,143.39Z"/><path class="cls-2" d="M321.1,333.09c3.89,3.75,5.46,9.14,9.2,13a16.14,16.14,0,0,1-8.95-2.63c-10.27-6.82-21.52-4.54-32.53-3.94a86.34,86.34,0,0,0-15.56,2.69c-6.5,1.59-13.4,2.29-18.81,6.92-3.09-4.82-7.93-2.53-12.1-3l-.91-.08c-.18-2-1.59-2-3.07-1.9-1.41-.05-2.85-.06-3-2,.45-1-.18-2.49,2.24-2C245,341.83,250.82,339,249.41,330a18.42,18.42,0,0,1,0-3c6.36-1.22,7.33-2.83,4.8-8-.36-.75-.72-1.49-1-2.26-.44-1.06-.2-2,.91-2.37s2-.15,2.28,1.54c.32,1.89,1.41,3.64,2.17,5.45-.3,2.77,1.61,2.6,3.48,2.78,4.31.41,8.42-.87,12.62-1.37,1.58-.19,2.55-.36,2.73,1.5-3.93,2.89-8.89,3.93-12.79,6.51-2.3,1.53-4.29,3.76-7.05,4.92a1.85,1.85,0,0,0-.95,2.86c2.58,4.65,2.16,6.73,8.27,1.92l.91-.8c1.37.55,2.92.32,3.55-.79,1.86-3.28,5.47-4.3,8-6.7,1.28,1.83-.26,5.42,3.25,5.79s7,.26,9.44-3.39c-3.43-1.12-7.08.46-9.68-2.29,3.55-.82,6.91-3.12,10.25-3.4,5.35-.45,10.64-.66,15.76-2.45,0,1,.67,1.93,1.45,1.21,2.42-2.25,4.93-1.07,7.45-.61l0,0,1,1,0,0a2.06,2.06,0,0,0,1.94,1.09h0a2.07,2.07,0,0,0,1.1,1.93l.94.89C320.49,332.37,320.79,332.73,321.1,333.09Z"/><path class="cls-7" d="M254.45,349.13c5.41-4.63,12.31-5.33,18.81-6.92a86.34,86.34,0,0,1,15.56-2.69c11-.6,22.26-2.88,32.53,3.94a16.14,16.14,0,0,0,8.95,2.63,4.41,4.41,0,0,1,.89.09c.23,2.59-1.56,3.28-3.55,4a56.1,56.1,0,0,1-22.4,3c-.07-1.78-.38-4-2.71-2.41-2.66,1.76-5.4,1.47-8.13,1.35-13-.59-26,1.4-39.06.07C254.18,351.37,254.38,350.23,254.45,349.13Zm59.39-2.28c-.28-.12-.63-.39-.83-.31s-.26.52-.38.8c.28.12.62.39.82.31S313.72,347.14,313.84,346.85Z"/><path class="cls-2" d="M272.24,261.34a21.76,21.76,0,0,1,10.19,9.82c-.26.28-.52.55-.77.83-1.78.58-2.84-1.73-4.64-1.28-.51,2,1.67,1.64,2.1,2.71l-2.83,1.9c-2.66.18-4.73-1.31-6.82-2.56-1.69-1-3.23-2.66-5.29-2.31-5.63,1-11.27,1.7-16.61,4.15a106.2,106.2,0,0,0-16.92,9.73l-3.22-1,1-2,0,0a3.44,3.44,0,0,0,2-2h0a1.89,1.89,0,0,0,1-1.9l.08-.11.9-.89.1-.1.89-.9.11-.1.89-.89.1-.11,1-.85.91-.12,1.08-.92.91-1c.35-.36.7-.73,1-1.1l0,0a2.27,2.27,0,0,0,2.06-1,5.9,5.9,0,0,0,3.91-1.91c1.07-.16,2.27,0,3-1.09h0c3.09,1,5.32-1.44,8-2l0,0c1.93-.35,4.14.91,5.82-1l1-.28c1.52,2.56,4.31,1.88,6.56,2.6,1.74.56,3.8,1.47,4.84-.5S272.63,262.9,272.24,261.34Z"/><path class="cls-3" d="M120.7,274.78c.28-.56.46-1.53.85-1.62,4.83-1.07,6.67-4.4,7-9,.52,1,1.08,2,2.36,2.16,1.89,2.92,4.31,3.48,9.1,1.12-7.71-.05-5.52-4-5-7.21,1.85,1,1.71,4.15,4.52,4,.92,1.51,1.87,3,4,1.88,0,2.38,2.17,4.73.11,7.14a30.73,30.73,0,0,1-6,1.11,9.54,9.54,0,0,0-1.86.46c-1.11.49-3.09.13-2.93,2,.26,3.05.34,6.4,1.72,9,.66,1.24,3.34-.94,5.06-1.82,1.21-.62,2.79.69,4.14-.25l2.81,6.54c-6.59-.09-11,3.33-14.23,8.75-.08.13-.27.2-.4.29l-1.23-4.09c.26-1.81-.68-3-1.84-4.29-1.69-1.95-2.79,0-4.1.66-.5-4.52,2-4.56,4.88-4.15,3.29-3.56,2.94-6.84-1-9.31-.07-.49,0-1.19-.24-1.43-1.19-1,2.66-2.84-.56-3.32-1.92-.29-3.34.3-3.2,2.61.15,2.71-2.49,2.17-3.74,3.25C120.86,277.77,120.78,276.27,120.7,274.78Z"/><path class="cls-4" d="M225.25,223.36c4.92,3.35,8.08,8.4,12.19,12.54-3,.82-6.62-.4-9.15,2.38-3.22-.31-4.9,2.8-7.68,3.46-.07-5-4.05-2.72-6.41-3.48.94-1,.14-2.16.24-3.22.17-1.92-2.15-4.56-.39-5.36,2.63-1.2,2.3,2.39,3.46,3.72.74.84,1.47,1.41,2.51.85a3.75,3.75,0,0,0,1.1-1.31c-2.71-2.51-2.14-7.59-6.68-8.64,1.11-2.92,1.53-5.41-3-4.89l2-2.94,6-4.08.06.05c1.79,1.25-3.22,5,1.88,5.05A13.84,13.84,0,0,0,225.25,223.36Z"/><path class="cls-11" d="M88.5,110.87c2.61.63,2.22,3.47,3.64,5,.88,1,1.41,2.57,3,2.09,1.41-.44.72-2,.79-3,.43-5.81,3.92-10.08,6.14-15l1.41.52c-.38,3.35-.73,6.7-1.17,10-.17,1.3-1,2.64-.77,3.85.74,4.78-1.37,6.24-5.91,6.51-2.74.16-1.53,3.92-3,5.56-1.21.47-3.15,1.35-1.89,2.51,2.43,2.24,1.79,5.71,3.81,8.14,1.66-3.87-.69-6.86-1.37-10.11,1.82-.17,3.24.29,3.55,2.35.52,3.49,2.21,6.74,2.14,10.35-.3,1.43-.69,2.84-.89,4.28-.3,2.29-1.55,1.45-2.74.91-2-1.45-1.3-4-2.2-5.82s.83-5.42-3.65-5c-.62.06-1.64-3.31-.63-5.56C91.29,122.62,92,116.69,88.5,110.87Z"/><path class="cls-10" d="M121,279.26c1.25-1.08,3.89-.54,3.74-3.25-.14-2.31,1.28-2.9,3.2-2.61,3.22.48-.63,2.32.56,3.32.28.24.17.94.24,1.43-.56,2.56-.67,5.26-2.74,7.33,1.46.85,4-1.05,3.73,2-2.86-.41-5.38-.37-4.88,4.15,1.31-.62,2.41-2.61,4.1-.66,1.16,1.32,2.1,2.48,1.84,4.29l-3.89.06c-1.92-1.17-3.34-3.33-6-3,.44-3.3,2.74-6.47.76-10,.43-.22.75-.67.27-.93a1.43,1.43,0,0,0-2.19.76l-.08.07a3.31,3.31,0,0,0-3.07,2.57.81.81,0,0,0-.33.38,6.56,6.56,0,0,0-2.53,3c-1.33,1.05-2.26,2.29-2,4.11l0-.09c-5.77,4-8.29,10.5-12,16-1.69-1.53-1.31-3.15-.93-5.27.92-5.2,3.35-9.81,4.92-14.73h.07l.47.11.48-.06c.68,1.74,1.4.1,2.1,0,1,2.14-2.41,3.44-.79,6.84,2.37-4.14,5.83-6.45,7-10.54.32-.27.86-.52.21-.95-.08-.05-.43.32-.66.5-1.33.64-1.94,2.54-3.84,2.18.74-2.37,4-3,4-5.88l.17-.26.3.1c2.27,3.61,4.34,1.33,6.45-.22C120.08,279.74,120.53,279.52,121,279.26Z"/><path class="cls-2" d="M312,323.06l.18,1c-1.4,1.59-2.82,1.34-4-.16-1-1.24-2-2-3.68-1.69-2-1.66-4.09-3-6.83-2.86-9.07-3.49-18.55-3.38-28.05-3.12-.66-1.81-.19-2,1.52-1.32,1.42.59,4.08,1,3.87-.72-.18-1.47.72-5.08-3-5-.78,0-1.72,0-1.62-1.82,2.36.13,4.65-1.2,6.28,2.35,2.49,5.43,4.52,5.79,10.78,2.44a13.86,13.86,0,0,1-3.44-.05c-1.54-.47-.54-3.07-2.54-3.33l2.68-.62c1.29-.24,1.45-2.47,3.24-1.86,1.31,2.61.35,6.73,4.82,7.25l10.42,1.55c-.69-2.42-3.34-2-4-3.89.49-1.2,2.93.16,2.65-2,4,.2,4.11,5.42,7.78,6.08q1.13,3.57,2.24,7.15Z"/><path class="cls-10" d="M95.17,144.84c1.19.54,2.44,1.38,2.74-.91.2-1.44.59-2.85.89-4.28,4.91.15,4.64,2.72,2.81,6-3.42,5.08-1.5,10.06.24,15.05.56,4.1,1.06,8.2,1.7,12.28.35,2.21.21,4.59,2.91,5.84,1.88.87.35,2.66.34,4,0,2.49-.18,5-.28,7.46l-1.28.34c-5.37-12-7.75-24.61-8.11-37.67-.11-3.86-.08-3.82-3.87-3.75a1.4,1.4,0,0,1-1.41-1.87A3.45,3.45,0,0,1,95.17,144.84Z"/><path class="cls-12" d="M132.77,233.39a22,22,0,0,0-9.89-11.74c-3.16-1.88-6.74-3.71-7.57-8,1.3-1.53,1.43-3.37,1.35-5.26,1.84,0,3.18.45,3.11,2.7,0,1.81.68,3.15,2.66,3.48a4.25,4.25,0,0,1,.28.94c.08,2.55,1.78,3,3.88,3l2.93,1.24a1.81,1.81,0,0,0,2.22,1.58l2,.05c4.52,1.9,8.54,5.78,14.13,3.52a8.82,8.82,0,0,1,1,1.53,10.18,10.18,0,0,1-5,2.16c-8,.43-7.16,5.6-4.48,12.35C135.75,238,135.58,234.59,132.77,233.39Z"/><path class="cls-12" d="M228.29,238.28c2.53-2.78,6.11-1.56,9.15-2.38,4.56,2.52,9.33,4.72,13.14,8.41-.54,3.79,2.1,3.95,4.72,4.12h0a.91.91,0,0,0,1,1l0,0c.31,1.58.63,3.15.95,4.73-3.22-1.11-6.53-1-9.85-.72-2-2.12-4.7-.64-7-1.18.23-1.75,2-4.32-2-3.88v0c.25-2.17,1.91-1.92,3.37-1.87,2.29.08,3.69-1,4.59-3.75A81.81,81.81,0,0,1,227.87,245l4.89-4.11C231.44,239.74,230.24,238.39,228.29,238.28Z"/><path class="cls-11" d="M122.43,214.61c-2-.33-2.71-1.67-2.66-3.48.07-2.25-1.27-2.73-3.11-2.7-.36-3.86-2.44-5-6-3.76-2.11-4.56-5-8.79-5.43-14l1.28-.34c.84,6.36,3.77,10.79,11,11.08,1.09-3.14,2.91-6.78-2-9.17l1.17-3c2.83,1.21,3.92,5.07,8.09,4.51s5.31,2.08,4,5.86a6.49,6.49,0,0,1-.76.19c-2-.34-4.81-.12-4.71,2C123.42,206.1,120.73,210.23,122.43,214.61Z"/><path class="cls-7" d="M309.08,315.26c-3.67-.66-3.77-5.88-7.78-6.08l0,0-.09-1-.12-1.82c1.36-.19,3.6.15,2.86-2.07s-.87-4.89-3.46-6.07c-4.89-7.21-7.33-16-14.19-21.95l-.06-3.77c5.06,0,6.69,4.51,8.86,7.55A82.26,82.26,0,0,1,309.08,315.26Z"/><path class="cls-3" d="M103.67,288.19c-1.57,4.92-4,9.53-4.92,14.73-.38,2.12-.76,3.74.93,5.27-1.67,4.92-7.35,7.43-7.79,13.07l-1.82,3.93c.22-10.4,1.3-20.64,6.48-30C98.21,292.23,100.11,289.33,103.67,288.19Z"/><path class="cls-11" d="M132.77,233.39c2.81,1.2,3,4.56,6.54,7.61-2.68-6.75-3.54-11.92,4.48-12.35a5.8,5.8,0,0,1-.8,1.74c-4.2,4.18-4.05,8.22.54,12.31l-7.92,5.47c-2.48.41-4.93,4.6-7.46.06a7.42,7.42,0,0,1,1.27-2.08C133.7,242.7,135,238.52,132.77,233.39Z"/><path class="cls-9" d="M128.15,248.23c2.53,4.54,5,.35,7.46-.06,0,5.14,4.15,4.6,7.35,5.34.69,2.21.91,4.23-1,6.12a8.05,8.05,0,0,0-2.4,4.68c-2.81.12-2.67-3.07-4.52-4,0-.6-.2-1.17.51-1.65,2.32-1.61-.18-2.28-.85-2.81-1.71-1.35-2.13-.13-2.08,1.44-1.6-1.24-2.49-3.86-4.93-3.37-1.68.33-.5,2.25-.84,3.41C123.08,253.66,125.29,250.9,128.15,248.23Z"/><path class="cls-6" d="M98.59,337.16a34.83,34.83,0,0,1-3.34,4.66c-2.79,2.82-3-2.82-5.33-1.8l.21-8c.49-2.92,1.28-5.7,3.58-7.79a7.91,7.91,0,0,1,5.06-3.3A27.07,27.07,0,0,1,95.18,331c-1.49,2.7.12,2.2,1.63,2.21.1,1.33-.06,2.82,1.91,2.91C98.68,336.46,98.64,336.81,98.59,337.16Z"/><path class="cls-9" d="M229.38,122.84c-1.22-2.73,1.21-5.34.25-8.06,1.42-1.65-.58-3.41.16-5.09,2.28,2.12,3.1,4.5,2,7.64-.72,2.09-1.62,4.84,1.78,5.61,4.71,1.07,3,4,2.07,6.6a28,28,0,0,1-2.45,4.27l-1.37-.15-1.53-3.93c.32-1.32,1.43-2.6.17-4v-1C231.06,123.53,230.68,122.91,229.38,122.84Z"/><path class="cls-9" d="M227.12,102.91c-2.17-1.51-2-3.93-1.46-5.83,1.68-6.31.14-12.3-1.11-18.37a.48.48,0,0,1,.16-.47c3.62,3.6,3.93,8.68,5.88,13,1.14,2.55-1.84,3.16-2.05,5-.22,2.09-.59,4.17-.89,6.25l-.48.56Z"/><path class="cls-9" d="M236.82,153.78c-3-2.07.6-4.7.76-4.81,3.68-2.41,3.8-2.58,1.79-6.35a4.82,4.82,0,0,0,0-.93c3,1,7.49,6.9,6.8,9.5a4.38,4.38,0,0,1-4.62,3.5A37.31,37.31,0,0,1,236.82,153.78Z"/><path class="cls-8" d="M305.24,353.1a56.1,56.1,0,0,0,22.4-3c2-.68,3.78-1.37,3.55-4l2.94,1.93c.74,4.84-1.5,6.49-6.14,6a73,73,0,0,0-7.83,0l-12,0C307.14,354,306,354.25,305.24,353.1Z"/><path class="cls-4" d="M224.71,78.24a.48.48,0,0,0-.16.47c-3-5.6-5-11.77-9.26-16.67,2.73-.47,4.8.32,6.19,2.89,1.27,2.35,3.4,4,5.56,5.57-2.42,1.24-6.1,1.76-.88,4.64C229.22,76.84,222.14,75.7,224.71,78.24Z"/><path class="cls-13" d="M229.3,197.47c-5.06-3.25-5.17-8.93-6.83-13.85.53-.71-.46-3,1.38-2.12,2.46,1.15,2.3,1.49,2.84-1.69l1.6-.17c0,3.92-3,7.51-1.33,11.62.11,2.82,3.39,3,4.28,5.17l.09,0Z"/><path class="cls-7" d="M367,389c-2.69,1.14-4.44.57-5.68-2.35-1.54-3.6-6.08-5.74-5.19-10.57C360.36,379.84,365.12,383.2,367,389Z"/><path class="cls-14" d="M272.24,261.34c.39,1.56,3.28,2,2.3,3.87s-3.1,1.06-4.84.5c-2.25-.72-5,0-6.56-2.6,1-1,2.62-1.5,3.18-3l.93-1C269.44,258.68,270.65,260.42,272.24,261.34Z"/><path class="cls-10" d="M126.83,257.3c.34-1.16-.84-3.08.84-3.41,2.44-.49,3.33,2.13,4.93,3.37.54,3.24-.53,6.18-1.69,9.11-1.28-.17-1.84-1.15-2.36-2.16a5.31,5.31,0,0,1,.16-.87c1-.21,2.08-.31,1.86-1.73s-1.37-2.14-2.77-2.36Z"/><path class="cls-11" d="M92.47,354.11l1.08,6.7c-1.68-.69-1.63,5.82-4.29,1l-.85-6.93c.12-.61.24-1.21.37-1.82,1-.11,1.21-.88,1.37-1.68a1.54,1.54,0,0,0,.62-.22l0,0A2.58,2.58,0,0,0,92.47,354.11Z"/><path class="cls-9" d="M267.25,259.08l-.93,1c-1.89-3.69-5.92-4.1-9.05-5.9-.32-1.58-.64-3.15-.95-4.73A19.52,19.52,0,0,1,267.25,259.08Z"/><path class="cls-10" d="M110.67,204.67c3.55-1.22,5.63-.1,6,3.76.08,1.89,0,3.73-1.35,5.26A41.38,41.38,0,0,1,110.67,204.67Z"/><path class="cls-3" d="M239.4,141.69a4.82,4.82,0,0,1,0,.93c-5.71-.31-5.81-5.31-7.53-9l1.37.15C235.13,136.55,239.35,137.49,239.4,141.69Z"/><path class="cls-10" d="M225.25,223.36a13.84,13.84,0,0,1-3.82-5.87c0-.74.07-1.47.11-2.21,2.09,1.63,2.6.43,3-1.51.14-.74-1.86-2.29.71-2.25l1.47,1,.54,2c-.75,1.61-2.44,2.9-1.7,5C225.42,220.78,225.33,222.07,225.25,223.36Z"/><path class="cls-11" d="M121,279.26c-.42.26-.87.48-1.26.77-2.11,1.55-4.18,3.83-6.45.22a26.14,26.14,0,0,1,7.46-5.47C120.78,276.27,120.86,277.77,121,279.26Z"/><path class="cls-9" d="M231.24,196.43c-.89-2.17-4.17-2.35-4.28-5.17,1,.1,2.09-.08,2.87.35,1.33.71,2.39-3.17,3.76,0C234.78,194.37,233.39,195.49,231.24,196.43Z"/><path class="cls-9" d="M304.53,322.21c1.63-.32,2.7.45,3.68,1.69,1.19,1.5,2.61,1.75,4,.16,1.18.84,3,1.07,3,3.06-2.52-.46-5-1.64-7.45.61-.78.72-1.41-.24-1.45-1.21C307.06,324.53,304.53,323.89,304.53,322.21Z"/><path class="cls-9" d="M225.51,219.49c-.74-2.11,1-3.4,1.7-5,2.42,0,4.14,1.94,3.78,3.51C230.36,220.78,227.37,218.87,225.51,219.49Z"/><path class="cls-11" d="M87.38,92.71c.28,3.45.23,7,1.93,10.15l-1.64.79c-.47-3.65-3.36-7.13-.8-11l.25.08Z"/><path class="cls-11" d="M112.77,280.41c0,2.89-3.27,3.51-4,5.88l0,0-1,1,0,0-1,1,0,0c-.7.08-1.42,1.72-2.1,0,0-.34,0-.67,0-1h0c.68,0,.88-.44.87-1C107.91,284.16,109.67,281.46,112.77,280.41Z"/><path class="cls-9" d="M226.67,212.5l-1.47-1c.47-2.64.32-5.74,4.26-5.86C229.17,208.2,229.63,211.05,226.67,212.5Z"/><path class="cls-11" d="M229.79,109.69c-.74,1.68,1.26,3.44-.16,5.09-1.31-3.73-2.78-7.43-2.84-11.48l.3-.11.31.09a2.36,2.36,0,0,0,1.54,1.84l.11.12.61,1.59C229.71,107.78,229.75,108.73,229.79,109.69Z"/><path class="cls-10" d="M89.26,361.84c2.66,4.79,2.61-1.72,4.29-1-.2,2.54.29,5.32-2.33,7.07L88.88,363Z"/><path class="cls-10" d="M87.38,92.71l-.26,0-.25-.08c-2.48-3.22-.35-5.52,1.56-7.86C89.68,87.64,88.77,90.21,87.38,92.71Z"/><path class="cls-10" d="M93.71,324.22c-2.3,2.09-3.09,4.87-3.58,7.79l-.06-6.82,1.82-3.93C92.92,322,90.2,325,93.71,324.22Z"/><path class="cls-4" d="M215.32,62.07a10.56,10.56,0,0,1-3.56-4.22C214.57,57.88,218.56,56.92,215.32,62.07Z"/><path class="cls-9" d="M255.3,248.43c-2.62-.17-5.26-.33-4.72-4.12C252.81,244.92,255.06,245.53,255.3,248.43Z"/><path class="cls-2" d="M286.21,272.42l.06,3.77-4.61-4.2c.25-.28.51-.55.77-.83A6.64,6.64,0,0,1,286.21,272.42Z"/><path class="cls-4" d="M229.3,197.47l2-1c.7,1.87,3.8,2.21,3.12,4.94a4.87,4.87,0,0,1-3.83.36c.63-1.44,1.47-3-1.31-2.85Z"/><path class="cls-9" d="M127.8,259.25c1.4.22,2.53.81,2.77,2.36s-.9,1.52-1.86,1.73C128.41,262,128.1,260.61,127.8,259.25Z"/><path class="cls-9" d="M229.66,106.83l-.61-1.59c1.21-.23,2.44-.71,3.89.47C232.07,106.9,230.74,106.59,229.66,106.83Z"/><path class="cls-3" d="M89.26,361.84,88.88,363c-1.84-2.59-1.43-5.32-.47-8.08Q88.83,358.38,89.26,361.84Z"/><path class="cls-11" d="M87.12,106.71l2.72,1.07,0,0a2.39,2.39,0,0,1-1.45,2.17C87.12,109.18,87.67,107.73,87.12,106.71Z"/><path class="cls-4" d="M211.33,57.25a6.13,6.13,0,0,1-3.58-3.44C209.91,54,211.63,54.55,211.33,57.25Z"/><path class="cls-9" d="M235.35,159.59c.08-1.18.33-2.24,1.79-2.4C237.64,158.81,237,159.57,235.35,159.59Z"/><path class="cls-9" d="M228.94,105.12a2.36,2.36,0,0,1-1.54-1.84l-.23-.17.48-.56C228.73,103.08,229.51,103.77,228.94,105.12Z"/><path class="cls-3" d="M87,404c-.27,1,.12,2.34-1.16,3,.09-1.05.18-2.1.26-3.15Z"/><path class="cls-6" d="M90,342.26l1.27.41L90,343.94C90,343.38,90,342.82,90,342.26Z"/><path class="cls-9" d="M318.14,329.2a2.06,2.06,0,0,1-1.94-1.09A2,2,0,0,1,318.14,329.2Z"/><path class="cls-9" d="M319.24,331.13a2.07,2.07,0,0,1-1.1-1.93Z"/><path class="cls-3" d="M105.62,286.19c0,.6-.19,1-.87,1Z"/><path class="cls-4" d="M207.59,53.58l-.63-.66Z"/><path class="cls-3" d="M104.74,287.24c0,.33,0,.66,0,1l-.48.06-.47-.11Z"/><path class="cls-11" d="M87.7,103.62l-.88,1.16C86.48,103.91,87.08,103.76,87.7,103.62Z"/><path class="cls-9" d="M256.3,249.42a.91.91,0,0,1-1-1C256,248.4,256.33,248.73,256.3,249.42Z"/><path class="cls-9" d="M312,323.06l-.72-.65Z"/><path class="cls-4" d="M205.49,51.38a.43.43,0,0,1-.5-.46A.42.42,0,0,1,205.49,51.38Z"/><path class="cls-9" d="M316.23,328.14l-1-1Z"/><path class="cls-13" d="M236.42,201.42l.35-.73.5.51-.78.3Z"/><path class="cls-9" d="M321.1,333.09c-.31-.36-.61-.72-.92-1.07C320.49,332.37,320.79,332.73,321.1,333.09Z"/><path class="cls-7" d="M303.22,399.93l-1,1c-3.09-.78-3.05-2.09-2.66-5.4.66-5.49,3.62-8.1,7.68-10.56,2.93-1.78,3.56-5.54,6.17-7.62,4.46-3.55,9.19-6.82,10.66-12.87.27-1.07,1.67-1.82,2.33-1.1,2.88,3.16,7.06,2.3,10.47,3.74,1.87.79,3.86,1.93,3.83,4.05s-2.25,2.41-3.92,3.19A97,97,0,0,0,303.22,399.93Z"/><path class="cls-7" d="M308.21,354.09l12,0c2.89,2.92,2.43,5.2-.55,8.11-7.05,6.86-14.23,13.64-19,22.52-1.53,2.87-4.21-.28-6.33.23,0-1.31,0-2.61,0-3.92,4.47-2.54,2.77-7.29,3.92-11,.87-3.74,5.56-5.54,5.07-10C303.4,356.82,307.18,356.59,308.21,354.09Z"/><path class="cls-9" d="M155.67,374.72l-4.15.19-1.81-.83c-12.72-.6-8.54-2.47-13.94,9-.88,1.87-1,4.11-2.93,6,0-4.31,0-8.2,0-12.09,0-1.76.16-3.4-2.35-3.33-1.78,0-3.36-.29-4.13,2.29-1.38,4.68-3.36,9.19-5.41,14.6-1.72-3-1.09-5.3-1.16-7.46-.35-9.77-.31-9.77-10-10.06.3-1.67.61-3.33.91-5,.59-1.95,1.19-3.89,1.78-5.84,1.12-6.11,1.39-12.43,4.32-18.11l1.84-.07c0,1,0,2,.06,3,.35,5.2,5.34,8.88,4.71,14.56-.11.92,2.59,3,4,3,2.07.08,1.1-2.63,1.86-4a24.21,24.21,0,0,0,1.53-4.61c10.5,5.57,19.68,13.45,31.68,17.34C159.87,374.8,157.5,373.12,155.67,374.72Zm-28-7.13-.43-.82c-.16.25-.43.51-.44.77s.24.54.37.82Z"/><path class="cls-14" d="M118.65,344l-1.84.07c.83-4.95,1.1-9.84,2.9-14.8,3.19-8.76,6.63-17.43,9.9-26.16q1.17-1.9,2.36-3.79c.13-.09.32-.16.4-.29,3.2-5.42,7.64-8.84,14.23-8.75l3.06-.06c-2.57,3.44-6.86,5.13-9.09,8.92-3.86,2.27-6.23,5.38-5.8,10.11l-1.06,2.95c-2.27,3.07-5.25,5.42-7.3,8.86-4.12,6.93-5,14.79-7.57,22.13A3.68,3.68,0,0,1,118.65,344Z"/><path class="cls-10" d="M104.69,405.91a2.8,2.8,0,0,0-.89.24l-6.53,2.2c-.43-7.14,2-13.89,3-20.84.36-2.59,1.43-5.12,1.5-7.7.15-5.51,3.29-6.5,7.83-5.88q-.47,4.74-.92,9.46c-1.93,2.31-2.89,5.1-3.89,7.87-4.45,3.51-4.47,3.56-2.88,8.2a6.62,6.62,0,0,0,3-4.75C106.65,398.47,105.84,402.19,104.69,405.91Z"/><path class="cls-12" d="M93.71,324.22c-3.51.8-.79-2.23-1.82-3,.44-5.64,6.12-8.15,7.79-13.07,3.75-5.54,6.27-12,12-16,1.13.06-2.26,3.72,1.49,1.86.65-.32.58.89.71,1.46-1.72,2.26-5.26,3.12-5.24,6.74-2.9,3.85-2.25,8.76-3.91,13l-1.85,1.19c-1.71,1.21-4.39,1.53-4.15,4.54A7.91,7.91,0,0,0,93.71,324.22Z"/><path class="cls-10" d="M90.76,386c-.37-5,3-8.84,3.5-14.51,5.86,9.42,1.87,18.31,1.72,27-2.09-4.85,1.37-10-.89-15.35-2.21,2.65-.53,5.65-1.53,8.07C92.29,389.63,92.6,387.23,90.76,386Z"/><path class="cls-12" d="M121.6,282.3c2,3.49-.32,6.66-.76,10-1,2.33-2,4.65-3,7a2.07,2.07,0,0,1-2.93-.18l.15-1.49a49.59,49.59,0,0,0,2.22-5.74c.44-1.74,2.28-3.79-.45-5.34-.19-.44-.39-.88-.59-1.33a.89.89,0,0,1,.34-.38c2.66,1.1,3.46,0,3.07-2.57l.08-.07Z"/><path class="cls-10" d="M98.77,320.92c-.24-3,2.44-3.33,4.15-4.54.18,4,.9,8.13-3.11,10.93l-3,5.89c-1.51,0-3.12.49-1.63-2.21A27.07,27.07,0,0,0,98.77,320.92Z"/><path class="cls-9" d="M96.81,333.2l3-5.89c1,2.22,2.15,3.83,5,4.13,2.1.22,4.14,1.39,4,4.19l-2.69.22,0,0c-2.53-2.89-4.93-1.6-7.3.24C96.75,336,96.91,334.53,96.81,333.2Z"/><path class="cls-10" d="M106.07,335.85l2.69-.22c.33,1.1.75,2.19,1,3.31s.53,2.38-.78,3.08c-1.11.6-2,1.14-3.51.05-2.26-1.65-4.79-2.95-6.85-4.91l.12-1.05c2.37-1.84,4.77-3.13,7.3-.24-.63.34-1.67.31-1.51,1.39,0,.21.78.53,1.1.44C106.72,337.39,106.44,336.6,106.07,335.85Z"/><path class="cls-10" d="M92.47,354.11a2.58,2.58,0,0,1-1.72-2.94c2.5-1.42,4,.09,5.7,1.69,2.4,2.18.14,3.78-.15,6C94.14,357.73,94.7,354.72,92.47,354.11Z"/><path class="cls-11" d="M104.77,315.19c1.66-4.22,1-9.13,3.91-13,.11,3.11.24,6.22.32,9.33C109.08,314.45,107.8,315.84,104.77,315.19Z"/><path class="cls-11" d="M132,299.33q-1.18,1.89-2.36,3.79c-.2-2.86-3.57-4.6-2.76-7.82l3.89-.06Z"/><path class="cls-11" d="M90.76,386c1.84,1.25,1.53,3.65,2.8,5.2,0,1.85,0,3.7,0,5.56l-2.64.17Q90.85,391.43,90.76,386Z"/><path class="cls-10" d="M112.49,362.19c-.59,1.95-1.19,3.89-1.78,5.84-3-.67-2.64-3.63-2.41-5.18C108.66,360.38,110.56,359.16,112.49,362.19Z"/><path class="cls-10" d="M114.86,299.05a2.07,2.07,0,0,0,2.93.18,24.92,24.92,0,0,0,.82,3.25c.44,1.08,2.15,2.32.39,3.13-1,.47-2.79-.27-3.55-1.87A6.57,6.57,0,0,1,114.86,299.05Z"/><path class="cls-10" d="M116.78,286.48c2.73,1.55.89,3.6.45,5.34a49.59,49.59,0,0,1-2.22,5.74l-.27-2.3c-.26-1.34,1.51-2.64.08-4l.17-1.84A5.07,5.07,0,0,0,116.78,286.48Z"/><path class="cls-10" d="M111.19,320.71l6.66-2.21A5.11,5.11,0,0,1,111.19,320.71Z"/><path class="cls-11" d="M114.82,291.26c1.43,1.36-.34,2.66-.08,4a5.8,5.8,0,0,1-.82.21c-.13-.57-.06-1.78-.71-1.46-3.75,1.86-.36-1.8-1.49-1.86l0,.09Z"/><path class="cls-10" d="M90.77,351.19a1.54,1.54,0,0,1-.62.22c0-.26.09-.53.13-.79Z"/><path class="cls-9" d="M185,379.69c-2.89.48-3.37-1.33-3.38-3.58,0-3.16,0-6.31,0-9.47-.06-5.63-2.45-7.61-7.94-6.75-1.79.28-3.66.58-5.28-.66-4.34-3.33-9.49-3.85-14.68-4.53-2.21-.28-4.35-1.51-6.38-2.56-1.39-.72-2.89-1.75-4-.35-1.28,1.6,0,3.79,1.23,4.26,4.12,1.63,6.54,5.35,10.16,7.5,1.45.86,3,1.5,2.91,3.58-8.19-3.18-15-8.42-21.18-14.49-1.38-1.35-2.19-3.42-4.58-3.39.61-2.35,1.23-4.7,1.84-7.05a4.13,4.13,0,0,1,.77-.19c7.22-1.58,14.43-3.22,21.67-4.73a9.07,9.07,0,0,1,9.3,3c4.76,5.24,9.73,10.35,16.24,13.54a3.38,3.38,0,0,0,2.79,1.09c2.74,3.36.4,6.88.33,10.33A60.94,60.94,0,0,0,185,379.69Z"/><path class="cls-3" d="M131.83,349.25c2.39,0,3.2,2,4.58,3.39,6.21,6.07,13,11.31,21.18,14.49,2.8,2.88,7.22,3.82,9.19,7.69-3.71.59-7.41.08-11.11-.09,1.83-1.61,4.2.07,6.87-1.42-12-3.89-21.18-11.77-31.68-17.34C131.18,353.73,131.51,351.49,131.83,349.25Z"/><path class="cls-14" d="M195.55,388c-1.47,1.22-4.56.37-2,4.9,2.16,3.85,4.11,7.27,7.46,10.12,1.95,1.65,2.44,3.86.37,6-7.14-6.22-11-14.36-13.42-23.27C190.37,386.86,193.26,386.42,195.55,388Z"/><path class="cls-9" d="M164.76,395c.6-1.89-1.46-4.2.91-5.81,7.63,4.44,16.93,6.24,22.45,14.09C182.71,400.7,177,399,172,395.53,169.94,394.09,167.43,391.77,164.76,395Z"/><path class="cls-6" d="M195.55,388c-2.29-1.59-5.18-1.15-7.61-2.26q-1.49-3-2.95-6.06a60.94,60.94,0,0,1-.22-14.41l1.85.76c0,.68,0,1.35,0,2-1.92,3.82-1.39,7.17,1.88,10l1.94,2,1,1,6,5,1.07.91.46.92Z"/><path class="cls-9" d="M171.83,384c-1-2,0-4.9-2.61-6.24.46-.17,1.15-.61,1.34-.46,3.74,3.09,7.42,6.24,11.76,9.94C177.38,388.06,175,384.92,171.83,384Z"/><path class="cls-9" d="M168.9,377.4a2.91,2.91,0,0,1-1.31-2.37C169.18,375.18,169.9,375.81,168.9,377.4Z"/><path class="cls-11" d="M125.57,399.94c-2.57,2.8-1.48,6.89-3.5,9.88-1.28-6.66,1.51-12.92,1.93-19.42.06-1,.75-1.52,1.67-.83,1.73,1.3-.3,3.55,1.55,5.32s.47,3.17-2.08,2.74Z"/><path class="cls-3" d="M149.71,374.08l1.81.83-4.87,9.14C145.7,380.12,150,377.8,149.71,374.08Z"/><path class="cls-3" d="M146.71,386.94l-1.77.08c.45-1.1.26-2.55,1.75-3C146.7,385,146.7,386,146.71,386.94Z"/><path class="cls-14" d="M235.36,342.18c.16,1.93,1.6,1.94,3,2a2.93,2.93,0,0,0,3.07,1.9l.91.08c3.44,4,8.3,5.3,13,7,1.81.76,2.8,2.91,5,2.92,5,3.83,10.68,1.39,16.05,1.87,4,.76,5.31,3.28,3.14,6.34a6.55,6.55,0,0,1-3.83,3c-1.6-3.64-3.21-1.78-4.27.21a73.58,73.58,0,0,0-3.11,7.56c-3.65-1.88-7.62-3.39-9.06-7.82.95-.46,3.13.95,2.82-.48-.62-2.85.38-6.67-3.19-8.31a85.88,85.88,0,0,0-12.64-5.1c-2.08-.58-3.62-2.37-5.89-2.22-1.93-1.17-3.28-3.34-5.85-3.4-.24-1.88-1.37-2.62-3.18-2.52-3.65-1.29-6.47-3.84-9.43-6.19-.83-.66-1.62-2.19-2.83-1.22s-.11,2.08.54,3L229.45,355a6,6,0,0,0,1.73,4.89c.48.51,1.56,1.21,0,1.68-.49.16-1.2-.36-1.8-.57-3.67-4-6.26-9-11.67-11.44,2.58,6.39,4.31,13.08,8.88,18.45l-5.24,0,0-1.41-1.1-1.52c-2.4-4.91-3.65-10.2-4.85-15.46-2.3-10-2.29-20.23-1.11-30.43.09-.32.15-.64.21-1,1.84,1.77-.11,5.71,2.79,6.32s3-3.55,5.26-4.63c1.16-.54,2-1.69,3.16-2.3s2.78-.78,3.67.39c3.59,4.73,7.28,9.42,10.38,14.48.93,1.52,2.32,5.85-2,5.26-3.66-.49-6.58,1-10.62.79C229.78,341.72,233,341,235.36,342.18Z"/><path class="cls-4" d="M221.43,366.6l0,1.41c1.07,2.49,2.28,4.88,4.87,6.17l0,.12,1.14,3.88c-.43,8.53-1.14,9.23-8,7.87-1.12,0-2.28,0-3-1.07,4.16-3.59,3.75-6.62-1.38-9.87-2.74-1.73-6.1-2.94-5.48-7.21,3.22-.42,5.14,1.63,7.09,3.69.8.84,1.83,1.83,3,1.07,1.54-1,.37-2.33-.1-3.49-.94-2.29-3.07-3.68-4.28-5.91-2.86-5.25-6.46-10.09-9.77-15.1,4.19-5.08,2.6-11.18,3-16.93q1.05-6,2.11-12.09l3.84.05c-1.18,10.2-1.19,20.39,1.11,30.43,1.2,5.26,2.45,10.55,4.85,15.46C220.7,365.58,221.06,366.09,221.43,366.6Z"/><path class="cls-10" d="M226.64,368.05c-4.57-5.37-6.3-12.06-8.88-18.45,5.41,2.4,8,7.47,11.67,11.44,1.22,5.87,6.31,9.1,9.39,13.7,3.69,5.52,7.74,10.8,11.64,16.18l-.17.17c-7-2-14.38-3.13-17.48-11.51-.88-2.4-3.09-5.13-6.57-5.28l0-.12c.65-.94-1.34-2.3.78-3.18C229.67,369.91,227.67,368.92,226.64,368.05Z"/><path class="cls-14" d="M270.11,393.17c.15,1.21.3,2.43.44,3.64-1,2.2,1.2,6.29-1.41,6.6-2.9.34-4.59-4-5.18-6.3-1.07-4.12-3.87-7.2-4.87-11.59-1.5,2.09,0,4.31-1.62,6.09-7.49-2.31-8.58-9.71-11.79-15.31-1.42-2.49-1.55-5.53-3.8-7.83a4.93,4.93,0,0,1-.36-6c1.51-2.41,2.81.36,4.22.25,3.19-.26,6.18.1,8.69,2.32-2.64.48-2,2.43-1.87,4.15l-.27-.06c-3.32-2.39-4.33-1.34-4,2.46.33,3.3,1,6.37,3.23,9,1.33-1,.38-2.85,1.86-3.5l2-.06c6,5.24,6.67,13.87,12.24,19.74l1.51-3.47.48-.1Z"/><path class="cls-10" d="M236.35,391c2.61-1.79,4.7.65,6.8,1.22,7.63,2.1,15.37,4.43,19.28,12.45l-5.19,1.52-1.76-.34a1.72,1.72,0,0,0-2.15-1.81l-6.84-.18c-2.82-1.6-4-5.8-8.22-5.17,1.51-1.82.52-3.16-1-4C235.43,393.64,235.56,392.45,236.35,391Z"/><path class="cls-10" d="M234.51,347.71c2.57.06,3.92,2.23,5.85,3.4-.08,3,.82,6.94-2.11,8.45-3.09,1.59-4.9-2.07-7-3.94-.43-.38-1.19-.39-1.8-.58l-9.84-14.24c-.65-.94-1.72-2.08-.54-3s2,.56,2.83,1.22c3,2.35,5.78,4.9,9.44,6.19.38,1.2.47,2.66,1.22,3.57C234.39,351,234.16,348.67,234.51,347.71Z"/><path class="cls-9" d="M219.4,386.05c6.84,1.36,7.55.66,8-7.87,2.28,2.6,3.6,5.77,5.12,8.81-1.51,1.65-2.1,4.09-4.39,5.06a11,11,0,0,1-8.7-3Z"/><path class="cls-8" d="M252.56,369.15c-.11-1.72-.77-3.67,1.87-4.15a5.42,5.42,0,0,1,4.83,2.22c1.44,4.43,5.41,5.94,9.06,7.82.08.72.17,1.43.26,2.15-.1.92-.19,1.84-.29,2.76l-1.2,1.14c-2.72-.82-2.62-3.93-4.44-5.49C259.58,373,257.6,368.68,252.56,369.15Z"/><path class="cls-3" d="M228.11,392.05c2.29-1,2.88-3.41,4.39-5.06,1.89.75,2.43,2.79,3.85,4-.79,1.47-.92,2.66.88,3.66,1.56.87,2.55,2.21,1,4-1.27.59-3.2-.07-3.73,1.94-1.59-.15-2.07-1.18-2.07-2.6,1.84-.29,2.14-1.2.9-2.52a8.59,8.59,0,0,0-5-2.54A8.67,8.67,0,0,0,228.11,392.05Z"/><path class="cls-11" d="M257.24,406.17l5.19-1.52,1.23,1.24c-1.79,1.55-4.1,1.57-6.23,2.1C257.36,407.38,257.3,406.78,257.24,406.17Z"/><path class="cls-10" d="M250.46,390.92l.37.53-.54-.36Z"/><path class="cls-6" d="M184.44,355a3.38,3.38,0,0,1-2.79-1.09c.86-2.56.56-4.42-1.89-6.34-3.5-2.74-6.48-6.15-9.56-9.39-.9-.95-3.16-1.87-1.81-3.42,1-1.16,2.83-1.39,4.93-.59,3.16,1.2,5.43,4.48,9.26,4,.12,1.42.24,2.85.47,5.61,1.57-3.17,2.74-4.9-.5-5.58,1.73-2.38,3.71-1.14,3.7.66,0,5.16,2.91,7.21,7.21,8.36h0l1,1c.92.66,2.59,2.27,2.78.41.34-3.23,2.62-6,2-9.31a12.67,12.67,0,0,1,2.32-6.09l-.15,8.92h0c-1.37,1.1-.8,2.66-1,4v0c-1.46,1.85-.76,4-.79,6l-.22,1.9a3.79,3.79,0,0,0-.84.34l-.55-2.87c-2.38,4.41-1.18,8.71-1.71,12.77-3.25-.89-3-4.92-5.72-6.31C190.88,355,189.75,354.48,184.44,355Z"/><path class="cls-7" d="M198.66,354.37a3.79,3.79,0,0,1,.84-.34c3.49,4.52,7.44,8.69,10,13.87-.62,4.27,2.74,5.48,5.48,7.21,5.13,3.25,5.54,6.28,1.38,9.87-2.49,1.07-4.37-2.19-6.88-1l-2-2L204.53,378c-2.34-3.8-3.12-8.22-4.82-12.28Z"/><path class="cls-2" d="M207.43,394.1a2,2,0,0,0,2.95,1.75c4.73-2.19,7.74,1,11.18,3.13,2.39,1.46,4.88,2.76,7.29,4.2s3.64,3.67,2.12,5.81-3.75.92-5.6-.58A30.35,30.35,0,0,0,209.11,402c-3.6-.4-7.27-.68-10.2-3.18-.86-.72-2.12-1.46-1.92-2.7.26-1.62,1.82-1,2.88-1.11s2-.06,2.65-1Z"/><path class="cls-2" d="M199,388l-.46-.92-1.07-.91-6-5-1-1-1.94-2,.09-3,3-1.05a12.22,12.22,0,0,0,6.83,3.28c.85,3,2.37,5.5,5.36,6.62,1.6.6,2.07,2,3,3.07a1.81,1.81,0,0,1,.29,2.28,2.09,2.09,0,0,1-2.69.53C202.66,388.94,201.13,387.55,199,388Z"/><path class="cls-7" d="M228.11,392.05a8.67,8.67,0,0,1,.31.9l.06,4.17c-7.4-.43-12.86-4-14-9.1l5,1A11,11,0,0,0,228.11,392.05Z"/><path class="cls-14" d="M184.44,355c5.31-.47,6.44.07,6.24,3-2.7,2-2,5.76-4.06,8.08l-1.85-.76C184.84,361.83,187.18,358.31,184.44,355Z"/><path class="cls-10" d="M198.66,354.37l1.05,11.32c-.26.94-.15,2.19-1.7,2.05-.54-1.16-1.07-2.32-1.61-3.47.53-4.06-.67-8.36,1.71-12.77Z"/><path class="cls-11" d="M234.54,400.61c.53-2,2.46-1.35,3.73-1.94,4.22-.63,5.4,3.57,8.22,5.17l-2.06.15c-2.59.44-4.24-2-6.62-2.16Z"/><path class="cls-6" d="M198,367.74c1.55.14,1.44-1.11,1.7-2.05,1.7,4.05,2.48,8.47,4.82,12.27-.17,1,.26,2.26-1,2.94C200.6,377,199.33,372.35,198,367.74Z"/><path class="cls-2" d="M219.41,389.06l-5-1h0a2.07,2.07,0,0,0-2-1,6.25,6.25,0,0,1-3-3c2.51-1.21,4.39,2.05,6.88,1,.75,1.09,1.91,1,3,1.07C219.4,387.05,219.41,388.06,219.41,389.06Z"/><path class="cls-14" d="M198.41,377.29a12.22,12.22,0,0,1-6.83-3.28c.19-2.1,1.84-2.46,3.06-1.65C196.34,373.49,199.14,374.16,198.41,377.29Z"/><path class="cls-9" d="M228.48,397.12l-.06-4.17a8.59,8.59,0,0,1,5,2.54c1.24,1.32.94,2.23-.9,2.52C231.11,397.86,229.61,398.31,228.48,397.12Z"/><path class="cls-14" d="M188.63,375.06l-.09,3c-3.27-2.83-3.8-6.18-1.88-10C188.78,370,186.24,373.22,188.63,375.06Z"/><path class="cls-14" d="M207.43,394.1l-4.91-.13c-.62-1.55-3-.26-3.48-2.12C203.12,390.77,204.94,391.27,207.43,394.1Z"/><path class="cls-14" d="M203.56,380.9c1.23-.68.8-1.91,1-2.94l2.94,4.06C205.51,384,204.45,382.7,203.56,380.9Z"/><path class="cls-7" d="M212.48,387a2.07,2.07,0,0,1,2,1A2,2,0,0,1,212.48,387Z"/><path class="cls-2" d="M275.7,367.27a6.55,6.55,0,0,0,3.83-3c2.17-3.06.86-5.58-3.14-6.34-.23-.82-.61-1.7-1.53-1.72-4.84-.1-9.68-.11-14.52-.15-2.24,0-3.23-2.16-5-2.92l0-1c13,1.33,26-.66,39.06-.07,2.73.12,5.47.41,8.13-1.35,2.33-1.55,2.64.63,2.71,2.41.72,1.15,1.9.91,3,1-1,2.5-4.81,2.73-4.93,6-6.65,3.4-14.28,5.4-18.12,12.78-2.78,2.89-6,5.55-6,10.08-2.5-.19-2.75,3.81-5.59,3-.42-1-.83-2-1.24-3l0-6.77c1.46-1.7,1.64-3.86,2.17-5.9l.78-1.2C275.45,368.45,275.57,367.86,275.7,367.27Z"/><path class="cls-6" d="M291,404.14c-4.1-1.72-2.53-5-2.2-8,.36-3.12,1.73-6.3-.74-9.18.09-2.31.18-4.63.28-6.94.18-.36.37-.72.55-1.09V376.2c.87-1.2,2.14-1.29,3.45-1.24Q291.63,389.54,291,404.14Z"/><path class="cls-14" d="M292.3,375c-1.31,0-2.58,0-3.45,1.24-5-.07-5.11,4.37-6.82,7.35-.46.8-.66,2.21-1.91,1.92s-.72-1.64-.95-2.54c0-4.53,3.21-7.19,6-10.08C287.55,373.53,291.08,370.34,292.3,375Z"/><path class="cls-6" d="M277,400.12a11.74,11.74,0,0,1-3.22-10.55C276.58,392.57,276.79,396.35,277,400.12Z"/><path class="cls-6" d="M272.34,382.91c.41,1,.82,2,1.24,3-.12.38-.23.76-.35,1.14C272.29,385.82,270.71,384.71,272.34,382.91Z"/><path class="cls-6" d="M287.86,389.6c.49,1.53.6,2.92-1.33,3.55C286.13,391.65,286.25,390.35,287.86,389.6Z"/><path class="cls-6" d="M286.24,395.91c1.57,1.44,1.13,2.47-.65,3.24C285.2,398,285.08,396.8,286.24,395.91Z"/><path class="cls-14" d="M288.85,379c-.18.37-.37.73-.55,1.09C288.48,379.7,288.67,379.34,288.85,379Z"/><path class="cls-2" d="M298.21,370c-1.15,3.72.55,8.47-3.92,11C294.2,376.88,294,372.68,298.21,370Z"/><path class="cls-12" d="M244.43,404l2.06-.15,6.84.18c0,1.39.76,2,2.15,1.81l1.76.34c.06.61.12,1.21.19,1.82C252.19,409.58,248.54,406,244.43,404Z"/><path class="cls-2" d="M252.56,369.15c5-.47,7,3.84,10.09,6.45,1.82,1.56,1.72,4.67,4.44,5.49l.3,2.86a2.14,2.14,0,0,0,.69,2.19c.08.26.17.52.26.78,0,1.34,0,2.69,0,4l.66,1.24.14,1.05-1.51,3.47c-5.57-5.87-6.26-14.5-12.24-19.74a1.85,1.85,0,0,0-2-2c-1.26-1.8-1-3.89-1.13-5.91Z"/><path class="cls-6" d="M274.54,370.24c-.53,2-.71,4.2-2.17,5.9-2.19-3-2.32,1.48-3.8,1.05-.08-.72-.17-1.43-.25-2.15a73.58,73.58,0,0,1,3.11-7.56c1.06-2,2.67-3.85,4.27-.21-.13.59-.25,1.18-.38,1.77Z"/><path class="cls-6" d="M269.15,393.24c0-.35-.09-.7-.14-1.05-.21-.41-.43-.83-.66-1.24,0-1.34,0-2.69,0-4,3.33,1.31,1.42,4.1,1.77,6.25l-.48,0Z"/><path class="cls-6" d="M267.39,384l-.3-2.86,1.2-1.14c1.42,1.33,1.28,2.7.1,4.1Z"/><path class="cls-14" d="M267.39,384l1,.1c-.1.69-.2,1.39-.31,2.09A2.14,2.14,0,0,1,267.39,384Z"/><path class="cls-11" d="M104.86,394.71a6.62,6.62,0,0,1-3,4.75c-1.59-4.64-1.57-4.69,2.88-8.2Z"/><path class="cls-15" d="M122.51,135.41a.58.58,0,0,1,.18-.73c1.35-.09,2.45-.33,1.13-2l0-2c3.34-1.67.33-3.22-.15-4.73-1.15-3.6-.22-7,2.67-8.75s2.79,2.2,4.16,3.48l.39,2.16-.3,2.84c-1.79,1.67-1.19,3.64.45,4.39,3.26,1.49,5,4.47,7.62,6.56,0,1.73-4.15,4.24.94,5l1.05,1c2.52,4.63,7,5.88,11.68,7,3.55.86,5.65,0,6.38-3.83.5-2.6,2.1-4.17,4.41-5.94,3.55-2.71,8.64-3.28,10.92-8,.9-1.85,3.48-2.62,5.76-2.14,2.93.63.13,2.8.92,4.07s1.61,2.49,2.28,3.81c2.6,5.12,5.18,10,2.24,16.22-1.54,3.23-2.76,7.3-.7,12.12,1.47-4.31,3.09-3.31,5.19-1.42,2.46,2.2,4.73,4.93,7.31,6.54,3.5,2.2,6.25,5.65,3.49,8-2.61,2.24-3.2,4.92-3.88,7.71-.74,3-1.52,3.6-3.65.95-.72-.89-2.33-3.47-3.17-1-2.36,7-7.88,10.74-13.52,14.28-4.71,3-8.41,8.22-15,7.37-7-.9-13.86-.44-20.22,3-4,2.19-7.56.37-10.74-1.6-3.79-2.34-3.43-6,.53-8.4,2.42-1.48,5-2.68,8.35-4.44-3.79-.48-5-4-8.29-3.66-3.14-4.41-3.07-4.56,3.87-7.89l1.72.17c3.75,3.62,7.57,3.24,11.42.15l1.94.11c.84.26,2,1,2.28-.35.25-1.14-1.15-1.2-2-1.56l-1.28-.79c-.44-.44-1-1.34-1.29-1.25-4.58,1.54-8.74-.47-13-1.41l-1.16-.72-1.75,0a5.31,5.31,0,0,1-3-6c.37-2.43-.83-4.12-2.9-5.27a5.64,5.64,0,0,1-1.14-3.94,8.61,8.61,0,0,1,8.16-.14c-.85,1.57-1.66,3,1.29,3.12,2.31.08,3.48-1.43,4.75-2.9,3.78-2.46,3.82-3.46.15-6.36-.76,1.61-.15,3.6-1.42,5l-2.94.21c-2.81-3.46-6.38-2.37-9.9-1.65-.7-1.47-2-1.29-3.24-1.15a2.76,2.76,0,0,1-.78-.26c-3.3-4.22-.79-8.19,1-11.76C124.17,144.24,123.5,139.91,122.51,135.41Zm17.68,36.69.2-.93a42,42,0,0,0-6.14-2.4c-1.16-.27-3,.37-3.05,1.86a2.48,2.48,0,0,0,2.93,2.59C136.17,173,138.18,172.49,140.19,172.1Z"/><path class="cls-16" d="M130.54,120.73c-1.37-1.28-1.23-5.28-4.16-3.48s-3.82,5.15-2.67,8.75c.48,1.51,3.49,3.06.15,4.73-1.3-3.89-7.24-4.78-6.47-10,0-.08-.22-.29-.33-.29-5.56,0-3.06-3.92-2.76-6.22.28-2.12.46-4.22.54-6.35l1.31-.52c-.1-.12-.26-.38-.29-.36-.4.22-.78.47-1.16.71a10,10,0,0,1,2.14-10.84c4.16-3.77,10.9-5.16,11.48-12.3,0-.33.7-.8,1.13-.87,4.07-.66,8.55,2,12.3-1.48a1.93,1.93,0,0,1,.73.57c2.29,3.09,6.2,2.58,9.17,4.12l2,.7c1,2.18,4.78,1.06,5,4.17a5.75,5.75,0,0,1-1.49,0c-9.48-2.49-10.32-1.46-16.28,6.54-2.57,3.44-.33,7.19-3.13,10.25-2.19,2.38-5.77,3.91-6.32,7.86a17.24,17.24,0,0,0,10.69-1.58c3.47-1.59,6.79-3.21,11.05-3.49,4.67-.32,8.19,2.37,12.57,2.38,7,0,9.42-2.75,7.24-9.23-1.51-4.5-4.38-7.5-8.91-8.53-2.32-.53-3.65-1.35-3.67-3.79,7.3.48,18.07,9.12,20.18,16.17a4.46,4.46,0,0,0,4.7,3.51c4.86,5.3,5,12.31,6.82,18.71a1.43,1.43,0,0,0,.35,2.07c.12,1,.25,2,.38,3-.46,1.16.12,1.88,1,2.46,1.3,6.44.2,13,1,19.47-.65,8.73-.65,8.73,7.58,11.55,1.23,2.41-.62,6.89,3.17,7.23,4.58.42,4.11,2.73,3.52,5.64-1.9,9.22-3.87,18.43-2.56,28a1.37,1.37,0,0,1,0,.57l-6.05,1.91c0-3.5-.55-7.08,2-10.51-4.72-.19-4.66,5-8,5.56h0c-.12-1.89.55-4.35-2.22-4.77-2.27-.34-3.3,1.33-4.25,3.29-.75,1.56-2.33,2.73-3.59,4-4.4,4.5-9.34,8.5-12.56,14-.82,1.41-2.23,3,.89,3.41a109.41,109.41,0,0,1-14.1,8c-3.14,1-5.6,3.45-8.93,4-.94-.61-1.87-1.26-2.84-1.82-1.19-.68-3.44.56-3.74-1.35s1.27-3.09,2.86-4.17c2.6-1.78,5-3.87,7.49-5.83a5.34,5.34,0,0,1,.88-.2,10.8,10.8,0,0,0,1.95.18c9.6-.9,14.42-9.18,21.49-14a2.15,2.15,0,0,0,.4-2.76c-.76-1.41-2-.83-3-.34-4.84,2.26-9.72,4.67-15,5.38s-10.4,2.69-15.83,3.06c-2,.13-4.85-.25-5.86,2.64l-2.66-.09c-.65-2.08-2.47-2.28-4.21-2.81-6.23-1.88-7.69-4.69-6.43-10.94.5-2.47,1.87-4.44,2.69-6.7a6.49,6.49,0,0,0,.76-.19c6.59.11,2.8-3.6,2.25-6.12,3.27-.36,4.5,3.18,8.29,3.66-3.35,1.76-5.93,3-8.35,4.44-4,2.43-4.32,6.06-.53,8.4,3.18,2,6.75,3.79,10.74,1.6,6.36-3.48,13.2-3.94,20.22-3,6.62.85,10.32-4.41,15-7.37,5.64-3.54,11.16-7.29,13.52-14.28.84-2.49,2.45.09,3.17,1,2.13,2.65,2.91,2,3.65-.95.68-2.79,1.27-5.47,3.88-7.71,2.76-2.36,0-5.81-3.49-8-2.58-1.61-4.85-4.34-7.31-6.54-2.1-1.89-3.72-2.89-5.19,1.42-2.06-4.82-.84-8.89.7-12.12,2.94-6.22.36-11.1-2.24-16.22-.67-1.32-1.5-2.55-2.28-3.81s2-3.44-.92-4.07c-2.28-.48-4.86.29-5.76,2.14-2.28,4.68-7.37,5.25-10.92,8-2.31,1.77-3.91,3.34-4.41,5.94-.73,3.81-2.83,4.69-6.38,3.83-4.66-1.13-9.16-2.38-11.68-7,7.88,3.2,7.88,3.2,13.12-2.82l1.8-.19c2.79,1.37,3.63-2.83,6.17-2.15.71-1.77,7.59.11,2.88-4.86,0-.93.33-2.12-.79-2.51s-1.2.62-1.26,1.43a1.22,1.22,0,0,1-.84-.13c-.85-5.2-4.75-2-7.24-2.62l-6.86-.17c-.94-1.24-.07-2.42.13-3.63l1.67-.6c1.41,1.41,2.94.82,4.59.47,5.67-1.2,11.23-2.39,16.29,2.32,2,1.84,9-.53,8.55-2.4a10.32,10.32,0,0,0-3.32-5.34c-1.57-1.29-3.82-3.1-6-.47l-1.9-.4c-.56-1.95-1.55-2.31-3-.84l-1.93-.29-1.08-.71c-2.51-1.38-5-1.54-8-1.25-7.28.68-13.94,3.34-20.81,5.32Z"/><path class="cls-13" d="M151.65,86.89c-3-1.54-6.88-1-9.17-4.12a1.93,1.93,0,0,0-.73-.57c-3.75,3.52-8.23.82-12.3,1.48-.43.07-1.1.54-1.13.87-.58,7.14-7.32,8.53-11.48,12.3a10,10,0,0,0-2.14,10.84l.15.17c-.09,2.13-.27,4.23-.55,6.35-.3,2.3-2.8,6.27,2.76,6.22.11,0,.34.21.33.29-.77,5.23,5.17,6.12,6.47,10,0,.66,0,1.33,0,2H122.6c-5-3.93-8.19-9.59-12.59-13.66-2.94-2.73-1.67-3.84-1.14-5.76,1.45-5.22.58-10.53.93-15.78.18-2.63-.24-5.26.52-7.88,1.43-4.93,4.35-6.78,9.19-5.11,2,.7,3.64,1.15,5.46-.31,6.16-5,13.17-5.72,20.65-4.08a13,13,0,0,0,2,.15C147.24,83.54,153.05,83,151.65,86.89Z"/><path class="cls-13" d="M206.61,210c-1.31-9.52.66-18.73,2.56-28,.59-2.91,1.06-5.22-3.52-5.64-3.79-.34-1.94-4.82-3.17-7.23l-1-3.5c0-1,0-2,0-3.08,1.33-.52,2.75,1.4,4-.15l2.13.21.36.08.36,0c1.4.84,2.81,1.35,4.22,0,1.94.82,2.94,2.57,4.1,4.16-1.27,1.92-2.71,3.58-5.3,3.47.13-1.95.44-4.18-2.18-4.59-1.27-.2-2.85-1.39-4,0s-.38,3,.3,4.51c.25,7.06,4.27,1.56,7.44,2.18-3.09,10.2-2.2,20.66-1.35,31.12-1.66,1.68-2.13,3.56-.94,5.72Z"/><path class="cls-11" d="M101.85,160.71c-1.74-5-3.66-10-.24-15.05,4.55-.34,7.78-4.48,13.09-4.36-2.56,6.19-6.49,11.53-8.11,17.89C106,161.52,103.5,160.34,101.85,160.71Z"/><path class="cls-13" d="M158.7,91.76c-.26-3.11-4-2-5-4.16,1.76-1.25,3.64-.8,5.51-.38s2,3.41,4.41,2.49l3,.31c1.58,2,3.17,3.92,6,1.92,4,6.81,12.64,10.65,12.76,19.94a4.47,4.47,0,0,1-4.71-3.51c-2.11-7.05-12.88-15.69-20.17-16.17Z"/><path class="cls-13" d="M131,193.43c.55,2.52,4.34,6.23-2.25,6.12,1.33-3.78.33-6.44-4-5.86s-5.26-3.3-8.09-4.51h.06c.7-2.55,3.08-3,5-3.32,4.32-.71,8.73-.9,13.1-1.3a7.8,7.8,0,0,0,0,1C127.88,188.87,127.81,189,131,193.43Z"/><path class="cls-16" d="M122.51,135.41c1,4.5,1.66,8.83-.67,13.35-1.83,3.57-4.34,7.54-1,11.76-1.77.37-3.23-.68-4.84-1-.4-2,.81-3.76,1.14-5.65.64-3.7,2.79-7.15,1.88-11.1,0-.45.09-.9.13-1.34l0-.38C119.79,138.86,120.39,136.67,122.51,135.41Z"/><path class="cls-16" d="M216.65,166.84c-1.16-1.59-2.16-3.34-4.1-4.16a5,5,0,0,1,.15-.94c5-.6,1.66-4.74,2.94-6.92,1.59-.79,1.87-3,3.77-3.46,1,.46,2.27-.1,2.11,2.18C221.16,158.55,219.91,163,216.65,166.84Z"/><path class="cls-11" d="M163.58,89.71c-2.45.92-2.69-2.1-4.41-2.49s-3.75-.87-5.51.38l-2-.71c1.4-3.89-4.41-3.35-4.05-6.6.62-1.26,1.34-1.26,2.05-.1a3,3,0,0,0,3.27,1.66C159.54,80.39,161.73,84.79,163.58,89.71Z"/><path class="cls-13" d="M116,159.48c1.61.36,3.07,1.41,4.84,1a2.76,2.76,0,0,0,.78.26c.24,1.33,1.21,1.83,2.39,2.09l.76,1.75a5.64,5.64,0,0,0,1.14,3.94c0,1.67-.08,3.33-.11,5l-.06.06-5.53.09c-.28,0-.56-.1-.83-.15.23-3.85,5.94-9.22-2.94-10.62-.36-.06-.51-1.45-.76-2.22C115.75,160.31,115.85,159.89,116,159.48Z"/><path class="cls-13" d="M134.64,180.61c4.28.94,8.44,2.95,13,1.41.26-.09.85.81,1.29,1.25-4.39,1.84-8.9.39-13.35.5-2.32-.36-4.77.18-6.95-1-1.44-1.74-3.25-1-5-.77a2.85,2.85,0,0,0-2.21-1.34c.06-.34.13-.67.19-1,3.4-1.65,6.69,1.44,10.08.22l1.76,0Z"/><path class="cls-9" d="M206.61,210l4-.68c2,1.09,3.73-1.43,5.75-.55l3.15,3.66-6,4.08h0c.62-5.37-5.14-3.34-6.9-5.95A1.37,1.37,0,0,0,206.61,210Z"/><path class="cls-11" d="M116,159.48c-.11.41-.21.83-.32,1.24a1.64,1.64,0,0,1-2.47-1.83c2.2-5.2,2-11.09,4.86-16.08.09-.16.62-.06,1-.08.91,4-1.24,7.4-1.88,11.1C116.77,155.72,115.56,157.44,116,159.48Z"/><path class="cls-11" d="M226.69,179.81c-.54,3.18-.38,2.84-2.84,1.69-1.84-.86-.85,1.41-1.38,2.12-1.58-.34-3.33.32-4.78-.69-1.08-.75-2.38-1.65-1.88-3.13.62-1.84,1.94-.35,2.86-.18C221.35,180.12,224.09,177.23,226.69,179.81Z"/><path class="cls-11" d="M216.34,208.73c-2-.88-3.71,1.64-5.75.55-1.19-2.16-.72-4,.94-5.72C216.44,201,216.44,201,216.34,208.73Z"/><path class="cls-11" d="M219.41,151.36c-1.9.45-2.18,2.67-3.77,3.46l-3.23-3.2c-1-.07-2.17-.41-1.77-1.63.57-1.75,1.88.16,2.8-.29l.47.4-.39-.48c.22-1.45-1.34-2.67-.37-4.87Z"/><path class="cls-11" d="M201.47,165.64l1,3.5c-8.23-2.82-8.23-2.82-7.58-11.55,2,.45,1.22,2.36,1.87,3.51C197.88,163.07,198.08,166,201.47,165.64Z"/><path class="cls-11" d="M111.81,131.57a14.82,14.82,0,0,1-9.16.77c-1-.18-2.3-1-2-2.37.24-1.13,1.47-1.09,2.47-1.18C106.11,128.49,108.42,130.22,111.81,131.57Z"/><path class="cls-16" d="M205.44,170.26c-.68-1.47-1.52-3-.3-4.51s2.76-.23,4,0c2.62.41,2.31,2.64,2.18,4.59C209.37,170.57,207.4,170.92,205.44,170.26Z"/><path class="cls-11" d="M214.88,138c.52-.77.6-2,1.92-2,.75,0,6.58,6,6.57,6.72,0,.92-.4,1.69-1.35,1.74a5.47,5.47,0,0,1-1.8-.63c-2.49-.86-.91-6.06-5.26-4.93C214.93,138.62,214.91,138.31,214.88,138Z"/><path class="cls-11" d="M187.27,81.35c2.32,2,5.91,2,7.46,5,.48,1,.84,1.91-.14,2.64s-1.43-.27-2.06-.73C190.13,86.53,187.81,84.74,187.27,81.35Z"/><path class="cls-13" d="M212.41,151.62l3.23,3.2c-1.28,2.18,2.06,6.32-2.94,6.92A16.43,16.43,0,0,1,212.41,151.62Z"/><path class="cls-11" d="M121.65,179.62c-.06.34-.13.67-.19,1-2.36-.22-5.14.18-5.65-3.15-.39-2.58.81-4,3.53-3.92.27.05.55.11.83.15C119,176.09,117.51,178.57,121.65,179.62Z"/><path class="cls-11" d="M135.6,183.77c4.45-.11,9,1.34,13.35-.5l1.28.79L149.9,186l-1.94-.11-11.42-.15-1.72-.17a7.8,7.8,0,0,1,0-1Z"/><path class="cls-10" d="M116.69,189.19h-.06l-1.17,3-3.83,4.38C112.17,193.29,111.92,189.43,116.69,189.19Z"/><path class="cls-11" d="M205.48,162.41c-1.28,1.55-2.7-.37-4,.15-1.11-1-1.18-2.15.24-2.61C203.7,159.29,205.15,160.15,205.48,162.41Z"/><path class="cls-11" d="M172.58,91.94c-2.85,2-4.44,0-6-1.92C168.86,89.75,171,89.91,172.58,91.94Z"/><path class="cls-9" d="M221.54,215.28c0,.74-.08,1.47-.11,2.21-5.1,0-.09-3.8-1.88-5.05C221,212.81,221.07,214.2,221.54,215.28Z"/><path class="cls-11" d="M123.67,182c1.73-.22,3.54-1,5,.77C126.77,183.86,125,184.42,123.67,182Z"/><path class="cls-11" d="M201,155.21c.09.59-.21,1.1-.73.95a3.9,3.9,0,0,1-2.08-1.14c-.5-.69.19-1.17.92-1.16A2,2,0,0,1,201,155.21Z"/><path class="cls-11" d="M206.94,143.39a4.53,4.53,0,0,1,1.21,4.81C207.19,146.48,205,145.66,206.94,143.39Z"/><path class="cls-11" d="M230.48,125.75c1.26,1.38.15,2.66-.17,4C228.19,128.31,228.09,127,230.48,125.75Z"/><path class="cls-13" d="M229.31,198.9c2.78-.12,1.94,1.41,1.31,2.85C229,201.35,229.26,200.08,229.31,198.9Z"/><path class="cls-11" d="M89.84,107.78l.9-1.4.51.53-1.43.85Z"/><path class="cls-11" d="M193.92,138.12c-.92-.58-1.5-1.3-1-2.46C194.25,136.05,194.58,136.87,193.92,138.12Z"/><path class="cls-11" d="M192.5,132.66a1.43,1.43,0,0,1-.35-2.07C193.22,131.12,193.81,131.73,192.5,132.66Z"/><path class="cls-16" d="M122.6,132.72h1.22c1.32,1.63.22,1.87-1.13,2Z"/><path class="cls-11" d="M229.38,122.84c1.3.07,1.68.69,1.1,1.87A1.82,1.82,0,0,1,229.38,122.84Z"/><path class="cls-11" d="M208.33,162.67l-.36,0-.36-.08C207.89,162.06,208.13,162.15,208.33,162.67Z"/><path class="cls-1" d="M227.17,103.11l.23.17-.31-.09-.3.11a1.23,1.23,0,0,1,.33-.39Z"/><path class="cls-11" d="M119.13,141l0,.38-.75-.22Z"/><path class="cls-8" d="M235.36,342.18c-2.39-1.18-5.58-.46-8.11-3.64,4,.25,7-1.28,10.62-.79,4.29.59,2.9-3.74,2-5.26-3.1-5.06-6.79-9.75-10.38-14.48-.89-1.17-2.45-1.05-3.67-.39s-2,1.76-3.16,2.3c-2.29,1.08-2.43,5.21-5.26,4.63s-1-4.55-2.79-6.32c.11-1.3.15-2.61.34-3.9,1.36-9.17,4.76-17.67,8.56-26h0a3.27,3.27,0,0,0,2-3h0l2-2,3.22,1c-1.91,2.37-3.62,4.84-4.18,7.92-3.8,3.16-4.43,7.9-5.91,12.18a2.74,2.74,0,0,0,1.4,3.4,1.62,1.62,0,0,0,2.22-.41c2.78-4.41,5.19-.87,7.29.55,4,2.73,7.78,5.77,12.41,7.4l5.54,11.7a18.42,18.42,0,0,0,0,3c1.41,9-4.44,11.79-11.81,10.18C235.18,339.69,235.81,341.22,235.36,342.18Z"/><path class="cls-11" d="M304.53,322.21c0,1.68,2.53,2.32,1.77,4.31-5.12,1.79-10.41,2-15.76,2.45-3.34.28-6.7,2.58-10.25,3.4l-3-.11c-2.5,2.4-6.11,3.42-8,6.7-.63,1.11-2.18,1.34-3.55.79-.43-.58-.93-1.76-1.52-1.31-.81.61.54,1.33.61,2.11-6.11,4.81-5.69,2.73-8.27-1.92a1.85,1.85,0,0,1,.95-2.86c2.76-1.16,4.75-3.39,7.05-4.92,3.9-2.58,8.86-3.62,12.79-6.51l1.93-.49,1.46-.48c3.13,0,2.94,3.64,5,4.67,1.63-1.84-1.85-4.29.62-5.75,2.27-1.35,2.91,1.46,4.32,2.33.56.55.05,1.85,1.31,2a3.34,3.34,0,0,0-.17-2.9c-1.14-2.57-.09-3.49,2.5-3.63,1.09-.06,2.83,2.13,3.32-.72C300.44,319.2,302.55,320.55,304.53,322.21Z"/><path class="cls-11" d="M249.42,327.07l-5.54-11.7c9-6.27,18.56-11.3,29.45-13.4a15.43,15.43,0,0,0,6-.11l3,.18-.13,1.09c-11.62-.68-21.51,3.74-30.73,10.13a9,9,0,0,0,4.35-1.34,71.43,71.43,0,0,1,20-7.21c3-.64,6.28-1.64,9.25.51-2,0-4-.29-6,.49.89,3.05,4.28-.2,5.15,2.41l-2.68.62c2,.26,1,2.86,2.54,3.33a13.86,13.86,0,0,0,3.44.05c-6.26,3.35-8.29,3-10.78-2.44-1.63-3.55-3.92-2.22-6.28-2.35-.1,1.86.84,1.82,1.62,1.82,3.72,0,2.82,3.57,3,5,.21,1.77-2.45,1.31-3.87.72-1.71-.71-2.18-.49-1.52,1.32-3.59,3.4-5.81,1.91-6.6-2.22-.72-3.74-2.22-2.94-4.28-1.3,5.19,6.59,5.16,7.57-.23,8.72-.76-1.81-1.85-3.56-2.17-5.45-.3-1.69-1.06-1.91-2.28-1.54s-1.35,1.31-.91,2.37c.32.77.68,1.51,1,2.26C256.75,324.24,255.78,325.85,249.42,327.07Z"/><path class="cls-7" d="M258.54,321.43c5.39-1.15,5.42-2.13.23-8.72,2.06-1.64,3.56-2.44,4.28,1.3.79,4.13,3,5.62,6.6,2.22,9.5-.26,19-.37,28.05,3.12-.49,2.85-2.23.66-3.32.72-2.59.14-3.64,1.06-2.5,3.63l-1.14.92c-1.41-.87-2.05-3.68-4.32-2.33-2.47,1.46,1,3.91-.62,5.75-2.1-1-1.91-4.69-5.05-4.67l-1.45.48-1.93.49c-.18-1.86-1.15-1.69-2.73-1.5-4.2.5-8.31,1.78-12.62,1.37C260.15,324,258.24,324.2,258.54,321.43Z"/><path class="cls-7" d="M277.28,332.26l3,.11c2.6,2.75,6.25,1.17,9.68,2.29-2.46,3.65-6,3.75-9.44,3.39S278.56,334.09,277.28,332.26Z"/><path class="cls-8" d="M255.34,352.11l0,1c-4.66-1.7-9.52-3-13-7,4.17.45,9-1.84,12.1,3C254.38,350.23,254.18,351.37,255.34,352.11Z"/><path class="cls-8" d="M241.44,346.07a2.93,2.93,0,0,1-3.07-1.9C239.85,344.06,241.26,344.07,241.44,346.07Z"/><path class="cls-2" d="M313.84,346.86c-.12.28-.18.71-.39.79s-.54-.19-.82-.31c.12-.28.18-.72.38-.8S313.56,346.73,313.84,346.86Z"/><path class="cls-4" d="M257.27,254.17c3.13,1.8,7.16,2.21,9.05,5.9-.56,1.54-2.14,2-3.18,3l-1,.28c-2,.26-4.13-.81-5.82,1l0,0c-2.79.17-5.82-.58-8,2h0c-1.11.07-2.33-.17-3,1.09a5.9,5.9,0,0,1-3.91,1.91,2.1,2.1,0,0,0-2.06,1l0,0c-.34.37-.69.74-1,1.1l-.91,1-1.08.92-.91.12-1,.85-.1.11c-.3.29-.6.59-.89.89l-.11.1-.89.9-.1.1-.9.89-.08.11a1.85,1.85,0,0,0-1,1.9h0a1.79,1.79,0,0,0-2,2l0,0c-3.22-.33-3.05,1.86-3,4h0c-2,.07-2,1.52-2,3h0c-.58.25-1.41.33-1.73.77a92.29,92.29,0,0,0-13.23,27.18l-1,1c-1.18-2.94-4.19-5.26-3-9l.15-2.93c4.82.48,3.79-3.62,4.79-6.13.07-1.4,3.36-.51,2.06-2.89h0c3.9-.64,4.65-4.35,5.35-6.92,2.81-10.32,9.8-16,19.37-19.24.16-.05.19-.49.35-.92l-3.18-2.94c0-.63.06-1.26.08-1.89,1.89.06,3.39-.3,2.86-2.75,3.31.79,5.69-1.77,8.58-2.52,1.25-.32-.89-.77-.67-1.52.72-1,3.62-1.87.16-3.08,1-.45,2.25,0,3-1.07C250.74,253.18,254.05,253.06,257.27,254.17Zm-1.88,3.88c-1.37-.45-2.73-1.2-5.09.3,1.86,0,2.62,0,3.38,0A17,17,0,0,0,255.39,258.05Z"/><path class="cls-7" d="M226.47,292.25c.56-3.08,2.27-5.55,4.18-7.92a106.2,106.2,0,0,1,16.92-9.73c5.34-2.45,11-3.19,16.61-4.15,2.06-.35,3.6,1.3,5.29,2.31,2.09,1.25,4.16,2.74,6.82,2.56,1.55.89,2.84,2,3,3.92a1.72,1.72,0,0,0,2,2c.31,0,.61.05.91.09-.13,5.5-4.25,2.27-5.59,1.85-4.59-1.41-8.89-3.75-13.32-5.7-6.79-3-16.61-1.39-20.65,3.73,4.3-.14,7.47-4.42,12.59-2.05-8.46,2.28-15.27,6.12-22.43,11.84,5.3-.31,8.46-5.31,14-2.65-6.67,3-11.95,6.61-17.24,10.16-.89.59-1.92,1-2.63,0-.53-.76.32-1.47.81-2.13,1.1-1.46,3.2-2.27,3.28-4.72Z"/><path class="cls-16" d="M281.66,272l4.61,4.2c6.86,5.94,9.3,14.74,14.19,21.95-1.88,1.61-2-.58-2.62-1.32-2.22-2.77-4.29-5.66-6.41-8.5-2.29-6.46-7.48-10.54-12.31-14.9-.43-1.07-2.61-.73-2.1-2.71C278.82,270.26,279.88,272.57,281.66,272Z"/><path class="cls-8" d="M279.12,273.42c4.83,4.36,10,8.44,12.31,14.9-4.29-.71-5.57-5.39-9.19-7-.3,0-.6-.07-.91-.09a1.91,1.91,0,0,0-2-2c-.21-1.93-1.5-3-3-3.92Z"/><path class="cls-1" d="M248.36,266.33c2.2-2.58,5.23-1.83,8-2C253.68,264.89,251.45,267.33,248.36,266.33Z"/><path class="cls-7" d="M225.47,285.31c-.08-2.12-.25-4.31,3-4l-1,2Z"/><path class="cls-1" d="M256.34,264.36c1.69-1.78,3.87-.71,5.82-1C260.48,265.27,258.27,264,256.34,264.36Z"/><path class="cls-7" d="M228.47,281.3a1.79,1.79,0,0,1,2-2A3.44,3.44,0,0,1,228.47,281.3Z"/><path class="cls-1" d="M245.37,267.41c.68-1.26,1.9-1,3-1.09C247.64,267.42,246.44,267.25,245.37,267.41Z"/><path class="cls-1" d="M239.4,270.36a2.1,2.1,0,0,1,2.06-1A2.27,2.27,0,0,1,239.4,270.36Z"/><path class="cls-7" d="M230.42,279.3a1.85,1.85,0,0,1,1-1.9A1.89,1.89,0,0,1,230.42,279.3Z"/><path class="cls-7" d="M231.52,277.29l.9-.89Z"/><path class="cls-7" d="M232.52,276.3l.89-.9Z"/><path class="cls-7" d="M233.52,275.3c.29-.3.59-.6.89-.89Z"/><path class="cls-7" d="M234.51,274.3l1-.85Z"/><path class="cls-7" d="M236.41,273.33l1.08-.92Z"/><path class="cls-1" d="M238.4,271.42c.35-.36.7-.73,1-1.1C239.1,270.69,238.75,271.06,238.4,271.42Z"/><path class="cls-4" d="M149.66,290.23l-3.06.06-2.81-6.54a1,1,0,0,1,.52-.38l1.52.83c2.82-.5,4.38-1.92,3.67-5,.29-1.52.81-2.55,2.48-1.18.36,1.26,0,3.2,2,3.19,2.31,0,1.78-2.08,1.68-3.36-.2-2.58.07-4.85,2.25-6.55,5,.17.95,3.33,1.53,5,.35,1-1.62,2.63,0,3.46,1.43.72,2.43-1,3.07-2,2.12-3.24,5-5.78,7.64-8.47,1-1,2.17-2.83,3.65-1.45s-.9,2.05-1.31,3.15c-1.31,3.55-6.17,4.85-5.88,9.38l-14,8.84-2,.13-1,.91Z"/><path class="cls-5" d="M149.5,279.19c.71,3.09-.85,4.51-3.67,5-.33-.73.35-1.8-.73-2.22a10.22,10.22,0,0,0-.79,1.39,1,1,0,0,0-.52.38c-1.35.94-2.93-.37-4.14.25-1.72.88-4.4,3.06-5.06,1.82-1.38-2.56-1.46-5.91-1.72-9-.16-1.83,1.82-1.47,2.93-2,.49,1.21,1.38,2.4,1.42,3.61.18,5.61,3.29,2.68,5.25,1.71a3.54,3.54,0,0,0,1.63-5c2.31,0,.87-2.9,2.59-3.36l1-.38,0-.19,1.18.3C149.22,274.08,147.81,276.77,149.5,279.19Z"/><path class="cls-9" d="M146.69,271.82c-1.72.46-.28,3.36-2.59,3.36-.14-.61-.29-1.23-.44-1.85,2.06-2.41-.09-4.76-.11-7.14-3.84-4.83,1.77-6.69,3.11-9.89a10.54,10.54,0,0,1,2,7.1c.21,2.69-2.24,5-1,7.85l0,.19Z"/><path class="cls-11" d="M146.66,256.3c-1.34,3.2-6.95,5.06-3.11,9.89-2.14,1.09-3.09-.37-4-1.88a8.05,8.05,0,0,1,2.4-4.68c1.93-1.89,1.71-3.91,1-6.12l8.33-5.51,1.25,1-.73,1.42C149.47,251.82,148.21,254.18,146.66,256.3Z"/><path class="cls-11" d="M143.66,273.33c.15.62.3,1.24.44,1.85a3.54,3.54,0,0,1-1.63,5c-2,1-5.07,3.9-5.25-1.71,0-1.21-.93-2.4-1.42-3.61a9.54,9.54,0,0,1,1.86-.46A30.73,30.73,0,0,0,143.66,273.33Z"/><path class="cls-11" d="M130.91,266.37c1.16-2.93,2.23-5.87,1.69-9.11,0-1.57.37-2.79,2.08-1.44.67.53,3.17,1.2.85,2.81-.71.48-.51,1.05-.51,1.65-.53,3.24-2.72,7.16,5,7.21C135.22,269.85,132.8,269.29,130.91,266.37Z"/><path class="cls-5" d="M129.68,287.46c.22-3-2.27-1.13-3.73-2,2.07-2.07,2.18-4.77,2.74-7.33C132.62,280.62,133,283.9,129.68,287.46Z"/><path class="cls-1" d="M166.62,280.39c-.29-4.53,4.57-5.83,5.88-9.38.41-1.1,2.73-1.83,1.31-3.15s-2.66.45-3.65,1.45c-2.68,2.69-5.52,5.23-7.64,8.47-.64,1-1.64,2.67-3.07,2-1.67-.83.3-2.44,0-3.46-.58-1.65,3.52-4.81-1.53-5l-2.16-1.92c-3.5-.63-3.81-3.41-4.16-6.17.07-.27.14-.54.2-.81,2.47-.06,4.33-.53,3.2-3.77a7.45,7.45,0,0,1-.21-3.39c.69-4.82,1.23-9.53-3.78-12.62a3.32,3.32,0,0,1-1.42-2.47,1.51,1.51,0,0,1,.24-.65c3.33-.56,5.79-3.05,8.93-4,1.12.07,2.34-.17,2.83,1.35,1,3,2.5,5.85,2.88,8.88s2.19,5.63,4.47,5.63c2.85,0,4.79-2.88,5.71-5.84,2.27,0,3.32-2,5-3,.49-1.13,3.76-1.55.93-3.54-.86-.61-2.6-.83-1.64-2.33.69-1.09,2.28-.7,3.19-.13,1.63,1,3,2.06,4.56,0a3.82,3.82,0,0,0,2.14-2.54c2.85-1.18,4.24-4.1,6.76-5.67l4.39-3.71c2.88-1,3.8-4.88,7.32-4.9,1.47,1.15,2.79-.51,4.21-.21,4.52-.52,4.1,2,3,4.89-2.81,2.79-7.39,4.59-5,10.28-3.32-1.77-3.32-1.76-5.13,1.24-.14.24-.52.57-.69.52-4.39-1.37-5.25,3.7-8.58,4.75s-5.14,4.06-1.38,7.39a12.37,12.37,0,0,1,1.87,2.92l1,.93h0a2.81,2.81,0,0,1-2.83,1.95c-.93-1.32-1-3.3-3-3.82-5.3-1.15-9.93.3-14,3.69.44,2.9,2.85,5.65,0,8.74,2.41.19,3.54-2.42,5.92-.62,3.23,2.44,6,1.11,7.87-2.39,1.11-1.13,2.21-2.27,3.32-3.41,2.52-.19,3.85-1.79,4.69-4l1.12-1.12.84-1c.9-1.81,2.88-2.92,3.3-5l2.68-3.72c1.57-.65,4.55.23,3.15-3.47-.49-1.3.87-.68,1.37-.22,1,.94,2.11.38,3.18.3,2.36.76,6.34-1.49,6.41,3.48l-10,8.73c-2.45,1.75-4.91,3.49-6.67,6l-.78.83a1.1,1.1,0,0,0-.65.65c-1.2.85-2.42,1.66-3.59,2.55C188.75,268.15,178.28,275.23,166.62,280.39Z"/><path class="cls-11" d="M210.57,250.47l10-8.73c2.78-.66,4.46-3.77,7.68-3.46,2,.11,3.15,1.46,4.47,2.63L227.87,245a81.81,81.81,0,0,0,18.49-2.27c-.9,2.79-2.3,3.83-4.59,3.75-1.46-.05-3.12-.3-3.37,1.87-2.17-.07-3.76.89-5.62,3.3,2.8-.73,5.06-.48,5.63-3.28,4-.44,2.23,2.13,2,3.88-10.66,1.63-19.84,6.4-28,13.29-1.44-1.23.14-4.3-2.81-4.61l-.92-.81-1.84-2.63C209.05,255.68,213.35,255,210.57,250.47Zm16.52,4c.19-.1,1.2-.62,1.18-.64-1-2.18-.35-4.28.13-6.41,0-.24-.66-.94-.87-.89-.91.25-2.57.82-2.53,1,.33,2-1.61,3.65-.82,5.66C224.63,254.39,225.65,254.39,227.09,254.49Zm-9.64-2.35c-.13-.44-.21-.95-.87-.74-.42.13-.91.28-.51.87a1.7,1.7,0,0,0,.68.6C217.52,253.19,217.32,252.49,217.45,252.14Z"/><path class="cls-5" d="M199.68,251.39l-1.13,1.12-2-.17h0l-1-.93a12.37,12.37,0,0,0-1.87-2.92c-3.76-3.33-1.81-6.39,1.38-7.39s4.19-6.12,8.58-4.75c.17,0,.55-.28.69-.52,1.81-3,1.81-3,5.13-1.24-2.4-5.69,2.18-7.49,5-10.28,4.54,1,4,6.13,6.68,8.64a3.75,3.75,0,0,1-1.1,1.31c-1,.56-1.77,0-2.51-.85-1.16-1.33-.83-4.92-3.46-3.72-1.76.8.56,3.44.39,5.36-.1,1.06.7,2.19-.24,3.22-1.07.08-2.16.64-3.18-.3-.5-.46-1.86-1.08-1.37.22,1.4,3.7-1.58,2.82-3.15,3.47a9.65,9.65,0,0,0-2.95-.22c-1.08.23-2.36-2.24-3.08.1-.5,1.62.54,2.33,2.19,2.44.42,0,.78.91,1.16,1.4-.42,2.12-2.4,3.23-3.3,5A.83.83,0,0,0,199.68,251.39Z"/><path class="cls-9" d="M211.45,219.41c-1.42-.3-2.74,1.36-4.21.21,1.09-3,3.48-3.45,6.24-3.14h0Z"/><path class="cls-12" d="M93.11,127c.68,3.25,3,6.24,1.37,10.11-2-2.43-1.38-5.9-3.81-8.14-1.26-1.16.68-2,1.89-2.51A3.13,3.13,0,0,0,93.11,127Z"/><path class="cls-11" d="M113.05,284.57c-1.22,4.08-4.68,6.39-7,10.53-1.62-3.4,1.76-4.7.79-6.84l0,0c.66,0,1-.32,1-1l0,0c.7,0,1-.36,1-1l0,0c1.9.36,2.51-1.54,3.84-2.18Z"/><path class="cls-12" d="M114.82,291.26l-3.12,1c-.29-1.82.64-3.06,2-4.1l1.32,1.28Z"/><path class="cls-11" d="M119.6,282.2c.39,2.55-.41,3.67-3.07,2.57A3.31,3.31,0,0,1,119.6,282.2Z"/><path class="cls-11" d="M115,289.42l-1.32-1.28a6.53,6.53,0,0,1,2.53-3c.19.45.39.89.58,1.33A5.07,5.07,0,0,1,115,289.42Z"/><path class="cls-11" d="M121.6,282.3l-1.92-.17a1.43,1.43,0,0,1,2.19-.76C122.35,281.63,122,282.08,121.6,282.3Z"/><path class="cls-11" d="M112.6,284.11c.23-.18.58-.55.66-.5.65.43.11.68-.21.95Z"/><path class="cls-3" d="M282.22,303.13c0-.36.09-.73.13-1.09,3.5-1.07,7.09-2.32,7.7,3.32-.8.52-1.55,1.2-2.63.9-1.79-.61-1.95,1.62-3.24,1.86-.87-2.61-4.26.64-5.15-2.41,2-.78,4-.46,6-.49.95,0,2.34.3,2.57-.72.31-1.39-1.12-1.19-2-1.26C284.49,303.16,283.35,303.17,282.22,303.13Z"/><path class="cls-8" d="M301.3,309.18c.28,2.15-2.16.79-2.65,2,.67,1.87,3.32,1.47,4,3.89l-10.42-1.55,4.58-.54-3.7-1.66a10.87,10.87,0,0,1,8.15-2.16Z"/><path class="cls-11" d="M293.12,311.31l3.7,1.66-4.58.54c-4.47-.52-3.51-4.64-4.82-7.25,1.08.3,1.83-.38,2.63-.9Z"/><path class="cls-11" d="M135.89,220.19l2.66.09a20.18,20.18,0,0,0,6.34-.3c4.75-.78,9.34-3.21,14.36-1.5.75.25,1.7.06,2.05,1,.42,1.11-.21,1.82-1,2.55-1.76,1.67-4.58,1.8-5.9,4.09a5.34,5.34,0,0,0-.88.2l-4.73.17a8.82,8.82,0,0,0-1-1.53c-5.59,2.26-9.61-1.62-14.13-3.52Z"/><path class="cls-13" d="M148.82,226.49l4.73-.17c-2.49,2-4.89,4.05-7.49,5.83-1.59,1.08-3.14,2.33-2.86,4.17s2.55.67,3.74,1.35c1,.56,1.9,1.21,2.84,1.82a1.51,1.51,0,0,0-.24.65l-6,2.56c-4.59-4.09-4.74-8.13-.54-12.31a5.8,5.8,0,0,0,.8-1.74A10.18,10.18,0,0,0,148.82,226.49Z"/><path class="cls-13" d="M135.89,220.19l-2.17,1.25-2-.05c-.16-1.34-.81-2-2.22-1.58l-2.93-1.24c-.54-2-1.55-3.35-3.88-3a4.25,4.25,0,0,0-.28-.94c-1.7-4.38,1-8.51.8-12.87-.1-2.12,2.66-2.34,4.71-2-.82,2.26-2.19,4.23-2.69,6.7-1.26,6.25.2,9.06,6.43,10.94C133.42,217.91,135.24,218.11,135.89,220.19Z"/><path class="cls-11" d="M122.71,215.55c2.33-.33,3.34,1,3.88,3C124.49,218.6,122.79,218.1,122.71,215.55Z"/><path class="cls-11" d="M129.52,219.81c1.41-.41,2.06.24,2.22,1.58A1.81,1.81,0,0,1,129.52,219.81Z"/><path class="cls-13" d="M212.4,265.56c8.17-6.89,17.35-11.66,28-13.29,2.31.54,5-.94,7,1.18-.74,1.07-2,.62-3,1.07-3.17-.11-6.08,1-9,2l-3.92,1.17c-10.42,3.4-16.92,11.39-23.15,19.7-1-.88-.56-2.61-2-3.22a2.53,2.53,0,0,0,.07-.82l.07-.09a2.84,2.84,0,0,0,1.81-1.93l.17-.18,1.26-1.72Z"/><path class="cls-2" d="M293.12,311.31l-3.07-5.95c-.61-5.64-4.2-4.39-7.7-3.32l-3-.18a6.39,6.39,0,0,0-6,.11c-10.89,2.1-20.46,7.13-29.45,13.4-4.63-1.63-8.41-4.67-12.41-7.4-2.1-1.42-4.51-5-7.29-.55a1.62,1.62,0,0,1-2.22.41,2.74,2.74,0,0,1-1.4-3.4c1.48-4.28,2.11-9,5.91-12.18l4.57-.55c-.08,2.45-2.18,3.26-3.28,4.72-.49.66-1.34,1.37-.81,2.13.71,1,1.74.56,2.63,0,5.29-3.55,10.57-7.14,17.24-10.16-5.52-2.66-8.68,2.34-14,2.65,7.16-5.72,14-9.56,22.43-11.84-5.12-2.37-8.29,1.91-12.59,2.05,4-5.12,13.86-6.71,20.65-3.73,4.43,1.95,8.73,4.29,13.32,5.7,1.34.42,5.46,3.65,5.59-1.85,3.62,1.59,4.9,6.27,9.19,7,2.12,2.84,4.19,5.73,6.41,8.5.59.74.74,2.93,2.62,1.32,2.59,1.18,2.74,3.92,3.46,6.07s-1.5,1.88-2.86,2.07c-.95.14-2,.15-2.07,1.45a13.2,13.2,0,0,0,2.19.37l.09,1A10.87,10.87,0,0,0,293.12,311.31Zm2.1-7.12c-.1-.57.08-1.51-.91-1.22a2.33,2.33,0,0,0-1.35,1.3c-.36,1,.58.85,1.16.94.08,1.35.65,2.22,2.15,1.86a2,2,0,0,0,1.45-2.25C297.42,303.63,296.14,304.16,295.22,304.19Zm-7.1-11.84c-2.48-3.14-4.95-6.29-11-3.14,4.41-.26,4.09,4,7.1,4.33.11.83.29,1.8,1.18,2s.74-.77.84-1.34l1,.2.5,2.35c3.48-2,4.64,2,8.15,3.71C293.88,295.9,291.89,293.29,288.12,292.35ZM272,290.57c-.63-.51-1.5-.45-1.87-1.19s-.29-1.63-.76-1.95c-2.15-1.44-4.9.19-3.9,2.24C267,292.93,269.63,290.82,272,290.57Zm-28.21,10.21c1.55-2.73,3.72-4.07,2.23-6.22-.77-1.11-2.16-.32-3.08.42C240.19,297.13,243.26,298.16,243.75,300.78Zm7.68-9.7c-1.5,1.48-1.48,2.9-.28,4.32.46.54.89.78,1.46-.06C254,293.28,251.06,292.77,251.43,291.08Z"/><path class="cls-3" d="M301.18,308.1a13.2,13.2,0,0,1-2.19-.37c0-1.3,1.12-1.31,2.07-1.45Z"/><path class="cls-4" d="M143.53,242.7l6-2.56a3.32,3.32,0,0,0,1.42,2.47c5,3.09,4.47,7.8,3.78,12.62a7.45,7.45,0,0,0,.21,3.39c1.13,3.24-.73,3.71-3.2,3.77-1.54-4,2.41-8,.06-12,.25-.47.49-.94.73-1.42.45-.39,1.29-.85.77-1.42s-1.46-.28-2,.44L143,253.51c-3.2-.74-7.34-.2-7.35-5.34Z"/><path class="cls-10" d="M108.79,286.26c0,.67-.33,1.05-1,1Z"/><path class="cls-10" d="M107.79,287.26c0,.71-.37,1-1,1Z"/><path class="cls-4" d="M131.83,349.25c-.32,2.24-.65,4.48-1,6.72a24.21,24.21,0,0,1-1.53,4.61c-.76,1.35.21,4.06-1.86,4-1.46-.05-4.16-2.11-4-3,.63-5.68-4.36-9.36-4.71-14.56-.06-1,0-2-.06-3a3.68,3.68,0,0,0,.19-.81l9.84-.23,5-.77C133.06,344.55,132.44,346.9,131.83,349.25Z"/><path class="cls-4" d="M127.65,367.59l-.5.77c-.13-.28-.38-.55-.37-.82s.28-.52.44-.77Z"/><path class="cls-2" d="M133.67,342.2l-5,.77c.33-3.26-.12-6.52.5-9.83,1.31-6.86-.19-14.32,4.52-20.45.08-.1,0-.32,0-.48l1.06-2.95c4.69-1.79,4.21-6.54,5.8-10.11,2.23-3.79,6.52-5.48,9.09-8.92l0,0,1-.91,2-.13-.9,3.09c-1.36,1-1,2.54-1.08,3.92v0c-3,2.35-5.48,4.9-3.83,9.18-.35,1.61-.7,3.21-1,4.82-.84.11-1.62.32-1.93,1.26-3.29,10.13-7.53,20-9.39,30.53A4.13,4.13,0,0,0,133.67,342.2Z"/><path class="cls-8" d="M133.71,312.21c0,.16.07.38,0,.48-4.71,6.13-3.21,13.59-4.52,20.45-.62,3.31-.17,6.57-.5,9.83l-9.84.23c2.6-7.34,3.45-15.2,7.57-22.13C128.46,317.63,131.44,315.28,133.71,312.21Z"/><path class="cls-8" d="M140.57,299.15c-1.59,3.57-1.11,8.32-5.8,10.11C134.34,304.53,136.71,301.42,140.57,299.15Z"/><path class="cls-3" d="M106.07,335.85c.37.75.65,1.54-.46,1.85-.32.09-1.07-.23-1.1-.44-.16-1.08.88-1.05,1.51-1.39Z"/><path class="cls-14" d="M134.44,342c1.86-10.57,6.1-20.4,9.39-30.53.31-.94,1.09-1.15,1.93-1.26-.1,1.24-.19,2.49-.29,3.73l.78.15c1.33-3,2.67-6.06,4.15-9.42,2.3,2.63.18,6.31,2.22,8.06,3.45,2.94,3.78-2,5.84-3.39l.19,3.85c-.11,1.78.16,3.39,2.22,3.87,7.35,1.71,14.71,3.38,22.06,5.08,1.87.44,6.57-.88,2.27,3.56a.63.63,0,0,0,.46,1.05c4.58.53,3.07,3.11,2,5.61-.37.82-1.34,1.83,0,2.5a1.91,1.91,0,0,0,2.61-.72c1.31-2.22,3.18-4.32,1.91-7.23l2.46-6.1c1.88,1.28,2.34,3.58,3.7,5.22,1.65,2,2.9,4.61,6.2,4.16l-2.91,3a12.67,12.67,0,0,0-2.32,6.09c-3.71-3.45-7.06-.25-9,1.72-2.41,2.47,2.33,2.49,3,4.25a7.35,7.35,0,0,1,.17,1.95c-4.3-1.15-7.22-3.2-7.21-8.36,0-1.8-2-3-3.7-.66l0,0c-3.83.48-6.1-2.8-9.26-4-2.1-.8-3.92-.57-4.93.59-1.35,1.55.91,2.47,1.81,3.42,3.08,3.24,6.06,6.65,9.56,9.39,2.45,1.92,2.75,3.78,1.89,6.34-6.51-3.19-11.48-8.3-16.24-13.54a9.07,9.07,0,0,0-9.3-3C148.87,338.79,141.66,340.43,134.44,342Z"/><path class="cls-14" d="M190.48,380.08l1,1Z"/><path class="cls-14" d="M197.43,386.13l1.07.91Z"/><path class="cls-7" d="M208.52,316.24a92.29,92.29,0,0,1,13.23-27.18c.32-.44,1.15-.52,1.73-.77-3.8,8.37-7.2,16.87-8.56,26-.19,1.29-.23,2.6-.34,3.9-.06.32-.12.64-.21,1l-3.84-.05C210.47,317.75,210.57,316.25,208.52,316.24Z"/><path class="cls-8" d="M260.34,356.07c4.84,0,9.68.05,14.52.15.92,0,1.3.9,1.53,1.72C271,357.46,265.32,359.9,260.34,356.07Z"/><path class="cls-6" d="M226.64,368.05c1,.87,3,1.86.41,2.95-2.12.88-.13,2.24-.78,3.18-2.59-1.29-3.8-3.68-4.87-6.17Z"/><path class="cls-6" d="M234.51,347.71c-.35,1-.12,3.29-1.95,1.05-.75-.91-.84-2.37-1.22-3.57C233.14,345.09,234.27,345.83,234.51,347.71Z"/><path class="cls-6" d="M221.43,366.6c-.37-.51-.73-1-1.1-1.52C220.7,365.58,221.06,366.09,221.43,366.6Z"/><path class="cls-1" d="M209.51,367.9c-2.57-5.18-6.52-9.35-10-13.87.07-.63.15-1.26.22-1.9,1.45-1.85.74-4,.79-6v0c1.6-1,1-2.61,1-4h0l1.09.1c1.85,1.57-.06,4.95,2.89,6,3.31,5,6.91,9.85,9.77,15.1,1.21,2.23,3.34,3.62,4.28,5.91.47,1.16,1.64,2.47.1,3.49-1.15.76-2.18-.23-3-1.07C214.65,369.53,212.73,367.48,209.51,367.9Z"/><path class="cls-2" d="M202.54,342.18l-1.09-.1.15-8.92,2.91-3c.2-3.12,2.56-5.86,1.62-9.19a3,3,0,0,0,.52-.1c.64.12,1.31.12,1.45-.63.06-.31-.4-.71-.62-1.07l.05-2,1-1c2,0,1.95,1.51,2,2.9q-1,6-2.11,12.09c-1.93.16-3.21.78-3.61,3A71.66,71.66,0,0,1,202.54,342.18Z"/><path class="cls-7" d="M202.54,342.18a71.66,71.66,0,0,0,2.27-7.9c.4-2.27,1.68-2.89,3.61-3-.39,5.75,1.2,11.85-3,16.93C202.48,347.13,204.39,343.75,202.54,342.18Z"/><path class="cls-6" d="M252.29,369.09c.14,2-.13,4.11,1.13,5.91v2c-1.48.65-.53,2.51-1.86,3.5-2.24-2.61-2.9-5.68-3.23-9C248,367.75,249,366.7,252.29,369.09Z"/><path class="cls-8" d="M253.42,377v-2a1.85,1.85,0,0,1,2,2Z"/><path class="cls-11" d="M255.48,405.83c-1.39.2-2.1-.42-2.15-1.81A1.72,1.72,0,0,1,255.48,405.83Z"/><path class="cls-8" d="M193.46,347.17a7.35,7.35,0,0,0-.17-1.95c-.65-1.76-5.39-1.78-3-4.25,1.91-2,5.26-5.17,9-1.72.62,3.34-1.66,6.08-2,9.31-.19,1.86-1.86.25-2.78-.41l-1-1Z"/><path class="cls-14" d="M182.55,338.15c3.24.68,2.07,2.41.5,5.58-.23-2.76-.35-4.19-.47-5.61Z"/><path class="cls-2" d="M200.51,346.1c0,2,.66,4.18-.79,6C199.75,350.09,199.05,348,200.51,346.1Z"/><path class="cls-2" d="M201.47,342.08c0,1.43.63,3-1,4C200.67,344.74,200.1,343.18,201.47,342.08Z"/><path class="cls-14" d="M193.5,347.17l1,1Z"/><path class="cls-14" d="M274.54,370.24l.78-1.2Z"/><path class="cls-14" d="M268.35,391c.23.41.45.83.66,1.24Z"/><path class="cls-12" d="M162.69,117.47l1.93.29c.78,1.15,1.92,1,3,.84l1.9.4c1.34,2.11,5.14,2.48,4.48,6.82-8.17-5.29-16.31-5.68-24.58-1.4l-1.67.6c-1.9-.7-3.48.49-5.2.85-4,.84-8,1.45-12-.14.1-1,.2-1.89.29-2.84a2,2,0,0,0,1.91-2.06c6.87-2,13.53-4.64,20.81-5.32,3-.29,5.46-.13,8,1.25A.83.83,0,0,0,162.69,117.47Z"/><path class="cls-13" d="M130.63,125.73c4,1.59,8,1,12,.14,1.72-.36,3.3-1.55,5.2-.85-.2,1.21-1.07,2.39-.13,3.63-1.62,1.59-4.51,1-5.69,3.34-1,2-3.31,4.24.75,5.6.36,3.64,3,3.26,5.41,2.9,1.89-.29,3.7-1.1,5.67-.63-5.24,6-5.24,6-13.12,2.81l-1.05-1c-.07-1.72.71-3.6-.94-5-2.61-2.09-4.36-5.07-7.62-6.56C129.44,129.37,128.84,127.4,130.63,125.73Z"/><path class="cls-16" d="M121.65,179.62c-4.14-1.05-2.64-3.53-1.48-5.91l5.53-.09.48.42-.42-.48c0-1.67.07-3.33.11-5,2.07,1.15,3.27,2.84,2.9,5.27a5.31,5.31,0,0,0,3,6C128.34,181.06,125.05,178,121.65,179.62Z"/><path class="cls-16" d="M140.19,172.1c-2,.39-4,.92-6.06,1.12a2.48,2.48,0,0,1-2.93-2.59c.09-1.49,1.89-2.13,3.05-1.86a42,42,0,0,1,6.14,2.4Z"/><path class="cls-12" d="M124.73,164.62l-.76-1.75c.28-.32.57-.63.85-.94,3.52-.72,7.09-1.81,9.9,1.65l-1.83.9A8.61,8.61,0,0,0,124.73,164.62Z"/><path class="cls-13" d="M136.54,185.71l11.42.15C144.11,189,140.29,189.33,136.54,185.71Z"/><path class="cls-13" d="M132.89,164.48l1.83-.9,2.94-.2,1.27,1.32c-1.27,1.47-2.44,3-4.75,2.9C131.23,167.5,132,166.05,132.89,164.48Z"/><path class="cls-16" d="M138.93,164.7l-1.27-1.32c1.27-1.44.66-3.43,1.42-5C142.75,161.24,142.71,162.24,138.93,164.7Z"/><path class="cls-16" d="M138.7,136.68c1.65,1.43.87,3.31.94,5C134.55,140.92,138.71,138.41,138.7,136.68Z"/><path class="cls-16" d="M124.82,161.93c-.28.31-.57.62-.85.94-1.18-.26-2.15-.76-2.39-2.09C122.84,160.64,124.12,160.46,124.82,161.93Z"/><path class="cls-13" d="M149.9,186l.33-1.91c.8.36,2.2.42,2,1.56C151.9,186.93,150.74,186.23,149.9,186Z"/><path class="cls-13" d="M132.83,120.83a2,2,0,0,1-1.91,2.06c-.12-.72-.25-1.44-.38-2.16Z"/><path class="cls-16" d="M134.64,180.61l-1.15-.72Z"/><path class="cls-15" d="M158.7,91.76l1.76.44c0,2.44,1.34,3.26,3.66,3.79,4.53,1,7.4,4,8.91,8.53,2.18,6.48-.22,9.25-7.24,9.23-4.38,0-7.9-2.7-12.57-2.38-4.26.28-7.58,1.9-11.05,3.49a17.24,17.24,0,0,1-10.69,1.58c.55-4,4.13-5.48,6.32-7.86,2.8-3.06.56-6.81,3.13-10.25,6-8,6.8-9,16.28-6.54A5.75,5.75,0,0,0,158.7,91.76Z"/><path class="cls-4" d="M213.48,216.48c-2.76-.31-5.15.13-6.24,3.14-3.52,0-4.44,3.92-7.32,4.9-.34-1.89-1.31-2.61-3.1-1.6-1.39.79-2.72,1.67-4.08,2.52-4.26,1.44-6.62,3.78-4,8.46a3.82,3.82,0,0,1-2.14,2.54c-3.7-4.64-12.86-4.19-15.91.78-.33,3.52,4.35,4.69,3.88,8.28-.92,3-2.86,5.83-5.71,5.84-2.28,0-4.07-2.52-4.47-5.63s-1.91-5.91-2.88-8.88c-.49-1.52-1.71-1.28-2.83-1.35a109.41,109.41,0,0,0,14.1-8c9.71-4.14,18.44-10.1,27.72-15.05l6.05-1.91C208.34,213.14,214.1,211.11,213.48,216.48Z"/><path class="cls-15" d="M200.53,212.44c-9.28,4.95-18,10.91-27.72,15.05-3.12-.39-1.71-2-.89-3.41,3.22-5.54,8.16-9.54,12.56-14,1.26-1.29,2.84-2.46,3.59-4,1-2,2-3.63,4.25-3.29,2.77.42,2.1,2.88,2.22,4.77a2,2,0,0,0-1,2c-.09.13-.17.26-.25.39l.23-.41a2,2,0,0,0,1-2c3.38-.53,3.32-5.75,8-5.56C200,205.36,200.55,208.94,200.53,212.44Z"/><path class="cls-13" d="M154.43,226.12c1.32-2.29,4.14-2.42,5.9-4.09.76-.73,1.39-1.44,1-2.55-.35-.94-1.3-.75-2.05-1-5-1.71-9.61.72-14.36,1.5a20.18,20.18,0,0,1-6.34.3c1-2.89,3.89-2.51,5.86-2.64,5.43-.37,10.48-2.35,15.83-3.06s10.18-3.12,15-5.38c1.06-.49,2.25-1.07,3,.34a2.15,2.15,0,0,1-.4,2.76c-7.07,4.82-11.89,13.1-21.49,14A10.8,10.8,0,0,1,154.43,226.12Z"/><path class="cls-12" d="M142.73,137.59c-4.06-1.36-1.78-3.58-.75-5.6,1.18-2.3,4.07-1.75,5.69-3.34l6.86.16c1.64,3,4.82,1.76,7.24,2.63a1.28,1.28,0,0,0,.84.14c.36,1,1.16,1.1,2,1.07,4.71,5-2.17,3.09-2.88,4.86-2.15-1.6-4.12-1.16-6,.54l-3.32-.39c-1.39-3.47-3.14-5.73-6.68-2A3.08,3.08,0,0,0,142.73,137.59Z"/><path class="cls-13" d="M149.47,124.42c8.27-4.28,16.41-3.89,24.58,1.4.66-4.34-3.14-4.71-4.48-6.82,2.19-2.63,4.44-.82,6,.47a10.32,10.32,0,0,1,3.32,5.34c.4,1.87-6.57,4.24-8.55,2.4-5.06-4.71-10.62-3.52-16.29-2.32C152.41,125.24,150.88,125.83,149.47,124.42Z"/><path class="cls-11" d="M142.73,137.59a3.08,3.08,0,0,1,3.08-1.94c1.92,1.7,4.24,2.06,6.68,2l3.32.39c-.06.54-.13,1.07-.2,1.61l-1.8.19c-2-.46-3.78.35-5.67.64C145.77,140.85,143.09,141.23,142.73,137.59Z"/><path class="cls-13" d="M161.77,131.44c-2.42-.87-5.6.38-7.24-2.63C157,129.46,160.92,126.24,161.77,131.44Z"/><path class="cls-13" d="M155.61,139.66c.07-.54.14-1.07.2-1.61,1.85-1.7,3.82-2.14,6-.54C159.24,136.83,158.4,141,155.61,139.66Z"/><path class="cls-13" d="M164.66,132.65c-.89,0-1.69-.09-2-1.07.06-.82.14-1.84,1.26-1.44S164.64,131.72,164.66,132.65Z"/><path class="cls-13" d="M167.67,118.6c-1.13.16-2.27.31-3-.84C166.12,116.29,167.11,116.65,167.67,118.6Z"/><path class="cls-13" d="M114.7,107.69c.38-.24.76-.49,1.16-.71,0,0,.19.24.29.36l-1.31.52Z"/><path class="cls-13" d="M162.69,117.47a.83.83,0,0,1-1.08-.71Z"/><path class="cls-12" d="M213.52,149.62l.39.48-.47-.4Z"/><path class="cls-7" d="M223.47,288.3c0-1.47,0-2.92,2-3A3.27,3.27,0,0,1,223.47,288.3Z"/><path class="cls-7" d="M291.88,323.7a3.34,3.34,0,0,1,.17,2.9c-1.26-.13-.75-1.43-1.31-2Z"/><path class="cls-2" d="M264.85,340.55c-.07-.78-1.42-1.5-.61-2.11.59-.45,1.09.73,1.52,1.31Z"/><path class="cls-2" d="M279.3,323.85l1.45-.48Z"/><path class="cls-8" d="M282.22,303.13c1.13,0,2.27,0,3.4.11.89.07,2.32-.13,2,1.26-.23,1-1.62.73-2.57.72-3-2.15-6.22-1.15-9.25-.51a71.43,71.43,0,0,0-20,7.21,9,9,0,0,1-4.35,1.34C260.71,306.87,270.6,302.45,282.22,303.13Z"/><path class="cls-3" d="M273.33,302a6.39,6.39,0,0,1,6-.11A15.43,15.43,0,0,1,273.33,302Z"/><path class="cls-9" d="M208.36,277.39c6.23-8.31,12.73-16.3,23.15-19.7,1.27,1-.83,2.72.85,3.58a4.71,4.71,0,0,1-.89,3.82c-4,2.09.26,3.31.79,5.23-7.23,2.05-12.24,6.67-15.84,13,0-.52.24-1.18-.52-1.36a5,5,0,0,0-.48,1l-1,.36h-1.91c-.49-1.6,1.92-2.38,1.5-4.33-4.17,3.34-7.89,14.55-6.47,18.95a1.89,1.89,0,0,0,1.92,1.26c-1,2.51,0,6.61-4.79,6.13-.59-2.05-.62-4.39-1.37-6.19-1.52-3.67,1.69-7.48-.88-10.87l.07-1.9Z"/><path class="cls-11" d="M216.42,283.28c3.6-6.29,8.61-10.91,15.84-13-.53-1.92-4.82-3.14-.79-5.23l1.95,1.19,3.18,2.94c-.16.43-.19.87-.35.92-9.57,3.28-16.56,8.92-19.37,19.24-.7,2.57-1.45,6.28-5.35,6.92-.24-2.69,2.12-4.26,2.82-6.54.23-.74.64-1.64-.21-2.21-.49-.33-1.49-.66-1.78-.42-1.72,1.41-2.07,3.61-2.67,5.6-.47,1.59-.55,3.3,1.84,3.57,1.3,2.38-2,1.49-2.06,2.89a1.89,1.89,0,0,1-1.92-1.26c-1.42-4.4,2.3-15.61,6.47-18.95.42,1.95-2,2.73-1.5,4.33-.94.67-1.46,1.55,0,1.93,1.32.35,2.12-.45,1.89-1.94l1-.36Z"/><path class="cls-9" d="M207.53,317.24c0,.66,0,1.31-.05,2a1.4,1.4,0,0,0-.83,1.7,4.64,4.64,0,0,1-.51.11c-3.32-3-5.51-6.86-7.45-10.85,0-2.31,0-4.62,0-6.93,1.46,2.06.14,5.17,2.82,7.13V300c1.35,3.51,1.08,6.29,3,8.21C203.34,312,206.35,314.3,207.53,317.24Z"/><path class="cls-3" d="M204.53,308.25c-1.9-1.92-1.63-4.7-3-8.21v10.33c-2.68-2-1.36-5.07-2.82-7.13.94-5.06,1-10.34,3.7-15,2.57,3.39-.64,7.2.88,10.87.75,1.8.78,4.14,1.37,6.19Z"/><path class="cls-9" d="M235.43,256.52c2.92-1,5.83-2.11,9-2,3.46,1.21.56,2.09-.16,3.08-2.77,1.11-6.6.1-7.91,4,.53,2.45-1,2.81-2.86,2.75,0-.36,0-.72-.05-1.09A16.27,16.27,0,0,0,235.43,256.52Z"/><path class="cls-11" d="M236.36,261.64c1.31-3.94,5.14-2.93,7.91-4-.22.75,1.92,1.2.67,1.52C242.05,259.87,239.67,262.43,236.36,261.64Z"/><path class="cls-3" d="M233.45,263.3c0,.37,0,.73.05,1.09,0,.63-.05,1.26-.08,1.89l-1.95-1.19a4.71,4.71,0,0,0,.89-3.82C234.38,261.06,233,262.7,233.45,263.3Z"/><path class="cls-9" d="M255.39,258.05a17,17,0,0,1-1.71.29c-.76.05-1.52,0-3.38,0C252.66,256.85,254,257.6,255.39,258.05Z"/><path class="cls-2" d="M279.34,279.24a1.91,1.91,0,0,1,2,2A1.72,1.72,0,0,1,279.34,279.24Z"/><path class="cls-8" d="M151.7,292.32l.9-3.09,14-8.84c11.66-5.16,22.13-12.24,32.26-19.89,1.17-.89,2.39-1.7,3.59-2.55.28,2.25-1.53,3.54-2.48,5.19-2.73,4.76-5.62,9.43-8.45,14.13-.07.65-.13,1.31-.2,2-3.46-2.5-3.12,1-4.21,2.55-2.51,3.62-4.4,7.77-8.11,10.45-1.35,1-2.17,3.67-4.32,2.27-2-1.29-1.12-3.5-.56-5.46a9.39,9.39,0,0,1,2.73-4.61,6.31,6.31,0,0,0,2.33-4.68c-2.41,0-2.94,1.72-3.85,3-1.88,2.71-3.94,5.31-5.72,8.09s-3.13,2.66-4.37-.28c-1.08-2.56-2.41-2.26-3.95-.44-1.93,2.26-3.72,4.67-5.85,6.71-1.59,1.53-3.67,2.91-4.83-.64v0C151.63,295.11,155.06,294.65,151.7,292.32Z"/><path class="cls-5" d="M155.71,269.37l2.16,1.92c-2.18,1.7-2.45,4-2.25,6.55.1,1.28.63,3.36-1.68,3.36-2,0-1.6-1.93-2-3.18,1.52-3.07-3.47-3.62-2.52-6.48l.2-.35a2,2,0,0,0,2.08-.78C153.09,270.2,154.67,270.8,155.71,269.37Z"/><path class="cls-6" d="M149.45,271.54c-.95,2.86,4,3.41,2.52,6.48-1.66-1.38-2.18-.35-2.47,1.17-1.69-2.42-.28-5.11-.68-7.64l.32-.12Z"/><path class="cls-3" d="M144.31,283.37a10.22,10.22,0,0,1,.79-1.39c1.08.42.4,1.49.73,2.22Z"/><path class="cls-14" d="M150.59,289.36l-1,.91Z"/><path class="cls-4" d="M149.45,271.54l-.31-.11-.32.12-1.17-.3c-1.22-2.82,1.23-5.16,1-7.85l2.88-.2c.35,2.76.66,5.54,4.16,6.17-1,1.43-2.62.83-4,1a1.88,1.88,0,0,0-2.08.78Z"/><path class="cls-3" d="M146.69,271.82l1-.38Z"/><path class="cls-3" d="M151.55,263.2l-2.88.2a10.54,10.54,0,0,0-2-7.1c1.55-2.12,2.81-4.48,5.15-5.9,2.35,4-1.6,8-.06,12C151.69,262.66,151.62,262.93,151.55,263.2Z"/><path class="cls-4" d="M190.55,259.89c-1.82,3.5-4.64,4.83-7.87,2.39-2.38-1.8-3.51.81-5.92.62,2.82-3.09.41-5.84,0-8.74,3.5-.89,5.34,1.36,7.19,3.7.71.89,1.7,1.8,2.87.66a2,2,0,0,0,0-3c-.75-.8-3.2-.83-1.75-2.57,1.08-1.29,3-.91,4.5.1C190.69,255.2,190.49,257.56,190.55,259.89Z"/><path class="cls-2" d="M191.54,277.27c2.83-4.7,5.72-9.37,8.45-14.13.95-1.65,2.76-2.94,2.48-5.19a1.1,1.1,0,0,1,.65-.65l2.75-.17,1,.38,1.84,2.63c-.68,1.73-2.46,2.08-3.76,3.05-3.77,2.82-6.55,6.35-7.4,11.13l0,0C194.9,274,194.16,277.54,191.54,277.27Z"/><path class="cls-5" d="M170.72,237.22c3.05-5,12.21-5.42,15.91-.78-1.52,2.1-2.93,1.05-4.56,0-.91-.57-2.5-1-3.19.13-1,1.5.78,1.72,1.64,2.33,2.83,2-.44,2.41-.93,3.54-2.08-.34-2.72-2.18-3.48-3.67C174.79,236.25,173.12,235.69,170.72,237.22Z"/><path class="cls-5" d="M189.57,253c-1.5-1-3.42-1.39-4.5-.1-1.45,1.74,1,1.77,1.75,2.57a2,2,0,0,1,0,3c-1.17,1.14-2.16.23-2.87-.66-1.85-2.34-3.69-4.59-7.19-3.7,4.11-3.39,8.74-4.84,14-3.69Z"/><path class="cls-5" d="M188.77,233.9c-2.65-4.68-.29-7,4-8.46,2-.11,3.11.61,2.79,2.79C193,229.8,191.62,232.72,188.77,233.9Z"/><path class="cls-9" d="M170.72,237.22c2.4-1.53,4.07-1,5.39,1.59.76,1.49,1.4,3.33,3.48,3.67-1.67,1-2.72,3-5,3C175.07,241.91,170.39,240.74,170.72,237.22Z"/><path class="cls-10" d="M206.83,257.51l-1-.38-2-.66c1.76-2.51,4.22-4.25,6.67-6C213.35,255,209.05,255.68,206.83,257.51Z"/><path class="cls-3" d="M189.57,253l1.2-2.55c2,.52,2,2.5,3,3.82,0,.73.09,1.46.13,2.19-1.11,1.14-2.21,2.28-3.32,3.41C190.49,257.56,190.69,255.2,189.57,253Z"/><path class="cls-3" d="M195.53,228.23c.32-2.18-.82-2.9-2.79-2.79,1.36-.85,2.69-1.73,4.08-2.52,1.79-1,2.76-.29,3.1,1.6Z"/><path class="cls-4" d="M203.82,245.37c-.38-.49-.74-1.37-1.16-1.4-1.65-.11-2.69-.82-2.19-2.44.72-2.34,2,.13,3.08-.1a9.65,9.65,0,0,1,2.95.22Z"/><path class="cls-4" d="M193.87,256.48c0-.73-.09-1.46-.13-2.19a2.81,2.81,0,0,0,2.83-1.95l2,.17C197.72,254.69,196.39,256.29,193.87,256.48Z"/><path class="cls-8" d="M203.9,256.47l2,.66-2.75.17Z"/><path class="cls-4" d="M195.54,251.4l1,.93Z"/><path class="cls-4" d="M199.68,251.39a.83.83,0,0,1,.84-1Z"/><path class="cls-2" d="M212.4,265.56l-2.64,3.87c-1,.17-1.27.82-1.26,1.72l-.16.18c-1.29,0-1.84.7-1.82,1.93l-.07.09-.92.93-.06.05c-3.17.37-4.65,4.14-8.06,4l.12-4,0,0c4.38-4.13,9.66-7.46,12.08-13.37C212.54,261.26,211,264.33,212.4,265.56Z"/><path class="cls-14" d="M209.59,261c-2.42,5.91-7.7,9.24-12.08,13.37.85-4.78,3.63-8.31,7.4-11.13,1.3-1,3.08-1.32,3.76-3.05Z"/><path class="cls-4" d="M227.09,254.49c-1.44-.1-2.46-.1-2.91-1.24-.79-2,1.15-3.65.82-5.66,0-.22,1.62-.79,2.53-1,.21-.05.92.65.87.89-.48,2.13-1.16,4.23-.13,6.41C228.29,253.87,227.28,254.39,227.09,254.49Z"/><path class="cls-12" d="M238.41,248.39c-.57,2.8-2.83,2.55-5.63,3.28,1.86-2.41,3.45-3.37,5.62-3.3Z"/><path class="cls-9" d="M217.45,252.15c-.13.34.07,1-.7.72a1.7,1.7,0,0,1-.68-.6c-.4-.59.09-.74.51-.87C217.24,251.19,217.32,251.7,217.45,252.15Z"/><path class="cls-11" d="M208.36,277.39q-2.93,4.49-5.86,9l-2.83.91c1.35-4.57,4.73-8.24,5.8-12.94l.06-.05a2.46,2.46,0,0,0,.85-.11C207.8,274.78,207.38,276.51,208.36,277.39Z"/><path class="cls-4" d="M233.45,263.3c-.5-.6.93-2.24-1.09-2-1.68-.86.42-2.62-.85-3.58l3.92-1.17A16.27,16.27,0,0,1,233.45,263.3Z"/><path class="cls-8" d="M206.52,273.26c0-1.23.53-1.92,1.82-1.93A2.88,2.88,0,0,1,206.52,273.26Z"/><path class="cls-8" d="M208.5,271.15c0-.9.3-1.55,1.26-1.72Z"/><path class="cls-8" d="M206.38,274.17a2.46,2.46,0,0,1-.85.11l.92-.93A2.53,2.53,0,0,1,206.38,274.17Z"/><path class="cls-6" d="M287.25,294.38l-1-.2c-.44-1-1.25-.75-2-.64-3-.33-2.69-4.59-7.1-4.33,6-3.15,8.49,0,11,3.14A1.83,1.83,0,0,1,287.25,294.38Z"/><path class="cls-8" d="M287.25,294.38a1.83,1.83,0,0,0,.87-2c3.77.94,5.76,3.55,7.78,8.09-3.51-1.67-4.67-5.67-8.15-3.71Z"/><path class="cls-11" d="M272,290.57c-2.33.25-4.92,2.36-6.53-.9-1-2.05,1.75-3.68,3.9-2.24.47.32.45,1.32.76,1.95S271.33,290.06,272,290.57Z"/><path class="cls-11" d="M243.75,300.78c-.49-2.62-3.56-3.65-.85-5.8.92-.74,2.31-1.53,3.08-.42C247.47,296.71,245.3,298.05,243.75,300.78Z"/><path class="cls-11" d="M251.43,291.08c-.37,1.69,2.6,2.2,1.18,4.26-.57.84-1,.6-1.46.06C250,294,249.93,292.56,251.43,291.08Z"/><path class="cls-3" d="M295.22,304.19c.92,0,2.2-.56,2.5.63a2,2,0,0,1-1.45,2.25c-1.5.36-2.07-.51-2.15-1.86Z"/><path class="cls-8" d="M295.22,304.19l-1.1,1c-.58-.09-1.52.06-1.16-.94a2.33,2.33,0,0,1,1.35-1.3C295.3,302.68,295.12,303.62,295.22,304.19Z"/><path class="cls-8" d="M284.25,293.54c.77-.11,1.58-.32,2,.64-.1.57.13,1.54-.84,1.34S284.36,294.37,284.25,293.54Z"/><path class="cls-11" d="M151.29,248c.56-.72,1.39-1.12,2-.44s-.32,1-.77,1.42Z"/><path class="cls-14" d="M197.53,274.3l-.12,4a34.7,34.7,0,0,0-2.39,3.57c-2.31,4.57-1.39,8,2.4,9.33-.38,1.6-.75,3.2-1.13,4.8-2.65,3.1-3.42,6.43-1.21,10.12,0,.72-.09,1.44-.14,2.16a9.24,9.24,0,0,0,0,4.84l-.59,3.09c-1.43.35-3,.44-3.61,2.18-4,.8-6-4.69-10.15-3.23-.05-1.16.72-2.38-1.67-2.57-5.33-.42-5.81-1.69-3.71-6.54,1.7-3.94,4.32-5.72,8.61-4.29.83.28,1.68.5,2-.58s-.79-1.39-1.46-1.54c-4.11-.91-8.17-1.17-11.77,1.67-3.22-3.06-6.57-.34-9.87-.23.13-.46.5-1.06.33-1.35-.42-.73-1.16-.52-1.52.08-.65,1.11-1.14,2.33-1.69,3.5a1.3,1.3,0,0,0-.27.72l-.75,1.21a2,2,0,0,0-.32.93l-.73,1.09,0,.06-1.83-.44c-.06-1-.13-2-.19-3-.13-2.14.1-4.28-3.06-4.73s-3.57,1.46-3.85,3.72c-.14,1.25-.53,2.27-2,2.49-1.65-4.28.85-6.83,3.83-9.18,1.16,3.55,3.24,2.17,4.83.64,2.13-2,3.92-4.45,5.85-6.71,1.54-1.82,2.87-2.12,3.95.44,1.24,2.94,2.61,3,4.37.28s3.84-5.38,5.72-8.09c.91-1.31,1.44-3,3.85-3a6.31,6.31,0,0,1-2.33,4.68,9.39,9.39,0,0,0-2.73,4.61c-.56,2-1.42,4.17.56,5.46,2.15,1.4,3-1.3,4.32-2.27,3.71-2.68,5.6-6.83,8.11-10.45,1.09-1.56.75-5,4.21-2.55.07-.65.13-1.31.2-2C194.16,277.54,194.9,274,197.53,274.3Z"/><path class="cls-12" d="M146.8,305.4c1.43-.22,1.82-1.24,2-2.49.28-2.26.62-4.17,3.85-3.72s2.93,2.59,3.06,4.73c.06,1,.13,2,.19,3,0,.6,0,1.66.16,1.72.95.27,1.43-.42,1.67-1.28l0-.06c.82.12,1.82,1.49,2.4.27.68-1.43-.9-1.12-1.67-1.36a2,2,0,0,1,.32-.93l.75-1.21a1.3,1.3,0,0,1,.27-.72c.88.28,1,2.13,2.2,1.4s.51-2.4.68-3.63c3.3-.11,6.65-2.83,9.87.23l.11-.12a7.68,7.68,0,0,0-6.91,2.36c.9,1.57,4-.25,3.57,2.22-.35,1.89-2.48,1-3.83,1a2.8,2.8,0,0,0-3.19,2.91c-.07,2,1.73,1.5,2.92,1.67,1,.14,1.95.16,2.93.23.6,1.81.08,2.76-2,2.63-2.54-.16-5.14.21-7.53-1l-.19-3.85c-2.06,1.39-2.39,6.33-5.84,3.39-2-1.75.08-5.43-2.22-8.06-1.48,3.36-2.82,6.39-4.15,9.42l-.78-.15c.1-1.24.19-2.49.29-3.73C146.1,308.61,146.45,307,146.8,305.4Z"/><path class="cls-14" d="M151.7,292.32c3.36,2.33-.07,2.79-1.08,3.92C150.72,294.86,150.34,293.35,151.7,292.32Z"/><path class="cls-6" d="M158.65,313.2c2.39,1.24,5,.87,7.53,1,2,.13,2.56-.82,2-2.63l1.79-.48c2,5.28,6.55,4.11,10.62,4.06,4.19-1.46,6.17,4,10.15,3.23-3.12,4.81-2.83,6.48,1.45,8.51,1.27,2.91-.6,5-1.91,7.23a1.91,1.91,0,0,1-2.61.72c-1.36-.67-.39-1.68,0-2.5,1.12-2.5,2.63-5.08-2-5.61a.63.63,0,0,1-.46-1.05c4.3-4.44-.4-3.12-2.27-3.56-7.35-1.7-14.71-3.37-22.06-5.08C158.81,316.59,158.54,315,158.65,313.2Z"/><path class="cls-13" d="M198.69,310.17c1.94,4,4.13,7.8,7.45,10.85.93,3.32-1.43,6.06-1.63,9.18-3.3.45-4.55-2.18-6.2-4.16-1.36-1.64-1.82-3.94-3.7-5.22l0-1.77C198.46,317.22,196.12,312.57,198.69,310.17Z"/><path class="cls-10" d="M194.64,319.05l0,1.77-2.46,6.1c-4.28-2-4.57-3.7-1.45-8.51.59-1.74,2.18-1.83,3.61-2.18Z"/><path class="cls-7" d="M206.65,320.91a1.4,1.4,0,0,1,.83-1.7c.22.36.68.76.62,1.07C208,321,207.29,321,206.65,320.91Z"/><path class="cls-13" d="M125.76,173.56l.42.48-.48-.42Z"/><path class="cls-16" d="M193.55,209.5a2,2,0,0,1,1-2h0a2,2,0,0,1-1,2Z"/><path class="cls-16" d="M193.53,209.48l-.23.41c.08-.13.16-.26.25-.39Z"/><path class="cls-3" d="M152.49,137.66c-2.44.05-4.76-.31-6.68-2C149.35,131.93,151.1,134.19,152.49,137.66Z"/><path class="cls-12" d="M194.64,319.05l-.33-2.82c.2-1,.4-2.06.59-3.09a3.88,3.88,0,0,0,0-4.84c.05-.72.1-1.44.14-2.16,1.54-3.24.77-6.75,1.21-10.12.38-1.6.75-3.2,1.13-4.8l2.25-4,2.83-.91c0,.63,0,1.27-.07,1.9-2.66,4.64-2.76,9.92-3.7,15,0,2.31,0,4.62,0,6.93C196.12,312.57,198.46,317.22,194.64,319.05Z"/><path class="cls-3" d="M214.43,283.3c.23,1.49-.57,2.29-1.89,1.94-1.48-.38-1-1.26,0-1.93Z"/><path class="cls-3" d="M216.42,283.28l-1-.34a5,5,0,0,1,.48-1C216.66,282.1,216.4,282.76,216.42,283.28Z"/><path class="cls-9" d="M211.53,296.3c-2.39-.27-2.31-2-1.84-3.57.6-2,.95-4.19,2.67-5.6.29-.24,1.29.09,1.78.42.85.57.44,1.47.21,2.21-.7,2.28-3.06,3.85-2.82,6.54Z"/><path class="cls-9" d="M149.65,271.19a1.88,1.88,0,0,1,2.08-.78A2,2,0,0,1,149.65,271.19Z"/><path class="cls-8" d="M199.67,287.27l-2.25,4c-3.79-1.31-4.71-4.76-2.4-9.33a34.7,34.7,0,0,1,2.39-3.57c3.41.15,4.89-3.62,8.06-4C204.4,279,201,282.7,199.67,287.27Z"/><path class="cls-12" d="M180.55,315.18c-4.07.05-8.58,1.22-10.62-4.06a33.48,33.48,0,0,1,2.72-9.91l-.11.12c3.6-2.84,7.66-2.58,11.77-1.67.67.15,1.79.38,1.46,1.54s-1.16.86-2,.58c-4.29-1.43-6.91.35-8.61,4.29-2.1,4.85-1.62,6.12,3.71,6.54C181.27,312.8,180.5,314,180.55,315.18Z"/><path class="cls-11" d="M196.29,296c-.44,3.37.33,6.88-1.21,10.12C192.87,302.45,193.64,299.12,196.29,296Z"/><path class="cls-11" d="M162.67,301.1c-.17,1.23.66,2.82-.68,3.63s-1.32-1.12-2.2-1.4c.55-1.17,1-2.39,1.69-3.5.36-.6,1.1-.81,1.52-.08C163.17,300,162.8,300.64,162.67,301.1Z"/><path class="cls-11" d="M194.94,308.3a3.88,3.88,0,0,1,0,4.84A9.24,9.24,0,0,1,194.94,308.3Z"/><path class="cls-11" d="M158.45,306.19c.77.24,2.35-.07,1.67,1.36-.58,1.22-1.58-.15-2.4-.27Z"/><path class="cls-11" d="M157.69,307.34c-.24.86-.72,1.55-1.67,1.28-.2-.06-.11-1.12-.16-1.72Z"/><path class="cls-11" d="M159.52,304.05l-.75,1.21Z"/><path class="cls-14" d="M172.65,301.21a33.48,33.48,0,0,0-2.72,9.91l-1.79.48c-1-.07-2-.09-2.93-.23-1.19-.17-3,.29-2.92-1.67a2.8,2.8,0,0,1,3.19-2.91c1.35,0,3.48.89,3.83-1,.45-2.47-2.67-.65-3.57-2.22A7.68,7.68,0,0,1,172.65,301.21Z"/></svg>
