<svg id="Layer_1" data-name="Layer 1" xmlns="http://www.w3.org/2000/svg" width="41.25mm" height="27.5mm" viewBox="0 0 116.93 77.95"><defs><style>.cls-1{fill:#312783;}.cls-2{fill:#fff;}.cls-3{fill:#be1622;}</style></defs><title>australien</title><rect class="cls-1" width="116.93" height="77.95"/><rect class="cls-1" width="51.02" height="34.01"/><polygon class="cls-2" points="51.02 31.54 51.02 34.01 47.31 34.01 29.22 21.95 27.68 20.92 27.37 20.72 25.51 19.48 25.04 19.17 23.35 18.04 21.8 17.01 21.8 17.01 21.8 17 18.55 14.84 16.23 13.3 0 2.48 0 0 3.71 0 21.8 12.06 23.35 13.09 23.66 13.3 25.51 14.54 25.97 14.84 27.68 15.97 29.22 17 29.22 17.01 29.22 17.01 32.47 19.17 34.79 20.72 51.02 31.54"/><polygon class="cls-3" points="19.44 13.3 17.27 13.3 0 1.78 0 0.34 19.44 13.3"/><polygon class="cls-3" points="51.02 32.07 51.02 33.52 31.82 20.72 33.98 20.72 51.02 32.07"/><polygon class="cls-2" points="51.02 0 51.02 2.48 34.79 13.3 32.47 14.84 29.22 17.01 29.22 17.01 27.68 18.04 25.98 19.17 25.51 19.48 23.66 20.72 23.35 20.92 21.8 21.96 3.71 34.01 0 34.01 0 31.54 16.23 20.72 18.56 19.17 21.8 17.01 21.8 17.01 23.35 15.97 25.05 14.84 25.51 14.54 27.37 13.3 27.68 13.09 29.22 12.06 47.31 0 51.02 0"/><polygon class="cls-2" points="51.02 13.3 51.02 20.72 0 20.72 0 13.3 28.72 13.3 27.68 13.99 29.84 13.99 30.88 13.3 51.02 13.3"/><rect class="cls-2" x="21.8" width="7.42" height="34.01"/><rect class="cls-3" y="15.15" width="51.02" height="3.71"/><rect class="cls-3" x="23.65" width="3.71" height="34.01"/><polygon class="cls-3" points="51.02 0.5 51.02 1.94 33.98 13.3 31.82 13.3 51.02 0.5"/><polygon class="cls-3" points="19.44 20.72 0 33.67 0 32.23 17.27 20.72 19.44 20.72"/><polygon class="cls-2" points="25.51 41.85 27.04 45.74 31.04 44.51 28.96 48.14 32.4 50.5 28.27 51.13 28.58 55.29 25.51 52.46 22.44 55.29 22.75 51.13 18.62 50.5 22.06 48.14 19.98 44.51 23.98 45.74 25.51 41.85"/><polygon class="cls-2" points="64.29 27.39 65.17 29.62 67.46 28.92 66.27 31 68.25 32.36 65.87 32.72 66.05 35.11 64.29 33.48 62.53 35.11 62.7 32.72 60.33 32.36 62.31 31 61.11 28.92 63.41 29.62 64.29 27.39"/><polygon class="cls-2" points="84.83 4.61 85.71 6.84 88 6.14 86.81 8.22 88.78 9.57 86.42 9.94 86.59 12.33 84.83 10.7 83.07 12.33 83.24 9.94 80.87 9.57 82.85 8.22 81.65 6.14 83.95 6.84 84.83 4.61"/><polygon class="cls-2" points="99.97 20.52 100.85 22.75 103.14 22.05 101.94 24.13 103.92 25.48 101.55 25.85 101.73 28.24 99.97 26.61 98.2 28.24 98.38 25.85 96.01 25.48 97.99 24.13 96.79 22.05 99.08 22.75 99.97 20.52"/><polygon class="cls-2" points="83.87 52.34 84.75 54.57 87.05 53.87 85.85 55.95 87.83 57.3 85.46 57.67 85.64 60.06 83.87 58.43 82.11 60.06 82.29 57.67 79.92 57.3 81.89 55.95 80.7 53.87 82.99 54.57 83.87 52.34"/><polygon class="cls-2" points="88.06 40.2 88.46 41.2 89.48 40.88 88.94 41.81 89.83 42.41 88.77 42.57 88.85 43.64 88.06 42.91 87.28 43.64 87.36 42.57 86.3 42.41 87.18 41.81 86.65 40.88 87.67 41.2 88.06 40.2"/></svg>
