<svg id="Layer_1" data-name="Layer 1" xmlns="http://www.w3.org/2000/svg" width="41.25mm" height="27.5mm" viewBox="0 0 116.93 77.95"><defs><style>.cls-1{fill:#be1622;}.cls-2{fill:#fff;}</style></defs><title>canada</title><rect class="cls-1" width="116.93" height="77.95"/><rect class="cls-2" x="29.23" width="58.46" height="77.95"/><polygon class="cls-1" points="78.93 39.15 81.8 35.41 84.5 31.07 79.5 32.13 75.01 33.55 74.06 30.14 65.91 36.84 66.77 25.66 62.67 27.11 60.93 21.58 58.47 15.8 56 21.58 54.26 27.11 50.16 25.66 51.02 36.84 42.87 30.14 41.92 33.55 37.43 32.13 32.43 31.07 35.13 35.41 38 39.15 35.13 41.2 50.67 51.25 48.71 56.18 57.92 53.44 57.92 62.16 59.01 62.16 59.01 53.44 68.22 56.18 66.25 51.25 81.8 41.2 78.93 39.15"/></svg>
