<svg id="Layer_1" data-name="Layer 1" xmlns="http://www.w3.org/2000/svg" width="41.25mm" height="27.5mm" viewBox="0 0 116.93 77.95"><defs><style>.cls-1{fill:#312783;}.cls-2{fill:#fff;}.cls-3{fill:#be1622;}</style></defs><title>england</title><rect class="cls-1" width="116.93" height="77.95"/><polygon class="cls-2" points="116.93 72.28 116.93 77.95 108.43 77.95 66.97 50.31 63.43 47.95 62.72 47.48 58.47 44.64 57.4 43.93 53.51 41.34 49.97 38.98 49.96 38.98 49.96 38.97 42.52 34.01 37.21 30.47 0 5.67 0 0 8.51 0 49.96 27.63 53.51 30 54.22 30.47 58.47 33.31 59.53 34.01 63.43 36.61 66.97 38.97 66.97 38.98 66.98 38.98 74.41 43.93 79.73 47.48 116.93 72.28"/><polygon class="cls-3" points="44.55 30.47 39.59 30.47 0 4.08 0 0.77 44.55 30.47"/><polygon class="cls-3" points="116.93 73.5 116.93 76.81 72.93 47.48 77.89 47.48 116.93 73.5"/><polygon class="cls-2" points="116.93 0 116.93 5.67 79.73 30.47 74.42 34.01 66.98 38.98 66.97 38.98 63.43 41.34 59.54 43.93 58.47 44.64 54.22 47.48 53.51 47.95 49.96 50.32 8.51 77.95 0 77.95 0 72.28 37.21 47.48 42.53 43.93 49.96 38.98 49.97 38.98 53.51 36.61 57.41 34.01 58.47 33.31 62.72 30.47 63.43 30 66.97 27.64 108.43 0 116.93 0"/><polygon class="cls-2" points="116.93 30.47 116.93 47.48 0 47.48 0 30.47 65.82 30.47 63.43 32.06 68.39 32.06 70.78 30.47 116.93 30.47"/><rect class="cls-2" x="49.96" width="17.01" height="77.95"/><rect class="cls-3" y="34.72" width="116.93" height="8.5"/><rect class="cls-3" x="54.22" width="8.5" height="77.95"/><polygon class="cls-3" points="116.93 1.14 116.93 4.44 77.89 30.47 72.93 30.47 116.93 1.14"/><polygon class="cls-3" points="44.55 47.48 0 77.17 0 73.87 39.59 47.48 44.55 47.48"/></svg>
